<svg width="28" height="28" viewBox="0 0 28 28" fill="none" xmlns="http://www.w3.org/2000/svg">
<path d="M18.25 8.66667H18.2633M2.25 19.3333L8.91667 12.6666C10.154 11.4759 11.6793 11.4759 12.9167 12.6666L19.5833 19.3333M16.9167 16.6666L18.25 15.3333C19.4873 14.1426 21.0127 14.1426 22.25 15.3333L26.25 19.3333M2.25 6C2.25 4.93913 2.67143 3.92172 3.42157 3.17157C4.17172 2.42143 5.18913 2 6.25 2H22.25C23.3109 2 24.3283 2.42143 25.0784 3.17157C25.8286 3.92172 26.25 4.93913 26.25 6V22C26.25 23.0609 25.8286 24.0783 25.0784 24.8284C24.3283 25.5786 23.3109 26 22.25 26H6.25C5.18913 26 4.17172 25.5786 3.42157 24.8284C2.67143 24.0783 2.25 23.0609 2.25 22V6Z" stroke="#FFF8ED" stroke-width="2.66667" stroke-linecap="round" stroke-linejoin="round"/>
</svg>
