<svg width="31" height="30" viewBox="0 0 31 30" fill="none" xmlns="http://www.w3.org/2000/svg">
<path d="M20.75 3.75L15.75 10M20.75 3.75H10.75M20.75 3.75C21.413 3.75 22.0489 4.01339 22.5178 4.48223C22.9866 4.95107 23.25 5.58696 23.25 6.25V8.965C23.2501 9.62799 23.5136 10.2638 23.9825 10.7325L25.0175 11.7675C25.4864 12.2362 25.7499 12.872 25.75 13.535V23.75C25.75 24.413 25.4866 25.0489 25.0178 25.5178C24.5489 25.9866 23.913 26.25 23.25 26.25H18.25C17.587 26.25 16.9511 25.9866 16.4822 25.5178C16.0134 25.0489 15.75 24.413 15.75 23.75M15.75 10L10.75 3.75M15.75 10V23.75M10.75 3.75C10.087 3.75 9.45107 4.01339 8.98223 4.48223C8.51339 4.95107 8.25 5.58696 8.25 6.25V8.965C8.24986 9.62799 7.98637 10.2638 7.5175 10.7325L6.4825 11.7675C6.01363 12.2362 5.75014 12.872 5.75 13.535V23.75C5.75 24.413 6.01339 25.0489 6.48223 25.5178C6.95107 25.9866 7.58696 26.25 8.25 26.25H13.25C13.913 26.25 14.5489 25.9866 15.0178 25.5178C15.4866 25.0489 15.75 24.413 15.75 23.75M25.75 16.25H22C21.6685 16.25 21.3505 16.3817 21.1161 16.6161C20.8817 16.8505 20.75 17.1685 20.75 17.5V20C20.75 20.3315 20.8817 20.6495 21.1161 20.8839C21.3505 21.1183 21.6685 21.25 22 21.25H25.75M5.75 21.25H9.5C9.83152 21.25 10.1495 21.1183 10.3839 20.8839C10.6183 20.6495 10.75 20.3315 10.75 20V17.5C10.75 17.1685 10.6183 16.8505 10.3839 16.6161C10.1495 16.3817 9.83152 16.25 9.5 16.25H5.75" stroke="#FFF8ED" stroke-width="2.5" stroke-linecap="round" stroke-linejoin="round"/>
</svg>
