<svg width="31" height="30" viewBox="0 0 31 30" fill="none" xmlns="http://www.w3.org/2000/svg">
<path d="M13.25 12.5C12.625 11.25 10.125 11.25 9.5 12.5M22 12.5C21.375 11.25 18.875 11.25 18.25 12.5M18.875 18.75C18.4677 19.1657 17.9814 19.496 17.4448 19.7215C16.9082 19.947 16.332 20.0631 15.75 20.0631C15.168 20.0631 14.5918 19.947 14.0552 19.7215C13.5186 19.496 13.0323 19.1657 12.625 18.75M15.75 26.25C14.2726 26.25 12.8097 25.959 11.4448 25.3936C10.0799 24.8283 8.83971 23.9996 7.79505 22.955C6.75039 21.9103 5.92172 20.6701 5.35636 19.3052C4.79099 17.9403 4.5 16.4774 4.5 15C4.5 13.5226 4.79099 12.0597 5.35636 10.6948C5.92172 9.3299 6.75039 8.08971 7.79505 7.04505C8.83971 6.00039 10.0799 5.17172 11.4448 4.60636C12.8097 4.04099 14.2726 3.75 15.75 3.75C18.7337 3.75 21.5952 4.93526 23.705 7.04505C25.8147 9.15483 27 12.0163 27 15C27 17.9837 25.8147 20.8452 23.705 22.955C21.5952 25.0647 18.7337 26.25 15.75 26.25Z" stroke="#E87903" stroke-width="2.5" stroke-linecap="round" stroke-linejoin="round"/>
</svg>
