<svg width="31" height="30" viewBox="0 0 31 30" fill="none" xmlns="http://www.w3.org/2000/svg">
<path d="M10.75 5H8.25L4.5 17.5M4.5 17.5V20.625C4.5 21.7853 4.96094 22.8981 5.78141 23.7186C6.60188 24.5391 7.71468 25 8.875 25C10.0353 25 11.1481 24.5391 11.9686 23.7186C12.7891 22.8981 13.25 21.7853 13.25 20.625V17.5H4.5ZM20.75 5H23.25L27 17.5M27 17.5H18.25V20.625C18.25 21.7853 18.7109 22.8981 19.5314 23.7186C20.3519 24.5391 21.4647 25 22.625 25C23.7853 25 24.8981 24.5391 25.7186 23.7186C26.5391 22.8981 27 21.7853 27 20.625V17.5ZM13.25 20H18.25" stroke="#FFF8ED" stroke-width="2.5" stroke-linecap="round" stroke-linejoin="round"/>
</svg>
