<svg width="30" height="24" viewBox="0 0 30 24" fill="none" xmlns="http://www.w3.org/2000/svg">
<path d="M7.25002 9.33333L9.16469 4C9.58869 2.832 10.1354 2.264 10.9767 2.264C11.2687 2.264 12.382 2.75067 13.4834 3.04133C14.5834 3.33333 14.4607 2.60267 14.694 2.392C14.9287 2.18133 15.1674 2 15.5074 2C15.83 2 16.2447 2.064 17.7634 2.59733C18.7754 2.95333 19.754 3.36267 20.702 3.82667C22.2687 4.60267 22.6034 5.044 22.8287 5.836L23.9167 12M7.25002 9.33333C3.69402 9.88 1.91669 10.848 1.91669 12.24C1.91669 16.6107 12.366 22 20.6407 22C26.9834 22 28.5834 19.156 28.5834 16.9093C28.5834 15.1427 26.698 13.1973 23.9167 12M7.25002 9.33333C7.25002 10.6253 13.1034 14 19.9167 14C21.6687 14 23.9167 14.084 23.9167 12" stroke="#FFF8ED" stroke-width="2.67" stroke-linecap="round" stroke-linejoin="round"/>
</svg>
