<svg width="29" height="30" viewBox="0 0 29 30" fill="none" xmlns="http://www.w3.org/2000/svg">
<path d="M14.5729 7.89647L17.8016 22.103L12.6356 27.269L7.4696 22.103L10.6984 7.89647M14.5729 7.89647L15.8553 4.47529C15.9285 4.27993 15.9534 4.06975 15.9276 3.86271C15.9019 3.65568 15.8264 3.45796 15.7076 3.28647C15.5888 3.11498 15.4302 2.97482 15.2454 2.87799C15.0606 2.78117 14.8551 2.73055 14.6465 2.73047H10.6247C10.4161 2.73055 10.2106 2.78117 10.0258 2.87799C9.84102 2.97482 9.68243 3.11498 9.56362 3.28647C9.44481 3.45796 9.36931 3.65568 9.34358 3.86271C9.31786 4.06975 9.34267 4.27993 9.41589 4.47529L10.6984 7.89647M14.5729 7.89647H10.6984M14.5729 7.89647L21.0304 14.9997" stroke="#FFF8ED" stroke-width="2.583" stroke-linecap="round" stroke-linejoin="round"/>
</svg>
