<svg width="101" height="81" viewBox="0 0 101 81" fill="none" xmlns="http://www.w3.org/2000/svg">
<path d="M30.6851 21.734C29.9684 22.2444 29.2518 22.7584 28.5279 23.2615C28.3577 23.3809 28.1695 23.4714 27.9922 23.5764C27.5252 22.4616 26.9823 21.3829 26.3815 20.3333C25.4006 18.6212 24.2821 17.0105 22.9827 15.5265C22.8162 15.3347 22.6751 15.103 22.3457 14.9836C21.7195 15.1791 21.0391 15.3673 20.3731 15.6025C19.5044 15.9102 18.6321 16.2034 17.8358 16.6884C17.4738 16.8621 17.101 17.0142 16.7535 17.206C14.2307 18.5995 11.9577 20.326 9.95605 22.4036C8.53719 23.8768 7.29931 25.4839 6.30756 27.2755C6.09763 27.652 6.03972 27.9994 6.12659 28.4229C6.89031 32.0605 8.38517 35.3833 10.3868 38.4961C10.1696 38.7748 9.94881 39.0499 9.73888 39.3358C9.52895 39.6217 9.32987 39.9149 9.11994 40.2045C9.00773 40.3565 8.89915 40.5158 8.7616 40.6424C8.55167 40.8343 8.27659 40.8343 8.05218 40.6533C7.92549 40.552 7.80605 40.4289 7.70108 40.3022C7.19073 39.6796 6.6478 39.0824 6.1845 38.4273C3.60016 34.7788 1.92431 30.7539 1.20765 26.3272C0.766064 23.5981 0.686435 20.8617 0.979617 18.1145C1.21489 15.9211 1.68181 13.7711 2.38037 11.679C2.40933 11.5921 2.46724 11.5161 2.51068 11.4328C3.03189 11.7007 3.54948 11.983 4.08155 12.2291C5.17103 12.7323 6.28947 13.1594 7.48753 13.3295C7.45495 13.4417 7.43686 13.5575 7.3898 13.6661C6.73467 15.1392 6.27137 16.6739 5.98543 18.2629C5.90942 18.6936 5.79359 19.1243 5.80445 19.5768C6.00714 19.5623 6.06144 19.4139 6.14469 19.3089C8.18972 16.844 10.622 14.8461 13.3946 13.2571C13.5177 13.1883 13.6263 13.0978 13.7421 13.0182C14.9691 12.4644 16.1961 11.9142 17.4231 11.3605C17.4811 11.3351 17.5245 11.2844 17.6114 11.2121C17.4268 11.0998 17.2747 10.9949 17.1119 10.908C16.739 10.7089 16.359 10.5207 15.9789 10.3289C16.055 10.2094 16.1237 10.0828 16.2106 9.97417C17.0612 8.91003 17.6729 7.71559 18.1688 6.45237C18.2954 6.12661 18.433 5.80086 18.5669 5.4751C18.7624 5.55473 18.9723 5.60902 19.1497 5.71761C20.4491 6.53924 21.6037 7.55271 22.733 8.58427C23.7247 9.49278 24.5717 10.5461 25.4332 11.5776C25.9001 12.1387 26.338 12.725 26.747 13.3295C27.3551 14.2271 27.9162 15.1573 28.4591 16.0984C28.9839 17.0033 29.4146 17.9444 29.7947 18.9108C30.1639 19.8193 30.4896 20.7604 30.6851 21.734ZM17.0214 15.8378C17.3218 15.7039 17.6258 15.57 17.9263 15.436C18.2086 15.313 18.4873 15.1827 18.7732 15.0669C19.0809 14.9402 19.3922 14.8243 19.7034 14.7121C19.993 14.6072 20.2898 14.5275 20.5758 14.4117C20.8653 14.2923 21.2092 14.285 21.4879 14.0389C21.3829 13.9158 21.3178 13.8181 21.2309 13.7457C20.5866 13.2245 19.9315 12.7178 19.2872 12.1966C19.0411 11.9975 18.7913 11.9649 18.4981 12.0916C17.434 12.5513 16.3626 12.9929 15.2949 13.4525C15.1465 13.5177 15.0162 13.6227 14.8786 13.7095C14.6868 13.7928 14.4841 13.8652 14.2995 13.9665C11.6536 15.4071 9.32987 17.253 7.35723 19.5297C6.79982 20.1704 6.3329 20.8871 5.82617 21.5711C5.66329 21.7883 5.59814 22.0308 5.60538 22.3023C5.63071 23.2723 5.64881 24.2424 5.67777 25.2124C5.68501 25.4404 5.70672 25.6685 5.84788 25.9435C5.98543 25.7336 6.09039 25.5816 6.19174 25.4259C6.7962 24.4885 7.46943 23.6053 8.20058 22.7656C10.5858 20.0184 13.3982 17.8105 16.6015 16.0912C16.7427 16.0115 16.8802 15.9211 17.0214 15.8378Z" fill="#463E55"/>
<path d="M10.3869 38.4922C8.38525 35.3831 6.89039 32.0567 6.12667 28.4191C6.0398 27.9992 6.09771 27.6517 6.30764 27.2717C7.30301 25.48 8.53727 23.8693 9.95613 22.3998C11.9577 20.3222 14.2308 18.5957 16.7536 17.2022C17.1047 17.0103 17.4739 16.8547 17.8358 16.6846C18.0313 16.8547 18.2593 16.9995 18.415 17.1985C18.9977 17.9405 19.5768 18.6825 20.1161 19.4571C20.9016 20.5792 21.6436 21.7266 22.2842 22.9427C22.7693 23.8621 23.276 24.767 23.6705 25.7334C23.7755 25.9904 23.8624 26.2763 24.1519 26.4102C23.9167 26.6057 23.6886 26.8048 23.4461 26.993C21.6798 28.372 19.9171 29.7547 18.2087 31.2097C16.9708 32.2666 15.751 33.3453 14.5421 34.4384C13.192 35.6581 11.9215 36.9576 10.6438 38.257C10.5678 38.3438 10.4737 38.4162 10.3869 38.4922Z" fill="#E799C2"/>
<path d="M7.49138 13.326C6.29332 13.1558 5.17488 12.7251 4.0854 12.2256C3.55333 11.9795 3.03936 11.6972 2.51453 11.4293C2.54348 11.2918 2.55796 11.1506 2.60501 11.0167C3.33254 8.95357 4.27724 6.99902 5.51512 5.19288C6.09062 4.34953 6.72766 3.55685 7.49138 2.87638C8.07412 2.35879 8.68583 1.87377 9.44231 1.62402C9.76445 1.6747 10.0902 1.71813 10.4123 1.77966C11.357 1.96064 12.2981 2.16333 13.1849 2.55786C13.5288 2.70988 13.8762 2.85466 14.2201 3.00306C15.6245 3.61476 17.018 4.24818 18.2993 5.10239C18.3753 5.15306 18.473 5.16754 18.5599 5.1965C18.5635 5.28699 18.5671 5.37748 18.5708 5.46796C18.4368 5.79372 18.2993 6.11586 18.1726 6.44524C17.6767 7.70483 17.065 8.9029 16.2144 9.96704C16.1276 10.0756 16.0588 10.2023 15.9828 10.3218C14.9947 9.996 14.0174 9.63404 12.975 9.52546C11.415 9.36258 10.0757 9.7752 9.05502 11.0239C8.56638 11.4728 8.237 12.0374 7.91487 12.6057C7.77732 12.8482 7.63254 13.0835 7.49138 13.326Z" fill="#A83A4C"/>
<path d="M18.5742 5.46788C18.5706 5.37739 18.567 5.2869 18.5634 5.19642C18.6032 5.10955 18.6611 5.02992 18.6792 4.93943C18.824 4.17571 19.023 3.41923 19.052 2.63379C19.1425 2.65913 19.2366 2.66998 19.3198 2.7098C23.5547 4.75121 27.2575 7.4731 30.1857 11.1904C31.6588 13.058 32.8315 15.1067 33.798 17.2748C34.0006 17.7272 34.1997 18.1833 34.3807 18.643C34.5255 19.0158 34.4495 19.2728 34.1527 19.5225C34.0622 19.5985 33.9572 19.6564 33.8595 19.718C32.9075 20.3369 31.9556 20.9558 31.0037 21.5712C30.9059 21.6327 30.7974 21.6761 30.6924 21.7304C30.4933 20.7568 30.1712 19.8193 29.8092 18.9C29.4292 17.9372 28.9985 16.9925 28.4736 16.0876C27.9271 15.1465 27.3697 14.2163 26.7616 13.3186C26.3526 12.7142 25.9146 12.1278 25.4477 11.5668C24.5863 10.5352 23.7393 9.48194 22.7475 8.57344C21.6182 7.53825 20.4672 6.52478 19.1642 5.70677C18.9796 5.6018 18.7697 5.54751 18.5742 5.46788Z" fill="#393343"/>
<path d="M24.1552 26.4144C23.8656 26.2804 23.7788 25.9945 23.6738 25.7375C23.2793 24.7711 22.7725 23.8662 22.2875 22.9469C21.6432 21.7307 20.9012 20.5833 20.1194 19.4612C19.5801 18.6903 18.9974 17.9447 18.4182 17.2027C18.2626 17.0036 18.0346 16.8588 17.8391 16.6887C18.6318 16.2037 19.5077 15.9105 20.3764 15.6028C21.0424 15.3676 21.7265 15.1793 22.349 14.9839C22.6784 15.1033 22.8196 15.335 22.9861 15.5268C24.2855 17.0108 25.4039 18.6251 26.3848 20.3336C26.9857 21.3832 27.5286 22.4618 27.9955 23.5767C27.7783 23.754 27.572 23.9422 27.3476 24.1087C26.3703 24.8362 25.3858 25.5602 24.4049 26.2841C24.3253 26.3347 24.2348 26.3709 24.1552 26.4144Z" fill="#C86D9D"/>
<path d="M19.0519 2.63376C19.0266 3.4192 18.8239 4.17206 18.6791 4.9394C18.661 5.02989 18.6031 5.11314 18.5633 5.19639C18.4764 5.16743 18.3751 5.15296 18.3027 5.10228C17.0214 4.24807 15.6278 3.61828 14.2235 3.00296C13.8796 2.85093 13.5321 2.70977 13.1883 2.55775C12.3015 2.16322 11.3604 1.96053 10.4157 1.77955C10.0936 1.71802 9.76782 1.67459 9.44568 1.62391C10.2311 1.14976 11.1143 1.01583 12.0047 0.939824C13.1412 0.845716 14.2597 1.00498 15.3636 1.27282C16.4639 1.53705 17.5281 1.91348 18.5669 2.35868C18.737 2.43107 18.889 2.53966 19.0519 2.63376Z" fill="#9A303F"/>
<path d="M17.0211 15.838C16.88 15.9212 16.7388 16.0117 16.594 16.0877C13.3907 17.8034 10.5784 20.0149 8.1931 22.7621C7.46195 23.6019 6.78872 24.485 6.18426 25.4225C6.08291 25.5781 5.98157 25.7301 5.84041 25.9401C5.69924 25.6614 5.67753 25.4333 5.67029 25.2089C5.64133 24.2389 5.62323 23.2689 5.5979 22.2988C5.59066 22.0274 5.65943 21.7848 5.81869 21.5677C6.32542 20.8836 6.79596 20.1669 7.34975 19.5263C9.32239 17.2532 11.6461 15.4036 14.292 13.963C14.4766 13.8617 14.6793 13.7929 14.8711 13.7061C14.9218 13.7821 14.9616 13.8762 15.0268 13.9341C15.4684 14.3105 15.9244 14.6688 16.366 15.0489C16.6338 15.2697 16.956 15.4543 17.0211 15.838Z" fill="#D78FB5"/>
<path d="M7.4909 13.326C7.63206 13.0871 7.77684 12.8482 7.91438 12.6057C8.24014 12.0375 8.5659 11.4728 9.05454 11.024C9.39115 10.9987 9.70967 11.0638 10.0246 11.1796C10.2924 11.2774 10.5639 11.357 10.8281 11.4547C11.8742 11.8348 12.8731 12.3089 13.7418 13.0147C13.626 13.0944 13.5174 13.1848 13.3944 13.2536C10.6218 14.8462 8.18947 16.8406 6.14443 19.3055C6.05757 19.4104 6.00689 19.5588 5.8042 19.5733C5.79334 19.1245 5.90555 18.6902 5.98518 18.2594C6.27112 16.6741 6.73442 15.1394 7.38955 13.6626C7.44023 13.554 7.45832 13.4382 7.4909 13.326Z" fill="#D78FB5"/>
<path d="M13.749 13.0109C12.8767 12.3051 11.8814 11.8309 10.8353 11.4509C10.5675 11.3531 10.296 11.2735 10.0318 11.1758C9.71687 11.06 9.39835 10.9948 9.06174 11.0201C10.0824 9.77141 11.4217 9.35878 12.9817 9.52166C14.0277 9.63025 15.005 9.9922 15.9895 10.318C16.3659 10.5098 16.746 10.698 17.1224 10.8971C17.2853 10.984 17.4373 11.0889 17.6219 11.2011C17.5351 11.2699 17.4916 11.3242 17.4337 11.3495C16.2031 11.9069 14.976 12.4571 13.749 13.0109Z" fill="#C66D9C"/>
<path d="M17.021 15.8377C16.9523 15.454 16.6337 15.2731 16.3731 15.0487C15.9315 14.6722 15.4791 14.3103 15.0339 13.9338C14.9651 13.8759 14.9289 13.7818 14.8783 13.7058C15.0158 13.6189 15.1461 13.514 15.2945 13.4488C16.3587 12.9928 17.43 12.5476 18.4978 12.0879C18.791 11.9612 19.0407 11.9901 19.2869 12.1928C19.9311 12.7141 20.5863 13.2244 21.2305 13.742C21.3174 13.8144 21.3826 13.9121 21.4875 14.0352C21.2088 14.2813 20.865 14.2922 20.5754 14.408C20.2895 14.5238 19.9927 14.6035 19.7031 14.7084C19.3918 14.8206 19.0805 14.9364 18.7729 15.0631C18.4869 15.179 18.2082 15.3093 17.9259 15.4323C17.6255 15.5699 17.3251 15.7038 17.021 15.8377Z" fill="#C66D9C"/>
<path d="M73.0113 23.5763C72.9642 23.5619 72.9136 23.5619 72.8774 23.5365C71.987 22.9212 71.1002 22.3023 70.2098 21.6833C70.2605 21.553 70.3184 21.4227 70.3618 21.2888C70.9047 19.5225 71.5635 17.8032 72.4684 16.1853C72.7688 15.6496 73.0583 15.1066 73.395 14.5927C74.1297 13.467 74.8898 12.3594 75.7694 11.3387C76.4788 10.5171 77.1557 9.6701 77.9375 8.91362C78.3935 8.46842 78.8677 8.04494 79.3455 7.62145C80.1092 6.95184 80.9055 6.32928 81.7416 5.75015C81.9515 5.60537 82.1434 5.42802 82.3424 5.26514C82.375 5.29047 82.4112 5.30495 82.451 5.31219C82.6863 6.28222 83.0917 7.18349 83.5405 8.06665C83.9495 8.87019 84.4743 9.59409 85.01 10.318C84.4852 10.6655 83.8482 10.8103 83.3161 11.2446C83.5043 11.3315 83.6491 11.3966 83.7975 11.4618C84.8254 11.9287 85.8498 12.3992 86.8777 12.8661C87.0044 12.9241 87.1347 12.9711 87.265 13.0254C87.3193 13.0688 87.3664 13.1231 87.4279 13.1593C90.3163 14.7954 92.8463 16.8585 94.9456 19.4392C94.9999 19.508 95.0832 19.555 95.2099 19.6564C94.9601 17.6512 94.4968 15.7835 93.7367 13.9918C93.6462 13.7747 93.5775 13.5502 93.5015 13.3294C93.686 13.3005 93.8743 13.2824 94.0589 13.239C95.4379 12.8987 96.7482 12.3848 97.9824 11.6789C98.1453 11.5848 98.319 11.5161 98.4892 11.4364C98.7063 12.1097 98.9488 12.7757 99.1334 13.4598C99.9442 16.4748 100.303 19.5442 100.165 22.6642C100.009 26.1679 99.318 29.563 97.9426 32.7989C96.8097 35.4701 95.3727 37.964 93.4363 40.1465C93.3096 40.2877 93.1866 40.4325 93.049 40.5628C92.7015 40.8849 92.3903 40.8596 92.0754 40.4976C92.0428 40.4614 92.0138 40.4252 91.9849 40.3891C91.5216 39.7629 91.0583 39.1331 90.595 38.5069C91.0221 37.7975 91.4709 37.1025 91.869 36.3786C93.2662 33.8341 94.3195 31.1593 94.8877 28.3034C94.9529 27.9813 94.9275 27.7098 94.7647 27.4239C94.2688 26.5624 93.7584 25.7119 93.1612 24.9156C90.5877 21.4879 87.3555 18.8384 83.5658 16.8621C83.4428 16.797 83.3052 16.7571 83.1749 16.7065C82.9903 16.6051 82.8094 16.4965 82.6211 16.4097C81.4376 15.8704 80.2178 15.436 78.9654 15.0994C78.8098 15.0596 78.6505 15.0451 78.4876 15.0198C78.2162 15.3202 77.9556 15.5953 77.7131 15.8812C76.6019 17.2023 75.6137 18.614 74.7523 20.1088C74.0935 21.22 73.4818 22.3638 73.0113 23.5763ZM83.8192 15.7401C84.0834 15.8957 84.344 16.055 84.6119 16.2034C88.8214 18.5452 92.3613 21.6218 94.9782 25.701C95.0253 25.7734 95.0615 25.8784 95.1845 25.853C95.2026 25.8132 95.2352 25.777 95.2388 25.7372C95.3981 24.5826 95.3872 23.4207 95.3872 22.2624C95.3872 22.0127 95.3185 21.7955 95.1773 21.6001C94.8081 21.0789 94.4643 20.5359 94.0589 20.0437C92.0102 17.5353 89.5381 15.5374 86.7076 13.9773C86.523 13.876 86.3239 13.8036 86.1285 13.7204C86.114 13.7023 86.1031 13.6769 86.0814 13.6661C84.8942 13.0218 83.6382 12.5332 82.3786 12.059C82.1289 11.9649 81.919 12.0156 81.7199 12.1748C81.0213 12.7395 80.3191 13.3005 79.6242 13.8688C79.559 13.9194 79.5301 14.0172 79.4722 14.1076C79.6387 14.1692 79.769 14.2235 79.9065 14.2633C81.0684 14.5999 82.1904 15.0342 83.2835 15.5446C83.4609 15.6242 83.6419 15.6749 83.8192 15.7401Z" fill="#463E55"/>
<path d="M83.1677 16.6958C83.298 16.7465 83.4355 16.7863 83.5586 16.8514C87.3482 18.8313 90.5805 21.4772 93.1539 24.9049C93.7512 25.7012 94.2615 26.5518 94.7574 27.4132C94.9203 27.6992 94.9456 27.967 94.8805 28.2928C94.3122 31.1486 93.2553 33.8234 91.8618 36.3679C91.4636 37.0919 91.0148 37.7868 90.5877 38.4962C90.4791 38.4094 90.3524 38.337 90.2619 38.232C89.2738 37.0882 88.1916 36.0349 87.0587 35.0323C86.4216 34.4677 85.8172 33.8705 85.1765 33.3131C83.9495 32.2453 82.7188 31.1775 81.4629 30.146C80.0766 29.0094 78.6577 27.9127 77.257 26.7979C77.1665 26.7255 77.1049 26.6242 77.0289 26.5337C77.0724 26.3527 77.0832 26.1536 77.1665 25.9908C77.8288 24.6805 78.4876 23.3666 79.1862 22.078C80.1019 20.3913 81.2457 18.8567 82.4401 17.3618C82.6428 17.112 82.9215 16.9202 83.1677 16.6958Z" fill="#E799C2"/>
<path d="M85.0064 10.3148C84.4744 9.59451 83.9459 8.86699 83.5369 8.06345C83.0881 7.18029 82.6827 6.27903 82.4474 5.30899C82.6935 4.97599 83.0627 4.8095 83.4138 4.63214C84.3368 4.1616 85.2634 3.6983 86.19 3.23862C87.5437 2.57263 88.9517 2.06227 90.4393 1.79443C90.8085 1.72928 91.1777 1.68222 91.5469 1.62793C91.8401 1.77271 92.1514 1.88854 92.4265 2.06227C93.2191 2.55091 93.8815 3.19157 94.4824 3.90099C95.8035 5.47187 96.7988 7.24182 97.6241 9.1095C97.91 9.75739 98.1489 10.427 98.4059 11.0894C98.4457 11.198 98.4566 11.3174 98.4783 11.4296C98.3082 11.5092 98.1345 11.5816 97.9716 11.6721C96.7373 12.3743 95.427 12.8883 94.048 13.2321C93.867 13.2756 93.6788 13.2937 93.4906 13.3226C93.4074 13.1851 93.3205 13.0512 93.2372 12.91C92.8536 12.2476 92.5025 11.5635 91.9378 11.0278C91.156 9.9999 90.0774 9.56918 88.8323 9.47869C88.2387 9.43526 87.6595 9.5366 87.0913 9.69224C86.3927 9.88408 85.7014 10.1049 85.0064 10.3148Z" fill="#A83A4C"/>
<path d="M82.339 5.26507C82.14 5.42795 81.9481 5.60531 81.7382 5.75009C80.9021 6.32559 80.1058 6.94815 79.3421 7.62138C78.8643 8.04125 78.3901 8.46835 77.9341 8.91356C77.1523 9.67004 76.4754 10.517 75.766 11.3386C74.8828 12.363 74.1227 13.4669 73.3916 14.5926C73.0586 15.1066 72.7654 15.6495 72.465 16.1852C71.5637 17.8031 70.9013 19.5224 70.3584 21.2887C70.3186 21.4226 70.2571 21.553 70.2064 21.6833C69.7105 21.3684 69.211 21.0535 68.7151 20.7349C68.2374 20.4309 67.7596 20.1269 67.2782 19.8228C67.1587 19.7468 67.0357 19.6744 66.9235 19.5912C66.5072 19.2835 66.4204 19.041 66.6375 18.556C67.1298 17.4556 67.6076 16.3481 68.1613 15.2803C70.1955 11.3604 73.073 8.18241 76.6672 5.63788C78.1549 4.5846 79.7076 3.6399 81.3545 2.85084C81.521 2.77121 81.702 2.7133 81.8757 2.64453C82.035 3.52046 82.187 4.39276 82.339 5.26507Z" fill="#393343"/>
<path d="M83.168 16.6955C82.9218 16.9163 82.6431 17.1117 82.4404 17.3651C81.246 18.86 80.1022 20.3946 79.1865 22.0814C78.4843 23.3699 77.8292 24.6838 77.1668 25.9941C77.0835 26.1569 77.0763 26.3524 77.0292 26.537C76.9424 26.5008 76.8483 26.4791 76.7759 26.4248C75.6538 25.6068 74.5354 24.7851 73.4206 23.9599C73.2722 23.8477 73.1455 23.7065 73.0116 23.5798C73.4857 22.3673 74.0938 21.2235 74.7417 20.0978C75.6031 18.603 76.5913 17.1914 77.7025 15.8702C77.945 15.5807 78.2056 15.3092 78.4771 15.0088C78.6399 15.0341 78.7992 15.0486 78.9548 15.0884C80.2108 15.425 81.4306 15.8594 82.6106 16.3987C82.8024 16.4856 82.9834 16.5978 83.168 16.6955Z" fill="#C86D9D"/>
<path d="M82.3387 5.26539C82.1867 4.39308 82.0311 3.52077 81.8791 2.64847C82.0021 2.57608 82.1143 2.49283 82.2446 2.43853C83.8155 1.75444 85.4262 1.21513 87.131 0.997961C88.4413 0.831463 89.7334 0.903853 90.9858 1.35267C91.1812 1.42145 91.3622 1.53727 91.5504 1.63138C91.1813 1.68567 90.8084 1.72911 90.4429 1.79788C88.9552 2.06572 87.5472 2.57608 86.1935 3.24207C85.2633 3.69813 84.3367 4.16143 83.4174 4.63559C83.0663 4.81657 82.6971 4.98306 82.4509 5.31244C82.4075 5.3052 82.3713 5.29072 82.3387 5.26539Z" fill="#9A303F"/>
<path d="M86.1356 13.7168C86.3274 13.8037 86.5301 13.8724 86.7147 13.9738C89.5452 15.5338 92.0173 17.5318 94.066 20.0401C94.4677 20.5324 94.8152 21.0753 95.1844 21.5965C95.322 21.7956 95.3943 22.0128 95.3943 22.2589C95.3943 23.4208 95.4052 24.579 95.2459 25.7336C95.2387 25.7735 95.2097 25.8096 95.1916 25.8495C95.065 25.8748 95.0288 25.7698 94.9853 25.6974C92.3648 21.6182 88.8285 18.5416 84.619 16.1998C84.3512 16.0514 84.0906 15.8921 83.8263 15.7365C83.9204 15.6713 84.0254 15.6134 84.1123 15.5338C84.7819 14.9366 85.4587 14.3249 86.1356 13.7168Z" fill="#D78FB5"/>
<path d="M91.9413 11.0312C92.5059 11.5669 92.857 12.2546 93.2407 12.9134C93.3203 13.0509 93.4072 13.1884 93.4941 13.326C93.5737 13.5468 93.6389 13.7748 93.7294 13.9884C94.4895 15.78 94.9527 17.6513 95.2025 19.6529C95.0758 19.5516 94.9926 19.5045 94.9383 19.4358C92.8389 16.855 90.3089 14.7919 87.4205 13.1559C87.3626 13.1233 87.3119 13.069 87.2576 13.0219C88.3761 12.1134 89.661 11.5452 91.0328 11.1507C91.3368 11.0674 91.63 10.9986 91.9413 11.0312Z" fill="#D78FB5"/>
<path d="M91.9418 11.0309C91.6305 10.9984 91.3373 11.0708 91.0369 11.154C89.6651 11.5485 88.3802 12.1168 87.2617 13.0253C87.1314 12.971 87.0011 12.924 86.8745 12.866C85.8465 12.3991 84.8222 11.9286 83.7942 11.4617C83.6495 11.3965 83.5011 11.3277 83.3128 11.2445C83.8449 10.8101 84.4819 10.6654 85.0068 10.3179C85.7017 10.108 86.3931 9.88355 87.0952 9.69533C87.6635 9.53969 88.2426 9.43835 88.8362 9.48178C90.0814 9.57227 91.1636 10.003 91.9418 11.0309Z" fill="#C66D9C"/>
<path d="M86.1359 13.7169C85.459 14.3249 84.7822 14.933 84.1017 15.5375C84.0148 15.6135 83.9135 15.6714 83.8157 15.7402C83.6384 15.675 83.4574 15.6207 83.2873 15.5411C82.1942 15.0308 81.0685 14.5964 79.9103 14.2598C79.7763 14.22 79.6424 14.1657 79.4759 14.1042C79.5338 14.01 79.5628 13.9159 79.6279 13.8653C80.3229 13.297 81.0251 12.736 81.7236 12.1713C81.9227 12.0121 82.1327 11.9614 82.3824 12.0555C83.642 12.5333 84.898 13.0183 86.0852 13.6626C86.1069 13.6734 86.1214 13.6988 86.1359 13.7169Z" fill="#C66D9C"/>
<path d="M82.7227 20.6773C83.3815 20.9632 83.9208 21.4301 84.4891 21.8536C85.8934 22.9069 87.211 24.0652 88.409 25.3501C89.3139 26.3201 90.1536 27.3444 90.9427 28.4122C92.2892 30.2292 93.4148 32.1693 94.3776 34.2107C94.9929 35.5173 95.5395 36.853 96.039 38.2103C96.8751 40.4797 97.5519 42.7962 98.1347 45.1381C98.6378 47.1578 99.0794 49.1919 99.3907 51.2514C99.5427 52.2541 99.6585 53.2639 99.8178 54.2701C100.122 56.1993 100.144 58.1394 100.068 60.0795C99.9987 61.911 99.644 63.6954 98.9817 65.411C98.4749 66.7249 97.8162 67.952 96.9475 69.0595C96.2308 69.9753 95.4454 70.8186 94.5586 71.5823C92.9588 72.9505 91.1743 74.0111 89.303 74.934C88.6913 75.2345 88.0471 75.4733 87.4173 75.7412C87.334 75.705 87.2435 75.629 87.1711 75.6435C86.2518 75.8425 85.336 76.0669 84.4167 76.266C83.2186 76.5266 82.0242 76.7981 80.8189 77.0189C79.4072 77.2795 77.9884 77.5003 76.5732 77.7283C76.1316 77.8007 75.6864 77.8405 75.2412 77.8912C74.7019 77.9527 74.1626 77.9962 73.6269 78.0649C73.0912 78.1337 72.5591 78.2495 72.0234 78.3074C71.39 78.3798 70.7566 78.416 70.1232 78.4667C70.0508 78.4739 69.9748 78.4667 69.9132 78.492C69.5947 78.6296 69.2617 78.5934 68.9323 78.6042C68.7912 78.6078 68.6355 78.5861 68.5088 78.6368C68.165 78.7671 67.8103 78.7382 67.4556 78.7454C67.2673 78.749 67.0647 78.7128 66.8909 78.7671C66.3552 78.9372 65.8123 78.8685 65.2694 78.8902C65.1029 78.8974 64.9255 78.8612 64.7735 78.9083C64.122 79.1001 63.456 79.0024 62.7972 79.0386C62.4932 79.0567 62.1891 79.1001 61.8851 79.1291C61.6969 79.1472 61.5087 79.1689 61.3205 79.1689C59.612 79.1725 57.9072 79.1978 56.1988 79.1689C54.4976 79.1435 52.7928 79.2666 51.0917 79.0494C50.2773 78.9445 49.4448 79.0386 48.6195 78.9119C47.9246 78.8069 47.2115 78.8938 46.5021 78.7671C46.0207 78.6802 45.5212 78.7164 45.0253 78.6296C44.3774 78.5174 43.7115 78.5137 43.0527 78.4631C42.9586 78.4558 42.8645 78.4522 42.7704 78.4414C42.1406 78.3545 41.5144 78.2676 40.8846 78.1844C40.4177 78.1228 39.9471 78.083 39.4838 78.0106C38.7165 77.8912 37.9528 77.7464 37.1891 77.6197C36.2371 77.4605 35.2816 77.3265 34.3333 77.1492C33.432 76.9827 32.5271 76.8089 31.6367 76.5809C29.4215 76.009 27.1883 75.4987 25.013 74.7675C23.5109 74.2644 22.0268 73.7106 20.5827 73.0591C19.0045 72.3497 17.5133 71.4738 16.1089 70.4639C15.3633 69.9282 14.6285 69.3672 13.9879 68.6976C13.5318 68.2162 13.0468 67.7601 12.5871 67.2823C12.4242 67.1122 12.2758 66.9276 12.1383 66.7358C11.7655 66.2182 11.4035 65.6934 11.038 65.1722C10.3358 64.1768 9.85799 63.0656 9.44898 61.9327C8.77213 60.0578 8.3595 58.1286 8.32331 56.1233C8.31969 56.0075 8.29435 55.8881 8.28349 55.7722C8.25092 55.5153 8.20386 55.2583 8.19301 55.0013C8.17853 54.5742 8.21472 54.1471 8.18215 53.72C8.10252 52.6269 8.36674 51.5519 8.33417 50.466C8.33055 50.3972 8.35226 50.3248 8.36312 50.2561C8.44637 49.6987 8.52962 49.1413 8.60925 48.5802C8.67802 48.1133 8.7287 47.6464 8.81918 47.1831C9.04721 46.0502 9.28972 44.9209 9.61548 43.8133C9.81456 43.1328 9.99191 42.4451 10.2453 41.7828C10.6941 40.6136 11.1502 39.4482 11.6605 38.3008C12.3156 36.824 13.0902 35.4232 13.9372 34.0551C14.5996 32.9909 15.3126 31.963 16.0763 30.9712C16.9559 29.8311 17.8644 28.7126 18.8887 27.6955C19.8479 26.7472 20.7853 25.7772 21.8242 24.9121C21.8784 24.8651 21.9255 24.8144 21.9834 24.771C22.7689 24.1665 23.5507 23.5548 24.347 22.9684C24.8754 22.5811 25.3894 22.1577 25.9866 21.85C26.1423 21.9369 26.2979 21.9984 26.4282 22.0961C26.7322 22.3205 27.0146 22.5739 27.3222 22.7911C27.8543 23.1603 28.3031 23.62 28.7049 24.1122C29.5591 25.1619 30.2323 26.3274 30.7137 27.6014C30.8042 27.8367 30.9743 28.043 31.1082 28.2602C30.9635 28.3362 30.8259 28.4303 30.6739 28.4918C26.6236 30.1641 23.3625 32.8172 20.8288 36.3824C19.3918 38.4057 18.2987 40.61 17.4518 42.9301C16.1234 46.5678 15.2185 50.3067 14.6973 54.1434C14.5055 55.5551 14.4186 56.9667 14.4186 58.3928C14.4186 59.3918 14.5163 60.3799 14.7335 61.3535C15.0593 62.8303 15.6529 64.184 16.5396 65.4147C17.4662 66.6996 18.6281 67.7348 19.9456 68.6035C21.5382 69.6531 23.2647 70.4241 25.0564 71.0575C28.4443 72.252 31.9552 72.8998 35.5096 73.3197C36.7294 73.4645 37.96 73.5441 39.187 73.6527C39.6829 73.6962 40.1752 73.7396 40.671 73.7903C41.9886 73.9169 43.3061 74.0798 44.6272 74.1631C45.999 74.2499 47.3708 74.2789 48.7462 74.297C49.5968 74.3078 50.451 74.2463 51.3016 74.2282C52.7458 74.1956 54.19 74.2065 55.6342 74.0798C56.7888 73.9785 57.9507 73.9495 59.1089 73.888C59.156 73.8844 59.203 73.8844 59.2501 73.8807C60.7341 73.7504 62.2217 73.631 63.7057 73.4935C64.7192 73.3993 65.7327 73.3125 66.7389 73.1677C68.0962 72.9686 69.4463 72.7334 70.7964 72.4727C71.5601 72.3243 72.3093 72.0999 73.0658 71.9081C73.3699 71.861 73.6775 71.8176 73.9454 71.6439C74.0178 71.6403 74.0902 71.6511 74.1589 71.6294C76.479 70.9272 78.7268 70.0585 80.7935 68.77C82.2956 67.8325 83.6023 66.6706 84.6085 65.2047C85.8934 63.3371 86.4617 61.2269 86.5775 58.99C86.6535 57.4988 86.5305 56.0147 86.3386 54.5307C86.1468 53.054 85.9007 51.5844 85.593 50.1294C85.0356 47.4871 84.2936 44.8955 83.3163 42.3727C82.4404 40.1069 81.3256 37.975 79.885 36.0168C78.8716 34.6342 77.7025 33.3927 76.4211 32.2634C75.2122 31.1956 73.8839 30.2799 72.4578 29.5198C71.8352 29.1868 71.2271 28.8104 70.5249 28.6402C70.5141 28.604 70.5068 28.5642 70.496 28.528C70.6806 28.0177 70.8579 27.5037 71.0461 26.997C71.7411 25.1003 72.9428 23.5838 74.5173 22.3459C74.9263 22.0274 75.3534 21.7233 75.8094 21.4772C76.87 20.9017 77.9522 20.366 79.1213 20.0294C79.2806 19.9823 79.4362 19.928 79.581 19.8484C79.657 19.8086 79.7004 19.7145 79.7583 19.6421C80.3049 19.671 80.7971 19.8991 81.3075 20.0547C81.7057 20.4022 82.2341 20.4999 82.7227 20.6773ZM80.2216 24.6841C80.019 24.6841 79.8524 24.6732 79.686 24.6841C79.0525 24.7239 78.6327 25.151 78.5965 25.7736C78.5748 26.1428 78.6761 26.4613 78.8969 26.7653C79.2733 27.2902 79.7221 27.7426 80.1854 28.1806C81.141 29.0782 81.9445 30.0917 82.6467 31.192C83.1933 32.0498 83.7507 32.8968 84.2719 33.7691C84.6483 34.3989 84.9849 35.0504 85.3107 35.7056C85.6582 36.4041 86.002 37.1063 86.2988 37.8266C86.6427 38.6627 87.0517 39.459 87.5114 40.23C87.9602 40.9792 88.4054 41.7357 89.0678 42.3257C89.4768 42.6913 89.9292 42.9881 90.4722 43.1256C91.3481 43.35 92.0105 43.1184 92.5136 42.3727C93.0637 41.5511 93.1868 40.6281 93.0565 39.6653C93.042 39.5495 92.9913 39.4373 92.9805 39.3215C92.8791 38.2501 92.5099 37.2511 92.0756 36.2811C91.71 35.4631 91.2612 34.6776 90.8232 33.8922C90.0487 32.5059 89.0895 31.2391 88.0254 30.07C86.9612 28.9008 85.8211 27.7969 84.5578 26.8269C83.6711 26.1464 82.7589 25.5274 81.7563 25.0388C81.2532 24.8072 80.7501 24.6262 80.2216 24.6841ZM92.6004 43.9002C92.1806 43.8278 91.786 43.9653 91.4892 44.3128C91.1924 44.6567 90.9861 45.0403 90.9753 45.5217C90.9644 45.9886 91.1092 46.4013 91.2974 46.8139C91.5978 47.4654 92.1227 47.8274 92.8031 47.9866C92.9117 48.012 93.0456 48.0156 93.1506 47.9794C93.5524 47.831 93.9469 47.65 94.1822 47.27C94.4247 46.8827 94.5514 46.4339 94.5116 45.9886C94.4717 45.5471 94.3523 45.1019 94.0917 44.7254C93.7406 44.2187 93.3243 43.8133 92.6004 43.9002Z" fill="#E799C2"/>
<path d="M31.101 28.2641C30.9671 28.0433 30.797 27.8406 30.7065 27.6054C30.2251 26.3313 29.5519 25.1658 28.6977 24.1161C28.2995 23.6239 27.8471 23.1606 27.315 22.795C27.0037 22.5815 26.725 22.3245 26.421 22.1001C26.2907 22.0023 26.1351 21.9408 25.9794 21.8539C25.3786 22.1616 24.8682 22.5815 24.3398 22.9724C23.5398 23.5587 22.7617 24.1704 21.9762 24.7749C21.9183 24.8183 21.8712 24.8726 21.817 24.916C20.7781 25.7811 19.8407 26.7512 18.8815 27.6995C17.8536 28.7166 16.9487 29.835 16.0691 30.9751C15.3054 31.9669 14.5924 32.9948 13.93 34.059C13.0794 35.4272 12.3084 36.8279 11.6533 38.3047C11.143 39.4521 10.6869 40.6176 10.2381 41.7867C9.98471 42.4454 9.80735 43.1368 9.60828 43.8172C9.28252 44.9248 9.04001 46.0541 8.81198 47.187C8.71787 47.6467 8.67082 48.1172 8.60205 48.5842C8.5188 49.1416 8.43555 49.699 8.35592 50.26C8.34506 50.3288 8.32696 50.4012 8.32696 50.4699C8.35592 51.5594 8.0917 52.6308 8.17494 53.7239C8.20752 54.1474 8.17132 54.5781 8.1858 55.0052C8.19666 55.2622 8.24371 55.5192 8.27629 55.7762C8.29077 55.892 8.31611 56.0114 8.31611 56.1273C8.3523 58.1289 8.76493 60.0617 9.44178 61.9366C9.85079 63.0695 10.3286 64.1807 11.0308 65.1761C11.3999 65.6973 11.7619 66.2221 12.1311 66.7397C12.2686 66.9316 12.417 67.1161 12.5799 67.2863C13.0432 67.764 13.5246 68.2201 13.9807 68.7015C14.6213 69.3747 15.3525 69.9321 16.1017 70.4678C17.5061 71.4777 18.9973 72.3536 20.5755 73.063C22.0196 73.7109 23.5037 74.2647 25.0058 74.7715C27.1811 75.5026 29.4107 76.013 31.6295 76.5848C32.5199 76.8129 33.4212 76.9866 34.326 77.1531C35.2744 77.3305 36.2299 77.4644 37.1819 77.6236C37.9456 77.7503 38.7093 77.8951 39.4766 78.0145C39.9399 78.0869 40.4105 78.1268 40.8774 78.1883C41.5072 78.2715 42.137 78.362 42.7632 78.4453C42.8573 78.4561 42.9514 78.4598 43.0455 78.467C43.7043 78.5177 44.3702 78.5213 45.0181 78.6335C45.514 78.7204 46.0135 78.6842 46.4949 78.771C47.2007 78.8977 47.9174 78.8145 48.6123 78.9158C49.4412 79.0389 50.2701 78.9484 51.0845 79.0534C52.7857 79.2705 54.4905 79.1475 56.1916 79.1728C57.8964 79.1981 59.6048 79.1764 61.3133 79.1728C61.5015 79.1728 61.6897 79.1511 61.8779 79.133C62.1819 79.104 62.486 79.057 62.79 79.0425C63.4488 79.0063 64.1148 79.1076 64.7663 78.9122C64.9183 78.8651 65.0957 78.9013 65.2622 78.8941C65.8051 78.876 66.348 78.9411 66.8837 78.771C67.0575 78.7167 67.2601 78.7529 67.4484 78.7493C67.8031 78.7421 68.1578 78.7674 68.5016 78.6407C68.6283 78.5937 68.784 78.6154 68.9251 78.6082C69.2545 78.5973 69.5911 78.6335 69.906 78.4959C69.9676 78.4706 70.0472 78.4742 70.116 78.4706C70.7494 78.4199 71.3864 78.3837 72.0162 78.3114C72.5519 78.2498 73.084 78.1376 73.6197 78.0688C74.1554 78.0001 74.6983 77.9566 75.234 77.8951C75.6792 77.8444 76.1244 77.8046 76.566 77.7322C77.9812 77.5042 79.4001 77.2834 80.8117 77.0228C82.017 76.7984 83.2114 76.5305 84.4095 76.2699C85.3288 76.0709 86.2446 75.8465 87.1639 75.6474C87.2363 75.6329 87.3268 75.7125 87.4101 75.7451C86.7948 75.9876 86.1831 76.2482 85.5605 76.4762C82.8603 77.4535 80.0841 78.1485 77.2682 78.6986C75.5959 79.0244 73.9128 79.2922 72.2189 79.4732C70.6915 79.6361 69.164 79.8316 67.6366 79.9908C66.8113 80.0777 65.9825 80.1139 65.1572 80.1754C64.1655 80.2514 63.1773 80.331 62.1856 80.4071C62.0661 80.4179 61.9503 80.4252 61.8309 80.4288C60.6726 80.4903 59.5107 80.5301 58.3561 80.617C53.553 80.9826 48.7426 80.9427 43.9359 80.8486C42.803 80.8269 41.6701 80.7002 40.5372 80.6206C39.7807 80.5663 39.0278 80.5084 38.2713 80.4396C37.8949 80.4071 37.5185 80.3455 37.142 80.313C35.9404 80.208 34.7351 80.1175 33.5334 80.0017C32.3787 79.8895 31.2277 79.7592 30.0767 79.6216C28.8533 79.4768 27.6299 79.3465 26.4174 79.1511C24.9949 78.9194 23.576 78.6407 22.1644 78.3548C19.8877 77.8951 17.6581 77.2617 15.4683 76.4871C12.7536 75.5243 10.1584 74.3335 7.80213 72.654C5.86568 71.275 4.2369 69.6136 3.03883 67.5505C2.11223 65.9579 1.52587 64.2422 1.19287 62.4325C0.827298 60.4345 0.841776 58.4184 0.961221 56.4096C1.06257 54.6867 1.31232 52.9746 1.59464 51.2698C2.0145 48.747 2.54657 46.2459 3.20895 43.7774C4.25137 39.9045 5.55802 36.1257 7.44742 32.5714C8.67444 30.2621 10.1512 28.123 11.8777 26.1539C13.8793 23.8736 16.1705 21.9444 18.7331 20.3301C19.2326 20.0152 19.7538 19.7365 20.2642 19.4433C20.3764 19.5772 20.5139 19.5338 20.6551 19.5049C21.788 19.2768 22.9281 19.0777 24.0936 19.1429C24.5171 19.1646 24.937 19.2153 25.3605 19.266C26.9024 19.4614 28.3502 19.9356 29.693 20.7174C30.6016 21.2458 31.387 21.9299 31.9335 22.8384C32.795 24.2754 33.2764 25.8463 33.5334 27.4932C33.2619 27.5728 32.9868 27.6416 32.719 27.7284C32.1724 27.9022 31.6367 28.0868 31.101 28.2641Z" fill="#D76891"/>
<path d="M81.293 20.0512C80.7827 19.8919 80.2904 19.6639 79.7439 19.6386C79.2806 19.3526 78.7413 19.349 78.2345 19.3056C76.4682 19.1572 74.7345 19.3381 73.0767 20.0078C71.7954 20.5253 70.7385 21.3325 69.9277 22.4654C68.8274 24.0037 68.2989 25.7592 67.9189 27.5762C67.9153 27.5979 67.9189 27.6232 67.9189 27.6486C67.8755 27.7572 67.8175 27.8621 67.7922 27.9707C67.5461 28.9733 67.3325 29.9868 67.0538 30.9822C66.7208 32.1839 66.272 33.3421 65.5372 34.3664C65.4069 34.4135 65.2658 34.4424 65.1499 34.5148C64.7047 34.7827 64.2849 35.1012 63.8252 35.3365C63.1122 35.7057 62.3774 36.035 61.6426 36.3608C60.5169 36.8567 59.3406 37.215 58.1462 37.5046C57.3897 37.6892 56.6296 37.8267 55.8586 37.9498C54.9501 38.0982 54.0452 38.2321 53.1186 38.2068C52.525 38.1887 51.9314 38.1742 51.3414 38.2104C50.6935 38.2502 50.0782 38.033 49.4412 38.0366C47.4794 37.5733 45.5574 37.0087 43.8418 35.9047C43.0165 35.3727 42.3288 34.6849 41.7424 33.9104C40.9317 32.839 40.653 31.5613 40.4828 30.2691C40.3996 29.6429 40.244 29.0131 40.3127 28.3689C40.32 28.3001 40.2838 28.2313 40.2729 28.1626C40.2403 27.9056 40.2041 27.6486 40.1824 27.3916C40.168 27.2251 40.186 27.0586 40.1643 26.8957C40.034 26.0126 39.8856 25.1294 39.7626 24.2462C39.5888 23.0192 39.2233 21.8537 38.6984 20.7389C38.2858 19.863 37.7863 19.0377 37.1637 18.2812C36.7547 17.7854 36.3204 17.3184 35.8499 16.8913C35.3793 16.4642 34.8509 16.1023 34.3405 15.7222C34.1487 15.5775 33.946 15.4544 33.917 15.1902C33.9279 15.1467 33.9315 15.0997 33.9315 15.0562C35.5096 14.7269 37.1058 14.5061 38.702 14.2998C41.5506 13.9306 44.41 13.7496 47.2767 13.6555C49.5534 13.5831 51.8265 13.5759 54.1031 13.6772C55.4532 13.7387 56.8033 13.7785 58.1498 13.8908C59.8003 14.0283 61.4508 14.2129 63.0977 14.412C65.5445 14.7051 67.9659 15.1757 70.3657 15.7259C73.026 16.3339 75.6357 17.1013 78.1477 18.1799C79.2806 18.6649 80.3845 19.2115 81.4414 19.8521C81.3908 19.9173 81.3401 19.986 81.293 20.0512ZM49.7126 22.8418C49.1154 22.8274 48.6195 23.1025 48.1345 23.4029C47.559 23.7612 47.1283 24.2607 46.7555 24.8145C45.771 26.2768 45.4271 27.9309 45.3439 29.6538C45.3041 30.4863 45.4344 31.3115 45.6262 32.1115C45.9809 33.5882 46.6216 34.9094 47.7943 35.9373C49.7959 37.6928 52.4092 36.8784 53.5602 34.9311C53.6616 34.8044 53.781 34.6886 53.8643 34.551C54.6895 33.1792 55.0225 31.6626 55.084 30.0845C55.1021 29.6393 55.0225 29.1905 54.9899 28.7453C54.8958 27.4712 54.5013 26.2913 53.8606 25.1945C53.2851 24.21 52.5178 23.4101 51.4283 23.0083C50.8854 22.802 50.3135 22.5921 49.7126 22.8418ZM59.8365 16.1493C59.5541 16.1493 59.2682 16.1276 58.9859 16.153C58.3489 16.2145 57.7263 16.3556 57.1942 16.7429C56.5717 17.199 56.492 17.9663 57.0096 18.531C57.2702 18.8133 57.596 18.9979 57.9471 19.1499C59.3515 19.7508 60.8391 19.9752 62.3448 20.1344C62.533 20.1562 62.7212 20.1562 62.9058 20.1923C63.7311 20.3444 64.5527 20.2647 65.3635 20.0982C65.6458 20.0403 65.8847 19.8738 66.0693 19.6494C66.348 19.3128 66.4421 18.9545 66.2249 18.5382C66.0584 18.2161 65.8594 17.9301 65.5517 17.7311C65.2947 17.5646 65.0341 17.3945 64.759 17.2642C63.2026 16.5366 61.5557 16.1819 59.8365 16.1493ZM65.3454 21.3868C65.1101 21.4085 64.8712 21.4013 64.6432 21.4556C64.2451 21.5461 63.9808 21.8682 63.9446 22.2482C63.9048 22.6572 64.1329 23.0373 64.5382 23.1929C65.1753 23.4391 65.8304 23.4825 66.4711 23.24C67.0647 23.0156 67.3072 22.469 66.8511 21.8827C66.7679 21.7777 66.634 21.6981 66.5109 21.6402C66.1417 21.47 65.758 21.3615 65.3454 21.3868Z" fill="#C9102F"/>
<path d="M33.9171 15.1865C33.9461 15.4544 34.1488 15.5774 34.3406 15.7186C34.851 16.0986 35.383 16.4606 35.8499 16.8877C36.3205 17.3148 36.7548 17.7817 37.1638 18.2776C37.7864 19.0341 38.2859 19.8593 38.6985 20.7353C39.2234 21.8501 39.5889 23.0192 39.7627 24.2426C39.8893 25.1258 40.0341 26.0089 40.1644 26.8921C40.1898 27.055 40.168 27.2251 40.1825 27.388C40.2042 27.6449 40.2404 27.9019 40.273 28.1589C40.2803 28.2277 40.3201 28.3001 40.3128 28.3652C40.2441 29.0095 40.3997 29.6393 40.4829 30.2655C40.6531 31.5577 40.9318 32.8353 41.7425 33.9067C42.3289 34.6813 43.0166 35.369 43.8419 35.9011C45.5575 37.0087 47.4795 37.5697 49.4413 38.033C50.0783 38.0294 50.6936 38.2465 51.3415 38.2067C51.9315 38.1705 52.5251 38.185 53.1187 38.2031C54.0453 38.2285 54.9502 38.0945 55.8587 37.9461C56.6261 37.8194 57.3898 37.6855 58.1463 37.5009C59.3407 37.2114 60.517 36.8566 61.6427 36.3572C62.3775 36.0314 63.1122 35.702 63.8253 35.3328C64.285 35.0939 64.7048 34.779 65.15 34.5112C65.2659 34.4424 65.407 34.4098 65.5373 34.3628C65.3708 34.6487 65.2333 34.9528 65.0342 35.2134C63.9809 36.6033 62.6562 37.6566 61.0455 38.3262C58.3743 39.441 55.5764 40.0165 52.6916 40.1649C49.8792 40.3097 47.1103 39.9875 44.3776 39.3324C42.5968 38.9053 40.8883 38.2864 39.2885 37.3779C37.3231 36.263 35.8753 34.703 35.0356 32.5856C34.5795 31.4382 34.2284 30.2619 33.9352 29.0638C33.8049 28.539 33.6674 28.0141 33.5334 27.4893C33.2765 25.8424 32.7951 24.2715 31.9336 22.8346C31.3871 21.9225 30.6016 21.242 29.6931 20.7135C28.3503 19.9353 26.8988 19.4576 25.3605 19.2621C24.9407 19.2078 24.5172 19.1608 24.0937 19.139C22.9282 19.0775 21.7917 19.2766 20.6552 19.501C20.514 19.53 20.3765 19.5734 20.2643 19.4395C21.7989 18.5672 23.4277 17.9012 25.0855 17.3076C25.7696 17.0614 26.4717 16.8624 27.1631 16.6452C27.3187 16.7248 27.4454 16.6922 27.5431 16.5438C27.9377 16.4316 28.3286 16.3158 28.7231 16.2036C28.8787 16.2941 29.0054 16.2651 29.1068 16.1204C29.3855 16.0443 29.6678 15.972 29.9465 15.896C30.0768 16.0444 30.1637 15.9575 30.2469 15.8417C30.9998 15.6715 31.7563 15.4978 32.5091 15.3277C32.6322 15.4761 32.7227 15.3965 32.8059 15.2842C32.9435 15.2517 33.081 15.2191 33.2186 15.1865C33.2982 15.2046 33.3814 15.2372 33.4611 15.2336C33.6131 15.2263 33.7651 15.2046 33.9171 15.1865Z" fill="#992D3E"/>
<path d="M81.2936 20.0513C81.3443 19.9826 81.3949 19.9174 81.4456 19.8486C81.9342 20.0296 82.3722 20.2902 82.7269 20.6739C82.2347 20.5001 81.7062 20.4024 81.2936 20.0513Z" fill="#BF7A85"/>
<path d="M33.917 15.1867C33.765 15.2011 33.613 15.2265 33.4574 15.2301C33.3777 15.2337 33.2981 15.2011 33.2148 15.183C33.4537 15.1396 33.689 15.0962 33.9279 15.0527C33.9351 15.0998 33.9279 15.1432 33.917 15.1867Z" fill="#B06167"/>
<path d="M32.8062 15.2847C32.723 15.3969 32.6325 15.4765 32.5094 15.3281C32.6071 15.3136 32.7085 15.2991 32.8062 15.2847Z" fill="#B06167"/>
<path d="M30.2473 15.8418C30.1677 15.9612 30.0772 16.0445 29.9469 15.8961C30.0482 15.878 30.146 15.8599 30.2473 15.8418Z" fill="#B06167"/>
<path d="M29.1069 16.1206C29.0056 16.2654 28.8753 16.298 28.7233 16.2039C28.85 16.1785 28.9803 16.1496 29.1069 16.1206Z" fill="#B06167"/>
<path d="M27.5433 16.5479C27.4455 16.6926 27.3188 16.7252 27.1632 16.6492C27.2899 16.613 27.4166 16.5804 27.5433 16.5479Z" fill="#B06167"/>
<path d="M70.5074 28.6333C71.2096 28.7998 71.8176 29.1798 72.4402 29.5128C73.8663 30.2729 75.1947 31.1887 76.4036 32.2565C77.6849 33.3857 78.854 34.6272 79.8675 36.0099C81.3081 37.9717 82.4229 40.1036 83.2988 42.3658C84.2724 44.8886 85.0145 47.4766 85.5755 50.1224C85.8831 51.5811 86.1293 53.047 86.3211 54.5238C86.5129 56.0078 86.6396 57.4918 86.56 58.9831C86.4442 61.2199 85.8759 63.3265 84.591 65.1978C83.5847 66.6637 82.2781 67.8256 80.776 68.763C78.7129 70.0516 76.4615 70.9203 74.1414 71.6225C74.0762 71.6442 74.0002 71.6333 73.9278 71.6369C73.7396 71.6369 73.5478 71.6188 73.3596 71.6406C73.251 71.6514 73.1533 71.7274 73.0483 71.7745C72.8601 71.7817 72.6682 71.7745 72.48 71.8034C71.6656 71.9265 70.8585 72.093 70.0405 72.1871C69.2442 72.2776 68.4515 72.3681 67.6552 72.4658C66.8589 72.5635 66.0517 72.5418 65.2554 72.6395C64.4302 72.7409 63.6086 72.7771 62.7833 72.7807C62.7145 72.7807 62.6458 72.8133 62.5734 72.8205C62.3164 72.8531 62.0594 72.8965 61.8024 72.9038C61.3065 72.9182 60.807 72.9074 60.3075 72.9146C60.1193 72.9182 59.9311 72.94 59.7429 72.9581C59.4859 72.9834 59.2289 73.0449 58.9719 73.0449C55.9388 73.0522 52.902 73.0485 49.8688 73.0485C49.7023 73.0485 49.525 73.0775 49.3729 73.0304C48.5441 72.7807 47.679 72.9979 46.8393 72.7843C46.2963 72.6468 45.7136 72.6794 45.1562 72.5925C44.4576 72.4875 43.7735 72.2921 43.0713 72.2197C42.2425 72.1328 41.4534 71.8903 40.6535 71.6985C39.2093 71.351 37.7832 70.9239 36.3933 70.3882C35.6006 70.0805 34.7826 69.8272 34.0153 69.4616C32.8606 68.915 31.7241 68.3251 30.6129 67.6916C29.1108 66.8374 27.7137 65.8276 26.5011 64.5788C26.2369 64.3074 25.9691 64.0395 25.6976 63.7753C24.7927 62.8885 24.0724 61.8642 23.5548 60.7096C23.2255 59.982 22.9214 59.24 22.7839 58.4329C22.6789 57.8067 22.5957 57.1769 22.4871 56.5507C22.3423 55.7219 22.4328 54.9002 22.4038 54.075C22.6319 53.4162 22.5197 52.7177 22.6536 52.0408C22.8237 51.1866 22.9431 50.3179 23.1712 49.4818C23.4463 48.4828 23.7032 47.4766 24.0869 46.5065C24.514 45.4279 24.9122 44.3421 25.4442 43.3105C25.8569 42.5106 26.2152 41.6781 26.6676 40.9035C27.4784 39.5136 28.3326 38.1563 29.299 36.8641C30.0917 35.8036 30.8771 34.7431 31.8182 33.8056C31.934 33.6898 32.0101 33.5341 32.1223 33.4147C32.191 33.3423 32.2996 33.3097 32.3901 33.2591C32.4372 33.3459 32.4661 33.3821 32.4842 33.4256C32.7665 34.0771 33.0091 34.7358 33.3855 35.3475C33.8452 36.0968 34.3845 36.7736 34.9165 37.4686C35.3907 38.0875 36.0277 38.4893 36.567 39.0141C36.7516 39.1915 36.9724 39.3435 37.1968 39.4702C38.156 40.0276 39.1007 40.6067 40.1359 41.0374C41.4498 41.584 42.7818 42.0654 44.1536 42.4273C44.8811 42.6192 45.6231 42.782 46.3687 42.8689C47.0709 42.9485 47.7695 43.1042 48.4825 43.039C48.573 43.0318 48.6708 43.0607 48.7649 43.0716C49.0436 43.1042 49.3259 43.1693 49.6046 43.1657C50.571 43.1512 51.5374 43.1657 52.5075 43.0644C53.4196 42.9703 54.3426 42.9196 55.2402 42.735C56.6953 42.4382 58.1503 42.1233 59.5511 41.6129C59.8841 41.4935 60.199 41.3234 60.5283 41.1967C62.2802 40.5271 63.7823 39.4774 65.1251 38.1889C65.5341 37.798 65.9033 37.3636 66.2472 36.9148C67.2245 35.6335 68.0642 34.2617 68.8026 32.832C69.1283 32.2022 69.3564 31.5289 69.6495 30.881C70.0006 30.1571 70.2938 29.4079 70.5074 28.6333ZM84.1385 57.3072C84.1385 56.9851 84.1566 56.605 84.1313 56.2286C84.1168 55.9969 84.0372 55.7653 83.9756 55.5409C83.8345 55.0269 83.5703 54.5853 83.1721 54.2306C82.3722 53.5248 81.0873 53.8578 80.7145 54.6143C80.5154 55.0161 80.338 55.4287 80.1824 55.8485C79.8096 56.8439 79.5996 57.89 79.1834 58.8709C78.8576 59.6382 78.5029 60.3693 77.8586 60.9376C77.399 61.343 76.9827 61.7991 76.5448 62.2334C76.4253 62.3492 76.3167 62.4795 76.1828 62.5736C75.4879 63.0478 74.9485 63.6703 74.4599 64.34C74.0618 64.8901 73.841 65.5272 73.9351 66.204C74.0509 67.0329 74.8653 67.8256 75.7086 67.9088C76.266 67.9667 76.8307 67.9884 77.399 67.84C78.2857 67.6084 79.0965 67.2139 79.7879 66.642C80.9027 65.7154 81.8148 64.6042 82.4844 63.3012C82.9948 62.3094 83.411 61.2887 83.715 60.2173C83.9793 59.2835 84.2254 58.3496 84.1385 57.3072ZM70.2649 69.4109C70.5327 69.3421 70.8295 69.3204 71.0648 69.1901C71.3905 69.0092 71.691 68.7703 71.9624 68.5133C72.7696 67.7604 72.7262 66.4284 71.405 65.8059C70.7607 65.5018 70.1309 65.6466 69.5156 65.9905C68.5854 66.5117 68.2379 67.6229 68.8026 68.5205C69.1283 69.0453 69.5699 69.429 70.2649 69.4109Z" fill="#F1F5FE"/>
<path d="M70.5069 28.6332C70.2897 29.4114 70.0002 30.1571 69.6635 30.8882C69.3704 31.5325 69.1387 32.2093 68.8166 32.8391C68.0782 34.2688 67.2421 35.6406 66.2612 36.922C65.9173 37.3708 65.5445 37.8051 65.1391 38.196C63.7963 39.4846 62.2906 40.5342 60.5423 41.2039C60.2129 41.3305 59.898 41.5007 59.5651 41.6201C58.1643 42.1305 56.7092 42.4454 55.2542 42.7422C54.3529 42.9231 53.4336 42.9738 52.5215 43.0715C51.5514 43.1729 50.585 43.1584 49.6186 43.1729C49.3399 43.1765 49.0576 43.115 48.7789 43.0788C48.6847 43.0679 48.5906 43.039 48.4965 43.0462C47.7835 43.1113 47.0813 42.9557 46.3827 42.8761C45.6371 42.7892 44.8951 42.6263 44.1676 42.4345C42.7958 42.0725 41.4638 41.5911 40.1499 41.0446C39.1147 40.6139 38.1736 40.0347 37.2108 39.4773C36.9864 39.347 36.7656 39.1986 36.581 39.0213C36.0417 38.4964 35.4047 38.0947 34.9305 37.4757C34.3985 36.7808 33.8592 36.1039 33.3995 35.3547C33.023 34.743 32.7769 34.0806 32.4982 33.4327C32.4801 33.3893 32.4512 33.3531 32.4041 33.2662C32.3136 33.3169 32.205 33.3495 32.1363 33.4219C32.024 33.5413 31.948 33.697 31.8322 33.8128C30.8911 34.7502 30.1057 35.8108 29.313 36.8713C28.3466 38.1598 27.4924 39.5208 26.6816 40.9107C26.2292 41.6889 25.8709 42.5177 25.4582 43.3177C24.9262 44.3492 24.528 45.4387 24.1009 46.5137C23.7172 47.4837 23.4602 48.49 23.1852 49.489C22.9571 50.3251 22.8341 51.1938 22.6676 52.048C22.5336 52.7248 22.6458 53.4234 22.4178 54.0821C22.4432 54.9074 22.3563 55.729 22.5011 56.5579C22.6097 57.1805 22.6929 57.8139 22.7979 58.4401C22.9354 59.2472 23.2395 59.9856 23.5688 60.7167C24.0864 61.8678 24.8067 62.8921 25.7116 63.7825C25.9831 64.0467 26.2509 64.3146 26.5151 64.586C27.7277 65.8348 29.1248 66.8446 30.6269 67.6988C31.7381 68.3322 32.8746 68.9186 34.0293 69.4688C34.7966 69.8307 35.6146 70.0877 36.4073 70.3954C37.7972 70.9311 39.2233 71.3582 40.6675 71.7056C41.4674 71.8975 42.2565 72.1436 43.0853 72.2268C43.7839 72.2992 44.4716 72.4947 45.1702 72.5997C45.7276 72.6865 46.3103 72.654 46.8533 72.7915C47.693 73.005 48.5581 72.7879 49.3869 73.0376C49.539 73.0847 49.7163 73.0557 49.8828 73.0557C52.916 73.0557 55.9528 73.0593 58.9859 73.0521C59.2429 73.0521 59.4999 72.9906 59.7569 72.9652C59.9451 72.9471 60.1333 72.9254 60.3215 72.9218C60.821 72.9146 61.3169 72.9254 61.8164 72.9109C62.0734 72.9037 62.3304 72.8566 62.5874 72.8277C62.6561 72.8204 62.7249 72.7879 62.7973 72.7879C63.6262 72.7843 64.4478 72.7481 65.2694 72.6467C66.0657 72.549 66.8729 72.5707 67.6692 72.473C68.4619 72.3752 69.2582 72.2848 70.0544 72.1943C70.8725 72.1002 71.6796 71.9373 72.494 71.8106C72.6786 71.7816 72.8704 71.7925 73.0623 71.7816C73.0623 71.8215 73.0623 71.8649 73.0623 71.9047C72.3058 72.0965 71.5566 72.3246 70.7928 72.4694C69.4464 72.73 68.0927 72.9652 66.7353 73.1643C65.7291 73.3127 64.7156 73.396 63.7022 73.4901C62.2182 73.6276 60.7342 73.7507 59.2465 73.8774C59.1995 73.881 59.1524 73.881 59.1054 73.8846C57.9471 73.9461 56.7853 73.9751 55.6306 74.0764C54.1864 74.2031 52.7422 74.1886 51.298 74.2248C50.4475 74.2465 49.5933 74.3045 48.7427 74.2936C47.3709 74.2755 45.9954 74.2465 44.6236 74.1597C43.3025 74.0764 41.985 73.9135 40.6675 73.7869C40.1716 73.7398 39.6794 73.6964 39.1835 73.6493C37.9565 73.5407 36.7294 73.4611 35.506 73.3163C31.9517 72.8965 28.4407 72.2522 25.0528 71.0541C23.2612 70.4207 21.531 69.6497 19.9421 68.6001C18.6282 67.7314 17.4663 66.6998 16.5361 65.4113C15.6493 64.1843 15.0557 62.8269 14.7299 61.3502C14.5128 60.3765 14.415 59.392 14.415 58.3894C14.415 56.9669 14.5019 55.5553 14.6937 54.1401C15.215 50.3034 16.1198 46.5608 17.4482 42.9268C18.2952 40.603 19.3883 38.4023 20.8252 36.379C23.3589 32.8138 26.6201 30.1607 30.6703 28.4885C30.8224 28.4269 30.9599 28.3364 31.1047 28.2568C31.6404 28.0794 32.1761 27.8948 32.7154 27.7211C32.9832 27.6342 33.2583 27.5618 33.5298 27.4858C33.6637 28.0107 33.8049 28.5355 33.9315 29.0603C34.2247 30.2584 34.5758 31.4347 35.0319 32.5821C35.8716 34.6996 37.3194 36.2596 39.2848 37.3744C40.8847 38.2829 42.5931 38.8982 44.3739 39.3289C47.1066 39.9877 49.8756 40.3098 52.6879 40.1614C55.5727 40.013 58.3706 39.4375 61.0418 38.3227C62.6489 37.6531 63.9773 36.5998 65.0305 35.2099C65.2296 34.9493 65.3672 34.6453 65.5337 34.3593C66.2684 33.335 66.7172 32.1768 67.0502 30.9751C67.3253 29.9797 67.5425 28.9698 67.7886 27.9636C67.8176 27.8514 67.8719 27.7464 67.9153 27.6415C68.2049 27.7283 68.4944 27.8044 68.7804 27.9021C69.3486 28.1012 69.9133 28.3075 70.4779 28.5138C70.4888 28.5572 70.496 28.597 70.5069 28.6332Z" fill="#E9EAF2"/>
<path d="M80.2221 24.6842C80.747 24.6263 81.2537 24.8073 81.7532 25.0462C82.7594 25.5312 83.6679 26.1537 84.5547 26.8342C85.8179 27.8043 86.9581 28.9082 88.0222 30.0773C89.0863 31.2464 90.0455 32.5096 90.8201 33.8995C91.2581 34.685 91.7069 35.4668 92.0725 36.2884C92.5068 37.2548 92.876 38.2538 92.9773 39.3288C92.9882 39.4447 93.0389 39.5569 93.0534 39.6727C93.1837 40.6391 93.0606 41.5585 92.5104 42.3801C92.0073 43.1293 91.3449 43.3574 90.469 43.133C89.9261 42.9954 89.4773 42.6986 89.0646 42.333C88.4023 41.7394 87.9607 40.9866 87.5082 40.2373C87.0449 39.4664 86.6359 38.6701 86.2957 37.834C85.9989 37.1137 85.655 36.4079 85.3076 35.7129C84.9818 35.0578 84.6452 34.4027 84.2688 33.7765C83.7475 32.9042 83.1901 32.0536 82.6436 31.1994C81.9414 30.099 81.1379 29.0819 80.1823 28.1879C79.719 27.75 79.2702 27.2975 78.8938 26.7727C78.673 26.465 78.5716 26.1501 78.5933 25.7809C78.6295 25.1584 79.0494 24.7313 79.6828 24.6915C79.8529 24.6734 80.0194 24.6842 80.2221 24.6842Z" fill="#F3D6E6"/>
<path d="M70.4784 28.5211C69.9138 28.3148 69.3491 28.1085 68.7809 27.9094C68.4985 27.8117 68.2054 27.7356 67.9158 27.6488C67.9158 27.6234 67.9122 27.6017 67.9158 27.5764C68.2958 25.7594 68.8243 24.0003 69.9246 22.4656C70.7354 21.3327 71.7923 20.5292 73.0736 20.0079C74.7314 19.3383 76.4651 19.1537 78.2315 19.3058C78.7382 19.3492 79.2775 19.3528 79.7408 19.6388C79.6829 19.7075 79.6358 19.8053 79.5634 19.8451C79.4187 19.9211 79.2594 19.979 79.1038 20.026C77.9347 20.3627 76.8524 20.8983 75.7919 21.4739C75.3394 21.72 74.9087 22.0204 74.4997 22.3425C72.9252 23.5768 71.7235 25.097 71.0286 26.9936C70.844 27.4968 70.663 28.0107 70.4784 28.5211Z" fill="#D76891"/>
<path d="M92.601 43.9006C93.3249 43.8137 93.7448 44.2191 94.0922 44.7222C94.3528 45.0986 94.4723 45.5438 94.5121 45.9854C94.5519 46.4306 94.4252 46.8795 94.1827 47.2667C93.9474 47.6468 93.5493 47.8278 93.1511 47.9762C93.0462 48.016 92.9123 48.0124 92.8037 47.9834C92.1232 47.8241 91.5984 47.4586 91.2979 46.8107C91.1061 46.4017 90.9649 45.9854 90.9758 45.5185C90.9867 45.0407 91.193 44.6534 91.4898 44.3096C91.7866 43.9657 92.1775 43.8282 92.601 43.9006Z" fill="#F3D6E6"/>
<path d="M73.048 71.9049C73.048 71.8651 73.048 71.8216 73.048 71.7818C73.1493 71.7348 73.2507 71.6588 73.3593 71.6479C73.5475 71.6262 73.7393 71.6443 73.9275 71.6443C73.6597 71.8144 73.3556 71.8578 73.048 71.9049Z" fill="#C4DBDA"/>
<path d="M49.7127 22.8419C50.3135 22.5922 50.8854 22.8021 51.432 23.0048C52.5215 23.4065 53.2888 24.2065 53.8643 25.191C54.505 26.2877 54.8995 27.4677 54.9936 28.7417C55.0262 29.1906 55.1058 29.6358 55.0877 30.081C55.0262 31.6591 54.6932 33.1757 53.8679 34.5475C53.7847 34.685 53.6652 34.8008 53.5639 34.9275C53.4698 34.9275 53.372 34.9058 53.2852 34.9347C52.7169 35.1121 52.1342 35.0868 51.555 35.0578C51.2112 35.0433 50.871 34.9456 50.5343 34.8696C50.4873 34.8587 50.4619 34.761 50.4257 34.6995C51.3523 34.5221 52.0654 34.0407 52.5287 33.2119C52.5866 33.1358 52.6554 33.0707 52.6988 32.9874C53.7014 30.9931 53.6978 28.9951 52.6988 27.0044C52.4201 26.4506 52.022 25.98 51.4827 25.6507C50.9868 25.3466 50.4656 25.1548 49.8683 25.2996C49.2928 25.3249 48.844 25.6181 48.4386 25.9873C47.9934 26.389 47.693 26.8958 47.4541 27.4387C47.3709 27.6305 47.2876 27.826 47.2007 28.0178C47.0958 27.6595 47.2044 27.3193 47.2949 26.979C47.664 25.5638 48.283 24.2897 49.3507 23.2618C49.4847 23.1387 49.5933 22.9831 49.7127 22.8419Z" fill="#473E55"/>
<path d="M59.8369 16.1494C61.5562 16.182 63.2031 16.5367 64.7595 17.2679C65.0346 17.3982 65.2952 17.5683 65.5522 17.7348C65.8598 17.9302 66.0553 18.2198 66.2254 18.5419C66.4426 18.9582 66.3521 19.3165 66.0698 19.6531C65.8816 19.8775 65.6463 20.044 65.364 20.1019C64.5532 20.2684 63.7352 20.3481 62.9063 20.1961C62.7217 20.1635 62.5299 20.1599 62.3453 20.1381C60.8432 19.9789 59.3555 19.7545 57.9475 19.1536C57.5964 19.0016 57.2707 18.817 57.0101 18.5347C56.4889 17.9664 56.5721 17.1991 57.1947 16.7466C57.7268 16.3594 58.3457 16.2182 58.9864 16.1567C59.2687 16.1277 59.5546 16.1494 59.8369 16.1494Z" fill="#ECA8B4"/>
<path d="M50.4224 34.7031C50.4586 34.761 50.4839 34.8623 50.531 34.8732C50.8676 34.9492 51.2078 35.0469 51.5517 35.0614C52.1308 35.0867 52.7136 35.1157 53.2818 34.9383C53.3687 34.913 53.4664 34.9311 53.5605 34.9311C52.4095 36.8784 49.7999 37.6964 47.7946 35.9373C46.6219 34.9094 45.9812 33.5882 45.6265 32.1115C45.4347 31.3079 45.3044 30.4827 45.3442 29.6538C45.4275 27.9309 45.7677 26.2768 46.7558 24.8145C47.1286 24.2607 47.5594 23.7612 48.1349 23.4029C48.6199 23.1025 49.1158 22.8274 49.713 22.8419C49.5935 22.9866 49.4849 23.1423 49.351 23.269C48.2833 24.2969 47.6643 25.571 47.2951 26.9862C47.2046 27.3301 47.0961 27.6667 47.201 28.025C47.0237 28.8575 46.9404 29.6972 47.0056 30.5478C47.0743 31.4274 47.3169 32.2563 47.7548 33.0236C48.0263 33.5014 48.3846 33.8995 48.8262 34.2253C49.304 34.5728 49.8505 34.6741 50.4224 34.7031Z" fill="#3B3243"/>
<path d="M65.3458 21.387C65.7584 21.3653 66.1421 21.4739 66.5113 21.6404C66.638 21.6983 66.7719 21.7743 66.8515 21.8829C67.3076 22.4729 67.0651 23.0158 66.4715 23.2402C65.8308 23.4827 65.1757 23.4393 64.5386 23.1932C64.1332 23.0375 63.9052 22.6575 63.945 22.2485C63.9812 21.8648 64.2418 21.5463 64.6436 21.4558C64.8716 21.4015 65.1105 21.4051 65.3458 21.387Z" fill="#ECA8B4"/>
<path d="M84.1385 57.3071C84.2253 58.3495 83.9792 59.2834 83.715 60.2136C83.4109 61.285 82.9947 62.3093 82.4843 63.2974C81.8147 64.6005 80.9026 65.7153 79.7878 66.6383C79.1001 67.2102 78.2857 67.6047 77.3989 67.8363C76.8343 67.9847 76.266 67.963 75.7086 67.9051C74.8652 67.8182 74.0508 67.0292 73.935 66.2003C73.8409 65.5198 74.0581 64.8864 74.4598 64.3362C74.9449 63.6666 75.4878 63.0405 76.1827 62.5699C76.3167 62.4794 76.4289 62.3455 76.5447 62.2297C76.9827 61.7953 77.3989 61.3393 77.8586 60.9339C78.5029 60.3656 78.8576 59.6381 79.1833 58.8671C79.5996 57.8862 79.8131 56.8402 80.1823 55.8448C80.338 55.425 80.5153 55.0123 80.7144 54.6106C81.0872 53.8541 82.3721 53.5175 83.172 54.2269C83.5702 54.578 83.838 55.0232 83.9756 55.5372C84.0371 55.7652 84.1131 55.9932 84.1312 56.2249C84.1566 56.6049 84.1385 56.985 84.1385 57.3071Z" fill="white"/>
<path d="M70.2649 69.4107C69.57 69.4288 69.1248 69.0451 68.8026 68.5275C68.2416 67.6299 68.5854 66.5187 69.5157 65.9975C70.1274 65.6536 70.7608 65.5088 71.4051 65.8129C72.7262 66.4354 72.7696 67.7674 71.9625 68.5203C71.691 68.7736 71.3906 69.0161 71.0648 69.1971C70.8295 69.3238 70.5327 69.3419 70.2649 69.4107Z" fill="white"/>
<path d="M49.8687 25.3031C50.4623 25.1583 50.9872 25.3502 51.483 25.6542C52.0223 25.9836 52.4205 26.4541 52.6992 27.0079C53.6946 28.9987 53.7018 30.9966 52.6992 32.991C52.6594 33.0743 52.587 33.1394 52.5291 33.2154C52.1997 33.219 51.8667 33.2263 51.5373 33.219C51.3745 33.2154 51.2043 33.2082 51.0487 33.1647C50.3031 32.944 49.7022 32.5349 49.2498 31.8798C48.5729 30.9025 48.3087 29.8312 48.468 28.6657C48.6055 27.645 49.0543 26.7401 49.59 25.8714C49.6986 25.6904 49.7746 25.495 49.8687 25.3031Z" fill="#D78FB5"/>
<path d="M49.8682 25.3032C49.7778 25.4914 49.6981 25.6905 49.5895 25.8679C49.0539 26.7366 48.605 27.6414 48.4675 28.6621C48.3118 29.8276 48.5725 30.899 49.2493 31.8763C49.7017 32.5278 50.3026 32.9404 51.0482 33.1612C51.2039 33.2083 51.374 33.2155 51.5369 33.2155C51.8662 33.2228 52.1992 33.2155 52.5286 33.2119C52.0653 34.0444 51.3523 34.5258 50.4257 34.6995C49.8538 34.6706 49.3072 34.5692 48.8294 34.2217C48.3842 33.8996 48.0259 33.4978 47.7581 33.0201C47.3201 32.2527 47.0776 31.4238 47.0088 30.5443C46.9437 29.6937 47.0269 28.854 47.2043 28.0215C47.2875 27.8297 47.3708 27.6342 47.4576 27.4424C47.6965 26.8994 47.997 26.3927 48.4422 25.9909C48.8439 25.6254 49.2927 25.3286 49.8682 25.3032Z" fill="#C66D9C"/>
<path d="M46.8863 52.5182C46.1407 51.7074 45.786 50.7121 45.5761 49.6552C45.5073 49.3077 45.4964 48.9493 45.4494 48.5982C45.3915 48.1784 45.5869 47.9431 45.9561 47.773C46.4773 47.5341 47.0239 47.3821 47.5849 47.2916C49.572 46.9695 51.5483 47.0527 53.4992 47.5413C54.5272 47.7983 54.6068 47.8961 54.5054 48.9602C54.3824 50.2777 54.0168 51.5084 53.1047 52.5182C52.9418 52.5146 52.7934 52.5146 52.6667 52.3553C52.464 52.0983 52.236 51.8558 51.9971 51.6314C51.4071 51.0776 50.7049 50.7808 49.8905 50.8134C48.8735 50.8568 48.0554 51.3165 47.4148 52.0947C47.27 52.2866 47.1542 52.4929 46.8863 52.5182Z" fill="#3A3444"/>
<path d="M46.886 52.5183C47.1539 52.493 47.2661 52.2867 47.4181 52.1021C48.0587 51.3239 48.8768 50.8642 49.8938 50.8208C50.7046 50.7882 51.4104 51.085 52.0004 51.6388C52.2393 51.8632 52.4637 52.1057 52.67 52.3627C52.7967 52.522 52.9451 52.5183 53.108 52.5256C51.8629 54.2412 49.3437 54.7878 47.4579 53.1373C47.248 52.9527 47.0742 52.7247 46.886 52.5183Z" fill="#463F55"/>
<path d="M65.9066 40.8017C66.8296 40.5266 67.7779 40.5338 68.7226 40.6098C69.9822 40.7148 71.1875 41.055 72.3349 41.5907C74.6623 42.6766 76.2259 44.4646 77.1634 46.8354C77.6665 48.1059 77.9054 49.4234 77.9705 50.7807C77.9814 51.0377 77.9778 51.3056 77.9271 51.5589C77.8366 52.0186 77.471 52.1779 77.0801 51.9317C74.0578 50.046 70.7387 49.5501 67.2603 49.8469C66.1492 49.941 65.0705 50.2161 64.0209 50.5998C63.8001 50.6794 63.572 50.7445 63.3513 50.8169C63.0364 49.7274 62.8445 48.6235 62.9241 47.4833C62.935 47.3422 62.9386 47.1974 62.9241 47.0598C62.8662 46.535 62.9784 46.0174 63.1124 45.5288C63.5431 43.9652 64.2163 42.5282 65.4361 41.4025C65.6171 41.2288 65.8487 41.0804 65.9066 40.8017ZM75.1618 46.1152C75.2197 45.5324 74.9772 45.0474 74.7491 44.5515C74.4994 44.0086 74.0759 43.6503 73.5837 43.3535C72.7548 42.854 71.6364 43.4222 71.4445 44.1751C71.3287 44.6275 71.3323 45.0365 71.4337 45.489C71.6074 46.2853 72.0019 46.9295 72.5883 47.4725C73.1023 47.9503 73.7067 47.9104 74.3184 47.7476C74.5754 47.6788 74.7564 47.487 74.8939 47.2481C75.0894 46.8934 75.2233 46.5205 75.1618 46.1152ZM75.3029 49.1737C75.2993 48.6995 74.9736 48.3882 74.4994 48.3991C74.1447 48.4063 73.7646 48.79 73.7791 49.1266C73.7936 49.456 74.2605 49.9591 74.5392 49.9446C74.9374 49.9229 75.3102 49.5501 75.3029 49.1737Z" fill="#453E55"/>
<path d="M65.9071 40.8018C65.8492 41.0805 65.6175 41.2289 65.4329 41.399C64.2131 42.5247 63.5399 43.9652 63.1092 45.5252C62.9753 46.0139 62.863 46.5315 62.921 47.0563C62.9354 47.1975 62.9318 47.3386 62.921 47.4798C62.845 48.6199 63.0332 49.7239 63.3481 50.8134C63.1852 50.9039 63.0259 51.0016 62.8594 51.0848C61.9871 51.5156 61.1546 52.0042 60.4162 52.6412C60.3439 52.7028 60.2751 52.7679 60.1955 52.8186C59.9385 52.996 59.696 52.9634 59.5367 52.6847C59.41 52.4639 59.305 52.2178 59.2435 51.968C59.1422 51.5554 59.0589 51.1355 59.0119 50.7156C58.8707 49.5103 58.8852 48.3087 59.153 47.1178C59.5476 45.3732 60.4524 43.9327 61.8206 42.7925C63.0151 41.8007 64.3471 41.066 65.9071 40.8018Z" fill="#3A3444"/>
<path d="M75.1619 46.1148C75.227 46.5202 75.0931 46.8894 74.8904 47.2478C74.7565 47.4867 74.5719 47.6785 74.3149 47.7473C73.7032 47.9101 73.0987 47.95 72.5848 47.4722C71.9984 46.9292 71.6039 46.285 71.4301 45.4887C71.3324 45.0362 71.3288 44.6272 71.441 44.1748C71.6328 43.4219 72.7476 42.8537 73.5801 43.3532C74.0724 43.65 74.4959 44.0083 74.7456 44.5512C74.9773 45.0471 75.2162 45.5321 75.1619 46.1148Z" fill="#6C6678"/>
<path d="M75.3035 49.1738C75.3071 49.5502 74.9379 49.9266 74.5397 49.9447C74.261 49.9592 73.7905 49.4525 73.7796 49.1267C73.7652 48.7901 74.1488 48.4064 74.4999 48.3992C74.9777 48.3883 75.2998 48.6996 75.3035 49.1738Z" fill="#6A6476"/>
<path d="M31.6188 40.617C34.9596 40.2623 38.2751 42.0829 39.8967 44.5261C40.6206 45.612 41.026 46.8064 41.1707 48.1022C41.3047 49.293 41.2395 50.4694 41.0006 51.6385C40.9427 51.9136 40.8667 52.1923 40.7545 52.4529C40.5156 53.0103 40.255 53.0718 39.7917 52.6773C38.6733 51.729 37.4064 51.0485 36.0346 50.5635C34.2719 49.9373 32.4513 49.702 30.5836 49.7636C29.4435 49.8034 28.325 49.9988 27.2066 50.2015C27.25 49.2351 27.1632 48.2687 27.3369 47.3023C27.4998 46.4083 27.7532 45.5504 28.1441 44.7469C28.6182 43.766 29.3204 42.9263 30.0298 42.101C30.0914 42.0286 30.1601 41.9635 30.2325 41.9019C30.6488 41.5508 31.065 41.207 31.4776 40.8523C31.5428 40.7944 31.5718 40.6966 31.6188 40.617ZM35.8826 45.6301C35.9261 46.553 36.3423 47.3964 37.0662 48.095C37.7503 48.7537 38.7529 48.6994 39.3755 47.99C39.6216 47.7077 39.7157 47.3711 39.7302 47.0127C39.7736 46.0427 39.3972 45.2247 38.7674 44.5116C38.5104 44.2184 38.1846 44.0556 37.8154 43.9325C37.258 43.7479 36.802 43.9035 36.3857 44.2655C35.9984 44.5985 35.8862 45.0437 35.8826 45.6301ZM39.0787 50.5418C39.6035 50.5961 39.8243 50.2775 39.8605 49.836C39.8967 49.4233 39.5347 49.1012 39.0823 49.1012C38.7203 49.1012 38.3258 49.4668 38.3186 49.8034C38.3113 50.245 38.6117 50.5381 39.0787 50.5418Z" fill="#453E55"/>
<path d="M31.6189 40.6172C31.5718 40.6968 31.5429 40.7945 31.4777 40.8488C31.0687 41.2036 30.6488 41.5474 30.2326 41.8985C30.1602 41.96 30.0914 42.0252 30.0299 42.0976C29.3205 42.9228 28.6183 43.7626 28.1441 44.7434C27.7532 45.547 27.4998 46.4048 27.337 47.2988C27.1596 48.2653 27.2465 49.2317 27.2067 50.1981C26.6203 50.3827 26.0303 50.5528 25.4512 50.7555C24.6223 51.0414 23.8369 51.4215 23.1057 51.9174C22.6967 52.1961 22.3022 52.0006 22.2298 51.5192C22.2045 51.3563 22.2081 51.1898 22.2081 51.0233C22.1972 50.3103 22.266 49.6045 22.4035 48.9059C22.675 47.4979 23.1817 46.1804 23.9491 44.9679C25.2268 42.9518 27.08 41.7175 29.3241 41.019C30.0661 40.7873 30.8298 40.6208 31.6189 40.6172Z" fill="#3A3444"/>
<path d="M35.883 45.6301C35.8866 45.0473 35.9988 44.5985 36.3861 44.2655C36.8023 43.9036 37.2584 43.7479 37.8158 43.9325C38.185 44.0556 38.5107 44.2185 38.7677 44.5116C39.3975 45.2283 39.774 46.0427 39.7305 47.0127C39.716 47.3675 39.6219 47.7077 39.3758 47.99C38.7532 48.6994 37.7506 48.7537 37.0666 48.095C36.3426 47.3964 35.9264 46.5494 35.883 45.6301Z" fill="#6C6678"/>
<path d="M39.0787 50.5419C38.6118 50.5383 38.3113 50.2451 38.3186 49.8072C38.3258 49.4706 38.7203 49.105 39.0823 49.105C39.5384 49.105 39.8967 49.4235 39.8605 49.8397C39.8243 50.2777 39.6035 50.5962 39.0787 50.5419Z" fill="#6A6476"/>
</svg>
