<svg width="123" height="81" viewBox="0 0 123 81" fill="none" xmlns="http://www.w3.org/2000/svg">
<path d="M58.9466 2.42778C59.3438 2.40187 59.741 2.3587 60.1469 2.36733C61.6148 2.37597 63.0828 2.3587 64.5507 2.43642C68.0221 2.61775 71.4416 3.14449 74.8006 4.06844C80.897 5.74365 86.4321 8.53277 91.5095 12.2804C93.6856 13.8865 95.7321 15.6308 97.5714 17.6082C100.196 20.4319 102.537 23.4714 104.626 26.7096C107.838 31.692 110.351 37.0112 112.242 42.6154C113.037 44.9641 113.659 47.3733 114.004 49.8343C114.254 51.6045 114.41 53.3919 114.332 55.1794C114.211 57.7267 113.814 60.2136 112.881 62.6055C111.802 65.3774 110.11 67.7002 107.847 69.6172C104.557 72.4063 100.853 74.4874 96.846 76.059C94.3591 77.0434 91.7772 77.6996 89.1781 78.2955C88.66 78.4164 88.1332 78.4941 87.6151 78.5891C87.3388 78.4509 87.3388 78.4509 87.1143 78.6668L87.0711 78.6409C86.5962 78.6581 86.1126 78.6581 85.6377 78.684C85.3182 78.7013 85.0073 78.7617 84.6878 78.7877C84.4719 78.8049 84.2474 78.7531 84.0488 78.8136C83.4444 79.0035 82.8312 78.9345 82.2268 78.9517C82.0627 78.9604 81.89 78.9258 81.7519 78.9776C81.2597 79.1503 80.7502 79.0899 80.2494 79.1072C79.4549 79.1417 78.6519 79.0208 77.8661 79.254C77.7452 79.2885 77.5984 79.2626 77.4689 79.2626C73.8421 79.2626 70.2067 79.2626 66.58 79.2626C66.3641 79.2626 66.1569 79.2367 65.941 79.2194C65.6215 79.1849 65.3106 79.1331 64.9911 79.1158C64.4558 79.0985 63.9204 79.1072 63.3936 79.1072C63.1778 79.1072 62.9705 79.0899 62.7547 79.064C62.4093 79.0294 62.0725 78.9776 61.7271 78.9517C61.304 78.9258 60.8549 78.9949 60.4491 78.9085C59.9741 78.7963 59.4992 78.8136 59.0243 78.7877C58.5494 78.7531 58.0744 78.6754 57.5995 78.6409C56.8569 78.5718 56.1143 78.5372 55.3803 78.4595C54.6981 78.3818 54.0159 78.2609 53.3338 78.1659C52.4098 78.045 51.4858 77.976 50.5705 77.8119C49.2666 77.5874 47.9714 77.2938 46.6675 77.0434C44.8886 76.698 43.153 76.2144 41.426 75.6877C39.8457 75.2127 38.2914 74.6515 36.7458 74.0815C35.675 73.6843 34.6215 73.2353 33.5853 72.7431C32.1173 72.0523 30.6753 71.3097 29.2764 70.4635C27.4717 69.3668 25.8396 68.0543 24.2939 66.6208C23.3527 65.7487 22.5928 64.7211 21.8157 63.7022C20.6154 62.1133 19.7001 60.3863 19.0697 58.5039C18.7675 57.5972 18.5516 56.6733 18.3875 55.7234C18.2321 54.7995 18.0939 53.8928 18.1112 52.9515C18.1285 51.9067 18.1198 50.8705 18.1198 49.8257C18.1198 49.6098 18.1198 49.3939 18.1458 49.1867C18.2321 48.5304 18.3271 47.8741 18.4393 47.2265C18.5602 46.4925 18.6638 45.7585 18.8365 45.0332C19.3719 42.7794 19.985 40.5516 20.8226 38.3928C21.4703 36.7263 22.1352 35.077 22.9296 33.4795C23.4391 32.4519 23.9745 31.4416 24.5271 30.4399C25.002 29.5764 25.4942 28.7216 26.021 27.8926C27.2644 25.9411 28.6288 24.0759 30.1313 22.3057C31.012 21.2695 31.8928 20.2419 32.86 19.2834C34.207 17.9536 35.5109 16.5807 36.9616 15.3545C37.0393 15.2854 37.1171 15.2077 37.1948 15.1386C37.8424 14.6291 38.49 14.1283 39.1463 13.6275C40.2516 12.7899 41.3396 11.935 42.4708 11.1492C43.6279 10.3461 44.8109 9.57762 46.0198 8.85227C47.4101 8.01467 48.8176 7.20297 50.251 6.44309C51.4772 5.79546 52.7466 5.24281 53.99 4.62972C55.1385 4.0598 56.3129 3.57624 57.5045 3.10995C57.9967 2.90271 58.463 2.65229 58.9466 2.42778ZM66.485 22.962C65.1725 22.7202 63.8427 22.6338 62.5129 22.5993C60.8377 22.5648 59.1624 22.5388 57.4786 22.6856C56.2351 22.7979 54.9831 22.8929 53.7483 23.0915C51.6672 23.4196 49.6207 23.9118 47.6173 24.5681C44.7159 25.5179 41.9613 26.7873 39.3535 28.3675C37.687 29.3778 36.0722 30.4745 34.6301 31.787C32.8081 33.4363 31.0984 35.1978 29.5959 37.1494C27.1349 40.3357 25.1143 43.7725 23.6636 47.5287C22.7655 49.8516 22.1783 52.2521 22.2474 54.7735C22.2906 56.2588 22.541 57.6836 23.085 59.0652C23.6118 60.395 24.3803 61.5866 25.4079 62.571C25.9951 63.1409 26.6686 63.6331 27.3421 64.1167C28.8878 65.222 30.563 66.0941 32.3246 66.8281C33.4558 67.2944 34.6043 67.7348 35.7786 68.0715C37.4452 68.5465 39.129 68.9178 40.8388 69.2286C42.2031 69.4704 43.5675 69.6949 44.9405 69.8331C45.5795 69.8935 46.2098 69.954 46.8488 70.0144C47.7468 70.1008 48.6449 70.213 49.5516 70.2821C51.1145 70.403 52.6861 70.5066 54.2577 70.6016C55.2421 70.6621 56.2265 70.7139 57.2109 70.7484C60.5441 70.8607 63.8772 70.8261 67.2104 70.6016C67.2622 70.6016 67.314 70.593 67.3658 70.593C68.6438 70.498 69.9131 70.403 71.1911 70.3167C72.1496 70.2476 73.1081 70.1958 74.058 70.1267C74.6452 70.0835 75.2237 70.0403 75.8109 69.9626C76.8126 69.8331 77.8143 69.6604 78.8159 69.5395C80.4566 69.3409 82.0627 68.9782 83.6775 68.6155C85.9485 68.1061 88.1246 67.3203 90.2402 66.3532C91.8463 65.6192 93.3488 64.7039 94.7822 63.6763C94.929 63.5727 95.0413 63.4172 95.1708 63.2791C95.4989 63.0114 95.8616 62.7782 96.1552 62.476C97.9858 60.5763 98.9443 58.2708 99.1516 55.6716C99.3329 53.4092 98.9962 51.2073 98.2967 49.0571C97.3469 46.1212 95.9739 43.3925 94.3505 40.7761C92.3212 37.4861 89.8257 34.5761 86.9761 31.977C86.5012 31.5452 86.009 31.148 85.4995 30.7508C83.5911 29.2397 81.5014 28.0048 79.3427 26.8996C77.0371 25.7165 74.6193 24.7926 72.1237 24.1018C70.2758 23.5578 68.4107 23.1174 66.485 22.962ZM66.6145 6.07178C65.7683 6.07178 64.9221 6.12358 64.0758 6.2013C62.9533 6.30492 61.8739 6.5467 60.8204 6.91801C60.1382 7.15979 59.5424 7.54837 59.0588 8.11828C58.5494 8.72274 58.4803 9.56898 58.9811 10.1648C59.3265 10.5706 59.7151 10.9074 60.2591 11.0715C61.3817 11.4169 62.5129 11.6587 63.6613 11.8573C65.1466 12.1163 66.6232 12.4531 68.0911 12.7985C70.1118 13.2648 72.1065 13.8088 74.0753 14.4392C75.336 14.845 76.6054 15.2249 77.892 15.5617C79.0318 15.8639 80.1717 16.0366 81.3547 16.0021C81.9937 15.9848 82.5636 15.8208 83.0989 15.5185C83.712 15.1731 84.1179 14.6291 84.2301 13.947C84.3769 13.0921 84.1524 12.2804 83.6084 11.6241C83.1421 11.0542 82.6154 10.5188 81.985 10.0957C81.1388 9.5258 80.2494 9.05951 79.2995 8.70547C78.3496 8.36007 77.417 7.96286 76.4499 7.6779C75.2583 7.32386 74.0407 7.04754 72.8232 6.76258C71.6402 6.48626 70.4399 6.27902 69.2137 6.20994C69.0842 6.2013 68.9374 6.20994 68.8165 6.16676C68.4797 6.0286 68.1343 6.0545 67.7889 6.0545C67.409 6.07177 67.0118 6.07178 66.6145 6.07178ZM87.5374 13.4461C87.0538 13.3857 86.5962 13.5066 86.1471 13.7052C85.1455 14.1542 84.5928 15.7171 85.5427 16.7447C86.1644 17.4096 86.8984 17.7896 87.7964 17.9882C88.6254 18.1695 89.3162 17.9795 90.007 17.6082C90.3352 17.4355 90.5683 17.1506 90.6201 16.8052C90.7669 15.838 90.6115 14.94 89.7998 14.2751C89.1522 13.7397 88.4354 13.3511 87.5374 13.4461Z" fill="#FF9B06"/>
<path d="M58.9466 2.42776C58.4717 2.65227 57.9968 2.91132 57.5046 3.10129C56.3129 3.56759 55.1385 4.05979 53.9901 4.62107C52.7466 5.23416 51.4686 5.77816 50.2511 6.43443C48.8176 7.19431 47.4101 8.00601 46.0199 8.84361C44.811 9.56896 43.628 10.3375 42.4709 11.1405C41.3397 11.9263 40.2516 12.7898 39.1463 13.6188C38.4901 14.111 37.8424 14.6205 37.1948 15.1299C37.1085 15.199 37.0394 15.2767 36.9617 15.3458C35.5196 16.572 34.2071 17.945 32.86 19.2748C31.8929 20.2333 31.0121 21.2608 30.1313 22.297C28.6288 24.0672 27.2644 25.9238 26.021 27.8839C25.4942 28.7129 25.0021 29.5678 24.5271 30.4313C23.9745 31.4329 23.4391 32.4432 22.9296 33.4708C22.1352 35.0683 21.4703 36.7262 20.8227 38.3842C19.9851 40.5516 19.372 42.7794 18.8366 45.0245C18.6639 45.7412 18.5603 46.4839 18.4394 47.2178C18.3358 47.8741 18.2321 48.5304 18.1458 49.178C18.1199 49.3852 18.1199 49.6011 18.1199 49.817C18.1199 50.8618 18.1285 51.898 18.1112 52.9429C18.094 53.8755 18.2321 54.7908 18.3876 55.7147C18.5516 56.6646 18.7675 57.5885 19.0697 58.4952C19.7001 60.3777 20.6154 62.1047 21.8157 63.6935C22.5842 64.7125 23.3527 65.7401 24.294 66.6122C25.8397 68.037 27.4717 69.3581 29.2764 70.4548C30.6667 71.301 32.1174 72.0437 33.5853 72.7345C34.6216 73.2267 35.675 73.6757 36.7458 74.0729C38.2915 74.6428 39.8458 75.2041 41.426 75.679C43.153 76.2058 44.8973 76.6893 46.6675 77.0347C47.9714 77.2851 49.2667 77.5787 50.5706 77.8032C51.4859 77.9587 52.4098 78.0364 53.3338 78.1573C54.016 78.2436 54.6981 78.3732 55.3803 78.4509C56.1143 78.5286 56.8656 78.5718 57.5995 78.6322C58.0745 78.6754 58.5494 78.7531 59.0243 78.779C59.4993 78.8135 59.9742 78.7963 60.4491 78.8999C60.855 78.9949 61.2954 78.9258 61.7271 78.9431C62.0725 78.9603 62.4093 79.0208 62.7547 79.0553C62.9706 79.0726 63.1778 79.0899 63.3937 79.0985C63.9291 79.1071 64.4644 79.0899 64.9912 79.1071C65.3107 79.1158 65.6215 79.1762 65.941 79.2108C66.1483 79.228 66.3642 79.2539 66.58 79.2539C70.2068 79.2539 73.8422 79.2539 77.4689 79.2539C77.5984 79.2539 77.7452 79.2798 77.8661 79.2453C78.6519 79.0121 79.455 79.133 80.2494 79.0985C80.7502 79.0812 81.2597 79.1417 81.7519 78.969C81.8987 78.9172 82.0714 78.9517 82.2268 78.9431C82.8399 78.9258 83.453 78.9862 84.0488 78.8049C84.2474 78.7445 84.4719 78.7963 84.6878 78.779C85.0073 78.7531 85.3182 78.6927 85.6377 78.6754C86.1126 78.6495 86.5962 78.6408 87.0711 78.6322C86.8121 78.8654 86.4666 78.8394 86.1644 78.8826C84.4806 79.1417 82.7881 79.4094 81.0956 79.5907C78.7123 79.8498 76.3204 80.0484 73.9285 80.2383C71.6402 80.4197 69.3519 80.5665 67.0636 80.7305C63.7564 80.9723 60.4491 80.9464 57.1419 80.8083C55.2508 80.7305 53.3597 80.5492 51.4773 80.411C49.802 80.2901 48.1268 80.1865 46.4516 80.0311C44.5433 79.8584 42.6349 79.6511 40.7266 79.4353C38.2051 79.1589 35.7182 78.684 33.2486 78.1227C30.0708 77.3974 26.9622 76.4562 23.9917 75.0832C21.0731 73.7275 18.3271 72.1041 15.8316 70.0662C14.4413 68.935 13.172 67.6743 12.1444 66.1977C10.7887 64.2376 9.9079 62.0788 9.37253 59.7732C8.75943 57.1223 8.67309 54.4281 8.88896 51.734C9.14802 48.5304 9.90791 45.4218 10.9441 42.3822C13.4224 35.1633 16.8764 28.4538 21.5221 22.3748C23.1887 20.1901 24.9675 18.0918 26.945 16.1748C29.2505 13.9383 31.7979 12.004 34.492 10.2598C38.4123 7.72105 42.5917 5.75226 47.0734 4.40519C49.6034 3.63667 52.1767 3.07539 54.8018 2.74725C56.0193 2.59182 57.2455 2.51411 58.463 2.40186C58.6271 2.40186 58.7825 2.41912 58.9466 2.42776Z" fill="#E87903"/>
<path d="M87.1142 78.6581C87.3387 78.4422 87.3387 78.4422 87.615 78.5804C87.4423 78.6063 87.2783 78.6322 87.1142 78.6581Z" fill="#E87903"/>
<path d="M66.4851 22.9619C68.4021 23.126 70.2673 23.5577 72.1152 24.0672C74.6107 24.7494 77.0286 25.682 79.3341 26.865C81.5015 27.9703 83.5826 29.2051 85.4909 30.7162C85.9918 31.1134 86.4926 31.5106 86.9675 31.9424C89.8171 34.5502 92.304 37.4516 94.3419 40.7415C95.9567 43.3579 97.3383 46.0866 98.2881 49.0225C98.9876 51.1727 99.3243 53.3746 99.143 55.637C98.9271 58.2448 97.9773 60.5504 96.1467 62.4414C95.8531 62.7437 95.4904 62.9768 95.1622 63.2445C94.7996 63.2099 94.4887 63.374 94.1692 63.5035C92.3904 64.2203 90.5943 64.8679 88.755 65.4119C87.1489 65.8868 85.5427 66.3531 83.9107 66.6985C83.0299 66.8799 82.1491 67.0871 81.2597 67.2339C80.3703 67.3807 79.4723 67.4498 78.5828 67.5879C77.7452 67.7175 76.9077 67.8729 76.0614 67.8902C75.9837 67.8902 75.8973 67.8815 75.8196 67.9161C75.3879 68.0888 74.9302 68.0456 74.4726 68.0542C74.343 68.0542 74.1962 68.037 74.0753 68.0801C73.5572 68.2701 73.0219 68.201 72.4951 68.2183C72.2274 68.2269 71.9597 68.2442 71.7007 68.2701C71.3812 68.296 71.0703 68.3651 70.7508 68.3737C70.1118 68.391 69.4728 68.3824 68.8252 68.3824C68.6352 68.3824 68.4366 68.3565 68.2725 68.4169C67.8321 68.5723 67.3745 68.5378 66.9255 68.5378C65.9411 68.5378 64.948 68.5378 63.9636 68.5378C63.7478 68.5378 63.5233 68.5723 63.3246 68.5119C62.8238 68.3392 62.323 68.3565 61.8221 68.391C60.6478 68.4687 59.4906 68.1924 58.3163 68.2097C58.2386 68.2097 58.1609 68.1838 58.0831 68.1665C57.4787 68.0801 56.8829 67.942 56.2784 67.9074C55.3199 67.8556 54.396 67.6225 53.4547 67.467C52.8244 67.3634 52.2026 67.2425 51.5809 67.0957C50.2684 66.7849 48.9386 66.4999 47.6433 66.1113C46.3912 65.74 45.165 65.2996 43.9475 64.8334C42.1255 64.1339 40.3985 63.2531 38.7664 62.1824C37.9893 61.6729 37.2725 61.0771 36.5386 60.5072C35.5714 59.7646 34.777 58.8665 34.0689 57.9167C33.0845 56.6214 32.3419 55.188 32.1692 53.5041C32.0742 52.6234 31.9879 51.7685 32.1865 50.8964C32.221 50.7409 32.2037 50.5769 32.221 50.4214C32.2469 50.2142 32.2556 49.9983 32.3074 49.7911C32.4196 49.2989 32.5578 48.8153 32.6787 48.3231C33.3091 45.8189 34.423 43.5306 35.7787 41.346C36.3918 40.3529 37.1085 39.4204 37.782 38.4705C38.7319 37.1407 39.8545 35.975 40.9339 34.7747C41.5728 34.0666 42.3241 33.4622 43.0322 32.8232C43.3689 32.5209 43.7143 32.2273 44.077 31.9597C45.1219 31.1911 46.1581 30.3967 47.272 29.7232C47.911 29.3346 48.5327 28.9287 49.1976 28.592C50.4065 27.9789 51.6241 27.3658 52.8762 26.8391C55.035 25.9324 57.2542 25.1984 59.5252 24.6026C61.7358 24.0327 63.9464 23.4973 66.2174 23.2037C66.3642 23.1778 66.4419 23.0914 66.4851 22.9619ZM72.8837 30.5521C72.8405 30.9321 72.9096 31.3552 73.1514 31.6661C73.5918 32.236 74.0753 32.78 74.6971 33.1513C75.3361 33.5399 76.001 33.8766 76.6572 34.2307C77.6675 34.7661 78.6865 35.2928 79.6968 35.8368C80.2149 36.1131 80.7157 36.4067 81.2338 36.683C81.7174 36.9334 82.2355 37.063 82.7795 36.9853C83.8503 36.8298 84.2734 36.1304 84.1957 35.2064C84.1352 34.5243 83.8157 33.8853 83.384 33.324C82.5895 32.2792 81.6656 31.3552 80.6121 30.578C79.4723 29.7318 78.2288 29.0669 76.8299 28.7388C76.0269 28.5488 75.2238 28.3934 74.3948 28.6697C73.5227 28.9546 72.7801 29.49 72.8837 30.5521ZM71.9252 29.2569C71.9684 28.7733 71.7784 28.402 71.4416 28.0998C71.0099 27.7112 70.4831 27.5558 69.9046 27.5299C69.3433 27.504 68.9202 27.7716 68.6352 28.2207C68.3589 28.6611 68.4107 29.1014 68.687 29.5677C69.3088 30.6126 70.6472 30.8544 71.5539 30.0686C71.8129 29.8441 71.9856 29.585 71.9252 29.2569Z" fill="#FFFBF5"/>
<path d="M66.4851 22.9621C66.4419 23.1003 66.3555 23.1866 66.2001 23.2039C63.9377 23.4975 61.7185 24.0242 59.5079 24.6028C57.2369 25.19 55.0177 25.9326 52.8589 26.8393C51.6068 27.366 50.3892 27.9791 49.1803 28.5922C48.5154 28.929 47.8937 29.3348 47.2547 29.7234C46.1408 30.3969 45.1046 31.1913 44.0597 31.9599C43.6971 32.2275 43.3516 32.5211 43.0149 32.8234C42.3068 33.4624 41.5555 34.0754 40.9165 34.7749C39.8285 35.9752 38.706 37.1409 37.7647 38.4707C37.0826 39.4206 36.3745 40.3531 35.7614 41.3462C34.4057 43.5308 33.2918 45.8191 32.6614 48.3233C32.5405 48.8155 32.4023 49.2991 32.2901 49.7913C32.2383 49.9985 32.2296 50.2058 32.2037 50.4216C32.1865 50.5771 32.2124 50.7498 32.1692 50.8966C31.9706 51.7687 32.0569 52.6236 32.1519 53.5043C32.3246 55.1882 33.0759 56.6216 34.0517 57.9169C34.7684 58.8667 35.5628 59.7561 36.5213 60.5074C37.2553 61.0773 37.972 61.6731 38.7492 62.1826C40.3812 63.2533 42.1082 64.1427 43.9302 64.8336C45.1478 65.2999 46.3739 65.7402 47.626 66.1115C48.9213 66.4915 50.2511 66.7851 51.5636 67.0959C52.1854 67.2427 52.8071 67.3723 53.4374 67.4672C54.3787 67.614 55.3026 67.8558 56.2611 67.9076C56.8656 67.9422 57.4614 68.0717 58.0659 68.1667C58.1436 68.1753 58.2213 68.2099 58.299 68.2099C59.4734 68.1926 60.6218 68.4689 61.8048 68.3912C62.3057 68.3567 62.8151 68.3394 63.3073 68.5121C63.4973 68.5812 63.7305 68.538 63.9464 68.538C64.9308 68.538 65.9238 68.538 66.9082 68.538C67.3572 68.538 67.8149 68.5725 68.2553 68.4171C68.4193 68.3567 68.6266 68.3826 68.8079 68.3826C69.4469 68.3826 70.0859 68.3912 70.7335 68.3739C71.053 68.3653 71.3639 68.3048 71.6834 68.2703C71.9511 68.2444 72.2101 68.2271 72.4778 68.2185C73.0046 68.2012 73.5399 68.2703 74.058 68.0803C74.1789 68.0372 74.3257 68.0631 74.4552 68.0544C74.9043 68.0458 75.3619 68.0976 75.8023 67.9163C75.8714 67.8904 75.9578 67.899 76.0441 67.8904C76.899 67.8731 77.728 67.7177 78.5656 67.5881C79.455 67.45 80.353 67.3809 81.2425 67.2341C82.1319 67.0873 83.0126 66.8887 83.8934 66.6987C85.5341 66.362 87.1402 65.887 88.7377 65.4121C90.577 64.8681 92.3731 64.2118 94.1519 63.5037C94.4714 63.3742 94.7823 63.2102 95.145 63.2447C95.0154 63.3742 94.9032 63.5297 94.7564 63.6419C93.3229 64.6781 91.8204 65.5848 90.2143 66.3188C88.0987 67.2859 85.9227 68.0803 83.6516 68.5812C82.0455 68.9438 80.4308 69.3065 78.7901 69.5051C77.7884 69.626 76.7867 69.7987 75.7851 69.9282C75.2065 70.006 74.6193 70.0491 74.0321 70.0923C73.0736 70.1614 72.1151 70.2218 71.1653 70.2823C69.8873 70.3686 68.6179 70.4722 67.3399 70.5586C67.2881 70.5586 67.2363 70.5672 67.1845 70.5672C63.8514 70.7918 60.5182 70.8263 57.1851 70.714C56.2007 70.6795 55.2163 70.6277 54.2319 70.5672C52.6603 70.4723 51.0973 70.3686 49.5257 70.2477C48.6277 70.1786 47.7296 70.075 46.8229 69.98C46.1839 69.9196 45.5536 69.8678 44.9146 69.7987C43.533 69.6606 42.1686 69.436 40.8129 69.1943C39.1118 68.8834 37.4193 68.5207 35.7528 68.0372C34.5698 67.7004 33.4299 67.26 32.2987 66.7937C30.5458 66.0684 28.862 65.1962 27.3163 64.0823C26.6427 63.5987 25.9692 63.1065 25.382 62.5366C24.3544 61.5436 23.5859 60.3606 23.0592 59.0308C22.5152 57.6492 22.2647 56.2244 22.2216 54.7392C22.1525 52.2091 22.7397 49.8172 23.6377 47.4943C25.0884 43.7381 27.109 40.2927 29.57 37.115C31.0725 35.1635 32.7823 33.4105 34.6043 31.7526C36.0464 30.4401 37.6611 29.3434 39.3277 28.3331C41.9355 26.7529 44.6987 25.4836 47.5915 24.5337C49.5948 23.8774 51.6413 23.3766 53.7224 23.0571C54.9572 22.8671 56.2093 22.7635 57.4527 22.6513C59.1366 22.5045 60.8118 22.5304 62.487 22.5649C63.8427 22.6254 65.1725 22.7117 66.4851 22.9621Z" fill="#FFEDD1"/>
<path d="M66.6147 6.07175C67.0119 6.07175 67.4177 6.07175 67.8149 6.07175C68.1603 6.07175 68.5058 6.04584 68.8425 6.184C68.9634 6.23582 69.1016 6.21855 69.2398 6.22718C70.4573 6.29626 71.6576 6.5035 72.8492 6.77983C74.0581 7.06478 75.2757 7.3411 76.4759 7.69514C77.4431 7.9801 78.3757 8.37731 79.3255 8.72272C80.2754 9.07675 81.1648 9.54305 82.011 10.113C82.6414 10.5361 83.1681 11.0715 83.6344 11.6414C84.1785 12.2976 84.3943 13.118 84.2562 13.9642C84.1353 14.6464 83.7381 15.1817 83.125 15.5358C82.5896 15.838 82.0111 16.0021 81.3807 16.0193C80.1977 16.0452 79.0578 15.8812 77.918 15.579C76.6314 15.2422 75.362 14.8536 74.1013 14.4564C72.1325 13.826 70.1292 13.282 68.1172 12.8157C66.6492 12.4703 65.1726 12.1336 63.6874 11.8745C62.5389 11.6759 61.3991 11.4255 60.2851 11.0887C59.7411 10.9247 59.3439 10.5879 59.0072 10.182C58.5063 9.58622 58.5754 8.73999 59.0849 8.13553C59.5684 7.56562 60.1643 7.17704 60.8464 6.93526C61.8999 6.56395 62.9707 6.32217 64.1019 6.21855C64.9136 6.1322 65.7598 6.07175 66.6147 6.07175Z" fill="#FFD38F"/>
<path d="M87.5373 13.4463C88.4354 13.3513 89.1521 13.7399 89.8084 14.2753C90.6201 14.9402 90.7755 15.8382 90.6287 16.8053C90.5769 17.1507 90.3524 17.4357 90.0156 17.6084C89.3162 17.9797 88.634 18.1697 87.805 17.9883C86.907 17.7897 86.173 17.4098 85.5513 16.7449C84.6014 15.726 85.1541 14.1544 86.1557 13.7053C86.5961 13.5067 87.0538 13.3858 87.5373 13.4463Z" fill="#FFEDD1"/>
<path d="M72.8837 30.552C72.7801 29.4985 73.5227 28.9631 74.4121 28.6609C75.2411 28.376 76.0442 28.5314 76.8472 28.73C78.2375 29.0581 79.4809 29.723 80.6294 30.5693C81.6829 31.3464 82.6068 32.2704 83.4013 33.3152C83.833 33.8765 84.1525 34.5155 84.213 35.1976C84.2907 36.1216 83.8675 36.821 82.7968 36.9765C82.2528 37.0542 81.7347 36.9247 81.2511 36.6742C80.733 36.4066 80.2235 36.1043 79.7141 35.828C78.7037 35.2926 77.6848 34.7659 76.6745 34.2219C76.0182 33.8678 75.3533 33.5311 74.7144 33.1425C74.0926 32.7626 73.6091 32.2186 73.1687 31.6573C72.9096 31.3551 72.8405 30.9319 72.8837 30.552Z" fill="white"/>
<path d="M71.925 29.2571C71.9855 29.5938 71.8128 29.8442 71.5624 30.0688C70.6471 30.8545 69.3173 30.6128 68.6955 29.5679C68.4192 29.1103 68.3674 28.6612 68.6437 28.2209C68.9287 27.7718 69.3432 27.5041 69.9131 27.53C70.483 27.5559 71.0097 27.7114 71.4501 28.1C71.7783 28.4022 71.9682 28.7649 71.925 29.2571Z" fill="white"/>
<path d="M55.1991 54.1177C54.4478 53.306 53.9643 52.3302 53.5498 51.3113C52.7899 49.4202 52.5308 47.4514 52.6776 45.4308C52.6949 45.2408 52.7208 45.0595 52.7554 44.8781C52.8417 44.4637 52.9713 44.3341 53.403 44.3169C54.1715 44.2823 54.9487 44.2651 55.7172 44.2564C58.2732 44.2132 60.8378 44.1873 63.3938 44.1442C65.2331 44.1183 67.0724 44.0751 68.9116 44.0405C68.9894 44.0405 69.0757 44.0405 69.1534 44.0319C69.8615 43.9801 70.181 44.2305 70.276 45.0336C70.5609 47.4255 70.2414 49.7138 69.2743 51.9071C68.9203 52.7102 68.5144 53.4873 67.8927 54.1349C67.3314 53.66 66.7615 53.1851 66.2002 52.7015C65.2935 51.933 64.2487 51.4408 63.1348 51.0781C62.5217 50.8795 61.8827 50.9141 61.2437 50.8968C60.0348 50.8709 58.964 51.2595 57.9537 51.8898C57.3406 52.2784 56.788 52.7101 56.2958 53.2369C56.0799 53.47 55.8554 53.7032 55.6136 53.9104C55.5013 54.0227 55.3373 54.0572 55.1991 54.1177Z" fill="#393343"/>
<path d="M55.199 54.1179C55.3371 54.0574 55.5098 54.0229 55.6221 53.9279C55.8639 53.7206 56.0884 53.4875 56.3043 53.2543C56.7965 52.7276 57.3491 52.2872 57.9622 51.9073C58.9725 51.2683 60.0433 50.8797 61.2522 50.9142C61.8912 50.9315 62.5215 50.8883 63.1433 51.0956C64.2572 51.4583 65.3107 51.9505 66.2087 52.719C66.77 53.1939 67.3399 53.6775 67.9012 54.1524C66.1742 56.4234 63.9118 57.5978 61.0363 57.4596C59.8533 57.3992 58.748 57.0192 57.7291 56.4061C56.736 55.793 55.8552 55.0763 55.199 54.1179Z" fill="#443E55"/>
<path d="M85.2928 40.2153C86.4413 40.3449 87.4257 40.8543 88.3065 41.5624C89.1354 42.2187 89.7658 43.039 90.2666 43.9543C90.9661 45.2323 91.3892 46.5966 91.6741 48.0128C92.1491 50.3011 92.27 52.6067 92.1577 54.9295C92.1491 55.1626 92.1059 55.4044 92.0368 55.6289C91.9678 55.8534 91.7864 55.983 91.5533 55.983C91.3201 55.983 91.1388 55.8621 91.0524 55.6462C90.9833 55.4735 90.9402 55.2922 90.9143 55.1108C90.6466 53.6429 90.068 52.3131 89.1613 51.1301C88.0819 49.7312 86.6917 48.79 84.9474 48.4359C84.4034 48.3237 83.8335 48.3409 83.2808 48.315C82.9872 48.3064 82.6937 48.3323 82.4001 48.3409C82.3483 47.0629 82.4778 45.8195 82.8146 44.5674C83.2118 43.0908 83.9198 41.8215 84.9647 40.7334C85.1201 40.5953 85.2928 40.4571 85.2928 40.2153ZM88.8246 44.3947C88.8246 44.2652 88.8332 44.127 88.8246 43.9975C88.7555 43.2808 88.4705 42.6677 87.892 42.2187C87.4602 41.8819 87.0458 41.856 86.6485 42.1582C86.3809 42.3655 86.2599 42.6504 86.2513 42.9872C86.2254 43.6435 86.4499 44.2306 86.7694 44.7919C86.9508 45.1201 87.1666 45.4223 87.4948 45.6122C87.9265 45.8627 88.4014 45.7418 88.6519 45.31C88.7382 45.1546 88.7814 44.9646 88.8246 44.7919C88.8505 44.671 88.8246 44.5329 88.8246 44.3947ZM88.3237 46.8989C88.3237 47.3306 88.5137 47.5638 88.8505 47.5465C89.1786 47.5292 89.4463 47.2443 89.4549 46.9162C89.4636 46.5621 89.1441 46.2599 88.79 46.2772C88.4878 46.2944 88.3237 46.5103 88.3237 46.8989Z" fill="#443E55"/>
<path d="M85.2927 40.2152C85.2927 40.457 85.12 40.5951 84.9732 40.7419C83.9283 41.8386 83.2289 43.1079 82.823 44.5759C82.4863 45.8193 82.3567 47.0714 82.4086 48.3494C82.2618 48.4012 82.1149 48.4617 81.9595 48.5048C80.7506 48.8502 79.7058 49.4461 78.9286 50.4564C78.8941 50.4995 78.8682 50.5427 78.8336 50.5859C78.6868 50.75 78.5227 50.8881 78.2896 50.8449C77.9874 50.7845 77.806 50.5686 77.7888 50.2923C77.7542 49.8692 77.737 49.4374 77.806 49.0229C78.091 47.3132 78.5487 45.6466 79.2395 44.0578C79.5331 43.3756 79.8957 42.7193 80.362 42.1322C81.64 40.5433 83.2721 39.8784 85.2927 40.2152Z" fill="#3B3545"/>
<path d="M88.8243 44.3947C88.8243 44.5242 88.8416 44.6624 88.8157 44.7919C88.7811 44.9733 88.738 45.1546 88.643 45.31C88.3926 45.7504 87.9176 45.8627 87.4859 45.6123C87.1491 45.4223 86.9419 45.1201 86.7605 44.7919C86.4497 44.2306 86.2252 43.6435 86.2424 42.9872C86.2511 42.6504 86.372 42.3655 86.6397 42.1582C87.0282 41.8646 87.4514 41.8819 87.8831 42.2187C88.4617 42.6677 88.7466 43.2808 88.8157 43.9975C88.833 44.127 88.8243 44.2652 88.8243 44.3947Z" fill="#6C6577"/>
<path d="M88.3235 46.8988C88.3235 46.5102 88.479 46.2943 88.7812 46.2771C89.1352 46.2598 89.4548 46.562 89.4461 46.9161C89.4375 47.2442 89.1698 47.5292 88.8417 47.5464C88.5222 47.5637 88.3235 47.3306 88.3235 46.8988Z" fill="#6C6577"/>
<path d="M37.7565 40.1806C38.9913 40.0338 40.0707 40.4138 41.0378 41.1391C41.7286 41.6658 42.2467 42.3394 42.6698 43.0906C43.3434 44.2823 43.7665 45.5775 44.1292 46.8901C44.3192 47.5809 44.4573 48.2889 44.5868 48.997C44.6473 49.3338 44.6473 49.6878 44.6386 50.0332C44.6386 50.2146 44.5782 50.4045 44.4919 50.56C44.3278 50.8795 43.9565 50.9399 43.6888 50.7068C43.6111 50.6377 43.542 50.5513 43.4815 50.465C42.2467 48.9452 40.6233 48.2976 38.7063 48.3062C36.9448 48.3148 35.4423 48.9884 34.1384 50.1455C33.957 50.3009 33.7843 50.465 33.603 50.6204C33.603 50.5168 33.5685 50.3959 33.603 50.3009C33.7843 49.7569 33.7412 49.1956 33.7498 48.643C33.7498 48.5653 33.7498 48.4789 33.7671 48.4012C33.9829 47.2268 34.2161 46.0611 34.6306 44.9385C34.9673 44.0318 35.4164 43.1856 35.9604 42.4085C36.444 41.7176 36.9189 41.0009 37.5665 40.4397C37.6529 40.3706 37.696 40.267 37.7565 40.1806ZM41.9272 44.4636C41.8495 43.6864 41.625 42.9525 41.0983 42.3566C40.9342 42.1753 40.6665 42.0544 40.4161 41.9767C40.2607 41.9249 40.0362 41.9594 39.8807 42.0371C39.5094 42.2012 39.1727 42.8316 39.2331 43.2374C39.3454 44.0146 39.6389 44.7313 40.1311 45.3357C40.5888 45.8884 41.2451 45.897 41.6768 45.3012C41.8582 45.0508 41.9531 44.7745 41.9272 44.4636ZM42.5058 46.8901C42.4885 46.5619 42.1863 46.2597 41.8927 46.277C41.5387 46.2942 41.2364 46.631 41.2796 46.9678C41.3141 47.2873 41.625 47.555 41.9359 47.5463C42.2208 47.5377 42.523 47.1923 42.5058 46.8901Z" fill="#443E55"/>
<path d="M37.7564 40.1805C37.6959 40.2668 37.6527 40.3704 37.575 40.4395C36.9274 41.0094 36.4525 41.7175 35.9689 42.4083C35.4249 43.1941 34.9759 44.0317 34.6391 44.9384C34.2246 46.0609 33.9828 47.2267 33.7756 48.401C33.7583 48.4788 33.7583 48.5565 33.7583 48.6428C33.7497 49.1955 33.7929 49.7567 33.6115 50.3008C33.577 50.3957 33.6115 50.508 33.6115 50.6202C33.0416 51.3888 32.489 52.1746 32.1263 53.0726C31.85 53.7634 31.5736 54.4542 31.4787 55.2055C31.4528 55.3868 31.4009 55.5768 31.3146 55.7322C31.1073 56.0949 30.5806 56.0862 30.4079 55.7063C30.3129 55.4991 30.2611 55.2486 30.2525 55.0155C30.2438 53.8152 30.2007 52.6149 30.2784 51.4147C30.3906 49.6272 30.667 47.8657 31.211 46.1473C31.5218 45.1802 31.919 44.2476 32.4717 43.3927C33.2834 42.1233 34.3542 41.1476 35.753 40.569C36.3834 40.3186 37.0396 40.0941 37.7564 40.1805Z" fill="#3B3545"/>
<path d="M41.927 44.4633C41.9529 44.7742 41.8579 45.0505 41.6766 45.2923C41.2448 45.8881 40.5799 45.8881 40.1309 45.3268C39.6387 44.7224 39.3451 44.0057 39.2328 43.2285C39.1724 42.8226 39.5092 42.1923 39.8805 42.0282C40.0445 41.9591 40.2604 41.9246 40.4158 41.9678C40.6576 42.0455 40.934 42.1664 41.098 42.3477C41.6248 42.9435 41.8493 43.6775 41.927 44.4633Z" fill="#6C6577"/>
<path d="M42.5056 46.8901C42.5229 47.1924 42.2207 47.5378 41.9357 47.5464C41.6248 47.555 41.314 47.2873 41.2795 46.9678C41.2363 46.6224 41.5385 46.2857 41.8925 46.277C42.1948 46.2684 42.497 46.562 42.5056 46.8901Z" fill="#6C6577"/>
<path d="M120.48 1.70215C120.972 2.06482 121.231 2.58292 121.473 3.1183C121.793 3.82637 121.948 4.58626 122.069 5.35478C122.268 6.57233 122.328 7.79851 122.311 9.02469C122.242 14.2921 120.869 19.1882 118.045 23.6525C116.586 25.9581 114.729 27.8923 112.493 29.4553C111.526 30.1288 110.472 30.526 109.281 30.4483C109.298 30.1806 109.22 29.9388 109.125 29.6884C108.857 28.9803 108.581 28.2636 108.382 27.5383C108.184 26.787 107.908 26.0271 107.994 25.2241C108.037 25.2241 108.08 25.2327 108.123 25.2327C108.59 25.8803 109.246 26.1739 110.032 26.2085C110.239 26.2171 110.446 26.243 110.653 26.2603C110.671 26.3812 110.679 26.4589 110.688 26.528C110.792 27.1238 111.163 27.2878 111.629 26.9252C111.647 26.9079 111.672 26.8906 111.69 26.8734C112.717 25.8717 113.667 24.8096 114.418 23.5834C114.626 23.2725 114.833 22.9703 115.04 22.6595C115.869 21.5542 116.482 20.3366 117 19.0586C117.009 19.0327 117.009 19.0068 117.009 18.9809C117.259 18.6355 117.397 18.2469 117.475 17.8411C117.881 17.0553 118.054 16.1918 118.27 15.3369C118.555 14.2144 118.667 13.0745 118.589 11.9261C118.537 11.2007 118.399 10.5013 117.777 10.0091C117.233 9.4478 116.56 9.43053 115.869 9.5946C114.824 9.84501 113.918 10.3718 113.14 11.1144C112.968 11.2612 112.804 11.3993 112.631 11.5461C111.759 12.1851 111.033 12.9623 110.412 13.8431C110.291 13.9899 110.17 14.1366 110.058 14.2834C109.894 14.482 109.721 14.672 109.574 14.8879C109.263 15.3369 108.97 15.7946 108.667 16.2436C108.633 15.8637 108.719 15.5096 108.84 15.1556C109.427 13.4199 110.092 11.7275 110.99 10.1213C111.966 8.36842 113.184 6.81411 114.531 5.35478C114.867 4.98348 115.291 4.69852 115.662 4.36175C116.638 3.48097 117.726 2.78154 118.978 2.36705C119.401 2.22889 119.841 2.09936 120.273 1.98711C120.402 1.94393 120.454 1.84031 120.48 1.70215Z" fill="#463F55"/>
<path d="M108.003 25.2243C107.916 26.0274 108.184 26.7873 108.391 27.5385C108.59 28.2725 108.866 28.9806 109.134 29.6886C109.229 29.939 109.306 30.1808 109.289 30.4485C107.45 30.414 105.939 29.68 104.738 28.2984C103.694 27.0981 103.132 25.6733 102.891 24.1104C102.493 21.6235 102.709 19.1711 103.279 16.7274C104.099 13.2302 105.723 10.1561 108.098 7.46198C109.384 5.99402 110.766 4.62105 112.355 3.48122C113.84 2.41911 115.42 1.5556 117.208 1.10658C117.881 0.933874 118.563 0.821618 119.263 1.01159C119.729 1.13248 120.178 1.30518 120.498 1.69376C120.472 1.83192 120.42 1.93554 120.264 1.97008C119.833 2.09097 119.401 2.21186 118.969 2.35002C117.717 2.7645 116.629 3.45531 115.653 4.34472C115.282 4.68149 114.859 4.96644 114.522 5.33775C113.175 6.80571 111.957 8.36003 110.982 10.1043C110.084 11.7104 109.419 13.4029 108.831 15.1386C108.711 15.4926 108.624 15.8553 108.659 16.2266C108.59 16.3993 108.529 16.572 108.443 16.736C107.778 18.109 107.329 19.5511 107.156 21.0708C106.975 22.582 107.182 23.9636 108.003 25.2243Z" fill="#383243"/>
<path d="M108.003 25.2245C107.182 23.9638 106.975 22.5821 107.139 21.0969C107.312 19.5685 107.761 18.1351 108.426 16.7621C108.503 16.598 108.573 16.4253 108.642 16.2526C108.944 15.8036 109.237 15.346 109.548 14.8969C109.695 14.6897 109.868 14.4911 110.032 14.2925C110.17 14.4134 110.308 14.5343 110.446 14.6638C110.947 15.1474 111.483 15.5877 111.923 16.1231C112.752 17.1075 113.339 18.2387 113.762 19.4563C113.451 19.4649 113.296 19.6808 113.141 19.8966C112.484 20.8292 111.69 21.6582 110.93 22.5044C110.205 23.3161 109.393 24.0587 108.616 24.8273C108.469 24.9741 108.288 25.095 108.124 25.2331C108.089 25.2331 108.046 25.2245 108.003 25.2245Z" fill="#A32EDA"/>
<path d="M108.132 25.2329C108.296 25.1034 108.469 24.9739 108.624 24.8271C109.401 24.0585 110.213 23.3159 110.938 22.5042C111.698 21.6494 112.493 20.829 113.149 19.8964C113.304 19.6719 113.46 19.4561 113.771 19.4561C114.246 20.7945 114.47 22.1761 114.427 23.5922C113.684 24.8271 112.726 25.8892 111.698 26.8822C111.681 26.8995 111.655 26.9168 111.638 26.934C111.171 27.2881 110.809 27.1326 110.697 26.5368C110.679 26.4591 110.679 26.3814 110.662 26.2691C110.455 26.2519 110.248 26.2346 110.04 26.2173C109.254 26.1741 108.607 25.8805 108.132 25.2329Z" fill="#852FC9"/>
<path d="M110.394 13.8521C111.016 12.9713 111.75 12.1942 112.614 11.5552C113.313 11.9265 113.978 12.3755 114.522 12.9454C115.204 13.6794 115.774 14.5084 116.154 15.4496C115.817 15.6137 115.688 15.9332 115.532 16.244C115.144 17.0471 114.652 17.7983 114.082 18.4891C114.03 18.4028 113.952 18.3251 113.918 18.2301C113.658 17.5652 113.27 16.9694 112.855 16.3908C112.182 15.4064 111.301 14.612 110.394 13.8521Z" fill="#3E008C"/>
<path d="M113.123 11.1232C113.9 10.3805 114.807 9.85381 115.852 9.60339C116.543 9.43933 117.216 9.4566 117.76 10.0179C117.674 10.4583 117.622 10.9073 117.501 11.339C117.216 12.2803 116.897 13.2042 116.595 14.1368C116.534 14.3095 116.508 14.4995 116.474 14.6722C116.387 14.5427 116.301 14.4131 116.215 14.275C115.766 13.5151 115.282 12.7811 114.591 12.2198C114.125 11.8226 113.615 11.4858 113.123 11.1232Z" fill="#A32EDA"/>
<path d="M114.09 18.4892C114.66 17.7984 115.144 17.0472 115.541 16.2441C115.688 15.9333 115.826 15.6138 116.163 15.4497C116.655 16.5809 116.931 17.7639 117.018 18.9901C117.018 19.016 117.018 19.0419 117.009 19.0678C116.5 20.3458 115.887 21.5633 115.049 22.6686C114.997 22.3578 114.937 22.0383 114.911 21.7274C114.85 21.0625 114.704 20.4149 114.505 19.7845C114.358 19.3528 114.22 18.921 114.09 18.4892Z" fill="#6A2ECB"/>
<path d="M116.474 14.6636C116.517 14.4822 116.543 14.3009 116.594 14.1282C116.897 13.1956 117.216 12.2717 117.501 11.3304C117.631 10.9073 117.683 10.4497 117.76 10.0093C118.382 10.5015 118.52 11.2009 118.572 11.9263C118.65 13.0747 118.537 14.2146 118.252 15.3371C118.037 16.1833 117.864 17.0469 117.458 17.8413C117.277 16.7446 116.879 15.7084 116.474 14.6636Z" fill="#852FC9"/>
<path d="M114.091 18.4889C114.229 18.9207 114.358 19.3524 114.496 19.7755C114.695 20.4059 114.842 21.0535 114.902 21.7184C114.928 22.0379 114.997 22.3488 115.04 22.6597C114.833 22.9705 114.626 23.2728 114.419 23.5836C114.47 22.1588 114.237 20.7859 113.762 19.4474C113.339 18.2299 112.743 17.0987 111.914 16.1143C111.474 15.5875 110.939 15.1385 110.438 14.655C110.308 14.5254 110.162 14.4045 110.023 14.2836C110.144 14.1368 110.265 13.9901 110.377 13.8433C111.284 14.6031 112.165 15.3976 112.847 16.382C113.253 16.9605 113.641 17.5563 113.909 18.2212C113.961 18.3249 114.03 18.4026 114.091 18.4889Z" fill="#E7CA51"/>
<path d="M116.474 14.6638C116.879 15.7 117.277 16.7448 117.467 17.8415C117.389 18.2559 117.251 18.6445 117 18.9813C116.914 17.7551 116.638 16.5721 116.145 15.4409C115.765 14.4997 115.196 13.6707 114.513 12.9367C113.978 12.3582 113.313 11.9178 112.605 11.5465C112.778 11.3997 112.942 11.2529 113.115 11.1147C113.607 11.4774 114.116 11.8142 114.582 12.2028C115.265 12.764 115.757 13.498 116.206 14.2579C116.292 14.4047 116.387 14.5342 116.474 14.6638Z" fill="#E7CA51"/>
<path d="M13.7248 30.4574C12.6195 30.5265 11.6092 30.2156 10.7111 29.5939C9.19135 28.5404 7.79247 27.3574 6.60946 25.924C4.29525 23.0917 2.69776 19.8967 1.72199 16.3822C0.841211 13.2132 0.513072 9.9923 0.772125 6.71098C0.841206 5.77839 0.98801 4.85444 1.23843 3.95639C1.4543 3.20514 1.76516 2.5057 2.28327 1.90125C2.35235 1.82353 2.44733 1.77172 2.52505 1.70264C2.55095 1.88397 2.65456 1.95306 2.8359 1.99623C4.26069 2.36754 5.6164 2.87701 6.7476 3.8614C7.00665 4.08591 7.26572 4.31043 7.55068 4.5004C8.15514 4.90625 8.65596 5.43299 9.10499 5.977C9.73535 6.75415 10.3743 7.53131 10.9443 8.36891C11.6351 9.37921 12.2568 10.4241 12.7835 11.5207C13.3448 12.6864 13.8111 13.904 14.1911 15.1474C14.3033 15.5101 14.3983 15.8641 14.3638 16.2355C14.1911 15.9764 14.027 15.7173 13.8456 15.4669C13.5607 15.0697 13.2671 14.6725 12.9735 14.2839C12.8526 14.1371 12.7404 13.9903 12.6195 13.8435C11.9977 12.9628 11.2638 12.1856 10.4003 11.5466C10.2275 11.3998 10.0635 11.253 9.89078 11.1149C9.4763 10.6572 8.94956 10.355 8.40555 10.0787C7.98243 9.86278 7.53339 9.68144 7.07573 9.57782C6.41083 9.43102 5.75457 9.45693 5.2451 10.0096C5.15011 10.0959 5.02923 10.165 4.96015 10.2686C4.62338 10.7695 4.4593 11.3221 4.4334 11.9266C4.39022 12.8332 4.42477 13.7399 4.60611 14.638C4.83062 15.7346 5.05513 16.8313 5.54733 17.8416C5.62505 18.2561 5.76322 18.6446 6.01363 18.9814C6.08272 19.18 6.12588 19.3873 6.22087 19.5772C6.73897 20.648 7.23982 21.7187 7.98243 22.6599C8.18968 22.9708 8.39692 23.273 8.60416 23.5753C9.34678 24.8014 10.2966 25.8635 11.3242 26.8566C11.3847 26.9084 11.4451 26.9602 11.5142 27.0034C11.8596 27.2192 12.205 27.0811 12.3172 26.6925C12.3518 26.5457 12.3518 26.3989 12.3777 26.2176C13.3794 26.2349 14.2774 26.0881 14.8819 25.2332C14.9337 25.2246 14.9769 25.2159 15.0287 25.2073C15.0114 25.6304 15.0114 26.0449 14.9078 26.468C14.6314 27.6078 14.2774 28.7218 13.8543 29.8098C13.7593 30.0256 13.7593 30.2415 13.7248 30.4574Z" fill="#463F55"/>
<path d="M14.3639 16.2527C14.3985 15.8727 14.3035 15.5187 14.1912 15.1646C13.8113 13.9212 13.345 12.7037 12.7837 11.5379C12.257 10.4413 11.6352 9.39643 10.9444 8.38612C10.3745 7.54852 9.74414 6.77136 9.10515 5.99421C8.65612 5.44156 8.1553 4.92346 7.55084 4.51761C7.26588 4.32764 7.00681 4.10313 6.74776 3.87862C5.61656 2.89422 4.25221 2.39338 2.83606 2.01344C2.65472 1.97027 2.55111 1.90119 2.52521 1.71985C3.1642 1.03768 3.99317 0.899518 4.86531 0.968599C5.69428 1.03768 6.48008 1.2881 7.24861 1.59896C8.61295 2.15161 9.8823 2.89422 11.0394 3.79227C13.4141 5.64017 15.426 7.83348 17.0667 10.3636C18.5519 12.6518 19.4327 15.1819 19.9595 17.8502C20.279 19.4822 20.3739 21.1315 20.2703 22.7894C20.2012 23.8861 20.0113 24.9568 19.6313 25.993C19.2946 26.8997 18.8196 27.7373 18.1634 28.4454C16.9631 29.732 15.4951 30.4401 13.7163 30.466C13.7508 30.2587 13.7508 30.0342 13.8285 29.8443C14.2517 28.7562 14.6143 27.6423 14.882 26.5025C14.9856 26.0794 14.9857 25.6649 15.0029 25.2418C15.7455 24.1365 16.0132 22.9017 15.9096 21.5978C15.806 20.1557 15.4692 18.7568 14.8648 17.4357C14.7007 17.0298 14.5366 16.6412 14.3639 16.2527Z" fill="#383243"/>
<path d="M14.3639 16.2528C14.5366 16.6414 14.7007 17.03 14.8734 17.4185C15.4778 18.7397 15.806 20.1386 15.9182 21.5806C16.0132 22.8932 15.7455 24.1193 15.0115 25.2246C14.9597 25.2333 14.9166 25.2419 14.8648 25.2505C14.6662 25.0778 14.4675 24.9051 14.2776 24.7238C12.6887 23.1522 11.0826 21.5979 9.77868 19.7673C9.64915 19.5859 9.49374 19.4478 9.25195 19.4564C9.30376 19.3355 9.34692 19.206 9.39873 19.0851C9.94275 17.7121 10.6767 16.4514 11.7561 15.4238C12.162 15.0352 12.5765 14.6726 12.9909 14.3013C13.2845 14.6985 13.5781 15.0871 13.8631 15.4843C14.0272 15.7261 14.1912 15.9937 14.3639 16.2528Z" fill="#A32EDA"/>
<path d="M9.24307 19.4478C9.48486 19.4478 9.64028 19.5859 9.7698 19.7586C11.0737 21.5893 12.6798 23.1436 14.2687 24.7151C14.4587 24.8965 14.6573 25.0692 14.8559 25.2419C14.2514 26.0968 13.3534 26.2349 12.3517 26.2263C12.3344 26.4076 12.3258 26.5544 12.2913 26.7012C12.1876 27.0898 11.8336 27.2279 11.4882 27.0121C11.4191 26.9689 11.3587 26.9257 11.2982 26.8653C10.2707 25.8636 9.3208 24.8101 8.57818 23.584C8.54364 22.1678 8.77678 20.7862 9.24307 19.4478Z" fill="#852FC9"/>
<path d="M10.4001 11.5552C11.2723 12.1942 11.9976 12.9713 12.6194 13.8521C11.445 14.8365 10.3311 15.8813 9.59709 17.2543C9.37258 17.6688 9.14807 18.0833 8.92355 18.4978C8.36227 17.807 7.87008 17.0557 7.47286 16.2527C7.32607 15.9418 7.1879 15.6223 6.85114 15.4582C7.60239 13.7485 8.74221 12.4187 10.4001 11.5552Z" fill="#3E008C"/>
<path d="M5.24518 10.0183C5.76328 9.46563 6.41955 9.43973 7.07581 9.58652C7.53347 9.69014 7.98251 9.87148 8.40563 10.0874C8.941 10.3637 9.47638 10.6659 9.89086 11.1236C9.73543 11.2272 9.58 11.3308 9.4332 11.4344C8.47471 12.0821 7.64574 12.8506 7.05855 13.8609C6.90312 14.1372 6.72179 14.3963 6.54909 14.6639C6.48864 14.4394 6.43683 14.1976 6.35911 13.9818C5.86691 12.6951 5.42652 11.3913 5.24518 10.0183Z" fill="#A32EDA"/>
<path d="M6.85981 15.4497C7.19658 15.6138 7.32611 15.9333 7.48154 16.2441C7.87012 17.0472 8.36234 17.7984 8.93225 18.4892C8.82863 18.8174 8.74227 19.1455 8.62138 19.4736C8.24143 20.5099 8.14645 21.5979 7.97374 22.6686C7.23976 21.7274 6.73028 20.648 6.21218 19.5859C6.12583 19.3959 6.07402 19.1887 6.00494 18.9901C6.09129 17.7639 6.37624 16.5809 6.85981 15.4497Z" fill="#6A2ECB"/>
<path d="M5.24506 10.0181C5.42639 11.391 5.86678 12.6949 6.35035 13.9816C6.4367 14.2061 6.47987 14.4392 6.54032 14.6637C6.13447 15.6999 5.73726 16.7448 5.54729 17.8414C5.05509 16.8225 4.83058 15.7258 4.60607 14.6378C4.42473 13.7398 4.39018 12.8417 4.43335 11.9264C4.45926 11.3306 4.62334 10.7693 4.96011 10.2685C5.02919 10.1735 5.15007 10.1044 5.24506 10.0181Z" fill="#852FC9"/>
<path d="M7.974 22.6688C8.13807 21.5894 8.24169 20.5014 8.62163 19.4738C8.74252 19.1543 8.82889 18.8175 8.93251 18.4894C9.15702 18.0749 9.38153 17.6604 9.60604 17.246C10.3487 15.873 11.454 14.8281 12.6283 13.8438C12.7492 13.9905 12.8615 14.1373 12.9823 14.2841C12.5679 14.6554 12.1534 15.0268 11.7475 15.4067C10.6681 16.4343 9.93418 17.695 9.39017 19.068C9.33836 19.1889 9.29517 19.3184 9.24336 19.4393C8.76843 20.7777 8.54391 22.1593 8.58708 23.5755C8.38848 23.2819 8.18124 22.9796 7.974 22.6688Z" fill="#E7CA51"/>
<path d="M5.54749 17.8504C5.73746 16.7451 6.1433 15.7089 6.54052 14.6727C6.71322 14.405 6.89455 14.146 7.04998 13.8696C7.63717 12.8593 8.46614 12.0908 9.42463 11.4432C9.58007 11.3396 9.7355 11.2359 9.88229 11.1323C10.055 11.2791 10.2191 11.4259 10.3918 11.5641C8.73382 12.4276 7.59401 13.7574 6.85139 15.4585C6.35919 16.5897 6.08285 17.7727 5.9965 18.9989C5.76335 18.6448 5.6252 18.2649 5.54749 17.8504Z" fill="#E7CA51"/>
<path d="M4.70101 41.7176C4.33834 40.1633 4.37287 38.583 4.53694 37.0287C5.15003 31.2432 7.25702 25.9931 10.4693 21.1661C11.4882 19.6291 12.6453 18.1956 14.001 16.9436C14.9595 16.0542 15.9784 15.2425 17.1442 14.6207C18.1459 14.094 19.1907 13.7227 20.3392 13.6968C20.4946 13.6968 20.6587 13.7227 20.8141 13.74C20.8745 13.8868 20.9005 14.0508 20.9868 14.1803C21.3668 14.733 21.6258 15.3374 21.8762 15.9592C22.5239 17.5739 22.8952 19.2491 22.8865 20.9934C22.8865 21.6065 22.9124 22.2196 22.8779 22.8327C22.8434 23.5753 22.8347 24.3265 22.6793 25.0433C22.4461 26.1313 22.2648 27.2279 21.9539 28.2987C21.4272 30.0861 20.7796 31.8218 20.011 33.5143C19.467 34.7059 18.759 35.7939 18.0509 36.8819C17.5673 37.6159 17.006 38.2894 16.4275 38.9457C15.6503 39.8265 14.735 40.5518 13.742 41.1822C13.0166 41.6399 12.2567 42.0025 11.4537 42.3047C10.6247 42.6156 9.74391 42.6588 8.88904 42.8229C8.71633 42.8574 8.52638 42.7969 8.3364 42.7624C8.18097 42.7365 8.02553 42.6847 7.8701 42.6761C7.11885 42.6415 6.41076 42.417 5.72859 42.1061C5.40045 41.9593 5.04641 41.8471 4.70101 41.7176ZM17.2823 21.6842C17.2219 21.641 17.1615 21.572 17.0924 21.5461C16.2979 21.2438 15.5294 21.3129 14.7695 21.6669C13.4225 22.28 12.4294 23.3162 11.5141 24.4302C10.9356 25.1296 10.4865 25.9154 10.0289 26.6926C9.48486 27.6165 9.05311 28.5923 8.70771 29.5939C8.25868 30.8719 7.9478 32.1758 7.7751 33.5402C7.61103 34.8181 7.68876 36.0271 8.13779 37.2187C8.46592 38.0908 9.03582 38.7212 9.98568 38.9371C10.2965 39.0062 10.6161 39.0839 10.901 38.8507C11.3069 38.868 11.6782 38.7557 12.0495 38.583C13.2757 38.0131 14.1565 37.0374 14.9768 36.0357C16.1512 34.6195 17.0406 33.0134 17.7055 31.2864C18.4653 29.3435 18.9576 27.3488 18.8971 25.2419C18.8798 24.7583 18.828 24.292 18.7158 23.8257C18.4826 22.9449 18.0681 22.1937 17.2823 21.6842ZM13.3361 21.2007C13.6383 21.0107 13.9665 20.8725 14.2255 20.648C15.2186 19.8018 16.3238 19.111 17.4637 18.472C17.7659 18.2993 18.0768 18.1438 18.3445 17.9366C18.7244 17.643 19.0698 17.3235 19.2943 16.8745C19.5275 16.4255 19.0353 15.6397 18.6381 15.6051C17.8523 15.5447 17.1183 15.631 16.4188 16.0542C15.469 16.6327 14.7005 17.4012 13.9751 18.2129C13.5002 18.7483 13.0598 19.3182 12.7662 19.9831C12.4985 20.6221 12.5935 20.8466 13.3361 21.2007ZM11.0392 22.3578C11.0392 22.4096 11.0305 22.4614 11.0392 22.5132C11.0996 23.0227 11.5141 23.2213 11.9631 22.9881C12.3258 22.7981 12.5244 22.5045 12.6108 22.1246C12.6971 21.7533 12.3517 21.3647 11.9718 21.382C11.445 21.3993 11.0305 21.831 11.0392 22.3578Z" fill="#F9D100"/>
<path d="M4.70068 41.7175C5.04609 41.847 5.40014 41.9593 5.73691 42.1147C6.41908 42.4256 7.11853 42.6415 7.87842 42.6846C8.03385 42.6933 8.18926 42.7451 8.34469 42.771C8.52603 42.7969 8.72465 42.866 8.89735 42.8314C9.75223 42.6674 10.633 42.6242 11.462 42.3133C12.265 42.0111 13.0249 41.6484 13.7503 41.1908C14.7433 40.569 15.6586 39.8351 16.4358 38.9543C17.0143 38.298 17.5756 37.6331 18.0592 36.8905C18.7759 35.8025 19.484 34.7058 20.0194 33.5228C20.7879 31.8304 21.4442 30.0947 21.9623 28.3073C22.2731 27.2365 22.4545 26.1399 22.6876 25.0518C22.843 24.3351 22.8517 23.5752 22.8862 22.8413C22.9121 22.2282 22.8948 21.6151 22.8948 21.002C22.8948 19.2577 22.5322 17.5825 21.8845 15.9677C21.6341 15.346 21.375 14.7416 20.9951 14.1889C20.9088 14.0594 20.8742 13.8953 20.8224 13.7485C22.1436 13.7917 23.1453 14.4393 23.957 15.4237C24.6305 16.2441 25.0191 17.2112 25.2781 18.2215C25.5285 19.2059 25.6322 20.2162 25.6581 21.2265C25.7272 23.7566 25.3386 26.2262 24.665 28.6527C23.4388 33.0997 21.4873 37.1927 18.7155 40.8799C17.5065 42.486 16.1422 43.9454 14.5274 45.1456C13.4653 45.9314 12.3341 46.5704 11.0388 46.8813C10.2185 47.0799 9.39818 47.1058 8.58648 46.9072C7.44664 46.6309 6.57451 45.9487 5.92688 44.9816C5.24471 43.9885 4.84748 42.9005 4.70068 41.7175Z" fill="#E0A639"/>
<path d="M17.282 21.6841C18.0678 22.1849 18.4823 22.9448 18.7068 23.817C18.8277 24.2832 18.8795 24.7495 18.8882 25.2331C18.9486 27.3401 18.4478 29.3348 17.6965 31.2776C17.023 33.0047 16.1422 34.6108 14.9678 36.0269C14.1389 37.0286 13.2581 38.0044 12.0405 38.5743C11.6692 38.747 11.2979 38.8592 10.8921 38.842C10.8834 38.5743 10.918 38.298 10.8403 38.0475C10.7107 37.6503 10.7107 37.2617 10.7194 36.8645C10.7366 36.0701 10.6589 35.2757 10.8575 34.4899C10.9957 33.9286 10.9784 33.3328 11.1166 32.7715C11.6865 30.4487 12.4119 28.1777 13.6985 26.1311C14.4152 24.9827 15.1751 23.8688 16.1422 22.9103C16.5394 22.5131 16.9021 22.0899 17.282 21.6841Z" fill="#8C48E2"/>
<path d="M17.282 21.6841C16.902 22.09 16.5307 22.5131 16.1421 22.9016C15.175 23.8601 14.4151 24.9741 13.6984 26.1225C12.4118 28.169 11.6778 30.4401 11.1165 32.7629C10.9784 33.3242 10.9956 33.92 10.8575 34.4813C10.6589 35.2757 10.7366 36.0615 10.7193 36.8559C10.7107 37.2531 10.7107 37.6417 10.8402 38.0389C10.9179 38.2807 10.8748 38.5657 10.892 38.8334C10.6071 39.0665 10.2876 38.9888 9.9767 38.9197C9.03548 38.7038 8.45691 38.0735 8.12878 37.2013C7.67975 36.0097 7.61069 34.8008 7.76612 33.5228C7.93882 32.1671 8.24967 30.8546 8.6987 29.5766C9.05274 28.5749 9.47586 27.5991 10.0199 26.6752C10.4775 25.898 10.9352 25.1122 11.5051 24.4128C12.4204 23.2989 13.4135 22.2627 14.7606 21.6496C15.5204 21.3042 16.2889 21.2351 17.0834 21.5287C17.1697 21.5718 17.2215 21.6409 17.282 21.6841Z" fill="#560A79"/>
<path d="M13.336 21.2008C12.5847 20.8468 12.4984 20.6223 12.766 19.9919C13.051 19.3184 13.5 18.7485 13.975 18.2217C14.7003 17.41 15.4688 16.6415 16.4187 16.063C17.1181 15.6399 17.8608 15.5535 18.6379 15.614C19.0438 15.6399 19.5273 16.4256 19.2942 16.8833C19.0697 17.3237 18.7243 17.6518 18.3443 17.9454C18.0766 18.1527 17.7658 18.3167 17.4635 18.4808C16.3237 19.1198 15.227 19.802 14.2254 20.6568C13.9663 20.8727 13.6382 21.0195 13.336 21.2008Z" fill="#40005E"/>
<path d="M11.0388 22.3577C11.0301 21.8309 11.4446 21.3992 11.98 21.3819C12.36 21.3646 12.6967 21.7532 12.619 22.1245C12.5327 22.5045 12.3254 22.7981 11.9714 22.988C11.5137 23.2212 11.1079 23.0226 11.0474 22.5131C11.0301 22.4613 11.0388 22.4095 11.0388 22.3577Z" fill="#E9CF54"/>
<path d="M102.157 13.7397C102.83 13.6102 103.478 13.757 104.125 13.9383C105.671 14.3787 106.966 15.2508 108.184 16.2698C110.101 17.8759 111.629 19.8188 112.968 21.9171C115.334 25.6388 117.018 29.6455 117.933 33.963C118.347 35.8973 118.572 37.8488 118.477 39.8348C118.451 40.4738 118.408 41.1042 118.201 41.7173C117.907 41.8296 117.588 41.9073 117.32 42.0627C116.31 42.6412 115.17 42.6153 114.082 42.8226C113.59 42.6844 113.071 42.7362 112.588 42.624C111.681 42.4167 110.8 42.1059 109.971 41.6741C109.125 41.2337 108.331 40.6811 107.631 40.0248C106.794 39.2477 105.956 38.4532 105.3 37.512C104.644 36.5708 103.996 35.6296 103.495 34.5934C103.029 33.6349 102.563 32.6764 102.139 31.7006C101.69 30.6471 101.302 29.5764 101.025 28.4625C100.784 27.4608 100.49 26.4678 100.335 25.4402C100.214 24.6544 100.058 23.8773 100.076 23.0742C100.093 22.1675 100.102 21.2608 100.076 20.3542C100.05 19.6806 100.188 19.033 100.317 18.3854C100.594 17.021 101.095 15.7344 101.751 14.5082C101.889 14.2492 102.027 13.9987 102.157 13.7397ZM112.104 38.9713C112.182 38.9713 112.26 38.98 112.346 38.98C113.408 38.9886 114.151 38.4964 114.66 37.5725C115.178 36.6226 115.178 35.5778 115.273 34.5588C115.325 34.0407 115.222 33.4967 115.118 32.9786C114.928 32.0719 114.729 31.1566 114.453 30.2758C113.857 28.3589 112.976 26.58 111.811 24.9394C110.973 23.7564 109.997 22.7202 108.754 21.9516C108.054 21.5199 107.312 21.2867 106.483 21.3645C106.094 21.399 105.749 21.4853 105.533 21.8394C105.291 21.8394 105.144 21.9862 105.006 22.1589C104.462 22.8497 104.151 23.6527 104.117 24.5076C104.065 25.6474 104.005 26.7959 104.255 27.9271C104.428 28.7043 104.592 29.4814 104.859 30.2327C105.317 31.5107 105.835 32.7627 106.526 33.9371C107.182 35.0424 107.951 36.0527 108.788 37.0112C109.03 37.2875 109.35 37.4948 109.643 37.7279C110.369 38.3324 111.163 38.7986 112.104 38.9713ZM109.704 21.1745C110.325 20.8463 110.403 20.6996 110.205 20.1296C110.11 19.8619 109.989 19.5856 109.825 19.3525C109.548 18.9639 109.22 18.6099 108.935 18.2386C108.193 17.2801 107.329 16.4943 106.232 15.9416C105.654 15.648 105.075 15.5703 104.462 15.6221C103.849 15.6653 103.469 16.2525 103.676 16.8224C103.746 17.0124 103.875 17.2024 104.005 17.3578C104.367 17.7895 104.825 18.1004 105.308 18.3854C106.336 18.9898 107.372 19.5684 108.305 20.3369C108.693 20.665 109.108 21.019 109.704 21.1745ZM110.334 22.0725C110.291 22.4611 110.567 22.6856 110.835 22.8929C111.362 23.2901 111.793 23.1174 111.906 22.4611C111.932 22.3229 111.897 22.1416 111.819 22.0207C111.707 21.848 111.543 21.7099 111.388 21.5631C111.198 21.3817 110.973 21.3299 110.74 21.4422C110.49 21.5544 110.325 21.753 110.334 22.0725Z" fill="#F9D100"/>
<path d="M102.157 13.7397C102.019 13.9988 101.881 14.2492 101.751 14.5083C101.095 15.7344 100.585 17.0211 100.318 18.3854C100.188 19.033 100.058 19.6807 100.076 20.3542C100.11 21.2609 100.102 22.1676 100.076 23.0743C100.058 23.8773 100.214 24.6545 100.335 25.4403C100.49 26.4678 100.784 27.4609 101.026 28.4625C101.302 29.5765 101.691 30.6558 102.14 31.7007C102.563 32.6764 103.029 33.6349 103.495 34.5934C103.996 35.6296 104.644 36.5709 105.3 37.5121C105.956 38.4533 106.794 39.2477 107.631 40.0249C108.34 40.6725 109.125 41.2252 109.972 41.6742C110.801 42.1059 111.681 42.4168 112.588 42.624C113.072 42.7363 113.59 42.6845 114.082 42.8226C115.17 42.6154 116.31 42.6327 117.32 42.0628C117.588 41.9073 117.907 41.8296 118.201 41.7174C118.071 43.1421 117.545 44.4115 116.629 45.4909C115.42 46.9157 113.84 47.2611 112.07 46.9157C111.12 46.7343 110.248 46.3198 109.428 45.819C107.96 44.921 106.699 43.7725 105.559 42.4945C103.184 39.8176 101.397 36.7695 99.9808 33.4968C99.005 31.243 98.2538 28.9116 97.7788 26.5024C97.4421 24.8272 97.2348 23.1347 97.278 21.425C97.3125 19.9829 97.4852 18.5581 98.012 17.1938C98.3401 16.3389 98.7805 15.5531 99.4627 14.9228C100.205 14.1974 101.095 13.757 102.157 13.7397Z" fill="#E0A639"/>
<path d="M112.104 38.9715C111.163 38.7988 110.369 38.3325 109.635 37.7367C109.35 37.5035 109.022 37.2963 108.78 37.02C107.942 36.0615 107.165 35.0512 106.518 33.9459C105.827 32.7715 105.309 31.5194 104.851 30.2414C104.583 29.4902 104.419 28.713 104.247 27.9359C103.987 26.8047 104.057 25.6562 104.108 24.5164C104.143 23.6615 104.454 22.8498 104.998 22.1676C105.136 21.9949 105.283 21.8481 105.525 21.8481C105.801 22.0468 106.12 22.2108 106.362 22.4526C106.949 23.0657 107.502 23.7133 108.063 24.3523C108.081 24.3696 108.089 24.4041 108.098 24.4214C108.469 24.974 108.875 25.5008 109.194 26.0793C109.713 27.0378 110.222 28.0049 110.654 29.0066C111.016 29.8615 111.31 30.7509 111.535 31.6489C111.811 32.7197 112.122 33.7991 112.104 34.9303C112.104 35.0857 112.122 35.2498 112.165 35.4052C112.338 35.9837 112.329 36.5882 112.225 37.1495C112.096 37.7626 112.104 38.3584 112.104 38.9715Z" fill="#8C48E2"/>
<path d="M112.104 38.9711C112.113 38.358 112.096 37.7622 112.217 37.1491C112.32 36.5878 112.329 35.9834 112.156 35.4048C112.113 35.258 112.096 35.094 112.096 34.9299C112.113 33.7987 111.802 32.7193 111.526 31.6486C111.293 30.7505 111.008 29.8611 110.645 29.0063C110.222 28.0046 109.712 27.0375 109.186 26.079C108.866 25.5004 108.46 24.9737 108.089 24.421C108.072 24.3951 108.072 24.3692 108.054 24.352C107.493 23.713 106.941 23.0653 106.353 22.4522C106.12 22.2105 105.801 22.0464 105.516 21.8478C105.732 21.4937 106.086 21.4074 106.466 21.3729C107.295 21.3038 108.037 21.5369 108.737 21.96C109.98 22.7286 110.956 23.7648 111.793 24.9478C112.959 26.5884 113.84 28.3673 114.436 30.2842C114.712 31.165 114.911 32.0803 115.101 32.987C115.204 33.5051 115.308 34.0491 115.256 34.5672C115.161 35.5862 115.161 36.631 114.643 37.5809C114.142 38.5048 113.391 38.997 112.329 38.9884C112.26 38.9797 112.182 38.9797 112.104 38.9711Z" fill="#560A79"/>
<path d="M109.704 21.1746C109.108 21.0192 108.702 20.6652 108.296 20.3284C107.372 19.5599 106.327 18.9813 105.3 18.3769C104.816 18.0919 104.359 17.7811 103.996 17.3493C103.858 17.1939 103.737 17.0039 103.668 16.8139C103.461 16.244 103.849 15.6568 104.454 15.6137C105.067 15.5705 105.645 15.6482 106.224 15.9332C107.321 16.4858 108.193 17.2716 108.927 18.2301C109.22 18.61 109.548 18.9554 109.816 19.344C109.98 19.5771 110.101 19.8535 110.196 20.1212C110.395 20.6911 110.317 20.8379 109.704 21.1746Z" fill="#40005E"/>
<path d="M110.334 22.0726C110.326 21.7531 110.49 21.5545 110.74 21.4336C110.973 21.3213 111.207 21.3731 111.388 21.5545C111.535 21.7013 111.707 21.8394 111.82 22.0121C111.897 22.133 111.932 22.3144 111.906 22.4525C111.794 23.1001 111.362 23.2728 110.835 22.8843C110.568 22.6857 110.291 22.4612 110.334 22.0726Z" fill="#E9CF54"/>
</svg>
