<svg width="145" height="81" viewBox="0 0 145 81" fill="none" xmlns="http://www.w3.org/2000/svg">
    <path
        d="M26.9533 40.1162C25.8027 39.4115 25.0599 38.3918 24.6456 37.1855C23.7986 34.7498 23.284 32.247 23.3265 29.6726C23.4604 21.3968 26.5656 14.216 32.2247 7.99925C33.1669 6.96299 34.2056 6.01267 35.3827 5.19557C36.1694 4.6494 37.0135 4.23023 37.9679 4.02306C38.0642 4.00039 38.1704 4.02049 38.2743 4.01958C38.4633 4.28919 38.6393 4.57248 38.8458 4.83421C40.1385 6.4483 40.93 8.2712 41.3494 10.2435C41.6285 11.5497 41.8075 12.8676 41.8085 14.2071C41.8132 15.3764 41.8568 16.5409 41.6498 17.7012C41.4823 18.6343 41.3202 19.5682 41.2338 20.5076C41.1466 21.5244 40.8271 22.4879 40.5252 23.4435C40.1577 24.6174 39.6373 25.7543 39.1704 26.8988C39.1376 26.9717 39.0161 27.0167 38.9367 27.0728C38.9971 26.0884 39.0629 25.1048 39.1226 24.1254C39.1117 23.8705 39.1062 23.6164 39.0945 23.3665C39.0912 22.9523 39.1268 22.5333 39.0791 22.1233C38.9829 21.2358 38.9655 20.3336 38.6515 19.4776C38.5994 19.2065 38.548 18.9304 38.5012 18.6601C38.3706 17.7109 37.9939 16.8358 37.5363 15.9906C37.2027 15.3749 36.772 14.8231 36.1535 14.4311C35.6244 14.0981 35.0611 13.8845 34.4078 14.0875C33.7712 14.0704 33.2816 14.3842 32.8493 14.7527C32.4178 15.1161 32.0115 15.5296 31.6572 15.9607C30.6761 17.1466 29.9717 18.4904 29.3751 19.8803C29.121 20.4807 28.9342 21.106 28.7161 21.7218C28.4727 22.1788 28.2804 22.6586 28.2678 23.1791C27.6653 24.8267 27.4625 26.5409 27.3124 28.2677C27.2118 28.719 27.0945 29.1731 27.2156 29.64C27.0043 31.2651 27.0994 32.8867 27.3261 34.5061C27.3576 34.7329 27.3944 34.9604 27.4717 35.173C27.6409 35.6104 28.0422 35.7392 28.4609 35.4981C28.6289 35.3976 28.7748 35.263 28.9535 35.1278C29.2234 35.295 29.4696 35.4744 29.7379 35.6156C30.507 36.0236 31.3012 36.3007 32.1936 36.0331C32.2609 36.0581 32.3228 36.0823 32.3901 36.1072C32.0971 36.6763 31.5715 37.0471 31.0766 37.4326C29.9584 38.2942 28.7561 39.025 27.4849 39.6686C27.2832 39.7747 27.129 39.965 26.9533 40.1162Z"
        fill="#463F54" />
    <path
        d="M38.9405 27.0841C39.0199 27.028 39.1468 26.9838 39.1742 26.9101C39.6418 25.7606 40.1615 24.6287 40.529 23.4548C40.8309 22.4992 41.1451 21.5349 41.2376 20.5189C41.3187 19.5788 41.4869 18.6406 41.6536 17.7125C41.8606 16.5522 41.817 15.3877 41.8123 14.2184C41.8067 12.8731 41.6323 11.561 41.3532 10.2548C40.9284 8.28176 40.1423 6.45961 38.8496 4.84551C38.6423 4.58885 38.4663 4.30556 38.2781 4.03089C39.3058 3.77197 40.1994 4.11475 40.9885 4.68071C41.5061 5.05339 41.9596 5.52565 42.3627 6.00634C43.4527 7.29718 44.2026 8.77812 44.8128 10.317C45.7093 12.5683 46.1657 14.913 46.3975 17.2984C46.6485 19.8831 46.6878 22.4587 46.2051 25.0178C45.3357 29.6428 43.3586 33.7863 40.1691 37.3819C39.4132 38.2324 38.5807 39.01 37.6443 39.6799C36.0204 40.8531 34.2152 41.6336 32.1511 41.7003C30.2459 41.7635 28.4643 41.3321 26.9632 40.1232C27.1389 39.972 27.2878 39.7809 27.4948 39.6756C28.7652 39.0371 29.9737 38.3019 31.0865 37.4396C31.5807 37.0592 32.107 36.6832 32.4 36.1142C34.1978 35.6016 35.4709 34.4722 36.4764 33.0156C37.5375 31.4789 38.2684 29.8131 38.6699 28.013C38.7338 27.6962 38.8452 27.3913 38.9405 27.0841Z"
        fill="#393343" />
    <path
        d="M38.9401 27.0836C38.8448 27.3908 38.7327 27.7008 38.6641 28.0118C38.2627 29.8118 37.5318 31.4777 36.4706 33.0143C35.4652 34.4709 34.1975 35.6011 32.3943 36.113C32.327 36.088 32.2651 36.0638 32.1978 36.0388C32.1984 35.7804 32.2326 35.5163 32.1942 35.2627C31.891 33.4256 31.6375 31.5853 31.5445 29.7312C31.4779 28.5015 31.3364 27.2612 31.5976 26.031C31.8252 25.8975 32.0437 25.7524 32.2752 25.6298C34.3935 24.4744 36.7011 24.0592 39.1313 24.137C39.061 25.1148 39.0006 26.0992 38.9401 27.0836Z"
        fill="#A32EDA" />
    <path
        d="M31.5935 26.0254C31.3377 27.2564 31.4799 28.4916 31.5404 29.7257C31.6388 31.5804 31.887 33.4201 32.1902 35.2571C32.2339 35.5114 32.1944 35.7748 32.1938 36.0333C31.3014 36.3009 30.5064 36.0288 29.7381 35.6157C29.4697 35.4746 29.2235 35.2952 28.9536 35.128C28.7749 35.2632 28.629 35.3978 28.461 35.4983C28.047 35.7452 27.6403 35.6157 27.4719 35.1731C27.3892 34.9598 27.3523 34.7323 27.3262 34.5063C27.1049 32.8876 27.0044 31.2652 27.2157 29.6402C27.3157 29.556 27.441 29.4857 27.5113 29.3818C28.0968 28.5022 28.9048 27.8142 29.722 27.1379C30.2758 26.6883 30.8524 26.2315 31.5935 26.0254Z"
        fill="#852FC9" />
    <path
        d="M38.6565 19.478C38.9705 20.334 38.9879 21.2363 39.0841 22.1237C39.1318 22.5338 39.0962 22.9528 39.0995 23.367C38.2177 23.4188 37.3358 23.4345 36.4593 23.5234C34.7056 23.7061 33.108 24.34 31.5404 25.066C31.6073 24.5842 31.7568 24.0984 31.7182 23.6276C31.6442 22.7381 31.7162 21.8949 32.1115 21.0817C32.1992 20.8975 32.1632 20.7011 31.9896 20.5475C33.3326 19.8623 34.7391 19.4084 36.292 19.3267C37.0959 19.2845 37.8655 19.4341 38.6565 19.478Z"
        fill="#A32EDA" />
    <path
        d="M34.4121 14.0934C35.06 13.8897 35.6234 14.1033 36.1578 14.437C36.7771 14.8239 37.2078 15.3757 37.5407 15.9965C37.9929 16.8409 38.3695 17.7161 38.5055 18.666C37.2444 18.5146 35.9834 18.4718 34.7426 18.768C33.9495 18.9565 33.1778 19.2204 32.3954 19.4465C32.5014 19.1408 32.6334 18.8439 32.7127 18.5345C32.9832 17.4607 33.4341 16.4588 33.9179 15.4563C34.1193 15.0244 34.3964 14.5979 34.4121 14.0934Z"
        fill="#A32EDA" />
    <path
        d="M31.9844 20.5471C32.158 20.7007 32.194 20.8971 32.1063 21.0813C31.711 21.8945 31.6443 22.7384 31.713 23.6272C31.7508 24.103 31.6014 24.5888 31.5352 25.0656C30.0877 25.9378 28.6959 26.8747 27.5604 28.1061C27.4955 28.1746 27.3962 28.2175 27.3114 28.2728C27.4615 26.5461 27.6643 24.8319 28.2669 23.1842C29.2795 22.2251 30.3862 21.367 31.6039 20.6436C31.7116 20.5811 31.8591 20.5812 31.9844 20.5471Z"
        fill="#852FC9" />
    <path
        d="M34.4123 14.0936C34.3966 14.5982 34.1202 15.0196 33.9127 15.4558C33.4296 16.4532 32.978 17.4602 32.7074 18.5339C32.6282 18.8434 32.4954 19.1454 32.3902 19.446C31.3199 19.9524 30.3246 20.5778 29.3836 21.2781C29.1682 21.4392 28.9398 21.5777 28.7152 21.7272C28.9333 21.1114 29.1201 20.4861 29.3742 19.8857C29.9654 18.4951 30.6752 17.152 31.6563 15.9661C32.0114 15.5299 32.4169 15.1215 32.8484 14.7581C33.2906 14.3962 33.781 14.0773 34.4123 14.0936Z"
        fill="#852FC9" />
    <path
        d="M27.3162 28.2791C27.401 28.2238 27.5003 28.1808 27.5652 28.1124C28.7014 26.8759 30.0977 25.9448 31.5399 25.0719C33.1022 24.3451 34.7051 23.7119 36.4588 23.5292C37.3353 23.4404 38.218 23.4196 39.0991 23.3728C39.1099 23.6277 39.1155 23.8819 39.1264 24.1368C36.7015 24.0597 34.3938 24.4749 32.2702 25.6295C32.0379 25.7572 31.8149 25.8965 31.5926 26.0308C30.8576 26.2326 30.2809 26.6893 29.7257 27.1491C28.9146 27.8211 28.1012 28.5083 27.5149 29.3929C27.4447 29.4968 27.3194 29.5671 27.2193 29.6513C27.0929 29.1837 27.2103 28.7296 27.3162 28.2791Z"
        fill="#45017A" />
    <path
        d="M28.7208 21.728C28.9454 21.5785 29.1738 21.44 29.3891 21.2789C30.3301 20.5786 31.3201 19.9524 32.3958 19.4468C33.1789 19.2156 33.9498 18.9568 34.7429 18.7683C35.9838 18.4722 37.2455 18.5099 38.5058 18.6663C38.558 18.9374 38.6094 19.2135 38.6615 19.4845C37.8713 19.4355 37.1016 19.286 36.297 19.3332C34.7442 19.4149 33.3376 19.8688 31.9946 20.554C31.8639 20.5873 31.7218 20.588 31.6133 20.6555C30.3957 21.379 29.2951 22.2327 28.2763 23.1962C28.2851 22.6648 28.4766 22.1901 28.7208 21.728Z"
        fill="#45017A" />
    <path
        d="M119.471 40.4631C120.621 39.7585 121.364 38.7388 121.779 37.5325C122.626 35.0968 123.14 32.594 123.098 30.0196C122.963 21.7387 119.863 14.5572 114.204 8.34042C113.262 7.30417 112.223 6.35385 111.046 5.53674C110.259 4.99057 109.415 4.5714 108.461 4.36423C108.365 4.34156 108.258 4.36167 108.154 4.36076C107.965 4.63036 107.79 4.91365 107.583 5.17538C106.29 6.78947 105.499 8.61238 105.079 10.5847C104.8 11.8908 104.621 13.2088 104.62 14.5483C104.616 15.7176 104.572 16.8821 104.779 18.0424C104.946 18.9755 105.109 19.9094 105.195 20.8487C105.282 21.8656 105.602 22.829 105.904 23.7846C106.271 24.9586 106.791 26.0955 107.258 27.2399C107.291 27.3129 107.413 27.3579 107.492 27.4139C107.432 26.4296 107.366 25.4459 107.306 24.4666C107.317 24.2117 107.323 23.9575 107.334 23.7077C107.338 23.2935 107.302 22.8745 107.35 22.4644C107.446 21.577 107.463 20.6747 107.777 19.8187C107.829 19.5477 107.881 19.2716 107.933 19.0005C108.064 18.0513 108.44 17.1762 108.898 16.331C109.231 15.7153 109.662 15.1635 110.281 14.7715C110.81 14.4386 111.373 14.2249 112.026 14.4279C112.663 14.4108 113.153 14.7247 113.585 15.0931C114.016 15.4565 114.423 15.87 114.777 16.3011C115.758 17.4871 116.462 18.8308 117.059 20.2208C117.313 20.8211 117.5 21.4464 117.718 22.0622C117.961 22.5192 118.154 22.999 118.166 23.5195C118.769 25.1672 118.972 26.8814 119.122 28.6081C119.222 29.0594 119.34 29.5135 119.219 29.9804C119.43 31.6055 119.335 33.2271 119.108 34.8465C119.077 35.0733 119.04 35.3008 118.962 35.5134C118.793 35.9509 118.392 36.0797 117.973 35.8386C117.805 35.7381 117.659 35.6034 117.481 35.4682C117.211 35.6355 116.965 35.8148 116.696 35.956C115.927 36.364 115.133 36.6411 114.24 36.3735C114.173 36.3985 114.111 36.4227 114.044 36.4477C114.337 37.0167 114.863 37.3875 115.357 37.773C116.476 38.6346 117.678 39.3654 118.949 40.009C119.141 40.1217 119.295 40.312 119.471 40.4631Z"
        fill="#463F54" />
    <path
        d="M107.483 27.4306C107.404 27.3745 107.277 27.3303 107.25 27.2566C106.782 26.1071 106.262 24.9752 105.895 23.8013C105.593 22.8457 105.279 21.8814 105.186 20.8654C105.105 19.9253 104.937 18.9871 104.77 18.059C104.563 16.8987 104.607 15.7342 104.612 14.5649C104.617 13.2196 104.792 11.9075 105.071 10.6013C105.496 8.62825 106.282 6.8061 107.574 5.19201C107.782 4.93535 107.958 4.65205 108.146 4.37739C107.118 4.11847 106.225 4.46124 105.435 5.0272C104.918 5.39988 104.464 5.87214 104.061 6.35283C102.971 7.64367 102.221 9.12461 101.611 10.6635C100.715 12.9148 100.258 15.2595 100.026 17.6449C99.7755 20.2296 99.7362 22.8052 100.219 25.3643C101.088 29.9893 103.065 34.1328 106.255 37.7284C107.011 38.5788 107.843 39.3565 108.78 40.0264C110.404 41.1996 112.209 41.9801 114.273 42.0468C116.178 42.11 117.96 41.6786 119.461 40.4697C119.285 40.3185 119.136 40.1274 118.929 40.0221C117.659 39.3836 116.45 38.6484 115.337 37.7861C114.843 37.4057 114.317 37.0297 114.024 36.4607C112.221 35.9488 110.953 34.8187 109.948 33.3621C108.886 31.8254 108.156 30.1596 107.754 28.3595C107.69 28.0427 107.579 27.7378 107.483 27.4306Z"
        fill="#393343" />
    <path
        d="M107.484 27.43C107.579 27.7373 107.691 28.0473 107.76 28.3583C108.161 30.1583 108.892 31.8241 109.953 33.3608C110.958 34.8174 112.226 35.9475 114.029 36.4595C114.097 36.4345 114.159 36.4103 114.226 36.3853C114.225 36.1268 114.191 35.8627 114.229 35.6091C114.533 33.7721 114.786 31.9317 114.879 30.0777C114.946 28.8479 115.087 27.6077 114.826 26.3774C114.598 26.2439 114.38 26.0988 114.149 25.9762C112.03 24.8208 109.723 24.4057 107.292 24.4835C107.363 25.4613 107.423 26.4457 107.484 27.43Z"
        fill="#A32EDA" />
    <path
        d="M114.83 26.3717C115.086 27.6026 114.944 28.8379 114.883 30.0719C114.785 31.9267 114.537 33.7663 114.233 35.6033C114.19 35.8577 114.229 36.121 114.23 36.3795C115.122 36.6471 115.917 36.3751 116.685 35.962C116.954 35.8209 117.2 35.6415 117.47 35.4743C117.649 35.6094 117.794 35.7441 117.962 35.8446C118.377 36.0915 118.783 35.9619 118.952 35.5194C119.034 35.3061 119.071 35.0786 119.097 34.8525C119.319 33.2339 119.419 31.6115 119.208 29.9864C119.108 29.9022 118.982 29.8319 118.912 29.728C118.327 28.8485 117.519 28.1605 116.701 27.4842C116.148 27.0345 115.571 26.5778 114.83 26.3717Z"
        fill="#852FC9" />
    <path
        d="M107.767 19.825C107.453 20.681 107.435 21.5832 107.339 22.4706C107.291 22.8807 107.327 23.2997 107.324 23.7139C108.205 23.7658 109.087 23.7815 109.964 23.8703C111.718 24.053 113.315 24.6869 114.883 25.4129C114.816 24.9311 114.666 24.4453 114.705 23.9745C114.779 23.085 114.707 22.2419 114.312 21.4286C114.224 21.2445 114.26 21.0481 114.434 20.8944C113.091 20.2092 111.684 19.7553 110.131 19.6736C109.327 19.6315 108.558 19.781 107.767 19.825Z"
        fill="#A32EDA" />
    <path
        d="M112.012 14.4399C111.364 14.2362 110.8 14.4499 110.266 14.7835C109.647 15.1705 109.216 15.7223 108.883 16.3431C108.431 17.1875 108.054 18.0626 107.918 19.0125C109.179 18.8612 110.44 18.8184 111.681 19.1146C112.474 19.3031 113.246 19.5669 114.028 19.7931C113.922 19.4874 113.79 19.1905 113.711 18.881C113.441 17.8072 112.99 16.8053 112.506 15.8029C112.304 15.371 112.027 14.9445 112.012 14.4399Z"
        fill="#A32EDA" />
    <path
        d="M114.439 20.8938C114.266 21.0474 114.23 21.2438 114.317 21.428C114.713 22.2412 114.779 23.0851 114.711 23.9738C114.673 24.4497 114.822 24.9355 114.888 25.4123C116.336 26.2845 117.728 27.2214 118.863 28.4528C118.928 28.5213 119.027 28.5642 119.112 28.6195C118.962 26.8927 118.759 25.1786 118.157 23.5309C117.144 22.5717 116.037 21.7137 114.82 20.9902C114.712 20.9278 114.565 20.9279 114.439 20.8938Z"
        fill="#852FC9" />
    <path
        d="M112.012 14.44C112.027 14.9445 112.304 15.3659 112.511 15.8022C112.994 16.7996 113.446 17.8065 113.717 18.8803C113.796 19.1898 113.929 19.4917 114.034 19.7924C115.104 20.2987 116.099 20.9242 117.04 21.6245C117.256 21.7855 117.484 21.9241 117.709 22.0735C117.491 21.4578 117.304 20.8325 117.05 20.2321C116.459 18.8414 115.749 17.4984 114.768 16.3125C114.407 15.877 114.007 15.4679 113.576 15.1045C113.133 14.7426 112.643 14.4237 112.012 14.44Z"
        fill="#852FC9" />
    <path
        d="M119.107 28.6255C119.022 28.5702 118.923 28.5273 118.858 28.4588C117.722 27.2223 116.326 26.2912 114.883 25.4183C113.321 24.6915 111.718 24.0584 109.965 23.8756C109.088 23.7868 108.205 23.766 107.324 23.7192C107.313 23.9741 107.308 24.2283 107.297 24.4832C109.722 24.4062 112.03 24.8213 114.153 25.976C114.385 26.1036 114.608 26.2429 114.831 26.3772C115.566 26.579 116.142 27.0357 116.698 27.4955C117.509 28.1675 118.322 28.8548 118.908 29.7394C118.979 29.8433 119.104 29.9136 119.204 29.9978C119.33 29.5301 119.213 29.076 119.107 28.6255Z"
        fill="#45017A" />
    <path
        d="M117.703 22.0741C117.479 21.9247 117.25 21.7861 117.035 21.6251C116.094 20.9248 115.104 20.2986 114.028 19.793C113.245 19.5618 112.474 19.3029 111.681 19.1145C110.44 18.8183 109.179 18.856 107.918 19.0124C107.866 19.2835 107.815 19.5596 107.763 19.8307C108.553 19.7817 109.322 19.6321 110.127 19.6794C111.68 19.7611 113.086 20.2149 114.429 20.9001C114.56 20.9335 114.702 20.9342 114.811 21.0017C116.028 21.7252 117.129 22.5789 118.148 23.5423C118.139 23.0109 117.947 22.5362 117.703 22.0741Z"
        fill="#45017A" />
    <path
        d="M70.0782 13.7707C70.525 13.7494 70.9718 13.7139 71.4187 13.7139C72.5265 13.7174 73.6381 13.7103 74.746 13.7601C77.8886 13.9057 80.9869 14.3391 84.0261 15.1384C89.9864 16.7086 95.3226 19.4299 100.168 23.0961C102.934 25.1885 105.29 27.6539 107.446 30.3148C111.427 35.2279 114.444 40.649 116.678 46.4858C117.495 48.6173 118.17 50.7915 118.588 53.0296C118.939 54.9124 119.145 56.8059 119.057 58.7207C118.95 61.0476 118.518 63.3105 117.561 65.474C116.605 67.6304 115.164 69.4244 113.322 70.9342C110.53 73.2256 107.376 74.9379 103.99 76.2701C101.512 77.2435 98.9269 77.8581 96.3271 78.4301C96.1461 78.4691 95.9541 78.462 95.7658 78.4798C95.6254 78.4762 95.4888 78.4762 95.3485 78.4727C95.2008 78.4691 95.0752 78.5118 94.9866 78.6325L94.9533 78.6077C94.5508 78.6148 94.1409 78.565 93.7532 78.6396C93.4023 78.7071 93.0515 78.7072 92.7044 78.7427C91.9104 78.8279 91.1128 78.9025 90.3114 78.8812C90.2634 78.8812 90.2154 78.8848 90.1711 78.9025C89.8572 79.034 89.5211 79.002 89.1925 79.0056C88.6976 79.0091 88.2028 79.0056 87.7042 79.0127C87.5159 79.0162 87.3276 79.0375 87.1429 79.0553C86.8881 79.0802 86.6296 79.137 86.3748 79.137C83.21 79.1441 80.0489 79.1406 76.8841 79.1406C76.7438 79.1406 76.5924 79.1654 76.4595 79.1299C75.695 78.9239 74.9121 79.0411 74.1366 79.0056C73.9261 78.9949 73.6972 79.034 73.5052 78.9736C73.11 78.8528 72.7112 78.8706 72.3124 78.8706C71.4187 78.867 70.5361 78.6574 69.6387 78.7214C69.5944 78.7249 69.5427 78.7143 69.4984 78.7036C68.8152 78.5189 68.0988 78.597 67.4045 78.4727C66.8063 78.3661 66.1896 78.3768 65.584 78.2986C64.7494 78.192 63.9185 78.0464 63.0839 77.9185C62.3896 77.8155 61.688 77.7338 60.9974 77.6094C60.1 77.446 59.2027 77.2719 58.3127 77.0659C56.7358 76.7035 55.1774 76.2701 53.6338 75.7905C52.6035 75.4708 51.5769 75.1333 50.5651 74.7639C49.5754 74.4015 48.5931 74.0143 47.6366 73.5809C46.3367 72.9911 45.059 72.3588 43.8256 71.6376C42.2266 70.7033 40.7863 69.5878 39.42 68.3729C38.7109 67.7405 38.1164 67.0052 37.5218 66.2769C36.27 64.7529 35.3431 63.0548 34.7116 61.211C34.4752 60.5254 34.3275 59.8184 34.1983 59.1008C34.0542 58.3193 33.9398 57.5413 33.9545 56.7455C33.9693 55.8609 33.9582 54.9728 33.9619 54.0882C33.9619 53.907 33.9619 53.7223 33.9878 53.5447C34.0653 52.9869 34.1503 52.4292 34.2463 51.875C34.3607 51.232 34.4641 50.5819 34.6192 49.946C34.8667 48.9122 35.1621 47.8891 35.476 46.8659C35.8194 45.7327 36.2515 44.635 36.6836 43.5337C36.9975 42.7308 37.3815 41.9493 37.7582 41.1677C38.1939 40.2618 38.6186 39.3488 39.1098 38.4749C39.7043 37.4198 40.3469 36.3896 41.0005 35.3665C41.4437 34.6737 41.9201 33.9952 42.4186 33.338C43.1202 32.4037 43.844 31.4871 44.638 30.6167C45.2289 29.9702 45.7606 29.2774 46.4069 28.6806C47.6588 27.5154 48.8257 26.2614 50.1662 25.1778C50.8125 24.6556 51.4366 24.1014 52.1087 23.6076C53.1168 22.8651 54.1139 22.1049 55.1553 21.4086C56.2742 20.659 57.4375 19.9663 58.586 19.2558C59.993 18.3854 61.4775 17.6394 62.9583 16.8934C63.7523 16.4955 64.5832 16.1651 65.3808 15.7814C66.7103 15.142 68.0877 14.6162 69.4652 14.0869C69.6793 14.0123 69.8751 13.8808 70.0782 13.7707ZM102.106 65.5238C102.417 65.2822 102.756 65.0655 103.03 64.7884C104.614 63.1755 105.448 61.2394 105.633 59.044C105.796 57.1221 105.493 55.2463 104.876 53.4168C104.027 50.8981 102.797 48.5569 101.349 46.3153C99.6987 43.7575 97.7008 41.4697 95.4371 39.395C94.4622 38.4998 93.4245 37.6827 92.3129 36.9509C89.595 35.1569 86.6813 33.7358 83.5534 32.7305C81.3377 32.02 79.0814 31.4693 76.7512 31.242C75.5916 31.0359 74.4136 30.9578 73.2393 30.9329C71.7547 30.9009 70.2739 30.8796 68.7857 31.0075C67.6815 31.1034 66.5773 31.1851 65.4879 31.3521C63.6489 31.6292 61.8394 32.052 60.0668 32.6097C57.504 33.4197 55.063 34.4961 52.7549 35.8389C51.2778 36.6986 49.856 37.633 48.5783 38.7484C46.9682 40.1517 45.4578 41.6509 44.1247 43.3099C41.9496 46.0169 40.1659 48.9477 38.8808 52.145C38.0869 54.1237 37.5699 56.1593 37.6289 58.3086C37.6659 59.5697 37.8837 60.7847 38.3675 61.957C38.8328 63.0903 39.516 64.0992 40.4244 64.9411C40.9488 65.4278 41.5434 65.847 42.1342 66.2556C44.1099 67.6091 46.3035 68.5505 48.582 69.3143C49.7379 69.7015 50.927 69.9857 52.1271 70.2415C53.9662 70.6323 55.8237 70.9342 57.6997 71.119C58.2868 71.1758 58.8703 71.2256 59.4575 71.2824C60.2773 71.357 61.0971 71.4494 61.9169 71.5026C62.9989 71.5737 64.081 71.6163 65.163 71.6732C65.211 71.6767 65.259 71.6767 65.3033 71.6803C66.3595 71.7549 67.4156 71.8721 68.4718 71.9005C71.4445 71.9787 74.4136 71.9645 77.3827 71.7691C77.4307 71.7655 77.475 71.762 77.523 71.7584C78.6493 71.6803 79.7756 71.595 80.902 71.5204C81.7476 71.4636 82.5933 71.4174 83.439 71.357C83.956 71.3215 84.473 71.2824 84.9863 71.2184C85.8726 71.1083 86.7552 70.9627 87.6415 70.8596C89.0928 70.6891 90.5145 70.3801 91.94 70.071C93.9489 69.6376 95.8729 68.9662 97.7415 68.142C99.1595 67.5167 100.493 66.7423 101.756 65.8613C101.892 65.7689 101.992 65.6339 102.106 65.5238ZM89.2811 25.3235C89.5581 25.3235 89.7242 25.3128 89.8867 25.3235C90.4517 25.3626 90.954 25.1814 91.434 24.9256C91.7516 24.7586 91.999 24.5171 92.1837 24.2222C92.6564 23.4584 92.5382 22.6946 92.1172 21.9628C91.9473 21.6715 91.6999 21.4157 91.4673 21.1635C90.869 20.5027 90.1157 20.0373 89.3106 19.6537C88.8675 19.4441 88.417 19.2416 87.959 19.0711C87.1909 18.7833 86.4265 18.4849 85.6362 18.2646C84.5764 17.9698 83.4981 17.7424 82.4271 17.4937C81.3082 17.238 80.1782 17.039 79.0223 17.007C78.93 17.0035 78.8266 17.0142 78.7416 16.9822C78.376 16.8436 77.9994 16.8756 77.6227 16.8756C77.0577 16.8721 76.489 16.8543 75.924 16.8792C75.2925 16.9076 74.6573 16.9573 74.0332 17.0426C73.4313 17.1243 72.8367 17.2664 72.2533 17.4298C71.4741 17.6501 70.754 17.9698 70.2111 18.5844C69.7163 19.1492 69.7052 19.6856 70.0117 20.215C70.2296 20.588 70.5619 20.9148 71.0088 21.0463C71.7252 21.263 72.449 21.4726 73.1802 21.6253C74.096 21.8136 75.0377 21.8953 75.9498 22.1014C77.2276 22.3891 78.5127 22.6627 79.783 22.9824C81.1716 23.3305 82.5453 23.7249 83.9117 24.1405C84.7647 24.3963 85.6141 24.6698 86.4782 24.8759C87.4347 25.0997 88.3837 25.4123 89.2811 25.3235ZM98.1514 25.5402C98.1255 25.3413 98.1107 25.1352 98.0664 24.9398C97.9261 24.2968 97.4866 23.8741 96.9216 23.5437C96.0021 23.0072 95.0494 22.9753 94.0929 23.3945C93.5131 23.6467 93.2398 24.1512 93.1734 24.7515C93.1217 25.2347 93.3359 25.6397 93.6535 25.9878C94.1483 26.5313 94.7687 26.8333 95.5183 26.9932C96.1572 27.1282 96.7185 27.0678 97.2946 26.8227C97.8855 26.5704 98.192 26.1725 98.1514 25.5402Z"
        fill="#FEA623" />
    <path
        d="M89.2811 25.3235C89.5581 25.3235 89.7242 25.3128 89.8867 25.3235C90.4517 25.3626 90.954 25.1814 91.434 24.9256C91.7516 24.7586 91.999 24.5171 92.1837 24.2222C92.6564 23.4584 92.5382 22.6946 92.1172 21.9628C91.9473 21.6715 91.6999 21.4157 91.4673 21.1635C90.869 20.5027 90.1157 20.0373 89.3106 19.6537C88.8675 19.4441 88.417 19.2416 87.959 19.0711C87.1909 18.7833 86.4265 18.4849 85.6362 18.2646C84.5764 17.9698 83.4981 17.7424 82.4271 17.4937C81.3082 17.238 80.1782 17.039 79.0223 17.007C78.93 17.0035 78.8266 17.0142 78.7416 16.9822C78.376 16.8436 77.9994 16.8756 77.6227 16.8756C77.0577 16.8721 76.489 16.8543 75.924 16.8792C75.2925 16.9076 74.6573 16.9573 74.0332 17.0426C73.4313 17.1243 72.8367 17.2664 72.2533 17.4298C71.4741 17.6501 70.754 17.9698 70.2111 18.5844C69.7163 19.1492 69.7052 19.6856 70.0117 20.215C70.2296 20.588 70.5619 20.9148 71.0088 21.0463C71.7252 21.263 72.449 21.4726 73.1802 21.6253C74.096 21.8136 75.0377 21.8953 75.9498 22.1014C77.2276 22.3891 78.5127 22.6627 79.783 22.9824C81.1716 23.3305 82.5453 23.7249 83.9117 24.1405C84.7647 24.3963 85.6141 24.6698 86.4782 24.8759C87.4347 25.0997 88.3837 25.4123 89.2811 25.3235Z"
        fill="#FEA623" />
    <path
        d="M98.1514 25.5402C98.1255 25.3413 98.1107 25.1352 98.0664 24.9398C97.9261 24.2968 97.4866 23.8741 96.9216 23.5437C96.0021 23.0072 95.0494 22.9753 94.0929 23.3945C93.5131 23.6467 93.2398 24.1512 93.1734 24.7515C93.1217 25.2347 93.3359 25.6397 93.6535 25.9878C94.1483 26.5313 94.7687 26.8333 95.5183 26.9932C96.1572 27.1282 96.7185 27.0678 97.2946 26.8227C97.8855 26.5704 98.192 26.1725 98.1514 25.5402Z"
        fill="#FEA623" />
    <path
        d="M70.7262 13.7139C70.5193 13.824 70.3271 13.9555 70.1091 14.0407C68.7306 14.5701 67.3521 15.0959 66.0216 15.7354C65.2197 16.1191 64.3882 16.4495 63.5973 16.8475C62.1153 17.5935 60.6297 18.3396 59.2216 19.2101C58.0722 19.9206 56.9081 20.6099 55.7883 21.3631C54.7461 22.0559 53.7483 22.8162 52.7394 23.5552C52.0668 24.049 51.4422 24.6033 50.7955 25.1255C49.4539 26.2091 48.2898 27.4633 47.0333 28.6286C46.3902 29.229 45.8543 29.9183 45.263 30.5649C44.4685 31.4353 43.7441 32.352 43.0419 33.2864C42.543 33.9472 42.0663 34.6222 41.6228 35.315C40.9686 36.3382 40.3256 37.3686 39.7306 38.4237C39.2391 39.3013 38.8141 40.2144 38.378 41.1168C38.001 41.8984 37.6204 42.68 37.3025 43.483C36.8701 44.5843 36.4377 45.6822 36.094 46.8155C35.7836 47.8352 35.488 48.8584 35.2367 49.8958C35.0851 50.5318 34.978 51.1784 34.8634 51.825C34.7673 52.3792 34.6823 52.937 34.6047 53.4948C34.5788 53.6724 34.5825 53.8572 34.5788 54.0384C34.5751 54.923 34.5862 55.8112 34.5714 56.6959C34.5566 57.4917 34.6749 58.2662 34.8153 59.0514C34.9447 59.7655 35.0962 60.4761 35.329 61.1618C35.961 63.0057 36.8886 64.704 38.1415 66.2281C38.7402 66.9564 39.3315 67.6919 40.041 68.3243C41.4084 69.5393 42.8497 70.6585 44.45 71.5893C45.6843 72.307 46.9593 72.9429 48.2639 73.5327C49.2211 73.9662 50.2041 74.3534 51.1946 74.7158C52.2072 75.0889 53.2346 75.4228 54.2657 75.7426C55.8105 76.2222 57.3701 76.6556 58.9481 77.018C59.8388 77.2241 60.7368 77.3982 61.6349 77.5616C62.326 77.686 63.0282 77.7641 63.7229 77.8707C64.5582 77.9951 65.386 78.1407 66.2249 78.2509C66.831 78.329 67.4482 78.3184 68.0469 78.425C68.7417 78.5493 69.4586 78.4711 70.1423 78.6559C70.1867 78.6665 70.2347 78.6772 70.2828 78.6737C71.1808 78.6097 72.0641 78.8193 72.9584 78.8229C73.3576 78.8229 73.7567 78.8051 74.1521 78.9259C74.348 78.9863 74.5734 78.9472 74.7841 78.9579C75.5602 78.9934 76.34 78.8762 77.1087 79.0822C77.2417 79.1178 77.3896 79.0929 77.5337 79.0929C80.7009 79.0929 83.8644 79.0964 87.0316 79.0893C87.2866 79.0893 87.5453 79.0325 87.8003 79.0076C87.9888 78.9899 88.1735 78.9685 88.362 78.965C88.8572 78.9579 89.3525 78.9614 89.8514 78.9579C90.1803 78.9543 90.5129 78.9899 90.8307 78.8548C90.8714 78.8371 90.9231 78.8335 90.9712 78.8335C91.7731 78.8513 92.5677 78.7802 93.366 78.695C93.7134 78.6559 94.0644 78.6594 94.4155 78.5919C94.8036 78.5173 95.2138 78.5671 95.6166 78.56C95.3875 78.7518 95.0845 78.7376 94.8184 78.7802C92.8892 79.1 90.949 79.37 88.994 79.5228C86.71 79.7004 84.4298 79.8852 82.1496 80.0735C79.4185 80.3008 76.6874 80.4891 73.9452 80.4998C72.0086 80.5069 70.0758 80.4145 68.1393 80.3506C67.2893 80.3222 66.443 80.2547 65.5929 80.1907C63.8523 80.0664 62.1079 79.9385 60.3673 79.8035C59.0479 79.7004 57.7322 79.6045 56.4166 79.473C53.8813 79.2172 51.3609 78.8548 48.8663 78.3255C46.745 77.8778 44.6385 77.3733 42.5947 76.6557C39.0395 75.4122 35.743 73.7175 32.7753 71.4543C31.626 70.5768 30.5616 69.6104 29.6673 68.4842C28.2333 66.6864 27.3427 64.6471 26.8253 62.455C26.2672 60.0853 26.2155 57.6871 26.4594 55.2748C26.7735 52.1803 27.6383 49.2172 28.7544 46.311C30.5875 41.5396 32.9527 37.0346 35.9684 32.8494C37.3801 30.8882 38.9102 29.0123 40.5732 27.2395C43.478 24.1414 46.8743 21.6331 50.5848 19.5014C54.6537 17.1637 59.0073 15.5258 63.6342 14.5559C65.434 14.1793 67.256 13.927 69.0965 13.8133C69.6471 13.7743 70.1867 13.7458 70.7262 13.7139Z"
        fill="#FEA623" />
    <path
        d="M95.0261 78.3694C95.1148 78.2366 95.2405 78.1897 95.3884 78.1936C95.529 78.1975 95.6658 78.1975 95.8063 78.2014C95.5696 78.3694 95.2923 78.3382 95.0261 78.3694Z"
        fill="#E87903" />
    <path
        d="M77.6311 28.1689C80.0153 28.4237 82.3239 29.0407 84.591 29.8368C87.7913 30.9633 90.7724 32.5555 93.5533 34.5656C94.6906 35.3856 95.7524 36.3011 96.7499 37.3042C99.066 39.6288 101.106 42.1923 102.799 45.0583C104.28 47.57 105.538 50.1971 106.407 53.0153C107.038 55.0653 107.345 57.167 107.182 59.3204C106.993 61.7804 106.139 63.9537 104.518 65.7569C104.239 66.0674 103.891 66.3062 103.574 66.5809C103.222 66.561 102.92 66.7321 102.606 66.8555C101.662 67.2337 100.721 67.6198 99.765 67.974C99.0169 68.2487 98.2537 68.4875 97.4942 68.7264C96.6668 68.9851 95.8393 69.2637 94.9967 69.4707C93.7612 69.7772 92.5256 70.0996 91.2599 70.2708C90.5495 70.3663 89.8505 70.5972 89.1402 70.6689C88.1842 70.7684 87.2434 70.9992 86.2799 71.0072C86.1628 71.0072 86.0419 71.047 85.9247 71.0629C85.7131 71.0948 85.4978 71.1425 85.2862 71.1505C84.829 71.1704 84.368 71.1107 83.926 71.2938C83.106 71.258 82.2975 71.4092 81.4813 71.457C80.9524 71.4888 80.4196 71.461 79.8868 71.465C79.4561 71.4689 79.0178 71.4132 78.5984 71.5923C77.3666 71.5923 76.1349 71.5923 74.9069 71.5923C74.4648 71.4052 74.0001 71.4371 73.5467 71.4689C72.4812 71.5446 71.4383 71.2819 70.3766 71.2978C70.3048 71.2978 70.2368 71.2699 70.165 71.258C69.9043 71.2221 69.6436 71.1823 69.3829 71.1545C69.2393 71.1386 69.0919 71.1505 68.9484 71.1266C68.1209 70.9873 67.2934 70.848 66.4659 70.6967C65.5667 70.5335 64.6636 70.3942 63.7795 70.1792C61.8336 69.7016 59.9104 69.1443 58.0363 68.4159C57.36 68.1532 56.6799 67.8865 56.03 67.5561C55.0967 67.0824 54.1823 66.5689 53.2755 66.0355C52.0967 65.339 51.0274 64.4712 50.0261 63.5199C49.1457 62.6879 48.3976 61.7246 47.7515 60.6778C46.9013 59.3005 46.5159 57.78 46.4593 56.1519C46.4442 55.6902 46.5575 55.2444 46.584 54.7946C46.6406 53.7716 46.8862 52.7964 47.1507 51.8251C47.8006 49.4368 48.8472 47.2436 50.1508 45.1856C50.6835 44.3418 51.2314 43.5098 51.8133 42.7018C52.4254 41.8539 53.0564 41.022 53.7932 40.2856C53.933 40.1463 54.0312 39.9672 54.1597 39.8199C54.4355 39.5015 54.6886 39.1472 55.0136 38.8964C55.3461 38.6377 55.6295 38.3312 55.9317 38.0406C56.3965 37.5988 56.8423 37.1291 57.3411 36.739C58.2101 36.0663 59.0451 35.3378 59.9935 34.7766C60.8739 34.2512 61.7316 33.6859 62.6157 33.1764C63.6737 32.5714 64.7808 32.0619 65.8992 31.5922C67.6221 30.8717 69.3791 30.2508 71.1738 29.7651C72.0353 29.5303 72.9043 29.3472 73.7658 29.1123C74.9522 28.7899 76.1576 28.5789 77.3666 28.3919C77.514 28.3799 77.5896 28.3003 77.6311 28.1689ZM83.4159 35.3976C83.4159 35.9747 83.4197 36.1698 83.6161 36.4205C84.0431 36.9699 84.4814 37.5192 85.0633 37.8894C85.6376 38.2556 86.2421 38.574 86.8316 38.9163C87.9084 39.5333 88.9852 40.1503 90.0659 40.7633C90.4059 40.9543 90.7535 41.1335 91.1012 41.3086C91.5017 41.5076 91.9248 41.5872 92.3669 41.5435C93.1566 41.4678 93.8178 40.6399 93.678 39.8597C93.5609 39.2069 93.3266 38.6019 92.945 38.0645C92.2309 37.0654 91.3997 36.1897 90.4513 35.4453C89.4198 34.6413 88.3051 34.0044 87.0469 33.678C86.295 33.4829 85.5469 33.3396 84.7799 33.6143C83.9902 33.8889 83.3176 34.3905 83.4159 35.3976ZM80.7748 32.5316C80.3591 32.4878 80.004 32.6629 79.7093 33.0053C79.3919 33.3755 79.3428 33.8133 79.5241 34.2631C79.8113 34.9756 80.3705 35.2622 81.0317 35.4214C81.4209 35.513 82.3012 35.0234 82.4977 34.5975C82.5166 34.5537 82.5317 34.5019 82.5393 34.4542C82.6035 33.9526 82.5393 33.4909 82.1652 33.1247C81.7798 32.7505 81.3453 32.5037 80.7748 32.5316Z"
        fill="#FFF8ED" />
    <path
        d="M77.6311 28.1699C77.5895 28.3012 77.514 28.3809 77.3779 28.4008C76.1688 28.5878 74.9635 28.8028 73.7771 29.1212C72.9156 29.3521 72.0466 29.5392 71.1851 29.774C69.3904 30.2636 67.6334 30.8806 65.9105 31.6011C64.7883 32.0708 63.685 32.5763 62.627 33.1853C61.7391 33.6948 60.8814 34.264 60.0048 34.7855C59.0602 35.3467 58.2214 36.0752 57.3524 36.7479C56.8498 37.138 56.404 37.6077 55.943 38.0495C55.6407 38.3401 55.3574 38.6426 55.0249 38.9053C54.6999 39.1561 54.4468 39.5143 54.1709 39.8288C54.0425 39.9761 53.9442 40.1592 53.8044 40.2945C53.0677 41.0309 52.4367 41.8628 51.8246 42.7107C51.2427 43.5147 50.6948 44.3507 50.1621 45.1945C48.8585 47.2524 47.8119 49.4497 47.162 51.834C46.8975 52.8053 46.6519 53.7805 46.5952 54.8035C46.5726 55.2533 46.4554 55.6991 46.4705 56.1608C46.531 57.7889 46.9164 59.3094 47.7628 60.6867C48.4089 61.7335 49.157 62.6968 50.0374 63.5288C51.0386 64.4761 52.1079 65.3478 53.2868 66.0444C54.1898 66.5778 55.108 67.0913 56.0413 67.565C56.6911 67.8954 57.3713 68.1621 58.0476 68.4248C59.9217 69.1532 61.8487 69.7145 63.7908 70.1881C64.6787 70.4031 65.5817 70.5424 66.4772 70.7056C67.3047 70.8569 68.1322 70.9962 68.9596 71.1355C69.1032 71.1594 69.2506 71.1435 69.3942 71.1634C69.6549 71.1912 69.9156 71.231 70.1763 71.2669C70.2481 71.2788 70.3199 71.3067 70.3879 71.3067C71.4496 71.2868 72.4924 71.5495 73.558 71.4778C74.0114 71.446 74.4761 71.4141 74.9182 71.6012C76.1499 71.6012 77.3817 71.6012 78.6097 71.6012C79.0253 71.4221 79.4636 71.4778 79.8981 71.4738C80.4309 71.4699 80.9636 71.4977 81.4926 71.4659C82.3088 71.4181 83.1173 71.2708 83.9372 71.3027C84.3793 71.1236 84.8403 71.1793 85.2975 71.1594C85.5128 71.1514 85.7244 71.1037 85.936 71.0718C86.0532 71.0559 86.1741 71.0161 86.2912 71.0161C87.2547 71.0081 88.1955 70.7773 89.1514 70.6777C89.8656 70.6021 90.5608 70.3752 91.2711 70.2797C92.5369 70.1045 93.7687 69.7821 95.008 69.4796C95.8506 69.2726 96.6743 68.994 97.5055 68.7353C98.265 68.4964 99.0282 68.2576 99.7763 67.9829C100.728 67.6327 101.669 67.2426 102.618 66.8644C102.931 66.741 103.234 66.5659 103.585 66.5898C103.468 66.7171 103.37 66.8644 103.237 66.9679C101.945 67.9551 100.581 68.8228 99.1302 69.5234C97.2183 70.4469 95.2498 71.1992 93.1943 71.6848C91.7359 72.0271 90.2812 72.3774 88.7963 72.5685C87.8895 72.6839 86.9864 72.8471 86.0796 72.9705C85.5544 73.0422 85.0254 73.086 84.4964 73.1258C83.6312 73.1934 82.7659 73.2452 81.9007 73.3089C80.7483 73.3964 79.5959 73.488 78.4434 73.5756C78.3943 73.5795 78.349 73.5835 78.2999 73.5875C75.262 73.8064 72.2204 73.8184 69.1826 73.7348C68.1019 73.7029 67.0213 73.5756 65.9407 73.488C65.8916 73.484 65.8424 73.484 65.7971 73.48C64.69 73.4163 63.583 73.3686 62.4759 73.289C61.6371 73.2293 60.7983 73.1258 59.9595 73.0422C59.3587 72.9825 58.7617 72.9267 58.1609 72.8591C56.2415 72.6521 54.3448 72.3137 52.4593 71.8759C51.2351 71.5933 50.0185 71.2748 48.8321 70.837C46.5008 69.9812 44.2564 68.9263 42.235 67.4097C41.6266 66.952 41.0183 66.4823 40.4856 65.937C39.5561 64.9936 38.8571 63.8631 38.381 62.5933C37.8898 61.2798 37.6631 59.9184 37.6253 58.5053C37.5648 56.0971 38.0938 53.8163 38.9062 51.5992C40.2211 48.0167 42.046 44.7368 44.2715 41.6996C45.6355 39.8447 47.1809 38.1649 48.8283 36.5887C50.1356 35.3388 51.5903 34.2919 53.1017 33.3286C55.4632 31.82 57.9607 30.6139 60.5829 29.7103C62.3965 29.0854 64.2442 28.6117 66.1296 28.3012C67.2442 28.1181 68.3778 28.0226 69.5037 27.9151C71.0264 27.7718 72.5416 27.7957 74.0605 27.8315C75.2393 27.8554 76.4447 27.939 77.6311 28.1699Z"
        fill="#FFF8ED" />
    <path
        d="M83.4162 35.3977C83.3218 34.3907 83.9905 33.8891 84.7764 33.6105C85.5435 33.3398 86.2916 33.4831 87.0435 33.6742C88.3017 34.0006 89.4163 34.6335 90.4478 35.4415C91.3962 36.1859 92.2275 37.0616 92.9416 38.0607C93.327 38.5981 93.5575 39.2071 93.6746 39.8559C93.8144 40.6361 93.1532 41.464 92.3635 41.5397C91.9214 41.5834 91.4982 41.5038 91.0977 41.3048C90.7501 41.1337 90.4025 40.9545 90.0624 40.7595C88.9818 40.1465 87.905 39.5295 86.8281 38.9125C86.2349 38.5742 85.6341 38.2557 85.0598 37.8856C84.4779 37.5114 84.0397 36.9621 83.6127 36.4167C83.42 36.17 83.4124 35.9749 83.4162 35.3977Z"
        fill="#FFF8ED" />
    <path
        d="M80.7753 32.532C81.3458 32.5041 81.7803 32.7509 82.1657 33.1251C82.5398 33.4873 82.6078 33.9531 82.5398 34.4546C82.5322 34.5024 82.5171 34.5541 82.4982 34.5979C82.3055 35.0238 81.4252 35.5134 81.0322 35.4219C80.3672 35.2626 79.808 34.9721 79.5246 34.2635C79.3433 33.8137 79.3924 33.3759 79.7098 33.0057C80.0045 32.6634 80.3597 32.4882 80.7753 32.532Z"
        fill="#FFF8ED" />
    <path
        d="M30.5076 43.0011C30.3039 42.2097 30.3129 41.3994 30.3279 40.5954C30.3788 38.041 30.9599 35.5974 31.8075 33.2202C32.7121 30.6911 33.9162 28.3329 35.4857 26.19C36.3692 24.984 37.3726 23.9109 38.5528 23.0246C39.1967 22.5403 39.8886 22.1573 40.6524 21.9294C41.1137 21.7901 41.5839 21.6983 42.0662 21.7933C42.1081 21.9041 42.1291 22.0307 42.192 22.1288C42.4795 22.5625 42.6742 23.0404 42.8539 23.5311C43.2822 24.7022 43.5758 25.9019 43.5608 27.1712C43.5548 27.798 43.5608 28.4247 43.5578 29.0514C43.5578 29.1939 43.5638 29.3363 43.5428 29.4756C43.4799 29.8902 43.396 30.3017 43.3361 30.7196C43.2073 31.6154 43.0156 32.4922 42.7551 33.3563C42.3028 34.8567 41.7606 36.319 41.0598 37.7086C40.8801 38.0632 40.6434 38.3829 40.4697 38.7405C40.0803 39.5382 39.5052 40.1871 38.9661 40.8581C38.382 41.583 37.6752 42.1718 36.9054 42.6656C36.4321 42.9694 35.9379 43.2575 35.4198 43.4442C34.8656 43.6436 34.2756 43.7259 33.6975 43.8367C33.5148 43.8716 33.3111 43.8621 33.1254 43.8272C32.4155 43.6943 31.7027 43.555 31.0407 43.2322C30.864 43.1435 30.6843 43.0771 30.5076 43.0011ZM34.9465 40.8233C35.237 40.8328 35.5036 40.7505 35.7702 40.6207C36.6328 40.2029 37.2528 39.4749 37.8399 38.7405C38.8792 37.4332 39.5951 35.9139 40.1073 34.2964C40.4907 33.0904 40.7333 31.8559 40.6914 30.5676C40.6794 30.1815 40.6494 29.8048 40.5596 29.4344C40.3978 28.7697 40.1013 28.2 39.5382 27.8169C39.1099 27.5004 38.6366 27.5226 38.1664 27.6428C37.774 27.741 37.4176 27.9467 37.0791 28.1778C36.4771 28.5893 35.9859 29.1369 35.5366 29.7098C34.617 30.8842 33.9251 32.2104 33.4369 33.6443C33.1074 34.6129 32.8469 35.5942 32.7271 36.6261C32.6402 37.3763 32.6102 38.1106 32.76 38.845C32.8888 39.4844 33.0595 40.108 33.5837 40.5258C33.988 40.8487 34.4194 41.1019 34.9465 40.8233ZM36.7107 27.4434C36.9144 27.3105 37.157 27.1902 37.3577 27.0129C37.8758 26.5666 38.415 26.152 38.9901 25.7975C39.4004 25.5442 39.8167 25.2973 40.2181 25.0251C40.5236 24.8162 40.7992 24.5598 40.9549 24.199C41.1227 23.8065 40.8651 23.2589 40.4757 23.2177C39.9156 23.1576 39.3794 23.2272 38.8882 23.5754C38.4569 23.8793 38.0406 24.1926 37.6931 24.601C37.3517 25.0061 36.9863 25.3955 36.6748 25.8228C36.4801 26.0918 36.3423 26.4115 36.2255 26.7312C36.1206 27.0193 36.2225 27.1997 36.504 27.3675C36.552 27.396 36.6089 27.4086 36.7107 27.4434ZM35.0543 28.393C35.0633 28.4342 35.0693 28.5355 35.1053 28.6273C35.1771 28.8045 35.3778 28.9248 35.5156 28.8932C35.8361 28.8204 36.1356 28.4912 36.1895 28.1461C36.2345 27.8613 35.9918 27.5732 35.7223 27.589C35.3359 27.608 35.0454 27.9309 35.0543 28.393Z"
        fill="#F9D100" />
    <path
        d="M36.7107 27.4434C36.9144 27.3105 37.157 27.1902 37.3577 27.0129C37.8758 26.5666 38.415 26.152 38.9901 25.7975C39.4004 25.5442 39.8167 25.2973 40.2181 25.0251C40.5236 24.8162 40.7992 24.5598 40.9549 24.199C41.1227 23.8065 40.8651 23.2589 40.4757 23.2177C39.9156 23.1576 39.3794 23.2272 38.8882 23.5754C38.4569 23.8793 38.0406 24.1926 37.6931 24.601C37.3517 25.0061 36.9863 25.3955 36.6748 25.8228C36.4801 26.0918 36.3423 26.4115 36.2255 26.7312C36.1206 27.0193 36.2225 27.1997 36.504 27.3675C36.552 27.396 36.6089 27.4086 36.7107 27.4434Z"
        fill="#F9D100" />
    <path
        d="M30.5079 43.0015C30.6847 43.0774 30.8644 43.1471 31.0351 43.2294C31.697 43.5554 32.4099 43.6915 33.1198 43.8245C33.3055 43.8593 33.5062 43.8688 33.6919 43.834C34.2699 43.7232 34.863 43.6409 35.4141 43.4415C35.9323 43.2547 36.4265 42.9635 36.8997 42.6628C37.6695 42.169 38.3764 41.5802 38.9605 40.8554C39.4996 40.1843 40.0747 39.5354 40.4641 38.7378C40.6378 38.3801 40.8774 38.0604 41.0541 37.7059C41.755 36.3163 42.3001 34.8539 42.7494 33.3535C43.01 32.4894 43.2017 31.6126 43.3305 30.7168C43.3904 30.3021 43.4743 29.8906 43.5372 29.4728C43.5581 29.3335 43.5521 29.1911 43.5521 29.0487C43.5521 28.4219 43.5462 27.7952 43.5551 27.1684C43.5701 25.8991 43.2766 24.6995 42.8483 23.5283C42.6685 23.0377 42.4769 22.5597 42.1863 22.1261C42.1234 22.0311 42.1025 21.9045 42.0605 21.7905C42.8093 21.7937 43.4233 22.1387 43.9625 22.661C44.4687 23.1485 44.7952 23.7657 45.0348 24.4336C45.3972 25.4497 45.526 26.5101 45.544 27.5894C45.5769 29.4855 45.2864 31.3372 44.8071 33.1573C43.8846 36.6423 42.4199 39.8488 40.3053 42.7071C39.4637 43.8435 38.5202 44.8754 37.4029 45.7142C36.7919 46.1731 36.1479 46.5688 35.4261 46.8031C35.1356 46.898 34.833 46.9771 34.5335 47.0151C33.2156 47.1766 32.1673 46.6733 31.4095 45.5274C30.9033 44.7709 30.6158 43.9194 30.5079 43.0015Z"
        fill="#FEB700" />
    <path
        d="M39.5383 27.8159C40.1014 28.1989 40.3979 28.7687 40.5596 29.4334C40.6495 29.8069 40.6795 30.1836 40.6914 30.5666C40.7334 31.8549 40.4878 33.0894 40.1074 34.2954C39.5952 35.9097 38.8823 37.4291 37.84 38.7395C37.2559 39.4739 36.6329 40.2019 35.7703 40.6197C35.5007 40.7495 35.2371 40.8318 34.9466 40.8223C34.9376 40.6197 34.9676 40.4076 34.9107 40.2209C34.8088 39.8822 34.8208 39.5435 34.8238 39.2048C34.8328 38.6445 34.8208 38.0874 34.9136 37.524C35.0005 36.9922 35.0484 36.451 35.1712 35.9287C35.4498 34.7575 35.7912 33.6053 36.2825 32.5133C36.9893 30.9369 37.9209 29.5252 39.1189 28.3129C39.2747 28.1609 39.4005 27.9805 39.5383 27.8159Z"
        fill="#8C48E2" />
    <path
        d="M39.5381 27.8177C39.4003 27.9823 39.2745 28.1627 39.1248 28.3115C37.9267 29.5207 36.9952 30.9356 36.2883 32.5119C35.7971 33.604 35.4526 34.7562 35.177 35.9273C35.0542 36.4528 35.0063 36.994 34.9195 37.5227C34.8266 38.0861 34.8356 38.6432 34.8296 39.2035C34.8236 39.5453 34.8116 39.884 34.9165 40.2195C34.9734 40.4031 34.9434 40.6184 34.9524 40.8209C34.4252 41.0995 33.9939 40.8463 33.5866 40.5234C33.0594 40.1056 32.8917 39.482 32.7629 38.8426C32.6131 38.1051 32.6461 37.3739 32.73 36.6237C32.8468 35.5918 33.1073 34.6105 33.4398 33.642C33.931 32.2049 34.6229 30.8818 35.5395 29.7074C35.9858 29.1345 36.48 28.5869 37.082 28.1754C37.4205 27.9443 37.7769 27.7386 38.1693 27.6405C38.6365 27.5233 39.1098 27.5044 39.5381 27.8177Z"
        fill="#560A79" />
    <path
        d="M35.0544 28.3932C35.0454 27.9311 35.3389 27.6082 35.7253 27.5861C35.9949 27.5702 36.2375 27.8583 36.1926 28.1432C36.1387 28.4882 35.8391 28.8206 35.5187 28.8902C35.3779 28.9218 35.1772 28.8016 35.1083 28.6243C35.0694 28.5357 35.0634 28.4344 35.0544 28.3932Z"
        fill="#E9CF54" />
    <path
        d="M115.617 43.8993C114.955 44.2253 114.242 44.3614 113.532 44.4943C113.346 44.5292 113.146 44.5387 112.96 44.5038C112.382 44.393 111.789 44.3108 111.238 44.1113C110.72 43.9246 110.225 43.6334 109.752 43.3327C108.982 42.8389 108.275 42.2501 107.691 41.5252C107.152 40.8542 106.577 40.2053 106.188 39.4076C106.014 39.0499 105.774 38.7302 105.598 38.3757C104.897 36.9861 104.352 35.5237 103.899 34.0233C103.639 33.1592 103.447 32.2824 103.318 31.3866C103.258 30.9719 103.175 30.5604 103.112 30.1426C103.091 30.0033 103.097 29.8609 103.097 29.7184C103.097 29.0917 103.103 28.4649 103.094 27.8382C103.079 26.5689 103.372 25.3692 103.801 24.198C103.98 23.7074 104.172 23.2294 104.463 22.7958C104.525 22.7008 104.546 22.5742 104.588 22.4602C105.071 22.3653 105.541 22.4602 106.002 22.5963C106.766 22.8243 107.458 23.2073 108.102 23.6916C109.282 24.5747 110.285 25.6509 111.169 26.8569C112.738 28.9999 113.939 31.3581 114.844 33.8872C115.692 36.2644 116.273 38.7049 116.324 41.2625C116.339 42.0697 116.351 42.88 116.144 43.6682C115.967 43.7473 115.788 43.8138 115.617 43.8993ZM113.068 41.196C113.595 40.7782 113.763 40.1546 113.892 39.5152C114.041 38.7777 114.008 38.0465 113.925 37.2963C113.808 36.2644 113.547 35.2831 113.215 34.3145C112.723 32.8775 112.032 31.5543 111.115 30.38C110.669 29.8071 110.174 29.2594 109.572 28.8479C109.234 28.6169 108.878 28.4111 108.485 28.313C108.012 28.1959 107.542 28.1737 107.113 28.4871C106.55 28.8701 106.254 29.4399 106.092 30.1046C106.002 30.4781 105.972 30.8548 105.96 31.2378C105.918 32.5261 106.164 33.7606 106.544 34.9666C107.056 36.5809 107.769 38.1003 108.812 39.4108C109.396 40.1451 110.019 40.8732 110.881 41.291C111.151 41.4208 111.414 41.5031 111.705 41.4936C112.232 41.7721 112.664 41.5189 113.068 41.196ZM110.148 28.0376C110.429 27.8698 110.531 27.6894 110.426 27.4014C110.309 27.0848 110.171 26.762 109.977 26.4929C109.665 26.0624 109.3 25.6762 108.958 25.2711C108.611 24.8596 108.195 24.5494 107.763 24.2455C107.272 23.8973 106.736 23.8277 106.176 23.8878C105.789 23.929 105.529 24.4797 105.697 24.8691C105.852 25.2299 106.128 25.4863 106.433 25.6952C106.832 25.9675 107.248 26.2144 107.661 26.4676C108.24 26.8253 108.776 27.2368 109.294 27.6831C109.498 27.8572 109.74 27.9806 109.941 28.1136C110.043 28.0788 110.1 28.0661 110.148 28.0376ZM110.926 28.256C110.657 28.2402 110.414 28.5282 110.459 28.8131C110.513 29.1581 110.812 29.4905 111.133 29.5602C111.274 29.5918 111.474 29.4715 111.543 29.2943C111.579 29.2056 111.588 29.1012 111.594 29.06C111.606 28.601 111.316 28.2782 110.926 28.256Z"
        fill="#F9D100" />
    <path
        d="M110.148 28.0376C110.429 27.8698 110.531 27.6894 110.426 27.4014C110.309 27.0848 110.171 26.762 109.977 26.4929C109.665 26.0624 109.3 25.6762 108.958 25.2711C108.611 24.8596 108.195 24.5494 107.763 24.2455C107.272 23.8973 106.736 23.8277 106.176 23.8878C105.789 23.929 105.529 24.4797 105.697 24.8691C105.852 25.2299 106.128 25.4863 106.433 25.6952C106.832 25.9675 107.248 26.2144 107.661 26.4676C108.24 26.8253 108.776 27.2368 109.294 27.6831C109.498 27.8572 109.74 27.9806 109.941 28.1136C110.043 28.0788 110.1 28.0661 110.148 28.0376Z"
        fill="#F9D100" />
    <path
        d="M116.144 43.672C115.968 43.748 115.788 43.8177 115.617 43.9C114.955 44.226 114.242 44.3621 113.532 44.495C113.347 44.5299 113.146 44.5394 112.96 44.5045C112.382 44.3938 111.789 44.3115 111.238 44.112C110.72 43.9253 110.226 43.6341 109.752 43.3334C108.983 42.8396 108.276 42.2508 107.692 41.5259C107.153 40.8549 106.577 40.206 106.188 39.4083C106.014 39.0506 105.775 38.7309 105.598 38.3764C104.897 36.9868 104.352 35.5244 103.9 34.024C103.639 33.1599 103.447 32.2831 103.319 31.3873C103.259 30.9726 103.175 30.5611 103.112 30.1433C103.091 30.004 103.097 29.8616 103.097 29.7191C103.097 29.0924 103.103 28.4656 103.094 27.8389C103.079 26.5696 103.373 25.3699 103.801 24.1987C103.981 23.7081 104.172 23.2301 104.463 22.7965C104.526 22.7015 104.547 22.5749 104.589 22.4609C103.84 22.4641 103.226 22.8091 102.687 23.3314C102.18 23.8189 101.854 24.4361 101.614 25.104C101.252 26.1201 101.123 27.1805 101.105 28.2599C101.072 30.1559 101.363 32.0077 101.842 33.8278C102.765 37.3128 104.229 40.5193 106.344 43.3777C107.186 44.514 108.129 45.5459 109.246 46.3848C109.857 46.8437 110.501 47.2394 111.223 47.4737C111.514 47.5686 111.816 47.6477 112.116 47.6857C113.434 47.8472 114.482 47.3439 115.24 46.198C115.749 45.4415 116.036 44.59 116.144 43.672Z"
        fill="#FEB700" />
    <path
        d="M107.113 28.4878C106.55 28.8708 106.253 29.4406 106.091 30.1053C106.002 30.4788 105.972 30.8555 105.96 31.2385C105.918 32.5268 106.163 33.7613 106.544 34.9673C107.056 36.5816 107.769 38.101 108.811 39.4115C109.395 40.1458 110.018 40.8739 110.881 41.2917C111.15 41.4215 111.414 41.5038 111.705 41.4943C111.713 41.2917 111.684 41.0796 111.74 40.8929C111.842 40.5542 111.83 40.2155 111.827 39.8768C111.818 39.3165 111.83 38.7594 111.737 38.196C111.651 37.6642 111.603 37.1229 111.48 36.6006C111.201 35.4294 110.86 34.2772 110.369 33.1852C109.662 31.6088 108.73 30.1971 107.532 28.9848C107.376 28.8328 107.251 28.6524 107.113 28.4878Z"
        fill="#8C48E2" />
    <path
        d="M107.113 28.4881C107.251 28.6527 107.376 28.8332 107.526 28.9819C108.724 30.1911 109.656 31.606 110.363 33.1824C110.854 34.2744 111.198 35.4266 111.474 36.5978C111.597 37.1233 111.645 37.6645 111.732 38.1931C111.824 38.7566 111.815 39.3137 111.821 39.874C111.827 40.2158 111.839 40.5545 111.735 40.89C111.678 41.0736 111.708 41.2889 111.699 41.4915C112.226 41.77 112.657 41.5168 113.064 41.1939C113.592 40.7761 113.759 40.1525 113.888 39.5131C114.038 38.7756 114.005 38.0444 113.921 37.2942C113.804 36.2623 113.544 35.281 113.211 34.3124C112.72 32.8753 112.028 31.5522 111.112 30.3779C110.665 29.8049 110.171 29.2573 109.569 28.8458C109.231 28.6148 108.874 28.409 108.482 28.3109C108.014 28.1938 107.541 28.1748 107.113 28.4881Z"
        fill="#560A79" />
    <path
        d="M111.598 29.0637C111.607 28.6015 111.313 28.2786 110.927 28.2565C110.657 28.2407 110.415 28.5287 110.46 28.8136C110.514 29.1586 110.813 29.491 111.134 29.5606C111.274 29.5923 111.475 29.472 111.544 29.2947C111.583 29.2061 111.589 29.1048 111.598 29.0637Z"
        fill="#E9CF54" />
    <g clip-path="url(#clip0_10120_35675)">
        <path
            d="M72.7137 54.0695C69.975 54.0616 67.6889 52.0771 67.2444 49.4496C67.1888 49.14 67.1491 48.8225 67.1412 48.505C67.1332 48.2192 67.292 48.0446 67.5698 47.9969C67.7603 47.9652 67.9588 47.9572 68.1572 47.9493C70.0227 47.9175 71.8802 47.8937 73.7456 47.862C74.9205 47.8382 76.0953 47.8064 77.2701 47.7826C77.4924 47.7747 77.7147 47.7667 77.929 47.7826C78.3338 47.8144 78.572 48.0445 78.564 48.4415C78.5561 48.759 78.5085 49.0765 78.445 49.3861C77.8099 52.2835 75.2936 54.0775 72.7137 54.0695Z"
            fill="#4A435A" />
        <path
            d="M58.4226 53.1965C58.4384 53.5379 58.2241 53.8554 57.9304 53.9268C57.5891 54.0141 57.2874 53.9109 57.1128 53.6014C56.9937 53.387 56.9223 53.1568 56.835 52.9266C56.2634 51.4422 55.3664 50.2197 54.0328 49.3307C52.3579 48.2193 50.556 47.9336 48.6429 48.6162C47.6268 48.9735 46.8012 49.6244 46.1185 50.4499C45.9915 50.6008 45.8804 50.7675 45.7375 50.8945C45.4756 51.1326 45.1263 51.1406 44.8564 50.95C44.6024 50.7675 44.4833 50.4023 44.6262 50.1007C44.7294 49.8863 44.8802 49.68 45.031 49.4974C47.1664 46.8937 50.683 46.0681 53.7312 47.5049C56.057 48.6004 57.5335 50.4499 58.3511 52.8552C58.3749 52.9266 58.3988 52.9981 58.4146 53.0695C58.4146 53.1013 58.4146 53.1489 58.4226 53.1965Z"
            fill="#4A435A" />
        <path
            d="M91.2779 41.1225C92.3019 40.4795 93.3814 40.3922 94.5087 40.7891C95.1675 41.0193 95.7311 41.4003 96.2392 41.8766C96.9456 42.5434 97.4775 43.3293 97.9141 44.1866C98.5412 45.417 98.946 46.7268 99.1762 48.0842C99.6367 50.807 99.5334 53.5059 98.7635 56.1652C98.4539 57.2527 98.0173 58.2925 97.414 59.2531C97.3505 59.3563 97.2632 59.4356 97.1838 59.5309C96.6916 59.5309 96.2074 59.523 95.7152 59.523C95.1199 59.5309 94.5642 59.388 94.0244 59.134C93.3259 58.8006 92.7782 58.2926 92.2304 57.7607C91.2223 56.7764 90.6031 55.5698 90.2539 54.2283C90.0237 53.3551 89.7696 52.4898 89.7934 51.569C89.8014 51.2832 89.6744 50.9975 89.6664 50.7038C89.6426 49.1161 89.6505 47.5365 89.9363 45.9647C90.0554 45.3138 90.1824 44.6708 90.3491 44.0437C90.5317 43.3372 90.8333 42.6625 91.0635 41.9719C91.1509 41.694 91.2064 41.4003 91.2779 41.1225ZM97.7553 48.743C97.7871 47.5761 97.5172 46.5442 97.0885 45.5519C96.8821 45.0757 96.5805 44.6549 96.1677 44.3295C95.5406 43.8373 94.6912 43.9961 94.3578 44.6867C94.1594 45.1074 94.0324 45.5599 94.0959 46.0362C94.1753 46.6395 94.2546 47.2507 94.3896 47.8381C94.588 48.6637 94.7468 49.5131 95.1755 50.2672C95.366 50.6006 95.5882 50.8784 95.9454 51.0213C96.0804 51.0768 96.2392 51.1324 96.3662 51.1007C96.771 50.9975 97.152 50.8546 97.3664 50.4339C97.6601 49.8782 97.8188 49.3067 97.7553 48.743ZM97.6204 53.5138C97.6521 53.109 97.5728 52.7359 97.3584 52.3946C96.9695 51.7833 96.0883 51.7595 95.7549 52.4342C95.4454 53.0614 95.4771 53.6646 95.739 54.2679C95.8978 54.649 96.4297 54.9744 96.7234 54.9268C97.1124 54.8633 97.5093 54.4664 97.5886 54.0219C97.6204 53.8552 97.6125 53.6805 97.6204 53.5138Z"
            fill="#443E55" />
        <path
            d="M91.2775 41.1226C91.2061 41.4083 91.1505 41.6941 91.0632 41.9719C90.825 42.6626 90.5313 43.3373 90.3488 44.0438C90.1821 44.6788 90.055 45.3218 89.936 45.9648C89.6581 47.5365 89.6423 49.1162 89.6661 50.7038C89.674 50.9896 89.801 51.2833 89.7931 51.5691C89.7772 52.4899 90.0312 53.3551 90.2535 54.2283C90.6028 55.5699 91.2219 56.7765 92.2301 57.7608C92.7778 58.2926 93.3255 58.8007 94.0241 59.1341C94.5639 59.3881 95.1195 59.531 95.7149 59.523C96.207 59.5151 96.6913 59.523 97.1834 59.531C96.5643 60.6105 95.6752 61.3885 94.5401 61.8648C93.5399 62.2855 92.5317 62.2458 91.5395 61.8092C90.9521 61.5472 90.4361 61.1742 89.9836 60.7217C89.2057 59.9517 88.6421 59.0388 88.1975 58.0545C87.5387 56.5939 87.1815 55.046 86.9989 53.4583C86.7687 51.4659 86.8798 49.4972 87.3164 47.5445C87.6736 45.933 88.2293 44.401 89.1977 43.0356C89.674 42.3688 90.2138 41.7814 90.8965 41.321C91.0076 41.2337 91.1426 41.1861 91.2775 41.1226Z"
            fill="#393343" />
        <path
            d="M97.7547 48.7433C97.8182 49.3069 97.6595 49.8784 97.3658 50.442C97.1514 50.8548 96.7625 50.9977 96.3656 51.1088C96.2385 51.1406 96.0798 51.085 95.9448 51.0294C95.5876 50.8866 95.3654 50.6087 95.1748 50.2753C94.7462 49.5212 94.5874 48.6718 94.389 47.8463C94.2461 47.2588 94.1747 46.6476 94.0953 46.0443C94.0318 45.568 94.1588 45.1156 94.3572 44.6948C94.6906 44.0042 95.54 43.8455 96.1671 44.3376C96.5799 44.6631 96.8815 45.0838 97.0879 45.5601C97.5166 46.5444 97.7865 47.5764 97.7547 48.7433Z"
            fill="#6C6678" />
        <path
            d="M97.6202 53.5138C97.6122 53.6805 97.6202 53.8551 97.5884 54.0218C97.5011 54.4584 97.1121 54.8554 96.7232 54.9268C96.4295 54.9744 95.9055 54.6489 95.7388 54.2679C95.4769 53.6646 95.4451 53.0613 95.7547 52.4342C96.0881 51.7595 96.9692 51.7833 97.3582 52.3945C97.5725 52.7359 97.6519 53.109 97.6202 53.5138Z"
            fill="#6C6577" />
    </g>
    <defs>
        <clipPath id="clip0_10120_35675">
            <rect width="57.6936" height="23.0775" fill="white"
                transform="translate(43.411 39.7808)" />
        </clipPath>
    </defs>
</svg>
    