<svg width="344" height="200" viewBox="0 0 344 200" fill="none" xmlns="http://www.w3.org/2000/svg">
<rect width="344" height="200" rx="8" fill="#FFEDD1"/>
<rect y="113" width="344" height="87" fill="#C2F0FF"/>
<path opacity="0.11" d="M207.342 154.879L202.11 154.023C201.64 154 201.297 153.918 201.18 153.852L198.699 152.419C198.001 152.009 196.155 152.002 195.412 152.399L192.785 153.814C192.654 153.887 192.305 153.967 191.824 153.985L187.494 154.711C186.857 154.733 184.427 154.568 184.158 154.778C183.995 154.904 184.069 155.19 184.837 155.476C185.9 155.874 189.154 156.881 189.154 156.881L188.272 158.188C188.138 158.387 188.142 158.623 188.284 158.816C188.668 159.35 190.128 159.428 190.984 159.299L196.127 158.58C196.528 158.523 197.024 158.525 197.428 158.587L202.493 159.344C202.736 159.379 203.028 159.401 203.33 159.401C204.092 159.401 204.921 159.266 205.223 158.887C205.369 158.703 205.386 158.473 205.274 158.275L204.517 156.955L208.738 155.853C209.519 155.649 209.923 155.44 209.929 155.233C209.947 154.744 207.967 154.905 207.342 154.879Z" fill="black"/>
<path d="M208.95 151.459L208.121 152.116L203.459 153.346V155.846L196.621 155.029L189.619 155.73V153.293L184.297 151.457V154.602C184.298 154.828 184.423 155.159 185.071 155.353L188.083 156.264V158.283C188.084 158.4 188.118 158.517 188.188 158.623C188.563 159.195 189.987 159.278 190.823 159.14L195.84 158.371C196.232 158.309 196.716 158.312 197.111 158.378L202.053 159.188C202.29 159.226 202.575 159.25 202.869 159.25C203.612 159.25 204.421 159.105 204.716 158.699C204.803 158.58 204.829 158.443 204.822 158.305V156.403L208.146 155.452C208.8 155.265 208.941 154.947 208.952 154.719V151.459H208.95Z" fill="#FFA91F"/>
<path d="M207.234 150.608L201.677 150.341C201.218 150.317 200.883 150.23 200.77 150.158L198.349 148.624C197.667 148.185 195.866 148.178 195.141 148.603L192.578 150.117C192.45 150.195 192.11 150.28 191.64 150.299L186.062 150.52C185.44 150.544 184.386 150.686 184.3 151.362C184.272 151.581 184.336 151.979 185.069 152.2L189.036 153.399L188.173 154.797C188.043 155.011 188.048 155.262 188.186 155.469C188.56 156.041 189.985 156.124 190.82 155.986L195.838 155.217C196.23 155.155 196.714 155.158 197.108 155.224L202.05 156.034C202.287 156.072 202.572 156.096 202.867 156.096C203.609 156.096 204.419 155.951 204.714 155.545C204.856 155.348 204.873 155.101 204.763 154.89L204.025 153.477L208.143 152.297C208.905 152.079 208.975 151.678 208.949 151.458C208.872 150.789 207.843 150.637 207.234 150.608Z" fill="#FFCE00"/>
<path d="M208.334 150.816C208.436 150.924 208.512 151.049 208.53 151.21C208.555 151.436 208.486 151.849 207.75 152.073L203.773 153.281L204.486 154.727C204.592 154.943 204.576 155.196 204.438 155.398C204.154 155.814 203.372 155.962 202.654 155.962C202.37 155.962 202.095 155.938 201.866 155.899L197.094 155.07C196.713 155.002 196.245 154.999 195.867 155.063L191.021 155.851C190.215 155.992 188.838 155.907 188.477 155.321C188.343 155.109 188.339 154.852 188.465 154.633L189.297 153.202L185.467 151.974C184.759 151.748 184.697 151.34 184.725 151.117C184.743 150.96 184.821 150.838 184.92 150.732C184.602 150.857 184.342 151.049 184.303 151.365C184.274 151.583 184.338 151.982 185.072 152.203L189.038 153.402L188.176 154.799C188.046 155.013 188.05 155.264 188.188 155.471C188.563 156.044 189.987 156.127 190.823 155.989L195.841 155.22C196.232 155.158 196.716 155.16 197.111 155.227L202.053 156.036C202.29 156.074 202.575 156.098 202.869 156.098C203.612 156.098 204.421 155.954 204.716 155.548C204.858 155.351 204.875 155.104 204.766 154.892L204.028 153.48L208.146 152.3C208.908 152.081 208.978 151.681 208.952 151.46C208.913 151.141 208.656 150.943 208.334 150.816Z" fill="#FFE266"/>
<path opacity="0.06" d="M246.564 171.358C246.253 171.908 247.158 172.647 234.58 172.647C222.002 172.647 212.008 172.657 210.269 171.423C209.035 170.547 215.181 158.554 216.806 158.464C226.677 157.913 237.134 158.209 240.746 159.611C241.724 159.992 247.281 170.089 246.564 171.358Z" fill="black"/>
<path d="M244.472 171.376C242.009 172.548 213.172 172.973 210.847 171.266C210.073 170.698 210.201 168.733 210.203 168.113C212.286 167.575 243.328 166.98 245.412 167.518C245.526 168.128 245.956 170.67 244.472 171.376Z" fill="#FFA91F"/>
<path d="M240.432 160.631L232.123 159.813L228.942 157.833L226.96 157.861L223.26 159.998L215.162 160.349L214.986 163.498C214.986 163.498 219.844 163.515 219.826 163.601L222.547 163.5C223.072 163.481 223.531 163.384 223.772 163.242L226.487 161.648C227.095 161.291 228.801 161.302 229.374 161.667L231.933 163.296C232.161 163.441 232.609 163.544 233.133 163.57L235.482 163.688C235.442 163.639 240.431 163.837 240.431 163.837V160.631H240.432Z" fill="#FF9700"/>
<path d="M235.08 167.434H237.155V162.584H235.08V167.434Z" fill="#FF9E1D"/>
<path d="M220.358 162.583H218.283V167.433H220.358V162.583Z" fill="#FF9E1D"/>
<path d="M239.997 158.129C236.7 157.25 219.999 157.107 215.414 158.026C214.154 158.28 210.39 166.995 210.204 168.112C209.844 170.27 243.273 169.796 245.191 168.649C246.558 167.831 242.873 158.896 239.997 158.129ZM226.897 164.409L221.583 165.211C220.392 165.39 219.026 165.08 219.271 164.684L220.363 162.919C220.46 162.762 220.295 162.6 219.921 162.486L215.715 161.203C214.772 160.916 215.324 160.429 216.647 160.38L222.555 160.162C223.08 160.142 223.538 160.045 223.78 159.903L226.494 158.309C227.102 157.952 228.809 157.963 229.381 158.328L231.941 159.957C232.169 160.103 232.617 160.205 233.141 160.231L239.024 160.529C240.342 160.595 240.846 161.088 239.877 161.363L235.55 162.59C235.165 162.699 234.984 162.858 235.067 163.017L235.988 164.794C236.195 165.193 234.8 165.486 233.628 165.291L228.4 164.428C227.934 164.351 227.369 164.339 226.897 164.409Z" fill="#FFCE00"/>
<path d="M210.98 167.685C211.115 166.876 213.105 161.636 214.674 158.7C213.078 160.793 210.362 167.165 210.204 168.112C209.928 169.759 229.323 169.872 239.382 169.324C228.901 169.673 210.716 169.268 210.98 167.685Z" fill="#FFE266"/>
<path d="M221.409 165.259L226.871 164.435C227.357 164.362 227.922 164.349 228.4 164.428L233.789 165.34C234.994 165.541 236.72 165.448 236.508 165.038L235.268 163.002C235.184 162.84 235.37 162.676 235.765 162.563L240.642 161.363C241.638 161.08 241.339 160.379 239.985 160.311L233.29 160.138C232.752 160.112 232.291 160.006 232.057 159.857L229.427 158.183C228.838 157.808 227.084 157.796 226.459 158.163L223.669 159.802C223.421 159.948 222.95 160.058 222.41 160.079H215.615C214.256 160.13 213.809 160.701 214.778 160.996L219.702 162.458C220.086 162.575 220.257 162.741 220.157 162.902L219.034 164.717C218.782 165.123 220.185 165.444 221.409 165.259ZM220.364 162.918C220.461 162.762 220.296 162.6 219.922 162.486L215.715 161.203C214.773 160.916 215.324 160.429 216.647 160.38L222.556 160.162C223.081 160.142 223.539 160.045 223.78 159.903L226.495 158.309C227.103 157.951 228.809 157.963 229.382 158.328L231.942 159.957C232.169 160.103 232.618 160.205 233.142 160.231L239.025 160.528C240.343 160.595 240.847 161.088 239.878 161.363L235.551 162.589C235.166 162.699 234.985 162.858 235.068 163.017L235.989 164.794C236.196 165.193 234.801 165.486 233.628 165.291L228.4 164.428C227.935 164.351 227.369 164.339 226.897 164.41L221.582 165.212C220.392 165.391 219.026 165.08 219.271 164.685L220.364 162.918Z" fill="#FFE266"/>
<path opacity="0.12" d="M172.435 160.931C172.116 161.48 165.852 162.219 152.934 162.219C140.016 162.219 129.75 162.23 127.965 160.995C126.697 160.12 133.01 148.127 134.678 148.037C144.817 147.486 162.749 147.782 166.459 149.184C167.465 149.565 173.172 159.662 172.435 160.931Z" fill="black"/>
<path d="M169.975 161.047C167.475 162.238 132.051 162.542 129.27 160.276C128.515 159.661 128.615 157.829 128.617 157.198C130.732 156.653 169.435 156.584 171.55 157.13C171.666 157.75 171.482 160.331 169.975 161.047Z" fill="#D81616"/>
<path d="M166.053 147.601C168.973 148.379 172.713 157.45 171.325 158.28C169.378 159.444 128.252 159.926 128.617 157.735C128.807 156.6 132.628 147.754 133.907 147.497C138.56 146.563 162.706 146.709 166.053 147.601Z" fill="#FF3131"/>
<path opacity="0.19" d="M129.548 156.888C129.643 156.126 130.344 152.461 131.183 148.93C129.914 152.399 128.721 156.359 128.617 157.198C128.474 158.365 134.796 158.969 142.617 159.177C135.221 158.756 129.411 158.003 129.548 156.888Z" fill="white"/>
<path d="M138.662 149.812C139.117 150.16 143.415 145.017 142.998 144.623C136.771 138.742 125.572 122.481 124.08 120.553C122.559 124.66 120.083 130.095 121.204 132.713C122.619 136.013 128.769 142.252 138.662 149.812Z" fill="#FFC19F"/>
<path d="M112.654 116.867C112.361 115.61 122.971 105.245 123.975 104.807C124.24 104.692 127.717 112.186 127.794 112.465C128.89 116.448 130.287 122.191 132.409 129.279C129.545 130.745 123.278 133.332 119.267 133.729C117.056 129.081 113.389 120.026 112.654 116.867Z" fill="#FF9B06"/>
<path opacity="0.11" d="M74.5333 150.663C74.5333 151.949 83.3244 152.992 94.1679 152.992C105.012 152.992 113.803 151.949 113.803 150.663C113.803 149.378 105.011 148.335 94.1679 148.335C83.3235 148.335 74.5333 149.378 74.5333 150.663Z" fill="black"/>
<path opacity="0.11" d="M52.0271 152.138C51.3286 153.186 64.328 153.496 66.5397 154.156C75.6495 156.873 86.2441 159.355 89.3568 159.355C92.578 159.355 95.7983 158.779 95.7983 157.493C95.7983 156.207 77.056 152.256 66.5259 149.664C62.7277 148.729 52.7394 151.068 52.0271 152.138Z" fill="black"/>
<path d="M87.12 137.021C86.9598 138.006 85.3819 144.924 85.3699 145.826C94.3315 148.677 101.281 151.617 108.691 152.085C111.113 152.238 113.786 151.755 115.422 150.26C118.262 147.661 117.727 142.874 116.718 141.671C114.395 141.773 93.3238 137.551 87.12 137.021Z" fill="#E0956C"/>
<path d="M99.1762 146.442C100.075 147.18 105.189 150.354 108.688 151.188C111.575 151.876 114.308 151.579 115.95 149.916C117.155 148.695 118.12 145.199 117.888 143.567C117.415 140.234 113.31 137.488 110.472 136.058C105.476 134.825 100.036 142.96 99.1762 146.442Z" fill="#FFC19F"/>
<path d="M85.8127 126.133C84.8575 128.811 82.4502 142.239 82.4132 143.484C87.481 142.893 89.8263 143.69 91.3697 144.262C95.1886 145.676 100.662 148.592 105.271 150.323C105.834 149.882 108.458 147.686 109.151 146.637C110.031 145.303 113.238 141.437 113.654 137.595C110.497 135.243 104.206 130.354 99.5605 128.506C99.4011 128.442 92.2783 127.465 85.8127 126.133Z" fill="#443242"/>
<path d="M95.9722 148.67C96.3046 150.443 89.9975 157.727 89.7563 158.535C85.443 157.672 75.3634 154.77 70.3585 153.463C69.9675 150.265 70.9158 144.176 73.0621 142.624C77.9197 143.371 91.9095 147.625 95.9722 148.67Z" fill="#FFC19F"/>
<path d="M67.2519 137.916C67.0736 137.842 62.5312 151.779 62.7569 151.841C64.9643 152.45 69.9821 153.832 71.8434 154.377C72.0113 153.757 71.2422 153.227 71.4403 152.18C71.7702 150.437 73.7124 148.142 74.646 145.85C76.0878 142.308 75.3212 141.238 75.3212 141.238L67.2519 137.916Z" fill="#F9E9A7"/>
<path d="M55.1922 152.183C55.8666 152.411 63.296 151.964 65.1219 152.548C62.0049 149.397 64.9031 149.696 66.0323 149.769C68.3543 149.919 71.6978 149.198 73.485 147.851C75.0887 146.643 75.9775 144.946 75.254 142.967C74.0706 141.058 71.7176 137.963 70.3852 135.853C70.3852 135.853 56.8105 142.755 53.3766 149.159C53.0261 150.674 54.2439 151.863 55.1922 152.183Z" fill="#FB8F04"/>
<path d="M70.8668 136.561C70.611 136.119 70.3122 135.532 69.9323 135.267C69.2071 134.762 64.1333 137.798 60.6029 140.449C58.4067 142.1 54.9167 145.56 53.4577 147.527C53.3432 147.681 53.0857 149.055 53.3303 149.224C55.6979 146.67 60.0999 142.774 61.9112 141.528C63.9059 140.156 68.4285 136.693 70.8668 136.561Z" fill="#C55C02"/>
<path opacity="0.19" d="M89.7556 158.535C87.5877 158.101 82.9187 156.649 80.7199 155.109C78.378 153.47 71.2776 142.873 69.8548 140.248C71.834 140.364 92.9234 148.615 95.7001 149.329C96.0326 151.103 89.9967 157.727 89.7556 158.535Z" fill="#910606"/>
<path d="M67.8145 128.8C66.65 132.447 68.0367 138.043 69.2632 139.932C74.2302 138.431 89.2991 134.452 94.4729 130.21C93.0242 127.002 87.9021 116.913 86.4018 115.413C74.2948 120.69 69.4742 123.598 67.8145 128.8Z" fill="#664A61"/>
<path opacity="0.3" d="M78.2523 119.189C77.9491 119.297 77.1034 119.784 76.8915 119.932C79.3918 132.928 90.4575 137.452 93.8148 137.701C99.8756 138.15 105.418 136.08 105.418 133.031C105.418 129.982 103.497 126.172 99.7731 126.172C96.0498 126.172 80.4245 119.456 78.2523 119.189Z" fill="black"/>
<path d="M87.8996 134.543C82.5347 131.856 78.5349 123.626 78.0689 118.659C80.2092 117.517 85.3011 114.906 93.0698 110.026C96.7906 107.689 102.8 103.267 107.715 101.469C111.505 100.082 118.839 102.232 122.202 104.767C125.954 107.595 127.465 109.99 125.875 114.313C121.167 127.119 108.578 131.19 104.844 134.375C102.64 136.255 96.689 138.945 87.8996 134.543Z" fill="#FF9B06"/>
<path d="M76.156 127.955C80.0713 128.364 81.03 129.077 82.9342 129.942C90.1259 134.65 93.9302 140.276 96.5399 143.676C97.3099 144.678 97.1816 145.755 97.0567 146.101C96.223 148.406 92.2318 157.181 88.3543 157.083C84.6129 156.348 77.4763 149.407 74.6952 146.917C72.095 144.589 69.8255 141.805 68.4863 139.389C67.4484 137.516 66.7068 134.598 67.4837 130.59C67.7722 129.106 75.026 127.837 76.156 127.955Z" fill="#664A61"/>
<path d="M98.3004 147.103C99.5226 149.949 98.9438 155.403 97.6234 156.643C95.8673 158.292 93.9923 159.267 90.2095 158.693C89.2449 158.548 85.9427 157.095 82.9412 154.128C84.954 148.691 89.9201 143.446 94.3652 143.095C95.7071 142.99 97.0593 144.212 98.3004 147.103Z" fill="#FFC19F"/>
<path opacity="0.4" d="M100.013 117.143C100.448 116.825 100.882 116.507 101.32 116.183C106.102 119.371 113.116 121.757 120.52 123.065C120.184 123.436 119.848 123.806 119.502 124.152C116.404 123.628 113.383 122.964 110.612 122.073C106.49 120.749 102.868 119.061 100.013 117.143ZM105.28 113.205C105.704 112.88 106.121 112.552 106.541 112.225C110.895 115.123 117.104 117.368 123.764 118.734C123.528 119.129 123.27 119.492 123.02 119.866C120.532 119.383 118.098 118.824 115.841 118.099C111.742 116.783 108.128 115.11 105.28 113.205ZM89.3947 124.648C89.8357 124.345 90.2784 124.042 90.7435 123.72C95.5029 127.068 102.695 129.588 110.324 130.951C109.74 131.295 109.187 131.615 108.654 131.924C105.831 131.411 103.073 130.793 100.531 129.976C96.1316 128.563 92.3239 126.73 89.3947 124.648ZM94.9069 120.812C95.3461 120.502 95.7914 120.186 96.2393 119.867C101.131 123.223 108.476 125.722 116.211 127.035C115.753 127.389 115.297 127.734 114.84 128.058C111.686 127.533 108.61 126.865 105.793 125.96C101.521 124.588 97.8034 122.82 94.9069 120.812ZM85.233 127.491C89.821 130.819 96.8086 133.358 104.284 134.781C103.819 135.115 103.279 135.449 102.604 135.759C100.071 135.266 97.601 134.688 95.3022 133.95C90.7581 132.49 86.8401 130.584 83.8773 128.416L85.233 127.491Z" fill="white"/>
<path opacity="0.24" d="M113.684 115.608C114.013 117.967 115.073 123.99 115.433 127.632C111.354 130.748 108.933 132.192 106.136 132.815C104.369 132.857 100.674 132.828 100.052 132.637C99.4423 128.464 98.5251 117.837 98.3967 115.699C101.558 113.465 111.738 115.155 113.684 115.608Z" fill="#350303"/>
<path opacity="0.19" d="M117.888 143.567C118.119 145.2 117.154 148.696 115.949 149.916C115.827 150.04 115.659 150.105 115.524 150.214C113.002 150.095 110.981 147.433 110.981 144.144C110.981 141.459 112.334 139.206 114.2 138.395C116.026 139.81 117.605 141.581 117.888 143.567Z" fill="#7F1703"/>
<path d="M111.281 153.492C111.498 154.007 117.778 151.62 117.618 151.084C115.217 143.076 113.755 123.785 113.441 121.42C110.069 124.232 105.208 127.734 104.857 130.516C104.415 134.024 106.57 142.305 111.281 153.492Z" fill="#FFC19F"/>
<path d="M120.441 114.791C123.254 115.624 125.431 113.4 126.103 108.638C122.763 104.788 118.051 101.553 111.081 100.993C110.253 101.14 109.824 101.938 110.539 102.875C111.711 104.413 112.959 106.406 113.813 107.871C114.865 109.676 116.77 113.704 120.441 114.791Z" fill="#C55C02"/>
<path d="M130.5 99.7874L124.51 110.551C123.253 112.928 121.181 114.123 119.017 112.056C115.898 109.079 115.387 106.242 112.337 102.32L117.484 92.7834L130.5 99.7874Z" fill="#FFC19F"/>
<path opacity="0.19" d="M116.764 90.2186C113.514 91.3168 112.412 96.7411 114.3 102.335C116.19 107.93 120.355 111.576 123.605 110.478C126.854 109.38 127.957 103.955 126.068 98.3612C124.178 92.7672 120.013 89.1214 116.764 90.2186Z" fill="#7F1703"/>
<path d="M98.4787 113.423C98.4864 112.144 99.6285 109.373 101.746 107.613C104.9 104.992 107.422 105.266 108.486 105.046C108.767 104.987 113.501 113.226 113.523 113.513C113.905 118.451 114.55 122.777 115.199 130.847C112.115 131.687 104.713 132.236 100.776 131.806C99.725 126.842 98.4589 116.639 98.4787 113.423Z" fill="#FF9B06"/>
<path opacity="0.08" d="M120.532 150.664C121.603 150.988 123.642 151.975 125.463 153.209C125.824 153.454 128.807 156.174 128.668 156.446C127.886 157.983 124.548 155.449 123.916 155.356C123.811 155.34 125.935 159.112 125.898 159.327C125.833 159.712 124.963 159.678 124.566 159.477C124.028 159.205 124.281 159.828 123.973 159.97C122.815 160.506 121.137 159.521 120.029 158.152C119.828 157.904 120.713 160.737 120.032 160.523C119.086 160.226 117.951 159.183 116.214 158.25C115.616 157.928 115.357 157.424 113.738 156.687C111.633 155.729 110.676 154.352 111.332 152.449C111.655 151.513 112.403 150.531 112.958 149.268C114.509 149.387 119.224 150.269 120.532 150.664Z" fill="black"/>
<path d="M120.864 150.15C121.978 150.488 124.097 151.517 125.991 152.803C126.366 153.058 128.959 156.103 128.792 156.375C127.712 158.144 125.072 154.766 124.415 154.668C124.306 154.652 126.052 157.554 125.949 157.503C126.339 158.409 126.486 158.949 126.448 159.174C126.38 159.575 125.476 159.537 125.064 159.329C124.504 159.045 124.088 158.543 124.048 158.603C124.419 159.412 124.399 159.826 124.079 159.974C122.877 160.53 121.872 159.09 120.719 157.665C120.509 157.406 119.906 157.028 119.775 156.951C119.806 157.012 120.106 157.406 120.263 157.675C120.621 158.284 121.138 159.593 121.241 159.926C121.44 160.578 120.694 160.922 119.744 160.37C119.03 159.955 118.305 158.786 117.813 158.434C117.244 158.027 115.362 157.146 113.679 156.378C111.49 155.379 110.494 153.946 111.175 151.965C111.509 150.99 112.285 149.968 112.86 148.655C114.471 148.775 119.506 149.737 120.864 150.15Z" fill="#FFC19F"/>
<path d="M120.005 157.27C119.467 156.834 118.658 156.347 117.504 155.716C117.406 155.661 117.391 155.604 117.417 155.544C117.449 155.482 117.556 155.478 117.6 155.503C118.846 156.143 119.58 156.618 120.065 157.027C120.176 157.122 120.167 157.402 120.005 157.27Z" fill="#F29D77"/>
<path d="M122.489 155.676C122.775 155.927 123.819 157.889 124.11 158.509C124.14 158.567 124.118 158.643 124.064 158.677C124.064 158.677 123.914 158.646 123.895 158.603C123.52 157.773 122.564 156.067 122.345 155.871C121.876 155.463 120.534 154.634 119.427 153.933C119.376 153.898 119.36 153.823 119.393 153.764C119.429 153.701 119.487 153.686 119.55 153.714C120.661 154.424 122.018 155.26 122.489 155.676ZM124.298 154.654C123.095 153.673 121.888 152.926 121.117 152.472C121.067 152.439 121.048 152.364 121.08 152.303C121.105 152.243 121.179 152.218 121.233 152.25C122.011 152.711 123.272 153.56 124.397 154.513C124.528 154.624 124.439 154.77 124.298 154.654Z" fill="#F29D77"/>
<path d="M138.217 149.594C140.076 151.812 144.112 152.399 145.424 152.668C146.806 152.951 148.602 153.521 149.847 153.873C150.952 154.183 150.562 152.254 149.827 151.693C149.196 151.212 148.161 150.711 147.325 150.281C146.532 149.874 145.042 149.197 145.135 148.724C145.262 148.076 146.24 147.548 146.589 147.245C144.608 147.001 138.161 149.284 138.217 149.594Z" fill="#FFC19F"/>
<path d="M150.221 144.957C151.427 145.242 154.649 148.006 155.132 148.878C155.599 149.719 151.828 148.656 150.303 148.037C148.604 147.349 146.417 146.772 146.412 145.701C146.407 144.629 148.268 144.496 150.221 144.957Z" fill="#F29D77"/>
<path d="M137.48 144.132C137.253 144.956 136.286 147.258 138.216 149.594C138.878 149.969 140.242 149.959 143.581 149.865C146.623 149.232 148.659 149.219 149.946 149.297C151.815 149.806 154.123 150.88 154.849 151.026C156.115 151.281 157.144 150.311 156.454 149.804C155.469 149.078 151.957 146.808 151.207 146.587C150.607 146.409 148.757 146.221 147.245 146.068C147.164 145.891 150.553 145.965 151.406 146.142C152.072 146.281 154.166 147.855 154.345 147.958C154.151 147.074 151.355 145.199 150.501 144.672C149.875 144.286 148.085 143.697 146.964 143.534C145.511 143.319 139.023 143.085 137.48 144.132Z" fill="#FFC19F"/>
<path d="M150.691 60.6836C150.075 62.7825 150.351 90.4641 153.589 91.0162C156.826 91.5691 160.776 83.6608 162.716 74.8198C164.566 66.3818 165.542 58.5459 160.5 55.4289C157.745 53.7261 151.428 58.1781 150.691 60.6836Z" fill="#602220"/>
<path d="M99.438 56.1783C95.8258 72.7131 98.5879 87.0001 116.05 98.1675C120.869 96.9953 159.944 74.0059 163.695 69.5557C165.183 61.973 163.8 55.6581 157.486 49.9279C149.267 42.4684 130.299 41.5615 120.773 40.0318C112.403 38.0259 101.595 46.3114 99.438 56.1783Z" fill="#602220"/>
<path d="M109.941 61.508C108.738 64.0315 108.389 91.3522 111.861 96.9101C115.017 101.962 123.29 107.994 134.556 109.916C142.556 111.281 151.39 107.2 154.304 101.438C156.671 96.7585 156.767 93.6958 157.111 89.3601C157.516 84.2725 158.616 79.7542 159.209 77.5149C160.077 74.2386 160.983 70.1587 160.631 67.667C158.98 55.9596 148.189 53.9924 135.629 51.8883C123.879 49.9194 114.298 52.3706 109.941 61.508Z" fill="#FFC19F"/>
<path d="M118.108 68.0114C117.134 77.9006 114.808 84.61 110.605 84.6272C107.383 84.641 105.735 70.373 107.347 60.5656C109.193 49.3336 112.209 45.7119 119.752 45.1693C119.615 47.6662 119.249 56.422 118.108 68.0114Z" fill="#602220"/>
<path d="M102.012 85.0993C103.198 90.4711 108.246 93.6966 111.868 93.4133C114.687 93.1928 115.416 88.5401 114.995 84.0089C114.542 79.1272 112.157 76.1222 108.475 75.7027C103.531 75.1394 100.956 80.3175 102.012 85.0993Z" fill="#FFC19F"/>
<path d="M106.792 85.1845C106.911 87.5393 109.539 89.8285 111.67 89.2334C112.387 89.0327 111.486 81.2915 110.415 81.1382C107.981 80.7911 106.672 82.8289 106.792 85.1845Z" fill="#E0956C"/>
<path d="M130.251 92.9783C131.063 90.776 134.367 91.7354 139.042 92.3246C139.287 92.3556 140.237 92.483 140.481 92.5183C145.146 93.185 147.961 92.974 147.87 95.3253C147.708 99.5731 143.619 103.563 138.846 103.194C134.09 102.824 128.655 97.3053 130.251 92.9783Z" fill="#701608"/>
<path d="M143.179 102.266C141.877 102.935 140.407 103.314 138.846 103.193C137.162 103.062 135.404 102.266 133.892 101.125C135.35 99.9478 137.404 99.4706 139.242 99.7575C140.921 100.02 142.417 100.922 143.179 102.266Z" fill="#DD6B5B"/>
<path d="M139.792 95.4303C143.245 95.8945 146.146 95.2684 146.728 93.6578L146.763 93.5596C145.789 93.0282 142.803 92.7853 141.023 92.5321C139.082 92.2556 133.485 91.5623 133.485 91.5623L133.492 91.6665C133.633 93.3744 136.341 94.966 139.792 95.4303Z" fill="white"/>
<path d="M118.683 89.043C118.47 90.3039 120.049 91.6217 122.21 91.986C124.37 92.3503 126.295 91.6251 126.509 90.3651C126.722 89.105 125.142 87.7864 122.982 87.4221C120.819 87.0569 118.895 87.783 118.683 89.043Z" fill="#FF8A8A"/>
<path d="M151.712 93.4752C151.634 94.6095 152.66 95.6035 154.004 95.6948C155.346 95.7869 156.498 94.942 156.576 93.8077C156.654 92.6734 155.628 91.6795 154.284 91.5882C152.941 91.496 151.789 92.3418 151.712 93.4752Z" fill="#FF8A8A"/>
<path d="M138.826 89.0636C138.966 89.0817 139.102 88.9973 139.143 88.8587C139.441 87.8725 140.323 87.3247 141.388 87.4634C142.461 87.6029 143.189 88.3729 143.202 89.3797C143.205 89.5408 143.338 89.6708 143.499 89.6683C143.661 89.6665 143.789 89.5339 143.787 89.372C143.771 88.0826 142.816 87.0594 141.464 86.8829C140.121 86.708 138.963 87.4332 138.583 88.6881C138.537 88.8432 138.624 89.0059 138.779 89.0524L138.826 89.0636Z" fill="#C4735B"/>
<path d="M146.542 89.1042C146.542 89.1042 152.518 92.7121 155.498 88.3867C159.13 83.1165 155.187 78.0918 152.166 78.5931C149.371 79.0573 146.521 81.9977 146.542 89.1042Z" fill="#F9FEFF"/>
<path d="M156.863 81.2468C155.945 79.0496 154.449 78.2047 152.712 78.2271C150.936 78.2486 148.954 79.7481 148.235 81.4612C149.421 79.5785 151.131 79.0505 152.176 78.8774C153.841 78.5983 155.822 79.8679 156.52 82.0047C157.14 83.9064 156.736 86.5893 155.403 88.5237C156.848 87.2766 157.82 83.5361 156.863 81.2468Z" fill="#773220"/>
<path d="M148.37 84.6781C147.539 86.6323 147.967 89.0198 149.325 90.012C150.684 91.0042 152.459 90.2239 153.289 88.2696C154.12 86.3154 153.692 83.927 152.334 82.9357C150.976 81.9435 149.2 82.7238 148.37 84.6781Z" fill="#63190D"/>
<path d="M149.011 83.5386C148.78 84.0804 148.899 84.7435 149.276 85.0183C149.653 85.2939 150.146 85.0769 150.376 84.5351C150.606 83.9934 150.488 83.3302 150.111 83.0554C149.734 82.7798 149.242 82.996 149.011 83.5386Z" fill="#FEFFFE"/>
<path d="M133.807 87.2283C133.807 87.2283 125.486 89.0508 123.029 84.0459C120.036 77.948 126.259 74.1928 129.822 75.5166C133.119 76.7422 135.799 80.3734 133.807 87.2283Z" fill="#F9FEFF"/>
<path d="M123.333 76.7732C125.065 74.9068 127.132 74.5072 129.256 75.011C131.427 75.5261 133.441 77.5243 133.848 79.3786C132.915 77.2306 130.966 76.2461 129.734 75.7888C127.771 75.0567 124.992 75.7311 123.546 77.6009C122.26 79.2641 122.013 81.9668 123.111 84.2052C121.682 82.5989 121.526 78.7171 123.333 76.7732Z" fill="#773220"/>
<path d="M127.058 81.1641C126.072 83.1011 126.681 85.5093 128.419 86.5437C130.155 87.5781 132.362 86.846 133.348 84.909C134.333 82.9719 133.724 80.5638 131.987 79.5294C130.25 78.495 128.043 79.2271 127.058 81.1641Z" fill="#63190D"/>
<path d="M127.148 80.5913C126.874 81.1288 127.044 81.7971 127.525 82.0839C128.006 82.3707 128.619 82.1675 128.893 81.63C129.167 81.0926 128.997 80.4242 128.516 80.1374C128.034 79.8506 127.422 80.0539 127.148 80.5913Z" fill="#FEFFFE"/>
<path d="M122.488 69.1853C122.7 69.1974 122.917 69.1336 123.094 68.9907C125.368 67.1742 130.555 66.8401 133.785 68.25C134.233 68.4481 134.761 68.2414 134.961 67.7883C135.158 67.337 134.951 66.8108 134.499 66.6127C130.644 64.934 124.773 65.3595 121.979 67.598C121.594 67.9063 121.532 68.467 121.84 68.852C122.004 69.0587 122.243 69.1715 122.488 69.1853Z" fill="#660303"/>
<path d="M158.549 74.0688C158.743 74.1075 158.954 74.0576 159.127 73.912C159.45 73.6416 159.524 73.1421 159.291 72.7967C157.595 70.2835 153.917 68.945 150.547 69.6099C150.15 69.6892 149.876 70.1026 149.931 70.5341C149.988 70.9682 150.354 71.2541 150.747 71.1749C153.572 70.6133 156.742 71.7313 158.118 73.7751C158.226 73.9362 158.381 74.0352 158.549 74.0688Z" fill="#660303"/>
<path d="M122.425 62.2218C121.321 63.996 119.462 65.7462 117.028 69.3394C117.362 67.4489 118.353 51.2801 118.797 48.4241C120.285 48.4568 126.141 48.5455 128.64 48.6411C128.785 48.6463 129.501 53.4944 129.36 53.4617C122.769 51.9441 124.364 59.1065 122.425 62.2218Z" fill="#602220"/>
<path d="M133.157 35.219C122.358 34.9167 118.152 40.9172 116.613 44.6406C118.338 44.9351 120.275 45.2503 121.185 45.3201C121.832 40.9431 125.063 37.1199 133.157 35.219Z" fill="#602220"/>
<path d="M163.118 50.5628C155.539 41.764 133.687 32.1925 121.655 42.5899C123.699 45.8852 133.402 50.2312 134.298 50.7876C147.94 46.5027 157.908 49.4113 163.118 50.5628Z" fill="#602220"/>
<path d="M162.501 63.1399C146.85 70.6185 125.399 52.6185 126.754 49.319C128.108 46.0203 139.381 46.0728 149.434 50.2001C159.487 54.3282 162.442 61.6301 162.501 63.1399Z" fill="#602220"/>
<path d="M193.523 137.187C193.386 137.648 193.009 138.332 192.64 141.597C192.525 142.608 194.965 145.707 196.028 146.54C196.509 146.917 196.944 145.905 196.846 145.39C196.669 144.45 195.759 143.239 194.996 141.797L196.6 135.882C196.082 135.181 193.678 136.668 193.523 137.187Z" fill="#F29D77"/>
<path d="M192.983 138.28C192.759 138.726 192.25 139.358 191.282 142.626C190.982 143.638 192.815 147.397 193.647 148.111C194.194 148.58 194.736 147.553 194.741 146.991C194.75 146.025 194.151 144.759 193.662 143.253L196.374 137.499C195.968 136.689 193.235 137.777 192.983 138.28Z" fill="#F29D77"/>
<path d="M192.817 137.828C192.398 138.1 191.903 138.626 190.028 141.085C189.389 141.923 189.117 146.516 189.363 147.267C189.539 147.807 190.383 147.429 190.716 146.903C191.256 146.049 191.424 144.535 191.79 142.809L196.166 138.843C196.217 137.945 193.289 137.521 192.817 137.828Z" fill="#F29D77"/>
<path d="M188.418 92.4959C191.104 92.3306 193.419 89.6537 192.699 87.423C189.355 84.1372 188.344 83.7427 190.339 77.0781C192.115 71.1422 189.181 56.7751 190.917 51.2535C193.927 37.2645 208.308 31.2235 220.723 31.009C234.064 30.7782 247.941 34.9184 252.467 48.8419C256.574 61.4769 258.124 67.2983 260.793 71.3239C263.212 74.9714 261.257 76.7775 261.106 79.171C262.63 81.8014 265.635 83.3836 267.203 81.6317C267.465 83.4482 265.399 84.5463 264.128 84.2061C263.518 84.0433 262.975 83.5369 262.882 83.5188C263.688 84.6221 265.342 86.5798 265.764 88.1508C266.521 90.9792 265.413 96.0599 261.314 99.0847C262.703 97.171 264.411 94.0462 263.314 91.7053C262.929 96.5396 258.096 100.782 250.889 102.633C242.212 104.861 221.334 106.397 215.311 106.769C209.206 107.146 198.355 108.343 194.566 103.202C194.752 104.614 195.479 105.423 196.226 106.205C192.128 103.712 191.055 100.945 191.02 97.8764C190.992 95.5121 192.445 92.8568 193.053 91.4271C191.482 93.7146 190.277 94.5742 188.418 92.4959Z" fill="#AA3900"/>
<path opacity="0.11" d="M239.908 154.055C240.451 157.703 248.794 158.169 253.179 155.996C256.621 154.289 257.835 150.059 260.059 148.299C260.869 147.659 271.991 143.175 272.115 142.298C272.555 139.19 258.729 138.935 257.37 138.935C255.627 138.934 239.218 149.421 239.908 154.055Z" fill="black"/>
<path opacity="0.11" d="M209.357 148.662C211.767 151.452 218.472 151.557 223.326 150.938C228.499 150.278 240.037 146.282 243.452 145.143C244.431 144.817 241.931 137.018 242.055 136.14C242.495 133.033 232.446 137.331 231.087 137.331C229.343 137.331 207.39 146.384 209.357 148.662Z" fill="black"/>
<path d="M250.419 147.129C250.419 150.772 252.565 154.075 242.193 154.075C231.82 154.075 212.857 150.772 212.857 147.129C212.857 143.486 221.265 140.532 231.638 140.532C242.01 140.532 250.419 143.486 250.419 147.129Z" fill="#992913"/>
<path d="M251.933 133.902C252.156 133.681 260.79 141.643 260.556 141.944C258.526 144.56 254.006 149.47 252.801 150.965L243.572 142.467C245.977 140.21 250.32 135.5 251.933 133.902Z" fill="#FFC19F"/>
<path d="M254.931 130.094C255.065 129.955 264.844 140.874 264.662 141.022C262.888 142.47 258.827 145.529 257.345 146.779C256.941 146.28 257.457 145.715 256.854 144.837C255.849 143.374 253.146 142.059 251.366 140.338C248.618 137.679 248.888 136.389 248.888 136.389L254.931 130.094Z" fill="#FCF6B4"/>
<path d="M268.633 142.223C267.975 142.496 261.649 144.37 259.541 145.217C262.436 141.861 259.012 142.128 257.89 142.278C255.583 142.586 252.198 142.094 250.323 140.871C248.642 139.774 247.64 138.141 248.228 136.117C249.279 134.133 251.416 130.884 252.602 128.69C252.602 128.69 266.378 132.926 270.239 139.083C270.691 140.57 269.556 141.84 268.633 142.223Z" fill="#FF9B06"/>
<path d="M252.169 129.429C252.395 128.97 252.652 128.364 253.013 128.075C253.702 127.522 259.097 129.871 262.799 132.278C265.102 133.775 268.856 136.601 270.444 138.465C270.569 138.611 270.575 139.771 270.343 139.955C267.881 137.882 263.154 134.829 261.441 133.777C259.378 132.51 254.611 129.393 252.169 129.429Z" fill="#C55C02"/>
<path d="M223.685 148.628C222.623 149.108 216.847 150.836 213.252 150.706C210.286 150.599 207.732 149.568 206.594 147.492C205.759 145.969 205.763 142.278 206.423 140.74C207.77 137.599 212.459 136.016 215.576 135.383C220.718 135.526 223.787 144.979 223.685 148.628Z" fill="#FFC19F"/>
<path d="M241.666 130.943C242.019 133.846 241.204 145.604 240.97 146.86C238.035 145.962 236.236 151.259 230.948 151.177C223.702 151.064 221.081 146.336 219.149 142.423C217.131 138.336 213.72 136.503 212.17 136.463C212.113 136.488 211.634 136.65 211.547 136.68C211.521 136.402 211.729 136.176 211.992 136.055C215.584 134.42 222.787 130.96 227.725 130.171C227.894 130.145 235.062 130.797 241.666 130.943Z" fill="#F95006"/>
<path d="M244.94 134.706C241.745 135.685 239.235 137.37 239.035 137.955C238.656 139.068 237.029 144.755 236.904 146.073C236.558 149.676 237.628 145.955 243.571 146.421C248.104 146.776 253.018 153.184 253.289 152.886C254.136 151.95 257.209 146.779 258.173 144.792C259.05 142.25 259.43 137.838 259.459 134.8C259.475 133.114 247.404 133.952 244.94 134.706Z" fill="#F95006"/>
<path d="M243.339 141.636C241.91 142.056 239.996 142.88 238.545 145.425C237.925 146.51 236.708 151.266 238.768 153.79C240.171 155.507 243.578 157.171 247.148 156.822C252.068 156.34 256.5 149.604 251.61 143.783C249.781 141.605 245.391 141.034 243.339 141.636Z" fill="#FFC19F"/>
<path d="M201.368 139.206C200.932 139.526 196.722 134.293 197.119 133.926C203.058 128.447 213.669 113.024 215.085 111.204C216.603 115.296 219.059 120.733 218.009 123.246C216.684 126.416 210.824 132.249 201.368 139.206Z" fill="#FFC19F"/>
<path d="M207.584 119.502C210.526 121.349 216.516 123.784 220.147 124.621C221.303 123.506 226.539 115.129 226.714 114.802C230.36 107.984 219.06 98.3932 218.99 97.8472C216.909 98.891 215.726 99.5534 214.729 100.622C213.43 102.013 209.965 112.776 207.584 119.502Z" fill="#FF9700"/>
<path d="M255.352 125.252C256.932 128.564 258.57 131.786 259.459 134.8C257.54 134.8 241.48 139.04 239.405 138.692C239.151 136.246 238.558 131.652 238.558 131.124C238.558 128.681 254.563 123.6 255.352 125.252Z" fill="#F95006"/>
<path d="M216.276 99.2199C217.835 98.3526 221.35 96.1175 227.814 94.6534C236.64 92.6543 242.754 92.675 245.496 93.0884C247.528 100.209 249.258 108.861 250.943 113.362C253.154 119.273 255.003 123.394 256.477 127.663C251.712 134.998 243.345 136.701 236.74 137.159C227.869 137.775 224.786 131.943 221.678 131.972C221.036 131.485 221.128 130.204 222.588 129.59C219.743 119.345 216.72 105.673 216.276 99.2199Z" fill="#F95006"/>
<path d="M219.514 97.5344C219.504 98.0124 219.628 98.4775 219.676 98.965C220.054 102.79 224.865 104.6 228.538 103.618C233.279 102.349 237.696 98.5473 236.856 94.4175C236.765 93.9722 236.565 93.5674 236.347 93.1824C233.845 93.4718 230.989 93.936 227.814 94.6543C224.01 95.5147 221.374 96.6034 219.514 97.5344Z" fill="#FFC19F"/>
<path d="M217.7 88.5211L220.752 98.3793C221.575 100.785 224.067 102.372 227.62 101.406C232.044 100.203 233.79 96.7885 234.809 94.2702L231.738 83.8926L217.7 88.5211Z" fill="#FFC19F"/>
<path opacity="0.19" d="M233.743 86.5195C235.703 88.485 234.285 93.0773 230.575 96.7774C226.866 100.477 222.269 101.885 220.309 99.9202C218.349 97.9556 219.768 93.3624 223.477 89.6624C227.186 85.9623 231.783 84.555 233.743 86.5195Z" fill="#7F1703"/>
<path d="M250.006 127.742L241.753 129.023L238.178 127.9L236.266 128.42L233.217 131.412L225.462 133.772L226.077 136.866C226.077 136.866 230.785 135.669 230.79 135.758L233.4 134.981C233.904 134.831 234.323 134.624 234.522 134.427L236.753 132.205C237.253 131.708 238.908 131.293 239.554 131.503L242.439 132.443C242.696 132.527 243.156 132.515 243.669 132.409L245.974 131.938C245.923 131.9 250.8 130.849 250.8 130.849L250.006 127.742Z" fill="#B5B5B5"/>
<path d="M250.507 127.94L249.823 128.83L245.361 131.312L246.015 133.879L238.783 134.83L231.781 137.381L231.143 134.88L225.201 134.389L226.023 137.617C226.083 137.848 226.299 138.155 227.015 138.185L230.343 138.331L230.871 140.403C230.903 140.524 230.969 140.634 231.068 140.723C231.602 141.212 233.086 140.925 233.907 140.565L238.856 138.462C239.242 138.296 239.74 138.172 240.161 138.138L245.445 137.675C245.698 137.652 245.997 137.602 246.299 137.525C247.062 137.331 247.855 136.971 248.05 136.477C248.108 136.332 248.096 136.184 248.054 136.045L247.561 134.091L250.72 132.247C251.343 131.884 251.401 131.521 251.353 131.285L250.507 127.94Z" fill="#C4C4C4"/>
<path d="M248.517 127.516L242.744 128.694C242.268 128.79 241.902 128.787 241.766 128.743L238.88 127.803C238.066 127.53 236.215 127.994 235.583 128.62L233.348 130.845C233.236 130.958 232.911 131.135 232.433 131.278L226.766 132.963C226.134 133.15 225.09 133.572 225.179 134.289C225.207 134.521 225.377 134.912 226.188 134.947L230.572 135.14L230.053 136.8C229.975 137.054 230.046 137.311 230.241 137.487C230.775 137.975 232.259 137.688 233.081 137.328L238.029 135.226C238.415 135.06 238.913 134.936 239.334 134.901L244.618 134.439C244.871 134.415 245.17 134.365 245.473 134.289C246.235 134.094 247.028 133.734 247.224 133.241C247.318 133.001 247.271 132.744 247.103 132.555L245.976 131.298L249.894 129.01C250.62 128.586 250.591 128.158 250.506 127.938C250.251 127.274 249.15 127.386 248.517 127.516ZM249.649 128.59L245.765 130.857C245.419 131.058 245.283 131.258 245.403 131.391L246.739 132.882C247.038 133.217 245.76 133.849 244.576 133.952L239.291 134.414C238.821 134.455 238.278 134.591 237.837 134.778L232.892 136.88C231.784 137.35 230.384 137.389 230.522 136.945L231.139 134.963C231.194 134.787 230.994 134.671 230.603 134.654L226.209 134.461C225.226 134.418 225.638 133.809 226.907 133.432L232.574 131.746C233.078 131.596 233.497 131.389 233.695 131.191L235.927 128.97C236.427 128.472 238.082 128.057 238.728 128.268L241.613 129.207C241.87 129.291 242.33 129.279 242.843 129.173L248.615 127.994C249.908 127.73 250.519 128.082 249.649 128.59Z" fill="#E5E5E5"/>
<path opacity="0.2" d="M251.093 125.517C250.535 125.084 249.922 124.933 249.364 125.096C248.076 125.584 246.959 126.06 246.025 126.522C245.955 126.546 239.109 128.991 238.141 129.958C237.415 130.688 236.19 132.872 235.62 134.103C235.408 134.562 235.465 134.985 235.774 135.234C236.07 135.475 236.502 135.489 236.98 135.304L237.446 135.184C237.135 136.265 236.917 137.237 236.872 137.623C236.846 137.86 236.986 138.08 237.244 138.213C237.696 138.443 238.396 138.392 238.939 137.899C239.495 137.398 239.906 136.559 240.264 135.773C239.842 137.207 239.483 139.348 239.717 140.139L239.78 140.253C239.892 140.382 240.031 140.477 240.19 140.535C240.328 140.585 240.482 140.608 240.646 140.598C241.047 140.576 241.43 140.364 241.649 140.045C241.931 139.632 242.277 138.647 242.584 137.778C242.68 137.516 242.768 137.264 242.844 137.055C242.529 137.984 242.266 139.644 242.253 139.726C242.191 140.111 242.342 140.431 242.656 140.584C243.071 140.769 243.628 140.635 243.993 140.25C244.403 139.805 244.605 139.343 244.885 138.704C244.983 138.483 245.09 138.235 245.222 137.958C246.218 137.06 247.274 136.238 249.388 134.954C250.356 134.365 252.163 133.272 252.917 130.348C252.972 128.311 252.259 126.414 251.093 125.517Z" fill="#5E1C0D"/>
<path d="M247.378 126.392C246.37 126.667 239.235 129.299 238.36 130.178C237.707 130.832 236.524 132.884 235.9 134.234C235.502 135.094 236.387 135.48 237.446 134.686C238.16 134.151 239.682 131.887 240.259 131.443C240.811 131.018 245.352 128.273 245.98 128.269C245.932 127.69 248.021 127.154 247.378 126.392Z" fill="#FFC19F"/>
<path opacity="0.18" d="M242.268 129.223C241.403 129.609 238.6 131.826 238.346 132.279C238.115 132.691 237.747 133.862 237.561 134.614C238.091 134.032 239.766 132.155 240.173 131.613C240.446 131.249 242.906 128.938 242.268 129.223Z" fill="#6B1808"/>
<path d="M249.452 125.394C250.883 124.976 252.695 127.132 252.603 130.34C251.901 133.033 250.214 134.09 249.225 134.69C246.95 136.073 245.888 136.936 244.965 137.77C244.44 138.878 244.278 139.479 243.76 140.041C243.299 140.54 242.446 140.467 242.556 139.776C242.687 138.954 242.997 137.335 243.279 136.804C243.58 136.236 244.226 135.439 245.166 134.155C245.128 133.958 242.952 136.079 242.729 136.52C242.468 137.036 241.81 139.256 241.39 139.872C241.095 140.305 240.37 140.463 240.012 140.051C239.726 139.08 240.467 135.583 240.989 134.737C241.481 133.939 243.061 132.442 243.753 131.698C242.929 132.216 241.393 133.433 240.7 134.187C240.136 135.067 239.608 136.874 238.731 137.669C238.059 138.278 237.142 138.006 237.18 137.657C237.253 136.993 237.905 134.377 238.624 132.706C238.941 131.968 241.815 129.549 242.717 128.933C243.637 128.305 244.679 127.199 249.452 125.394Z" fill="#FFC19F"/>
<path d="M251.713 131.328C251.296 131.693 246.6 127.167 246.945 126.733C252.101 120.246 257.962 107.968 259.12 105.908C259.12 105.908 264.962 110.093 264.382 114.655C263.814 119.127 257.881 125.945 251.713 131.328Z" fill="#FFC19F"/>
<path opacity="0.3" d="M250.795 112.927C250.697 112.65 250.597 112.354 250.498 112.051C241.169 116.103 230.688 118.654 219.995 119.45C220.067 119.75 220.136 120.051 220.209 120.351C226.035 119.914 231.812 119.004 237.373 117.569C242.041 116.364 246.53 114.789 250.795 112.927Z" fill="white"/>
<path d="M263.197 107.412C260.855 110.056 257.343 114.144 253.218 116.759C251.873 115.931 250.566 114.87 247.889 112.62C246.531 108.972 243.427 96.1925 243.194 92.8171C245.057 92.8559 248.267 93.0893 249.364 93.8257C251.731 95.4165 258.405 102.285 263.197 107.412Z" fill="#FF9700"/>
<path d="M193.503 80.6137C195.253 84.6867 198.79 86.4342 200.897 85.2784C203.005 84.1226 202.634 80.4259 201.316 76.3796C199.995 72.3333 197.214 69.9803 195.11 71.1465C192.233 72.7399 191.858 76.7853 193.503 80.6137Z" fill="#F7A981"/>
<path d="M251.415 50.6971C255.874 71.8536 240.194 85.7478 222.621 87.4911C205.048 89.2343 190.776 75.5787 190.491 54.5746C190.333 42.912 199.622 33.1571 216.422 31.6034C234.302 29.9489 247.957 34.2975 251.415 50.6971Z" fill="#AA3900"/>
<path d="M242.413 46.4829C244.347 49.7988 244.923 80.3734 241.754 85.0037C238.394 89.9147 229.423 95.2753 218.845 96.215C212.312 96.7955 203.959 92.9602 200.522 88.2731C196.455 82.7265 193.206 57.0008 193.847 53.6126C195.219 46.3657 205.988 43.2212 218.635 41.9611C230.467 40.782 237.397 37.8778 242.413 46.4829Z" fill="#FFC19F"/>
<path d="M240.149 63.7558C239.589 70.5625 240.095 76.7586 244.156 76.2728C248.217 75.7862 251.749 59.222 250.602 49.6515C249.29 38.6908 238.858 32.5051 229.348 40.9181C240.583 44.6715 240.84 55.3617 240.149 63.7558Z" fill="#AA3900"/>
<path d="M238.316 78.4915C238.46 79.7404 236.84 80.9522 234.698 81.1985C232.558 81.4448 230.704 80.6318 230.561 79.3821C230.418 78.1332 232.038 76.9205 234.179 76.6751C236.32 76.4296 238.172 77.2427 238.316 78.4915Z" fill="#FF8A8A"/>
<path d="M204.477 81.1864C204.494 82.3044 203.149 83.2311 201.473 83.2578C199.797 83.2836 198.424 82.3983 198.408 81.2803C198.391 80.1624 199.735 79.2356 201.411 79.2089C203.087 79.1831 204.459 80.0685 204.477 81.1864Z" fill="#FF8A8A"/>
<path d="M217.951 77.9317C217.814 77.9429 217.684 77.8533 217.65 77.7146C217.405 76.7319 216.566 76.1505 215.513 76.2349C214.454 76.3193 213.7 77.0402 213.638 78.029C213.628 78.1875 213.491 78.308 213.333 78.2977C213.175 78.2874 213.054 78.1513 213.064 77.9928C213.144 76.7276 214.132 75.7681 215.468 75.6622C216.796 75.5562 217.898 76.3254 218.21 77.5768C218.248 77.731 218.154 77.8869 218 77.9256L217.951 77.9317Z" fill="#C4735B"/>
<path d="M253.195 74.9681C251.647 80.2469 246.393 83.1235 242.798 82.5947C240 82.183 239.588 77.4925 240.315 72.9992C241.098 68.1605 243.681 65.3234 247.384 65.1546C252.354 64.929 254.573 70.2698 253.195 74.9681Z" fill="#FFC19F"/>
<path d="M248.42 74.7294C248.141 77.0712 245.363 79.1771 243.278 78.439C242.576 78.1909 244.001 70.5281 245.079 70.448C247.531 70.2654 248.699 72.3876 248.42 74.7294Z" fill="#E0956C"/>
<path d="M246.646 51.5169C246.346 47.9555 243.269 39.2686 236.294 36.5013C227.301 32.9322 210.506 32.1493 195.195 44.4217C198.351 52.9665 215.452 54.6167 222.302 53.2662C219.924 52.5074 216.606 50.6436 216.441 48.9537C219.861 50.9622 247.332 59.6689 246.646 51.5169Z" fill="#AA3900"/>
<path d="M235.762 57.9154C236.011 57.9189 236.26 57.8241 236.44 57.6321C236.779 57.2763 236.754 56.7243 236.385 56.397C233.702 54.0233 228.837 53.3084 224.817 54.6916C224.345 54.8553 224.101 55.3557 224.27 55.8096C224.44 56.2661 224.96 56.5029 225.43 56.3393C228.798 55.1748 232.982 55.7527 235.161 57.6837C235.33 57.8353 235.546 57.9128 235.762 57.9154Z" fill="#6D1403"/>
<path d="M196.856 60.8387C196.653 60.8774 196.434 60.8283 196.256 60.6853C195.923 60.4192 195.858 59.9274 196.108 59.5855C197.936 57.105 201.809 55.7795 205.315 56.4298C205.727 56.5073 206.006 56.9147 205.938 57.3401C205.87 57.7682 205.481 58.0515 205.071 57.9732C202.131 57.4245 198.795 58.5313 197.312 60.5484C197.197 60.7069 197.033 60.8051 196.856 60.8387Z" fill="#6D1403"/>
<path d="M209.085 68.5307C211.102 71.2877 211.172 74.5184 209.745 75.8749C207.594 77.9187 202.165 78.9307 199.885 76.4563C197.676 74.0593 198.213 69.2835 201.258 66.9787C203.924 64.9599 207.133 65.8625 209.085 68.5307Z" fill="#F9FEFF"/>
<path d="M198.813 68.6238C200.92 63.8833 207.099 64.8763 209.152 68.6246C207.137 65.8685 203.816 65.2691 201.351 67.1329C199.828 68.2861 198.842 70.1853 198.714 72.2127C198.611 73.8293 199.093 75.5898 200.011 76.5854C199.002 75.9722 197.263 72.1102 198.813 68.6238Z" fill="#AD3C23"/>
<path d="M206.945 71.7148C207.846 73.6699 207.201 76.0436 205.506 77.0177C203.81 77.9918 201.706 77.1977 200.805 75.2426C199.904 73.2884 200.549 70.9138 202.244 69.9397C203.939 68.9656 206.044 69.7597 206.945 71.7148Z" fill="#872C04"/>
<path d="M206.263 71.2274C206.513 71.7691 206.334 72.428 205.863 72.6984C205.393 72.9689 204.809 72.7484 204.559 72.2058C204.309 71.6632 204.488 71.0043 204.959 70.7338C205.429 70.4651 206.012 70.6856 206.263 71.2274Z" fill="#FEFFFE"/>
<path d="M222.624 67.6101C220.924 70.7236 221.506 73.9052 223.383 74.9448C226.21 76.5114 232.503 76.4003 234.554 73.5107C236.541 70.7116 234.965 66.1382 231.082 64.4974C227.68 63.0608 224.268 64.5973 222.624 67.6101Z" fill="#F9FEFF"/>
<path d="M234.158 65.6144C230.828 61.395 224.103 63.624 222.567 67.716C224.264 64.6041 227.865 63.3415 231.008 64.6687C232.951 65.4895 234.444 67.1518 235.001 69.1129C235.446 70.677 235.264 72.5012 234.439 73.6631C235.445 72.8569 236.607 68.7168 234.158 65.6144Z" fill="#AD3C23"/>
<path d="M222.716 71.9464C222.602 70.4082 223.397 68.8785 224.857 68.1292C226.801 67.1301 229.188 67.8975 230.187 69.8415C231.186 71.7862 230.42 74.1728 228.475 75.1719C226.53 76.171 224.143 75.4036 223.144 73.4597C222.894 72.9731 222.754 72.4589 222.716 71.9464Z" fill="#872C04"/>
<path d="M229.834 69.5226C230.111 70.0627 229.899 70.7241 229.359 71.0015C228.818 71.2788 228.157 71.066 227.88 70.526C227.602 69.986 227.815 69.3245 228.355 69.0472C228.895 68.7707 229.557 68.9826 229.834 69.5226Z" fill="#FEFFFE"/>
<path d="M226.342 81.3346C225.817 79.2865 222.213 80.0435 217.383 80.3725C217.13 80.3898 216.148 80.4638 215.895 80.4854C211.07 80.885 208.202 80.5749 208.132 82.6885C208.004 86.5075 212.443 90.7415 217.348 90.3875L217.433 90.3815C222.706 89.987 227.354 85.2793 226.342 81.3346Z" fill="#701608"/>
<path d="M222.557 88.5719C221.13 87.4264 219.267 86.8579 217.349 87.0026C215.456 87.1456 213.745 87.9509 212.514 89.2618C213.442 89.7854 214.47 90.1825 215.549 90.347C216.133 90.4366 216.744 90.4658 217.35 90.4219L217.435 90.4159C218.741 90.3186 220.008 89.9508 221.161 89.3961L221.249 89.3505C221.71 89.124 222.14 88.8544 222.557 88.5719Z" fill="#DD6B5B"/>
<path d="M216.842 83.1132C213.468 83.3682 210.574 82.4509 210.11 80.9798L210.083 80.8894C210.083 80.8894 214.077 80.5285 215.887 80.3769C217.784 80.2176 223.19 79.8998 223.19 79.8998L223.177 79.9928C222.936 81.5181 220.213 82.8591 216.842 83.1132Z" fill="white"/>
<path d="M245.108 47.5387C239.838 36.8408 228.35 32.959 217.757 33.1717C204.331 33.4404 195.561 40.7613 193.477 45.7481C196.547 42.179 201.951 36.9484 216.642 36.5626C226.238 36.3102 238.303 39.5969 245.108 47.5387Z" fill="#F49000"/>
<path d="M238.675 41.8656C235.852 41.9655 231.711 42.0137 230.26 40.8785C229.344 40.1619 231.15 35.784 234.296 34.8056C235.959 34.2889 239.318 36.6703 240.103 39.4221C240.5 40.8148 240.019 41.8182 238.675 41.8656Z" fill="#FFA10B"/>
<path d="M239.85 43.0067C241.212 47.3725 242.668 50.2027 244.107 50.3896C246.381 50.685 250.619 46.9617 249.938 44.5234C249.255 42.0799 243.79 39.8578 241.42 40.4849C239.936 40.8776 239.413 41.6045 239.85 43.0067Z" fill="#FFA10B"/>
<g opacity="0.35">
<path d="M239.195 40.4452C238.831 39.6442 237.496 37.5935 236.692 38.8225C235.639 40.4297 238.415 40.5856 239.195 40.4452Z" fill="#C12400"/>
</g>
<g opacity="0.35">
<path d="M240.976 41.5847C241.942 41.7397 244.977 42.378 243.549 43.644C242.063 44.9618 241.208 42.4942 240.976 41.5847Z" fill="#C12400"/>
</g>
<path d="M238.764 40.4738C238.264 41.3023 238.391 42.2971 239.048 42.6959C239.706 43.0946 240.645 42.7458 241.146 41.9173C241.646 41.0887 241.519 40.0939 240.861 39.6952C240.204 39.2964 239.265 39.6452 238.764 40.4738Z" fill="#FFA10B"/>
<path d="M185.565 144.961C185.994 143.792 187.385 141.162 187.94 140.046C188.293 139.337 190.234 137.491 191.705 136.354C192.49 135.747 194.681 134.658 199.214 132.327C199.715 132.069 202.386 134.272 202.554 135.159C203.298 139.087 201.624 141.339 199.972 143.037C199.225 143.804 197.229 144.84 196.091 146.262C195.265 147.294 194.524 145.898 194.716 144.954C195.232 142.416 197.374 141.156 196.67 140.414C196.024 139.735 193.866 139.855 193.039 140.245C191.418 141.01 190.752 141.289 190.194 141.996C189.205 143.247 188.5 144.824 187.375 145.64C186.627 146.18 185.211 145.925 185.565 144.961Z" fill="#FFC19F"/>
<path d="M240.977 95.6371C241.037 96.5397 240.354 97.3209 239.451 97.3812C238.547 97.4414 237.766 96.7585 237.706 95.855C237.645 94.9523 238.329 94.1712 239.232 94.1109C240.135 94.0506 240.916 94.7344 240.977 95.6371Z" fill="#8E1F09"/>
<path d="M219.549 100.529C219.757 101.409 219.39 102.271 218.73 102.452C218.07 102.634 217.367 102.068 217.16 101.188C216.952 100.308 217.319 99.4464 217.979 99.2647C218.639 99.0829 219.342 99.6488 219.549 100.529Z" fill="#8E1F09"/>
<path opacity="0.12" d="M258.022 160.599C257.983 160.334 267.695 161.4 268.006 161.361C270.452 161.056 272.141 161.064 271.971 161.424C271.747 161.896 269.688 162.269 268.778 162.668C266.776 163.546 264.653 163.502 264.104 163.429C263.442 163.342 263.763 162.953 263.061 162.953C258.736 162.953 255.563 162.926 254.61 162.108C254.259 161.805 256.032 161.106 258.022 160.599Z" fill="#280303"/>
<path d="M271.736 161.058C271.799 161.751 269.687 161.902 268.778 162.435C266.776 163.61 264.563 163.411 264.079 163.322C263.423 163.203 264.159 162.523 263.457 162.523C259.132 162.523 254.202 162.609 254.364 161.692C254.644 160.099 259.636 159.784 263.712 157.11C267.329 154.737 271.589 159.447 271.736 161.058Z" fill="#FFBC00"/>
<path d="M263.267 158.288C263.267 159.001 259.979 160.007 258.634 160.007C257.289 160.007 258.395 159.001 258.395 158.288C258.395 157.576 259.486 156.999 260.831 156.999C262.176 156.999 263.267 157.576 263.267 158.288Z" fill="#FFBC00"/>
<path opacity="0.12" d="M250.272 170.817C250.272 171.07 251.381 171.275 252.75 171.275C254.119 171.275 255.228 171.07 255.228 170.817C255.228 170.563 254.119 170.358 252.75 170.358C251.382 170.358 250.272 170.563 250.272 170.817Z" fill="#280303"/>
<path d="M255.879 169.757C255.881 170.114 255.502 171.045 253.855 171.045C252.209 171.045 250.815 171.158 250.815 170.304C250.815 169.45 252.347 168.07 253.681 168.07C255.328 168.07 255.873 168.903 255.879 169.757Z" fill="#FFBC00"/>
<path opacity="0.12" d="M252.901 165.125C252.901 165.321 251.97 165.354 250.914 165.354C249.859 165.354 248.991 165.354 248.991 165.158C248.991 164.962 249.759 164.925 251.356 164.662C252.31 164.504 252.901 164.93 252.901 165.125Z" fill="#280303"/>
<path d="M252.901 164.622C252.901 165.186 251.97 165.279 250.914 165.279C249.859 165.279 248.991 165.28 248.991 164.716C248.991 164.152 249.759 164.044 251.356 163.287C252.31 162.834 252.901 164.057 252.901 164.622Z" fill="#FFBC00"/>
<path opacity="0.12" d="M271.86 157.567C271.86 157.667 272.196 157.742 272.832 157.742C273.469 157.742 273.83 157.64 273.83 157.541C273.83 157.441 273.469 157.382 272.832 157.382C272.196 157.383 271.86 157.468 271.86 157.567Z" fill="#280303"/>
<path d="M271.86 156.738C271.86 157.229 272.196 157.602 272.832 157.602C273.469 157.602 273.83 157.099 273.83 156.608C273.83 156.117 273.469 155.826 272.832 155.826C272.196 155.825 271.86 156.247 271.86 156.738Z" fill="#FFBC00"/>
<path opacity="0.12" d="M101.93 166.51C101.981 166.948 106.172 168.89 108.631 168.923C110.306 168.947 116.423 167.032 115.616 166.76C115.004 166.554 110.812 165.227 108.812 165.217C106.875 165.208 101.841 165.753 101.93 166.51Z" fill="#380101"/>
<path d="M109.471 163.834C109.502 164.332 111.082 166.756 112.269 167.079C113.797 167.495 116.001 166.241 116.024 165.171C116.03 164.875 115.006 165.292 114.265 164.321C114.077 164.074 113.592 162.877 113.341 162.672C112.344 161.856 111.583 162.176 111.415 160.566C109.799 160.667 109.401 162.696 109.471 163.834Z" fill="#FF2C2C"/>
<path d="M102.204 161.703C103.242 161.095 107.982 162.951 109.27 162.966C110.459 162.981 110.419 162.892 111.692 163.568C111.9 163.956 112.038 164.225 112.328 164.462C112.53 164.627 112.879 166.161 113.105 166.267C113.312 166.364 113.94 165.245 114.545 165.169C115.29 165.075 115.683 166.28 116.024 165.172C115.96 165.997 115.8 166.696 115.535 166.868C114.981 167.225 111.581 168.345 109.059 168.368C107.252 168.384 102.979 167.262 102.274 166.557C101.857 166.138 101.404 162.171 102.204 161.703Z" fill="#E01E1E"/>
<path d="M102.004 162.072C102.056 162.509 106.641 164.004 109.097 163.899C109.637 163.875 110.633 163.757 111.691 163.569C111.415 163.283 110.995 162.936 111.11 162.588C111.208 162.291 110.61 161.438 110.766 161.116C110.928 160.782 111.115 160.616 111.489 160.586C110.335 160.354 109.208 160.194 108.5 160.19C106.564 160.179 101.914 161.314 102.004 162.072Z" fill="#FF3B36"/>
<g opacity="0.19">
<path d="M110.766 161.114V161.161C110.723 161.01 110.702 160.875 110.746 160.783C110.808 160.656 110.883 160.574 110.961 160.493C111.142 160.526 111.306 160.547 111.489 160.584C111.116 160.615 110.928 160.78 110.766 161.114Z" fill="white"/>
<path d="M111.092 162.422C111.098 162.461 111.105 162.537 111.105 162.537C111.091 162.499 111.097 162.46 111.092 162.422Z" fill="white"/>
<path d="M109.077 163.567C109.57 163.546 111.604 163.477 111.691 163.567C110.809 163.725 109.969 163.833 109.402 163.878C109.289 163.887 109.039 165.552 108.95 165.557C108.732 165.566 108.645 163.903 108.399 163.889C105.863 163.745 102.053 162.47 102.005 162.071C101.998 162.007 102.067 161.938 102.122 161.87C102.784 162.412 106.812 163.664 109.077 163.567Z" fill="white"/>
</g>
<path opacity="0.12" d="M73.6496 171.734C73.6496 171.912 70.5628 172.056 66.7542 172.056C62.9465 172.056 59.8588 171.912 59.8588 171.734C59.8588 171.557 67.0074 169.309 70.8151 169.309C74.6237 169.309 73.6496 171.556 73.6496 171.734Z" fill="#280303"/>
<path opacity="0.12" d="M70.8133 169.785C70.8512 170.438 75.3884 172.978 77.8483 172.997C79.3245 173.008 84.2812 171.411 84.4491 171.019C84.6679 170.507 78.3108 168.474 76.3117 168.316C74.3764 168.164 70.7479 168.656 70.8133 169.785Z" fill="#280303"/>
<path d="M70.5386 164.446C71.5868 163.607 76.2102 166.722 77.4986 166.837C78.6855 166.943 82.358 164.901 83.3872 165.246C84.6352 165.663 84.314 170.151 83.5913 170.778C83.0263 171.268 79.5924 172.685 77.0689 172.539C75.261 172.434 71.0253 170.468 70.3431 169.373C69.9392 168.726 69.6997 165.117 70.5386 164.446Z" fill="#BF1FBF"/>
<path d="M70.2613 164.995C70.2992 165.648 74.8364 168.188 77.2962 168.206C78.7725 168.217 83.6783 167.416 83.9531 165.986C84.1297 165.071 78.8147 162.825 76.8157 162.667C74.8804 162.515 70.1958 163.867 70.2613 164.995Z" fill="#E03FD5"/>
<path opacity="0.19" d="M70.2614 164.995C70.2949 165.576 73.9235 167.681 76.4169 168.115C77.2214 168.254 77.1645 170.524 77.435 170.525C77.6753 170.527 77.3006 168.246 78.2575 168.147C80.2617 167.942 83.7223 167.183 83.9523 165.986C82.3899 167.056 79.5692 167.677 77.559 167.633C75.0346 167.579 71.0451 165.533 70.2614 164.995Z" fill="white"/>
<path d="M60.6546 167.404C61.0619 166.125 66.6379 166.157 67.7731 165.539C68.8204 164.97 70.7462 161.235 71.7944 160.952C73.0648 160.608 75.2834 164.523 75.0293 165.444C74.8304 166.166 72.7564 169.249 70.5748 170.524C69.0116 171.438 64.396 172.148 63.2212 171.614C62.527 171.299 60.329 168.427 60.6546 167.404Z" fill="#1571AA"/>
<path d="M60.7288 168.015C61.1224 168.537 66.3056 168.139 68.364 166.791C69.5991 165.983 73.2397 162.598 72.6765 161.256C72.3156 160.396 66.6475 161.47 64.8956 162.447C63.2006 163.392 60.0492 167.111 60.7288 168.015Z" fill="#1D93DB"/>
<path opacity="0.19" d="M60.7286 168.015C61.0783 168.48 65.265 168.222 67.5819 167.202C68.3286 166.873 69.5387 168.793 69.7652 168.645C69.9667 168.513 68.3906 166.821 69.133 166.209C70.6876 164.928 73.1483 162.379 72.6772 161.256C71.9692 163.011 69.9642 165.091 68.2666 166.168C66.1332 167.522 61.6786 168.028 60.7286 168.015Z" fill="white"/>
<path d="M288.234 174.486L288.382 170.535L283.732 169.503L276.158 168.32L270.057 168.05L266.819 168.431L263.831 169.428L263.073 170.111L262.925 174.062L263.683 173.379L265.954 172.621L265.981 172.705C266.583 172.561 267.239 172.443 268.032 172.341C272.936 171.71 280.513 172.995 284.726 173.848L284.701 173.778L284.732 173.709L288.234 174.486Z" fill="#B5B5B5"/>
<path d="M268.864 172.951L263.811 172.028L262.821 170.65L262.673 174.547C262.655 174.845 262.74 175.207 263.098 175.604C263.736 176.31 265.512 176.663 267.137 176.855C267.105 176.76 268.719 176.578 268.719 176.578L268.864 172.951Z" fill="#C4C4C4"/>
<path d="M268.864 172.951L266.705 174.304L266.558 178.236L268.074 177.152L270.169 176.634L270.316 172.702L268.864 172.951Z" fill="#B5B5B5"/>
<path d="M283.85 173.818L278.622 176.301L274.749 176.91L269.688 176.784L267.162 175.779L266.469 174.837L266.321 178.788C266.321 178.788 266.378 179.239 266.594 179.479C267.385 180.354 269.029 180.905 271.197 181.077C272.469 181.179 273.918 181.15 275.481 180.98C281.799 180.292 287.811 175.084 288.063 174.862L288.606 174.388L288.753 170.457L283.85 173.818Z" fill="#C4C4C4"/>
<path d="M288.054 170.285C287.534 170.158 275.208 167.182 268.13 168.092C266.003 168.366 263.367 168.966 262.886 170.265C262.766 170.592 262.73 171.102 263.245 171.673C264.038 172.552 266.601 172.887 268.434 173.041C267.521 173.449 266.684 173.986 266.504 174.626C266.44 174.854 266.429 175.2 266.741 175.547C267.532 176.421 269.176 176.972 271.345 177.144C272.616 177.246 274.065 177.217 275.628 177.047C281.946 176.36 287.959 171.152 288.211 170.929L288.753 170.456L288.054 170.285ZM275.593 176.619C271.273 177.089 268.1 176.432 267.024 175.24C266.26 174.393 268.088 173.363 270.316 172.702C267.443 172.649 264.293 172.215 263.528 171.368C262.452 170.176 263.93 168.957 268.181 168.409C275.273 167.495 287.969 170.593 287.969 170.593C287.969 170.593 281.866 175.936 275.593 176.619Z" fill="#E5E5E5"/>
<path d="M95.7449 168.494L88.647 174.942V170.947L95.7449 164.501V168.494Z" fill="#A3A3A3"/>
<path d="M95.7449 168.494L116.247 174.208V170.213L95.7449 164.501V168.494Z" fill="#B5B5B5"/>
<path d="M95.6157 163.925L119.739 170.644L87.2501 171.511L95.6157 163.925ZM95.7449 164.501L88.6471 170.947L116.247 170.214L95.7449 164.501Z" fill="#E5E5E5"/>
<path d="M87.2501 175.509L119.739 174.639V170.644L87.2501 171.51V175.509Z" fill="#C4C4C4"/>
<path opacity="0.12" d="M291.864 162.963C291.835 163.404 287.684 165.439 285.225 165.457C283.749 165.468 277.22 165.12 276.928 164.156C276.74 163.54 282.929 162.127 284.926 162.017C286.859 161.91 291.915 162.202 291.864 162.963Z" fill="#380101"/>
<path d="M291.35 158.175C290.283 157.619 285.641 159.71 284.355 159.791C283.169 159.865 279.243 158.267 278.008 159.005C277.394 159.372 277.565 163.58 278.294 164.001C278.866 164.33 282.317 165.278 284.838 165.174C286.644 165.099 290.855 163.765 291.524 163.024C291.918 162.588 292.17 158.603 291.35 158.175Z" fill="#E01E1E"/>
<path d="M291.567 158.533C291.537 158.973 287.033 160.695 284.573 160.714C283.097 160.725 278.182 160.196 277.889 159.232C277.701 158.616 282.987 157.09 284.983 156.978C286.917 156.872 291.618 157.772 291.567 158.533Z" fill="#FF3B36"/>
<path opacity="0.19" d="M291.567 158.533C291.54 158.925 287.94 160.352 285.451 160.649C284.648 160.745 284.881 162.369 284.611 162.372C284.37 162.374 284.569 160.74 283.61 160.676C281.603 160.542 278.134 160.038 277.889 159.233C279.464 159.95 282.372 159.962 284.38 159.928C286.906 159.885 290.791 158.898 291.567 158.533Z" fill="white"/>
<path d="M290.382 152.783C289.307 152.239 284.691 154.384 283.406 154.479C282.221 154.567 278.277 153.015 277.05 153.767C276.441 154.141 276.66 158.347 277.394 158.759C277.97 159.082 281.432 159.99 283.951 159.857C285.756 159.761 289.952 158.378 290.611 157.63C291.001 157.189 291.207 153.202 290.382 152.783Z" fill="#1397A5"/>
<path d="M290.603 153.139C290.578 153.579 286.094 155.353 283.635 155.4C282.16 155.427 277.238 154.955 276.934 153.996C276.74 153.381 282.007 151.794 284.002 151.661C285.935 151.531 290.645 152.377 290.603 153.139Z" fill="#28AFC6"/>
<path opacity="0.19" d="M290.603 153.139C290.581 153.531 286.997 154.999 284.512 155.325C283.711 155.431 283.962 157.052 283.692 157.058C283.451 157.063 283.631 155.427 282.672 155.374C280.664 155.263 277.188 154.799 276.935 153.997C278.519 154.696 281.426 154.674 283.434 154.617C285.958 154.544 289.83 153.512 290.603 153.139Z" fill="white"/>
<path d="M291.429 147.7C290.355 147.156 285.738 149.301 284.453 149.396C283.268 149.484 279.324 147.931 278.097 148.684C277.488 149.057 277.707 153.264 278.442 153.675C279.017 153.998 282.479 154.906 284.999 154.774C286.804 154.678 290.999 153.295 291.659 152.547C292.049 152.105 292.255 148.119 291.429 147.7Z" fill="#F29D06"/>
<path d="M291.65 148.055C291.625 148.496 287.141 150.27 284.682 150.316C283.207 150.344 278.286 149.872 277.982 148.912C277.787 148.298 283.055 146.711 285.049 146.578C286.982 146.447 291.693 147.294 291.65 148.055Z" fill="#FFC200"/>
<path opacity="0.19" d="M291.65 148.056C291.629 148.448 288.044 149.916 285.559 150.242C284.758 150.348 285.01 151.969 284.739 151.974C284.498 151.979 284.678 150.343 283.72 150.291C281.712 150.18 278.237 149.716 277.983 148.913C279.566 149.612 282.473 149.59 284.482 149.534C287.005 149.461 290.879 148.429 291.65 148.056Z" fill="white"/>
<path opacity="0.12" d="M128.407 166.925C128.439 166.71 122.553 167.576 122.3 167.545C120.313 167.297 118.94 167.304 119.079 167.595C119.261 167.979 120.934 168.282 121.672 168.606C123.299 169.319 125.024 169.283 125.47 169.224C126.007 169.153 125.747 168.837 126.317 168.837C129.832 168.837 130.404 168.816 131.177 168.151C131.465 167.905 130.024 167.337 128.407 166.925Z" fill="#280303"/>
<path d="M119.27 167.298C119.219 167.862 120.935 167.984 121.673 168.417C123.3 169.371 125.097 169.209 125.491 169.138C126.023 169.041 125.426 168.489 125.996 168.489C129.511 168.489 130.246 168.558 130.114 167.814C129.886 166.52 129.1 166.264 125.789 164.092C122.85 162.162 119.389 165.989 119.27 167.298Z" fill="#FF3B36"/>
<path opacity="0.12" d="M136.34 166.586C136.34 166.686 135.893 166.761 135.047 166.761C134.2 166.761 133.719 166.658 133.719 166.559C133.719 166.459 134.2 166.401 135.047 166.401C135.893 166.401 136.34 166.487 136.34 166.586Z" fill="#280303"/>
<path d="M136.341 165.756C136.341 166.247 136.005 166.62 135.368 166.62C134.732 166.62 134.049 166.635 134.049 166.145C134.049 165.654 134.732 164.843 135.368 164.843C136.004 164.843 136.341 165.265 136.341 165.756Z" fill="#FF3B36"/>
<path opacity="0.12" d="M113.474 178.774C113.474 179.027 114.583 179.232 115.951 179.232C117.321 179.232 118.43 179.027 118.43 178.774C118.43 178.521 117.321 178.316 115.951 178.316C114.584 178.315 113.474 178.521 113.474 178.774Z" fill="#280303"/>
<path d="M119.08 177.715C119.083 178.071 118.703 179.002 117.056 179.002C115.41 179.002 114.017 179.116 114.017 178.262C114.017 177.407 115.549 176.027 116.883 176.027C118.53 176.026 119.075 176.86 119.08 177.715Z" fill="#FF3B36"/>
<path d="M180.501 135.785C180.639 136.054 180.952 136.172 181.228 136.073L181.3 136.042C181.59 135.891 181.705 135.535 181.556 135.244L179.104 130.483C178.954 130.19 178.595 130.085 178.304 130.226C178.014 130.377 177.9 130.733 178.048 131.024L180.501 135.785ZM184.94 134.172C184.88 134.494 185.092 134.804 185.414 134.865C185.521 134.885 185.626 134.876 185.723 134.84C185.914 134.771 186.066 134.606 186.107 134.393L187.098 129.13C187.16 128.808 186.948 128.498 186.625 128.436C186.307 128.373 185.994 128.583 185.934 128.909L184.94 134.172ZM173.13 138.091L178.427 138.878C178.526 138.891 178.624 138.88 178.714 138.848C178.913 138.777 179.067 138.601 179.101 138.377C179.149 138.052 178.925 137.752 178.601 137.703L173.306 136.915C172.983 136.871 172.679 137.091 172.632 137.415C172.583 137.741 172.807 138.042 173.13 138.091Z" fill="#FFBE5C"/>
</svg>
