<svg width="212" height="178" viewBox="0 0 212 178" fill="none" xmlns="http://www.w3.org/2000/svg">
    <path
        d="M62.9243 25.3949C62.8243 22.3999 58.8293 17.57 57.1043 15.215C54.9843 12.315 52.5393 9.63993 49.7443 7.37993C44.7593 3.34493 38.7193 0.734923 32.3043 0.244923C16.9593 -0.930077 -2.04069 9.42495 0.234308 27.0199C1.56431 37.3049 10.8143 45.3799 20.1443 48.7399C25.0643 50.5099 30.4393 51.2749 35.6343 50.5049C63.6093 46.3599 62.9243 25.4099 62.9243 25.3949Z"
        fill="#D29366" />
    <path
        d="M44.3107 29.3848C44.1657 24.9048 37.2157 20.1398 33.3657 19.3498C27.4757 18.1398 19.3557 21.3098 18.7157 28.1398C18.0407 35.3698 26.7557 40.5698 33.1907 39.6148C44.5907 37.9298 44.3107 29.3948 44.3107 29.3848Z"
        fill="#FAD3A7" />
    <path
        d="M148.856 25.3947C148.956 22.3997 152.951 17.5697 154.676 15.2147C156.796 12.3147 159.241 9.63969 162.036 7.37969C167.021 3.34469 173.061 0.734679 179.476 0.244679C194.821 -0.930321 213.821 9.4247 211.546 27.0197C210.216 37.3047 200.966 45.3797 191.636 48.7397C186.716 50.5097 181.341 51.2747 176.146 50.5047C148.171 46.3597 148.856 25.4097 148.856 25.3947Z"
        fill="#D29366" />
    <path
        d="M167.469 29.3848C167.614 24.9048 174.564 20.1398 178.414 19.3498C184.304 18.1398 192.424 21.3098 193.064 28.1398C193.739 35.3698 185.024 40.5698 178.589 39.6148C167.194 37.9298 167.469 29.3948 167.469 29.3848Z"
        fill="#FAD3A7" />
    <path
        d="M204.709 108.78C200.049 154.575 157.599 177.75 105.889 177.75C54.1794 177.75 11.5894 159.755 7.06943 108.78C1.37443 44.5349 54.1794 11.1399 105.889 11.1399C157.599 11.1399 211.264 44.3899 204.709 108.78Z"
        fill="#D29366" />
    <path
        d="M120.877 83.5398C120.797 81.7448 120.952 79.9748 121.507 78.3098C121.932 77.1598 124.137 77.6398 124.242 78.8848C124.342 80.6898 124.037 82.4249 123.502 84.0899C123.302 84.6599 122.567 84.9198 121.862 84.6748C121.297 84.4798 120.912 84.0148 120.877 83.5398Z"
        fill="#C18856" />
    <path
        d="M124.546 68.2797C124.736 65.9697 125.411 63.7047 126.691 61.8597C127.651 60.6047 129.856 62.0247 129.521 63.4197C129.001 65.4647 128.261 67.3497 127.431 69.2547C127.131 69.9047 126.281 70.1597 125.506 69.8047C124.891 69.5247 124.506 68.8947 124.546 68.2797Z"
        fill="#C18856" />
    <path
        d="M115.666 64.71C115.561 62.315 115.726 59.925 116.356 57.64C116.841 56.06 119.391 56.485 119.511 58.14C119.626 60.545 119.276 62.9 118.671 65.185C118.441 65.975 117.606 66.395 116.801 66.135C116.156 65.93 115.711 65.345 115.666 64.71Z"
        fill="#C18856" />
    <path
        d="M121.411 50.3896C121.611 48.3846 122.541 46.4546 124.171 45.1996C125.396 44.3646 127.396 46.3246 126.946 47.3196C126.251 48.8046 125.456 50.1046 124.611 51.5096C124.306 51.9746 123.386 52.1146 122.511 51.7746C121.811 51.4946 121.371 50.9296 121.411 50.3896Z"
        fill="#C18856" />
    <path
        d="M135.84 49.8098C137.4 47.9598 139.255 46.3648 141.495 45.2398C143.095 44.5048 145.055 46.7199 143.97 47.9549C142.345 49.7149 140.38 51.1398 138.275 52.3798C137.53 52.7898 136.48 52.4899 135.905 51.7049C135.45 51.0699 135.44 50.3098 135.84 49.8098Z"
        fill="#C18856" />
    <path
        d="M130.597 34.7599C131.617 32.3349 133.212 30.4498 135.777 29.1598C136.732 28.7298 137.857 29.2048 138.237 29.9098C138.627 30.6298 138.867 31.3549 138.432 31.8649C137.052 33.3949 135.362 35.0549 133.917 36.5549C133.667 36.8099 133.302 36.9099 132.877 36.9149C132.462 36.9149 131.942 36.8799 131.472 36.6649C130.702 36.3399 130.347 35.4049 130.597 34.7599Z"
        fill="#C18856" />
    <path
        d="M151.932 38.0846C154.517 36.4346 158.077 35.7696 161.807 36.5496C164.457 37.2296 164.617 39.9596 162.647 40.0196C159.692 40.1546 156.897 40.4946 154.187 41.2096C153.252 41.4346 152.077 40.9846 151.517 40.0846C151.087 39.3646 151.257 38.5346 151.932 38.0846Z"
        fill="#C18856" />
    <path
        d="M142.227 25.9695C143.042 23.9095 145.107 22.3146 147.832 22.0096C149.842 21.8996 150.997 24.6245 150.012 25.2195C148.502 26.1345 147.117 26.9946 145.772 28.0896C145.302 28.4396 144.177 28.3246 143.197 27.7346C142.422 27.2546 142.022 26.5245 142.227 25.9695Z"
        fill="#C18856" />
    <path
        d="M115.64 27.4498C115.72 24.5698 116.955 22.0448 118.525 19.9498C119.675 18.5048 122.73 19.6598 122.3 21.4048C121.595 23.9248 120.33 26.0698 119.47 28.2198C119.15 28.9498 118.12 29.3798 117.065 29.1148C116.23 28.9048 115.635 28.2098 115.64 27.4498Z"
        fill="#C18856" />
    <path
        d="M96.0161 23.0897C95.5761 20.6697 95.4611 18.2097 95.9011 15.7647C96.2661 14.0647 99.3211 14.0547 99.6961 15.7197C100.171 18.1497 100.081 20.6147 99.6711 23.0447C99.5061 23.8847 98.5661 24.4547 97.5611 24.3347C96.7561 24.2447 96.1511 23.7297 96.0161 23.0897Z"
        fill="#C18856" />
    <path
        d="M109.6 46.7547C109.61 44.1597 109.935 41.5797 110.8 39.1147C111.455 37.4147 114.325 37.9147 114.36 39.6997C114.345 42.2947 113.81 44.8347 113.005 47.2947C112.7 48.1397 111.73 48.5897 110.825 48.3047C110.09 48.0747 109.61 47.4397 109.6 46.7547Z"
        fill="#C18856" />
    <path
        d="M127.729 23.79C128.554 21.535 129.654 19.43 131.184 17.655C132.294 16.455 134.629 18.11 134.094 19.675C133.259 21.925 131.994 23.905 130.514 25.705C129.984 26.315 128.999 26.29 128.299 25.655C127.739 25.15 127.524 24.395 127.729 23.79Z"
        fill="#C18856" />
    <path
        d="M110.472 83.9247C110.277 81.4747 110.307 79.0097 110.747 76.6097C111.092 74.9447 113.337 75.1447 113.517 76.8247C113.727 79.2797 113.517 81.7297 113.087 84.1297C112.922 84.9597 112.222 85.4697 111.512 85.2847C110.947 85.1347 110.537 84.5747 110.472 83.9247Z"
        fill="#C18856" />
    <path
        d="M103.841 65.8299C103.141 63.4149 102.681 60.9349 102.666 58.4099C102.701 56.6499 105.226 56.2599 105.781 57.9049C106.536 60.3149 106.811 62.8349 106.806 65.3599C106.786 66.2399 106.096 66.9299 105.271 66.9249C104.606 66.9199 104.041 66.4599 103.841 65.8299Z"
        fill="#C18856" />
    <path
        d="M99.0309 84.2049C98.2909 82.2349 97.7459 80.1749 97.5859 78.0149C97.5109 76.5049 99.6659 75.8348 100.251 77.1698C101.046 79.1298 101.431 81.2449 101.571 83.4049C101.601 84.1599 101.046 84.8449 100.326 84.9499C99.7509 85.0349 99.2359 84.7199 99.0309 84.2049Z"
        fill="#C18856" />
    <path
        d="M93.1944 57.16C94.4894 59.125 95.2494 61.47 95.2994 63.87C95.2594 65.55 92.8894 65.93 92.3194 64.63C91.5094 62.665 90.8944 60.69 90.3044 58.63C90.1144 57.915 90.6044 57.045 91.4544 56.71C92.1294 56.445 92.8394 56.645 93.1944 57.16Z"
        fill="#C18856" />
    <path
        d="M88.4995 77.9749C89.4495 79.2199 90.1695 80.6899 90.7145 82.1349C91.2595 83.5899 91.6695 85.0549 91.9995 86.5449C92.3995 88.6099 90.5595 89.5999 89.6245 87.8199C88.9595 86.4899 88.3795 85.1049 87.8445 83.7499C87.3045 82.3949 86.8145 81.1049 86.2145 79.8549C85.8195 78.9849 85.9695 77.9149 86.6695 77.4649C87.2295 77.1099 87.9945 77.3199 88.4995 77.9749Z"
        fill="#C18856" />
    <path
        d="M80.5847 67.8296C79.2997 65.1746 77.8597 62.6946 76.3397 60.1996C75.2947 58.5046 77.2147 56.5246 78.9147 57.9946C81.2597 60.2196 82.7647 63.3046 83.4447 66.5596C83.6647 67.7046 83.0947 68.7196 82.2597 68.8496C81.5847 68.9546 80.9347 68.5146 80.5847 67.8296Z"
        fill="#C18856" />
    <path
        d="M83.5807 46.6848C82.0907 44.7098 80.3857 42.7798 78.8107 40.7998C77.7307 39.4548 79.6707 37.2948 81.4907 38.3498C83.9807 39.9898 85.7557 42.3298 86.7207 45.0898C87.0407 46.0848 86.4007 47.0848 85.4507 47.2648C84.6857 47.4298 83.9857 47.1898 83.5807 46.6848Z"
        fill="#C18856" />
    <path
        d="M97.1144 47.7801C96.1444 45.5201 95.4344 43.165 95.2194 40.71C95.1194 38.995 97.8994 38.3101 98.6594 39.8401C99.6994 42.0951 100.214 44.51 100.414 46.97C100.459 47.825 99.7444 48.58 98.8094 48.675C98.0594 48.745 97.3894 48.3701 97.1144 47.7801Z"
        fill="#C18856" />
    <path
        d="M76.2168 28.5049C74.1968 26.8849 72.4118 25.0498 71.1068 22.8648C70.2518 21.3098 72.9568 19.1649 74.4568 20.1949C76.5768 21.7549 78.1918 23.7598 79.4618 25.9848C79.8818 26.7698 79.4168 27.8649 78.4368 28.4499C77.6568 28.9199 76.7668 28.9199 76.2168 28.5049Z"
        fill="#C18856" />
    <path
        d="M64.2759 35.5397C62.3009 34.1597 60.4359 32.7797 58.6609 31.3747C57.4709 30.4347 59.1709 27.8297 61.2259 28.3497C64.0359 29.2347 66.0309 31.0347 67.4059 33.1147C67.8659 33.8597 67.4009 34.8997 66.4409 35.4347C65.6659 35.8747 64.8109 35.8897 64.2759 35.5397Z"
        fill="#C18856" />
    <path
        d="M53.0445 42.5849C51.0695 41.9549 49.2745 41.0849 47.8395 39.7899C46.8845 38.8449 48.9445 36.2849 50.4045 36.6049C52.4795 37.1399 54.1745 38.1899 55.5795 39.5349C56.0495 40.0199 55.7795 41.0349 54.9895 41.8199C54.3595 42.4449 53.5745 42.7349 53.0445 42.5849Z"
        fill="#C18856" />
    <path
        d="M89.8097 32.515C88.2947 30.68 87.0347 28.705 86.2647 26.525C85.7797 24.985 88.5897 23.655 89.7497 24.865C91.3697 26.665 92.4547 28.7551 93.1947 30.9651C93.4297 31.7401 92.8097 32.605 91.8197 32.92C91.0247 33.175 90.2247 32.99 89.8097 32.515Z"
        fill="#C18856" />
    <path
        d="M103.932 31.8046C103.517 29.8796 103.742 27.7895 104.562 26.0395C105.182 24.8095 108.222 25.2296 108.347 26.5296C108.442 28.4446 108.087 30.0795 107.647 31.8495C107.462 32.4595 106.507 32.8845 105.487 32.7895C104.667 32.7145 104.052 32.3146 103.932 31.8046Z"
        fill="#C18856" />
    <path
        d="M70.2617 51.355C68.4567 49.995 66.8467 48.45 65.6217 46.58C64.8117 45.25 67.0767 43.245 68.4267 44.09C70.3367 45.375 71.8217 47.085 72.9967 49C73.3867 49.68 73.0217 50.67 72.1917 51.225C71.5167 51.665 70.7467 51.7 70.2617 51.355Z"
        fill="#C18856" />
    <path
        d="M53.946 103.54C58.4029 103.54 62.016 99.2552 62.016 93.9698C62.016 88.6845 58.4029 84.3999 53.946 84.3999C49.489 84.3999 45.876 88.6845 45.876 93.9698C45.876 99.2552 49.489 103.54 53.946 103.54Z"
        fill="#7A6D64" />
    <path
        d="M31.4943 126.385C39.5521 126.385 46.0843 121.52 46.0843 115.52C46.0843 109.519 39.5521 104.655 31.4943 104.655C23.4365 104.655 16.9043 109.519 16.9043 115.52C16.9043 121.52 23.4365 126.385 31.4943 126.385Z"
        fill="#FF7674" />
    <path
        d="M175.749 126.385C183.807 126.385 190.339 121.52 190.339 115.52C190.339 109.519 183.807 104.655 175.749 104.655C167.691 104.655 161.159 109.519 161.159 115.52C161.159 121.52 167.691 126.385 175.749 126.385Z"
        fill="#FF7674" />
    <path
        d="M116.144 124.685L105.684 122.65L95.2243 124.685C94.6293 128.93 97.3593 137.925 100.939 138.94C101.549 139.115 102.084 139.225 102.559 139.3C104.199 139.545 105.684 138.38 105.684 136.865C105.684 138.38 107.169 139.545 108.809 139.3C109.284 139.23 109.824 139.115 110.429 138.94C114.009 137.925 116.744 128.93 116.144 124.685Z"
        fill="#FDF7EE" />
    <path
        d="M153.09 103.54C157.546 103.54 161.16 99.2552 161.16 93.9698C161.16 88.6845 157.546 84.3999 153.09 84.3999C148.633 84.3999 145.02 88.6845 145.02 93.9698C145.02 99.2552 148.633 103.54 153.09 103.54Z"
        fill="#7A6D64" />
    <path
        d="M122.381 91.1198V91.0948C115.861 91.0948 109.346 90.8498 102.826 90.8048C96.9856 90.7648 90.3356 90.2298 84.6606 91.7898C75.6756 94.2598 69.2256 102.48 69.2256 111.85C69.2256 123.31 78.5156 132.6 89.9756 132.6C96.2656 132.6 101.896 129.8 105.701 125.38C109.506 129.795 115.136 132.6 121.426 132.6C132.886 132.6 142.176 123.31 142.176 111.85C142.171 100.705 133.396 91.6198 122.381 91.1198Z"
        fill="#FAD3A7" />
    <path
        d="M105.249 97.0048C114.18 97.0048 121.419 94.3588 121.419 91.0948C121.419 87.8308 114.18 85.1848 105.249 85.1848C96.3187 85.1848 89.0791 87.8308 89.0791 91.0948C89.0791 94.3588 96.3187 97.0048 105.249 97.0048Z"
        fill="#7A6D64" />
</svg>