<svg width="214" height="208" viewBox="0 0 214 208" fill="none" xmlns="http://www.w3.org/2000/svg">
<path d="M213.332 120.267C213.332 114.049 210.723 108.109 205.972 102.654C203.198 99.4682 201.267 95.6305 200.228 91.5363C188.254 44.3354 153.451 20.1885 106.666 20.1885C59.8806 20.1885 25.0786 44.3354 13.103 91.535C12.0643 95.6293 10.1334 99.4669 7.35848 102.654C2.60971 108.109 -0.000976562 114.051 -0.000976562 120.267C-0.000976562 125.449 1.81488 130.439 5.17238 135.117C7.53034 138.402 9.21098 142.124 9.93631 146.102C17.3994 187.085 54.9081 207.546 106.666 207.546C158.423 207.546 195.931 187.085 203.395 146.102C204.119 142.124 205.801 138.402 208.159 135.117C211.515 130.44 213.332 125.449 213.332 120.267Z" fill="#FFD89B"/>
<path d="M84.5908 112.583C87.3797 116.935 93.3264 120.755 100.693 126.1C104.186 128.635 108.942 128.566 112.325 125.887C120.674 119.277 126.196 116.287 128.775 112.583H84.5908Z" fill="#FFA164"/>
<path d="M82.8691 112.636C82.8691 105.267 89.0383 103.234 101.006 93.758C104.39 91.079 109.145 91.0096 112.638 93.5444C122.933 101.015 130.459 105.505 130.459 112.636C130.459 117.911 119.805 120.267 106.664 120.267C93.5217 120.267 82.8691 117.911 82.8691 112.636Z" fill="#FFB564"/>
<path d="M152.164 111.45C156.697 111.45 160.372 106.256 160.372 99.8476C160.372 93.4396 156.697 88.2449 152.164 88.2449C147.632 88.2449 143.957 93.4396 143.957 99.8476C143.957 106.256 147.632 111.45 152.164 111.45Z" fill="#766961"/>
<path d="M177.547 136.076C186.28 136.076 193.36 130.671 193.36 124.004C193.36 117.337 186.28 111.932 177.547 111.932C168.813 111.932 161.733 117.337 161.733 124.004C161.733 130.671 168.813 136.076 177.547 136.076Z" fill="#FF9898"/>
<path d="M33.5125 136.076C42.2459 136.076 49.3257 130.671 49.3257 124.004C49.3257 117.337 42.2459 111.932 33.5125 111.932C24.779 111.932 17.6992 117.337 17.6992 124.004C17.6992 130.671 24.779 136.076 33.5125 136.076Z" fill="#FF9898"/>
<path d="M61.1644 111.451C65.6972 111.451 69.3718 106.257 69.3718 99.8486C69.3718 93.4406 65.6972 88.2458 61.1644 88.2458C56.6316 88.2458 52.957 93.4406 52.957 99.8486C52.957 106.257 56.6316 111.451 61.1644 111.451Z" fill="#766961"/>
<path d="M136.258 27.5929C136.258 27.5929 131.008 5.09879 121.908 3.2842C112.807 1.46961 116.072 18.2255 117.161 20.188C117.161 20.188 95.7552 -3.24631 80.517 0.381609C65.2787 4.00953 94.5181 21.4617 94.5181 21.4617C94.5181 21.4617 75.8011 12.3546 64.5534 18.1598C53.3057 23.965 73.6238 33.0354 73.6238 33.0354L136.258 27.5929Z" fill="#FFD89B"/>
</svg>
