<svg width="214" height="208" viewBox="0 0 214 208" fill="none" xmlns="http://www.w3.org/2000/svg">
<path d="M86.963 50.7315L73.4629 54.4784L66.3184 18.2351L74.4198 15.9897L86.963 50.7315Z" fill="#FAB158"/>
<path d="M82.6426 21.797C85.2344 15.0347 81.8535 7.45158 75.0911 4.85975C68.3288 2.26792 60.7457 5.6488 58.1539 12.4112C55.562 19.1735 58.9429 26.7566 65.7053 29.3484C72.4677 31.9403 80.0507 28.5594 82.6426 21.797Z" fill="#9A7256"/>
<path d="M134.041 55.4934L120.468 52.0224L132.306 17.0327L140.449 19.1139L134.041 55.4934Z" fill="#FAB158"/>
<path d="M143.381 29.1709C149.501 25.3001 151.324 17.201 147.453 11.081C143.583 4.96097 135.484 3.13756 129.363 7.00829C123.243 10.879 121.42 18.9781 125.291 25.0981C129.162 31.2182 137.261 33.0416 143.381 29.1709Z" fill="#9A7256"/>
<path d="M148.5 53.3383C152.513 47.0248 164.693 44.9925 171.373 44.5246C180.131 43.91 189.678 45.2893 197.894 48.3588C203.876 50.5936 212.431 56.1075 213.266 63.1054C214.01 69.3211 208.238 74.1086 203.275 76.6438C196.725 79.9891 188.972 81.8189 181.625 81.784C172.319 81.7421 162.674 78.5749 155.648 72.3522C143.357 61.4642 148.493 53.3523 148.5 53.3383Z" fill="#FAC767"/>
<path d="M149.875 58.783C158.368 50.7829 179.623 54.4145 191.657 66.0044C194.014 68.2742 193.102 72.2481 189.994 73.2608C176.184 77.7619 160.526 75.7575 154.132 70.0935C146.809 63.6124 149.875 58.783 149.875 58.783Z" fill="#FDDFA3"/>
<path d="M65.615 53.0716C53.2918 39.2539 24.3991 37.8641 5.2945 49.2235C-0.970112 52.9494 -1.83961 61.5921 3.5555 66.4913C22.7195 83.8954 45.3336 79.9215 56.8431 71.3906C70.0428 61.6061 65.615 53.0716 65.615 53.0716Z" fill="#FAC767"/>
<path d="M63.7799 58.3808C56.0137 49.6753 34.5241 51.4423 21.5304 61.9461C18.9848 64.0029 19.547 68.0397 22.5571 69.3212C35.9244 75.0062 51.6977 74.3706 58.5594 69.2828C66.4129 63.4582 63.7799 58.3808 63.7799 58.3808Z" fill="#FDDFA3"/>
<path d="M198.446 138.737C198.655 184.503 156.748 207.347 105.308 207.347C53.8674 207.347 11.9637 184.506 12.1697 138.737C12.463 74.6032 53.8674 41.6074 105.308 41.6074C156.748 41.6074 198.153 74.5997 198.446 138.737Z" fill="#FAC767"/>
<path d="M59.0574 118.512C63.0226 118.512 66.237 113.969 66.237 108.365C66.237 102.76 63.0226 98.2168 59.0574 98.2168C55.0923 98.2168 51.8779 102.76 51.8779 108.365C51.8779 113.969 55.0923 118.512 59.0574 118.512Z" fill="#706161"/>
<path d="M150.044 118.512C154.009 118.512 157.223 113.968 157.223 108.364C157.223 102.76 154.009 98.2163 150.044 98.2163C146.079 98.2163 142.864 102.76 142.864 108.364C142.864 113.968 146.079 118.512 150.044 118.512Z" fill="#706161"/>
<path d="M167.958 137.558C173.89 137.558 178.699 134.295 178.699 130.27C178.699 126.245 173.89 122.982 167.958 122.982C162.026 122.982 157.217 126.245 157.217 130.27C157.217 134.295 162.026 137.558 167.958 137.558Z" fill="#F98A8A"/>
<path d="M41.1359 137.561C47.0681 137.561 51.8772 134.298 51.8772 130.273C51.8772 126.248 47.0681 122.986 41.1359 122.986C35.2036 122.986 30.3945 126.248 30.3945 130.273C30.3945 134.298 35.2036 137.561 41.1359 137.561Z" fill="#F98A8A"/>
<path d="M26.957 179.407C43.5509 198.04 72.496 207.346 105.328 207.346C138.159 207.346 167.104 198.04 183.698 179.407C178.719 149.806 140.052 122.984 105.328 122.984C70.5998 122.984 34.5102 146.534 26.957 179.407Z" fill="#FDDFA3"/>
<path d="M86.9827 146.528C89.3047 146.528 91.187 144.423 91.187 141.825C91.187 139.227 89.3047 137.121 86.9827 137.121C84.6607 137.121 82.7783 139.227 82.7783 141.825C82.7783 144.423 84.6607 146.528 86.9827 146.528Z" fill="#706161"/>
<path d="M120.486 146.533C122.808 146.533 124.69 144.427 124.69 141.829C124.69 139.231 122.808 137.125 120.486 137.125C118.164 137.125 116.281 139.231 116.281 141.829C116.281 144.427 118.164 146.533 120.486 146.533Z" fill="#706161"/>
<path d="M59.0535 85.3535C66.8616 73.3446 71.2685 66.2349 70.3815 56.9287C70.0952 53.9187 68.8415 51.0133 67.2841 48.4607C50.1001 55.2072 35.7026 66.9158 25.9355 83.4748C37.948 91.5203 53.1486 94.4361 59.0535 85.3535Z" fill="#9A7256"/>
<path d="M164.842 60.6883C148.726 48.0229 128.005 41.6082 105.328 41.6082C104.137 41.6082 102.953 41.6326 101.776 41.6675C101.996 46.8845 102.845 52.4996 105.328 54.4796C110.409 58.5303 125.571 64.5365 136.406 67.7387C144.654 70.1761 158.636 63.8486 164.842 60.6883Z" fill="#9A7256"/>
<path d="M178.835 74.8237C176.667 75.6583 174.351 76.8805 173.244 78.5462C170.856 82.1499 171.897 96.261 178.702 101.464C183.018 104.764 187.663 105.871 194.483 107.194C191.137 94.6163 185.784 83.8156 178.835 74.8237Z" fill="#9A7256"/>
<path d="M18.4235 130.573C22.0272 127.853 26.5318 117.08 26.9509 111.074C27.2372 106.999 22.2437 101.548 19.0031 98.4612C15.1864 108.801 12.8572 120.537 12.3125 133.653C14.8442 132.609 17.1838 131.509 18.4235 130.573Z" fill="#9A7256"/>
</svg>
