<svg width="362" height="232" viewBox="0 0 362 232" fill="none" xmlns="http://www.w3.org/2000/svg">
<path d="M13.6403 40.9153C0.0603447 59.9303 -3.06966 93.9053 4.57034 110.335C12.2103 126.765 18.4403 109.03 18.4403 109.03C18.4403 109.03 17.2203 120.105 29.6803 133.79C41.7803 147.08 44.9003 129.07 44.9003 129.07C44.9003 129.07 51.4203 143.45 69.5553 149.36C87.6853 155.27 68.4153 122.1 68.4153 122.1C68.4153 122.1 11.2703 90.2603 13.6403 40.9153Z" fill="#ADAFBC"/>
<path d="M142.61 44.9151C142.61 44.9151 81.5251 -27.5498 24.1301 28.2052C-29.0349 79.8502 38.2801 153.42 82.4701 126.89C126.66 100.36 142.61 44.9151 142.61 44.9151Z" fill="#ADAFBC"/>
<path d="M103.69 69.9753C103.69 69.9753 75.54 36.5754 49.085 62.2754C24.585 86.0754 55.6051 119.985 75.9751 107.755C96.3401 95.5253 103.69 69.9753 103.69 69.9753Z" fill="#F4D4BE"/>
<path d="M348.21 40.915C361.79 59.93 364.92 93.9051 357.28 110.335C349.64 126.765 343.41 109.03 343.41 109.03C343.41 109.03 344.63 120.105 332.17 133.79C320.07 147.08 316.95 129.07 316.95 129.07C316.95 129.07 310.43 143.45 292.295 149.36C274.16 155.27 293.435 122.1 293.435 122.1C293.435 122.1 350.58 90.26 348.21 40.915Z" fill="#ADAFBC"/>
<path d="M219.24 44.9151C219.24 44.9151 280.325 -27.5498 337.72 28.2052C390.885 79.8502 323.57 153.42 279.38 126.89C235.19 100.36 219.24 44.9151 219.24 44.9151Z" fill="#ADAFBC"/>
<path d="M256.455 69.9748C256.455 69.9748 284.605 36.5749 311.06 62.2749C335.56 86.0749 304.54 119.985 284.17 107.755C263.805 95.5248 256.455 69.9748 256.455 69.9748Z" fill="#F4D4BE"/>
<path d="M298.439 141.905C298.139 145.295 297.679 148.72 297.054 152.175C282.004 235.72 165.504 249.515 104.124 210.88C73.2039 191.42 59.1189 154.37 63.1739 118.845C65.0839 102.145 70.8239 85.9349 79.7889 71.7199C97.3889 43.8299 128.309 27.5799 160.329 22.7449C167.134 21.7149 174.019 21.1899 180.899 21.1899C247.869 21.1949 304.459 74.285 298.439 141.905Z" fill="#ADAFBC"/>
<path d="M251.004 125.57C255.908 125.57 259.884 120.303 259.884 113.805C259.884 107.307 255.908 102.04 251.004 102.04C246.1 102.04 242.124 107.307 242.124 113.805C242.124 120.303 246.1 125.57 251.004 125.57Z" fill="#63687E"/>
<path d="M278.494 146.35C286.204 146.35 292.454 141.698 292.454 135.96C292.454 130.222 286.204 125.57 278.494 125.57C270.784 125.57 264.534 130.222 264.534 135.96C264.534 141.698 270.784 146.35 278.494 146.35Z" fill="#FF959D"/>
<path d="M113.325 125.57C118.23 125.57 122.205 120.303 122.205 113.805C122.205 107.308 118.23 102.04 113.325 102.04C108.421 102.04 104.445 107.308 104.445 113.805C104.445 120.303 108.421 125.57 113.325 125.57Z" fill="#63687E"/>
<path d="M85.8389 146.35C93.5488 146.35 99.7989 141.699 99.7989 135.96C99.7989 130.222 93.5488 125.57 85.8389 125.57C78.129 125.57 71.8789 130.222 71.8789 135.96C71.8789 141.699 78.129 146.35 85.8389 146.35Z" fill="#FF959D"/>
<path d="M218.664 144.935C217.509 156.46 210.619 166.56 195.909 170.135C172.009 175.945 140.804 167.275 142.689 138.015C143.939 118.6 160.569 98.5703 180.924 98.5703C204.074 98.5703 220.754 124.085 218.664 144.935Z" fill="#717389"/>
<path d="M167.48 127.814C169.648 120.695 168.065 113.907 163.944 112.652C159.823 111.397 154.725 116.151 152.557 123.27C150.389 130.389 151.972 137.178 156.093 138.433C160.214 139.687 165.312 134.934 167.48 127.814Z" fill="#7D7F92"/>
<path d="M201.654 22.925C201.654 22.925 189.339 -0.0699369 176.719 0.690063C164.104 1.45006 186.129 22.925 186.129 22.925C186.129 22.925 167.394 7.71505 160.054 11.8C152.714 15.88 160.309 24.235 169.419 28.035C178.539 31.83 201.654 22.925 201.654 22.925Z" fill="#ADAFBC"/>
</svg>
