<svg width="279" height="245" viewBox="0 0 279 245" fill="none" xmlns="http://www.w3.org/2000/svg">
<path d="M278.09 142.895C272.95 238.95 193.41 244.43 139.4 244.43C87.4452 244.43 5.72517 235.695 0.710171 142.895C-4.95483 37.9949 76.3552 0.0749512 139.4 0.0749512C201.55 0.0749512 283.575 40.3799 278.09 142.895Z" fill="#5C687C"/>
<path d="M212.05 67.0649C165.435 62.6299 156.46 143.26 156.46 143.26H139.405H122.35C122.35 143.26 113.375 62.6299 66.7601 67.0649C51.2201 68.5449 37.6101 79.5749 28.2551 95.8849C4.55012 137.215 22.0851 192.79 64.2801 214.01C80.5751 222.205 99.3851 222.61 117.23 223.325C133.2 223.965 149.195 223.93 165.16 223.21C179.49 222.57 194.63 222.105 208.105 216.64C228.655 208.325 245.4 191.86 254.395 171.635C265.24 147.26 263.835 119.035 250.555 95.8849C241.2 79.5749 227.59 68.5449 212.05 67.0649Z" fill="#EBEBFC"/>
<path d="M171.029 141.895C171.029 148.645 156.869 158.595 139.399 158.595C121.929 158.595 107.769 148.64 107.769 141.895C107.769 135.145 121.929 129.675 139.399 129.675C156.869 129.675 171.029 135.15 171.029 141.895Z" fill="#FFD164"/>
<path d="M206.485 120.045C211.641 120.045 215.82 114.509 215.82 107.68C215.82 100.851 211.641 95.3149 206.485 95.3149C201.33 95.3149 197.15 100.851 197.15 107.68C197.15 114.509 201.33 120.045 206.485 120.045Z" fill="#63687E"/>
<path d="M235.384 141.895C243.489 141.895 250.059 137.004 250.059 130.97C250.059 124.936 243.489 120.045 235.384 120.045C227.279 120.045 220.709 124.936 220.709 130.97C220.709 137.004 227.279 141.895 235.384 141.895Z" fill="#FFA6B1"/>
<path d="M72.3184 120.045C77.4739 120.045 81.6534 114.509 81.6534 107.68C81.6534 100.851 77.4739 95.3149 72.3184 95.3149C67.1628 95.3149 62.9834 100.851 62.9834 107.68C62.9834 114.509 67.1628 120.045 72.3184 120.045Z" fill="#63687E"/>
<path d="M43.4202 141.895C51.5249 141.895 58.0951 137.004 58.0951 130.97C58.0951 124.936 51.5249 120.045 43.4202 120.045C35.3154 120.045 28.7451 124.936 28.7451 130.97C28.7451 137.004 35.3154 141.895 43.4202 141.895Z" fill="#FFA6B1"/>
</svg>
