<svg width="393" height="189" viewBox="0 0 393 189" fill="none" xmlns="http://www.w3.org/2000/svg">
<path fill-rule="evenodd" clip-rule="evenodd" d="M-9.64627 19.743L-0.0877953 3.2009C-0.0877953 3.2009 77.0401 37.971 210.639 41.4407C344.237 44.886 395.403 0 395.403 0L411 16.5421L402.786 19.4742L394.866 3.56742C394.866 3.56742 341.646 48.8199 209.588 45.3991C82.2471 42.1005 0.841162 5.91312 0.841162 5.91312L-6.68828 19.8163L-9.64627 19.743Z" fill="url(#paint0_linear_637_2897)"/>
<path fill-rule="evenodd" clip-rule="evenodd" d="M16.2623 27L83.9922 38.0418L60.1381 113.498L5 101.185L16.2623 27Z" fill="url(#paint1_linear_637_2897)"/>
<path fill-rule="evenodd" clip-rule="evenodd" d="M8.85185 82.0922C12.8015 77.2651 17.5136 77.8318 23.614 77.6168C29.7144 77.4019 46.4709 76.4052 50.1468 78.5158C53.8422 80.6265 52.8059 83.597 56.3449 87.4275C59.9035 91.2579 62.3867 95.5378 61.9174 98.7038C61.4481 101.87 58.8085 107.557 54.6634 107.537C50.5378 107.518 34.7981 105.427 27.1139 103.707C19.4298 101.987 11.4328 100.17 10.1814 96.3977C8.94962 92.6259 6.32958 85.18 8.85185 82.0922Z" fill="#FFAE3B"/>
<path fill-rule="evenodd" clip-rule="evenodd" d="M16.9075 51.1944C16.2427 53.1487 15.7343 62.0213 19.0974 63.272C22.48 64.5228 39.1387 65.5195 50.4401 72.6136C61.7414 79.7077 68.3111 75.0956 69.8557 71.0697C71.4004 67.0438 61.6241 62.9984 65.3 60.1451C68.9563 57.2918 74.431 54.3604 74.7047 50.4322C74.9785 46.5041 66.1407 41.462 55.25 39.5467C44.3592 37.6315 30.7898 32.3158 25.3151 33.4884C19.8404 34.6805 17.9633 48.0871 16.9075 51.1944Z" fill="#368DC5"/>
<path d="M9.96635 83.7137C14.4048 82.6193 18.941 81.8767 23.4967 81.3685C28.0524 80.8409 32.6473 80.7041 37.2421 80.9386C41.837 81.2122 46.4514 81.8376 50.8507 83.3229C55.25 84.769 59.4342 87.1728 62.6604 90.6124L62.9341 90.9056L62.7973 91.2769C60.8225 97.1007 58.9063 102.964 56.8728 108.768L56.6578 109.374L56.0321 109.217L31.6696 103.179C23.5749 101.087 15.4411 99.0746 7.36586 96.9248L7.11168 96.8662L7.17034 96.6121L9.96635 83.7137ZM9.96635 83.7137L7.71781 96.7294L7.52228 96.4167C15.6952 98.2342 23.8291 100.169 31.9825 102.045L56.384 107.888L55.5628 108.338C57.4985 102.495 59.5515 96.6903 61.5459 90.8665L61.6828 91.5309C58.6717 88.2672 54.7221 85.9221 50.4596 84.4954C46.2167 83.0102 41.7001 82.248 37.1835 81.8767C32.6473 81.5249 28.0915 81.6226 23.5358 81.9158C18.9801 82.2284 14.4439 82.7952 9.96635 83.7137Z" fill="#4AAC00"/>
<path d="M16.2036 73.4731C19.4493 73.5318 22.695 73.8054 25.9212 74.1571C29.1669 74.4894 32.3735 75.0561 35.5606 75.7011C38.7476 76.346 41.9347 77.2059 44.9849 78.398C48.0155 79.6097 51.0853 81.0558 53.4902 83.5574L54.9567 85.0817L52.845 84.6713C49.5015 84.0264 46.0994 83.5769 42.6973 83.1665C39.2951 82.7756 35.8734 82.5216 32.4517 82.3848C29.03 82.248 25.6084 82.248 22.1671 82.3652C18.7454 82.4434 15.3237 82.8343 11.9216 83.2642L11.3155 83.3424L11.5696 82.8147L16.2036 73.4731ZM16.2036 73.4731L12.1953 83.0883L11.8434 82.6388C15.2455 82.033 18.6868 81.564 22.128 81.349C25.5888 81.0949 29.0496 81.0168 32.5104 81.134C39.432 81.349 46.334 81.9548 53.1579 83.3424L52.5126 84.4759C50.4009 82.2089 47.4681 80.7627 44.5352 79.551C41.5632 78.3784 38.4935 77.4013 35.3455 76.6587C29.0887 75.1538 22.6559 74.1376 16.2036 73.4731Z" fill="#4AAC00"/>
<path d="M25.5497 63.4282C26.0776 65.1676 26.1558 66.8873 26.1363 68.5876C26.0776 70.3074 25.9016 72.0076 25.276 73.7274C24.748 71.9881 24.6698 70.2683 24.6894 68.568C24.7676 66.8287 24.9436 65.1285 25.5497 63.4282Z" fill="#4AAC00"/>
<path d="M37.3399 76.6199C37.4572 75.33 37.946 74.2356 38.513 73.2194C39.1192 72.2227 39.8426 71.2651 40.918 70.542C40.8007 71.8514 40.3314 72.9262 39.7448 73.9425C39.1387 74.9392 38.4153 75.8968 37.3399 76.6199Z" fill="#4AAC00"/>
<path d="M47.3508 81.0755C47.9569 79.7661 48.8368 78.789 49.8144 77.8704C50.8116 76.991 51.8674 76.2093 53.2361 75.7402C52.63 77.0496 51.7501 78.0268 50.7725 78.9453C49.7753 79.8052 48.7194 80.6065 47.3508 81.0755Z" fill="#4AAC00"/>
<path d="M59.4538 88.5409C58.9259 87.3293 58.8281 86.1371 58.8281 84.945C58.8868 83.7529 59.0432 82.5608 59.6297 81.3882C60.1577 82.5999 60.2554 83.792 60.2554 84.9841C60.2163 86.1762 60.0404 87.3684 59.4538 88.5409Z" fill="#4AAC00"/>
<path d="M28.9518 34.3677C27.8765 35.7748 26.9184 37.2796 26.2927 38.8821C25.6475 40.4456 25.2955 42.224 25.9408 43.6897C26.5273 45.1164 27.896 46.3085 29.382 46.6407C30.8875 47.0316 32.53 46.5235 33.7031 45.5072C36.0494 43.6702 36.5578 38.4717 32.7059 38.8039C31.8847 38.7844 31.044 38.9017 30.2228 39.1166C30.0077 39.1557 29.8122 39.2339 29.6166 39.2925C29.4602 39.3707 29.2842 39.4098 29.1669 39.527C28.8932 39.7225 28.6977 40.0547 28.5999 40.426C28.3653 41.1687 28.4435 42.0676 28.7563 42.8494C29.0692 43.6115 29.6948 44.3737 30.6334 44.3346C29.7144 44.5496 28.8345 43.8265 28.4239 43.0252C27.9938 42.2044 27.7591 41.2468 27.9351 40.2697C28.0329 39.7811 28.248 39.273 28.6586 38.9212C28.8345 38.7062 29.1083 38.6085 29.3429 38.4913C29.558 38.4131 29.773 38.3154 29.9881 38.2567C30.868 37.9636 31.7674 37.7682 32.7255 37.7095C33.664 37.6509 34.7394 37.7877 35.6388 38.4913C36.5578 39.1753 36.9097 40.3478 36.9293 41.325C36.9879 43.2793 36.1863 45.2922 34.6807 46.6016C33.1752 47.8719 31.044 48.5168 29.0887 47.9501C28.1306 47.6765 27.2117 47.2075 26.5273 46.5039C25.8234 45.8394 25.2369 45.0186 24.9436 44.061C24.2983 42.1458 24.9045 40.1915 25.7061 38.589C26.5273 36.9864 27.6223 35.5598 28.9518 34.3677Z" fill="#FFD63B"/>
<path fill-rule="evenodd" clip-rule="evenodd" d="M94 75.2908C94 75.2908 121.57 62.6254 131.472 55.1609C141.373 47.6963 149.908 38.6416 149.908 38.6416L189.907 112.726C189.907 112.726 154.513 138.244 136.619 146.008L94 75.2908Z" fill="url(#paint2_linear_637_2897)"/>
<path opacity="0.5" fill-rule="evenodd" clip-rule="evenodd" d="M123.105 91.7916C123.105 91.7916 131.116 97.217 135.066 97.2357C139.015 97.2544 155.842 88.817 157.376 84.0277C158.911 79.2384 153.689 71.961 148.13 71.1378C142.571 70.3147 129.694 73.2893 128.009 75.1975C126.325 77.1057 122.993 89.397 123.105 91.7916Z" fill="#FF383B"/>
<path d="M125.145 106.234L133.456 68.7432L162.131 86.1043L125.145 106.234ZM134.392 70.9133L127.148 103.578L159.398 86.0482L134.392 70.9133Z" fill="#4A6B90"/>
<path fill-rule="evenodd" clip-rule="evenodd" d="M130.049 102.549C130.049 102.549 142.927 118.974 146.352 118.151C149.777 117.328 146.071 112.314 148.018 110.294C149.964 108.273 152.061 112.707 158.481 112.576C164.901 112.445 165.668 108.872 164.751 104.588C163.834 100.304 161.738 90.3322 157.451 90.2761C153.146 90.2199 130.049 102.549 130.049 102.549Z" fill="#FFAE3B"/>
<path d="M141.523 120.752L129.039 102.287L157.582 87.4888L167.091 110.069L158.387 113.325L150.975 108.554L145.528 110.986L148.804 117.908L141.523 120.752ZM131.041 102.792L142.047 119.068L146.932 117.179L143.694 110.313L151.106 107.001L158.556 111.791L165.275 109.284L156.909 89.397L131.041 102.792Z" fill="#4A6B90"/>
<path d="M134.841 123.221C133.662 123.053 132.726 122.566 131.827 121.968C130.966 121.35 130.162 120.639 129.6 119.592C130.779 119.741 131.715 120.247 132.614 120.845C133.475 121.463 134.261 122.174 134.841 123.221Z" fill="#B89F40"/>
<path d="M171.433 107.432C170.928 105.879 170.853 104.345 170.872 102.792C170.928 101.258 171.096 99.724 171.676 98.1899C172.182 99.7427 172.257 101.295 172.238 102.83C172.182 104.364 172.013 105.898 171.433 107.432Z" fill="#B89F40"/>
<path d="M175.626 104.85C175.12 103.297 175.045 101.744 175.064 100.21C175.12 98.676 175.289 97.1233 175.869 95.6079C176.374 97.1607 176.449 98.7135 176.431 100.248C176.374 101.8 176.206 103.334 175.626 104.85Z" fill="#B89F40"/>
<path fill-rule="evenodd" clip-rule="evenodd" d="M44.4418 31.936L51.4823 13.8057L59.1828 16.7622L50.04 33.3287L44.4418 31.936Z" fill="url(#paint3_linear_637_2897)"/>
<path fill-rule="evenodd" clip-rule="evenodd" d="M317 41.0943L381.812 29.3911L384.42 105.274L330.604 111.82L317 41.0943Z" fill="url(#paint4_linear_637_2897)"/>
<path d="M332.18 98.4849L331.542 97.2658C331.73 97.172 351.076 87.2693 377.214 92.2769L376.952 93.6273C351.282 88.7135 332.368 98.3911 332.18 98.4849Z" fill="#4AAC00"/>
<path d="M352.173 67.3174L350.81 67.4517L352.992 89.701L354.356 89.5668L352.173 67.3174Z" fill="#4AAC00"/>
<path opacity="0.5" fill-rule="evenodd" clip-rule="evenodd" d="M347.135 66.6761C347.135 66.6761 344.921 72.6965 340.812 72.0213C336.702 71.3461 338.842 64.1629 339.423 63.6002C340.005 63.0376 334.77 61.4059 335.164 59.6992C335.558 57.9925 340.061 57.0735 340.193 56.1544C340.324 55.2354 332.875 49.5339 335.52 45.2389C338.166 40.944 353.102 38.1307 355.861 41.6942C358.619 45.2577 354.21 52.2721 354.641 53.1911C355.054 54.1289 359.783 44.8263 362.184 45.2389C364.586 45.6516 368.17 53.5287 365.9 56.5671C363.648 59.6054 357.381 57.6736 357.343 59.1365C357.306 60.5994 364.098 59.6992 364.267 62.5312C364.417 65.3632 362.672 70.9898 359.464 70.6522C356.255 70.3146 352.633 65.5133 352.633 65.5133L347.135 66.6761Z" fill="#FF383B"/>
<path fill-rule="evenodd" clip-rule="evenodd" d="M353.74 59.0616C353.665 61.7624 351.414 63.9005 348.712 63.8442C346.01 63.7879 343.87 61.5186 343.927 58.8178C344.002 56.1171 346.253 53.979 348.956 54.0353C351.676 54.1103 353.815 56.3609 353.74 59.0616Z" fill="#FFAE3B"/>
<path d="M345.784 86.9509C339.705 86.9509 332.8 85.1504 331.955 82.4871C331.711 81.6994 331.805 80.5366 333.756 79.3925C339.686 75.9228 348.261 81.7369 348.618 81.9807L347.83 83.1061C347.755 83.0498 339.63 77.5358 334.432 80.5741C333.794 80.9492 333.081 81.4931 333.25 82.0558C333.869 83.9688 341.431 86.0694 348.055 85.4692L348.167 86.8383C347.417 86.9133 346.61 86.9509 345.784 86.9509Z" fill="#4AAC00"/>
<path d="M363.423 89.5576L362.56 88.4886C370.76 81.9055 370.872 78.3796 370.591 77.2355C361.058 80.2176 358.882 87.7196 358.863 87.7947L357.531 87.4383C357.625 87.082 359.989 78.8297 370.778 75.7538L371.21 75.6226L371.491 75.9789C371.566 76.0727 372.167 76.8604 371.998 78.4171C371.792 80.5364 370.122 84.1749 363.423 89.5576Z" fill="#4AAC00"/>
<path fill-rule="evenodd" clip-rule="evenodd" d="M345.261 39.7204L341.423 20.6615L349.515 19L350.737 37.8634L345.261 39.7204Z" fill="url(#paint5_linear_637_2897)"/>
<path fill-rule="evenodd" clip-rule="evenodd" d="M141.923 53.5529L145.199 31L154.781 32.3439L148.694 53.6751L141.923 53.5529Z" fill="url(#paint6_linear_637_2897)"/>
<path d="M296.784 55.8044L280.922 48C280.922 48 236.431 55.8044 210 55.8044C210 55.8044 218.157 96.177 218.373 104.438C218.373 104.438 260.882 105.55 294.373 100.983C294.373 100.983 295.686 77.2319 296.784 55.8044Z" fill="url(#paint7_linear_637_2897)"/>
<g opacity="0.72">
<path opacity="0.71" d="M256.627 86.7441C257.294 86.764 257.98 86.8037 258.647 86.8832C258.314 86.8633 257.98 86.8633 257.627 86.8832C257.176 86.8633 256.961 86.8037 256.627 86.7441Z" fill="#3B0040"/>
<path opacity="0.71" d="M260.863 87.1216C260.961 87.1414 261.078 87.1613 261.157 87.1812L260.51 87.062C260.627 87.1017 260.745 87.1216 260.863 87.1216Z" fill="#3B0040"/>
<path opacity="0.71" d="M263.941 87.6976C263.333 87.5983 262.745 87.499 262.196 87.3799C262.686 87.4593 263.275 87.5388 263.941 87.6976Z" fill="#3B0040"/>
<path opacity="0.71" d="M261.176 87.2012C261.51 87.2607 261.843 87.3203 262.196 87.3998C261.824 87.36 261.49 87.3203 261.196 87.3203C261.412 87.3005 261.51 87.2806 261.176 87.2012Z" fill="#3B0040"/>
<path opacity="0.78" d="M263.804 88.6707C264.235 88.7501 264.647 88.8295 265.059 88.909C265.02 89.4452 265.039 90.0211 265.078 90.5572C265.098 91.7686 265.392 93.0991 266.216 94.2311C267.824 96.3361 269.863 97.6865 272.137 98.4411C273.294 98.7986 274.549 98.9773 275.863 98.7787C277.176 98.6 278.49 97.8255 279.314 96.9319C280 96.2765 280.51 95.7801 280.98 95.1446C281.431 94.529 281.941 93.8339 282.314 92.9601C282.706 92.0863 282.843 91.0537 282.765 90.1998C282.725 89.5643 282.588 89.0281 282.451 88.5317C283.098 88.2338 283.745 87.8962 284.412 87.4791C285.02 87.0621 285.725 86.6649 286.49 86.089C287.235 85.5131 288.118 84.6791 288.49 83.3684C288.608 82.9712 288.392 83.011 288.549 82.2563C288.667 81.3627 288.686 80.5882 288.706 79.8137C288.706 79.0392 288.667 78.2647 288.549 77.4704C288.49 76.7158 287.961 75.6235 287.706 74.9086C287.569 74.4916 287.294 73.8958 286.941 73.3398C286.588 72.7639 286.078 72.2476 285.647 71.8901C285.216 71.5128 284.843 71.3539 284.784 71.2745C284.706 71.2149 284.961 71.2745 285.608 71.6717C286.549 72.3071 287.216 73.1412 287.647 73.9554C288.078 74.7895 288.333 75.6037 288.51 76.398C288.843 78.0066 288.902 79.5158 288.882 81.2435C288.941 79.6946 288.922 78.086 288.569 76.3583C288.373 75.5044 288.098 74.6108 287.608 73.737C287.118 72.883 286.373 72.0291 285.412 71.4731C284.176 70.7383 282.588 70.5596 281.176 70.5397C279.745 70.5 278.333 70.5596 277.216 70.1823C276.529 69.944 275.98 69.5468 275.549 69.0106C275.294 67.8787 274.922 66.7269 274.392 65.6346C273.627 64.0062 272.471 62.6161 271.216 61.6232C269.961 60.6104 268.608 59.9154 267.294 59.399C264.627 58.3862 261.882 57.7706 259.02 57.3933C256.157 56.9961 253.137 57.1153 250.392 57.572C247.627 58.0288 245.02 58.5253 242.49 59.2799C239.98 60.0345 237.647 61.1863 235.922 62.7353C234.745 63.8077 233.353 65.1779 232.588 67.0248C232.216 67.9581 232.098 68.8915 231.98 69.7255C231.882 70.5596 231.745 71.2745 231.588 71.9497C231.275 73.2604 231.078 74.2732 231 74.5313C230.941 74.7498 230.882 74.3724 231.02 73.3398C230.902 74.2533 230.824 75.1668 230.902 76.0406C231.02 77.1725 231.373 78.1059 231.725 78.9201C232.431 80.5286 233.059 81.8591 233.725 83.0308C234.392 84.2025 235.078 85.1954 235.922 86.0295C236.647 86.7245 237.471 87.3004 238.412 87.638C238.373 88.1543 238.353 88.6309 238.373 89.1076C238.392 89.7232 238.412 90.3984 238.608 91.1729C238.706 91.5502 238.882 91.9672 239.098 92.3445C239.333 92.7218 239.588 92.9999 239.843 93.258C240.333 93.7346 240.765 94.0921 241.275 94.4694C243.235 95.9191 245.667 96.912 248.314 96.7333C249.314 96.6936 250.216 96.5744 251.02 96.2765C252.588 95.6808 254.255 94.7871 255.412 93.3374C256.569 91.8878 257 90.0409 256.588 88.6707C256.51 88.3132 256.412 87.9359 256.314 87.5586C258.882 87.6579 261.294 88.1345 263.804 88.6707ZM270.725 64.2843C271.392 64.9595 271.961 65.7339 272.392 66.6276C272.902 67.6404 273.255 68.7723 273.49 69.9241C273.608 70.5 273.706 71.0958 273.765 71.7114L273.843 72.6249C273.863 72.8036 273.863 72.883 273.863 72.9625C273.863 73.0419 273.843 73.1214 273.824 73.2008C273.765 73.3597 273.627 73.459 273.471 73.5582C273.216 73.6973 272.98 73.8561 272.706 73.9753C272.176 74.2334 271.627 74.4519 271.059 74.6108C269.922 74.9483 268.686 75.0675 267.471 75.0476C265 74.9881 262.549 74.2533 260.157 73.2405C258.529 72.5455 256.902 71.7312 255.373 70.9369C254.647 70.5397 254 70.0234 253.804 69.3681C253.588 68.7127 253.824 67.9184 254.235 67.2631C254.647 66.5879 255.275 66.0517 255.941 65.5751C256.608 65.0985 257.353 64.7212 258.118 64.4431C259.667 63.8672 261.314 63.5892 262.98 63.4502C264.647 63.331 266.333 63.2516 267.941 63.4701C268.922 63.6091 269.882 63.8474 270.725 64.2843ZM281.804 71.7312C280.843 71.771 279.745 71.91 278.412 71.6915C279.49 71.6717 280.784 71.6121 281.804 71.7312ZM266.196 89.1473C266.275 89.4054 266.353 89.6835 266.275 90.0211C266.137 89.7629 266.118 89.4054 266.196 89.1473ZM265.059 88.7501C264.373 88.5912 263.667 88.4324 262.902 88.2536C262.235 88.0948 262.275 88.3331 261.922 88.2536C259.765 87.8565 258.098 87.3799 256.686 87.3799C256.549 87.3799 256.412 87.3799 256.275 87.3799C256.196 87.0423 256.098 86.7245 256.02 86.4068C256.078 86.4862 256.157 86.5458 256.235 86.6054C256.235 86.6054 256.294 86.804 256.333 86.8834C256.431 86.9827 256.49 86.943 256.569 86.9231C256.392 86.6054 256.176 86.3273 255.922 86.0493C255.882 85.9103 255.824 85.7514 255.784 85.6323C255.51 84.8777 255.431 84.4606 256 85.3146C255.196 84.0237 254.412 83.3684 253.686 82.9712C253.471 82.8521 253.255 82.7726 253.039 82.7329C253.039 82.6535 252.961 82.6138 252.882 82.5542L253.02 82.7329C252.49 82.6336 251.98 82.7329 251.608 83.1102C251.549 83.1301 251.373 83.4876 251.49 83.7854C251.608 84.1032 251.882 84.3018 252.196 84.5599C252.471 84.5996 253.118 85.0365 253.51 85.6919C253.824 86.1883 254.039 86.8834 254.196 87.4593C254.059 87.4593 253.902 87.4791 253.745 87.4791C253.902 87.4791 254.039 87.4593 254.196 87.4593C254.235 87.5983 254.255 87.7373 254.294 87.8366C254.706 89.4849 254.157 91.292 252.98 92.424C251.784 93.5956 250.098 94.2509 248.294 94.4098C246.471 94.5687 244.49 94.0325 242.745 92.9403C241.961 92.4239 241.118 91.848 240.686 91.2126C240.255 90.5572 240.216 89.6239 240.176 88.7104C240.176 88.3331 240.176 87.9756 240.216 87.5983C240.255 87.5387 240.255 87.4791 240.235 87.4196C240.294 86.9628 240.373 86.5061 240.51 86.089C240.784 85.255 241.314 84.5401 242.02 83.9443C242.451 83.567 242.941 83.2691 243.431 82.9911C243.686 82.8521 243.941 82.7131 244.196 82.5939C244.235 82.5741 244.412 82.4946 244.412 82.4946C244.529 82.3159 244.804 82.2365 245.059 82.157C245.137 82.1372 245.216 82.1173 245.294 82.0776C245.647 81.9187 246 81.7599 246.353 81.6208C246.196 81.6407 245.98 81.7003 245.98 81.7003C246.078 81.6407 246.157 81.601 246.216 81.5414C246.176 81.601 246.157 81.6407 246.255 81.6407C246.314 81.6208 246.373 81.6208 246.431 81.601C246.588 81.5414 246.745 81.4818 246.902 81.4223C246.98 81.3825 247.059 81.323 247.137 81.2634C247.255 81.2038 247.314 81.2435 247.412 81.2634C248.51 80.9457 249.745 80.7272 250.941 81.1045C250.941 81.1045 251.098 81.1244 251.314 81.1244C251.51 81.1442 251.745 81.184 251.863 81.184C251.784 81.1244 251.686 81.0847 251.588 81.0251C251.529 81.0648 251.51 81.1442 251.373 81.1045C251.294 81.0449 251.118 80.9258 251.118 80.9258C250.647 80.9457 250.255 80.8066 249.784 80.7272L250 80.6279C250.275 80.6676 250.275 80.7471 250.059 80.7669C250.608 80.6676 251.137 80.7868 251.608 81.0251C250.843 80.5286 249.824 80.2903 248.941 80.2506C248.824 80.2307 248.686 80.2307 248.569 80.2307C248.373 80.2506 248.216 80.2903 248.039 80.33C247.765 80.4095 247.51 80.5286 247.216 80.6478C246.843 80.8265 246.294 80.6875 245.667 80.8464C245.569 80.8662 245.667 81.0648 245.471 81.0847C245.02 81.184 244.627 81.2435 244.235 81.4024C244.039 81.4223 243.863 81.7996 243.647 81.8393C243.216 81.9584 241.961 82.2563 242.608 81.9386C243.608 81.462 244.235 81.2833 245.118 80.9655C244.314 81.184 243.49 81.4223 242.529 81.9187C241.922 82.2365 241.196 82.8322 240.51 83.4478C239.725 84.0436 239 85.0167 238.647 86.1288C238.275 85.7912 237.863 85.3741 237.373 84.7784C236.569 83.8847 235.745 82.5343 234.961 80.9258C234.569 80.1315 234.176 79.218 233.804 78.3442C233.451 77.4704 233.176 76.6562 233.118 75.8817C232.961 74.3526 233.706 72.3469 233.922 70.2816C234.039 69.3284 234.157 68.5539 234.373 67.9581C234.588 67.3624 234.941 66.8063 235.314 66.3098C237.353 63.6885 240.667 62.2388 244 61.3452C245.686 60.8884 247.412 60.531 249.137 60.1934C250.863 59.8558 252.569 59.5976 254.255 59.4983C257.647 59.3196 261.078 59.8558 264.412 60.809C265.118 61.0076 265.804 61.2657 266.471 61.5438C265.196 61.4842 263.941 61.5438 262.725 61.6431C260.863 61.8019 258.98 62.0998 257.137 62.8346C256.275 63.2119 255.392 63.6885 254.588 64.2843C253.804 64.88 252.98 65.6545 252.451 66.6673C252.176 67.1836 251.961 67.7595 251.882 68.4347C251.804 69.0901 251.922 69.8447 252.216 70.4802C252.863 71.7908 253.941 72.3667 254.725 72.8036C257.804 74.3923 260.922 76.0604 264.549 76.8151C266.353 77.1924 268.235 77.2917 270.118 77.0136C271.059 76.8746 272 76.6165 272.902 76.259C273.353 76.0803 273.804 75.8618 274.235 75.6235L274.569 75.4448C274.667 75.3852 274.902 75.2264 275.059 75.1072C275.392 74.8491 275.667 74.5115 275.824 74.1143C275.941 73.8363 276.02 73.5384 276.039 73.2405C276.059 72.9426 276.039 72.5852 276.02 72.4859L275.941 71.5128C275.922 71.3738 275.902 71.2348 275.882 71.0958C276.176 71.2546 276.49 71.3738 276.804 71.4731C277.686 71.7312 278.569 71.8107 279.451 71.8305C280.549 71.8703 281.608 71.8504 282.627 71.9894C283.647 72.1284 284.627 72.466 285.392 73.1412C286.176 73.7965 286.725 74.7498 287.059 75.7427C287.098 75.8221 287.137 75.9016 287.176 76.0009L287.118 75.8618C287.196 76.1001 287.275 76.3385 287.333 76.5768C287.608 77.1527 287.725 78.1853 287.765 79.218C287.765 79.4761 287.784 79.7939 287.784 80.1116C287.843 81.5216 287.863 83.011 287.118 84.2025C287.176 84.123 287.235 84.0436 287.275 83.9642C287.314 83.8847 287.353 83.8053 287.392 83.7259C287.471 83.567 287.51 83.4478 287.549 83.3485C287.588 83.2294 287.627 83.1102 287.667 82.9911C287.667 82.9514 287.686 82.9117 287.686 82.8719C287.706 82.7726 287.725 82.6535 287.745 82.5542C287.725 82.6932 287.706 82.8521 287.667 82.9911C287.588 83.3684 287.49 83.6861 287.373 83.9642C287.314 84.1628 287.157 84.4606 287.098 84.5798C287.176 84.4011 287.275 84.2025 287.373 83.9642C287.431 83.7457 287.451 83.6464 287.275 83.9443C287.157 84.1429 287.039 84.3216 286.902 84.5003C286.549 84.9968 286.118 85.4337 285.627 85.8309C285.373 86.0493 285.118 86.2678 284.882 86.5061C284.529 86.7841 284.294 86.8437 284 86.9827C283.431 87.3203 282.824 87.5983 282.216 87.8565C282 87.2607 281.706 86.6848 281.294 86.2082C280.745 85.5131 280.059 84.4805 279.431 83.9244C279.137 83.6464 278.882 83.4677 278.863 83.3684C278.843 83.3088 278.922 83.3088 279.098 83.3684C277.922 82.8521 277.059 82.8719 276.412 82.8521C275.706 82.8719 275.176 83.0308 274.667 83.4876C274.627 83.4876 274.588 83.4677 274.549 83.4677C274.49 83.6067 273.725 84.6989 275.529 84.9372C276.157 84.8975 277.039 84.9571 277.588 85.2153C278.137 85.4536 278.529 85.9302 278.882 86.4465C279.314 87.0224 279.627 87.7969 279.902 88.6111C277.157 89.3061 274.157 89.3856 271.176 89.048C271.176 89.048 268.843 88.9288 268 88.8891C268.353 88.9487 268.725 89.0083 269.078 89.0678C269.196 89.0281 269.176 88.9487 269.706 88.9884C270.039 89.0678 270.745 89.2068 270.745 89.2068C272.314 89.2068 273.922 89.3856 275.569 89.3856C275.333 89.4253 275.098 89.4849 274.843 89.5246C273.902 89.5047 273.804 89.4452 274.627 89.3856C272.706 89.5444 270.902 89.3657 269.078 89.0877C272.118 89.6835 275.569 90.0012 278.569 89.604C278.98 89.5643 279.412 89.4849 279.804 89.4253C279.922 89.4054 280.039 89.3657 280.157 89.3459C280.353 90.0211 280.451 90.6565 280.412 91.2126C280.353 92.5828 279.039 93.9133 277.843 95.2637C277.235 95.9191 276.569 96.3758 275.725 96.5943C274.882 96.8326 273.941 96.8127 273.02 96.6141C271.294 96.2169 269.745 95.3432 268.529 94.1715C267.314 93.0197 266.412 91.4906 266.333 89.743C266.333 89.5444 266.353 89.3459 266.373 89.1473C268.49 89.5643 270.49 89.9218 273.216 90.1203C274.471 90.1601 274.039 90.0806 273.078 89.9615C272.118 89.8423 270.667 89.5842 269.863 89.4452C269.176 89.3061 268.039 89.3856 267.373 89.2267C267.039 89.1671 266.706 89.1076 266.392 89.048C266.431 88.7501 266.471 88.4721 266.549 88.1941C266.627 87.9359 266.725 87.6777 266.824 87.4394C266.863 87.3401 266.902 87.2806 266.922 87.2408C266.902 87.0423 267.059 86.8238 267.235 86.6252C267.275 86.5656 267.333 86.5061 267.392 86.4465C267.588 86.1486 267.824 85.8706 268.078 85.5926C267.961 85.672 267.804 85.811 267.804 85.811C267.863 85.7316 267.902 85.6522 267.941 85.5727C267.961 85.5131 268 85.4337 268 85.394C267.98 85.4536 267.961 85.5131 267.941 85.5727C267.922 85.6323 267.941 85.6919 268.02 85.6323L268.157 85.533C268.275 85.4138 268.373 85.3146 268.51 85.1954C268.569 85.1358 268.608 85.0564 268.647 84.9571C268.725 84.8578 268.804 84.8777 268.902 84.8578C269.765 84.1826 270.824 83.7259 272 83.4876C272 83.4876 272.588 83.2095 272.765 83.0705C272.667 83.0705 272.569 83.0904 272.471 83.0904C272.451 83.15 272.471 83.2294 272.353 83.289C272.255 83.289 272.078 83.2691 272.078 83.2691C271.725 83.5273 271.294 83.567 270.863 83.6464L271 83.4677C271.235 83.4081 271.275 83.4677 271.098 83.567C271.529 83.2691 272 83.15 272.471 83.0904C271.647 83.1102 270.725 83.2294 269.922 83.4478C269.804 83.4677 269.706 83.5074 269.588 83.5471C269.431 83.6067 269.275 83.706 269.137 83.8053C268.922 83.9642 268.706 84.1429 268.49 84.3613C268.216 84.6394 267.647 84.7188 267.157 85.1557C267.078 85.2153 267.255 85.3543 267.078 85.4734C266.725 85.7713 266.412 86.0493 266.157 86.4465C266 86.6054 266.078 87.0025 265.961 87.1614C265.686 87.5387 265.039 88.6905 265.255 87.9756C265.627 86.8834 266.078 86.2876 266.706 85.533C266.078 86.1486 265.51 86.943 265.196 88.0352C265.137 88.2338 265.098 88.4919 265.059 88.7501ZM242.353 83.4478C242.196 83.6861 242.02 83.9443 241.686 84.0833C241.824 83.8053 242.098 83.5471 242.353 83.4478Z" fill="#3B7ACE"/>
<path opacity="0.71" d="M246.804 87.3996C244.922 87.6776 243.118 87.757 241.275 87.5982C241.392 87.5386 241.373 87.4592 241.882 87.4592C242.216 87.5187 242.922 87.5783 242.922 87.5783C244.471 87.4393 246.098 87.3996 247.725 87.3599C247.49 87.4194 247.255 87.479 247.02 87.5386C246.078 87.5584 245.98 87.4989 246.804 87.3996Z" fill="#3B0040"/>
<path opacity="0.71" d="M240.843 87.3202C240.824 87.1811 241.078 87.0819 241.137 87.1613C241.059 87.062 240.804 87.201 240.863 87.3599C240.922 87.5187 241.118 87.5783 241.294 87.618C241.059 87.5982 240.863 87.4989 240.843 87.3202Z" fill="#3B0040"/>
<path d="M230.98 73.28C231 73.0616 231.039 72.8034 231.098 72.5254C231.059 72.7836 231.02 73.0417 230.98 73.28Z" fill="#1D1D1D"/>
<path opacity="0.71" d="M274.569 83.3882C274.51 83.4279 274.49 83.4676 274.569 83.4875L274.314 83.4676C274.412 83.4279 274.49 83.408 274.569 83.3882Z" fill="#3B0040"/>
<path opacity="0.71" d="M274.569 83.388C274.627 83.3483 274.706 83.3285 274.725 83.3086C274.686 83.3285 274.627 83.3483 274.569 83.388Z" fill="#3B0040"/>
<path opacity="0.71" d="M271.216 82.7328C272.235 82.4945 272.902 82.4746 273.824 82.4746C274.569 82.5342 275.255 82.6732 275.98 82.8122C276.176 82.8519 276.373 82.8519 276.569 82.8519C276.314 82.8519 276.039 82.8718 275.765 82.8718C275.392 82.9115 274.941 82.5739 274.353 82.5342C274.255 82.5143 274.294 82.7526 274.098 82.6931C273.667 82.6335 273.275 82.5739 272.863 82.6136C272.667 82.5938 272.412 82.8916 272.216 82.8718C271.745 82.8916 270.549 82.9115 271.216 82.7328Z" fill="#3B0040"/>
<path opacity="0.71" d="M279.137 83.3682C279.235 83.4079 279.353 83.4476 279.51 83.527C279.373 83.4873 279.255 83.4277 279.137 83.3682Z" fill="#3B0040"/>
<path opacity="0.71" d="M253.078 82.7329C253.137 82.7528 253.216 82.7925 253.255 82.8123C253.216 82.7726 253.137 82.7528 253.078 82.7329Z" fill="#3B0040"/>
<path opacity="0.71" d="M253.51 81.9582C253.451 81.8589 253.314 82.0575 253.196 81.8788C252.902 81.5015 252.627 81.144 252.216 80.9057C252.059 80.7468 251.627 80.8461 251.451 80.7071C251.039 80.4092 249.765 79.9525 250.529 80.0716C251.686 80.3298 252.412 80.8064 253.137 81.5015C253.686 82.1171 254.059 82.7526 254.49 83.4079C254.627 83.5866 254.765 83.7256 254.902 83.8845C254.706 83.7058 254.51 83.5072 254.294 83.3086C254 83.0306 253.922 82.4745 253.51 81.9582Z" fill="#3B0040"/>
<path opacity="0.71" d="M256.706 87.2209C256.647 87.1216 256.608 87.0422 256.549 86.9429C256.627 87.0422 256.667 87.1415 256.706 87.2209Z" fill="#3B0040"/>
<path opacity="0.71" d="M231.647 91.4508C231.412 91.5103 231.196 91.5699 230.961 91.5898C231.078 91.5501 231.196 91.5302 231.294 91.4508C231.431 91.411 231.51 91.4508 231.647 91.4508Z" fill="#3B0040"/>
<path opacity="0.71" d="M230.157 91.6495C230.137 91.6296 230.216 91.6495 230.275 91.6495C230.255 91.6495 230.196 91.6495 230.157 91.6495Z" fill="#3B0040"/>
<path opacity="0.71" d="M229.706 91.5501C229.529 91.5303 229.333 91.5104 229.098 91.4111C229.314 91.4509 229.49 91.4906 229.706 91.5501Z" fill="#3B0040"/>
<path opacity="0.71" d="M230.059 91.6095L229.706 91.5301C229.843 91.5301 229.961 91.5301 230.059 91.5103C229.98 91.55 229.941 91.5698 230.059 91.6095Z" fill="#3B0040"/>
<path opacity="0.71" d="M230.059 91.5106C230.137 91.4907 230.216 91.4709 230.294 91.4312C230.235 91.451 230.137 91.4907 230.059 91.5106Z" fill="#3B0040"/>
<path opacity="0.71" d="M231.647 90.6965C231.863 90.6369 232.059 90.5177 232.235 90.3986C232 90.5575 231.745 90.7163 231.451 90.8355C231.039 91.0142 230.471 90.7759 229.882 90.6369C229.784 90.5972 229.765 90.8355 229.569 90.7362C229.098 90.5575 228.765 90.3192 228.392 90.1007C228.255 89.9617 227.843 90.0014 227.706 89.8028C227.529 89.6241 227.314 89.2468 227.235 88.9886C227.157 88.7305 227.176 88.5914 227.333 88.8695C227.902 89.6638 228.471 90.1206 229.353 90.4383C230.059 90.7362 230.843 90.8752 231.647 90.6965Z" fill="#3B0040"/>
<path opacity="0.71" d="M234.843 87.757C234.804 87.8762 234.686 88.0946 234.686 88.0946C234.706 88.6507 234.392 89.167 234 89.584C234.02 89.5046 234.039 89.4053 234.039 89.306C234.216 89.0478 234.294 89.0478 234.196 89.3259C234.431 88.7102 234.588 88.1343 234.725 87.5386C234.784 87.5584 234.843 87.5783 234.843 87.757Z" fill="#3B0040"/>
<path opacity="0.71" d="M234.765 87.1416C234.745 87.2806 234.725 87.3998 234.706 87.5189C234.725 87.3799 234.745 87.2608 234.765 87.1416Z" fill="#3B0040"/>
<path opacity="0.71" d="M227.784 82.1171C227.784 82.0774 228.02 82.2561 228.02 82.2561C228 82.276 227.784 82.1171 227.784 82.1171Z" fill="#3B0040"/>
<path opacity="0.71" d="M228.863 82.9512C228.882 82.9512 229.176 83.1696 229.176 83.1696C229.137 83.1895 228.863 82.971 228.863 82.9512Z" fill="#3B0040"/>
<path opacity="0.71" d="M229.196 83.2294C228.98 83.2493 228.843 83.3088 228.706 83.3684C228.765 83.2294 228.824 83.0904 228.863 82.9514C228.961 82.9117 229 82.9117 229.078 82.8918L228.922 82.7726C228.98 82.5939 229 82.3953 229.02 82.2166L229.098 81.7996L228.725 81.9783L228.235 82.2166L228.059 82.0975C228.039 82.1372 228.02 82.1967 228 82.2365C227.804 82.6535 227.471 82.9117 227.647 82.5542C227.725 82.3953 227.745 82.2365 227.784 82.1173C227.686 82.2563 227.647 82.4152 227.588 82.5939C227.549 82.6932 227.49 82.8124 227.431 82.9315C227.392 82.9514 227.353 82.9911 227.314 83.0109C227.255 83.0705 227.176 83.15 227.098 83.2095C226.961 83.3684 226.843 83.5471 226.725 83.7259C226.608 83.8053 226.49 83.8847 226.353 83.9443C225.882 84.1032 225.392 84.1429 224.922 84.0833C224.431 84.0237 224.059 83.8649 223.627 83.5868C222.784 83.1102 222.216 82.1173 222.039 81.0847C221.863 80.1314 222.039 79.2378 222.451 78.4037C222.804 78.4435 223.176 78.4633 223.529 78.4435C224.922 78.3243 226.412 77.7286 227.196 76.1597C227.353 75.7625 227.451 75.3257 227.392 74.8292C227.353 74.571 227.275 74.293 227.078 74.0348C226.882 73.7767 226.588 73.598 226.314 73.5185C225.706 73.3795 225.333 73.5384 225.02 73.6377C224.686 73.737 224.373 73.876 224.059 74.015C223.176 74.4519 222.392 75.0874 221.765 75.842C221.255 75.5838 220.882 75.2264 220.588 74.7498C219.902 73.6377 219.784 72.2674 219.647 70.9965C219.529 70.083 220.118 68.8716 220.706 68.2957C221.294 67.7198 221.627 67.6205 221.078 68.3553C221.843 67.2035 222.765 66.7269 223.471 66.4091C224.196 66.0914 224.765 65.8729 225.471 65.3963C225.529 65.3566 225.863 65.0985 225.902 64.7807C225.941 64.5027 225.627 64.0261 224.137 64.0658C223.078 64.2644 221.549 64.7807 220.294 65.7935C219.02 66.7666 218.078 68.1964 217.765 69.3085C217.353 70.7582 217.275 72.2079 217.549 73.5781C217.843 74.9483 218.49 76.2789 219.608 77.2122C219.902 77.4505 220.235 77.669 220.569 77.8278C220.235 78.6619 220.078 79.5555 220.118 80.4293C220.176 81.6606 220.588 82.8521 221.314 83.845C222.039 84.8181 223.098 85.5529 224.333 85.7117C224.922 85.7713 225.51 85.7117 226.059 85.5529C226.039 85.6521 225.98 85.7117 225.922 85.7912C225.667 87.2011 225.98 88.8097 227.078 89.9416C227.078 89.9416 227.235 90.0608 227.451 90.1601C227.647 90.2792 227.902 90.3586 228.039 90.3785C227.941 90.3189 227.863 90.2395 227.765 90.1601C227.686 90.1998 227.647 90.2593 227.49 90.1799C227.412 90.0806 227.294 89.9019 227.294 89.9019C226.804 89.6834 226.529 89.1671 226.373 88.6707C226.431 88.7302 226.51 88.7699 226.569 88.8295C226.706 89.0877 226.667 89.1671 226.49 88.9487C226.902 89.4253 227.294 89.8026 227.745 90.1799C227.02 89.5047 226.588 88.5118 226.569 87.6579C226.569 87.5387 226.569 87.4196 226.569 87.3004C226.569 87.1217 226.549 86.943 226.529 86.7841C226.49 86.5061 226.49 86.228 226.51 85.8904C226.529 85.672 226.647 85.4536 226.824 85.2153C227.137 85.0564 227.431 84.8777 227.686 84.6592C228.078 84.3415 228.392 83.9443 228.627 83.4876C228.804 83.4081 229 83.289 229.196 83.2294ZM227.353 84.8181C227.588 84.5003 227.902 84.2025 228.137 83.9642C228.02 84.3018 227.784 84.6394 227.353 84.8181Z" fill="#3B0040"/>
</g>
<path d="M296.784 55.8044C296.784 55.8044 290.902 58.2669 287.176 58.823C287.176 58.823 282.353 52.4682 280.922 48L296.784 55.8044Z" fill="#FCEAB8"/>
<path d="M287.176 58.8228C290.902 58.2668 296.784 55.8043 296.784 55.8043C296.784 55.8043 290.373 60.3718 286.647 60.9278C286.647 60.9278 282.353 52.4482 280.922 47.98C282.353 52.468 287.176 58.8228 287.176 58.8228Z" fill="#FDA39A"/>
<path fill-rule="evenodd" clip-rule="evenodd" d="M250.176 61.9259L240.757 41.1738L249.549 37.1312L255.942 58.3728L250.176 61.9259Z" fill="url(#paint8_linear_637_2897)"/>
<defs>
<linearGradient id="paint0_linear_637_2897" x1="-9.5087" y1="14.6259" x2="410.776" y2="25.5198" gradientUnits="userSpaceOnUse">
<stop stop-color="#FF8E97"/>
<stop offset="1" stop-color="#FFA46F"/>
</linearGradient>
<linearGradient id="paint1_linear_637_2897" x1="43.3739" y1="113.06" x2="45.5827" y2="27.7621" gradientUnits="userSpaceOnUse">
<stop stop-color="#FFB8BD"/>
<stop offset="1" stop-color="#FFEAB8"/>
</linearGradient>
<linearGradient id="paint2_linear_637_2897" x1="160.973" y1="134.653" x2="122.147" y2="51.6087" gradientUnits="userSpaceOnUse">
<stop stop-color="#FFB8BD"/>
<stop offset="1" stop-color="#FFEAB8"/>
</linearGradient>
<linearGradient id="paint3_linear_637_2897" x1="51.5804" y1="33.3679" x2="52.0865" y2="13.8241" gradientUnits="userSpaceOnUse">
<stop offset="0.00558659" stop-color="#2F364F"/>
<stop offset="0.9693" stop-color="#596966"/>
</linearGradient>
<linearGradient id="paint4_linear_637_2897" x1="369.119" y1="110.256" x2="343.786" y2="32.383" gradientUnits="userSpaceOnUse">
<stop stop-color="#FFB8BD"/>
<stop offset="1" stop-color="#FFEAB8"/>
</linearGradient>
<linearGradient id="paint5_linear_637_2897" x1="352.048" y1="37.0797" x2="341.952" y2="20.3343" gradientUnits="userSpaceOnUse">
<stop offset="0.00558659" stop-color="#2F364F"/>
<stop offset="0.9693" stop-color="#596966"/>
</linearGradient>
<linearGradient id="paint6_linear_637_2897" x1="150.457" y1="53.3168" x2="145.895" y2="30.848" gradientUnits="userSpaceOnUse">
<stop offset="0.00558659" stop-color="#2F364F"/>
<stop offset="0.9693" stop-color="#596966"/>
</linearGradient>
<linearGradient id="paint7_linear_637_2897" x1="235.289" y1="41.0213" x2="276.472" y2="111.453" gradientUnits="userSpaceOnUse">
<stop offset="0.2043" stop-color="#FCEAB8"/>
<stop offset="0.4054" stop-color="#FCDDB2"/>
<stop offset="0.7764" stop-color="#FDBBA4"/>
<stop offset="1" stop-color="#FDA39A"/>
</linearGradient>
<linearGradient id="paint8_linear_637_2897" x1="257.233" y1="57.1194" x2="241.261" y2="40.67" gradientUnits="userSpaceOnUse">
<stop offset="0.00558659" stop-color="#2F364F"/>
<stop offset="0.9693" stop-color="#596966"/>
</linearGradient>
</defs>
</svg>
