<svg width="393" height="340" viewBox="0 0 393 340" fill="none" xmlns="http://www.w3.org/2000/svg">
<g clip-path="url(#clip0_2783_13114)">
<g clip-path="url(#clip1_2783_13114)">
<path d="M158.75 105.505L150.061 67.9019C149.767 66.6339 150.566 65.3543 151.834 65.0608C153.114 64.7673 154.382 65.5656 154.676 66.8335L163.353 104.437C163.647 105.716 162.848 106.984 161.58 107.278C160.312 107.583 159.044 106.785 158.75 105.505Z" fill="#52DA20"/>
<path d="M347.177 129.868L344.653 148.828C344.571 149.438 344.242 149.978 343.725 150.319C343.22 150.659 342.586 150.777 341.999 150.624C341.4 150.472 340.907 150.084 340.613 149.544C340.331 149.004 340.284 148.37 340.496 147.795L347.177 129.868Z" fill="#FF6E00"/>
<path d="M267.794 96L254 114.303L272.307 128.095L286.101 109.791L267.794 96Z" fill="#FFCC00"/>
<path d="M350.455 59.6957C350.08 57.6999 348.894 55.3988 346.639 55.0466C343.891 54.624 341.508 57.1598 339.934 59.0382C339.523 59.5313 339.136 60.0361 338.748 60.5644C338.549 60.8345 338.337 61.1162 338.126 61.3862C338.114 61.398 337.914 61.6797 337.867 61.6915C338.114 61.4684 338.138 61.4449 337.903 61.6328C337.821 61.7032 337.727 61.7619 337.633 61.7971C336.482 62.4546 335.331 62.2198 334.321 61.5036C333.441 60.8932 332.689 60.0596 331.667 59.6839C330.587 59.2965 329.366 59.4491 328.297 59.8718C326.923 60.447 325.784 61.5036 324.786 62.5602C323.706 63.699 322.849 64.9787 322.015 66.2936C321.933 66.4344 322.215 66.2466 322.168 66.2701C322.356 66.1879 322.579 65.9414 322.708 65.8122C323.06 65.4835 323.436 65.143 323.694 64.7321C324.035 64.2038 324.364 63.6755 324.728 63.1472C324.892 62.9242 325.045 62.7011 325.221 62.4898C325.291 62.3959 325.362 62.302 325.444 62.208C325.256 62.4076 325.538 62.1493 325.585 62.1141C326.466 61.4802 327.605 61.0693 328.708 61.0927C329.765 61.1162 330.611 61.5741 331.421 62.1963C332.149 62.7716 332.853 63.4642 333.781 63.7342C334.826 64.0277 335.836 63.6168 336.682 62.9946C337.738 62.2198 338.678 61.2454 339.476 60.224C340.122 59.4374 340.78 58.2634 341.472 57.6764C342.365 56.9368 343.692 56.5024 344.843 56.655C347.144 56.9485 348.365 59.2848 348.753 61.3158C348.765 61.3393 349.61 60.6349 349.669 60.5644C349.845 60.4588 350.502 59.9422 350.455 59.6957Z" fill="#BDD400"/>
<path d="M204.781 112.007C204.505 113.293 202.906 113.499 201.942 112.996C200.756 112.378 200.239 111.077 199.757 109.887C199.261 108.616 198.799 107.334 198.269 106.073C198.073 105.618 197.778 105.047 197.211 105.008C196.806 104.978 196.469 105.272 196.188 105.547C195.907 105.823 195.643 106.154 195.304 106.363C194.829 106.651 194.28 106.594 193.819 106.347C192.862 105.829 192.624 104.746 192.694 103.737C192.877 101.395 193.325 98.5368 191.898 96.517C191.217 95.552 190.139 94.8875 188.923 95.0942C187.718 95.2973 186.755 96.2121 185.896 97.0314C185.728 97.1968 185.77 97.7506 185.776 97.9586C185.773 98.1813 185.76 98.4077 185.78 98.6233C185.776 98.6493 185.822 98.906 185.833 98.9024C186.624 98.1417 187.475 97.3372 188.54 97.0435C189.612 96.7351 190.674 97.121 191.423 97.9159C193.268 99.8508 192.457 102.542 192.455 104.948C192.456 106.022 192.524 107.307 193.43 108.015C193.78 108.297 194.232 108.472 194.674 108.428C195.187 108.374 195.539 108.014 195.884 107.668C196.143 107.4 196.41 107.079 196.761 106.942C197.387 106.703 197.834 107.213 198.078 107.739C198.663 109.019 199.113 110.379 199.631 111.68C200.12 112.929 200.699 114.346 201.997 114.927C203.139 115.447 204.51 114.919 204.795 113.619C204.884 113.208 204.877 112.766 204.867 112.35C204.886 112.257 204.855 111.662 204.781 112.007Z" fill="#FF6E00"/>
<path d="M75.013 201.805L88.1294 224.522C88.5756 225.297 88.3055 226.271 87.5423 226.718C86.7673 227.164 85.7809 226.905 85.3347 226.131L72.2183 203.425C71.7721 202.651 72.0305 201.664 72.8055 201.218C73.5922 200.772 74.5668 201.03 75.013 201.805Z" fill="#52DA20"/>
<path d="M59.3908 230L35.7884 260.653C35.0369 261.628 33.8979 262.25 32.6649 262.332C31.4319 262.426 30.2225 261.98 29.33 261.123C28.4376 260.266 27.9562 259.068 28.0031 257.836C28.0501 256.603 28.6255 255.441 29.5766 254.654L59.3908 230Z" fill="#FF6E00"/>
<path d="M237.391 113L213.788 143.653C213.037 144.628 211.898 145.25 210.665 145.332C209.432 145.426 208.222 144.98 207.33 144.123C206.438 143.266 205.956 142.068 206.003 140.836C206.05 139.603 206.625 138.441 207.577 137.654L237.391 113Z" fill="#FF6E00"/>
<path d="M175.764 33.1974L168.848 4L157 9.77608L175.764 33.1974Z" fill="#FFCC00"/>
<path d="M91.5905 144.649L65.5105 126.898L60.7078 138.215L91.5905 144.649Z" fill="#FFCC00"/>
<path d="M14.5834 186.525L9.40497 208.679L33.2539 199.521L14.5834 186.525Z" fill="#FFCC00"/>
<path d="M60.9651 40.089C58.8045 42.8127 60.6715 46.0999 62.656 48.1897C63.889 49.4928 65.3216 49.9976 67.0594 50.3733C68.4216 50.6668 69.7367 50.8546 71.0636 50.2794C73.5061 49.2462 74.9269 46.8396 77.0993 45.419C77.7099 45.0199 78.3205 44.7968 79.0133 44.5972C79.1307 44.562 79.2716 44.5855 79.389 44.5502C77.2637 45.2899 77.4398 43.7519 78.0269 44.3742C78.3557 44.7029 78.6962 44.9611 78.9663 45.3486C79.8705 46.6517 80.0701 48.2484 79.9879 49.8098C79.8235 52.78 78.5906 56.1963 80.2697 58.9317C80.9273 60.0118 81.9607 60.7045 83.1232 61.1271C84.6967 61.7024 86.5167 62.1603 88.2077 62.1368C91.2724 62.0781 92.9751 59.3192 95.1122 57.5347C95.6876 57.0534 96.2865 56.619 96.9675 56.3255C97.2846 56.1846 97.6134 56.0672 97.9539 55.9967C98.0948 55.9615 98.224 55.9615 98.3532 55.938C99.0929 55.7737 95.8403 54.9167 97.038 55.6563C98.3884 56.4898 99.2808 58.0395 99.7153 59.5422C100.197 61.1858 100.068 62.8529 98.8698 64.1678C97.6486 65.4944 96.5213 66.551 96.4978 68.5116C96.4626 72.5854 101.183 73.8298 104.459 73.9707C105.234 74.0059 103.943 73.5833 103.849 73.548C103.015 73.3015 102.111 73.0667 101.242 73.0315C101.371 73.0315 103.473 73.8415 102.428 73.2076C102.299 73.1254 102.169 73.0432 102.052 72.9493C101.711 72.7028 101.406 72.4093 101.16 72.0688C100.76 71.5288 100.49 70.8831 100.373 70.2139C100.138 68.9107 100.49 67.4902 101.312 66.4454C102.287 65.2009 103.579 64.4143 103.778 62.712C103.931 61.3385 103.485 59.9297 102.827 58.7557C101.347 56.0555 98.2122 54.9871 95.2414 54.9754C92.5054 54.9754 90.6736 57.3586 88.8535 59.0961C87.8084 60.094 86.5754 61.0332 85.0959 61.1741C84.9432 61.1976 84.7671 61.1741 84.6144 61.2093C86.047 60.8923 86.4815 61.8668 85.7417 61.3972C85.5069 61.268 85.2838 61.1154 85.0724 60.951C84.4735 60.4697 84.0273 59.8592 83.722 59.1548C82.5478 56.4194 83.6633 53.367 83.7807 50.5377C83.9099 47.6027 82.7239 45.1373 79.8353 44.292C78.4262 43.8693 76.747 43.3763 75.244 43.705C74.1049 43.9398 73.0951 44.6324 72.2027 45.3838C71.1458 46.2878 70.2652 47.3679 69.1614 48.2484C68.5977 48.7062 67.9871 49.1054 67.3295 49.3871C66.989 49.5398 66.6602 49.5985 66.3197 49.7041C66.2375 49.7276 66.0379 49.6924 65.9674 49.7393C66.2727 49.5163 68.2924 50.6316 67.1886 49.7628C64.7462 47.8492 62.4094 43.9163 64.7344 40.9813C64.7932 40.9108 63.02 40.3943 62.8909 40.3591C62.609 40.2769 61.1999 39.8073 60.9651 40.089Z" fill="#FE8C47"/>
<path d="M329.965 288.089C327.804 290.813 329.672 294.1 331.656 296.19C332.889 297.493 334.322 297.998 336.059 298.373C337.422 298.667 338.737 298.855 340.064 298.279C342.506 297.246 343.927 294.84 346.099 293.419C346.71 293.02 347.32 292.797 348.013 292.597C348.131 292.562 348.272 292.585 348.389 292.55C346.264 293.29 346.44 291.752 347.027 292.374C347.356 292.703 347.696 292.961 347.966 293.349C348.87 294.652 349.07 296.248 348.988 297.81C348.824 300.78 347.591 304.196 349.27 306.932C349.927 308.012 350.961 308.704 352.123 309.127C353.697 309.702 355.517 310.16 357.208 310.137C360.272 310.078 361.975 307.319 364.112 305.535C364.688 305.053 365.286 304.619 365.968 304.325C366.285 304.185 366.613 304.067 366.954 303.997C367.095 303.962 367.224 303.962 367.353 303.938C368.093 303.774 364.84 302.917 366.038 303.656C367.388 304.49 368.281 306.04 368.715 307.542C369.197 309.186 369.068 310.853 367.87 312.168C366.649 313.494 365.521 314.551 365.498 316.512C365.463 320.585 370.183 321.83 373.459 321.971C374.234 322.006 372.943 321.583 372.849 321.548C372.015 321.302 371.111 321.067 370.242 321.031C370.371 321.031 372.473 321.842 371.428 321.208C371.299 321.125 371.169 321.043 371.052 320.949C370.711 320.703 370.406 320.409 370.16 320.069C369.76 319.529 369.49 318.883 369.373 318.214C369.138 316.911 369.49 315.49 370.312 314.445C371.287 313.201 372.579 312.414 372.778 310.712C372.931 309.338 372.485 307.93 371.827 306.756C370.347 304.055 367.212 302.987 364.241 302.975C361.505 302.975 359.674 305.359 357.853 307.096C356.808 308.094 355.575 309.033 354.096 309.174C353.943 309.198 353.767 309.174 353.614 309.209C355.047 308.892 355.482 309.867 354.742 309.397C354.507 309.268 354.284 309.115 354.072 308.951C353.474 308.47 353.027 307.859 352.722 307.155C351.548 304.419 352.663 301.367 352.781 298.538C352.91 295.603 351.724 293.137 348.835 292.292C347.426 291.869 345.747 291.376 344.244 291.705C343.105 291.94 342.095 292.632 341.203 293.384C340.146 294.288 339.265 295.368 338.161 296.248C337.598 296.706 336.987 297.105 336.33 297.387C335.989 297.54 335.66 297.598 335.32 297.704C335.237 297.728 335.038 297.692 334.967 297.739C335.273 297.516 337.292 298.632 336.189 297.763C333.746 295.849 331.409 291.916 333.734 288.981C333.793 288.911 332.02 288.394 331.891 288.359C331.609 288.277 330.2 287.807 329.965 288.089Z" fill="#FE8C47"/>
<path d="M372.213 5C373.434 9.56686 370.733 12.6545 368.76 14.9086C366.975 16.9513 366.459 17.7379 366.729 18.7358C366.999 19.722 367.833 20.1563 370.404 21.0251C373.234 21.9878 377.121 23.3144 378.342 27.8813C379.563 32.4481 376.863 35.5357 374.89 37.7898C373.105 39.8208 372.588 40.6192 372.858 41.6053C373.117 42.5915 373.962 43.0141 376.522 43.8946C379.364 44.8573 383.239 46.1722 384.46 50.7508C385.681 55.3176 382.98 58.4053 381.008 60.6593C379.223 62.6904 378.706 63.4887 378.976 64.4748C379.235 65.461 380.08 65.8954 382.64 66.7641C385.482 67.7268 389.357 69.0417 390.578 73.6203C391.799 78.1872 389.098 81.2748 387.126 83.5289C385.341 85.5599 384.824 86.3582 385.094 87.3444L378.683 89.0584C377.462 84.4915 380.162 81.4039 382.135 79.1498C383.92 77.1071 384.437 76.3205 384.166 75.3343C383.908 74.3482 383.063 73.9138 380.503 73.045C377.661 72.0824 373.786 70.7557 372.565 66.1889C371.344 61.622 374.044 58.5344 376.017 56.2803C377.802 54.2493 378.319 53.451 378.049 52.4648C377.79 51.4787 376.945 51.0443 374.385 50.1755C371.555 49.2128 367.668 47.898 366.447 43.3311C365.226 38.7525 367.927 35.6766 369.899 33.4225C371.684 31.3915 372.201 30.5932 371.931 29.607C371.661 28.6091 370.827 28.1865 368.255 27.306C365.414 26.3433 361.539 25.0167 360.306 20.4498C359.085 15.883 361.785 12.7954 363.758 10.5413C365.543 8.49852 366.06 7.71194 365.79 6.71404L372.213 5Z" fill="#21D6D8"/>
<path d="M22.1103 64.7578L33.8997 45.3281L25.5743 42.2992L22.1103 64.7578Z" fill="#FFCC00"/>
<path d="M104 262.459L115.789 243.029L107.464 240L104 262.459Z" fill="#FE8C47"/>
<path d="M304.411 29.9999L277 33.3659L280.367 60.7713L307.778 57.4053L304.411 29.9999Z" fill="#FE8C47"/>
<path d="M77.7513 295L56 297.671L58.2487 315.976L80 313.305L77.7513 295Z" fill="#FE8C47"/>
<path d="M259.684 15.5555C259.649 16.706 259.766 17.9152 260.107 19.007C260.236 19.4062 260.389 19.8053 260.541 20.2045C260.612 20.3923 260.694 20.5919 260.764 20.7798C260.788 20.8737 260.811 20.9911 260.847 21.085C260.424 20.0988 260.87 19.7701 260.682 20.451C260.119 22.4468 257.453 22.7638 255.715 22.5408C254.682 22.3999 253.66 22.1533 252.615 22.0594C251.641 21.9655 250.443 21.9655 249.621 22.5525C248.834 23.1278 248.846 24.1022 248.905 24.9944C248.987 26.0158 249.104 27.0959 249.633 28.0116C250.138 28.8921 250.936 29.5026 251.688 30.1718C252.122 30.5592 252.556 30.9818 252.874 31.4984C253.014 31.7214 253.073 31.9562 253.202 32.1793C252.791 31.3692 253.191 31.017 253.061 31.5336C253.026 31.7214 252.979 31.8858 252.921 32.0502C252.169 34.2808 249.715 35.3021 247.648 35.9478C245.534 36.617 243.28 36.8988 241.049 36.7696C238.982 36.6405 236.692 36.0652 235.483 34.1986C235.33 33.9638 235.201 33.7172 235.084 33.4355C235.048 33.3416 235.025 33.1889 234.978 33.095C235.013 33.4003 235.06 33.7055 235.095 34.0107C235.107 33.9403 235.131 33.8816 235.131 33.7994C235.33 33.1537 235.589 32.6254 236.058 32.1206C236.857 31.2753 237.949 30.6883 239.064 30.3596C240.086 30.0661 241.237 29.9957 242.235 30.43C242.728 30.6531 243.163 30.9936 243.491 31.4162C243.632 31.604 243.761 31.8036 243.855 32.0149C243.902 32.1089 243.926 32.2497 243.973 32.3319C243.926 31.9328 243.867 31.5453 243.82 31.1462C243.797 31.2518 243.785 31.3458 243.738 31.4397C243.609 31.8858 243.75 32.4963 243.808 32.9541C243.832 33.142 243.82 33.5177 243.938 33.6703C243.949 33.6938 243.996 33.9286 244.043 33.7877C244.384 32.6606 244.172 31.1814 243.832 30.0661C243.55 29.1856 242.892 28.4108 242.047 28.0233C239.969 27.0489 237.15 28.176 235.73 29.7491C234.978 30.5827 234.696 31.5688 234.743 32.6841C234.778 33.9286 234.919 35.3021 235.565 36.394C236.822 38.4837 239.323 39.1059 241.589 39.1881C244.137 39.2937 246.685 38.8711 249.045 37.9671C251.347 37.0749 253.472 35.5252 253.461 32.825C253.449 31.5806 253.355 30.1131 252.639 29.033C251.922 27.9412 250.772 27.2955 249.938 26.321C249.597 25.9336 249.374 25.4992 249.163 25.0296C248.916 24.4779 249.715 24.8301 249.222 26.0275C249.257 25.9454 249.257 25.8162 249.292 25.734C249.398 25.4053 249.597 25.1588 249.856 24.9592C250.772 24.29 252.146 24.3722 253.214 24.5013C255.563 24.7948 258.698 25.828 260.483 23.6795C261.34 22.6347 261.117 21.1085 260.917 19.8523C260.835 19.2888 260.694 18.7487 260.494 18.2087C260.4 17.9504 260.295 17.6921 260.201 17.4456C260.142 17.3047 260.095 17.1756 260.048 17.0347C259.849 16.4594 260.06 16.2246 260.013 17.6217C260.025 17.0582 259.966 16.5064 259.884 15.9546C259.884 15.8724 259.696 15.1093 259.684 15.5555Z" fill="#FFCC00"/>
<path d="M315.21 107.003C312.613 107.344 309.573 108.674 309.402 111.607C309.334 112.664 309.812 113.585 310.495 114.37C311.588 115.632 312.955 116.723 314.356 117.678C315.585 118.496 316.849 119.213 318.113 119.963C318.728 120.338 319.343 120.713 319.958 121.088C320.334 121.293 320.675 121.532 321.051 121.736C321.222 121.839 321.427 121.975 321.598 122.077C320.334 120.747 319.89 120.372 320.265 121.088C320.641 122.452 320.573 123.544 319.958 124.806C319.343 126.068 318.421 127.193 317.362 128.114C316.405 128.932 315.312 129.58 314.048 129.785C312.613 130.058 311.315 129.58 309.983 129.035C307.592 128.08 305.303 127.739 302.98 129.035C298.436 131.456 297.924 137.049 300.725 140.971C302.467 143.427 305.2 145.712 307.967 146.974C310.7 148.202 313.877 148.27 316.781 147.485C316.849 147.485 315.346 145.951 315.21 145.848C314.868 145.61 313.809 144.416 313.331 144.552C310.939 145.234 308.412 145.303 306.02 144.552C305.474 144.382 304.893 144.177 304.38 143.904C304.107 143.768 303.117 143.018 304.107 143.904C305.098 144.757 304.312 144.041 304.141 143.802C303.458 142.915 302.946 141.858 302.638 140.801C301.443 136.47 304.244 131.797 308.856 131.149C311.418 130.808 313.365 132.479 315.79 132.786C318.079 133.093 320.129 131.831 321.632 130.194C323.066 128.625 324.57 126.306 323.784 124.124C323.374 123.101 322.417 122.282 321.598 121.532C320.436 120.509 319.172 119.588 317.84 118.803C316.508 117.985 315.141 117.166 313.775 116.348C313.536 116.211 313.262 116.041 313.057 115.904C312.75 115.7 311.349 114.745 312.682 115.768C313.706 116.586 313.126 116.109 312.955 115.632C312.852 115.256 312.784 114.881 312.818 114.506C312.989 111.539 316.064 110.243 318.626 109.902C318.626 109.902 317.225 108.401 317.054 108.265C316.713 107.992 315.756 106.935 315.21 107.003Z" fill="#FF5E88"/>
<path d="M389.99 165.781L390.859 168.129L389.955 168.469L389.345 166.79L387.196 166.931L386.456 164.912L384.319 165.064L383.579 163.045L381.442 163.186L380.573 160.838L381.477 160.509L382.088 162.176L384.237 162.035L384.976 164.055L387.114 163.914L387.853 165.921L389.99 165.781Z" fill="#C0079E"/>
<path d="M44.9729 116.402L3.2871 98.9799L-0.153442 118.515L44.9729 116.402Z" fill="#FE8C47"/>
<path d="M400.054 109.64L389.72 123.775L409.377 124.456L400.054 109.64Z" fill="#FFCC00"/>
<path d="M11.8826 15.7081C11.1546 16.166 10.3208 15.5085 10.1212 14.8276C9.87463 13.9823 10.2504 13.1488 10.5909 12.3857C10.9667 11.5756 11.3542 10.7656 11.7064 9.94376C11.8356 9.65026 11.9648 9.2511 11.7299 8.96934C11.5538 8.76976 11.272 8.74628 11.0136 8.73454C10.7553 8.73454 10.4735 8.75802 10.2269 8.68758C9.87462 8.59366 9.65153 8.3119 9.55759 7.98318C9.35796 7.30226 9.75721 6.69178 10.2739 6.26914C11.4599 5.28298 13.0099 4.19116 13.3034 2.59452C13.4443 1.83142 13.2682 1.02136 12.6224 0.551759C11.9765 0.0821587 11.1076 0.0351987 10.3326 0.0117188C10.1799 0.0117188 9.93333 0.281739 9.83939 0.375659C9.73371 0.469579 9.62804 0.575239 9.5341 0.680899C9.52235 0.692639 9.41668 0.833519 9.42842 0.833519C10.1447 0.856999 10.908 0.892219 11.542 1.25616C12.1761 1.6201 12.4815 2.30102 12.4462 3.01716C12.3758 4.76642 10.7436 5.6117 9.61628 6.71526C9.11136 7.20834 8.53599 7.83056 8.61818 8.57018C8.64167 8.86368 8.77083 9.15718 8.99393 9.34502C9.25227 9.55634 9.58106 9.56808 9.90985 9.56808C10.1564 9.56808 10.4265 9.5446 10.6496 9.65026C11.0489 9.8381 11.0136 10.2842 10.8727 10.6364C10.5439 11.4934 10.1095 12.327 9.72198 13.1605C9.35796 13.9588 8.95871 14.8863 9.27576 15.7551C9.55758 16.5299 10.4265 16.9291 11.1663 16.4712C11.4011 16.3303 11.6125 16.119 11.8004 15.9312C11.8121 15.8725 12.0705 15.579 11.8826 15.7081Z" fill="#FF6E00"/>
<path d="M106.433 107.127L111.048 97.2894L99.0001 99.203L106.433 107.127Z" fill="#FFCC00"/>
<path d="M343.467 90.0575C342.974 89.8697 342.586 90.2806 342.363 90.668C342.234 90.9028 342.222 91.1376 342.246 91.3959C342.269 91.6072 342.292 91.8068 342.433 91.9711C342.692 92.2764 343.103 92.382 343.408 92.6286C343.49 92.699 343.549 92.7812 343.608 92.8634C343.619 92.8751 343.619 92.8986 343.631 92.9103C343.432 92.6403 343.666 92.5934 343.596 92.7108C343.561 92.7812 343.537 92.8399 343.502 92.8869C343.349 93.0747 343.126 93.1803 342.903 93.239C342.469 93.3447 341.917 93.3212 341.6 93.6852C341.471 93.8261 341.412 94.0139 341.412 94.2017C341.4 94.46 341.412 94.7418 341.494 94.9883C341.635 95.4344 342.116 95.5518 342.469 95.7866C342.563 95.8453 342.656 95.9158 342.727 95.9979C342.762 96.0332 342.797 96.0801 342.821 96.1271C342.833 96.1506 342.833 96.1623 342.844 96.1858C342.903 96.2915 342.88 95.7749 342.833 95.9862C342.774 96.221 342.586 96.4206 342.386 96.5497C342.175 96.6906 341.928 96.7493 341.682 96.6319C341.435 96.5145 341.236 96.3971 340.942 96.4793C340.355 96.6554 340.378 97.395 340.496 97.8764C340.531 97.9938 340.531 97.7824 340.531 97.7707C340.531 97.6416 340.519 97.5007 340.496 97.3715C340.496 97.395 340.472 97.7355 340.519 97.5476C340.531 97.5241 340.531 97.5007 340.543 97.4772C340.566 97.4185 340.59 97.3598 340.625 97.3128C340.684 97.2307 340.766 97.1602 340.86 97.1133C341.036 97.0193 341.259 97.0076 341.447 97.078C341.67 97.172 341.846 97.3128 342.105 97.2776C342.304 97.2424 342.492 97.1132 342.633 96.9606C342.962 96.6202 342.974 96.1271 342.844 95.6927C342.727 95.2936 342.304 95.1409 341.964 94.9531C341.776 94.8474 341.588 94.7066 341.494 94.507C341.482 94.4835 341.482 94.46 341.471 94.4365C341.576 94.6361 341.459 94.73 341.494 94.6126C341.506 94.5774 341.517 94.5304 341.529 94.4952C341.576 94.3896 341.647 94.2957 341.729 94.2252C342.069 93.9317 342.563 93.9552 342.985 93.8495C343.42 93.7321 343.725 93.4621 343.713 93.0043C343.713 92.7812 343.713 92.5112 343.596 92.3116C343.514 92.159 343.361 92.0416 343.22 91.9477C343.044 91.8303 342.844 91.7598 342.668 91.6307C342.574 91.572 342.492 91.5015 342.422 91.4194C342.386 91.3724 342.363 91.3254 342.328 91.2902C342.316 91.2785 342.316 91.255 342.304 91.2433C342.351 91.2785 342.281 91.6189 342.351 91.4194C342.527 90.9732 342.985 90.4684 343.514 90.6797C343.525 90.6797 343.525 90.398 343.525 90.3862C343.514 90.304 343.514 90.0693 343.467 90.0575Z" fill="#FE8C47"/>
<path d="M357.029 32.8955C357.276 32.0385 357.276 30.8997 356.466 30.3244C355.479 29.6083 354.035 30.1248 353.049 30.5475C352.79 30.6531 352.532 30.7823 352.285 30.9114C352.156 30.9701 352.015 31.0406 351.874 31.111C351.863 31.111 351.733 31.1814 351.722 31.1814C351.863 31.1462 351.874 31.1345 351.745 31.1697C351.698 31.1814 351.651 31.1814 351.604 31.1814C351.029 31.2049 350.618 30.8879 350.371 30.4066C350.148 29.984 350.019 29.5144 349.702 29.1622C349.361 28.7982 348.845 28.6104 348.352 28.5634C347.694 28.5165 347.048 28.7043 346.438 28.9156C345.792 29.1387 345.205 29.4674 344.606 29.8196C344.547 29.8548 344.688 29.8431 344.664 29.8431C344.758 29.8431 344.888 29.7961 344.97 29.7726C345.169 29.7139 345.392 29.6552 345.569 29.5496C345.803 29.4087 346.038 29.2678 346.285 29.1387C346.391 29.0917 346.496 29.033 346.614 28.9861C346.661 28.9626 346.708 28.9391 346.755 28.9274C346.637 28.9626 346.802 28.9274 346.825 28.9156C347.295 28.8452 347.823 28.9156 348.246 29.1387C348.657 29.3617 348.892 29.7022 349.091 30.1131C349.268 30.4888 349.397 30.8997 349.702 31.1814C350.054 31.5102 350.536 31.5454 350.982 31.4749C351.546 31.381 352.109 31.1814 352.626 30.9466C353.037 30.7705 353.53 30.4418 353.918 30.3479C354.411 30.2422 355.021 30.3244 355.444 30.6179C356.278 31.1932 356.29 32.3437 356.043 33.2125C356.043 33.2242 356.513 33.1185 356.548 33.1068C356.642 33.0716 357.006 33.0011 357.029 32.8955Z" fill="#BDD400"/>
<path d="M361.067 189.187L368.154 191.818L374.659 188L374.262 195.404L380 200.254L372.675 202.189L369.687 209L365.562 202.808L358 202.138L362.76 196.385L361.067 189.187Z" fill="#BDD400"/>
<path d="M139.694 153.933L143.558 151.755L144.311 147.393L147.478 150.376L151.825 149.642L149.918 153.657L151.838 157.577L147.501 157.079L144.335 160.214L143.56 155.902L139.694 153.933Z" fill="#BDD400"/>
<path d="M48.5426 153.935L39.3952 171.146C39.0899 171.733 38.3619 171.944 37.7748 171.639C37.1876 171.334 36.9645 170.606 37.2816 170.019L46.429 152.808C46.7343 152.221 47.4623 152.01 48.0494 152.315C48.6366 152.632 48.8597 153.36 48.5426 153.935Z" fill="#52DA20"/>
<path d="M317.68 189.366L326.241 193.651C326.511 193.792 326.722 194.039 326.792 194.332C326.875 194.626 326.828 194.943 326.652 195.201C326.487 195.459 326.217 195.635 325.912 195.682C325.606 195.729 325.301 195.647 325.066 195.448L317.68 189.366Z" fill="#FF6E00"/>
<path d="M52.6055 97.125L50.762 100.353L49.5173 99.6491L50.8324 97.348L48.6248 95.0353L50.2101 92.2764L48.0025 89.9753L49.5877 87.2047L47.3801 84.8919L49.2354 81.6634L50.4801 82.3678L49.1533 84.6806L51.3608 86.9816L49.7756 89.7523L51.9832 92.0533L50.4097 94.8239L52.6055 97.125Z" fill="#C0079E"/>
<path d="M242.225 181.462L240.382 184.69L239.137 183.986L240.452 181.685L238.245 179.372L239.83 176.613L237.622 174.312L239.208 171.541L237 169.229L238.855 166L240.1 166.704L238.773 169.017L240.981 171.318L239.395 174.089L241.603 176.39L240.03 179.161L242.225 181.462Z" fill="#C0079E"/>
<path d="M2.01892 159.535L10.7671 149.356L5.56515 146.586L2.01892 159.535Z" fill="#FFCC00"/>
<path d="M216.598 78L213 82.4446L217.446 86.0414L221.043 81.5968L216.598 78Z" fill="#FE8C47"/>
<path d="M129.76 3.11592C128.586 2.77485 127.344 3.25234 126.274 3.69572C125.411 4.07089 124.583 4.51427 124.134 5.36692C123.927 5.74209 123.72 6.356 123.962 6.73117C124.238 7.20866 125.101 7.27687 125.584 7.34508C126.895 7.51561 128.241 7.58383 129.38 8.26595C130.312 8.81165 130.968 9.76662 130.795 10.858C130.726 11.4037 130.45 11.9153 130.07 12.3246C129.967 12.4269 129.863 12.4951 129.76 12.5974C129.208 13.1431 130.277 12.2564 130.346 12.461C130.346 12.5292 129.311 12.3928 129.242 12.3928C128.172 12.1541 127.378 11.2332 126.205 11.4378C124.928 11.6425 123.444 12.1882 122.616 13.2113C121.995 13.9617 121.063 15.2236 121.65 16.1786C122.098 16.963 123.237 17.2359 124.1 17.27C125.17 17.3041 126.343 16.9971 127.413 17.4064C128.345 17.7816 128.759 18.7024 128.621 19.6574C128.552 20.1349 128.345 20.6124 128.069 20.9876C127.896 21.1922 127.689 21.3968 127.482 21.5333C127.551 21.465 127.102 21.8061 127.068 21.8061C127.551 21.6697 127.62 21.6356 127.24 21.7038C127.137 21.7038 127.033 21.7379 126.93 21.7379C125.618 21.9425 124.341 21.9425 123.065 22.3518C122.029 22.6588 120.649 23.068 120.166 24.1253C119.786 24.978 120.096 26.0012 120.718 26.6833C121.511 27.5701 122.788 27.8088 123.962 27.7406C125.17 27.6724 126.309 27.1949 127.482 27.1267C128.793 27.0585 129.794 27.7065 129.829 29.0707C129.863 30.435 129.242 31.8674 128.483 32.9929C128.448 33.027 128.897 32.9247 128.828 32.9588C129.104 32.8906 129.38 32.8224 129.622 32.7201C129.932 32.6178 130.484 32.5154 130.692 32.2085C131.658 30.8101 133.211 27.1608 130.726 26.4104C129.863 26.1376 128.897 26.3422 128.069 26.5469C126.964 26.7856 125.929 27.0585 124.79 26.8538C123.755 26.6833 122.857 26.1035 122.409 25.1826C121.995 24.2276 122.167 23.375 122.926 22.6588C122.995 22.6247 123.064 22.5905 123.099 22.5223C122.167 22.7952 121.926 22.8975 122.305 22.8293C122.443 22.8293 122.616 22.7611 122.754 22.7611C123.03 22.727 123.306 22.727 123.548 22.6929C124.203 22.6247 124.859 22.5564 125.515 22.4541C126.826 22.1813 128.207 21.7379 129.346 21.0217C130.864 20.0326 131.589 17.3382 129.415 16.622C127.724 16.0422 125.101 17.27 123.893 15.5647C123.203 14.6097 124.134 13.2455 124.79 12.4951C124.963 12.2905 125.135 12.1199 125.342 11.9835C126.102 11.4037 123.893 12.1882 124.445 12.2564C124.583 12.2905 124.721 12.2905 124.894 12.3246C125.48 12.461 125.929 12.8362 126.481 13.0749C127.516 13.4842 128.586 13.3137 129.656 13.0067C130.761 12.6656 131.968 12.2223 132.59 11.1991C133.211 10.1759 133.142 8.91397 132.279 8.06131C131.382 7.17455 130.036 6.9017 128.828 6.76528C128.138 6.66296 127.378 6.66296 126.688 6.42422C126.033 6.18547 125.998 5.57156 126.205 4.99175C126.378 4.48016 126.723 4.07089 127.171 3.72983C127.24 3.66161 127.378 3.62751 127.447 3.5593C126.688 4.20731 126.136 3.90036 126.792 3.86625C127.102 3.86625 127.378 3.90036 127.655 3.96857C128 4.07089 128.724 3.69572 129.035 3.5593C129.173 3.45698 129.863 3.15002 129.76 3.11592Z" fill="#21D6D8"/>
<path d="M342.106 220.107C341.392 219.115 340.119 218.725 339.003 218.415C338.093 218.179 337.167 218.017 336.288 218.412C335.894 218.58 335.353 218.936 335.312 219.38C335.235 219.926 335.872 220.512 336.21 220.863C337.138 221.806 338.156 222.689 338.632 223.928C339.03 224.933 338.957 226.089 338.149 226.842C337.758 227.229 337.225 227.462 336.674 227.55C336.529 227.567 336.406 227.556 336.261 227.573C335.49 227.663 336.879 227.624 336.807 227.827C336.765 227.881 336.034 227.136 335.98 227.093C335.284 226.246 335.227 225.031 334.177 224.469C333.045 223.843 331.54 223.358 330.257 223.653C329.306 223.861 327.794 224.28 327.668 225.394C327.537 226.288 328.266 227.205 328.924 227.764C329.746 228.45 330.859 228.932 331.449 229.913C331.951 230.783 331.71 231.764 331.013 232.431C330.664 232.764 330.207 233.012 329.758 233.138C329.496 233.192 329.207 233.226 328.96 233.206C329.056 233.194 328.492 233.186 328.465 233.165C328.93 233.356 329.005 233.371 328.664 233.191C328.583 233.127 328.48 233.09 328.399 233.026C327.24 232.379 326.234 231.592 324.977 231.127C323.972 230.731 322.633 230.202 321.601 230.737C320.776 231.174 320.39 232.171 320.459 233.091C320.537 234.279 321.395 235.254 322.362 235.924C323.355 236.615 324.546 236.941 325.512 237.61C326.587 238.365 326.975 239.492 326.161 240.587C325.348 241.683 323.976 242.428 322.684 242.846C322.636 242.852 323.052 243.048 322.977 243.032C323.236 243.149 323.496 243.265 323.749 243.333C324.057 243.444 324.554 243.704 324.907 243.59C326.53 243.085 330.002 241.168 328.508 239.046C327.997 238.299 327.11 237.865 326.331 237.515C325.314 237.022 324.331 236.599 323.56 235.736C322.85 234.964 322.501 233.954 322.715 232.952C322.978 231.945 323.639 231.38 324.679 231.284C324.754 231.3 324.829 231.315 324.899 231.283C323.997 230.923 323.743 230.855 324.084 231.035C324.193 231.12 324.371 231.173 324.48 231.258C324.718 231.401 324.936 231.572 325.147 231.694C325.705 232.044 326.264 232.395 326.843 232.718C328.044 233.312 329.404 233.813 330.742 233.951C332.548 234.109 334.779 232.434 333.509 230.53C332.535 229.031 329.712 228.381 329.812 226.293C329.857 225.116 331.432 224.616 332.411 224.429C332.673 224.375 332.914 224.347 333.161 224.367C334.116 224.378 331.894 223.635 332.286 224.029C332.374 224.141 332.483 224.226 332.598 224.359C332.975 224.828 333.098 225.4 333.385 225.928C333.948 226.889 334.896 227.414 335.927 227.832C337.007 228.244 338.232 228.639 339.352 228.216C340.471 227.794 341.195 226.757 341.041 225.554C340.881 224.303 339.989 223.258 339.122 222.406C338.642 221.9 338.044 221.432 337.648 220.819C337.279 220.227 337.63 219.722 338.15 219.393C338.601 219.097 339.125 218.987 339.689 218.995C339.785 218.984 339.915 219.042 340.011 219.031C339.014 219.073 338.769 218.491 339.306 218.869C339.551 219.06 339.747 219.257 339.922 219.481C340.131 219.774 340.933 219.926 341.262 220.01C341.433 220.014 342.166 220.198 342.106 220.107Z" fill="#21D6D8"/>
<path d="M197.813 45.9973C198.471 46.2439 198.471 47.1009 198.13 47.5705C197.719 48.1575 196.991 48.3336 196.322 48.4979C195.617 48.674 194.901 48.8149 194.196 49.0028C193.938 49.0732 193.621 49.1906 193.562 49.4841C193.515 49.6954 193.656 49.895 193.774 50.0594C193.903 50.2355 194.055 50.3881 194.138 50.5877C194.255 50.8577 194.185 51.1394 194.02 51.3742C193.68 51.8438 193.092 51.8908 192.552 51.7734C191.331 51.5034 189.852 51.0572 188.677 51.6677C188.114 51.9612 187.679 52.4778 187.703 53.1352C187.726 53.7927 188.137 54.3679 188.501 54.8728C188.572 54.9667 188.877 54.9901 188.983 55.0019C189.1 55.0254 189.217 55.0489 189.335 55.0489C189.347 55.0489 189.488 55.0489 189.488 55.0371C189.147 54.5675 188.783 54.051 188.701 53.464C188.619 52.877 188.9 52.3369 189.37 51.9965C190.533 51.1629 191.895 51.7851 193.175 51.9612C193.738 52.0434 194.431 52.0904 194.866 51.6677C195.042 51.5034 195.159 51.2803 195.171 51.0338C195.183 50.7638 195.018 50.5407 194.854 50.3411C194.725 50.1885 194.584 50.0241 194.537 49.8245C194.455 49.4723 194.76 49.2728 195.053 49.1906C195.77 48.9793 196.521 48.8384 197.249 48.6623C197.942 48.4979 198.741 48.2866 199.14 47.6527C199.492 47.0891 199.316 46.326 198.647 46.0795C198.435 46.0091 198.2 45.9738 197.977 45.9504C197.942 45.9504 197.625 45.9269 197.813 45.9973Z" fill="#FF6E00"/>
</g>
</g>
<defs>
<clipPath id="clip0_2783_13114">
<rect width="578" height="340" fill="white" transform="translate(-162)"/>
</clipPath>
<clipPath id="clip1_2783_13114">
<rect width="578" height="587" fill="white" transform="translate(-162)"/>
</clipPath>
</defs>
</svg>
