<svg width="243" height="99" viewBox="0 0 243 99" fill="none" xmlns="http://www.w3.org/2000/svg">
<path d="M121.5 86.7454C188.603 86.7454 243 68.6719 243 46.3771C243 24.0822 188.603 6.00867 121.5 6.00867C54.3974 6.00867 0 24.0822 0 46.3771C0 68.6719 54.3974 86.7454 121.5 86.7454Z" fill="#FF9B06"/>
<path d="M121.5 87.9709C188.603 87.9709 243 69.8974 243 47.6025C243 25.3077 188.603 7.23413 121.5 7.23413C54.3974 7.23413 0 25.3077 0 47.6025C0 69.8974 54.3974 87.9709 121.5 87.9709Z" fill="#FF9B06"/>
<path d="M121.5 89.1963C188.603 89.1963 243 71.1228 243 48.8279C243 26.5331 188.603 8.45953 121.5 8.45953C54.3974 8.45953 0 26.5331 0 48.8279C0 71.1228 54.3974 89.1963 121.5 89.1963Z" fill="#FF9B06"/>
<path d="M121.5 91.6472C188.603 91.6472 243 73.5737 243 51.2789C243 28.984 188.603 10.9105 121.5 10.9105C54.3974 10.9105 0 28.984 0 51.2789C0 73.5737 54.3974 91.6472 121.5 91.6472Z" fill="#FF9B06"/>
<path d="M121.5 94.0981C188.603 94.0981 243 76.0246 243 53.7297C243 31.4349 188.603 13.3613 121.5 13.3613C54.3974 13.3613 0 31.4349 0 53.7297C0 76.0246 54.3974 94.0981 121.5 94.0981Z" fill="#FF9B06"/>
<path d="M121.5 96.5491C188.603 96.5491 243 78.4756 243 56.1807C243 33.8859 188.603 15.8123 121.5 15.8123C54.3974 15.8123 0 33.8859 0 56.1807C0 78.4756 54.3974 96.5491 121.5 96.5491Z" fill="#FF9B06"/>
<path d="M121.5 99.0001C188.603 99.0001 243 80.9265 243 58.6317C243 36.3369 188.603 18.2633 121.5 18.2633C54.3974 18.2633 0 36.3369 0 58.6317C0 80.9265 54.3974 99.0001 121.5 99.0001Z" fill="#FF9B06"/>
<path d="M121.5 84.1763C188.603 84.1763 243 65.3328 243 42.0882C243 18.8435 188.603 0 121.5 0C54.3974 0 0 18.8435 0 42.0882C0 65.3328 54.3974 84.1763 121.5 84.1763Z" fill="#FFEDD1"/>
<g opacity="0.74">
<path opacity="0.46" d="M121.5 78.924C63.2661 78.924 17.6425 62.7488 17.6425 42.0882C17.6425 21.4276 63.2661 5.25232 121.5 5.25232C179.734 5.25232 225.358 21.4276 225.358 42.0882C225.358 62.7488 179.734 78.924 121.5 78.924ZM121.5 7.66931C66.3012 7.66931 19.6593 23.4262 19.6593 42.1114C19.6593 60.7734 66.3012 76.5535 121.5 76.5535C176.699 76.5535 223.341 60.7734 223.341 42.1114C223.341 23.4262 176.699 7.66931 121.5 7.66931Z" fill="#FB8F04"/>
</g>
</svg>
