<svg width="335" height="299" viewBox="0 0 335 299" fill="none" xmlns="http://www.w3.org/2000/svg">
<g clip-path="url(#clip0_1127_10066)">
<g clip-path="url(#clip1_1127_10066)">
<path d="M256.959 241.966C256.959 241.966 257.24 241.571 257.801 240.832C257.947 240.645 258.103 240.437 258.28 240.208C258.436 239.969 258.581 239.688 258.758 239.387C259.101 238.783 259.528 238.107 259.829 237.244C259.996 236.818 260.193 236.381 260.36 235.903C260.495 235.414 260.641 234.904 260.786 234.363C260.963 233.833 261.046 233.251 261.14 232.647C261.223 232.044 261.379 231.42 261.4 230.755C261.681 228.113 261.514 225.035 260.984 221.634C259.933 214.811 257.032 206.772 252.601 198.036C248.181 189.279 242.087 179.867 234.609 170.06C227.121 160.243 218.125 150.103 207.777 139.921C197.419 129.75 185.698 119.537 172.553 109.855C165.98 105.019 159.043 100.339 151.732 95.9186C144.431 91.4986 136.725 87.3698 128.602 83.7922C120.48 80.2562 111.91 77.1882 102.873 75.7218C98.3694 75.025 93.7205 74.6922 89.1549 75.389C86.8773 75.7426 84.631 76.3562 82.5302 77.313C80.4502 78.3218 78.547 79.6738 76.9662 81.3794C75.4478 83.137 74.3246 85.1858 73.5446 87.3698C72.8478 89.5746 72.4734 91.873 72.3902 94.1714C72.2134 98.789 73.0766 103.375 74.283 107.775C76.7582 116.594 80.7933 124.758 85.2237 132.433C89.7061 140.098 94.6774 147.284 99.9086 154.034C105.129 160.794 110.579 167.159 116.122 173.139C127.24 185.099 138.721 195.582 150.005 204.713C161.3 213.834 172.397 221.623 183.005 227.936C193.602 234.249 203.649 239.231 212.853 242.631C222.036 246.043 230.345 247.998 237.241 248.268C240.683 248.403 243.761 248.227 246.351 247.644C247.006 247.551 247.609 247.311 248.202 247.166C248.795 247.01 249.357 246.854 249.866 246.615C250.386 246.407 250.875 246.209 251.353 246.022C251.811 245.803 252.217 245.554 252.622 245.335C253.444 244.94 254.068 244.441 254.619 244.025C254.889 243.817 255.16 243.64 255.378 243.453C255.586 243.255 255.773 243.068 255.94 242.912C256.605 242.288 256.959 241.966 256.959 241.966C256.959 241.966 256.626 242.309 255.971 242.975C255.805 243.141 255.617 243.328 255.409 243.526C255.191 243.713 254.931 243.9 254.65 244.108C254.099 244.524 253.475 245.034 252.653 245.439C252.258 245.658 251.842 245.907 251.385 246.136C250.917 246.334 250.417 246.531 249.897 246.75C249.388 246.989 248.816 247.145 248.223 247.311C247.63 247.467 247.027 247.707 246.361 247.8C243.761 248.403 240.662 248.601 237.209 248.476C230.283 248.237 221.932 246.303 212.717 242.912C203.482 239.532 193.415 234.571 182.786 228.269C172.147 221.956 161.029 214.177 149.704 205.067C138.399 195.935 126.886 185.452 115.737 173.482C110.173 167.491 104.713 161.127 99.4822 154.356C94.2406 147.596 89.2486 140.389 84.7558 132.703C80.3046 125.007 76.2485 116.812 73.7525 107.92C72.5461 103.49 71.6622 98.8618 71.839 94.161C71.9222 91.8106 72.307 89.4706 73.0246 87.2034C73.815 84.9674 74.9902 82.8458 76.5502 81.0258C78.183 79.2578 80.159 77.8642 82.291 76.8242C84.4542 75.8466 86.7526 75.2122 89.0718 74.8586C93.7206 74.1514 98.4214 74.4946 102.956 75.2018C112.066 76.6786 120.667 79.7674 128.821 83.3138C136.964 86.9018 144.681 91.041 152.002 95.4818C159.324 99.9122 166.271 104.613 172.854 109.459C186.01 119.163 197.741 129.407 208.1 139.609C218.448 149.822 227.444 159.983 234.921 169.831C242.399 179.67 248.473 189.123 252.882 197.911C257.292 206.679 260.173 214.749 261.202 221.613C261.712 225.035 261.878 228.134 261.577 230.786C261.556 231.451 261.379 232.075 261.296 232.689C261.202 233.292 261.109 233.875 260.921 234.415C260.765 234.956 260.62 235.476 260.485 235.965C260.308 236.443 260.11 236.88 259.933 237.307C259.621 238.17 259.185 238.846 258.831 239.449C258.654 239.74 258.509 240.031 258.342 240.271C258.165 240.499 257.999 240.707 257.853 240.884C257.261 241.602 256.959 241.966 256.959 241.966Z" fill="#FF9B06"/>
<path d="M290.249 161.606C290.249 161.606 290.197 161.128 290.125 160.202C290.104 159.973 290.083 159.713 290.062 159.422C290.021 159.141 289.937 158.829 289.875 158.497C289.729 157.821 289.594 157.03 289.251 156.188C289.095 155.761 288.949 155.304 288.762 154.836C288.533 154.378 288.305 153.9 288.055 153.401C287.826 152.891 287.514 152.392 287.181 151.882C286.838 151.373 286.547 150.801 286.121 150.291C284.571 148.128 282.397 145.944 279.735 143.76C274.41 139.371 266.901 135.294 257.781 131.727C248.649 128.139 237.844 125.165 225.728 122.825C213.612 120.485 200.144 118.904 185.646 118.197C171.149 117.5 155.601 117.687 139.345 119.205C131.223 119.975 122.924 121.098 114.531 122.669C106.138 124.229 97.6413 126.277 89.1965 129.013C80.7829 131.789 72.3381 135.19 64.6213 140.12C60.7941 142.595 57.1021 145.445 54.1589 149.001C52.6925 150.78 51.4341 152.735 50.4877 154.846C49.6141 156.989 49.0837 159.266 49.0421 161.585C49.0837 163.905 49.6037 166.193 50.4773 168.325C51.4237 170.436 52.6717 172.391 54.1485 174.169C57.0917 177.737 60.7837 180.576 64.6109 183.061C72.3277 187.991 80.7725 191.402 89.1861 194.179C97.6309 196.914 106.128 198.963 114.521 200.523C122.913 202.093 131.213 203.217 139.335 203.986C155.59 205.505 171.138 205.692 185.636 204.995C200.133 204.288 213.601 202.707 225.717 200.367C237.833 198.027 248.639 195.053 257.77 191.465C266.891 187.897 274.4 183.821 279.725 179.432C282.387 177.248 284.561 175.064 286.11 172.901C286.537 172.391 286.828 171.819 287.171 171.309C287.504 170.8 287.826 170.301 288.045 169.791C288.294 169.292 288.533 168.813 288.752 168.356C288.939 167.888 289.085 167.43 289.241 167.004C289.584 166.161 289.719 165.371 289.865 164.695C289.937 164.362 290.01 164.05 290.052 163.769C290.073 163.478 290.093 163.218 290.114 162.989C290.197 162.074 290.249 161.606 290.249 161.606C290.249 161.606 290.239 162.085 290.177 163.01C290.166 163.249 290.145 163.509 290.125 163.79C290.093 164.081 290.01 164.383 289.948 164.726C289.813 165.402 289.688 166.203 289.345 167.056C289.189 167.482 289.053 167.95 288.866 168.418C288.648 168.876 288.409 169.365 288.169 169.864C287.941 170.384 287.629 170.883 287.296 171.403C286.953 171.913 286.661 172.495 286.235 173.005C284.696 175.189 282.512 177.393 279.86 179.598C274.525 184.029 267.016 188.147 257.885 191.745C248.743 195.365 237.927 198.37 225.801 200.741C213.664 203.113 200.185 204.714 185.667 205.442C171.149 206.16 155.58 205.993 139.293 204.485C131.15 203.716 122.841 202.603 114.427 201.033C106.013 199.473 97.4957 197.424 89.0197 194.678C80.5749 191.901 72.0989 188.48 64.3197 183.509C60.4613 181.002 56.7277 178.132 53.7325 174.513C52.2349 172.703 50.9557 170.696 49.9885 168.533C49.0941 166.338 48.5533 163.977 48.5117 161.575C48.5533 159.173 49.0941 156.822 49.9989 154.617C50.9661 152.444 52.2557 150.447 53.7533 148.637C56.7589 145.018 60.4925 142.148 64.3405 139.652C72.1197 134.691 80.5957 131.269 89.0405 128.493C97.5061 125.747 106.024 123.698 114.437 122.138C122.851 120.568 131.161 119.455 139.304 118.685C155.58 117.177 171.159 117.011 185.667 117.729C200.185 118.457 213.664 120.058 225.801 122.429C237.927 124.801 248.753 127.806 257.895 131.425C267.026 135.034 274.545 139.142 279.87 143.573C282.533 145.777 284.706 147.982 286.256 150.166C286.682 150.676 286.973 151.258 287.317 151.768C287.649 152.288 287.961 152.787 288.19 153.307C288.44 153.817 288.669 154.295 288.887 154.753C289.074 155.221 289.22 155.689 289.365 156.115C289.709 156.968 289.833 157.758 289.969 158.445C290.031 158.788 290.114 159.089 290.145 159.381C290.166 159.672 290.177 159.932 290.197 160.161C290.239 161.128 290.249 161.606 290.249 161.606Z" fill="#FF9B06"/>
<path d="M246.143 61.5676C246.143 61.5676 245.737 61.318 244.957 60.8084C244.76 60.6836 244.541 60.538 244.302 60.382C244.052 60.2364 243.761 60.1116 243.449 59.966C242.825 59.6644 242.118 59.29 241.244 59.0508C240.808 58.9156 240.36 58.7492 239.872 58.614C239.372 58.51 238.852 58.406 238.301 58.2916C237.76 58.1564 237.178 58.1045 236.564 58.0525C235.951 58.0109 235.327 57.8964 234.661 57.9172C232.009 57.8132 228.941 58.198 225.592 58.9676C218.853 60.486 211.043 63.9284 202.629 68.9516C194.205 73.9644 185.23 80.6932 175.953 88.826C166.676 96.9692 157.181 106.641 147.738 117.665C138.305 128.7 128.924 141.096 120.168 154.876C115.8 161.772 111.598 169.01 107.698 176.612C103.788 184.204 100.2 192.171 97.1941 200.522C94.2301 208.873 91.7549 217.63 90.9229 226.751C90.5381 231.296 90.5277 235.955 91.5261 240.468C92.0357 242.715 92.8053 244.909 93.8973 246.948C95.0517 248.944 96.5285 250.764 98.3381 252.22C100.2 253.614 102.321 254.602 104.547 255.216C106.793 255.756 109.112 255.975 111.421 255.902C116.039 255.756 120.552 254.581 124.858 253.084C133.48 250.005 141.352 245.419 148.705 240.468C156.048 235.476 162.87 230.016 169.245 224.338C175.631 218.67 181.6 212.794 187.185 206.845C198.344 194.937 208.016 182.748 216.347 170.872C224.667 158.974 231.666 147.368 237.24 136.354C242.815 125.34 247.089 114.982 249.845 105.57C252.612 96.1788 253.995 87.7445 253.787 80.8493C253.683 77.4069 253.298 74.3492 252.539 71.8012C252.404 71.1564 252.123 70.574 251.936 69.9916C251.738 69.4092 251.54 68.858 251.27 68.3692C251.031 67.87 250.792 67.3812 250.573 66.934C250.324 66.4972 250.043 66.102 249.804 65.7172C249.346 64.9268 248.805 64.334 248.368 63.814C248.14 63.554 247.952 63.3044 247.744 63.0964C247.526 62.8988 247.339 62.7324 247.162 62.566C246.486 61.9004 246.143 61.5676 246.143 61.5676C246.143 61.5676 246.507 61.8692 247.214 62.4828C247.391 62.6388 247.588 62.8052 247.807 63.0028C248.015 63.2108 248.212 63.4604 248.441 63.7204C248.888 64.2404 249.45 64.8332 249.908 65.6236C250.157 66.0084 250.438 66.4036 250.688 66.8404C250.916 67.298 251.156 67.7764 251.405 68.286C251.676 68.7852 251.884 69.3364 252.081 69.9188C252.279 70.5012 252.56 71.0836 252.695 71.7388C253.475 74.2972 253.88 77.3653 254.005 80.8181C254.244 87.7445 252.882 96.2101 250.147 105.632C247.412 115.076 243.158 125.465 237.594 136.51C232.03 147.555 225.041 159.192 216.721 171.111C208.391 183.019 198.719 195.228 187.549 207.168C181.954 213.127 175.984 219.013 169.588 224.702C163.203 230.401 156.36 235.872 149.007 240.884C141.633 245.856 133.74 250.463 125.045 253.562C120.708 255.08 116.153 256.266 111.442 256.422C109.092 256.495 106.731 256.276 104.422 255.715C102.134 255.08 99.9397 254.061 98.0157 252.616C96.1437 251.108 94.6149 249.236 93.4293 247.176C92.3061 245.086 91.5157 242.84 91.0061 240.552C89.9869 235.955 90.0077 231.254 90.3925 226.678C91.2349 217.484 93.7309 208.696 96.7053 200.324C99.7213 191.952 103.32 183.965 107.251 176.363C111.161 168.75 115.373 161.501 119.752 154.596C128.529 140.805 137.941 128.398 147.395 117.364C156.869 106.34 166.396 96.6676 175.704 88.5244C185.012 80.3916 194.018 73.6732 202.473 68.6708C210.918 63.658 218.77 60.2364 225.54 58.7388C228.92 57.99 231.999 57.6156 234.661 57.7404C235.327 57.7196 235.961 57.8444 236.575 57.886C237.188 57.938 237.771 58.0004 238.322 58.1356C238.873 58.25 239.393 58.3644 239.892 58.4684C240.381 58.614 240.839 58.7804 241.265 58.926C242.149 59.1756 242.856 59.5709 243.47 59.8725C243.782 60.0285 244.073 60.1636 244.323 60.3092C244.562 60.4756 244.78 60.6212 244.968 60.7564C245.758 61.2868 246.143 61.5676 246.143 61.5676Z" fill="#FF9B06"/>
<path d="M47.4513 211.431C49.1985 213.179 49.1985 216.018 47.4513 217.775C45.7041 219.523 42.8649 219.523 41.1073 217.775C39.3601 216.028 39.3601 213.189 41.1073 211.431C42.8649 209.684 45.7041 209.684 47.4513 211.431Z" fill="#FF9B06"/>
<path d="M300.452 72.4873C300.452 74.9625 298.445 76.9697 295.97 76.9697C293.495 76.9697 291.487 74.9625 291.487 72.4873C291.487 70.0121 293.495 68.0049 295.97 68.0049C298.445 68.0049 300.452 70.0017 300.452 72.4873Z" fill="#FF9B06"/>
<path d="M75.7704 226.179C75.7704 226.814 75.2608 227.323 74.6264 227.323C73.992 227.323 73.4824 226.814 73.4824 226.179C73.4824 225.545 73.992 225.035 74.6264 225.035C75.2608 225.035 75.7704 225.545 75.7704 226.179Z" fill="#FF9B06"/>
<path d="M100.096 100.526C100.096 101.16 99.586 101.67 98.9516 101.67C98.3172 101.67 97.8076 101.16 97.8076 100.526C97.8076 99.8914 98.3172 99.3818 98.9516 99.3818C99.586 99.3818 100.096 99.8914 100.096 100.526Z" fill="#FF9B06"/>
<path d="M277.926 161.605C277.926 162.239 277.416 162.749 276.782 162.749C276.147 162.749 275.638 162.239 275.638 161.605C275.638 160.971 276.147 160.461 276.782 160.461C277.416 160.461 277.926 160.971 277.926 161.605Z" fill="#FF9B06"/>
<path d="M293.765 108.472C293.765 109.107 293.255 109.616 292.621 109.616C291.986 109.616 291.477 109.107 291.477 108.472C291.477 107.838 291.986 107.328 292.621 107.328C293.255 107.339 293.765 107.848 293.765 108.472Z" fill="#FF9B06"/>
</g>
<path d="M167.148 92.7178C141.394 92.7178 120.506 114.161 120.506 140.623C120.506 167.075 141.384 188.529 167.148 188.529C192.903 188.529 213.791 167.085 213.791 140.623C213.791 114.161 192.913 92.7178 167.148 92.7178ZM167.148 181.352C145.252 181.352 127.493 163.124 127.493 140.623C127.493 118.133 145.241 99.894 167.148 99.894C189.045 99.894 206.804 118.123 206.804 140.623C206.804 163.113 189.056 181.352 167.148 181.352Z" fill="#FFBE5C"/>
<path d="M167.367 168.293C165.412 168.293 163.541 167.492 162.158 166.072L140.334 143.657C137.454 140.699 137.454 135.904 140.334 132.946C143.214 129.988 147.882 129.988 150.762 132.946L167.367 150L208.229 108.032C211.109 105.074 215.777 105.074 218.657 108.032C221.537 110.99 221.537 115.785 218.657 118.743L172.587 166.061C171.204 167.503 169.322 168.293 167.367 168.293Z" fill="#FF9B06"/>
</g>
<defs>
<clipPath id="clip0_1127_10066">
<rect width="334.88" height="298.48" fill="white" transform="translate(0.120117)"/>
</clipPath>
<clipPath id="clip1_1127_10066">
<rect width="300.56" height="258.96" fill="white" transform="translate(0.120117)"/>
</clipPath>
</defs>
</svg>
