<svg width="32" height="32" viewBox="0 0 32 32" fill="none" xmlns="http://www.w3.org/2000/svg">
<path d="M18.98 25.3333C20.1333 25.3333 20.7427 26.6986 19.9733 27.5573C19.4736 28.1166 18.8612 28.5639 18.1765 28.87C17.4917 29.176 16.75 29.3339 16 29.3333C15.25 29.3339 14.5083 29.176 13.8235 28.87C13.1388 28.5639 12.5265 28.1166 12.0267 27.5573C11.2907 26.736 11.816 25.452 12.872 25.3426L13.0187 25.3346L18.98 25.3333Z" fill="white"/>
<path d="M16 2.66663C17.8107 2.66663 19.3413 3.87063 19.8333 5.52129L19.8947 5.74929L19.9053 5.80663C21.3752 6.63583 22.6277 7.80143 23.5603 9.20796C24.4929 10.6145 25.079 12.2219 25.2707 13.8986L25.308 14.2813L25.3333 14.6666V18.5746L25.3613 18.756C25.5439 19.7384 26.0876 20.6169 26.8853 21.2186L27.108 21.3746L27.324 21.5066C28.4707 22.156 28.0707 23.8613 26.8213 23.992L26.6667 24H5.33334C3.96268 24 3.48401 22.1813 4.67601 21.5066C5.18405 21.2191 5.623 20.8239 5.96206 20.3487C6.30112 19.8735 6.53206 19.3299 6.63868 18.756L6.66668 18.5653L6.66801 14.6053C6.74931 12.8638 7.25622 11.1688 8.14439 9.66858C9.03256 8.16839 10.2749 6.90877 11.7627 5.99996L12.0933 5.80529L12.1067 5.74796C12.2953 4.95066 12.7239 4.23041 13.3348 3.68441C13.9456 3.13841 14.7093 2.79294 15.5227 2.69463L15.7653 2.67196L16 2.66663Z" fill="white"/>
<path d="M18.98 25.3333C20.1333 25.3333 20.7427 26.6986 19.9733 27.5573C19.4736 28.1166 18.8612 28.5639 18.1765 28.87C17.4917 29.176 16.75 29.3339 16 29.3333C15.25 29.3339 14.5083 29.176 13.8235 28.87C13.1388 28.5639 12.5265 28.1166 12.0267 27.5573C11.2907 26.736 11.816 25.452 12.872 25.3426L13.0187 25.3346L18.98 25.3333Z" stroke="white"/>
<path d="M16 2.66663C17.8107 2.66663 19.3413 3.87063 19.8333 5.52129L19.8947 5.74929L19.9053 5.80663C21.3752 6.63583 22.6277 7.80143 23.5603 9.20796C24.4929 10.6145 25.079 12.2219 25.2707 13.8986L25.308 14.2813L25.3333 14.6666V18.5746L25.3613 18.756C25.5439 19.7384 26.0876 20.6169 26.8853 21.2186L27.108 21.3746L27.324 21.5066C28.4707 22.156 28.0707 23.8613 26.8213 23.992L26.6667 24H5.33334C3.96268 24 3.48401 22.1813 4.67601 21.5066C5.18405 21.2191 5.623 20.8239 5.96206 20.3487C6.30112 19.8735 6.53206 19.3299 6.63868 18.756L6.66668 18.5653L6.66801 14.6053C6.74931 12.8638 7.25622 11.1688 8.14439 9.66858C9.03256 8.16839 10.2749 6.90877 11.7627 5.99996L12.0933 5.80529L12.1067 5.74796C12.2953 4.95066 12.7239 4.23041 13.3348 3.68441C13.9456 3.13841 14.7093 2.79294 15.5227 2.69463L15.7653 2.67196L16 2.66663Z" stroke="white"/>
</svg>
