<svg width="85" height="97" viewBox="0 0 85 97" fill="none" xmlns="http://www.w3.org/2000/svg">
<path d="M47.5153 90.3968L46.604 53.1401C46.5803 52.1711 45.7746 51.3743 44.8045 51.3605C43.8344 51.3467 43.0672 52.121 43.0909 53.0901L44.0022 90.3468C44.0259 91.3158 44.8315 92.1126 45.8016 92.1264C46.7718 92.1402 47.539 91.3659 47.5153 90.3968Z" fill="#117D3D"/>
<path d="M50.0295 34.913C55.6218 34.3162 59.4966 29.5667 58.6841 24.3046C57.8716 19.0426 52.6795 15.2606 47.0871 15.8575C41.4948 16.4543 37.62 21.2038 38.4325 26.4659C39.245 31.7279 44.4371 35.5099 50.0295 34.913Z" fill="#F056BD"/>
<path d="M63.8611 44.9053C68.797 42.6199 70.7083 36.6136 68.1301 31.4898C65.552 26.366 59.4606 24.0651 54.5247 26.3505C49.5888 28.6359 47.6775 34.6422 50.2557 39.7659C52.8339 44.8897 58.9252 47.1907 63.8611 44.9053Z" fill="#F056BD"/>
<path d="M61.2937 51.1915C62.6663 46.0331 59.3857 40.6048 53.9663 39.067C48.5469 37.5292 43.0408 40.4642 41.6682 45.6225C40.2956 50.7809 43.5762 56.2092 48.9956 57.747C54.4151 59.2848 59.9211 56.3498 61.2937 51.1915Z" fill="#F056BD"/>
<path d="M41.8963 39.7989C45.8539 36.1466 45.8947 29.8476 41.9876 25.7297C38.0805 21.6119 31.7049 21.2345 27.7474 24.8868C23.7898 28.5392 23.7489 34.8382 27.6561 38.956C31.5632 43.0739 37.9388 43.4513 41.8963 39.7989Z" fill="#F056BD"/>
<path d="M37.7724 56.29C43.3971 56.6055 48.0604 52.5381 48.1883 47.2051C48.3162 41.8722 43.8602 37.2931 38.2355 36.9776C32.6109 36.6621 27.9475 40.7295 27.8196 46.0624C27.6918 51.3954 32.1478 55.9744 37.7724 56.29Z" fill="#F056BD"/>
<path d="M45.3825 22.6578L45.1602 31.3476" stroke="#E593CD" stroke-width="0.199619" stroke-miterlimit="10" stroke-linecap="round"/>
<path d="M51.5766 23.6703L49.1169 31.9755" stroke="#E593CD" stroke-width="0.199619" stroke-miterlimit="10" stroke-linecap="round"/>
<path d="M60.7579 31.9188L52.3554 34.1942" stroke="#E593CD" stroke-width="0.199619" stroke-miterlimit="10" stroke-linecap="round"/>
<path d="M61.852 37.9594L53.0913 38.2508" stroke="#E593CD" stroke-width="0.199619" stroke-miterlimit="10" stroke-linecap="round"/>
<path d="M55.7013 48.6555L50.4927 41.5741" stroke="#E593CD" stroke-width="0.199619" stroke-miterlimit="10" stroke-linecap="round"/>
<path d="M50.2366 51.5938L46.8964 43.5037" stroke="#E593CD" stroke-width="0.199619" stroke-miterlimit="10" stroke-linecap="round"/>
<path d="M34.5364 28.2207L41.7397 33.2885" stroke="#E593CD" stroke-width="0.199619" stroke-miterlimit="10" stroke-linecap="round"/>
<path d="M31.5727 33.6564L39.7584 36.8595" stroke="#E593CD" stroke-width="0.199619" stroke-miterlimit="10" stroke-linecap="round"/>
<path d="M33.9574 45.3976L41.0667 40.5783" stroke="#E593CD" stroke-width="0.199619" stroke-miterlimit="10" stroke-linecap="round"/>
<path d="M38.2171 49.9431L43.8527 43.5028" stroke="#E593CD" stroke-width="0.199619" stroke-miterlimit="10" stroke-linecap="round"/>
<path d="M53.7755 45.185C58.1901 41.7349 58.8133 35.2623 55.1673 30.7278C51.5214 26.1934 44.987 25.3143 40.5723 28.7643C36.1577 32.2143 35.5345 38.687 39.1805 43.2214C42.8264 47.7559 49.3608 48.635 53.7755 45.185Z" fill="#FFD282"/>
<path d="M45.8798 69.6653C45.8245 69.8964 61.4076 70.0619 58.4527 64.0607C56.1009 59.2838 45.8037 67.5683 45.8037 67.5683" fill="#117D3D"/>
<path d="M45.076 80.0885C45.0207 80.3196 60.6038 80.4852 57.649 74.4839C55.2972 69.707 45 77.9915 45 77.9915" fill="#117D3D"/>
<path d="M45.9457 73.0885C46.001 73.3196 30.4179 73.4852 33.3728 67.4839C35.7246 62.707 46.0218 70.9915 46.0218 70.9915" fill="#117D3D"/>
</svg>
