<svg width="78" height="79" viewBox="0 0 78 79" fill="none" xmlns="http://www.w3.org/2000/svg">
<path d="M40.4109 69.5366L40.0099 53.1401C39.9862 52.1711 39.1805 51.3743 38.2104 51.3605C37.2403 51.3467 36.4731 52.121 36.4968 53.0901L36.8978 69.4865C36.9215 70.4556 37.7272 71.2523 38.6973 71.2662C39.6674 71.28 40.4347 70.5056 40.4109 69.5366Z" fill="#117D3D"/>
<path d="M43.4354 34.913C49.0277 34.3162 52.9025 29.5667 52.09 24.3046C51.2775 19.0426 46.0854 15.2606 40.4931 15.8575C34.9007 16.4543 31.0259 21.2038 31.8384 26.4659C32.6509 31.7279 37.8431 35.5099 43.4354 34.913Z" fill="#F056BD"/>
<path d="M57.267 44.9053C62.2029 42.6199 64.1143 36.6136 61.5361 31.4898C58.9579 26.366 52.8665 24.0651 47.9306 26.3505C42.9947 28.6359 41.0834 34.6422 43.6616 39.7659C46.2398 44.8897 52.3311 47.1907 57.267 44.9053Z" fill="#F056BD"/>
<path d="M54.6996 51.1915C56.0722 46.0331 52.7916 40.6048 47.3722 39.067C41.9528 37.5292 36.4468 40.4642 35.0742 45.6225C33.7015 50.7809 36.9821 56.2092 42.4016 57.747C47.821 59.2848 53.327 56.3498 54.6996 51.1915Z" fill="#F056BD"/>
<path d="M35.3022 39.7989C39.2598 36.1466 39.3007 29.8476 35.3935 25.7297C31.4864 21.6119 25.1109 21.2345 21.1533 24.8868C17.1957 28.5392 17.1549 34.8382 21.062 38.956C24.9691 43.0739 31.3447 43.4513 35.3022 39.7989Z" fill="#F056BD"/>
<path d="M31.1784 56.29C36.803 56.6055 41.4663 52.5381 41.5942 47.2051C41.7221 41.8722 37.2661 37.2931 31.6414 36.9776C26.0168 36.6621 21.3534 40.7295 21.2256 46.0624C21.0977 51.3954 25.5537 55.9744 31.1784 56.29Z" fill="#F056BD"/>
<path d="M38.7884 22.6578L38.5661 31.3476" stroke="#E593CD" stroke-width="0.199619" stroke-miterlimit="10" stroke-linecap="round"/>
<path d="M44.9825 23.6703L42.5228 31.9755" stroke="#E593CD" stroke-width="0.199619" stroke-miterlimit="10" stroke-linecap="round"/>
<path d="M54.1638 31.9188L45.7613 34.1942" stroke="#E593CD" stroke-width="0.199619" stroke-miterlimit="10" stroke-linecap="round"/>
<path d="M55.258 37.9594L46.4973 38.2508" stroke="#E593CD" stroke-width="0.199619" stroke-miterlimit="10" stroke-linecap="round"/>
<path d="M49.1072 48.6555L43.8986 41.5741" stroke="#E593CD" stroke-width="0.199619" stroke-miterlimit="10" stroke-linecap="round"/>
<path d="M43.6425 51.5938L40.3023 43.5037" stroke="#E593CD" stroke-width="0.199619" stroke-miterlimit="10" stroke-linecap="round"/>
<path d="M27.9423 28.2207L35.1456 33.2885" stroke="#E593CD" stroke-width="0.199619" stroke-miterlimit="10" stroke-linecap="round"/>
<path d="M24.9787 33.6564L33.1644 36.8595" stroke="#E593CD" stroke-width="0.199619" stroke-miterlimit="10" stroke-linecap="round"/>
<path d="M27.3633 45.3976L34.4726 40.5783" stroke="#E593CD" stroke-width="0.199619" stroke-miterlimit="10" stroke-linecap="round"/>
<path d="M31.6231 49.9431L37.2586 43.5028" stroke="#E593CD" stroke-width="0.199619" stroke-miterlimit="10" stroke-linecap="round"/>
<path d="M47.1814 45.185C51.596 41.7349 52.2192 35.2623 48.5733 30.7278C44.9273 26.1934 38.3929 25.3143 33.9783 28.7643C29.5636 32.2143 28.9404 38.687 32.5864 43.2214C36.2323 47.7559 42.7667 48.635 47.1814 45.185Z" fill="#FFD282"/>
<path d="M39.2857 66.6653C39.2304 66.8964 54.8135 67.0619 51.8586 61.0607C49.5068 56.2838 39.2097 64.5683 39.2097 64.5683" fill="#117D3D"/>
<path d="M39.3996 63.027C39.4549 63.2581 23.8718 63.4236 26.8267 57.4224C29.1785 52.6455 39.4756 60.93 39.4756 60.93" fill="#117D3D"/>
</svg>
