<svg width="148" height="78" viewBox="0 0 148 78" fill="none" xmlns="http://www.w3.org/2000/svg">
    <path
        d="M131.367 33.8097V21.9377C131.367 21.5409 131.689 21.2192 132.085 21.2192C132.482 21.2192 132.804 21.5409 132.804 21.9377V33.8097C132.804 34.2065 132.482 34.5282 132.085 34.5282C131.689 34.5282 131.367 34.2065 131.367 33.8097Z"
        fill="#239953" />
    <path
        d="M132.514 11.5067C132.73 9.29453 134.663 7.62625 136.831 7.78048C139 7.9347 140.583 9.85304 140.367 12.0652C140.151 14.2774 138.218 15.9457 136.05 15.7914C133.881 15.6372 132.298 13.7189 132.514 11.5067Z"
        fill="#E25DB6" />
    <path
        d="M126.801 9.98717C127.016 7.775 128.95 6.10672 131.118 6.26095C133.287 6.41518 134.87 8.33351 134.654 10.5457C134.438 12.7578 132.505 14.4261 130.337 14.2719C128.168 14.1177 126.585 12.1993 126.801 9.98717Z"
        fill="#E25DB6" />
    <path
        d="M124.381 13.7991C125.384 11.8121 127.781 10.9695 129.735 11.917C131.688 12.8645 132.459 15.2434 131.455 17.2303C130.452 19.2173 128.055 20.0599 126.101 19.1124C124.148 18.1649 123.377 15.786 124.381 13.7991Z"
        fill="#E25DB6" />
    <path
        d="M134.169 15.0562C135.796 13.5274 138.326 13.5595 139.821 15.128C141.315 16.6966 141.208 19.2075 139.582 20.7364C137.955 22.2652 135.425 22.2331 133.931 20.6646C132.436 19.096 132.543 16.5851 134.169 15.0562Z"
        fill="#E25DB6" />
    <path
        d="M127.554 18.5675C128.256 16.4572 130.507 15.2695 132.581 15.9145C134.656 16.5596 135.769 18.7932 135.067 20.9034C134.365 23.0137 132.114 24.2014 130.04 23.5564C127.965 22.9113 126.852 20.6777 127.554 18.5675Z"
        fill="#E25DB6" />
    <path d="M138.026 12.2849L135.098 14.199" stroke="#E593CD" stroke-width="0.0794721"
        stroke-miterlimit="10" stroke-linecap="round" />
    <path d="M136.429 10.4073L134.036 12.9554" stroke="#E593CD" stroke-width="0.0794721"
        stroke-miterlimit="10" stroke-linecap="round" />
    <path d="M131.763 8.95245L132.54 12.3252" stroke="#E593CD" stroke-width="0.0794721"
        stroke-miterlimit="10" stroke-linecap="round" />
    <path d="M129.427 9.8255L131.024 12.8977" stroke="#E593CD" stroke-width="0.0794721"
        stroke-miterlimit="10" stroke-linecap="round" />
    <path d="M126.972 14.1786L130.46 14.3961" stroke="#E593CD" stroke-width="0.0794721"
        stroke-miterlimit="10" stroke-linecap="round" />
    <path d="M127.089 16.6425L130.536 16.0159" stroke="#E593CD" stroke-width="0.0794721"
        stroke-miterlimit="10" stroke-linecap="round" />
    <path d="M138.349 17.1074L135.136 15.7727" stroke="#E593CD" stroke-width="0.0794721"
        stroke-miterlimit="10" stroke-linecap="round" />
    <path d="M137.094 19.2458L134.312 17.1629" stroke="#E593CD" stroke-width="0.0794721"
        stroke-miterlimit="10" stroke-linecap="round" />
    <path d="M132.473 20.8873L132.852 17.431" stroke="#E593CD" stroke-width="0.0794721"
        stroke-miterlimit="10" stroke-linecap="round" />
    <path d="M130.047 20.3633L131.254 17.0865" stroke="#E593CD" stroke-width="0.0794721"
        stroke-miterlimit="10" stroke-linecap="round" />
    <path
        d="M130.043 16.3775C129.467 15.1037 130.041 13.6075 131.324 13.0356C132.608 12.4636 134.115 13.0326 134.692 14.3065C135.268 15.5803 134.695 17.0765 133.411 17.6485C132.127 18.2204 130.62 17.6514 130.043 16.3775Z"
        fill="#FFD282" />
    <path
        d="M132.344 28.5465C132.311 28.684 141.641 28.7826 139.871 25.2097C138.463 22.3658 132.298 27.298 132.298 27.298"
        fill="#239953" />
    <path
        d="M132.412 31.1433C132.445 31.2808 123.115 31.3794 124.885 27.8065C126.293 24.9626 132.458 29.8948 132.458 29.8948"
        fill="#239953" />
    <path
        d="M52.9666 35.424V22.9782C52.9666 22.5648 53.3017 22.2297 53.7151 22.2297C54.1284 22.2297 54.4635 22.5648 54.4635 22.9782V35.424C54.4635 35.8373 54.1284 36.1724 53.7151 36.1724C53.3017 36.1724 52.9666 35.8373 52.9666 35.424Z"
        fill="#239953" />
    <path
        d="M54.1613 12.0546C54.3862 9.73712 56.4 7.98939 58.6592 8.15096C60.9184 8.31254 62.5676 10.3222 62.3427 12.6397C62.1179 14.9572 60.1041 16.705 57.8449 16.5434C55.5857 16.3818 53.9365 14.3721 54.1613 12.0546Z"
        fill="#3A5ED5" />
    <path
        d="M48.2097 10.4627C48.4346 8.1452 50.4484 6.39748 52.7076 6.55905C54.9668 6.72062 56.616 8.73031 56.3911 11.0478C56.1663 13.3653 54.1525 15.113 51.8933 14.9515C49.6341 14.7899 47.9849 12.7802 48.2097 10.4627Z"
        fill="#3A5ED5" />
    <path
        d="M45.6889 14.4564C46.7341 12.3749 49.2313 11.4921 51.2664 12.4848C53.3016 13.4774 54.104 15.9695 53.0587 18.0511C52.0134 20.1326 49.5163 21.0154 47.4811 20.0227C45.446 19.0301 44.6436 16.538 45.6889 14.4564Z"
        fill="#3A5ED5" />
    <path
        d="M55.8861 15.7733C57.5806 14.1716 60.2164 14.2053 61.7734 15.8485C63.3304 17.4918 63.219 20.1223 61.5245 21.7239C59.8301 23.3256 57.1942 23.2919 55.6372 21.6487C54.0802 20.0055 54.1917 17.375 55.8861 15.7733Z"
        fill="#3A5ED5" />
    <path
        d="M48.9945 19.4518C49.7256 17.241 52.0703 15.9967 54.2316 16.6725C56.3928 17.3483 57.5521 19.6882 56.821 21.899C56.0899 24.1097 53.7452 25.354 51.584 24.6783C49.4227 24.0025 48.2634 21.6625 48.9945 19.4518Z"
        fill="#3A5ED5" />
    <path d="M59.9037 12.87L56.8533 14.8754" stroke="#E593CD" stroke-width="0.0832565"
        stroke-miterlimit="10" stroke-linecap="round" />
    <path d="M58.2398 10.9029L55.7475 13.5723" stroke="#E593CD" stroke-width="0.0832565"
        stroke-miterlimit="10" stroke-linecap="round" />
    <path d="M53.3793 9.37894L54.1884 12.9122" stroke="#E593CD" stroke-width="0.0832565"
        stroke-miterlimit="10" stroke-linecap="round" />
    <path d="M50.9461 10.2935L52.6095 13.5119" stroke="#E593CD" stroke-width="0.0832565"
        stroke-miterlimit="10" stroke-linecap="round" />
    <path d="M48.3882 14.8539L52.0222 15.0818" stroke="#E593CD" stroke-width="0.0832565"
        stroke-miterlimit="10" stroke-linecap="round" />
    <path d="M48.51 17.435L52.1016 16.7786" stroke="#E593CD" stroke-width="0.0832565"
        stroke-miterlimit="10" stroke-linecap="round" />
    <path d="M60.2399 17.9222L56.8933 16.524" stroke="#E593CD" stroke-width="0.0832565"
        stroke-miterlimit="10" stroke-linecap="round" />
    <path d="M58.9327 20.1625L56.0352 17.9803" stroke="#E593CD" stroke-width="0.0832565"
        stroke-miterlimit="10" stroke-linecap="round" />
    <path d="M54.1191 21.8822L54.5135 18.2612" stroke="#E593CD" stroke-width="0.0832565"
        stroke-miterlimit="10" stroke-linecap="round" />
    <path d="M51.5917 21.333L52.8495 17.9001" stroke="#E593CD" stroke-width="0.0832565"
        stroke-miterlimit="10" stroke-linecap="round" />
    <path
        d="M51.2398 17.2306C50.5551 15.7085 51.2364 13.9207 52.7615 13.2373C54.2867 12.5539 56.0781 13.2338 56.7629 14.7559C57.4476 16.278 56.7664 18.0658 55.2412 18.7492C53.7161 19.4326 51.9246 18.7527 51.2398 17.2306Z"
        fill="#FCC35D" />
    <path
        d="M53.9844 29.9059C53.9499 30.05 63.6691 30.1532 61.8261 26.4102C60.3593 23.4309 53.937 28.598 53.937 28.598"
        fill="#239953" />
    <path
        d="M53.8742 30.8211C53.9087 30.9653 44.1895 31.0685 46.0325 27.3255C47.4993 24.3462 53.9216 29.5132 53.9216 29.5132"
        fill="#239953" />
    <path
        d="M11.3132 44.5106V32.4419C11.3132 32.0411 11.6381 31.7162 12.0389 31.7162C12.4398 31.7162 12.7647 32.0411 12.7647 32.4419V44.5106C12.7647 44.9114 12.4398 45.2364 12.0389 45.2364C11.6381 45.2364 11.3132 44.9114 11.3132 44.5106Z"
        fill="#247244" />
    <path
        d="M13.9674 22.8342C15.4039 21.0922 17.9703 20.7777 19.6997 22.1317C21.429 23.4857 21.6665 25.9955 20.23 27.7374C18.7936 29.4794 16.2272 29.7939 14.4978 28.4399C12.7684 27.0859 12.531 24.5761 13.9674 22.8342Z"
        fill="#785DE2" />
    <path
        d="M10.0435 18.3293C11.48 16.5873 14.0464 16.2728 15.7758 17.6268C17.5051 18.9808 17.7426 21.4906 16.3061 23.2325C14.8697 24.9745 12.3033 25.289 10.5739 23.935C8.84452 22.581 8.60707 20.0712 10.0435 18.3293Z"
        fill="#785DE2" />
    <path
        d="M5.8524 20.1752C7.82082 19.0675 10.3074 19.7105 11.4062 21.6115C12.5051 23.5124 11.8002 25.9514 9.83178 27.059C7.86336 28.1667 5.37682 27.5237 4.27795 25.6228C3.17907 23.7218 3.88398 21.2829 5.8524 20.1752Z"
        fill="#785DE2" />
    <path
        d="M13.3397 26.7593C15.5702 26.3893 17.6717 27.8445 18.0336 30.0095C18.3955 32.1746 16.8806 34.2297 14.6501 34.5998C12.4196 34.9698 10.3181 33.5146 9.95624 31.3495C9.59438 29.1845 11.1092 27.1293 13.3397 26.7593Z"
        fill="#785DE2" />
    <path
        d="M5.80434 25.9837C7.59008 24.602 10.1499 24.8716 11.5219 26.586C12.8939 28.3005 12.5584 30.8105 10.7727 32.1923C8.98694 33.574 6.42711 33.3044 5.05514 31.59C3.68317 29.8755 4.0186 27.3655 5.80434 25.9837Z"
        fill="#785DE2" />
    <path d="M18.1437 26.6011L14.604 26.5612" stroke="#E593CD" stroke-width="0.0807336"
        stroke-miterlimit="10" stroke-linecap="round" />
    <path d="M17.8713 24.1176L14.4207 24.9141" stroke="#E593CD" stroke-width="0.0807335"
        stroke-miterlimit="10" stroke-linecap="round" />
    <path d="M14.7882 20.2586L13.5245 23.5385" stroke="#E593CD" stroke-width="0.0807336"
        stroke-miterlimit="10" stroke-linecap="round" />
    <path d="M12.3358 19.6757L11.9298 23.1653" stroke="#E593CD" stroke-width="0.0807336"
        stroke-miterlimit="10" stroke-linecap="round" />
    <path d="M7.80795 21.9575L10.607 24.1096" stroke="#E593CD" stroke-width="0.0807336"
        stroke-miterlimit="10" stroke-linecap="round" />
    <path d="M6.5074 24.0992L9.75146 25.5172" stroke="#E593CD" stroke-width="0.0807336"
        stroke-miterlimit="10" stroke-linecap="round" />
    <path d="M15.6768 30.8462L13.743 27.9085" stroke="#E593CD" stroke-width="0.0807335"
        stroke-miterlimit="10" stroke-linecap="round" />
    <path d="M13.4117 31.9397L12.2638 28.6149" stroke="#E593CD" stroke-width="0.0807335"
        stroke-miterlimit="10" stroke-linecap="round" />
    <path d="M8.60885 30.7147L10.8879 28.0163" stroke="#E593CD" stroke-width="0.0807336"
        stroke-miterlimit="10" stroke-linecap="round" />
    <path d="M6.87376 28.9037L9.74527 26.8244" stroke="#E593CD" stroke-width="0.0807336"
        stroke-miterlimit="10" stroke-linecap="round" />
    <path
        d="M8.95403 26.9881C8.13603 25.1699 8.94987 23.0341 10.7718 22.2177C12.5937 21.4014 14.7338 22.2136 15.5518 24.0319C16.3698 25.8501 15.556 27.9859 13.7341 28.8022C11.9121 29.6186 9.77203 28.8064 8.95403 26.9881Z"
        fill="#F5BC57" />
    <path
        d="M11.5661 43.2472C11.5326 43.387 20.9573 43.4871 19.1702 39.8575C17.7478 36.9685 11.5201 41.979 11.5201 41.979"
        fill="#247244" />
    <path
        d="M11.9204 38.5553C11.9505 38.6811 3.46831 38.7712 5.07671 35.5046C6.35685 32.9044 11.9618 37.4139 11.9618 37.4139"
        fill="#247244" />
    <path
        d="M35.1505 64.7381V47.7666C35.1505 47.2029 35.6074 46.746 36.1711 46.746C36.7348 46.746 37.1917 47.2029 37.1917 47.7666V64.7381C37.1917 65.3018 36.7348 65.7587 36.1711 65.7587C35.6074 65.7587 35.1505 65.3018 35.1505 64.7381Z"
        fill="#1A6F3D" />
    <path
        d="M38.5184 33.3963C40.3002 30.7684 43.852 29.9902 46.4515 31.6583C49.051 33.3263 49.7138 36.8089 47.932 39.4369C46.1501 42.0648 42.5983 42.843 39.9988 41.1749C37.3994 39.5069 36.7365 36.0243 38.5184 33.3963Z"
        fill="#E26D5D" />
    <path
        d="M32.4317 27.6058C34.2135 24.9779 37.7653 24.1997 40.3648 25.8678C42.9642 27.5358 43.6271 31.0184 41.8452 33.6464C40.0634 36.2743 36.5116 37.0524 33.9121 35.3844C31.3126 33.7163 30.6498 30.2338 32.4317 27.6058Z"
        fill="#E26D5D" />
    <path
        d="M26.8068 30.742C29.4169 28.932 32.9829 29.505 34.7717 32.0218C36.5604 34.5386 35.8945 38.0461 33.2844 39.8561C30.6743 41.666 27.1083 41.093 25.3196 38.5762C23.5308 36.0594 24.1967 32.5519 26.8068 30.742Z"
        fill="#E26D5D" />
    <path
        d="M38.1563 38.9746C41.2304 38.1629 44.3643 39.9236 45.1559 42.9073C45.9476 45.8909 44.0972 48.9677 41.023 49.7793C37.9489 50.591 34.815 48.8303 34.0234 45.8467C33.2318 42.863 35.0821 39.7863 38.1563 38.9746Z"
        fill="#E26D5D" />
    <path
        d="M27.5042 38.8806C29.8224 36.7109 33.4419 36.7515 35.5884 38.9712C37.735 41.191 37.5957 44.7493 35.2775 46.919C32.9592 49.0887 29.3397 49.0481 27.1932 46.8283C25.0467 44.6086 25.1859 41.0503 27.5042 38.8806Z"
        fill="#E26D5D" />
    <path d="M44.8614 38.1207L39.9003 38.5308" stroke="#E5A793" stroke-width="0.113531"
        stroke-miterlimit="10" stroke-linecap="round" />
    <path d="M44.1532 34.6796L39.4268 36.249" stroke="#E5A793" stroke-width="0.113532"
        stroke-miterlimit="10" stroke-linecap="round" />
    <path d="M39.3286 29.6824L37.9911 34.4409" stroke="#E5A793" stroke-width="0.113532"
        stroke-miterlimit="10" stroke-linecap="round" />
    <path d="M35.8184 29.1893L35.7093 34.1284" stroke="#E5A793" stroke-width="0.113532"
        stroke-miterlimit="10" stroke-linecap="round" />
    <path d="M29.7793 32.9798L33.9815 35.6245" stroke="#E5A793" stroke-width="0.113532"
        stroke-miterlimit="10" stroke-linecap="round" />
    <path d="M28.2404 36.1496L32.969 37.7079" stroke="#E5A793" stroke-width="0.113532"
        stroke-miterlimit="10" stroke-linecap="round" />
    <path d="M41.9664 44.389L38.8721 40.5305" stroke="#E5A793" stroke-width="0.113532"
        stroke-miterlimit="10" stroke-linecap="round" />
    <path d="M38.9391 46.218L36.8943 41.7141" stroke="#E5A793" stroke-width="0.113532"
        stroke-miterlimit="10" stroke-linecap="round" />
    <path d="M32.0534 45.1352L34.889 41.0573" stroke="#E5A793" stroke-width="0.113532"
        stroke-miterlimit="10" stroke-linecap="round" />
    <path d="M29.3857 42.828L33.1324 39.5388" stroke="#E5A793" stroke-width="0.113532"
        stroke-miterlimit="10" stroke-linecap="round" />
    <path
        d="M31.833 40.0972C30.6827 37.5403 31.8272 34.5369 34.3893 33.3889C36.9514 32.2409 39.9609 33.3831 41.1112 35.94C42.2615 38.4969 41.117 41.5003 38.5549 42.6483C35.9929 43.7963 32.9834 42.6542 31.833 40.0972Z"
        fill="#FFD282" />
    <path
        d="M35.8985 60.564C35.8514 60.7605 49.1049 60.9013 46.5918 55.7972C44.5915 51.7344 35.8338 58.7805 35.8338 58.7805"
        fill="#1A6F3D" />
    <path
        d="M36.6353 60.9231C36.6823 61.1196 23.4289 61.2604 25.942 56.1563C27.9422 52.0936 36.7 59.1396 36.7 59.1396"
        fill="#1A6F3D" />
    <path
        d="M92.1415 44.1382V29.0523C92.1415 28.5513 92.5476 28.1451 93.0487 28.1451C93.5497 28.1451 93.9559 28.5513 93.9559 29.0523V44.1382C93.9559 44.6392 93.5497 45.0454 93.0487 45.0454C92.5476 45.0454 92.1415 44.6392 92.1415 44.1382Z"
        fill="#247244" />
    <path
        d="M95.4593 17.0427C97.2549 14.8653 100.463 14.4722 102.625 16.1647C104.786 17.8572 105.083 20.9944 103.288 23.1718C101.492 25.3492 98.284 25.7423 96.1222 24.0499C93.9605 22.3574 93.6637 19.2202 95.4593 17.0427Z"
        fill="#E25D5D" />
    <path
        d="M90.5544 11.4118C92.3499 9.23433 95.558 8.8412 97.7197 10.5337C99.8814 12.2262 100.178 15.3634 98.3826 17.5408C96.5871 19.7182 93.3791 20.1114 91.2173 18.4189C89.0556 16.7264 88.7588 13.5892 90.5544 11.4118Z"
        fill="#E25D5D" />
    <path
        d="M85.3155 13.7191C87.776 12.3345 90.8842 13.1383 92.2578 15.5145C93.6314 17.8907 92.7502 20.9394 90.2897 22.324C87.8292 23.7086 84.721 22.9048 83.3474 20.5286C81.9738 18.1525 82.855 15.1038 85.3155 13.7191Z"
        fill="#E25D5D" />
    <path
        d="M94.6746 21.9492C97.4627 21.4867 100.09 23.3056 100.542 26.012C100.994 28.7183 99.1008 31.2872 96.3126 31.7498C93.5245 32.2123 90.8976 30.3933 90.4453 27.687C89.9929 24.9806 91.8865 22.4117 94.6746 21.9492Z"
        fill="#E25D5D" />
    <path
        d="M85.2554 20.9797C87.4875 19.2525 90.6873 19.5895 92.4023 21.7326C94.1173 23.8756 93.698 27.0131 91.4658 28.7404C89.2336 30.4676 86.0338 30.1305 84.3189 27.9875C82.6039 25.8444 83.0232 22.707 85.2554 20.9797Z"
        fill="#E25D5D" />
    <path d="M100.68 21.7515L96.2549 21.7016" stroke="#E593CD" stroke-width="0.100917"
        stroke-miterlimit="10" stroke-linecap="round" />
    <path d="M100.339 18.6472L96.0258 19.6428" stroke="#E593CD" stroke-width="0.100917"
        stroke-miterlimit="10" stroke-linecap="round" />
    <path d="M96.4852 13.8233L94.9057 17.9232" stroke="#E593CD" stroke-width="0.100917"
        stroke-miterlimit="10" stroke-linecap="round" />
    <path d="M93.4198 13.0948L92.9123 17.4568" stroke="#E593CD" stroke-width="0.100917"
        stroke-miterlimit="10" stroke-linecap="round" />
    <path d="M87.7599 15.9469L91.2587 18.6371" stroke="#E593CD" stroke-width="0.100917"
        stroke-miterlimit="10" stroke-linecap="round" />
    <path d="M86.1342 18.624L90.1893 20.3965" stroke="#E593CD" stroke-width="0.100917"
        stroke-miterlimit="10" stroke-linecap="round" />
    <path d="M97.596 27.0579L95.1787 23.3857" stroke="#E593CD" stroke-width="0.100917"
        stroke-miterlimit="10" stroke-linecap="round" />
    <path d="M94.7647 28.4247L93.3298 24.2687" stroke="#E593CD" stroke-width="0.100917"
        stroke-miterlimit="10" stroke-linecap="round" />
    <path d="M88.7611 26.8935L91.6099 23.5205" stroke="#E593CD" stroke-width="0.100917"
        stroke-miterlimit="10" stroke-linecap="round" />
    <path d="M86.5922 24.6297L90.1816 22.0306" stroke="#E593CD" stroke-width="0.100917"
        stroke-miterlimit="10" stroke-linecap="round" />
    <path
        d="M89.5366 22.4825C88.688 20.5962 89.5323 18.3804 91.4225 17.5335C93.3126 16.6865 95.5329 17.5292 96.3815 19.4155C97.2301 21.3019 96.3858 23.5176 94.4956 24.3645C92.6055 25.2115 90.3852 24.3689 89.5366 22.4825Z"
        fill="#F5BC57" />
    <path
        d="M92.4575 42.559C92.4157 42.7337 104.197 42.8589 101.963 38.3219C100.185 34.7106 92.4001 40.9737 92.4001 40.9737"
        fill="#247244" />
    <path
        d="M92.9005 36.6941C92.9381 36.8514 82.3354 36.964 84.3459 32.8807C85.946 29.6305 92.9522 35.2673 92.9522 35.2673"
        fill="#247244" />
    <path
        d="M70.572 75.8361V56.8281C70.572 56.172 71.1039 55.6401 71.76 55.6401C72.4161 55.6401 72.948 56.172 72.948 56.8281V75.8361C72.948 76.4923 72.4161 77.0241 71.76 77.0241C71.1039 77.0241 70.572 76.4923 70.572 75.8361Z"
        fill="#2F8D55" />
    <path
        d="M75.0844 37.683C77.4365 34.2141 82.1248 33.187 85.5561 35.3888C88.9875 37.5906 89.8624 42.1876 87.5103 45.6565C85.1583 49.1254 80.47 50.1526 77.0386 47.9507C73.6073 45.7489 72.7324 41.1519 75.0844 37.683Z"
        fill="#F2D36B" />
    <path
        d="M67.05 30.0396C69.402 26.5707 74.0903 25.5435 77.5216 27.7454C80.953 29.9472 81.8279 34.5442 79.4759 38.0131C77.1238 41.482 72.4355 42.5091 69.0042 40.3073C65.5728 38.1055 64.6979 33.5085 67.05 30.0396Z"
        fill="#F2D36B" />
    <path
        d="M59.6251 34.1792C63.0704 31.79 67.7775 32.5464 70.1387 35.8686C72.4998 39.1907 71.6208 43.8207 68.1755 46.2098C64.7301 48.599 60.023 47.8426 57.6619 44.5204C55.3007 41.1983 56.1797 36.5683 59.6251 34.1792Z"
        fill="#F2D36B" />
    <path
        d="M74.6063 45.0463C78.6642 43.9749 82.8009 46.299 83.8458 50.2375C84.8908 54.1759 82.4483 58.2371 78.3904 59.3086C74.3325 60.38 70.1959 58.0558 69.1509 54.1174C68.106 50.179 70.5484 46.1177 74.6063 45.0463Z"
        fill="#F2D36B" />
    <path
        d="M60.5455 44.9222C63.6056 42.0582 68.3833 42.1118 71.2167 45.0418C74.0502 47.9719 73.8664 52.6688 70.8062 55.5328C67.7461 58.3968 62.9684 58.3432 60.135 55.4132C57.3016 52.4831 57.4854 47.7861 60.5455 44.9222Z"
        fill="#F2D36B" />
    <path d="M83.4571 43.9192L76.9084 44.4605" stroke="#FAFFB7" stroke-width="0.149861"
        stroke-miterlimit="10" stroke-linecap="round" />
    <path d="M82.5222 39.3769L76.2834 41.4485" stroke="#FAFFB7" stroke-width="0.149862"
        stroke-miterlimit="10" stroke-linecap="round" />
    <path d="M76.1538 32.7806L74.3883 39.0617" stroke="#FAFFB7" stroke-width="0.149862"
        stroke-miterlimit="10" stroke-linecap="round" />
    <path d="M71.5203 32.1295L71.3764 38.6492" stroke="#FAFFB7" stroke-width="0.149862"
        stroke-miterlimit="10" stroke-linecap="round" />
    <path d="M63.5487 37.1333L69.0956 40.6243" stroke="#FAFFB7" stroke-width="0.149862"
        stroke-miterlimit="10" stroke-linecap="round" />
    <path d="M61.5174 41.3173L67.7592 43.3743" stroke="#FAFFB7" stroke-width="0.149862"
        stroke-miterlimit="10" stroke-linecap="round" />
    <path d="M79.6357 52.1932L75.5513 47.1" stroke="#FAFFB7" stroke-width="0.149862"
        stroke-miterlimit="10" stroke-linecap="round" />
    <path d="M75.6396 54.6077L72.9405 48.6626" stroke="#FAFFB7" stroke-width="0.149862"
        stroke-miterlimit="10" stroke-linecap="round" />
    <path d="M66.5506 53.1783L70.2936 47.7955" stroke="#FAFFB7" stroke-width="0.149862"
        stroke-miterlimit="10" stroke-linecap="round" />
    <path d="M63.0292 50.1329L67.9748 45.7912" stroke="#FAFFB7" stroke-width="0.149862"
        stroke-miterlimit="10" stroke-linecap="round" />
    <path
        d="M68.0322 44.5736C66.9098 42.0787 68.0265 39.1482 70.5264 38.0281C73.0263 36.908 75.9627 38.0224 77.0851 40.5173C78.2074 43.0121 77.0908 45.9426 74.5909 47.0627C72.091 48.1828 69.1546 47.0684 68.0322 44.5736Z"
        fill="#EE990F" />
    <path
        d="M71.8453 69.5381C71.7832 69.7975 89.2778 69.9834 85.9604 63.246C83.3202 57.8831 71.76 67.1839 71.76 67.1839"
        fill="#2F8D55" />
    <path
        d="M72.5987 74.0184C72.6607 74.2779 55.1662 74.4637 58.4835 67.7263C61.1238 62.3635 72.684 71.6642 72.684 71.6642"
        fill="#2F8D55" />
    <path
        d="M110.45 71.1358V52.4671C110.45 51.8471 110.953 51.3445 111.573 51.3445C112.193 51.3445 112.695 51.8471 112.695 52.4671V71.1358C112.695 71.7559 112.193 72.2585 111.573 72.2585C110.953 72.2585 110.45 71.7559 110.45 71.1358Z"
        fill="#239953" />
    <path
        d="M112.242 36.0818C112.579 32.6056 115.6 29.984 118.989 30.2263C122.378 30.4687 124.851 33.4832 124.514 36.9595C124.177 40.4357 121.156 43.0573 117.767 42.815C114.379 42.5726 111.905 39.5581 112.242 36.0818Z"
        fill="#EEF7FF" />
    <path
        d="M103.315 33.694C103.652 30.2177 106.673 27.5962 110.061 27.8385C113.45 28.0809 115.924 31.0954 115.587 34.5717C115.249 38.0479 112.229 40.6695 108.84 40.4271C105.451 40.1848 102.977 37.1703 103.315 33.694Z"
        fill="#EEF7FF" />
    <path
        d="M99.5333 39.6844C101.101 36.562 104.847 35.2379 107.9 36.7269C110.952 38.2158 112.156 41.954 110.588 45.0764C109.02 48.1987 105.274 49.5228 102.222 48.0339C99.169 46.5449 97.9653 42.8067 99.5333 39.6844Z"
        fill="#EEF7FF" />
    <path
        d="M114.829 41.6599C117.371 39.2573 121.325 39.3079 123.66 41.7727C125.996 44.2375 125.828 48.1833 123.287 50.5858C120.745 52.9883 116.791 52.9378 114.456 50.4729C112.12 48.0081 112.288 44.0624 114.829 41.6599Z"
        fill="#EEF7FF" />
    <path
        d="M104.492 47.1777C105.588 43.8616 109.106 41.9951 112.347 43.0087C115.589 44.0224 117.328 47.5324 116.232 50.8485C115.135 54.1646 111.618 56.031 108.376 55.0174C105.134 54.0037 103.395 50.4937 104.492 47.1777Z"
        fill="#EEF7FF" />
    <path d="M120.856 37.3049L116.28 40.3131" stroke="#E593CD" stroke-width="0.124885"
        stroke-miterlimit="10" stroke-linecap="round" />
    <path d="M118.36 34.3544L114.621 38.3585" stroke="#E593CD" stroke-width="0.124885"
        stroke-miterlimit="10" stroke-linecap="round" />
    <path d="M111.069 32.0682L112.283 37.3682" stroke="#E593CD" stroke-width="0.124885"
        stroke-miterlimit="10" stroke-linecap="round" />
    <path d="M107.419 33.44L109.914 38.2677" stroke="#E593CD" stroke-width="0.124885"
        stroke-miterlimit="10" stroke-linecap="round" />
    <path d="M103.582 40.2806L109.033 40.6224" stroke="#E593CD" stroke-width="0.124885"
        stroke-miterlimit="10" stroke-linecap="round" />
    <path d="M103.765 44.1522L109.152 43.1676" stroke="#E593CD" stroke-width="0.124885"
        stroke-miterlimit="10" stroke-linecap="round" />
    <path d="M121.36 44.8831L116.34 42.7856" stroke="#E593CD" stroke-width="0.124885"
        stroke-miterlimit="10" stroke-linecap="round" />
    <path d="M119.399 48.2435L115.053 44.9703" stroke="#E593CD" stroke-width="0.124885"
        stroke-miterlimit="10" stroke-linecap="round" />
    <path d="M112.179 50.8232L112.77 45.3917" stroke="#E593CD" stroke-width="0.124885"
        stroke-miterlimit="10" stroke-linecap="round" />
    <path d="M108.388 49.9995L110.274 44.8502" stroke="#E593CD" stroke-width="0.124885"
        stroke-miterlimit="10" stroke-linecap="round" />
    <path
        d="M108.805 43.6161C107.808 41.3999 108.8 38.7967 111.021 37.8016C113.242 36.8066 115.85 37.7966 116.847 40.0128C117.844 42.229 116.852 44.8323 114.632 45.8273C112.411 46.8223 109.802 45.8324 108.805 43.6161Z"
        fill="#FCC35D" />
    <path
        d="M111.977 62.8589C111.925 63.0751 126.504 63.2299 123.739 57.6154C121.539 53.1464 111.906 60.897 111.906 60.897"
        fill="#239953" />
    <path
        d="M111.811 64.2317C111.863 64.4479 97.2843 64.6027 100.049 58.9882C102.249 54.5192 111.883 62.2698 111.883 62.2698"
        fill="#239953" />
</svg>
    