<svg width="63" height="72" viewBox="0 0 63 72" fill="none" xmlns="http://www.w3.org/2000/svg">
<path d="M28.9795 70.1438V45.2003C28.9795 44.3719 29.6511 43.7003 30.4795 43.7003C31.3079 43.7003 31.9795 44.3719 31.9795 45.2003V70.1438C31.9795 70.9722 31.3079 71.6438 30.4795 71.6438C29.6511 71.6438 28.9795 70.9722 28.9795 70.1438Z" fill="#239953"/>
<path d="M31.2978 23.255C31.7064 18.6394 35.7423 15.1839 40.3122 15.5368C44.8822 15.8898 48.2556 19.9175 47.847 24.5331C47.4384 29.1486 43.4025 32.6042 38.8325 32.2512C34.2626 31.8983 30.8892 27.8705 31.2978 23.255Z" fill="#E25DB6"/>
<path d="M19.3698 20.0646C19.7784 15.449 23.8143 11.9935 28.3842 12.3464C32.9541 12.6993 36.3276 16.7271 35.9189 21.3426C35.5103 25.9582 31.4744 29.4137 26.9045 29.0608C22.3346 28.7079 18.9612 24.6801 19.3698 20.0646Z" fill="#E25DB6"/>
<path d="M14.331 28.0798C16.3915 23.9308 21.3962 22.1985 25.5094 24.2107C29.6227 26.2228 31.2868 31.2175 29.2264 35.3665C27.166 39.5156 22.1612 41.2478 18.048 39.2357C13.9347 37.2235 12.2706 32.2289 14.331 28.0798Z" fill="#E25DB6"/>
<path d="M34.7707 30.7226C38.1336 27.5336 43.4163 27.6353 46.5698 30.9496C49.7234 34.264 49.5537 39.536 46.1908 42.7249C42.828 45.9139 37.5453 45.8122 34.3917 42.4979C31.2382 39.1835 31.4079 33.9115 34.7707 30.7226Z" fill="#E25DB6"/>
<path d="M20.9526 38.0886C22.3813 33.6825 27.0805 31.2283 31.4485 32.6072C35.8165 33.9861 38.1993 38.6758 36.7705 43.082C35.3418 47.4881 30.6426 49.9423 26.2746 48.5634C21.9066 47.1845 19.5238 42.4948 20.9526 38.0886Z" fill="#E25DB6"/>
<path d="M42.8825 24.9495L36.769 28.9534" stroke="#E593CD" stroke-width="0.16686" stroke-miterlimit="10" stroke-linecap="round"/>
<path d="M39.5372 20.9995L34.5634 26.3495" stroke="#E593CD" stroke-width="0.16686" stroke-miterlimit="10" stroke-linecap="round"/>
<path d="M29.774 17.945L31.4607 25.0264" stroke="#E593CD" stroke-width="0.16686" stroke-miterlimit="10" stroke-linecap="round"/>
<path d="M24.91 19.7779L28.2838 26.2283" stroke="#E593CD" stroke-width="0.16686" stroke-miterlimit="10" stroke-linecap="round"/>
<path d="M19.8036 28.8943L27.0867 29.3982" stroke="#E593CD" stroke-width="0.16686" stroke-miterlimit="10" stroke-linecap="round"/>
<path d="M20.0476 34.0692L27.2458 32.7969" stroke="#E593CD" stroke-width="0.16686" stroke-miterlimit="10" stroke-linecap="round"/>
<path d="M43.5563 35.0867L36.849 32.2454" stroke="#E593CD" stroke-width="0.16686" stroke-miterlimit="10" stroke-linecap="round"/>
<path d="M40.9365 39.5685L35.1294 35.1724" stroke="#E593CD" stroke-width="0.16686" stroke-miterlimit="10" stroke-linecap="round"/>
<path d="M31.3265 43.0038L32.0424 35.7467" stroke="#E593CD" stroke-width="0.16686" stroke-miterlimit="10" stroke-linecap="round"/>
<path d="M26.2565 41.9032L28.7119 35.0231" stroke="#E593CD" stroke-width="0.16686" stroke-miterlimit="10" stroke-linecap="round"/>
<path d="M24.1037 33.9284C22.413 30.1704 24.0951 25.7562 27.8607 24.069C31.6262 22.3818 36.0494 24.0604 37.74 27.8184C39.4307 31.5764 37.7486 35.9906 33.983 37.6778C30.2175 39.365 25.7943 37.6864 24.1037 33.9284Z" fill="#FFD282"/>
<path d="M31.0193 59.0847C30.9502 59.3735 50.4291 59.5805 46.7355 52.0788C43.7957 46.1077 30.9243 56.4634 30.9243 56.4634" fill="#239953"/>
<path d="M31.1617 64.5367C31.2308 64.8256 11.7519 65.0325 15.4455 57.5309C18.3853 51.5598 31.2567 61.9154 31.2567 61.9154" fill="#239953"/>
</svg>
