<svg width="100" height="97" viewBox="0 0 100 97" fill="none" xmlns="http://www.w3.org/2000/svg">
<path d="M92.398 16.4856V75.493C92.398 76.7834 91.3526 77.8288 90.0623 77.8288H11.9995C10.7092 77.8288 9.66377 76.7834 9.66377 75.493V16.4856H92.398Z" fill="#FFDDA7"/>
<path opacity="0.15" d="M92.398 19.8514V26.4386C92.0809 26.5261 91.7528 26.5808 91.4095 26.5808C89.5527 26.5808 88.0459 25.0805 88.0459 23.2172C88.0459 25.0805 86.539 26.5808 84.6822 26.5808C82.8255 26.5808 81.3186 25.0805 81.3186 23.2172C81.3186 25.0805 79.8118 26.5808 77.955 26.5808C76.0983 26.5808 74.5914 25.0805 74.5914 23.2172C74.5914 25.0805 73.0846 26.5808 71.2278 26.5808C69.3711 26.5808 67.8642 25.0805 67.8642 23.2172C67.8642 25.0805 66.3574 26.5808 64.5006 26.5808C62.6438 26.5808 61.137 25.0805 61.137 23.2172C61.137 25.0805 59.6302 26.5808 57.7734 26.5808C55.9166 26.5808 54.4098 25.0805 54.4098 23.2172C54.4098 25.0805 52.903 26.5808 51.0462 26.5808C49.1894 26.5808 47.6826 25.0805 47.6826 23.2172C47.6826 25.0805 46.1757 26.5808 44.319 26.5808C42.4622 26.5808 40.9554 25.0805 40.9554 23.2172C40.9554 25.0805 39.4485 26.5808 37.5918 26.5808C35.735 26.5808 34.2282 25.0805 34.2282 23.2172C34.2282 25.0805 32.7213 26.5808 30.8646 26.5808C29.0078 26.5808 27.5009 25.0805 27.5009 23.2172C27.5009 25.0805 25.9941 26.5808 24.1373 26.5808C22.2806 26.5808 20.7737 25.0805 20.7737 23.2172C20.7737 25.0805 19.2669 26.5808 17.4101 26.5808C15.5534 26.5808 14.0465 25.0805 14.0465 23.2172C14.0465 25.0805 12.5397 26.5808 10.6829 26.5808C10.3396 26.5808 10.0028 26.5261 9.68783 26.4321V19.8514H92.398Z" fill="black"/>
<path d="M37.5765 70.2377H9.66377V71.9129H37.5765V70.2377Z" fill="#0048B3"/>
<path opacity="0.25" d="M37.5765 70.2377H9.66377V71.0731H37.5765V70.2377Z" fill="white"/>
<path d="M92.4002 70.2377H64.494V71.9129H92.4002V70.2377Z" fill="#0048B3"/>
<path opacity="0.25" d="M92.4002 70.2377H64.494V71.0731H92.4002V70.2377Z" fill="white"/>
<path d="M90.0645 77.8288H64.4919V71.9151H92.4002V75.4952C92.398 76.7834 91.3526 77.8288 90.0645 77.8288Z" fill="#FB8F04"/>
<path opacity="0.15" d="M92.4004 71.9064H64.4943V73.5816H92.4004V71.9064Z" fill="black"/>
<path opacity="0.15" d="M92.4004 71.9064H64.4943V72.7418H92.4004V71.9064Z" fill="black"/>
<path d="M37.5721 77.8287H11.9995C10.7092 77.8287 9.66377 76.7834 9.66377 75.493V71.9129H37.5721V77.8287Z" fill="#FB8F04"/>
<path opacity="0.15" d="M37.5723 71.9064H9.6662V73.5816H37.5723V71.9064Z" fill="black"/>
<path opacity="0.15" d="M37.5723 71.9064H9.6662V72.7418H37.5723V71.9064Z" fill="black"/>
<path d="M10.6589 23.2172C8.79991 23.2172 7.29525 21.7103 7.29525 19.8536V16.4878H14.0225V19.8514C14.0225 21.7125 12.5156 23.2172 10.6589 23.2172Z" fill="#FB8F04"/>
<path d="M17.3883 23.2172C15.5293 23.2172 14.0247 21.7103 14.0247 19.8536V16.4878H20.7541V19.8514C20.7519 21.7125 19.245 23.2172 17.3883 23.2172Z" fill="#0048B3"/>
<path d="M24.1177 23.2172C22.2587 23.2172 20.7541 21.7103 20.7541 19.8536V16.4878H27.4834V19.8514C27.4813 21.7125 25.9744 23.2172 24.1177 23.2172Z" fill="#FB8F04"/>
<path d="M30.8449 23.2172C28.9859 23.2172 27.4813 21.7103 27.4813 19.8536V16.4878H34.2107V19.8514C34.2107 21.7125 32.7038 23.2172 30.8449 23.2172Z" fill="#0048B3"/>
<path d="M37.5743 23.2172C35.7153 23.2172 34.2107 21.7103 34.2107 19.8536V16.4878H40.9401V19.8514C40.9401 21.7125 39.4332 23.2172 37.5743 23.2172Z" fill="#FB8F04"/>
<path d="M44.3037 23.2172C42.4447 23.2172 40.9401 21.7103 40.9401 19.8536V16.4878H47.6695V19.8514C47.6673 21.7125 46.1626 23.2172 44.3037 23.2172Z" fill="#0048B3"/>
<path d="M51.0331 23.2172C49.1741 23.2172 47.6695 21.7103 47.6695 19.8536V16.4878H54.3989V19.8514C54.3967 21.7125 52.892 23.2172 51.0331 23.2172Z" fill="#FB8F04"/>
<path d="M57.7625 23.2172C55.9035 23.2172 54.3989 21.7103 54.3989 19.8536V16.4878H61.1283V19.8514C61.1261 21.7125 59.6192 23.2172 57.7625 23.2172Z" fill="#0048B3"/>
<path d="M64.4919 23.2172C62.6329 23.2172 61.1283 21.7103 61.1283 19.8536V16.4878H67.8577V19.8514C67.8555 21.7125 66.3486 23.2172 64.4919 23.2172Z" fill="#FB8F04"/>
<path d="M71.2191 23.2172C69.3601 23.2172 67.8555 21.7103 67.8555 19.8536V16.4878H74.5849V19.8514C74.5849 21.7125 73.078 23.2172 71.2191 23.2172Z" fill="#0048B3"/>
<path d="M77.9485 23.2172C76.0895 23.2172 74.5849 21.7103 74.5849 19.8536V16.4878H81.3143V19.8514C81.3143 21.7125 79.8074 23.2172 77.9485 23.2172Z" fill="#FB8F04"/>
<path d="M84.6779 23.2172C82.8189 23.2172 81.3143 21.7103 81.3143 19.8536V16.4878H88.0437V19.8514C88.0437 21.7125 86.5368 23.2172 84.6779 23.2172Z" fill="#0048B3"/>
<path d="M91.4073 23.2172C89.5483 23.2172 88.0437 21.7103 88.0437 19.8536V16.4878H94.7731V19.8514C94.7709 21.7125 93.2662 23.2172 91.4073 23.2172Z" fill="#FB8F04"/>
<path d="M54.3967 2.0033H47.6673V16.4878H54.3967V2.0033Z" fill="#FB8F04"/>
<path d="M47.6695 2.0033H40.9401V16.4878H47.6695V2.0033Z" fill="#0048B3"/>
<path d="M17.3904 2.00549L14.0247 16.4856H7.29525L10.661 2.00549H17.3904Z" fill="#FB8F04"/>
<path d="M20.7519 16.4878H14.0225L17.3883 2.0033H24.1177L20.7519 16.4878Z" fill="#0048B3"/>
<path d="M27.4813 16.4878H20.7519L24.1177 2.0033H29.9416L27.4813 16.4878Z" fill="#FB8F04"/>
<path d="M34.2107 16.4878H27.4813L29.9416 2.0033H35.5469L34.2107 16.4878Z" fill="#0048B3"/>
<path d="M40.9401 16.4878H34.2107L35.5469 2.0033H40.9401V16.4878Z" fill="#FB8F04"/>
<path d="M54.3979 16.489H61.1273V2.00445H54.3979V16.489Z" fill="#0048B3"/>
<path d="M94.7731 16.4856H88.0459L84.6801 2.00549H91.4095L94.7731 16.4856Z" fill="#FB8F04"/>
<path d="M81.3143 16.4878H88.0437L84.6779 2.0033H77.9485L81.3143 16.4878Z" fill="#0048B3"/>
<path d="M74.5849 16.4878H81.3143L77.9485 2.0033H72.1223L74.5849 16.4878Z" fill="#FB8F04"/>
<path d="M67.8555 16.4878H74.5849L72.1223 2.0033H66.5192L67.8555 16.4878Z" fill="#0048B3"/>
<path d="M61.1261 16.4878H67.8555L66.5192 2.0033H61.1261V16.4878Z" fill="#FB8F04"/>
<path d="M91.4095 2.00548H10.661C10.661 1.64244 10.7551 1.29908 10.93 1.00383C11.2734 0.404595 11.9186 0 12.66 0H89.404C89.9617 0 90.4603 0.223074 90.8233 0.586116C90.9436 0.706401 91.053 0.848556 91.1405 1.00383C91.3154 1.29908 91.4095 1.64244 91.4095 2.00548Z" fill="#FFAE33"/>
<path opacity="0.25" d="M91.1405 1.00165H10.93C11.2734 0.404595 11.9186 0 12.66 0H89.404C89.9617 0 90.4603 0.223074 90.8233 0.586116C90.9458 0.706401 91.053 0.848556 91.1405 1.00165Z" fill="white"/>
<path d="M33.8017 34.0429V64.136C33.8017 64.7155 33.5524 65.2339 33.1565 65.5903C32.8066 65.914 32.343 66.1087 31.8312 66.1087H16.3997C15.3106 66.1087 14.4271 65.2273 14.4271 64.136V34.0429C14.4271 32.9537 15.3084 32.0702 16.3997 32.0702H31.829C32.9203 32.0702 33.8017 32.9516 33.8017 34.0429Z" fill="#0048B3"/>
<path opacity="0.25" d="M29.0384 66.1065H19.3478L14.4292 48.8204V34.0429C14.4292 32.9537 15.3106 32.0702 16.4019 32.0702H19.35L29.0384 66.1065Z" fill="white"/>
<path opacity="0.25" d="M33.8017 50.839V64.136C33.8017 64.7156 33.5524 65.2339 33.1565 65.5904L23.6212 32.0724H28.4589L33.8017 50.839Z" fill="white"/>
<path d="M88.1333 34.0429V64.136C88.1333 64.7155 87.884 65.2339 87.4882 65.5903C87.1383 65.914 86.6746 66.1087 86.1629 66.1087H70.7314C69.6423 66.1087 68.7587 65.2273 68.7587 64.136V34.0429C68.7587 32.9537 69.6401 32.0702 70.7314 32.0702H86.1607C87.2498 32.0702 88.1333 32.9516 88.1333 34.0429Z" fill="#0048B3"/>
<path opacity="0.25" d="M83.3679 66.1065H73.6773L68.7587 48.8204V34.0429C68.7587 32.9537 69.6401 32.0702 70.7314 32.0702H73.6795L83.3679 66.1065Z" fill="white"/>
<path opacity="0.25" d="M88.1333 50.839V64.136C88.1333 64.7156 87.884 65.2339 87.4882 65.5904L77.9529 32.0724H82.7905L88.1333 50.839Z" fill="white"/>
<path d="M64.4919 77.8287H37.5743V34.3118C37.5743 33.0762 38.5759 32.0723 39.8138 32.0723H62.2524C63.488 32.0723 64.4919 33.074 64.4919 34.3118V77.8287Z" fill="#FFAE33"/>
<path d="M61.1283 37.5554V54.0016C61.1283 55.0382 60.2863 55.8715 59.2584 55.8715H42.8121C41.7755 55.8715 40.9423 55.0361 40.9423 54.0016V37.5554C40.9423 36.5187 41.7777 35.6855 42.8121 35.6855H59.2584C60.2885 35.6855 61.1283 36.5187 61.1283 37.5554Z" fill="#0048B3"/>
<path opacity="0.25" d="M53.9899 55.8712H43.8903L40.9423 45.4939V37.5529C40.9423 36.5163 41.7777 35.683 42.8121 35.683H48.2359L53.9899 55.8712Z" fill="white"/>
<path opacity="0.25" d="M61.1283 47.6022V54.0014C61.1283 55.038 60.2863 55.8712 59.2584 55.8712H58.4383L52.6908 35.683H57.7318L61.1283 47.6022Z" fill="white"/>
<path opacity="0.25" d="M61.1283 60.9648V72.1688C61.1283 73.2054 60.2863 74.0387 59.2584 74.0387H42.8121C41.7755 74.0387 40.9423 73.2032 40.9423 72.1688V60.9648C40.9423 60.897 40.9423 60.8379 40.9488 60.7701C40.9816 60.4596 41.091 60.1775 41.2506 59.9281C41.5874 59.4229 42.1582 59.0927 42.8121 59.0927H59.2584C59.9035 59.0927 60.4831 59.4229 60.8133 59.9281C60.9817 60.1775 61.0889 60.4596 61.1239 60.7701C61.1283 60.8379 61.1283 60.8992 61.1283 60.9648Z" fill="black"/>
<path opacity="0.15" d="M61.1217 60.7701H40.9488C40.9816 60.4596 41.091 60.1775 41.2506 59.9281C41.5874 59.4229 42.1582 59.0927 42.8121 59.0927H59.2584C59.9035 59.0927 60.4831 59.4229 60.8133 59.9281C60.9795 60.1775 61.0889 60.4618 61.1217 60.7701Z" fill="black"/>
<path opacity="0.15" d="M60.8133 59.9281H41.2506C41.5874 59.4229 42.1582 59.0927 42.8121 59.0927H59.2584C59.9035 59.0949 60.4831 59.4251 60.8133 59.9281Z" fill="black"/>
<path opacity="0.15" d="M40.9488 72.324H61.1217C61.0889 72.6346 60.9795 72.9167 60.8199 73.166C60.4831 73.6712 59.9123 74.0015 59.2584 74.0015H42.8121C42.167 74.0015 41.5874 73.6712 41.2572 73.166C41.0888 72.9167 40.9816 72.6346 40.9488 72.324Z" fill="black"/>
<path opacity="0.15" d="M41.2572 73.166H60.8177C60.4809 73.6712 59.9101 74.0015 59.2562 74.0015H42.8099C42.167 73.9993 41.5874 73.669 41.2572 73.166Z" fill="black"/>
<path d="M20.1395 71.4646C19.9142 71.4208 19.7284 71.2699 19.6365 71.06C19.2297 70.113 18.2893 69.4504 17.1914 69.4504C16.8874 69.4504 16.5966 69.5007 16.3254 69.5947C16.0323 69.6953 15.713 69.5838 15.5359 69.3279C14.6501 68.0419 13.1674 67.1978 11.4877 67.1978C9.17826 67.1978 7.24058 68.7921 6.7157 70.9419C6.65228 71.2065 6.4292 71.3968 6.1602 71.4405C4.37342 71.7248 3.00874 73.2667 2.99561 75.13C2.98249 77.2142 4.73209 78.9179 6.8163 78.9179H19.3522C21.4167 78.9179 23.1357 77.2776 23.1685 75.2153C23.1991 73.3607 21.8869 71.8101 20.1395 71.4646Z" fill="#299F52"/>
<path d="M11.0613 69.9752C11.514 69.9752 11.8792 70.3426 11.8792 70.7932C11.8792 71.2437 11.5118 71.6111 11.0613 71.6111C10.6107 71.6111 10.2433 71.2437 10.2433 70.7932C10.2433 70.3426 10.6086 69.9752 11.0613 69.9752Z" fill="#FFAE33"/>
<path d="M12.1395 75.2984C12.5922 75.2984 12.9574 75.6658 12.9574 76.1163C12.9574 76.5691 12.59 76.9343 12.1395 76.9343C11.6889 76.9343 11.3215 76.5669 11.3215 76.1163C11.3193 75.6658 11.6867 75.2984 12.1395 75.2984Z" fill="#FFAE33"/>
<path d="M6.53199 75.2983C6.07928 75.2983 5.71405 74.9309 5.71405 74.4804C5.71405 74.0277 6.08147 73.6625 6.53199 73.6625C6.98251 73.6625 7.34993 74.0299 7.34993 74.4804C7.35211 74.9309 6.9847 75.2983 6.53199 75.2983Z" fill="#FFAE33"/>
<path opacity="0.15" d="M10.9191 78.9179H6.82067C4.74084 78.9179 2.99342 77.2207 2.99998 75.1431C2.99998 75.1387 2.99998 75.1343 2.99998 75.13C2.99998 75.1212 2.99998 75.1125 2.99998 75.1037C3.00655 74.5351 3.14214 73.9971 3.37615 73.516C3.90322 72.4312 4.93548 71.6373 6.16457 71.4427C6.2105 71.4361 6.25424 71.423 6.29579 71.4077C6.50356 71.3312 6.6654 71.1628 6.71788 70.9441C6.75069 70.8106 6.79006 70.6772 6.83161 70.5482C6.88191 70.3951 6.94096 70.2464 7.00657 70.0999C7.7589 68.429 9.41664 67.2546 11.3543 67.2043C9.58504 68.1666 8.97049 71.1037 10.1646 72.8117C10.3877 73.1311 10.3658 73.5663 10.1121 73.8593C8.96393 75.1934 9.13233 77.8856 10.9191 78.9179ZM6.53199 73.6603C6.07928 73.6603 5.71405 74.0277 5.71405 74.4782C5.71405 74.931 6.08147 75.2962 6.53199 75.2962C6.98251 75.2962 7.34993 74.9288 7.34993 74.4782C7.35211 74.0277 6.9847 73.6603 6.53199 73.6603Z" fill="black"/>
<path d="M32.2734 72.8358C32.3303 72.5887 32.3522 72.3306 32.3347 72.0616C32.2494 70.7122 31.1493 69.6231 29.7978 69.5531C29.2663 69.5247 28.7677 69.6515 28.3412 69.8921C28.0831 70.0386 27.7595 69.984 27.5517 69.774C26.5785 68.7921 25.2291 68.1819 23.7376 68.1819C21.3144 68.1819 19.2695 69.7871 18.6003 71.9895C18.515 72.2716 18.2526 72.4575 17.9573 72.4575H17.953C16.1552 72.4575 14.7009 73.9271 14.7228 75.7292C14.7468 77.5051 16.2252 78.9157 18.0011 78.9157H30.7885C32.4309 78.9157 33.8 77.6013 33.8043 75.9589C33.8065 74.9528 33.3057 74.0627 32.5403 73.5247C32.315 73.3738 32.2122 73.0983 32.2734 72.8358Z" fill="#34DA80"/>
<path opacity="0.25" d="M22.8295 78.9179H17.9984C16.2226 78.9179 14.7442 77.505 14.7201 75.7314C14.7201 75.7183 14.7201 75.703 14.7201 75.6898C14.7201 73.9052 16.1657 72.4596 17.9503 72.4596H17.9547C17.9547 72.4596 17.9547 72.4596 17.9569 72.4596C18.2521 72.4596 18.5146 72.2737 18.5999 71.9916C18.6545 71.8123 18.718 71.6373 18.7901 71.4646C18.7901 71.4646 18.7901 71.4646 18.7901 71.4624C18.7901 71.4602 18.7901 71.4602 18.7923 71.4602C18.7923 71.4602 18.7923 71.458 18.7945 71.4558C19.4812 69.8374 20.9378 68.628 22.7049 68.2825C21.8344 68.9626 21.432 70.7866 21.6267 72.3087C21.338 72.4356 21.1346 72.7243 21.1346 73.0589C21.1346 73.5116 21.502 73.8768 21.9525 73.8768C21.9963 73.8768 22.04 73.8724 22.0816 73.8659C22.1122 74.043 22.0772 74.2289 21.9788 74.3864C21.2155 75.6264 20.7278 78.2661 22.8295 78.9179ZM18.2806 75.0381C17.8278 75.0381 17.4626 75.4055 17.4626 75.8561C17.4626 76.3088 17.83 76.674 18.2806 76.674C18.7333 76.674 19.0985 76.3066 19.0985 75.8561C19.0985 75.4055 18.7333 75.0381 18.2806 75.0381Z" fill="black"/>
<path d="M21.9525 72.241C22.4052 72.241 22.7705 72.6084 22.7705 73.0589C22.7705 73.5116 22.4031 73.8768 21.9525 73.8768C21.4998 73.8768 21.1346 73.5094 21.1346 73.0589C21.1324 72.6062 21.4998 72.241 21.9525 72.241Z" fill="#FB8F04"/>
<path d="M25.4605 75.5827C25.9132 75.5827 26.2784 75.9501 26.2784 76.4006C26.2784 76.8533 25.911 77.2186 25.4605 77.2186C25.01 77.2186 24.6425 76.8512 24.6425 76.4006C24.6425 75.9501 25.01 75.5827 25.4605 75.5827Z" fill="#FB8F04"/>
<path d="M27.4594 71.4208C27.9121 71.4208 28.2773 71.7883 28.2773 72.2388C28.2773 72.6915 27.9099 73.0567 27.4594 73.0567C27.0089 73.0567 26.6415 72.6893 26.6415 72.2388C26.6415 71.7883 27.0067 71.4208 27.4594 71.4208Z" fill="#FB8F04"/>
<path d="M31.186 74.9135C31.6388 74.9135 32.004 75.2809 32.004 75.7314C32.004 76.1841 31.6366 76.5493 31.186 76.5493C30.7333 76.5493 30.3681 76.1819 30.3681 75.7314C30.3659 75.2809 30.7333 74.9135 31.186 74.9135Z" fill="#FB8F04"/>
<path d="M18.2806 76.6762C17.8278 76.6762 17.4626 76.3088 17.4626 75.8583C17.4626 75.4056 17.83 75.0403 18.2806 75.0403C18.7333 75.0403 19.0985 75.4078 19.0985 75.8583C19.0985 76.3088 18.7333 76.6762 18.2806 76.6762Z" fill="#FB8F04"/>
<path d="M82.4209 71.4646C82.6462 71.4208 82.8321 71.2699 82.9239 71.06C83.3307 70.113 84.2711 69.4504 85.369 69.4504C85.673 69.4504 85.9638 69.5007 86.235 69.5947C86.5281 69.6953 86.8474 69.5838 87.0245 69.3279C87.9103 68.0419 89.393 67.1978 91.0727 67.1978C93.3821 67.1978 95.3198 68.7921 95.8447 70.9419C95.9081 71.2065 96.1312 71.3968 96.4002 71.4405C98.187 71.7248 99.5517 73.2667 99.5648 75.13C99.5779 77.2142 97.8283 78.9179 95.7441 78.9179H83.2082C81.1437 78.9179 79.4247 77.2776 79.3919 75.2153C79.3613 73.3607 80.6735 71.8101 82.4209 71.4646Z" fill="#299F52"/>
<path d="M91.5013 69.9752C91.0486 69.9752 90.6834 70.3426 90.6834 70.7932C90.6834 71.2437 91.0508 71.6111 91.5013 71.6111C91.954 71.6111 92.3193 71.2437 92.3193 70.7932C92.3193 70.3426 91.9518 69.9752 91.5013 69.9752Z" fill="#FFAE33"/>
<path d="M90.4231 75.2984C89.9704 75.2984 89.6052 75.6658 89.6052 76.1163C89.6052 76.5691 89.9726 76.9343 90.4231 76.9343C90.8758 76.9343 91.2411 76.5669 91.2411 76.1163C91.2411 75.6658 90.8736 75.2984 90.4231 75.2984Z" fill="#FFAE33"/>
<path d="M96.0284 75.2983C96.4811 75.2983 96.8463 74.9309 96.8463 74.4804C96.8463 74.0277 96.4789 73.6625 96.0284 73.6625C95.5757 73.6625 95.2105 74.0299 95.2105 74.4804C95.2105 74.9309 95.5757 75.2983 96.0284 75.2983Z" fill="#FFAE33"/>
<path opacity="0.15" d="M91.6435 78.9179C93.4303 77.8856 93.5986 75.1934 92.4461 73.8593C92.1924 73.5641 92.1705 73.1289 92.3936 72.8117C93.5877 71.1037 92.9732 68.1644 91.2039 67.2043C93.1416 67.2568 94.7993 68.4312 95.5516 70.0999C95.6173 70.2464 95.6763 70.3951 95.7266 70.5482C95.7703 70.6772 95.8075 70.8106 95.8403 70.9441C95.8928 71.1628 96.0568 71.3333 96.2624 71.4077C96.304 71.423 96.3477 71.4339 96.3936 71.4427C97.6249 71.6395 98.6572 72.4334 99.1821 73.516C99.4161 73.9971 99.5495 74.5351 99.5582 75.1037C99.5582 75.1125 99.5582 75.1212 99.5582 75.13C99.5582 75.1343 99.5582 75.1387 99.5582 75.1431C99.5648 77.2207 97.8174 78.9179 95.7375 78.9179H91.6435ZM96.0284 73.6603C95.5757 73.6603 95.2105 74.0277 95.2105 74.4782C95.2105 74.931 95.5779 75.2962 96.0284 75.2962C96.4811 75.2962 96.8463 74.9288 96.8463 74.4782C96.8463 74.0277 96.4811 73.6603 96.0284 73.6603Z" fill="black"/>
<path d="M70.2896 72.8358C70.2327 72.5887 70.2109 72.3306 70.2284 72.0616C70.3137 70.7122 71.4137 69.6231 72.7653 69.5531C73.2967 69.5247 73.7954 69.6515 74.2218 69.8921C74.4799 70.0386 74.8036 69.984 75.0113 69.774C75.9845 68.7921 77.3339 68.1819 78.8255 68.1819C81.2487 68.1819 83.2935 69.7871 83.9627 71.9895C84.048 72.2716 84.3105 72.4575 84.6057 72.4575H84.6101C86.4078 72.4575 87.8621 73.9271 87.8403 75.7292C87.8162 77.5051 86.3378 78.9157 84.562 78.9157H71.7746C70.1321 78.9157 68.7631 77.6013 68.7587 75.9589C68.7565 74.9528 69.2573 74.0627 70.0228 73.5247C70.2459 73.3738 70.3486 73.0983 70.2896 72.8358Z" fill="#34DA80"/>
<path opacity="0.25" d="M79.7309 78.9179C81.8326 78.2661 81.3471 75.6242 80.5816 74.3886C80.4832 74.2311 80.4482 74.0452 80.4788 73.8681C80.5204 73.8746 80.5641 73.879 80.6079 73.879C81.0606 73.879 81.4258 73.5116 81.4258 73.0611C81.4258 72.7243 81.2246 72.4378 80.9337 72.3109C81.1262 70.791 80.7238 68.967 79.8555 68.2847C81.6226 68.6302 83.0792 69.8396 83.7659 71.458C83.7659 71.4602 83.7659 71.4602 83.7681 71.4624C83.7681 71.4646 83.7681 71.4646 83.7703 71.4646C83.7703 71.4646 83.7703 71.4646 83.7703 71.4668C83.8424 71.6373 83.9059 71.8145 83.9605 71.9938C84.0458 72.2759 84.3083 72.4618 84.6035 72.4618C84.6035 72.4618 84.6035 72.4618 84.6057 72.4618H84.6101C86.3947 72.4618 87.8403 73.9074 87.8403 75.692C87.8403 75.7052 87.8403 75.7205 87.8403 75.7336C87.8162 77.5094 86.3378 78.92 84.562 78.92H79.7309M84.2798 75.0381C83.8271 75.0381 83.4619 75.4055 83.4619 75.8561C83.4619 76.3088 83.8293 76.674 84.2798 76.674C84.7325 76.674 85.0978 76.3066 85.0978 75.8561C85.1 75.4055 84.7325 75.0381 84.2798 75.0381Z" fill="black"/>
<path d="M80.6101 72.241C80.1573 72.241 79.7921 72.6084 79.7921 73.0589C79.7921 73.5116 80.1595 73.8768 80.6101 73.8768C81.0606 73.8768 81.428 73.5094 81.428 73.0589C81.428 72.6062 81.0606 72.241 80.6101 72.241Z" fill="#FB8F04"/>
<path d="M77.0999 75.5827C76.6472 75.5827 76.282 75.9501 76.282 76.4006C76.282 76.8533 76.6494 77.2186 77.0999 77.2186C77.5526 77.2186 77.9179 76.8512 77.9179 76.4006C77.9179 75.9501 77.5526 75.5827 77.0999 75.5827Z" fill="#FB8F04"/>
<path d="M75.101 71.4208C74.6483 71.4208 74.2831 71.7883 74.2831 72.2388C74.2831 72.6915 74.6505 73.0567 75.101 73.0567C75.5537 73.0567 75.9189 72.6893 75.9189 72.2388C75.9189 71.7883 75.5537 71.4208 75.101 71.4208Z" fill="#FB8F04"/>
<path d="M71.3765 74.9135C70.9238 74.9135 70.5586 75.2809 70.5586 75.7314C70.5586 76.1841 70.926 76.5493 71.3765 76.5493C71.8271 76.5493 72.1945 76.1819 72.1945 75.7314C72.1945 75.2809 71.8271 74.9135 71.3765 74.9135Z" fill="#FB8F04"/>
<path d="M84.2798 76.6762C84.7325 76.6762 85.0978 76.3088 85.0978 75.8583C85.0978 75.4056 84.7304 75.0403 84.2798 75.0403C83.8271 75.0403 83.4619 75.4078 83.4619 75.8583C83.4619 76.3088 83.8293 76.6762 84.2798 76.6762Z" fill="#FB8F04"/>
<rect x="54" y="79" width="13" height="4" rx="2" fill="#3E895C" fill-opacity="0.4"/>
<rect x="36" y="79" width="16" height="4" rx="2" fill="#3E895C" fill-opacity="0.4"/>
<rect x="34" y="84" width="13" height="3.7" rx="1.85" fill="#3E895C" fill-opacity="0.6"/>
<rect x="49" y="84" width="12" height="3.7" rx="1.85" fill="#3E895C" fill-opacity="0.6"/>
<rect x="35" y="89" width="11" height="3.2" rx="1.6" fill="#3E895C" fill-opacity="0.75"/>
<rect x="48" y="89" width="7" height="3.2" rx="1.6" fill="#3E895C" fill-opacity="0.75"/>
<rect x="28" y="94" width="7" height="2.6" rx="1.3" fill="#3E895C" fill-opacity="0.8"/>
<rect x="36" y="94" width="7" height="2.6" rx="1.3" fill="#3E895C" fill-opacity="0.8"/>
<rect x="45" y="94" width="7" height="2.6" rx="1.3" fill="#3E895C" fill-opacity="0.8"/>
<path d="M3.75184 70.6907V66.2008C3.75184 66.0517 3.87272 65.9308 4.02184 65.9308C4.17095 65.9308 4.29184 66.0517 4.29184 66.2008V70.6907C4.29184 70.8398 4.17095 70.9607 4.02184 70.9607C3.87272 70.9607 3.75184 70.8398 3.75184 70.6907Z" fill="#239953"/>
<path d="M4.16913 62.2507C4.24267 61.4199 4.96914 60.7979 5.79172 60.8614C6.61431 60.925 7.22152 61.65 7.14797 62.4807C7.07442 63.3115 6.34796 63.9335 5.52538 63.87C4.70279 63.8065 4.09558 63.0815 4.16913 62.2507Z" fill="#E25DB6"/>
<path d="M2.02208 61.6764C2.09563 60.8456 2.8221 60.2236 3.64468 60.2871C4.46727 60.3507 5.07448 61.0757 5.00093 61.9065C4.92738 62.7373 4.20092 63.3593 3.37834 63.2957C2.55575 63.2322 1.94853 62.5072 2.02208 61.6764Z" fill="#E25DB6"/>
<path d="M1.11511 63.1192C1.48598 62.3723 2.38684 62.0605 3.12722 62.4227C3.8676 62.7849 4.16715 63.6839 3.79627 64.4308C3.4254 65.1776 2.52454 65.4894 1.78416 65.1272C1.04377 64.765 0.744231 63.866 1.11511 63.1192Z" fill="#E25DB6"/>
<path d="M4.79425 63.5948C5.39957 63.0208 6.35045 63.0391 6.91809 63.6357C7.48573 64.2322 7.45519 65.1812 6.84987 65.7552C6.24455 66.3292 5.29368 66.3109 4.72603 65.7143C4.15839 65.1178 4.18893 64.1688 4.79425 63.5948Z" fill="#E25DB6"/>
<path d="M2.30699 64.9207C2.56416 64.1276 3.41002 63.6858 4.19626 63.934C4.9825 64.1822 5.41139 65.0264 5.15422 65.8195C4.89704 66.6126 4.05119 67.0544 3.26495 66.8062C2.47871 66.558 2.04981 65.7138 2.30699 64.9207Z" fill="#E25DB6"/>
<path d="M6.25434 62.5557L5.15392 63.2764" stroke="#E593CD" stroke-width="0.0300348" stroke-miterlimit="10" stroke-linecap="round"/>
<path d="M5.65221 61.8447L4.75693 62.8077" stroke="#E593CD" stroke-width="0.0300348" stroke-miterlimit="10" stroke-linecap="round"/>
<path d="M3.89477 61.2949L4.19837 62.5695" stroke="#E593CD" stroke-width="0.0300348" stroke-miterlimit="10" stroke-linecap="round"/>
<path d="M3.01931 61.6248L3.6266 62.7859" stroke="#E593CD" stroke-width="0.0300348" stroke-miterlimit="10" stroke-linecap="round"/>
<path d="M2.10017 63.2657L3.41113 63.3564" stroke="#E593CD" stroke-width="0.0300348" stroke-miterlimit="10" stroke-linecap="round"/>
<path d="M2.14409 64.1973L3.43976 63.9683" stroke="#E593CD" stroke-width="0.0300348" stroke-miterlimit="10" stroke-linecap="round"/>
<path d="M6.37565 64.3804L5.16834 63.8689" stroke="#E593CD" stroke-width="0.0300348" stroke-miterlimit="10" stroke-linecap="round"/>
<path d="M5.90409 65.1871L4.85882 64.3958" stroke="#E593CD" stroke-width="0.0300348" stroke-miterlimit="10" stroke-linecap="round"/>
<path d="M4.17421 65.8055L4.30307 64.4992" stroke="#E593CD" stroke-width="0.0300348" stroke-miterlimit="10" stroke-linecap="round"/>
<path d="M3.2617 65.6074L3.70366 64.369" stroke="#E593CD" stroke-width="0.0300348" stroke-miterlimit="10" stroke-linecap="round"/>
<path d="M2.87419 64.1719C2.56987 63.4955 2.87264 62.7009 3.55044 62.3972C4.22825 62.0935 5.02441 62.3956 5.32873 63.0721C5.63304 63.7485 5.33027 64.5431 4.65247 64.8468C3.97467 65.1505 3.1785 64.8483 2.87419 64.1719Z" fill="#FFD282"/>
<path d="M4.119 68.7C4.10656 68.752 7.61275 68.7893 6.94791 67.439C6.41875 66.3642 4.10189 68.2282 4.10189 68.2282" fill="#239953"/>
<path d="M4.14462 69.6814C4.15706 69.7334 0.650864 69.7707 1.31571 68.4204C1.84487 67.3456 4.16173 69.2096 4.16173 69.2096" fill="#239953"/>
</svg>
