<svg width="232" height="320" viewBox="0 0 232 320" fill="none" xmlns="http://www.w3.org/2000/svg">
    <g clip-path="url(#clip0_453_5193)">
        <path
            d="M41.3 82.7771C41.0288 77.2798 36.353 61.4194 40.0868 45.9654L90.7389 42.073C97.5872 55.8187 95.1448 72.4429 95.9651 77.8855C97.95 91.052 105.726 94.2766 105.96 106.705C106.226 120.8 87.5838 124.307 73.2551 125.737C58.9265 127.168 41.3418 127.275 38.8164 113.407C36.5892 101.178 41.9567 96.0758 41.3 82.7771Z"
            fill="#6B1511" />
        <path opacity="0.65"
            d="M48.2092 122.934L45.1476 58.5145C45.1476 58.5145 76.173 51.1571 77.8394 59.6508C83.4345 88.1723 85.61 119.056 85.9144 123.677C81.7398 124.731 77.3106 125.333 73.2571 125.738C64.6046 126.601 54.6707 126.848 48.2092 122.934Z"
            fill="#1C0108" />
        <path opacity="0.11"
            d="M39.1759 320C47.6453 320 54.5112 319.133 54.5112 318.064C54.5112 316.995 47.6453 316.129 39.1759 316.129C30.7064 316.129 23.8406 316.995 23.8406 318.064C23.8406 319.133 30.7064 320 39.1759 320Z"
            fill="black" />
        <path d="M44.3614 295.084L43.1777 304.708L52.6535 307.208L55.3007 297.966L44.3614 295.084Z"
            fill="#FFC19F" />
        <path d="M43.6077 299.166L42.2579 308.316L51.8456 310.845L54.6269 302.118L43.6077 299.166Z"
            fill="#C4C4C4" />
        <path
            d="M26.6741 309.807C25.5635 310.292 24.3718 311.959 24.2581 313.073C23.9826 315.773 34.5652 317.194 39.6653 316.631C41.804 316.395 45.7179 315.055 48.0152 314.861C51.1328 314.598 52.683 313.933 53.9024 312.685C54.2707 311.966 54.6642 308.413 54.5167 304.67C54.4933 304.073 53.8366 303.679 53.2377 303.758C52.8447 304.996 51.1998 305.234 50.3033 305.023C48.0367 304.491 47.6254 302.65 47.043 301.901C46.54 301.255 42.1422 299.693 40.8945 301.014C40.1333 301.82 40.1154 301.841 39.0928 302.764C36.3294 305.257 32.188 307.401 26.6741 309.807Z"
            fill="#5684B2" />
        <path
            d="M24.1469 315.626C24.062 315.332 23.9132 314.518 24.0165 313.413C24.0473 313.082 24.1893 312.894 24.3233 312.699C23.516 315.359 33.7702 316.81 39.6236 316.149C41.761 315.907 44.5699 314.591 46.866 314.385C49.8705 314.116 52.7175 313.699 53.9375 312.45C54.098 312.455 54.0888 312.701 54.0826 312.829C54.0642 313.239 53.6436 315.888 53.3165 316.144C51.3038 317.718 47.5553 317.282 45.7383 317.584C43.6433 317.932 41.6829 318.517 39.4742 318.761C33.8809 319.378 24.7027 317.56 24.1469 315.626Z"
            fill="#385A8C" />
        <path
            d="M44.5189 308.62C44.4383 308.61 44.3614 308.573 44.3006 308.509C41.9411 306.028 37.6853 304.157 35.955 305.561C35.7963 305.691 35.5682 305.662 35.4428 305.507C35.3161 305.351 35.3401 305.121 35.4963 304.995C37.5956 303.307 42.1514 305.194 44.8288 308.008C44.9665 308.153 44.9616 308.383 44.8152 308.522C44.7335 308.602 44.6234 308.634 44.5189 308.62Z"
            fill="#E0E0E0" />
        <path
            d="M42.2111 309.218C42.1305 309.207 42.0537 309.17 41.9928 309.107C39.685 306.681 35.9956 305.071 34.1767 306.54C34.018 306.669 33.7899 306.641 33.6644 306.486C33.5378 306.33 33.5617 306.101 33.7179 305.974C35.9205 304.193 39.9999 305.953 42.521 308.606C42.6588 308.751 42.6538 308.981 42.5075 309.12C42.4257 309.199 42.3156 309.231 42.2111 309.218Z"
            fill="#E0E0E0" />
        <path
            d="M40.0134 309.989C39.9329 309.978 39.856 309.942 39.7951 309.878C37.4154 307.377 34.3759 306.2 32.565 307.096C32.3891 307.182 32.1677 307.111 32.0773 306.929C31.9888 306.749 32.0632 306.531 32.244 306.442C34.3611 305.4 37.6829 306.604 40.3233 309.378C40.4611 309.523 40.4561 309.753 40.3098 309.892C40.228 309.971 40.1179 310.002 40.0134 309.989Z"
            fill="#E0E0E0" />
        <path
            d="M70.3876 150.594L48.7212 153.132C45.1596 170.687 45.1633 173.8 44.8737 183.665C44.7317 188.512 45.7155 196.873 46.767 205.892C48.0589 216.968 49.4142 224.578 50.8267 234.683C54.1687 236.714 63.7318 239.598 67.4656 238.798C67.8935 225.709 68.6296 202.304 68.6782 194.81C68.6874 193.389 69.453 191.628 70.9699 194.006L70.3876 150.594Z"
            fill="#4B3F4A" />
        <path opacity="0.11"
            d="M77.9671 311.428C78.0771 312.565 84.3234 312.89 91.9182 312.153C99.513 311.416 105.58 309.897 105.47 308.759C105.36 307.622 99.1139 307.297 91.5191 308.034C83.9237 308.771 77.8564 310.291 77.9671 311.428Z"
            fill="black" />
        <path d="M82.7272 286.962L88.2614 294.926L96.9901 290.472L92.8025 281.818L82.7272 286.962Z"
            fill="#FFC19F" />
        <path d="M84.8873 290.508L89.9806 298.228L98.8126 293.721L95.0684 285.363L84.8873 290.508Z"
            fill="#C4C4C4" />
        <path
            d="M79.361 306.679C78.7449 307.594 78.4165 308.992 79.1058 309.608C80.5619 310.908 90.6828 309.723 93.3484 306.81C94.6987 305.335 97.1 299.981 98.2068 298.077C99.6703 295.559 101.442 293.568 101.435 292.052C101.236 291.776 98.9785 289.469 96.8257 287.279C96.4789 286.927 96.2619 286.789 95.9316 287.243C96.0897 288.188 94.3901 290.275 93.1178 290.749C92.2311 291.079 90.9127 290.979 89.8262 290.486C89.199 290.2 85.5181 292.551 85.4738 293.785C86.0002 296.634 85.911 298.519 84.4291 302.795C83.8591 304.439 80.5785 304.868 79.361 306.679Z"
            fill="#5684B2" />
        <path
            d="M81.785 311.74C80.2053 311.74 79.0062 311.117 78.858 310.774C78.7234 310.463 78.6158 309.279 78.6244 308.751C78.625 308.695 78.6367 308.556 78.7 308.507C78.756 308.832 78.9743 309.166 79.1089 309.297C80.7354 310.867 90.4418 308.978 92.8719 306.672C93.9683 305.632 95.9999 302.172 97.1013 300.103C97.5858 299.192 98.0187 298.38 98.3409 297.824C98.8064 297.026 99.2996 296.277 99.7626 295.58C100.617 294.288 101.384 292.72 101.382 292.01C101.382 292.01 101.491 291.92 101.508 291.939C101.879 292.334 102.947 293.465 102.947 293.465C102.845 294.385 102.697 295.076 101.606 296.723C101.166 297.387 100.699 298.177 100.258 298.937C99.944 299.476 99.5259 300.264 99.0567 301.144C97.7715 303.56 95.6759 307.08 94.6182 308.233C92.554 310.49 85.8557 311.74 81.785 311.74Z"
            fill="#385A8C" />
        <path
            d="M85.2396 299.511C85.2058 299.511 85.1714 299.506 85.1376 299.495C84.9445 299.438 84.8332 299.236 84.8897 299.043C85.5126 296.949 88.4163 296.121 92.8836 296.782C93.0828 296.81 93.2193 296.996 93.1911 297.195C93.1597 297.394 92.9863 297.526 92.776 297.502C90.8562 297.219 86.3065 296.823 85.5901 299.251C85.5409 299.409 85.3958 299.511 85.2396 299.511Z"
            fill="#E0E0E0" />
        <path
            d="M84.6394 301.731C84.6056 301.731 84.5712 301.727 84.5367 301.716C84.3437 301.659 84.2324 301.457 84.2895 301.264C84.9149 299.157 87.3776 298.453 91.8308 299.111C92.0301 299.139 92.1666 299.325 92.1383 299.524C92.1069 299.723 91.939 299.864 91.7232 299.831C87.6906 299.242 85.4898 299.773 84.9893 301.472C84.9407 301.629 84.7956 301.731 84.6394 301.731Z"
            fill="#E0E0E0" />
        <path
            d="M83.9029 303.543C83.8291 303.543 83.7522 303.52 83.6895 303.474C83.5247 303.354 83.4902 303.127 83.6102 302.964C84.773 301.368 87.0082 300.877 90.6054 301.406C90.8046 301.435 90.9411 301.62 90.9129 301.819C90.879 302.017 90.7278 302.153 90.4978 302.126C87.2019 301.64 85.1856 302.041 84.1962 303.394C84.1248 303.492 84.0135 303.543 83.9029 303.543Z"
            fill="#E0E0E0" />
        <path
            d="M50.6625 234.701C59.254 250.84 77.3515 279.993 80.0344 284.269C82.5918 283.95 91.0081 279.354 91.7601 278.308C89.2796 272.762 83.7214 259.533 76.2244 245.181C72.9887 238.987 72.0147 237.437 69.8397 233.123C61.7948 237.534 52.474 235.389 50.6625 234.701Z"
            fill="#3F283E" />
        <path opacity="0.3"
            d="M61.6627 187.307C57.1215 207.093 53.2617 232.608 52.8313 235.573L63.2178 236.164C67.888 225.957 77.5151 212.255 81.1246 197.643C78.2401 196.198 66.5986 193.978 66.3342 187.761C66.1601 183.695 62.47 183.79 61.6627 187.307Z"
            fill="black" />
        <path
            d="M90.6576 165.822L64.5644 168.034L59.3253 193.716C60.514 191.622 63.7367 192.419 62.9508 196.763C61.0206 207.433 45.5132 287.351 43.8855 294.947C45.9916 296.432 55.0652 298.387 56.3252 298.119C58.2234 292.347 64.6123 271.722 68.7261 256.06C69.9239 251.5 70.9674 247.599 71.9224 244.088C75.0763 236.704 81.3638 222.122 83.781 216.29C86.4706 209.802 92.7347 198.165 94.2898 188.656C95.8437 179.161 93.3373 172.199 90.6576 165.822Z"
            fill="#4B3F4A" />
        <path
            d="M35.8259 123.723C35.6654 125.494 37.892 127.561 42.2873 128.492C46.6163 129.408 50.0734 129.313 50.3968 128.111C50.8586 126.394 47.8498 121.397 43.3751 120.992C38.9004 120.586 35.9863 121.952 35.8259 123.723Z"
            fill="#A82743" />
        <path
            d="M57.1173 107.463C57.1529 107.269 52.241 105.407 48.1604 104.06C45.6221 103.223 42.8808 104.478 41.8711 106.953C39.3678 113.089 35.2565 124.307 32.1697 132.123C31.1335 134.747 32.4328 137.702 35.0665 138.714C35.6021 138.919 36.1445 139.122 36.672 139.314C39.0192 140.17 41.6289 139.188 42.8329 136.999C47.7472 128.063 56.4913 110.887 57.1173 107.463Z"
            fill="#FFC19F" />
        <path
            d="M36.5054 119.08C39.8124 109.802 44.6204 98.711 47.0591 97.3182C49.6885 95.816 57.8619 94.4072 60.3338 94.01C60.7409 95.8363 60.0971 106.333 58.1577 110.386C56.9592 112.891 52.0534 120.82 49.3226 125.983C47.254 120.436 40.6474 116.578 36.5054 119.08Z"
            fill="#FF9B06" />
        <path
            d="M85.5802 108.74C85.4862 108.462 95.6832 105.905 98.9343 105.241C100.666 107.914 109.385 130.756 112.953 139.26C111.863 140.124 103.399 143.127 102.319 143.182C98.6723 136.149 86.8174 112.409 85.5802 108.74Z"
            fill="#FFC19F" />
        <path
            d="M95.3235 130.696C92.086 126.782 87.6685 120.681 86.502 118.734C86.3968 117.316 83.5301 97.8773 87.7466 97.2568C93.3822 98.962 98.7904 101.538 99.0536 102.075C100.127 104.266 105.692 119.323 107.718 124.661C105.345 126.732 97.6651 129.923 95.3235 130.696Z"
            fill="#FF9B06" />
        <path opacity="0.15"
            d="M43.8209 119.893C43.8209 122.867 46.3169 127.547 47.9291 127.547C49.5414 127.547 48.7507 119.298 48.7507 116.325C48.7507 113.351 50.2984 108.086 48.6861 108.086C47.0738 108.087 43.8209 116.919 43.8209 119.893Z"
            fill="#2B000B" />
        <path opacity="0.25"
            d="M45.0121 178.791C45.4966 171.396 48.0688 164.1 54.3458 152.959L69.1664 154.323L83.9877 152.959C89.9216 163.49 92.9088 169.982 94.3791 177.291C89.3423 179.677 75.6845 183.538 64.8627 183.248C56.3972 183.021 49.2488 181.257 45.0121 178.791Z"
            fill="black" />
        <path
            d="M94.4036 174.644C91.6144 165.951 87.5873 158.426 86.1681 152.696C85.6135 150.455 89.191 134.706 89.7198 132.901C90.8986 128.873 92.1094 126.407 93.3165 121.047C94.7092 114.862 93.1437 103.825 91.912 98.6589C88.3953 97.4051 76.5048 93.9714 71.1889 92.7022L69.3798 92.6592C64.0098 93.675 54.0949 96.4876 50.7836 97.5779C49.3078 102.68 44.9186 114.175 44.4845 119.791C44.0608 125.277 46.8777 128.875 48.1309 131.933C48.8448 133.674 47.9071 148.074 47.3881 151.643C46.5936 157.104 44.9715 168.06 44.1278 177.305C49.1879 180.332 52.5589 181.69 64.2176 182.555C73.2218 183.223 89.5796 178.185 94.4036 174.644Z"
            fill="#FF9B06" />
        <path
            d="M53.357 96.5399C54.8992 95.9908 65.7333 92.6205 69.3872 91.9545C69.5446 91.9262 69.6651 91.9287 69.8213 91.965C73.5212 92.8197 84.1672 96.1796 85.512 96.5399C88.7058 101.088 77.6005 108.75 65.2291 108.022C57.5089 107.568 50.6957 101.186 53.357 96.5399Z"
            fill="#FFC19F" />
        <path
            d="M67.6039 100.775C71.7189 100.749 75.0425 98.7916 75.0271 96.4027L74.9515 84.6025L60.0503 84.6972L60.1253 96.4974C60.1407 98.8863 63.4889 100.801 67.6039 100.775Z"
            fill="#FFC19F" />
        <path opacity="0.23"
            d="M76.0238 80.7995C77.6294 84.5756 74.5241 89.5097 69.0895 91.8199C63.6543 94.1301 57.9473 92.9421 56.3417 89.1659C54.7368 85.3898 57.8415 80.4557 63.2767 78.1455C68.7113 75.8353 74.4189 77.0239 76.0238 80.7995Z"
            fill="#822020" />
        <path opacity="0.15"
            d="M48.1666 132.056C47.7042 130.762 46.914 129.681 46.392 128.116C47.3937 130.189 48.915 131.63 51.2621 132.611C55.7804 134.501 71.4416 134.882 74.9239 134.839C77.6473 134.806 81.1794 135.118 83.4355 132.522C82.7117 134.339 82.5814 135.837 80.115 136.416C76.2423 137.325 66.1356 136.725 59.6329 136.643C53.6836 136.569 51.7897 137.56 48.2017 141.361C48.2133 137.097 48.4808 132.936 48.1666 132.056Z"
            fill="#2B000B" />
        <path
            d="M56.2908 299.734C53.7795 299.873 45.6903 297.729 43.5511 296.359C43.1421 296.098 44.1955 290.877 44.5589 291.024C46.1995 291.685 55.1286 294.323 57.7574 294.598C58.285 294.654 56.6893 299.712 56.2908 299.734Z"
            fill="#876184" />
        <path
            d="M93.8686 282.321C92.0712 284.081 84.5736 287.798 82.0623 288.178C81.5827 288.251 78.9342 283.63 79.3038 283.501C80.9733 282.917 89.4271 279.016 91.5867 277.491C92.0202 277.186 94.1533 282.041 93.8686 282.321Z"
            fill="#603E5C" />
        <path
            d="M106.301 135.75C103.105 135.819 101.998 138.948 101.499 140.783C103.632 152.302 110.426 164.375 114.606 178.336C115.375 178.497 121.83 177.041 122.178 176.468C118.725 162.709 117.471 151.811 113.406 139.918C112.564 137.455 107.993 135.714 106.301 135.75Z"
            fill="#FFC19F" />
        <path
            d="M112.995 195.814C113.893 197.253 115.817 194.679 115.33 191.208C115.164 190.023 112.885 183.786 112.039 184.384C111.642 186.269 112.097 194.375 112.995 195.814Z"
            fill="#F29D77" />
        <path
            d="M123.119 192.552C123.689 193.174 125.007 192.022 124.909 190.98C124.82 190.036 124.405 188.367 124.909 188.758C125.818 189.463 126.34 188.373 126.26 186.862C126.098 183.781 123.114 177.229 121.947 175.12C120.719 172.905 116.475 173.937 114.357 175.315C113.416 176.516 112.589 179.586 112.038 184.484C113.579 188.298 114.54 192.95 115.634 195.24C118.482 200.477 119.688 203.078 120.438 202.497C122.406 200.974 119.932 196.599 118.725 193.939C118.118 192.177 117.671 190.117 117.492 187.919C118.452 189.336 120.624 196.129 121.628 198.129C122.743 199.01 123.074 194.028 122.443 192.179C121.837 190.401 121.106 188.294 120.746 186.659C121.546 187.87 122.584 191.208 123.119 192.552Z"
            fill="#FFC19F" />
        <path
            d="M114.811 183.556C114.811 183.556 114.891 183.553 114.96 183.503C115.03 183.453 115.064 183.377 115.064 183.377C115.064 183.377 114.985 183.38 114.915 183.43C114.845 183.48 114.811 183.556 114.811 183.556Z"
            fill="#FFC19F" />
        <path
            d="M40.9628 139.004C41.5347 138.651 42.2935 137.79 43.0117 136.782C44.4469 134.768 44.3061 132.026 42.7498 130.104C35.4815 121.133 23.9384 112.768 16.0595 100.592C15.2773 100.734 10.0075 105.19 9.93005 105.873C17.1405 118.423 23.4655 128.2 32.6664 137.423C34.596 139.359 38.8807 140.291 40.9628 139.004Z"
            fill="#FFC19F" />
        <path
            d="M19.0704 98.876C19.0956 103.394 19.5734 106.02 18.2354 107.885C16.9379 109.694 14.3214 110.811 11.3736 109.624C7.99954 108.265 4.09239 104.55 1.90822 99.1208C-0.113612 91.2536 5.63459 88.4096 11.4357 92.2301C11.6687 92.1341 14.9216 94.1707 15.0446 94.3946C16.2873 96.6581 17.931 98.1683 19.0704 98.876Z"
            fill="#FFC19F" />
        <path opacity="0.21"
            d="M13.4015 105.336C12.0254 105.796 8.46379 104.04 5.39661 103.552C4.83888 102.776 2.82874 99.3612 2.48193 98.5453C0.71467 89.9303 5.59707 87.5082 10.6603 92.6433C10.9597 92.5013 12.0506 95.1147 12.2098 95.4086C13.2558 97.3413 15.4744 99.9921 16.4706 99.7861C14.3042 100.794 12.6335 102.519 13.4015 105.336Z"
            fill="#7F1405" />
        <path opacity="0.21"
            d="M8.84261 96.6377C10.0847 95.7953 13.0787 93.9222 14.3245 93.6197C14.8817 93.4838 15.2592 93.3522 15.3736 93.3694C15.6786 94.0778 15.943 94.8071 16.066 95.2541C16.5936 96.6549 17.9857 100.686 16.5198 100.595C15.8563 100.554 15.135 100.523 13.8062 99.1238C12.5554 99.5536 11.3152 99.7282 10.6043 99.6772C8.83215 99.5505 7.93623 97.252 8.84261 96.6377Z"
            fill="#700000" />
        <path
            d="M17.8739 101.863C19.2064 102.063 19.4788 99.8857 18.9948 98.6012C18.5109 97.3166 16.2228 94.1732 14.8903 93.974C13.5578 93.7747 12.28 95.8624 12.7639 97.1469C13.9679 98.009 16.0672 101.254 17.8739 101.863Z"
            fill="#FFC19F" />
        <path
            d="M14.5466 93.9789C13.4693 94.0219 10.6228 95.8211 9.42622 96.6328C8.59609 97.1961 9.07388 98.7334 10.854 99.0082C12.4676 99.2573 15.3681 97.7421 15.5827 97.5792C16.3421 97.0012 15.5126 93.9407 14.5466 93.9789Z"
            fill="#FFC19F" />
        <path
            d="M1.15283 84.6969L2.20864 83.3527C2.22155 83.3305 2.23262 83.3225 2.24799 83.3022L2.30518 83.2291L2.36175 83.2192C2.40848 83.186 2.44722 83.1251 2.4958 83.1214L13.6792 81.0824C13.7561 81.0775 13.8139 81.1218 13.8354 81.2035L20.2003 105.53C20.236 105.667 20.1524 105.822 20.0411 105.942L20.0466 105.964L18.8937 107.432L18.5647 106.175L8.32947 106.834C8.25199 106.839 8.19419 106.794 8.17328 106.713L2.34084 84.4896L1.15283 84.6969Z"
            fill="#515151" />
        <path
            d="M18.6883 107.577L7.18451 108.317C7.10703 108.322 7.04923 108.277 7.02832 108.196L0.984354 85.1685C0.927782 84.952 1.14423 84.6194 1.35084 84.6064L12.5336 82.5668C12.6111 82.5619 12.6689 82.6061 12.6898 82.6879L19.0548 107.015C19.112 107.231 18.8949 107.564 18.6883 107.577Z"
            fill="#706F6F" />
        <path
            d="M1.59557 95.1065C2.91825 95.0186 8.81833 95.0536 10.6877 95.3138C12.1149 95.5118 11.3179 97.4635 10.1797 97.7808C8.67075 98.202 2.5493 98.1085 2.16375 98.0809C0.63631 97.972 0.524396 95.1779 1.59557 95.1065Z"
            fill="#FFC19F" />
        <path
            d="M1.33964 94.3903C2.48707 94.8078 8.02251 95.0489 9.7996 94.9757C11.1567 94.9197 10.5707 92.8985 9.52843 92.4699C8.14672 91.9017 2.78776 91.4073 2.42435 91.4258C1.08015 91.4916 0.408666 94.0508 1.33964 94.3903Z"
            fill="#FFC19F" />
        <path
            d="M2.29048 98.6472C3.70293 98.3385 8.48572 98.0587 10.4891 98.0691C11.8788 98.0765 11.2442 100.125 10.3114 100.409C8.33138 101.011 3.38687 101.514 3.01669 101.478C1.66696 101.346 1.34905 98.8519 2.29048 98.6472Z"
            fill="#FFC19F" />
        <path
            d="M3.45819 101.823C4.47525 101.365 8.11492 101.131 9.67618 101.064C10.7597 101.018 10.6699 102.609 9.6854 103.23C8.61423 103.905 6.31692 104.471 4.65973 103.947C3.55412 103.597 2.54689 102.232 3.45819 101.823Z"
            fill="#FFC19F" />
        <path
            d="M94.1613 49.5987C92.3314 38.711 85.8348 31.8296 75.4662 33.1086C72.9536 28.988 65.1135 27.4766 59.6113 29.1904C42.6311 34.4786 36.6554 52.0755 37.0268 58.5143C38.042 76.1069 49.8477 86.2997 66.3317 85.0077C82.7523 83.0677 93.8853 56.7433 94.1613 49.5987Z"
            fill="#6B1511" />
        <path
            d="M42.0887 65.7838C44.1591 65.3128 46.0518 67.3764 47.3591 70.9484C48.8276 74.9601 47.8437 77.3767 47.0664 77.956C45.5894 79.056 42.2757 77.3472 40.5564 73.5735C39.0074 70.1736 39.6475 66.3384 42.0887 65.7838Z"
            fill="#E8A07C" />
        <path
            d="M41.0569 49.7727C42.6544 40.2741 59.8535 39.4428 62.3814 39.2183C64.905 38.9471 84.3061 36.3817 85.6429 45.9147C87.1451 56.6314 84.3559 71.8148 82.0752 76.6191C78.8623 83.3874 73.5427 86.2849 71.0332 87.9243C69.4498 88.9585 65.8206 90.4694 62.0014 90.7209C59.0529 90.9146 57.0569 90.3298 55.3708 89.4757C52.5692 88.0559 47.3855 84.1327 44.3239 77.7192C42.572 74.0494 41.8735 65.9338 41.1319 59.3905C40.7801 56.2784 40.5588 52.7329 41.0569 49.7727Z"
            fill="#FFC19F" />
        <path
            d="M59.5947 73.5379C58.8439 73.5379 58.0648 73.3485 57.6946 72.9064C57.2543 72.3843 57.4191 71.7442 57.6233 70.9356C57.7401 70.4793 57.8735 69.9616 57.9504 69.3264C57.9707 69.1659 58.0838 69.0589 58.2775 69.073C58.4368 69.0933 58.5505 69.2384 58.5309 69.3977C58.4454 70.0698 58.3033 70.6306 58.1896 71.0795C57.9904 71.8617 57.9024 72.2515 58.1386 72.5313C58.5678 73.038 60.1487 73.0859 60.7864 72.725C60.9253 72.6451 61.1049 72.6949 61.1842 72.8344C61.2635 72.9734 61.2156 73.1511 61.076 73.2311C60.7292 73.4254 60.1721 73.5379 59.5947 73.5379Z"
            fill="#C4735B" />
        <path
            d="M42.5992 59.146C43.1612 58.0115 44.281 56.8419 45.3306 56.3537C47.4853 55.3514 50.2149 55.1294 51.8985 55.4307C52.4384 55.5272 52.9457 56.5498 53.025 56.8751C53.0871 57.1309 52.6327 57.3492 52.2914 57.2976C50.1933 56.9821 47.9249 56.9661 45.6627 57.8861C44.7268 58.2667 43.4225 59.2081 42.9663 59.6324C42.7 59.8796 42.3981 59.5518 42.5992 59.146Z"
            fill="#4C0B00" />
        <path
            d="M76.6775 56.1287C75.7846 55.1079 74.2627 54.1505 72.9806 53.8529C70.3476 53.2423 67.2589 53.5024 65.4578 54.0952C64.8798 54.2852 64.557 55.384 64.5453 55.7191C64.5361 55.9823 65.0932 56.1182 65.4615 56.0075C67.7207 55.3281 70.24 54.913 72.9733 55.424C74.1035 55.6355 75.7766 56.3353 76.3848 56.6735C76.7378 56.8703 76.9966 56.4933 76.6775 56.1287Z"
            fill="#4C0B00" />
        <path
            d="M47.7982 115.93C41.2229 112.938 41.4185 104.816 41.3201 90.2482C41.7394 90.1529 43.3819 82.445 44.4875 82.2556C44.8663 84.7054 46.1281 90.1572 45.7653 93.1519C44.7291 101.694 43.3782 111.859 47.7982 115.93Z"
            fill="#6B1511" />
        <path
            d="M82.1619 115.99C88.4161 112.373 88.0238 102.981 86.7073 88.4731C86.2805 88.419 83.725 77.5848 82.6058 77.5037C82.4663 79.9781 81.9128 88.8488 82.5646 91.7942C84.4254 100.195 86.1656 111.509 82.1619 115.99Z"
            fill="#6B1511" />
        <path
            d="M73.6762 34.5034C70.344 31.989 65.9978 28.663 61.2906 29.1887C62.4983 31.3114 71.4939 41.5589 72.0639 42.2027C72.4741 46.3773 73.8226 47.7228 76.1137 50.9148C78.0261 53.5804 80.0073 56.0511 81.3429 60.3524C82.0661 62.683 82.0255 69.8959 82.0624 70.1179C82.6435 68.8763 82.6084 61.9205 85.1603 61.752C85.2495 60.4262 86.138 48.2092 85.0853 43.8156C84.5048 41.3941 81.9345 34.9646 73.6762 34.5034Z"
            fill="#6B1511" />
        <path fill-rule="evenodd" clip-rule="evenodd"
            d="M35.6968 47.1834C36.1979 55.6083 33.8496 64.709 36.6548 72.6414C40.1745 82.5943 43.1864 86.4923 46.7658 88.4219C44.72 82.1916 42.2782 68.3954 43.7828 63.2972C45.2863 58.2045 51.0769 53.7654 54.0476 51.6643C59.9126 47.5155 65.7819 44.4864 72.8608 42.3422C72.6548 40.2564 68.1014 26.8833 58.4442 29.3215C46.6139 32.3087 39.1181 39.5468 35.6968 47.1834Z"
            fill="#6B1511" />
        <path
            d="M82.7442 68.492C83.7859 68.4766 89.0507 67.2204 90.0752 67.0328C89.7376 63.1552 88.9314 51.6318 88.0896 43.5014C87.3763 42.876 79.2121 37.399 76.7279 36.6648C81.1749 43.2357 80.6252 64.615 82.7442 68.492Z"
            fill="#6B1511" />
        <path
            d="M88.0921 61.5896C84.9837 60.84 82.3451 63.1059 81.7302 67.1152C81.0347 71.6483 82.1514 74.2082 83.1796 74.7714C85.1331 75.8408 89.0753 73.8245 90.818 69.7267C92.3879 66.0354 91.1304 62.3219 88.0921 61.5896Z"
            fill="#FFC19F" />
        <path
            d="M85.2782 65.4752C84.8613 65.6916 83.3449 72.1937 83.83 72.3044C85.4995 72.6838 87.0848 71.6624 87.8141 69.7457C88.7358 67.323 87.6204 64.2595 85.2782 65.4752Z"
            fill="#F29D77" />
        <path fill-rule="evenodd" clip-rule="evenodd"
            d="M72.4659 61.2667C75.6296 62.2868 76.8207 65.932 75.1352 67.9293C74.1471 69.1007 72.4469 69.5114 70.6587 69.6725C68.0306 69.9093 65.6109 68.8393 65.1792 67.6507C64.9671 67.0665 64.7395 65.8705 65.7708 63.8659C66.9446 61.584 69.6834 60.3751 72.4659 61.2667Z"
            fill="#FBFDFF" />
        <path fill-rule="evenodd" clip-rule="evenodd"
            d="M74.8408 62.1717C75.7441 62.1108 76.3866 60.9941 76.3965 60.2034C75.8664 61.697 72.4155 60.8613 72.1173 60.8902C74.0709 61.1245 74.4085 61.7247 74.8408 62.1717Z"
            fill="#6C1E19" />
        <path fill-rule="evenodd" clip-rule="evenodd"
            d="M75.543 63.2788C76.2802 63.507 77.0022 63.0132 77.0071 62.0066C76.5822 63.2333 74.4921 61.9623 74.1938 61.9912C74.6058 62.2612 75.1101 62.8318 75.543 63.2788Z"
            fill="#6C1E19" />
        <path fill-rule="evenodd" clip-rule="evenodd"
            d="M74.7865 61.8282C76.9326 63.5499 76.3164 66.9781 75.0829 67.992C75.8786 66.7942 75.902 65.3055 75.4611 64.1956C74.9987 63.0309 73.7824 61.6529 71.5047 61.2569C69.1804 60.8535 66.666 61.9339 65.5161 64.3222C66.987 60.7078 71.7642 59.403 74.7865 61.8282Z"
            fill="#6C1E19" />
        <path fill-rule="evenodd" clip-rule="evenodd"
            d="M71.7573 62.6551C73.3407 63.1802 74.1918 64.9124 73.6414 66.5266C73.0911 68.1413 71.3866 68.9893 69.8032 68.4642C68.2198 67.9384 67.3964 66.2037 67.9197 64.5921C68.4694 62.9779 70.1709 62.1017 71.7573 62.6551Z"
            fill="#6C1E19" />
        <path fill-rule="evenodd" clip-rule="evenodd"
            d="M71.3301 63.3593C71.771 63.5143 72.0176 64.0007 71.862 64.4416C71.7353 64.8794 71.2483 65.126 70.8074 64.9704C70.3672 64.8154 70.1206 64.3284 70.2761 63.8882C70.4317 63.4473 70.9181 63.2007 71.3301 63.3593Z"
            fill="white" />
        <path fill-rule="evenodd" clip-rule="evenodd"
            d="M47.3364 63.735C44.8337 65.3122 44.4838 69.1081 46.2793 70.7634C47.3314 71.7338 48.8509 71.8291 50.3986 71.6624C52.6744 71.4171 54.5358 69.9265 54.6864 68.6813C54.7602 68.0689 54.7362 66.8532 53.4966 65.0718C52.0853 63.0432 49.539 62.3533 47.3364 63.735Z"
            fill="#FBFDFF" />
        <path fill-rule="evenodd" clip-rule="evenodd"
            d="M45.5765 65.0812C44.723 65.2079 43.9316 64.2523 43.7865 63.4836C44.5385 64.8309 47.6149 63.3022 47.8984 63.269C46.1146 63.9012 45.9036 64.5561 45.5765 65.0812Z"
            fill="#6C1E19" />
        <path fill-rule="evenodd" clip-rule="evenodd"
            d="M45.1116 66.3057C44.4629 66.6808 43.7035 66.3481 43.5258 65.3673C44.1333 66.4754 45.8655 64.8047 46.149 64.7715C45.8108 65.1195 45.4381 65.7812 45.1116 66.3057Z"
            fill="#6C1E19" />
        <path fill-rule="evenodd" clip-rule="evenodd"
            d="M45.4676 64.7077C43.9574 66.7886 45.1036 70.0439 46.3359 70.8156C45.4424 69.7838 45.1516 68.3259 45.3244 67.1557C45.5058 65.9277 46.2886 64.3529 48.1517 63.5511C50.053 62.732 52.386 63.3365 53.7966 65.4739C51.8904 62.1903 47.5946 61.777 45.4676 64.7077Z"
            fill="#6C1E19" />
        <path fill-rule="evenodd" clip-rule="evenodd"
            d="M49.3098 64.5217C48.0603 65.3254 47.652 67.1812 48.4127 68.6668C49.1739 70.1525 50.7758 70.6764 52.0253 69.8727C53.2754 69.069 53.6591 67.2156 52.9224 65.7276C52.1612 64.2413 50.5569 63.6897 49.3098 64.5217Z"
            fill="#6C1E19" />
        <path fill-rule="evenodd" clip-rule="evenodd"
            d="M50.8562 65.0539C50.51 65.267 50.3889 65.7462 50.601 66.1171C50.7886 66.4903 51.2467 66.6313 51.5929 66.4176C51.9391 66.2045 52.0596 65.7253 51.8481 65.3544C51.6359 64.984 51.1778 64.8431 50.8562 65.0539Z"
            fill="white" />
        <path
            d="M53.4301 77.9085C53.4485 76.0939 56.1271 76.3792 60.3786 75.9315C60.6012 75.9082 61.4664 75.8233 61.6896 75.803C65.9466 75.415 68.4444 74.7171 69.0058 76.4444C69.5463 78.1089 68.0699 80.9769 65.7123 82.7817C64.6006 83.6327 63.2705 84.0207 61.8864 84.1615L61.8113 84.1689C60.4259 84.3005 59.0553 84.1972 57.8033 83.5976C55.1482 82.326 53.411 79.7907 53.4301 77.9085Z"
            fill="#701608" />
        <path
            d="M61.8298 84.2779L61.8981 84.2712C63.1795 84.1396 64.3712 83.8173 65.5316 82.9165L65.6822 82.8009C64.552 81.8459 63.0762 81.3663 61.5912 81.512C60.1093 81.6578 58.7829 82.3754 57.8575 83.532L57.8003 83.6034L57.8802 83.6421C59.1961 84.2994 60.5502 84.3984 61.8298 84.2779Z"
            fill="#DD6B5B" />
        <path
            d="M67.3162 75.3396C66.9472 76.9753 64.4261 77.9881 61.2722 78.2974C58.071 78.6116 55.3721 78.2217 54.6096 76.5356C55.8905 76.2251 57.9769 76.1568 60.3756 75.9041C60.5982 75.8807 61.464 75.7959 61.6866 75.775C64.1887 75.5481 66.0648 75.224 67.3162 75.3396Z"
            fill="white" />
    </g>
    <g clip-path="url(#clip1_453_5193)">
        <path
            d="M228.218 181.205C227.665 181.741 226.967 182.781 222.612 185.717C221.262 186.628 215.843 185.33 213.046 184.484C213.511 181.53 216.799 182.493 220.63 182.52L227.849 175.871C229.215 176.091 228.843 180.603 228.218 181.205Z"
            fill="#E0956C" />
        <path
            d="M227.704 182.316C227.25 182.973 226.748 184.174 222.906 188.045C221.716 189.245 215.931 189.017 212.912 188.722C212.788 185.621 216.331 185.935 220.241 185.19L226.249 176.958C227.685 176.906 228.218 181.576 227.704 182.316Z"
            fill="#E0956C" />
        <path
            d="M227.113 183.211C226.839 183.962 226.659 185.25 223.924 189.969C223.076 191.431 217.424 192.678 214.428 193.156C213.521 190.187 217.031 189.593 220.622 187.882L224.346 178.396C225.723 177.983 227.421 182.366 227.113 183.211Z"
            fill="#E0956C" />
        <path
            d="M217.829 195.286C222.176 194.143 226.067 192.43 226.911 190.968C227.951 189.168 229.789 186.093 230.819 183.97C231.513 182.539 230.9 176.104 229.687 169.375C229.527 168.488 226.501 167.456 225.088 167.721C217.228 169.201 217.238 173.817 216.496 177.253C216.105 179.065 216.209 184.484 216.365 187.104C222.035 187.531 219.465 179.308 222.418 179.522C224.603 179.681 225.066 182.308 224.681 183.717C224.259 185.263 222.976 188.828 222.544 189.183C218.828 192.243 215.861 192.891 217.829 195.286Z"
            fill="#FFC19F" />
        <path
            d="M225.117 129.489C224.853 126.832 224.13 114.152 223.005 108.332C220.969 97.7996 217.705 82.2823 215.625 80.1334C214.245 78.7059 207.008 76.2302 204.177 75.1821C204.123 78.1886 203.866 102.894 204.701 109.992C205.243 114.585 208.294 124.085 210.245 131.827C212.262 132.186 223.405 130.185 225.117 129.489Z"
            fill="#FFC19F" />
        <path
            d="M226.159 108.356C225.784 106.341 217.841 79.4803 215.655 77.362C214.204 75.9549 206.425 73.2019 203.409 72.2065C203.289 75.2317 203.209 111.265 205.294 115.044C208.767 115.303 224.795 109.275 226.159 108.356Z"
            fill="#FF9B06" />
        <path
            d="M217.078 125.254C212.895 125.157 210.965 128.557 210.027 130.558C211.023 143.402 217.991 155.968 219.555 172.723C220.533 172.943 229.186 171.682 229.731 171.068C228.552 157.346 228.466 142.921 224.942 128.882C224.247 126.114 219.293 125.306 217.078 125.254Z"
            fill="#FFC19F" />
        <path
            d="M139.657 100.976C139.657 100.976 139.606 101.041 139.596 101.131C139.587 101.221 139.623 101.301 139.623 101.301C139.623 101.301 139.674 101.237 139.684 101.146C139.695 101.056 139.657 100.976 139.657 100.976Z"
            fill="#FFC19F" />
        <path d="M191.242 301.242H206.206V288.149H190.792L191.242 301.242Z" fill="#8892A0" />
        <path d="M142.132 300.503H158.046L159.555 288.431H143.641L142.132 300.503Z" fill="#8892A0" />
        <path opacity="0.11"
            d="M126.269 313.812C126.269 317.228 149.682 320 178.563 320C207.445 320 230.858 317.23 230.858 313.812C230.858 310.394 207.445 307.624 178.563 307.624C149.682 307.624 126.269 310.395 126.269 313.812Z"
            fill="black" />
        <path
            d="M142.729 295.135C143.272 293.803 153.025 294.909 153.28 295.395C153.614 296.032 154.705 298.101 156.24 297.842C156.875 297.735 158.192 297.17 158.299 296.972C158.396 296.796 158.864 297.211 158.866 297.539C158.875 299.356 159.086 306.201 158.871 306.424C156.759 307.744 156.296 307.326 154.63 308.282C151.861 309.871 150.191 311.076 147.871 311.833C143.732 313.182 139.868 313.061 136.102 312.937C131.714 312.791 128.87 311.699 129.014 310.014C129.305 306.625 134.192 305.259 139.49 300.416C141.347 298.718 142.317 296.144 142.729 295.135Z"
            fill="#305E8C" />
        <path
            d="M159.184 306.458C159.196 306.082 159.116 306.104 158.844 306.023C158.808 306.135 158.774 306.263 158.726 306.281C155.675 307.51 154.776 307.881 153.113 308.645C150.526 309.832 150.131 310.991 147.779 311.672C143.953 312.778 139.999 313.157 136.301 312.922C132.119 312.658 129.554 311.803 129.123 310.108C129.028 309.735 129.176 309.279 129.355 308.937C128.946 309.38 128.708 309.739 128.698 309.991C128.636 311.398 128.732 313.533 128.897 313.936C129.974 316.584 139.618 316.784 145.415 315.616C148.618 314.969 150.478 313.249 153.18 311.556C155.144 310.324 156.737 310.06 159.024 309.063C159.222 308.975 159.162 307.142 159.184 306.458Z"
            fill="#1C3651" />
        <path
            d="M134.376 303.608C134.229 303.746 134.224 303.977 134.362 304.125C134.502 304.27 134.733 304.28 134.88 304.137C135.899 303.166 141.779 303.05 145.599 306.004C145.665 306.056 145.745 306.08 145.822 306.08C145.931 306.08 146.04 306.031 146.109 305.939C146.232 305.779 146.203 305.549 146.043 305.427C142.099 302.371 135.719 302.329 134.376 303.608ZM137.257 301.561C137.118 301.706 137.121 301.937 137.266 302.078C137.405 302.221 137.637 302.218 137.783 302.073C138.701 301.129 143.898 301.554 147.988 304.299C148.051 304.341 148.12 304.362 148.191 304.362C148.308 304.362 148.426 304.304 148.494 304.2C148.608 304.032 148.562 303.804 148.394 303.693C144.287 300.933 138.634 300.149 137.257 301.561ZM150.208 301.998C146.169 298.779 140.277 298.647 139.092 299.95C138.958 300.098 138.969 300.329 139.118 300.465C139.266 300.602 139.494 300.593 139.635 300.442C140.486 299.502 145.932 299.526 149.752 302.57C149.82 302.625 149.9 302.65 149.98 302.65C150.089 302.65 150.194 302.602 150.266 302.512C150.39 302.354 150.364 302.124 150.208 301.998Z"
            fill="#CCCCCC" />
        <path
            d="M225.068 307.868C226.373 308.515 227.553 310.514 227.519 311.734C227.437 314.688 214.265 314.741 208.112 313.419C205.532 312.864 200.948 310.868 198.167 310.337C194.392 309.616 191.046 308.622 189.748 307.103C189.708 306.655 189.974 302.403 190.238 298.362C190.28 297.712 190.379 297.387 191.099 297.556C191.756 298.636 193.962 299.302 195.642 298.677C196.811 298.243 197.75 297.365 198.763 295.98C199.299 295.247 206.991 293.91 208.099 295.104C210.773 299.671 216.374 303.564 225.068 307.868Z"
            fill="#305E8C" />
        <path
            d="M227.774 315.312C227.924 315.006 227.949 313.65 227.993 312.442C228.007 312.08 227.631 311.549 227.496 311.319C228.072 314.305 215.298 314.434 208.236 312.901C205.658 312.342 202.424 310.526 199.646 309.982C196.011 309.269 191.039 308.36 189.739 306.841C189.47 306.831 189.526 307.179 189.516 307.498C189.475 308.811 189.504 309.988 189.703 310.085C193.259 311.836 197.752 312.575 200.387 313.485C202.982 314.382 205.387 315.457 208.013 316.16C212.856 317.453 226.794 317.323 227.774 315.312Z"
            fill="#1C3651" />
        <path
            d="M219.582 304.142C218.047 302.868 212.823 302.468 208.899 305.662C208.742 305.789 208.72 306.019 208.848 306.176C208.916 306.261 209.016 306.307 209.116 306.31C209.202 306.314 209.288 306.286 209.363 306.228C212.939 303.316 217.78 303.591 219.116 304.706C219.269 304.833 219.5 304.813 219.63 304.658C219.761 304.501 219.739 304.274 219.582 304.142ZM216.054 302.822C216.209 302.95 216.442 302.934 216.57 302.778C216.699 302.625 216.68 302.393 216.525 302.262C214.588 300.627 210.293 300.809 206.135 304.359C205.981 304.49 205.964 304.719 206.095 304.872C206.163 304.954 206.262 304.997 206.359 305.002C206.448 305.005 206.538 304.976 206.611 304.913C210.322 301.747 214.328 301.359 216.054 302.822ZM213.594 301.044C213.732 301.192 213.966 301.201 214.114 301.063C214.258 300.925 214.267 300.694 214.132 300.547C212.177 298.437 207.671 299.382 203.651 302.756C203.498 302.885 203.478 303.117 203.607 303.271C203.675 303.355 203.774 303.397 203.874 303.401C203.963 303.404 204.05 303.375 204.123 303.316C207.833 300.202 211.904 299.217 213.594 301.044Z"
            fill="#E0E0E0" />
        <path
            d="M184.497 188.947C184.497 188.947 182.648 189.831 182.594 188.484C182.107 184.977 179.632 185.055 178.994 188.298C178.749 189.546 176.749 188.766 176.749 188.766L176.97 173.979L184.718 174.159L184.497 188.947Z"
            fill="#253F66" />
        <path
            d="M183.499 178.675L184.359 153.73L153.951 152.063C151.064 187.188 143.046 275.003 141.883 289.43C145.269 292.047 160.4 292.55 161.736 291.688C163.211 284.61 174.228 208.265 179.624 185.694C180.526 181.915 183.436 179.118 183.499 178.675Z"
            fill="#253F66" />
        <path
            d="M181.61 181.556L183.033 153.238H210.526C210.33 184.004 208.199 277.865 207.724 291.036C203.968 293.125 189.148 291.65 187.962 290.602C187.637 283.599 183.87 211.061 182.315 186.127C182.301 186.053 181.603 182.003 181.61 181.556Z"
            fill="#253F66" />
        <path opacity="0.3"
            d="M210.172 177.014C197.132 180.254 173.791 182.141 151.992 177.94C152.143 166.709 152.242 159.408 152.419 152.849C152.419 152.849 207.259 156.051 209.693 156.953C209.933 162.656 209.826 169.38 210.172 177.014Z"
            fill="black" />
        <path
            d="M151.107 142.645C151.479 128.834 149.243 89.5682 148.695 77.3773C149.26 76.3207 163.465 70.4966 172.928 67.6756C177.028 66.4522 186.985 67.0324 191.465 68.2592C200.414 70.7093 208.851 74.2704 213.234 75.9821C212.284 91.2493 211.516 132.302 211.821 145.206C211.967 151.37 212.258 171.061 212.332 174.121C206.766 175.751 191.849 176.668 184.281 176.715C168.813 176.814 152.398 174.83 150.948 174.115C150.959 171.771 151.078 143.732 151.107 142.645Z"
            fill="#FF9B06" />
        <path
            d="M182.202 81.7072C173.796 81.503 167.117 76.2029 166.864 69.7561C168.852 69.0551 170.784 68.383 172.508 67.7926C176.555 66.4042 189.565 67.3043 193.982 68.7437C195.396 69.2048 196.784 69.6983 198.154 70.2019C197.796 76.7831 190.748 81.9147 182.202 81.7072Z"
            fill="#752B01" />
        <path
            d="M169.236 69.3055C169.24 69.1779 169.284 69.0622 169.294 68.9363C170.727 68.4343 172.115 67.9528 173.376 67.5189C177.076 66.2496 188.971 67.0715 193.008 68.3884C193.868 68.6691 194.77 68.9737 195.689 69.2919C195.703 69.513 195.764 69.724 195.759 69.9486C195.621 75.6264 189.572 80.0842 182.248 79.9056C174.923 79.7303 169.099 74.9832 169.236 69.3055Z"
            fill="#FFC19F" />
        <path
            d="M182.126 75.5804C187.593 75.9326 192.21 73.3328 192.438 69.775L193.57 52.1973L173.772 50.9246L172.64 68.5023C172.412 72.0584 176.659 75.2282 182.126 75.5804Z"
            fill="#FFC19F" />
        <path opacity="0.23"
            d="M192.573 67.6975C191.383 70.5083 180.858 70.8231 173.209 59.2634L173.469 55.6325C175.959 53.88 180.594 53.4767 185.469 54.8668C188.641 55.772 191.312 57.2727 193.133 58.9775L192.573 67.6975Z"
            fill="#822020" />
        <path opacity="0.25"
            d="M212.24 102.181C212.068 109.645 211.935 117.298 211.863 124.106C195.056 126.947 168.088 126.095 150.798 124.147C150.569 118.032 150.296 109.65 149.934 102.116C167.446 102.593 194.326 103.593 212.24 102.181Z"
            fill="white" />
        <path
            d="M208.813 36.8111C206.715 36.4334 204.905 38.7321 203.753 42.5961C202.458 46.9348 203.554 49.4394 204.361 50.0059C205.893 51.0847 209.143 49.0786 210.701 44.9781C212.103 41.2826 211.29 37.2552 208.813 36.8111Z"
            fill="#E8A07C" />
        <path
            d="M202.186 7.22607C209.307 9.71871 211.947 15.2689 213.284 18.5748C212.993 23.5277 210.645 36.5694 210.435 37.7996C209.552 38.2658 208.565 44.8504 207.659 45.924C207.656 45.6978 206.987 43.0673 207.333 38.9566C208.035 30.5905 209.098 23.1994 208.121 20.8599C207.537 19.4613 204.752 15.9375 199.25 14.738C196.763 14.1969 200.982 9.26612 202.186 7.22607Z"
            fill="#252937" />
        <path
            d="M208.958 21.4178C207.011 17.7784 200.216 12.1313 186.825 13.0109C174.097 13.8463 162.638 15.5716 161.244 25.2869C159.902 34.633 166.916 49.8968 169.187 54.6728C169.835 56.0391 173.342 59.3859 175.19 60.6977C178.454 63.0151 182.607 65.4635 186.701 66.2683C186.941 66.3159 192.048 66.3601 192.29 66.3176C196.281 65.6319 202.729 59.881 204.975 56.2722C205.743 55.0386 208.049 47.0724 208.781 41.6414C209.142 38.965 208.418 32.7002 208.818 28.2424C209.195 24.0449 209.441 22.3213 208.958 21.4178Z"
            fill="#FFC19F" />
        <path
            d="M177.282 6.08758C167.745 5.66391 160.963 12.6229 158.287 16.7336C157.702 23.519 159.438 34.8048 160.263 37.2906C161.411 37.8623 165.861 45.558 166.649 46.7899C166.677 46.5653 167.245 42.4971 167.436 38.024C167.558 35.1655 165.415 21.234 166.978 19.0255C167.912 17.7051 171.226 14.3243 178.797 13.8037C182.216 13.5706 178.7 8.26374 177.282 6.08758Z"
            fill="#252937" />
        <path
            d="M190.843 47.3448C190.501 47.3448 190.19 47.2954 189.955 47.1934C189.807 47.127 189.741 46.9569 189.804 46.8088C189.87 46.6574 190.049 46.5944 190.188 46.6574C190.877 46.9688 192.471 46.591 192.842 46.0432C193.048 45.7471 192.847 45.155 192.593 44.4098C192.404 43.8568 192.171 43.1626 192.025 42.3646C191.996 42.2081 192.101 42.0532 192.261 42.0243C192.43 42.0022 192.573 42.1009 192.602 42.2608C192.739 43.0146 192.956 43.6543 193.146 44.2192C193.453 45.121 193.693 45.8288 193.327 46.3716C192.91 46.9841 191.769 47.3448 190.843 47.3448Z"
            fill="#C4735B" />
        <path
            d="M173.434 27.1705C174.508 26.3504 176.031 25.6358 177.324 25.3652C179.886 24.8293 182.97 25.076 184.912 25.566C185.542 25.7242 185.86 27.6792 185.743 27.8324C185.605 28.011 185.331 28.0314 184.885 27.9583C182.58 27.5805 180.4 27.0208 177.255 27.475C176.111 27.6401 174.794 27.9549 174.126 28.1641C173.869 28.2441 173.134 28.5061 173.071 28.4398C172.92 28.2798 173.047 27.4665 173.434 27.1705Z"
            fill="black" />
        <path
            d="M207.518 28.8071C206.682 27.9122 205.452 27.0887 204.369 26.7245C202.228 26.0014 199.561 26.0184 197.846 26.3621C197.291 26.4727 196.814 28.3937 196.899 28.5536C196.998 28.7425 197.231 28.7816 197.621 28.7425C199.636 28.5366 201.561 28.1419 204.211 28.8275C205.174 29.076 206.271 29.4877 206.82 29.7446C207.033 29.8433 207.636 30.1581 207.695 30.0968C207.843 29.9488 207.819 29.1304 207.518 28.8071Z"
            fill="black" />
        <path
            d="M181.433 14.2444C181.37 13.5043 183.278 9.44117 181.86 7.26331C171.978 5.66053 165.56 12.7777 163.999 16.3117C164.101 21.4467 164.808 33.9456 164.968 35.1928C166.115 35.7644 167.225 38.4119 167.706 41.3044C167.929 41.5239 168.101 41.9373 168.501 42.3117C168.379 37.6939 167.914 31.2454 168.562 27.0581C169.201 26.01 170.584 24.283 171.102 23.7147C171.284 21.7036 170.641 17.5639 173.859 16.019C174.887 15.5239 178.582 14.4843 181.433 14.2444Z"
            fill="#252937" />
        <path
            d="M197.762 51.8296C197.645 49.8933 194.802 50.3272 190.238 50.0771C189.999 50.0635 189.07 50.0192 188.832 50.009C184.265 49.8236 181.561 49.2264 181.053 51.0997C180.565 52.9049 182.296 55.8876 184.91 57.6877C186.142 58.5367 187.584 58.8787 189.068 58.9553L189.148 58.9587C190.634 59.0251 192.094 58.8447 193.398 58.1369C196.166 56.6396 197.883 53.8373 197.762 51.8296Z"
            fill="#701608" />
        <path
            d="M189.135 59.0777L189.061 59.0743C187.686 59.0029 186.396 58.7221 185.109 57.822L184.943 57.7063C186.098 56.6276 187.649 56.0355 189.242 56.1121C190.831 56.1886 192.287 56.8828 193.337 58.0688L193.4 58.1385L193.318 58.1879C191.948 58.9586 190.506 59.1373 189.135 59.0777Z"
            fill="#DD6B5B" />
        <path
            d="M182.798 49.8305C183.28 51.5575 186.025 52.5018 189.41 52.6651C192.845 52.8285 195.706 52.2687 196.429 50.4277C195.046 50.1657 192.813 50.2184 190.237 50.0772C189.999 50.0636 189.07 50.0194 188.832 50.0092C186.148 49.9003 184.127 49.6399 182.798 49.8305Z"
            fill="white" />
        <path fill-rule="evenodd" clip-rule="evenodd"
            d="M203.617 34.6313C206.218 36.0843 206.761 39.8769 205.037 41.6277C204.026 42.6537 202.502 42.8255 200.935 42.7353C198.63 42.6043 196.681 41.2023 196.467 39.9603C196.361 39.3494 196.324 38.1295 197.481 36.28C198.802 34.1753 201.331 33.3535 203.617 34.6313Z"
            fill="#FBFDFF" />
        <path fill-rule="evenodd" clip-rule="evenodd"
            d="M205.549 35.5143C207.174 37.5254 206.185 40.8466 204.984 41.6821C205.831 40.6016 206.049 39.1265 205.816 37.961C205.571 36.7393 204.703 35.1995 202.786 34.4883C200.831 33.7618 198.513 34.4849 197.2 36.6985C198.955 33.3109 203.26 32.6813 205.549 35.5143Z"
            fill="#252937" />
        <path fill-rule="evenodd" clip-rule="evenodd"
            d="M201.612 35.6601C203.016 36.3661 203.571 38.081 202.821 39.5122C202.07 40.9433 200.348 41.5107 198.938 40.8142C197.529 40.1178 196.995 38.3902 197.73 36.9622C198.469 35.5263 200.197 34.9477 201.612 35.6601Z"
            fill="#252937" />
        <path fill-rule="evenodd" clip-rule="evenodd"
            d="M199.423 37.0858C199.825 37.2984 199.982 37.7859 199.777 38.1916C199.576 38.5891 199.079 38.7641 198.673 38.5564C198.267 38.3486 198.101 37.8513 198.319 37.4506C198.537 37.0498 199.042 36.8846 199.423 37.0858Z"
            fill="white" />
        <path fill-rule="evenodd" clip-rule="evenodd"
            d="M184.315 35.6504C185.45 37.6088 185.281 38.8203 185.099 39.4158C184.726 40.6289 182.352 41.8233 179.704 41.7195C177.901 41.6481 176.177 41.3214 175.125 40.1967C173.333 38.2792 174.344 34.5615 177.467 33.3807C180.213 32.3445 183.023 33.4215 184.315 35.6504Z"
            fill="#FBFDFF" />
        <path fill-rule="evenodd" clip-rule="evenodd"
            d="M184.594 36.0964C183.321 33.7586 180.744 32.8024 178.432 33.323C176.167 33.8351 175.016 35.278 174.611 36.469C174.225 37.6039 174.324 39.0961 175.182 40.2564C173.893 39.3019 173.103 35.8956 175.168 34.0597C178.078 31.4769 182.936 32.5454 184.594 36.0964Z"
            fill="#252937" />
        <path fill-rule="evenodd" clip-rule="evenodd"
            d="M180.815 34.8466C182.426 35.5621 183.074 37.2799 182.228 38.706C181.382 40.1322 179.419 40.6899 177.8 39.984C176.184 39.2797 175.56 37.5476 176.388 36.1246C177.221 34.692 179.193 34.1248 180.815 34.8466Z"
            fill="#252937" />
        <path fill-rule="evenodd" clip-rule="evenodd"
            d="M178.064 36.2701C178.476 36.4947 178.653 37.0086 178.435 37.4237C178.245 37.8406 177.725 38.0141 177.31 37.7946C176.895 37.5768 176.721 37.0562 176.939 36.6427C177.157 36.2259 177.674 36.0574 178.064 36.2701Z"
            fill="white" />
        <path
            d="M161.051 34.6091C164.132 33.7005 166.893 35.8409 167.711 39.8308C168.637 44.3414 167.645 46.9651 166.643 47.581C164.736 48.7516 160.68 46.9276 158.726 42.9054C156.967 39.283 158.041 35.4955 161.051 34.6091Z"
            fill="#FFC19F" />
        <path
            d="M164.069 38.3644C164.498 38.5601 166.346 45.0052 165.865 45.1396C164.209 45.6041 162.568 44.6598 161.739 42.7746C160.694 40.3908 161.659 37.2635 164.069 38.3644Z"
            fill="#E0956C" />
        <path fill-rule="evenodd" clip-rule="evenodd"
            d="M167.834 10.7992C170.465 3.46246 180.454 0.200764 183.528 0.0221109C191.165 -0.42197 205.896 6.03507 210.81 6.92153C207.467 14.0642 201.413 20.1657 190.197 19.1976C179.831 18.3026 171.98 11.4763 167.834 10.7992Z"
            fill="#252937" />
        <path fill-rule="evenodd" clip-rule="evenodd"
            d="M166.651 8.98363C166.551 6.377 170.366 1.33047 174.61 0.37085C171.948 3.17826 170.695 7.665 170.783 8.43066C170.872 9.19631 166.68 9.72887 166.651 8.98363Z"
            fill="#252937" />
        <path
            d="M198.56 103.61C199.728 103.43 200.108 106.19 198.423 107.296C197.512 107.895 192.666 109.419 190.878 110.733C188.697 111.655 180.967 116.577 180.468 115.4C180.735 114.855 186.413 106.392 188.822 105.063C190.992 103.865 196.693 103.899 198.56 103.61Z"
            fill="#FFC19F" />
        <path
            d="M216.233 96.3671L215.22 95.0927L215.148 95.091C215.099 95.0655 215.068 95.011 215.005 95.0144L201.022 94.6929C200.923 94.6997 200.831 94.7524 200.777 94.8358L184.144 119.8C184.051 119.939 184.109 120.08 184.213 120.181L185.212 121.477L186.071 120.188L199.28 119.291C199.381 119.284 199.471 119.231 199.527 119.148L214.745 96.3399L216.233 96.3671Z"
            fill="#515151" />
        <path
            d="M185.431 121.591L200.278 120.582C200.378 120.576 200.468 120.523 200.525 120.439L216.294 96.8062C216.442 96.5833 216.27 96.2889 216.004 96.306L202.021 95.9844C201.92 95.9912 201.83 96.0439 201.774 96.1273L185.142 121.093C184.994 121.314 185.166 121.61 185.431 121.591Z"
            fill="#706F6F" />
        <path d="M199.35 101.773H203.173L206.41 96.9849H202.587L199.35 101.773Z" fill="#333333" />
        <path
            d="M200.753 120.584C200.308 120.186 197.11 121.036 195.613 121.215C196.63 120.936 200.836 119.983 201.776 119.33C202.387 118.906 202.877 117.88 202.807 117.2C202.72 116.347 197.199 117.205 195.655 117.263C196.688 117.087 203.185 116.354 204.165 115.726C204.872 115.274 206.597 114.052 206.077 113.295C205.816 112.915 197.177 112.801 195.442 112.679C196.258 112.652 202.068 112.551 204.838 111.857C205.34 111.731 206.577 111.59 207.425 111.166C209.629 110.065 211.727 107.746 210.248 107.746C209.108 107.746 206.502 108.202 205.198 108.17C201.17 108.07 193.536 108.241 191.364 108.366C189.899 108.449 184.323 111.59 182.943 112.587C182.32 113.038 177.728 117.896 177.612 120.121C177.437 123.487 179.644 125.709 181.45 126.083C183.232 126.45 189.138 126.103 194.825 124.843C196.014 124.579 198.298 123.813 199.522 123.172C200.577 122.615 201.139 120.928 200.753 120.584Z"
            fill="#FFC19F" />
        <path
            d="M131.111 125.806C130.801 118.901 136.391 85.0236 138.113 83.2728C139.523 81.8384 145.837 77.8349 148.606 76.3853C149.166 79.3543 150.572 102.751 151.712 110.819C152.364 115.427 147.48 127.272 146.29 132.894C144.188 132.928 132.565 126.502 131.111 125.806Z"
            fill="#FFC19F" />
        <path
            d="M131.016 115.726C131.241 113.69 135.012 86.0683 139.529 81.0319C142.27 77.9761 150.822 74.6481 160.9 71.696C161.225 74.5426 157.086 94.5773 155.818 101.659C155.719 102.212 151.67 118.166 150.822 119.592C145.611 120.111 133.101 117.811 131.016 115.726Z"
            fill="#FF9B06" />
        <path
            d="M134.02 135.889C133.016 134.266 131.009 129.454 131.145 124.428C147.502 119.827 165.143 120.816 181.755 114.379C182.4 115.153 184.689 124.207 184.369 124.972C175.816 129.156 161.119 135.744 144.996 139.426C142.137 140.078 135.906 138.934 134.02 135.889Z"
            fill="#FFC19F" />
    </g>
    <defs>
        <clipPath id="clip0_453_5193">
            <rect width="125.381" height="291.505" fill="white"
                transform="translate(0.888428 28.4954)" />
        </clipPath>
        <clipPath id="clip1_453_5193">
            <rect width="104.842" height="320" fill="white" transform="translate(126.269)" />
        </clipPath>
    </defs>
</svg>