<svg width="272" height="246" viewBox="0 0 272 246" fill="none" xmlns="http://www.w3.org/2000/svg">
    <g clip-path="url(#clip0_453_4672)">
        <path
            d="M27.5948 94.0135C27.1865 92.067 26.0644 86.5438 24.8332 83.4347C23.8888 83.2664 18.8285 82.5713 18.1007 82.5464C18.1677 84.4134 21.255 85.4856 22.2727 86.0124C21.495 86.3568 18.0524 86.4347 18.7023 87.63C19.1028 88.3687 22.6763 89.0934 23.4914 89.3786C23.214 89.7589 20.0207 90.7049 20.4976 91.3688C21.0633 92.1542 21.4093 91.6212 24.9844 91.4701C25.5361 91.4467 21.7132 92.9444 21.5854 94.3781C21.4903 95.4597 22.7667 95.8789 22.8649 95.8571C24.8301 95.4363 27.2223 94.015 27.5948 94.0135Z"
            fill="#F29972" />
        <path
            d="M29.3372 96.055C30.6743 93.9745 34.5907 91.4514 36.6728 91.1069C42.4406 97.2659 52.5035 108.633 66.7867 117.961C62.0334 120.806 55.5752 123.46 49.731 120.975C45.0728 118.992 34.6032 105.082 29.3372 96.055Z"
            fill="#FFC19F" />
        <path
            d="M76.8394 102.812C72.2654 104.089 64.2253 106.274 55.8097 108.755C56.3442 113.438 58.5853 123.244 59.8383 126.68C63.3604 126.401 72.5911 125.602 73.2378 125.51C80.5049 120.409 87.2639 104.894 87.5288 104.538C82.4529 103.369 78.7205 102.791 76.8394 102.812Z"
            fill="#FF9B06" />
        <g opacity="0.12">
            <path
                d="M60.3239 242.189C60.3239 244.192 78.3832 245.814 100.661 245.814C122.939 245.814 140.999 244.192 140.999 242.189C140.999 240.186 122.939 238.566 100.661 238.566C78.3832 238.566 60.3239 240.186 60.3239 242.189Z"
                fill="black" />
        </g>
        <path
            d="M91.2428 227.959C91.1197 229.36 78.5149 229.824 78.4806 228.414C78.1409 214.72 74.8728 177.087 74.4333 171.641L93.6818 174.203C92.4553 187.6 92.0984 218.247 91.2428 227.959Z"
            fill="#FFC19F" />
        <path
            d="M111.252 227.047C111.512 228.429 124.176 227.543 124.073 226.135C123.07 212.473 120.279 175.757 120.185 170.295L101.703 173.94C104.241 187.151 109.446 217.466 111.252 227.047Z"
            fill="#FFC19F" />
        <path
            d="M71.0887 157.46C71.3256 172.322 71.695 189.562 71.8804 193.653C76.1428 194.409 90.0738 194.516 95.0172 194.094C94.9689 188.898 95.0094 181.089 95.2089 174.73C95.2167 174.492 95.547 173.714 96.2748 173.638C97.5138 173.507 97.9346 175.037 98.0156 175.291C98.999 178.438 100.838 187.464 102.661 194.767C106.755 195.093 121.31 193.492 125.736 191.915C124.311 180.601 122.762 168.046 121.4 157.458H71.0887V157.46Z"
            fill="#224A66" />
        <path
            d="M70.9833 150.906C70.9584 155.257 71.0815 161.147 71.2716 167.706C71.4321 167.705 71.5864 167.734 71.7485 167.725C76.3958 167.444 79.9366 163.452 79.6561 158.804C79.3818 154.241 75.5215 150.767 70.9833 150.906Z"
            fill="#0B283A" />
        <path
            d="M120.375 151.042C121.078 155.337 121.874 161.173 122.71 167.681C122.551 167.706 122.404 167.759 122.242 167.775C117.609 168.224 113.488 164.829 113.041 160.196C112.6 155.645 115.871 151.611 120.375 151.042Z"
            fill="#0B283A" />
        <g opacity="0.37">
            <path
                d="M101.192 157.459H70.9642C71.0219 159.244 71.0796 161.038 71.1419 162.906C85.8833 166.595 105.322 166.706 122.117 162.987C122.036 161.842 121.841 160.815 121.762 159.715C117.186 158.996 109.439 158.17 101.192 157.459Z"
                fill="black" />
        </g>
        <path
            d="M123.672 161.516C106.489 166.967 85.1943 166.168 70.0291 160.964C71.667 139.69 74.067 114.8 76.8379 102.811C82.9221 101.573 106.385 99.8653 120.563 103.431C121.587 117.323 121.452 141.527 123.672 161.516Z"
            fill="#FF9B06" />
        <path
            d="M84.6061 104.919C84.5889 104.234 84.8352 102.611 85.1126 101.891C92.3921 101.29 101.444 101.157 108.99 101.444C109.06 101.737 109.328 103.105 109.354 103.412C109.811 108.691 105.36 112.084 98.3235 112.691C91.2856 113.299 84.7385 110.36 84.6061 104.919Z"
            fill="#C55C02" />
        <path
            d="M87.3485 89.6296L87.5106 104.58C87.5449 107.793 91.6592 110.357 96.6992 110.302C101.739 110.248 105.797 107.597 105.763 104.382L105.601 89.4316L87.3485 89.6296Z"
            fill="#FFC19F" />
        <g opacity="0.19">
            <path
                d="M87.3942 93.8437L87.4939 105.593C94.7235 105.822 102.129 100.801 105.619 97.1959L105.623 91.4873C99.9911 91.9159 93.2477 92.8338 87.3942 93.8437Z"
                fill="#820303" />
        </g>
        <path
            d="M92.694 235.232C92.6582 235.628 77.0519 235.48 77.0379 234.998C76.9241 231.121 76.628 225.757 76.5641 223.31L93.2021 223.706C92.8436 228.109 92.9184 232.698 92.694 235.232Z"
            fill="#FFFFE3" />
        <path
            d="M74.0503 230.345C74.2793 229.475 74.7625 228.37 75.1349 227.362C75.4108 226.614 82.7137 226.673 82.7495 228.465C82.7589 228.925 82.7433 229.33 82.709 229.698C83.9589 229.7 85.3132 229.673 86.7438 229.609C89.8545 229.471 92.641 229.195 94.5953 228.866C94.7449 231.702 94.5376 236.616 94.6794 239.769C94.6794 239.769 62.1531 246.138 56.9806 241.455C55.5203 240.135 63.6507 234.152 74.0503 230.345Z"
            fill="#E87903" />
        <path
            d="M94.6327 237.793C94.6389 238.494 94.6514 239.17 94.6779 239.77C94.6779 239.77 62.1515 246.14 56.979 241.457C56.7733 241.27 56.7608 240.991 56.9167 240.638C65.9214 242.513 86.5443 239.222 94.6327 237.793Z"
            fill="#982121" />
        <path
            d="M71.7761 231.281C71.5283 231.333 71.2852 231.185 71.2306 230.939C71.1745 230.694 71.3272 230.448 71.5735 230.391C73.4623 229.964 75.6737 230.822 76.9532 232.489C77.106 232.689 77.0686 232.975 76.8691 233.128C76.7927 233.187 76.7023 233.217 76.6119 233.222C76.4686 233.228 76.3236 233.167 76.2301 233.044C75.1595 231.651 73.3283 230.918 71.7761 231.281ZM69.281 232.455C69.0348 232.503 68.8041 232.308 68.7729 232.059C68.7418 231.81 68.9194 231.582 69.1703 231.551C71.1636 231.3 73.1382 232.031 74.5937 233.546C74.7683 233.727 74.7621 234.016 74.5813 234.191C74.4987 234.27 74.3927 234.313 74.2852 234.317C74.1589 234.323 74.0311 234.277 73.9361 234.179C72.2187 232.391 70.2831 232.33 69.281 232.455ZM66.5334 232.841C68.3272 232.514 70.6462 233.323 72.1828 234.797C72.3636 234.972 72.3698 235.26 72.1953 235.442C72.1111 235.53 72.0005 235.576 71.8867 235.581C71.7667 235.587 71.6436 235.545 71.5501 235.455C70.2129 234.171 68.2103 233.443 66.6955 233.739C66.4399 233.789 66.2108 233.619 66.1657 233.371C66.1205 233.122 66.2856 232.885 66.5334 232.841Z"
            fill="#D2DAE5" />
        <path
            d="M110.636 235.229C110.697 235.622 125.63 234.526 125.642 234.045C125.74 230.248 125.826 224.315 125.943 222.266L109.367 223.76C110.016 228.13 110.245 232.717 110.636 235.229Z"
            fill="#FFFFE3" />
        <path
            d="M129.759 230.345C129.53 229.475 129.046 228.37 128.674 227.362C128.398 226.614 121.095 226.673 121.059 228.465C121.05 228.925 121.066 229.33 121.1 229.698C119.85 229.7 118.496 229.673 117.065 229.609C113.954 229.471 111.168 229.195 109.214 228.866C109.064 231.702 109.271 236.616 109.13 239.769C109.13 239.769 141.656 246.138 146.828 241.455C148.287 240.135 140.157 234.152 129.759 230.345Z"
            fill="#E87903" />
        <path
            d="M109.175 237.793C109.168 238.494 109.158 239.17 109.13 239.77C109.13 239.77 141.656 246.14 146.828 241.457C147.034 241.27 147.045 240.991 146.891 240.638C137.888 242.513 117.263 239.222 109.175 237.793Z"
            fill="#982121" />
        <path
            d="M127.58 233.044C127.487 233.167 127.342 233.228 127.199 233.222C127.108 233.219 127.018 233.187 126.941 233.128C126.742 232.976 126.705 232.689 126.857 232.489C128.135 230.823 130.348 229.965 132.237 230.392C132.482 230.448 132.636 230.692 132.58 230.939C132.524 231.183 132.282 231.333 132.033 231.282C130.481 230.918 128.65 231.651 127.58 233.044ZM129.873 234.176C129.778 234.274 129.65 234.32 129.524 234.314C129.416 234.31 129.31 234.267 129.228 234.188C129.045 234.013 129.041 233.724 129.215 233.543C130.671 232.03 132.645 231.297 134.639 231.548C134.888 231.579 135.066 231.807 135.035 232.056C135.003 232.307 134.773 232.502 134.526 232.452C133.524 232.33 131.59 232.391 129.873 234.176ZM137.642 233.37C137.598 233.618 137.368 233.787 137.112 233.738C135.599 233.442 133.595 234.169 132.257 235.453C132.164 235.544 132.041 235.586 131.921 235.58C131.809 235.575 131.696 235.528 131.612 235.441C131.438 235.26 131.444 234.97 131.625 234.796C133.16 233.322 135.479 232.513 137.272 232.84C137.522 232.885 137.687 233.122 137.642 233.37Z"
            fill="#D2DAE5" />
        <g opacity="0.55">
            <path
                d="M72.7932 130.43C79.867 132.47 86.6993 133.765 93.3086 134.21C100.972 134.728 108.346 134.119 115.546 132.506C115.359 128.402 115.195 124.484 115.029 120.733C102.338 123.808 88.906 123.161 74.1693 118.801C73.6909 122.446 73.2311 126.357 72.7932 130.43Z"
                fill="white" />
        </g>
        <path
            d="M142.331 46.9606C139.964 74.4438 126.857 87.7 103.328 91.2393C80.4966 94.6741 55.9978 70.7566 57.723 42.8058C58.6814 27.2868 71.7334 13.9558 93.7886 13.6192C117.264 13.2607 144.323 23.8348 142.331 46.9606Z"
            fill="#252937" />
        <path
            d="M72.4544 34.4854C72.8315 37.3265 67.8211 73.1833 63.8876 73.2814C59.9541 73.3796 56.6081 62.3676 55.8024 50.5281C55.034 39.2278 56.5021 31.66 63.0086 28.5789C66.565 26.8942 72.0056 31.0927 72.4544 34.4854Z"
            fill="#252937" />
        <path
            d="M126.627 40.875C127.716 44.5186 123.564 80.7323 118.169 87.6705C113.434 93.7609 102.608 100.581 85.7282 101.279C73.2528 101.795 62.0336 92.3817 60.5125 83.472C59.2252 75.9416 59.8502 67.2268 59.4871 57.3088C59.311 52.4776 58.005 42.3368 60.14 36.0749C63.3162 26.7523 76.7438 22.2234 94.4135 22.4931C110.037 22.7299 122.682 27.6811 126.627 40.875Z"
            fill="#FFC19F" />
        <path
            d="M113.797 43.8439C114.14 57.1888 118.033 73.2611 123.554 72.9603C127.416 72.75 138.257 64.7738 141.135 53.9644C142.92 47.26 143.189 38.8288 140.445 30.996C136.597 20.0152 127.719 15.1419 120.994 18.851C116.13 21.5331 113.552 34.3264 113.797 43.8439Z"
            fill="#252937" />
        <path
            d="M133.169 74.8694C130.617 81.6175 123.459 84.8528 118.812 83.804C115.195 82.9873 115.125 76.8128 116.524 71.0107C118.031 64.7613 121.692 61.3109 126.55 61.4589C133.07 61.6584 135.438 68.8631 133.169 74.8694Z"
            fill="#FFC19F" />
        <path
            d="M126.947 74.0809C126.349 77.1152 122.507 79.5915 119.855 78.418C118.962 78.0222 121.59 68.1463 123.008 68.1494C126.232 68.1556 127.547 71.0466 126.947 74.0809Z"
            fill="#E3A07C" />
        <path
            d="M95.4541 79.5262C94.625 76.4046 90.1242 77.3179 83.8405 77.5563C83.5117 77.5688 82.2338 77.628 81.9049 77.6467C75.6259 77.9927 71.909 77.3599 71.7625 80.5984C71.4976 86.4488 76.48 92.4255 82.868 92.5003C89.2327 92.5735 97.0858 85.6602 95.4541 79.5262Z"
            fill="#701608" />
        <path
            d="M77.213 90.6971C78.8681 91.774 80.7787 92.4753 82.8686 92.4987C85.1221 92.5252 87.5502 91.6463 89.69 90.2655C87.8853 88.4717 85.2079 87.5647 82.7315 87.7345C80.4702 87.8904 78.3787 88.9455 77.213 90.6971Z"
            fill="#DD6B5B" />
        <path
            d="M82.491 81.7282C77.8468 81.9449 74.0613 80.7308 73.4691 78.4493L73.4348 78.3106C74.7907 77.6996 78.7881 77.7308 81.1834 77.5999C83.7954 77.4565 91.3149 77.1885 91.3149 77.1885L91.2931 77.3303C90.9144 79.6571 87.132 81.5116 82.491 81.7282Z"
            fill="white" />
        <path
            d="M110.076 77.1198C110.215 78.7078 108.119 80.1868 105.396 80.4221C102.675 80.6575 100.356 79.5619 100.217 77.9738C100.08 76.3857 102.176 74.9068 104.897 74.6715C107.62 74.4361 109.937 75.5317 110.076 77.1198Z"
            fill="#FF8A8A" />
        <path
            d="M59.9312 78.0752C59.8782 79.5183 61.485 80.7495 63.5203 80.8227C65.5541 80.8975 67.2466 79.7863 67.2996 78.3432C67.3525 76.9001 65.7458 75.6689 63.7104 75.5941C61.6767 75.5224 59.9842 76.632 59.9312 78.0752Z"
            fill="#FF8A8A" />
        <path
            d="M83.7283 73.4948C83.5444 73.4995 83.3792 73.3701 83.3433 73.1831C83.094 71.8553 82.0218 71.0184 80.6129 71.048C79.1963 71.0792 78.1381 71.9815 77.9791 73.2922C77.9542 73.5026 77.761 73.6522 77.5521 73.6273C77.3417 73.6023 77.1921 73.4106 77.2171 73.2002C77.4197 71.5218 78.8098 70.3218 80.5958 70.2813C82.3709 70.2423 83.7797 71.3504 84.0976 73.0397C84.1366 73.2486 83.9994 73.448 83.7922 73.4886L83.7283 73.4948Z"
            fill="#C4735B" />
        <path
            d="M60.7333 10.8546C60.5026 15.2042 61.5842 17.7554 63.2393 18.7996C62.4803 14.1694 64.271 5.63691 69.8658 0C72.9282 2.98287 77.5381 5.07275 80.3682 7.52886C79.9879 5.66652 79.6186 3.10131 80.5864 1.34027C83.7033 5.23327 86.5973 6.69354 91.3241 7.38705C99.0384 8.51848 108.06 8.40783 115.644 10.4073C122.947 12.3336 128.507 15.9398 130.151 23.983C130.754 26.9362 121.387 27.2744 117.497 29.6012C107.186 24.3617 93.9283 29.7835 85.5703 31.1627C74.6019 32.9721 62.2185 32.1586 58.9052 27.4006C55.5281 22.5476 55.419 15.3975 60.7333 10.8546Z"
            fill="#252937" />
        <path
            d="M72.8846 61.0834C74.8607 64.8782 74.7251 69.111 73.1137 70.7536C70.6841 73.2284 64.8181 74.0466 62.5427 70.5977C60.3391 67.2564 61.2227 61.0569 64.6248 58.3249C67.603 55.9312 70.9724 57.4101 72.8846 61.0834Z"
            fill="#F9FEFF" />
        <path
            d="M61.906 60.2512C64.4649 54.2449 71.0026 56.1182 72.9522 61.2127C70.9777 57.4195 67.4696 56.327 64.7143 58.5369C63.0125 59.9052 61.8358 62.2974 61.5662 64.939C61.3527 67.0445 61.7532 69.3915 62.668 70.7801C61.6317 69.8824 60.0234 64.6678 61.906 60.2512Z"
            fill="#723C27" />
        <path
            d="M72.5622 63.2125C73.5203 65.8541 72.5533 68.9008 70.4049 70.0183C68.2547 71.1357 65.7363 69.8998 64.7783 67.2582C63.8203 64.6167 64.7872 61.5699 66.9356 60.4525C69.0858 59.3366 71.606 60.5725 72.5622 63.2125Z"
            fill="#252937" />
        <path
            d="M70.8631 62.5119C71.1091 63.2054 70.8615 64.0051 70.3102 64.3002C69.7589 64.5938 69.1136 64.2692 68.8693 63.5757C68.625 62.8822 68.8709 62.0825 69.4222 61.7874C69.9719 61.4938 70.6172 61.8184 70.8631 62.5119Z"
            fill="#FEFFFE" />
        <path
            d="M91.0748 60.6893C88.8306 64.6103 89.2779 68.8259 91.4192 70.3563C94.6452 72.6613 102.096 73.0836 104.741 69.4867C107.303 66.002 105.783 59.8758 101.312 57.3776C97.399 55.1911 93.2457 56.8944 91.0748 60.6893Z"
            fill="#F9FEFF" />
        <path
            d="M104.867 59.1167C101.246 53.2943 93.1238 55.6055 90.998 60.8232C93.2407 56.9037 97.595 55.5759 101.214 57.5956C103.45 58.8455 105.09 61.1551 105.602 63.7718C106.009 65.8585 105.657 68.2289 104.594 69.6767C105.842 68.7105 107.529 63.3977 104.867 59.1167Z"
            fill="#723C27" />
        <path
            d="M102.879 62.0947C103.914 64.7301 102.828 67.7846 100.451 68.9161C98.076 70.0475 95.3113 68.8304 94.275 66.195C93.2402 63.5597 94.3264 60.5067 96.703 59.3737C99.0797 58.2407 101.844 59.4594 102.879 62.0947Z"
            fill="#252937" />
        <path
            d="M100.745 62.006C101.031 62.7369 100.731 63.5847 100.071 63.898C99.4121 64.2112 98.6453 63.873 98.3586 63.1421C98.0718 62.4112 98.3726 61.5634 99.0318 61.2502C99.6895 60.9369 100.458 61.2751 100.745 62.006Z"
            fill="#FEFFFE" />
        <path
            d="M71.4386 43.197C67.4459 41.8505 62.5555 43.0568 59.5882 46.063C58.9913 46.6677 59.0162 47.69 59.6178 48.3181C59.9419 48.6563 60.369 48.8137 60.7851 48.7934C61.1451 48.7763 61.4708 48.5955 61.77 48.3399C63.9471 46.4807 67.5877 45.5098 70.5784 46.2344C71.395 46.4324 72.2287 46.0396 72.4688 45.2027C72.7056 44.3643 72.2428 43.4682 71.4386 43.197Z"
            fill="black" />
        <path
            d="M107.836 45.0095C103.98 41.4671 96.3282 40.7923 91.416 42.8043C90.6009 43.1378 90.1614 44.0261 90.4669 44.8552C90.7677 45.6827 91.6794 46.0583 92.5178 45.8058C97.3178 44.3611 102.977 45.1902 105.695 47.383C106.012 47.6401 106.379 47.7928 106.757 47.7944C107.197 47.796 107.635 47.6199 107.951 47.2676C108.542 46.6131 108.486 45.6079 107.836 45.0095Z"
            fill="black" />
        <path
            d="M104.786 130.553C108.932 133.751 116.716 137.508 121.73 139.021C126.48 129.775 129.7 124.018 130.278 121.308C131.337 116.327 129.338 110.606 127.486 107.77C125.724 105.071 121.446 103.743 120.565 103.433C117.798 107.888 112.803 114.766 111.914 116.583C109.773 120.965 106.747 126.791 104.786 130.553Z"
            fill="#FF9B06" />
        <path
            d="M74.4322 109.161C75.5138 107.806 77.5257 106.534 77.8374 105.664C77.2779 104.609 75.6587 103.627 74.4587 103.065C70.4535 101.188 63.7849 98.07 62.7002 97.7178C61.5719 98.3147 61.8072 100.037 62.4929 100.872C63.8659 102.544 67.1122 104.098 69.5418 105.625C70.2556 106.073 71.6582 107.422 74.4322 109.161Z"
            fill="#FFC19F" />
        <path
            d="M76.0422 108.585C78.3129 110.078 81.9908 112.409 82.7763 113.407C84.0511 115.024 81.344 120.756 80.0568 119.597C77.1892 115.45 74.7986 114.816 72.8988 114.426C73.2744 113.508 75.0775 109.01 76.0422 108.585Z"
            fill="#F29D77" />
        <path
            d="M75.007 103.347C73.4252 103.576 71.3026 104.824 69.8501 105.811C70.1462 106.037 70.6589 106.398 71.421 106.911C73.0963 106.141 75.7831 104.924 76.6855 104.425C76.1618 104.012 75.579 103.648 75.007 103.347Z"
            fill="#F29D77" />
        <path
            d="M67.9099 112.55C68.1203 113.14 68.7125 114.3 69.7785 114.133C70.5032 115.584 71.4429 116.089 72.3328 115.401C72.4388 117.82 76.6746 117.418 76.9598 116.692C77.337 115.729 77.4975 114.711 77.284 114.281C76.8663 113.443 76.0497 113.711 75.6009 114.354C75.4544 114.565 75.339 114.814 75.1458 114.893C74.9899 114.797 74.8715 113.827 75.3032 113.595C75.9422 113.251 76.4487 112.983 77.6019 112.56C80.0752 114.685 77.1235 118.448 79.1432 120.903C80.563 122.63 83.5599 122.371 84.9032 121.21C86.7017 119.654 87.1287 116.46 87.6804 114.777C84.9079 111.597 78.0352 105.047 76.3411 103.93C74.5411 102.745 68.4616 107.198 68.1187 107.597C67.4658 108.353 67.232 109.741 67.9099 112.55Z"
            fill="#FFC19F" />
        <path
            d="M70.4894 108.817C71.0909 108.415 72.213 107.665 73.3507 107.04C73.4271 107 73.5221 107.026 73.5626 107.103C73.6032 107.178 73.5751 107.273 73.5019 107.315C72.3735 107.933 71.2608 108.678 70.6608 109.077C70.4582 109.213 70.3102 109.313 70.2338 109.359C69.9314 109.512 69.3346 111.783 70.1216 114.727C70.0281 114.652 69.8021 114.209 69.7382 114.086C69.1756 111.625 69.5231 109.425 70.0701 109.093C70.1465 109.045 70.2914 108.949 70.4894 108.817Z"
            fill="#F29D77" />
        <path
            d="M72.7965 110.994C73.4012 110.59 74.5264 109.836 75.6765 109.205C75.7529 109.164 75.848 109.191 75.8885 109.267C75.929 109.344 75.9009 109.437 75.8277 109.479C74.6885 110.104 73.5695 110.852 72.9695 111.253C72.7747 111.382 72.6329 111.477 72.5581 111.522C72.1731 111.756 72.6189 116.212 72.5815 116.241C72.5191 116.109 72.3274 115.429 72.2635 115.274C72.064 113.244 71.902 111.505 72.396 111.254C72.4724 111.218 72.6064 111.119 72.7965 110.994Z"
            fill="#F29D77" />
        <path
            d="M40.7569 105.395L27.8981 103.921C27.5038 103.869 27.1844 103.576 27.0971 103.188L17.3022 59.059C17.229 58.7271 17.5064 58.4232 17.8446 58.4668L30.7033 59.9411C31.0976 59.9926 31.4187 60.2855 31.5044 60.6736L41.2992 104.803C41.3725 105.135 41.0935 105.438 40.7569 105.395Z"
            fill="#8E8E8E" />
        <path d="M17.7992 59.6466L16.1285 60.2731L16.1145 59.0637L17.6262 58.4902L17.7992 59.6466Z"
            fill="#939393" />
        <path d="M40.9875 105.359L39.3168 105.987L39.1454 104.848L40.8145 104.204L40.9875 105.359Z"
            fill="#939393" />
        <path
            d="M40.0327 105.718L30.0305 60.6519C30.0056 60.5366 29.909 60.4493 29.7905 60.4353L16.5063 58.9158L16.1167 59.0638L16.1323 60.2732L17.4632 59.7729L27.1006 103.187C27.1864 103.575 27.5074 103.868 27.9017 103.919L39.2051 105.216L39.2971 105.827L39.6399 105.866L40.0327 105.718Z"
            fill="#7F7F7F" />
        <path
            d="M39.2073 105.984L26.3486 104.51C25.9543 104.458 25.6332 104.165 25.5475 103.777L15.7527 59.6482C15.6794 59.3162 15.9568 59.0123 16.295 59.0559L29.1538 60.5302C29.5481 60.5817 29.8675 60.8747 29.9548 61.2627L39.7497 105.392C39.8229 105.722 39.5455 106.028 39.2073 105.984Z"
            fill="#B5B5B5" />
        <path
            d="M24.6943 68.751C24.9686 69.8653 24.8143 70.8019 24.3546 70.8705C23.8948 70.9406 23.287 70.1177 22.9878 69.0081C22.6808 67.8658 22.8179 66.8575 23.3011 66.7842C23.7842 66.711 24.4122 67.6055 24.6943 68.751Z"
            fill="#7C7C7C" />
        <path
            d="M19.5685 80.9427C20.4288 80.9645 22.5888 81.7749 23.7576 82.5011C24.5368 82.9842 24.8532 84.5224 23.4194 84.9619C22.3051 85.3032 19.3628 84.0689 19.1508 83.9629C17.3789 83.0684 18.049 80.9037 19.5685 80.9427Z"
            fill="#FFC19F" />
        <path
            d="M19.769 85.088C20.6838 85.0443 23.0683 85.7145 24.1109 86.1726C24.9072 86.5217 25.4574 87.9321 23.9612 88.6069C22.7986 89.1321 19.5321 88.141 19.3171 88.0662C17.9378 87.5877 17.9519 85.1737 19.769 85.088Z"
            fill="#FFC19F" />
        <path
            d="M20.6344 89.5204C21.462 89.3334 22.9394 89.3786 24.0646 89.497C25.0464 89.6015 25.6511 91.2768 24.3529 91.9469C23.3227 92.4784 21.2453 92.5532 21.0287 92.4971C19.0058 91.9843 19.4671 89.7854 20.6344 89.5204Z"
            fill="#FFC19F" />
        <path
            d="M21.9087 93.7156C22.3295 93.2606 23.8957 92.6621 24.7295 92.8741C25.3451 93.0315 26.1336 94.099 25.5897 94.8533C25.2438 95.3318 24.4162 96.0206 23.3035 96.2138C21.9975 96.4414 20.9269 94.7754 21.9087 93.7156Z"
            fill="#FFC19F" />
        <path
            d="M81.1864 119.837C82.3895 117.677 85.5407 115.219 87.5979 114.745C93.7413 120.529 102.035 128.832 116.878 137.24C113.412 141.632 108.615 145.451 102.684 143.181C96.1397 140.676 87.0103 128.513 81.1864 119.837Z"
            fill="#FFC19F" />
        <path
            d="M10.4816 50.6542C10.6328 51.0189 11.0286 51.209 11.3995 51.1093L11.4977 51.0766C11.8936 50.9114 12.0821 50.4579 11.9185 50.062L9.23173 43.5742C9.06654 43.1752 8.60991 42.9991 8.21562 43.1519C7.81978 43.3171 7.63121 43.7706 7.79328 44.168L10.4816 50.6542ZM16.4583 49.0272C16.3445 49.4418 16.5892 49.8703 17.0022 49.9857C17.1409 50.0246 17.2796 50.0215 17.4089 49.9857C17.6661 49.9171 17.8811 49.7176 17.959 49.4418L19.8261 42.6719C19.9414 42.2573 19.6983 41.8287 19.2822 41.715C18.8739 41.5981 18.4422 41.8396 18.3268 42.2573L16.4583 49.0272ZM0.599483 52.8657L7.43484 54.4693C7.56419 54.4974 7.69354 54.4943 7.81354 54.4615C8.08004 54.3898 8.30134 54.1763 8.36835 53.888C8.46653 53.4688 8.20783 53.0511 7.78861 52.9529L0.954809 51.3493C0.538703 51.2558 0.117922 51.5114 0.0212981 51.9306C-0.0784426 52.3498 0.181818 52.7675 0.599483 52.8657Z"
            fill="#B5B5B5" />
    </g>
    <path
        d="M245.175 108.962C253.243 87.7624 251.413 76.2096 241.912 31.8452H160.081C150.794 67.208 150.964 86.8304 151.651 99.658C151.984 93.5317 150.562 80.8397 158.756 49.9778C151.344 88.9499 151.115 101.444 158.285 108.072C153.753 99.6705 157.699 76.4511 158.848 73.5259C158.804 81.8854 157.562 97.8486 161.673 110.019C178.487 119.552 224.53 117.39 237.807 112.832C239.044 109.701 239.424 89.3566 239.716 85.2766C240.716 90.8107 241.143 105.396 240.227 112.551C245.901 105.406 247.651 80.595 243.715 48.1902C249.565 73.6896 249.853 91.6133 245.175 108.962Z"
        fill="#252937" />
    <path opacity="0.12"
        d="M249.046 242.025C249.046 244.117 228.016 245.814 202.073 245.814C176.131 245.814 155.1 244.118 155.1 242.025C155.1 239.932 176.131 238.237 202.073 238.237C228.016 238.237 249.046 239.932 249.046 242.025Z"
        fill="black" />
    <path
        d="M207.793 226.466C207.813 227.935 220.915 229.397 221.061 227.931C222.478 213.682 228.804 174.708 229.684 169.067L209.421 170.245C209.661 184.304 207.655 216.275 207.793 226.466Z"
        fill="#FDCAAE" />
    <path
        d="M194.839 225.92C194.664 227.379 181.394 227.345 181.403 225.869C181.491 211.55 181.824 173.064 181.539 167.36L201.069 169.863C199.35 183.82 196.05 215.801 194.839 225.92Z"
        fill="#FDCAAE" />
    <path
        d="M205.873 234.35C205.888 234.765 222.19 235.414 222.23 234.913C222.55 230.87 223.134 225.286 223.326 222.735L205.937 222.291C206.083 226.905 205.768 231.694 205.873 234.35Z"
        fill="#FCF6B4" />
    <path
        d="M226.936 229.645C226.696 228.735 226.191 227.582 225.803 226.527C225.515 225.744 217.882 225.805 217.844 227.682C217.835 228.162 217.851 228.585 217.888 228.97C216.582 228.972 215.165 228.945 213.671 228.878C210.42 228.733 207.507 228.444 205.466 228.102C205.308 231.066 205.525 236.203 205.378 239.498C205.378 239.498 239.376 246.154 244.784 241.26C246.305 239.88 237.807 233.625 226.936 229.645Z"
        fill="#E87903" />
    <path
        d="M205.424 237.43C205.416 238.162 205.405 238.87 205.377 239.496C205.377 239.496 239.375 246.152 244.782 241.259C244.997 241.064 245.01 240.771 244.848 240.403C235.433 242.365 213.877 238.926 205.424 237.43Z"
        fill="#752B01" />
    <path
        d="M229.313 230.624C229.572 230.677 229.826 230.523 229.883 230.265C229.943 230.008 229.782 229.753 229.527 229.693C227.552 229.248 225.239 230.144 223.904 231.886C223.743 232.095 223.782 232.394 223.991 232.555C224.072 232.616 224.166 232.648 224.259 232.653C224.409 232.659 224.56 232.595 224.658 232.468C225.777 231.01 227.691 230.245 229.313 230.624ZM231.922 231.85C232.181 231.9 232.421 231.698 232.453 231.436C232.486 231.174 232.301 230.937 232.039 230.904C229.955 230.641 227.892 231.406 226.371 232.988C226.188 233.178 226.195 233.481 226.385 233.663C226.47 233.745 226.583 233.789 226.693 233.795C226.826 233.802 226.96 233.752 227.058 233.65C228.85 231.783 230.873 231.721 231.922 231.85ZM234.793 232.256C232.916 231.914 230.494 232.759 228.889 234.3C228.699 234.483 228.693 234.783 228.875 234.974C228.962 235.065 229.079 235.114 229.198 235.118C229.324 235.125 229.45 235.081 229.55 234.986C230.948 233.643 233.042 232.884 234.624 233.192C234.891 233.244 235.132 233.066 235.178 232.807C235.224 232.549 235.051 232.301 234.793 232.256Z"
        fill="#D2DAE5" />
    <path
        d="M195.769 234.793C195.73 235.206 180.082 235.02 180.038 234.518C179.692 230.565 179.225 224.379 178.971 222.249L196.36 222.746C195.962 227.348 196.017 232.147 195.769 234.793Z"
        fill="#FCF6B4" />
    <path
        d="M175.347 229.645C175.587 228.735 176.092 227.582 176.482 226.527C176.77 225.744 184.403 225.805 184.441 227.682C184.45 228.162 184.435 228.585 184.397 228.97C185.703 228.972 187.12 228.945 188.614 228.878C191.865 228.733 194.778 228.444 196.82 228.102C196.977 231.066 196.76 236.203 196.907 239.498C196.907 239.498 162.909 246.154 157.503 241.26C155.98 239.88 164.477 233.625 175.347 229.645Z"
        fill="#E87903" />
    <path
        d="M196.862 237.43C196.868 238.162 196.88 238.87 196.908 239.496C196.908 239.496 162.911 246.152 157.505 241.259C157.289 241.064 157.277 240.771 157.439 240.403C166.851 242.365 188.407 238.926 196.862 237.43Z"
        fill="#752B01" />
    <path
        d="M177.626 232.468C177.724 232.597 177.875 232.661 178.025 232.653C178.118 232.648 178.212 232.617 178.293 232.555C178.502 232.394 178.54 232.095 178.38 231.886C177.043 230.144 174.732 229.248 172.757 229.693C172.501 229.753 172.341 230.008 172.4 230.265C172.458 230.523 172.712 230.677 172.971 230.624C174.593 230.245 176.507 231.01 177.626 232.468ZM175.227 233.65C175.325 233.753 175.459 233.802 175.592 233.795C175.703 233.791 175.813 233.745 175.9 233.663C176.091 233.481 176.095 233.178 175.913 232.988C174.392 231.406 172.327 230.641 170.245 230.904C169.983 230.937 169.798 231.174 169.83 231.436C169.863 231.698 170.103 231.9 170.362 231.85C171.411 231.721 173.433 231.783 175.227 233.65ZM167.106 232.807C167.153 233.066 167.393 233.244 167.659 233.192C169.241 232.884 171.336 233.644 172.734 234.986C172.832 235.081 172.96 235.125 173.086 235.118C173.204 235.114 173.32 235.064 173.409 234.974C173.591 234.783 173.585 234.483 173.394 234.3C171.789 232.759 169.366 231.914 167.49 232.256C167.232 232.301 167.059 232.549 167.106 232.807Z"
        fill="#D2DAE5" />
    <path
        d="M177.632 155.357C193.696 160.72 220.318 159.808 234.038 152.684C234.038 152.684 229.181 103.86 226.721 93.323C214.746 94.4918 193.36 96.1266 181.824 97.7537C180.532 111.303 179.122 135.855 177.632 155.357Z"
        fill="#FF9B06" />
    <path
        d="M218.317 96.2044C218.289 95.4891 218.109 94.8127 217.88 94.1504C210.52 94.2797 199.514 95.059 191.728 96.3525C191.694 96.6642 191.588 96.9634 191.6 97.2844C191.825 102.818 197.985 107.062 205.363 106.763C212.742 106.465 218.541 101.737 218.317 96.2044Z"
        fill="#FFC19F" />
    <path
        d="M213.934 81.3945L214.804 96.9977C214.991 100.353 210.878 103.311 205.617 103.604C200.357 103.897 195.941 101.414 195.754 98.059L194.885 82.4558L213.934 81.3945Z"
        fill="#FFC19F" />
    <path
        d="M229.691 150.861C224.524 152.24 192.62 154.018 186.121 154.082C186.121 154.082 187.29 127.47 186.925 113.996C195 113.372 218.881 112.08 226.025 112.052C227.015 120 227.236 131.714 229.691 150.861Z"
        fill="#224966" />
    <path
        d="M192.824 116.689L190.388 116.821C190.182 116.832 190.002 116.67 189.991 116.464L189.776 112.495L188.375 112.571C188.169 112.582 187.988 112.42 187.977 112.214L187.837 109.618C187.826 109.412 187.988 109.231 188.194 109.221L193.898 108.91C194.103 108.9 194.284 109.062 194.295 109.267L194.435 111.864C194.446 112.069 194.284 112.25 194.079 112.261L192.966 112.322L193.181 116.291C193.193 116.497 193.03 116.678 192.824 116.689ZM190.725 116.047L192.406 115.955L192.191 111.985C192.18 111.78 192.342 111.599 192.548 111.588L193.661 111.527L193.561 109.685L188.611 109.953L188.711 111.795L190.112 111.719C190.318 111.708 190.499 111.87 190.51 112.076L190.725 116.047Z"
        fill="#BAEBF4" />
    <path
        d="M189.956 116.564C190.161 117.511 191.094 118.115 192.04 117.91C192.986 117.706 193.588 116.773 193.382 115.825C193.178 114.878 192.244 114.275 191.298 114.479C190.352 114.683 189.752 115.616 189.956 116.564Z"
        fill="#F0FCFF" />
    <path
        d="M223.183 114.962L220.747 115.094C220.541 115.105 220.36 114.943 220.349 114.738L220.134 110.768L218.733 110.845C218.528 110.855 218.347 110.693 218.336 110.488L218.196 107.891C218.185 107.686 218.347 107.505 218.552 107.492L224.256 107.182C224.462 107.171 224.643 107.333 224.654 107.539L224.794 110.137C224.805 110.343 224.643 110.523 224.437 110.534L223.324 110.595L223.54 114.565C223.55 114.769 223.388 114.949 223.183 114.962ZM221.083 114.318L222.765 114.226L222.55 110.257C222.539 110.051 222.701 109.87 222.907 109.86L224.02 109.799L223.92 107.957L218.97 108.225L219.07 110.067L220.472 109.99C220.678 109.98 220.859 110.142 220.87 110.347L221.083 114.318Z"
        fill="#BAEBF4" />
    <path
        d="M219.297 108.412C219.243 107.994 218.88 99.1 217.687 94.074L221.905 93.6829C223.552 99.7078 223.667 107.728 223.725 108.172L219.297 108.412Z"
        fill="#224966" />
    <path
        d="M188.926 110.375C188.87 109.914 188.353 100.835 187.715 96.8154L191.897 96.2996C192.846 101.633 193.293 109.645 193.354 110.134L188.926 110.375Z"
        fill="#224966" />
    <path
        d="M220.315 114.836C220.519 115.783 221.453 116.386 222.399 116.182C223.345 115.978 223.945 115.044 223.74 114.097C223.536 113.149 222.603 112.546 221.657 112.75C220.711 112.955 220.111 113.888 220.315 114.836Z"
        fill="#F0FCFF" />
    <path opacity="0.21"
        d="M201.663 134.75L210.205 136.542L218.295 133.52L217.603 121.102H201.277L201.663 134.75Z"
        fill="black" />
    <path
        d="M202.312 133.888L210.249 135.802L217.995 132.948L217.407 121.257L201.969 121.88L202.312 133.888Z"
        fill="#306484" />
    <path
        d="M166.918 180.596C182.373 191.497 225.865 192.824 243.095 181.143C243.095 181.143 237.327 159.524 234.188 148.621C225.21 150.967 196.165 153.705 177.118 149.472C173.802 160.799 170.044 172.342 166.918 180.596Z"
        fill="#224966" />
    <path opacity="0.19"
        d="M224.177 89.137C222.462 95.1293 213.133 97.7147 203.342 94.9126C193.548 92.1106 187 84.9822 188.714 78.99C190.428 72.9993 199.757 70.4123 209.549 73.2144C219.342 76.0165 225.891 83.1448 224.177 89.137Z"
        fill="#601805" />
    <path
        d="M243.425 61.9251C242.566 69.853 236.094 75.5491 230.63 75.4478C225.166 75.3449 223.276 69.1548 223.209 61.6259C223.143 54.0971 227.519 48.0565 232.983 48.1781C240.453 48.3448 244.232 54.4758 243.425 61.9251Z"
        fill="#F4B18C" />
    <path
        d="M158.335 42.7548C157.079 72.3575 183.353 85.5763 206.875 82.4079C230.396 79.2396 244.776 56.5626 238.562 28.4529C235.114 12.845 221.697 3.98837 197.511 5.65903C179.494 6.90423 159.426 17.0248 158.335 42.7548Z"
        fill="#252937" />
    <path
        d="M168.365 33.8577C166.863 38.8899 175.782 80.5862 181.4 85.7649C187.36 91.26 209.719 93.4964 214.095 92.9057C218.784 92.2746 233.588 84.5026 236.638 77.1701C240.246 68.4942 237.073 32.1964 234.98 27.9683C227.906 13.6882 214.823 14.9366 197.798 17.229C181.872 19.375 172.261 20.8026 168.365 33.8577Z"
        fill="#FDCAAE" />
    <path
        d="M161.153 74.7342C164.401 82.5498 173.003 86.5379 178.823 84.9125C184.642 83.287 180.551 59.2838 169.564 58.6853C160.414 58.1882 158.1 67.3877 161.153 74.7342Z"
        fill="#FDCAAE" />
    <path
        d="M167.694 73.4748C168.633 76.838 172.878 79.1975 175.646 77.851C176.726 77.3258 173.167 65.6374 171.362 65.8867C168.312 66.306 166.754 70.1117 167.694 73.4748Z"
        fill="#E8AB8B" />
    <path
        d="M182.836 74.385C183.001 76.1008 185.519 77.2619 188.46 76.9783C191.401 76.6946 193.651 75.0754 193.486 73.3595C193.321 71.6437 190.802 70.4826 187.863 70.7663C184.921 71.0499 182.67 72.6707 182.836 74.385Z"
        fill="#FF9797" />
    <path
        d="M197.843 73.8707C197.973 70.9019 203.264 70.8692 210.152 69.8842C210.512 69.8328 211.914 69.6427 212.276 69.5959C219.177 68.7076 223.117 67.4297 223.844 70.3112C225.16 75.5165 220.179 82.6526 213.18 83.6251L213.058 83.6407C205.528 84.6692 197.594 79.5887 197.843 73.8707Z"
        fill="#701608" />
    <path
        d="M205.316 82.6821C206.98 80.6842 209.429 79.3501 212.17 78.9777C214.874 78.6099 217.519 79.2067 219.64 80.6405C218.489 81.6364 217.163 82.4873 215.695 83.0343C214.9 83.3304 214.051 83.5533 213.186 83.6733L213.065 83.6888C211.199 83.9444 209.309 83.8166 207.523 83.3974L207.386 83.3616C206.67 83.1886 205.988 82.9455 205.316 82.6821Z"
        fill="#DD6B5B" />
    <path
        d="M201.892 71.0873L201.845 70.9642C201.845 70.9642 209.539 69.7922 212.254 69.4463C214.843 69.1159 220.565 68.4224 220.565 68.4224L220.553 68.5548C220.338 70.7148 216.543 72.8343 211.724 73.4873C206.912 74.1388 202.685 73.1086 201.892 71.0873Z"
        fill="white" />
    <path
        d="M228.334 67.9128C228.632 69.4167 230.699 70.2739 232.954 69.8297C235.207 69.384 236.794 67.8053 236.496 66.3014C236.2 64.7975 234.13 63.9404 231.877 64.3845C229.623 64.8302 228.037 66.4105 228.334 67.9128Z"
        fill="#FF9797" />
    <path
        d="M207.559 67.3783C207.747 67.3534 207.894 67.196 207.9 66.9996C207.942 65.6111 208.897 64.5903 210.333 64.397C211.777 64.2022 212.996 64.9503 213.366 66.2547C213.425 66.4635 213.644 66.5851 213.852 66.5259C214.061 66.4666 214.182 66.2485 214.123 66.0381C213.649 64.3659 212.047 63.3684 210.227 63.6131C208.417 63.8562 207.164 65.2074 207.11 66.9731C207.104 67.1913 207.274 67.3721 207.492 67.3799L207.559 67.3783Z"
        fill="#C4735B" />
    <path
        d="M163.928 43.9344C161.012 43.5978 163.935 22.4637 177.252 14.6418C199.265 3.64228 215.8 5.84437 222.079 8.95815C231.216 13.487 239.379 20.6808 242.979 35.4767C245.125 44.3006 244.664 47.3209 249.476 48.8934C244.662 50.8321 244.404 49.8643 242.708 47.6092C242.964 54.9293 243.554 58.4093 246.698 60.2607C240.747 62.5018 239.152 59.1651 238.073 53.4269C236.272 43.8347 234.666 33.2045 233.445 30.8466C232.739 29.4829 226.714 21.7748 224.571 21.9229C219.898 22.2455 216.414 39.0954 199.896 40.4575C206.192 36.1827 209.312 30.7047 212.25 23.0434C211.034 23.9504 209.831 25.0226 208.661 26.299C196.335 39.7391 184.154 44.0061 172.422 44.1417C175.534 56.3194 178.802 71.8447 165.733 73.7086C166.9 71.9117 169.43 63.2358 165.261 57.1485C163.785 58.2846 164.457 52.1038 163.928 43.9344Z"
        fill="#252937" />
    <path
        d="M177.998 46.866C178.258 46.8099 178.498 46.6634 178.667 46.4328C180.82 43.4982 185.725 41.7714 190.085 42.4229C190.69 42.5164 191.261 42.0956 191.354 41.4831C191.444 40.8738 191.025 40.3065 190.414 40.2146C185.212 39.4416 179.511 41.5018 176.865 45.1159C176.502 45.613 176.608 46.3112 177.107 46.6759C177.373 46.8707 177.697 46.9299 177.998 46.866Z"
        fill="black" />
    <path
        d="M232.904 38.9786C233.197 38.9474 233.477 38.7978 233.663 38.5375C234.01 38.056 233.903 37.3843 233.421 37.0367C229.921 34.5105 224.086 34.3126 219.549 36.563C219.016 36.8279 218.8 37.4731 219.063 38.0045C219.33 38.5391 219.976 38.7557 220.505 38.4892C224.307 36.5988 229.319 36.7219 232.16 38.7775C232.383 38.9412 232.648 39.0051 232.904 38.9786Z"
        fill="black" />
    <path
        d="M219.019 63.5601C219.019 63.5601 229.525 65.9679 232.431 59.2198C235.973 50.9974 228.033 45.9792 223.609 47.7792C219.515 49.4468 216.279 54.3465 219.019 63.5601Z"
        fill="#F9FEFF" />
    <path
        d="M231.797 49.4343C229.556 46.933 226.949 46.4062 224.302 47.0951C221.595 47.7995 219.139 50.4987 218.692 52.9969C219.787 50.1013 222.198 48.7673 223.729 48.1439C226.166 47.1481 229.677 48.041 231.557 50.5486C233.229 52.7803 233.634 56.4161 232.335 59.4333C234.072 57.2655 234.131 52.0416 231.797 49.4343Z"
        fill="#773220" />
    <path
        d="M220.479 55.0088C219.954 57.8608 221.517 60.7969 223.97 61.5668C226.423 62.3366 228.839 60.6488 229.364 57.7969C229.889 54.9449 228.326 52.0088 225.872 51.2389C223.419 50.469 221.004 52.1568 220.479 55.0088Z"
        fill="black" />
    <path
        d="M220.721 54.1142C220.576 54.9059 221.009 55.7194 221.69 55.9329C222.371 56.1464 223.04 55.6789 223.186 54.8872C223.331 54.0955 222.898 53.282 222.217 53.0669C221.536 52.8534 220.867 53.3225 220.721 54.1142Z"
        fill="#FEFFFE" />
    <path
        d="M201.21 66.1098C201.21 66.1098 189.912 71.5472 184.533 65.9509C177.976 59.1326 185.541 51.9591 191.156 52.3643C196.35 52.7399 201.545 56.4693 201.21 66.1098Z"
        fill="#F9FEFF" />
    <path
        d="M182.284 56.3897C184.088 53.3258 186.914 52.0447 190.154 51.9154C193.467 51.7829 197.102 53.6375 198.372 55.8957C196.237 53.4489 193.07 52.8894 191.128 52.7491C188.034 52.5216 184.286 54.4229 182.896 57.3855C181.66 60.0209 182.302 63.624 184.709 66.1269C182.061 64.5669 180.403 59.5829 182.284 56.3897Z"
        fill="#773220" />
    <path
        d="M185.664 59.5517C184.961 62.4317 186.725 65.3367 189.607 66.0395C192.487 66.7424 195.39 64.9767 196.093 62.0967C196.796 59.2166 195.032 56.3117 192.152 55.6104C189.27 54.9075 186.367 56.6717 185.664 59.5517Z"
        fill="black" />
    <path
        d="M185.974 58.6463C185.779 59.4458 186.269 60.2499 187.068 60.4463C187.868 60.6411 188.673 60.1518 188.868 59.3523C189.063 58.5528 188.574 57.7471 187.774 57.5523C186.976 57.3575 186.171 57.8468 185.974 58.6463Z"
        fill="#FEFFFE" />
    <path
        d="M163.763 49.16C163.856 27.7126 174.413 13.0569 196.54 8.10887C214.01 4.20184 228.351 10.1832 232.687 16.1629C227.304 13.0398 217.548 8.45641 198.083 12.0066C185.494 14.3037 166.828 24.4663 163.763 49.16Z"
        fill="#F49000" />
    <path opacity="0.5"
        d="M236.876 158.203C235.904 154.679 234.964 151.321 234.188 148.621C232.966 148.941 231.347 149.267 229.46 149.581C229.926 153.652 232.775 157.148 236.876 158.203Z"
        fill="black" />
    <path opacity="0.5"
        d="M185.851 150.87C182.798 150.529 179.848 150.078 177.118 149.472C176.247 152.447 175.344 155.435 174.433 158.376C175.7 158.608 177.029 158.602 178.361 158.305C182.184 157.453 184.958 154.476 185.851 150.87Z"
        fill="black" />
    <path
        d="M217.162 118.825C214.816 119.254 211.695 119.284 209.596 119.439C209.596 119.439 209.256 119.488 209.179 119.544C210.305 121.197 209.691 123.622 208.252 123.586C208.862 124.808 207.35 127.782 205.463 127.077C205.65 127.536 206.321 129.306 203.733 129.828C201.295 130.32 198.096 130.087 197.03 130.144C193.55 129.613 192.493 123.454 192.694 122.188C193.218 118.899 199.578 115.292 202.466 114.66C204.225 114.275 211.054 114.021 218.984 115.493C220.238 117.128 218.91 118.506 217.162 118.825Z"
        fill="#FDCAAE" />
    <path
        d="M163.45 125.572C164.739 127.964 168.306 130.85 169.908 131.24C171.141 128.94 174.884 119.798 177.393 115.071C177.442 114.636 169.746 110.657 168.099 111.251C166.665 114.58 164.095 123.295 163.45 125.572Z"
        fill="#FFC19F" />
    <path
        d="M261.59 91.1067C261.302 91.3997 260.844 91.4278 260.524 91.1862L260.442 91.1161C260.125 90.8013 260.121 90.2885 260.432 89.9706L265.575 84.7514C265.892 84.4303 266.403 84.4397 266.724 84.742C267.042 85.0584 267.046 85.5696 266.733 85.889L261.59 91.1067ZM256.452 87.1904C256.399 87.6361 255.995 87.954 255.55 87.9026C255.402 87.8854 255.268 87.8293 255.155 87.7436C254.934 87.5768 254.805 87.2994 254.837 87.0033L255.688 79.7269C255.738 79.2812 256.143 78.9633 256.589 79.0147C257.03 79.0615 257.353 79.4636 257.3 79.914L256.452 87.1904ZM270.275 97.1208L263.038 95.9893C262.902 95.966 262.779 95.913 262.675 95.8335C262.444 95.659 262.315 95.366 262.363 95.0621C262.433 94.6179 262.848 94.3156 263.29 94.3841L270.528 95.5156C270.966 95.5888 271.274 96.0003 271.203 96.4429C271.134 96.887 270.718 97.1894 270.275 97.1208Z"
        fill="#FFAA00" />
    <path
        d="M160.596 121.536C164.441 124.219 171.833 130.024 175.921 132.001C178.64 129.501 183.937 124.508 184.41 124.015C187.106 115.135 184.251 97.7755 184.241 97.311C177.774 98.6918 176.086 100.8 174.551 102.03C171.608 106.027 165.482 114.35 160.596 121.536Z"
        fill="#FF9B06" />
    <path
        d="M199.872 127.662C200.045 126.025 197.701 121.027 194.416 120.013C184.383 121.983 166.328 124.9 163.459 125.575C162.273 134.902 166.462 136.71 170.536 136.883C174.77 137.064 193.021 130.464 199.872 127.662Z"
        fill="#FDCAAE" />
    <path
        d="M255.176 96.5144L242.439 136.495C242.263 137.078 241.668 137.383 241.037 137.324H210.424C209.632 137.249 208.822 135.681 209.045 134.952L221.903 92.5139C222.08 91.931 222.675 91.5461 223.308 91.6069L253.556 94.462C254.346 94.5352 255.396 95.7851 255.176 96.5144Z"
        fill="#EDEDED" />
    <path
        d="M255.444 97.0255L243.156 137.341C242.98 137.924 242.385 138.307 241.753 138.248L210.935 137.516C210.143 137.441 209.626 136.711 209.847 135.982L222.706 93.5439C222.882 92.9611 223.478 92.5761 224.109 92.6369L254.357 95.492C255.148 95.5652 255.666 96.2961 255.444 97.0255Z"
        fill="#C9C9C9" />
    <path opacity="0.28"
        d="M219.464 104.241L217.834 109.624L253.097 104.773L254.728 99.3899L219.464 104.241Z"
        fill="white" />
    <path opacity="0.28"
        d="M250.673 95.1445L254.357 95.4921C254.957 95.5482 255.395 95.9799 255.479 96.5035L220.345 101.338L220.984 99.2292L250.673 95.1445Z"
        fill="white" />
    <path opacity="0.28"
        d="M245.417 130.116L245.991 128.226L210.726 133.077L210.154 134.969L245.417 130.116Z"
        fill="white" />
    <path
        d="M237.427 105.603C239.556 106.14 240.782 108.217 240.168 110.244C239.554 112.272 237.33 113.481 235.203 112.945C233.074 112.409 231.848 110.332 232.462 108.304C233.076 106.277 235.298 105.067 237.427 105.603Z"
        fill="#EFEFEF" />
    <path opacity="0.19"
        d="M248.604 120.225C246.785 119.619 244.794 119.633 244.462 120.388C244.234 120.904 244.775 121.948 246.048 122.623C245.423 122.508 244.915 122.584 244.632 122.901C244.103 123.494 244.499 124.735 245.509 126.005C244.429 125.34 243.452 125.115 242.956 125.516C242.459 125.918 242.419 127.115 243.734 128.923C242.816 128.262 241.806 127.804 241.346 128.168C240.784 128.616 240.469 129.875 242.087 131.768C242.805 132.61 243.525 133.238 244.195 133.696L248.604 120.225Z"
        fill="black" />
    <path
        d="M247.164 133.841C247.644 133.509 247.46 132.388 246.678 130.953C247.925 131.91 249.142 132.312 249.7 131.862C250.363 131.325 249.863 129.769 248.598 128.227C250.027 129.142 251.39 129.438 251.919 128.844C252.488 128.205 251.902 126.756 250.605 125.391C251.757 125.698 253.173 125.902 253.424 125.201C253.882 123.92 252.252 122.377 250.376 121.326C248.5 120.276 245.727 120.1 245.344 120.973C245.133 121.451 245.635 122.421 246.816 123.047C246.237 122.939 245.764 123.01 245.501 123.306C245.012 123.856 245.378 125.008 246.316 126.187C245.314 125.569 244.407 125.361 243.947 125.732C243.484 126.105 243.447 127.217 244.667 128.894C243.816 128.282 242.878 127.855 242.451 128.195C241.929 128.611 241.636 129.78 243.139 131.536C244.723 133.389 246.379 134.383 247.164 133.841Z"
        fill="#FDCAAE" />
    <defs>
        <clipPath id="clip0_453_4672">
            <rect width="147.001" height="245.814" fill="white" />
        </clipPath>
    </defs>
</svg>