<svg width="160" height="105" viewBox="0 0 160 105" fill="none" xmlns="http://www.w3.org/2000/svg">
<path d="M52.4602 -10.4C53.3961 -14.2668 58.3596 -15.3819 60.8595 -12.287L85.4095 18.106C86.4022 19.3349 87.9361 19.9967 89.5112 19.8757L128.466 16.8822C132.433 16.5774 135.027 20.9534 132.856 24.2873L111.537 57.0277C110.675 58.3516 110.52 60.0149 111.122 61.4756L126.006 97.5988C127.522 101.277 124.162 105.097 120.32 104.062L82.5942 93.9041C81.0687 93.4933 79.4388 93.8595 78.2356 94.8833L48.48 120.202C45.4501 122.78 40.779 120.765 40.5757 116.792L38.5789 77.7732C38.4981 76.1954 37.6462 74.7584 36.3007 73.9304L3.02611 53.4552C-0.36219 51.3702 0.111086 46.305 3.827 44.8838L40.3188 30.9274C41.7944 30.363 42.8978 29.1087 43.2694 27.5732L52.4602 -10.4Z" fill="#FFEDD1"/>
<path d="M149.424 36.8678C150.385 35.8055 152.147 36.3057 152.406 37.7143L154.949 51.5476C155.052 52.107 155.423 52.5799 155.942 52.8123L168.779 58.5598C170.086 59.145 170.155 60.9751 168.895 61.6567L156.525 68.3499C156.025 68.6206 155.69 69.12 155.629 69.6855L154.13 83.6705C153.977 85.0945 152.258 85.7254 151.221 84.738L141.032 75.0414C140.62 74.6493 140.042 74.485 139.485 74.6021L125.721 77.4978C124.32 77.7927 123.189 76.3525 123.807 75.0607L129.881 62.3746C130.126 61.8616 130.104 61.2606 129.82 60.7675L122.813 48.5722C122.1 47.3304 123.12 45.8094 124.54 45.9985L138.482 47.8546C139.045 47.9297 139.61 47.7225 139.991 47.3007L149.424 36.8678Z" fill="#FFEDD1"/>
<mask id="mask0_8493_5319" style="mask-type:luminance" maskUnits="userSpaceOnUse" x="-8" y="-7" width="177" height="177">
<path d="M168.948 -6.57178H-7.41184V169.788H168.948V-6.57178Z" fill="white"/>
</mask>
<g mask="url(#mask0_8493_5319)">
<mask id="mask1_8493_5319" style="mask-type:luminance" maskUnits="userSpaceOnUse" x="-8" y="-7" width="177" height="177">
<path d="M168.947 -6.57129H-7.41184V169.788H168.947V-6.57129Z" fill="white"/>
</mask>
<g mask="url(#mask1_8493_5319)">
<path d="M95.9556 129.463C95.2012 129.463 94.5893 128.851 94.5893 128.096V97.3756C94.5893 96.6186 95.2012 96.0093 95.9556 96.0093C96.71 96.0093 97.322 96.6186 97.322 97.3756V128.096C97.322 128.851 96.71 129.463 95.9556 129.463Z" fill="#AFAFAF"/>
</g>
<mask id="mask2_8493_5319" style="mask-type:luminance" maskUnits="userSpaceOnUse" x="-8" y="-7" width="177" height="177">
<path d="M168.947 -6.57129H-7.41184V169.788H168.947V-6.57129Z" fill="white"/>
</mask>
<g mask="url(#mask2_8493_5319)">
<path d="M62.6302 129.463C61.8759 129.463 61.2639 128.851 61.2639 128.096V97.3756C61.2639 96.6186 61.8759 96.0093 62.6302 96.0093C63.3846 96.0093 63.9966 96.6186 63.9966 97.3756V128.096C63.9966 128.851 63.3846 129.463 62.6302 129.463Z" fill="#AFAFAF"/>
</g>
<mask id="mask3_8493_5319" style="mask-type:luminance" maskUnits="userSpaceOnUse" x="-8" y="-7" width="177" height="177">
<path d="M168.947 -6.57129H-7.41184V169.788H168.947V-6.57129Z" fill="white"/>
</mask>
<g mask="url(#mask3_8493_5319)">
<path d="M76.1495 105.344C75.4908 112.503 74.8789 119.045 74.5125 123.42H67.9541C67.7738 118.977 67.3937 112.394 66.9894 105.352C66.8364 102.663 68.9488 100.365 71.5527 100.4L71.8808 100.405C74.4362 100.441 76.3898 102.707 76.1495 105.344Z" fill="#FFC19F"/>
</g>
<mask id="mask4_8493_5319" style="mask-type:luminance" maskUnits="userSpaceOnUse" x="-8" y="-7" width="177" height="177">
<path d="M168.947 -6.57129H-7.41184V169.788H168.947V-6.57129Z" fill="white"/>
</mask>
<g mask="url(#mask4_8493_5319)">
<path d="M81.9672 105.344C82.6259 112.503 83.2379 119.045 83.6043 123.42H90.1626C90.343 118.977 90.723 112.394 91.1273 105.352C91.2803 102.663 89.168 100.365 86.564 100.4L86.236 100.405C83.6805 100.441 81.7265 102.707 81.9672 105.344Z" fill="#FFC19F"/>
</g>
<mask id="mask5_8493_5319" style="mask-type:luminance" maskUnits="userSpaceOnUse" x="-8" y="-7" width="177" height="177">
<path d="M168.947 -6.57129H-7.41184V169.788H168.947V-6.57129Z" fill="white"/>
</mask>
<g mask="url(#mask5_8493_5319)">
<path d="M132.318 150.026C133.584 150.026 134.608 148.876 134.608 147.452V105.698C134.608 104.276 133.584 103.124 132.318 103.124C131.05 103.124 130.028 104.277 130.028 105.698V147.452C130.028 148.876 131.05 150.026 132.318 150.026Z" fill="#C2C4C4"/>
</g>
<mask id="mask6_8493_5319" style="mask-type:luminance" maskUnits="userSpaceOnUse" x="-8" y="-7" width="177" height="177">
<path d="M168.947 -6.57129H-7.41184V169.788H168.947V-6.57129Z" fill="white"/>
</mask>
<g mask="url(#mask6_8493_5319)">
<path d="M120.459 138.808C121.727 138.808 122.751 137.654 122.751 136.234V94.4762C122.751 93.0552 121.727 91.9022 120.459 91.9022C119.193 91.9022 118.169 93.0556 118.169 94.4762V136.234C118.169 137.655 119.194 138.808 120.459 138.808Z" fill="#AFAFAF"/>
</g>
<mask id="mask7_8493_5319" style="mask-type:luminance" maskUnits="userSpaceOnUse" x="-8" y="-7" width="177" height="177">
<path d="M168.947 -6.57129H-7.41184V169.788H168.947V-6.57129Z" fill="white"/>
</mask>
<g mask="url(#mask7_8493_5319)">
<path d="M29.7987 150.026C28.5333 150.026 27.5087 148.876 27.5087 147.452V105.698C27.5087 104.276 28.5333 103.124 29.7987 103.124C31.0641 103.124 32.0887 104.277 32.0887 105.698V147.452C32.0887 148.876 31.0641 150.026 29.7987 150.026Z" fill="#C2C4C4"/>
</g>
<mask id="mask8_8493_5319" style="mask-type:luminance" maskUnits="userSpaceOnUse" x="-8" y="-7" width="177" height="177">
<path d="M168.947 -6.57129H-7.41184V169.788H168.947V-6.57129Z" fill="white"/>
</mask>
<g mask="url(#mask8_8493_5319)">
<path d="M41.6553 138.808C40.39 138.808 39.3653 137.654 39.3653 136.234V94.4762C39.3653 93.0552 40.39 91.9022 41.6553 91.9022C42.9234 91.9022 43.9454 93.0556 43.9454 94.4762V136.234C43.9449 137.655 42.9229 138.808 41.6553 138.808Z" fill="#AFAFAF"/>
</g>
<mask id="mask9_8493_5319" style="mask-type:luminance" maskUnits="userSpaceOnUse" x="-8" y="-7" width="177" height="177">
<path d="M168.947 -6.57129H-7.41184V169.788H168.947V-6.57129Z" fill="white"/>
</mask>
<g mask="url(#mask9_8493_5319)">
<path d="M133.185 116.421H28.3993C25.2513 116.421 22.6989 113.869 22.6989 110.721V98.4619H138.885V110.721C138.886 113.869 136.333 116.421 133.185 116.421Z" fill="#D3D3D3"/>
</g>
<mask id="mask10_8493_5319" style="mask-type:luminance" maskUnits="userSpaceOnUse" x="-8" y="-7" width="177" height="177">
<path d="M168.947 -6.57129H-7.41184V169.788H168.947V-6.57129Z" fill="white"/>
</mask>
<g mask="url(#mask10_8493_5319)">
<g opacity="0.11">
<mask id="mask11_8493_5319" style="mask-type:luminance" maskUnits="userSpaceOnUse" x="22" y="98" width="117" height="7">
<path d="M138.886 98.4602H22.6998V104.997H138.886V98.4602Z" fill="white"/>
</mask>
<g mask="url(#mask11_8493_5319)">
<path d="M22.7002 104.997L138.886 101.19V98.4602H22.7002V104.997Z" fill="black"/>
</g>
</g>
</g>
<mask id="mask12_8493_5319" style="mask-type:luminance" maskUnits="userSpaceOnUse" x="-8" y="-7" width="177" height="177">
<path d="M168.947 -6.57129H-7.41184V169.788H168.947V-6.57129Z" fill="white"/>
</mask>
<g mask="url(#mask12_8493_5319)">
<path d="M144.826 96.8228H16.7604V99.3231C16.7604 99.7494 17.1074 100.099 17.5364 100.099H144.049C144.478 100.099 144.825 99.7494 144.825 99.3231V96.8228H144.826Z" fill="#6A4D2A"/>
</g>
<mask id="mask13_8493_5319" style="mask-type:luminance" maskUnits="userSpaceOnUse" x="-8" y="-7" width="177" height="177">
<path d="M168.947 -6.57129H-7.41184V169.788H168.947V-6.57129Z" fill="white"/>
</mask>
<g mask="url(#mask13_8493_5319)">
<path d="M143.617 97.9651H17.9672C17.0682 97.9651 16.4862 97.0198 16.8852 96.2191L24.3972 83.5508C24.5996 83.1381 25.0202 82.8784 25.4792 82.8784H137.282C137.739 82.8784 138.157 83.1381 138.362 83.5477L144.699 96.2161C145.098 97.0194 144.513 97.9651 143.617 97.9651Z" fill="#AA926F"/>
</g>
<mask id="mask14_8493_5319" style="mask-type:luminance" maskUnits="userSpaceOnUse" x="-8" y="-7" width="177" height="177">
<path d="M168.947 -6.57129H-7.41184V169.788H168.947V-6.57129Z" fill="white"/>
</mask>
<g mask="url(#mask14_8493_5319)">
<g opacity="0.16">
<mask id="mask15_8493_5319" style="mask-type:luminance" maskUnits="userSpaceOnUse" x="109" y="90" width="33" height="7">
<path d="M141.067 90.4327H109.28V96.5661H141.067V90.4327Z" fill="white"/>
</mask>
<g mask="url(#mask15_8493_5319)">
<path d="M128.539 96.5663L109.279 91.3496L135.324 90.4316H141.065L128.539 96.5663Z" fill="#281613"/>
</g>
</g>
</g>
<mask id="mask16_8493_5319" style="mask-type:luminance" maskUnits="userSpaceOnUse" x="-8" y="-7" width="177" height="177">
<path d="M168.947 -6.57129H-7.41184V169.788H168.947V-6.57129Z" fill="white"/>
</mask>
<g mask="url(#mask16_8493_5319)">
<path d="M124.867 95.2139L140.525 86.6304L127.313 83.7095L109.28 91.3498L124.867 95.2139Z" fill="#F72667"/>
</g>
</g>
<mask id="mask17_8493_5319" style="mask-type:luminance" maskUnits="userSpaceOnUse" x="-8" y="-7" width="177" height="177">
<path d="M168.948 -6.57178H-7.41184V169.788H168.948V-6.57178Z" fill="white"/>
</mask>
<g mask="url(#mask17_8493_5319)">
<mask id="mask18_8493_5319" style="mask-type:luminance" maskUnits="userSpaceOnUse" x="109" y="87" width="17" height="9">
<path d="M109.848 91.2135L125.091 95.0528C125.632 93.8205 125.933 92.2518 125.2 91.0005L109.96 87.0629C110.122 88.1805 110.072 90.2135 109.848 91.2135Z" fill="white"/>
</mask>
<g mask="url(#mask18_8493_5319)">
<path d="M113.923 83.4722L103.078 93.0287L121.858 98.6435L132.703 89.0866L113.923 83.4722Z" fill="url(#paint0_linear_8493_5319)"/>
</g>
</g>
<mask id="mask19_8493_5319" style="mask-type:luminance" maskUnits="userSpaceOnUse" x="-8" y="-7" width="177" height="177">
<path d="M168.948 -6.57178H-7.41184V169.788H168.948V-6.57178Z" fill="white"/>
</mask>
<g mask="url(#mask19_8493_5319)">
<mask id="mask20_8493_5319" style="mask-type:luminance" maskUnits="userSpaceOnUse" x="-8" y="-7" width="177" height="177">
<path d="M168.947 -6.57129H-7.41184V169.788H168.947V-6.57129Z" fill="white"/>
</mask>
<g mask="url(#mask20_8493_5319)">
<path d="M141.066 90.4314L141.243 86.3844L124.971 90.8961C125.963 91.7761 125.301 94.7928 124.867 95.2138L141.066 90.4314Z" fill="#F72667"/>
</g>
<mask id="mask21_8493_5319" style="mask-type:luminance" maskUnits="userSpaceOnUse" x="-8" y="-7" width="177" height="177">
<path d="M168.947 -6.57129H-7.41184V169.788H168.947V-6.57129Z" fill="white"/>
</mask>
<g mask="url(#mask21_8493_5319)">
<path d="M109.526 87.1066L125.052 90.9706L141.175 86.4642L126.432 83.5979L109.526 87.1066Z" fill="#FF487C"/>
</g>
<mask id="mask22_8493_5319" style="mask-type:luminance" maskUnits="userSpaceOnUse" x="-8" y="-7" width="177" height="177">
<path d="M168.947 -6.57129H-7.41184V169.788H168.947V-6.57129Z" fill="white"/>
</mask>
<g mask="url(#mask22_8493_5319)">
<path d="M142.966 87.5603L130.494 90.6889L129.355 90.1179L141.695 87.1613L142.966 87.5603Z" fill="#8B2D9B"/>
</g>
<mask id="mask23_8493_5319" style="mask-type:luminance" maskUnits="userSpaceOnUse" x="-8" y="-7" width="177" height="177">
<path d="M168.947 -6.57129H-7.41184V169.788H168.947V-6.57129Z" fill="white"/>
</mask>
<g mask="url(#mask23_8493_5319)">
<path d="M110.147 85.5185L130.538 90.4702L142.964 83.0265L123.679 79.5804L110.396 82.4855L110.147 85.5185Z" fill="#E5D8C0"/>
</g>
</g>
<mask id="mask24_8493_5319" style="mask-type:luminance" maskUnits="userSpaceOnUse" x="-8" y="-7" width="177" height="177">
<path d="M168.948 -6.57178H-7.41184V169.788H168.948V-6.57178Z" fill="white"/>
</mask>
<g mask="url(#mask24_8493_5319)">
<mask id="mask25_8493_5319" style="mask-type:luminance" maskUnits="userSpaceOnUse" x="130" y="83" width="13" height="8">
<path d="M130.592 87.0929L130.537 90.4702L142.435 87.5162L142.965 83.0265L130.592 87.0929Z" fill="white"/>
</mask>
<g mask="url(#mask25_8493_5319)">
<path d="M126.772 84.485L132.972 94.3413L146.73 89.0122L140.53 79.1559L126.772 84.485Z" fill="url(#paint1_linear_8493_5319)"/>
</g>
</g>
<mask id="mask26_8493_5319" style="mask-type:luminance" maskUnits="userSpaceOnUse" x="-8" y="-7" width="177" height="177">
<path d="M168.948 -6.57178H-7.41184V169.788H168.948V-6.57178Z" fill="white"/>
</mask>
<g mask="url(#mask26_8493_5319)">
<mask id="mask27_8493_5319" style="mask-type:luminance" maskUnits="userSpaceOnUse" x="-8" y="-7" width="177" height="177">
<path d="M168.947 -6.57129H-7.41184V169.788H168.947V-6.57129Z" fill="white"/>
</mask>
<g mask="url(#mask27_8493_5319)">
<path d="M109.821 82.4846C109.671 82.788 109.983 83.2527 110.002 84.0203C110.026 84.9876 109.775 85.4193 109.983 85.578L130.582 90.6933C130.437 90.3626 130.464 89.2507 130.464 88.6577C130.467 88.0647 130.234 87.3103 130.327 87.0069C134.935 85.2579 138.167 84.2963 142.777 82.5446L123.709 78.9103C118.618 80.3666 114.913 81.0306 109.821 82.4846Z" fill="#8B2D9B"/>
</g>
<mask id="mask28_8493_5319" style="mask-type:luminance" maskUnits="userSpaceOnUse" x="-8" y="-7" width="177" height="177">
<path d="M168.947 -6.57129H-7.41184V169.788H168.947V-6.57129Z" fill="white"/>
</mask>
<g mask="url(#mask28_8493_5319)">
<path d="M109.821 82.4846L130.284 87.0069L142.346 82.553L123.63 78.8909L109.821 82.4846Z" fill="#A841B7"/>
</g>
<mask id="mask29_8493_5319" style="mask-type:luminance" maskUnits="userSpaceOnUse" x="-8" y="-7" width="177" height="177">
<path d="M168.947 -6.57129H-7.41184V169.788H168.947V-6.57129Z" fill="white"/>
</mask>
<g mask="url(#mask29_8493_5319)">
<path d="M135.013 88.8437L134.188 88.1413L133.264 89.1686C133.264 89.1686 133.07 86.5069 132.559 86.4033C132.644 86.3949 134.237 85.8324 134.322 85.8403C134.91 86.152 135.013 88.8437 135.013 88.8437Z" fill="#BF75CC"/>
</g>
<mask id="mask30_8493_5319" style="mask-type:luminance" maskUnits="userSpaceOnUse" x="-8" y="-7" width="177" height="177">
<path d="M168.947 -6.57129H-7.41184V169.788H168.947V-6.57129Z" fill="white"/>
</mask>
<g mask="url(#mask30_8493_5319)">
<g opacity="0.16">
<mask id="mask31_8493_5319" style="mask-type:luminance" maskUnits="userSpaceOnUse" x="49" y="85" width="60" height="9">
<path d="M108.957 85.3121H49.3887V93.9533H108.957V85.3121Z" fill="white"/>
</mask>
<g mask="url(#mask31_8493_5319)">
<path d="M49.3887 93.954L60.5871 85.3137L108.958 93.954H49.3887Z" fill="#281613"/>
</g>
</g>
</g>
<mask id="mask32_8493_5319" style="mask-type:luminance" maskUnits="userSpaceOnUse" x="-8" y="-7" width="177" height="177">
<path d="M168.947 -6.57129H-7.41184V169.788H168.947V-6.57129Z" fill="white"/>
</mask>
<g mask="url(#mask32_8493_5319)">
<path d="M52.0707 67.076C47.1273 54.7847 48.0184 40.4629 54.4401 21.1269L54.5494 21.7009C54.6425 21.3482 54.7298 21.0043 54.8254 20.6489L102.611 21.9853C102.682 22.338 102.753 22.6793 102.821 23.0263L103.351 22.6982C109.349 42.4853 109.852 54.342 109.377 61.7614C109.188 58.2171 108.786 45.7864 103.802 27.9013C108.27 50.4758 109.702 62.7971 105.217 66.6065C108.067 61.7615 105.698 48.314 104.993 46.6201C104.991 51.4541 105.707 60.6958 103.105 67.7215C91.439 74.1595 64.6209 73.0639 57.8822 69.1835C57.5842 68.6068 56.7509 55.0311 56.5652 53.1538C56.1746 53.8015 56.4506 68.5575 56.2976 69.1725C52.1386 65.2869 48.2746 53.3425 52.2969 31.6727C48.6251 46.4662 49.86 57.5337 52.0707 67.076Z" fill="#332B29"/>
</g>
<mask id="mask33_8493_5319" style="mask-type:luminance" maskUnits="userSpaceOnUse" x="-8" y="-7" width="177" height="177">
<path d="M168.947 -6.57129H-7.41184V169.788H168.947V-6.57129Z" fill="white"/>
</mask>
<g mask="url(#mask33_8493_5319)">
<path d="M85.4322 56.5038H70.9848V61.2505H85.4322V56.5038Z" fill="#3AB7DD"/>
</g>
<mask id="mask34_8493_5319" style="mask-type:luminance" maskUnits="userSpaceOnUse" x="-8" y="-7" width="177" height="177">
<path d="M168.947 -6.57129H-7.41184V169.788H168.947V-6.57129Z" fill="white"/>
</mask>
<g mask="url(#mask34_8493_5319)">
<path d="M102.232 84.4992L91.0859 83.8735V71.9648L98.5022 71.5685L102.232 84.4992Z" fill="#FFC19F"/>
</g>
<mask id="mask35_8493_5319" style="mask-type:luminance" maskUnits="userSpaceOnUse" x="-8" y="-7" width="177" height="177">
<path d="M168.947 -6.57129H-7.41184V169.788H168.947V-6.57129Z" fill="white"/>
</mask>
<g mask="url(#mask35_8493_5319)">
<path d="M55.8814 72.9736C58.3328 74.4383 63.9097 76.9443 66.8558 77.1163C70.5338 72.4053 72.0915 59.5535 72.0889 59.0972C68.1538 59.2528 64.0685 60.2775 63.0301 60.8405C61.1885 63.2645 58.5294 68.7052 55.8814 72.9736Z" fill="#00A1C6"/>
</g>
<mask id="mask36_8493_5319" style="mask-type:luminance" maskUnits="userSpaceOnUse" x="-8" y="-7" width="177" height="177">
<path d="M168.947 -6.57129H-7.41184V169.788H168.947V-6.57129Z" fill="white"/>
</mask>
<g mask="url(#mask36_8493_5319)">
<path d="M101.023 72.9097C98.5723 74.3743 92.995 76.8804 90.0489 77.0524C86.3709 72.3414 85.4036 59.5196 85.4062 59.0632C89.1772 59.4239 92.3715 59.6752 93.413 60.2382C95.2546 62.6649 98.3753 68.6413 101.023 72.9097Z" fill="#00A1C6"/>
</g>
<mask id="mask37_8493_5319" style="mask-type:luminance" maskUnits="userSpaceOnUse" x="-8" y="-7" width="177" height="177">
<path d="M168.947 -6.57129H-7.41184V169.788H168.947V-6.57129Z" fill="white"/>
</mask>
<g mask="url(#mask37_8493_5319)">
<path d="M85.5535 60.3855C85.5535 59.9344 85.4031 59.5081 85.1871 59.0958C80.9598 58.8251 75.4124 58.8419 70.9721 59.0958C70.756 59.5085 70.6057 59.9349 70.6057 60.3855C70.6057 62.8122 73.953 64.7742 78.082 64.7742C82.2062 64.7742 85.5535 62.8122 85.5535 60.3855Z" fill="#FFC19F"/>
</g>
<mask id="mask38_8493_5319" style="mask-type:luminance" maskUnits="userSpaceOnUse" x="-8" y="-7" width="177" height="177">
<path d="M168.947 -6.57129H-7.41184V169.788H168.947V-6.57129Z" fill="white"/>
</mask>
<g mask="url(#mask38_8493_5319)">
<path d="M91.3019 88.4809C90.731 82.8735 90.0149 72.0931 90.7962 59.6187C84.1858 58.684 74.2034 59.0888 66.8964 59.542C65.754 63.947 64.5217 79.6241 63.8934 88.4809H91.3019Z" fill="#00A1C6"/>
</g>
<mask id="mask39_8493_5319" style="mask-type:luminance" maskUnits="userSpaceOnUse" x="-8" y="-7" width="177" height="177">
<path d="M168.947 -6.57129H-7.41184V169.788H168.947V-6.57129Z" fill="white"/>
</mask>
<g mask="url(#mask39_8493_5319)">
<path d="M72.5708 53.6851V60.7245C72.5818 62.2301 75.0028 63.4298 77.9378 63.4078C80.8729 63.3831 83.2145 62.1424 83.2008 60.6367V53.6851H72.5708Z" fill="#FFC19F"/>
</g>
<mask id="mask40_8493_5319" style="mask-type:luminance" maskUnits="userSpaceOnUse" x="-8" y="-7" width="177" height="177">
<path d="M168.947 -6.57129H-7.41184V169.788H168.947V-6.57129Z" fill="white"/>
</mask>
<g mask="url(#mask40_8493_5319)">
<g opacity="0.16">
<mask id="mask41_8493_5319" style="mask-type:luminance" maskUnits="userSpaceOnUse" x="68" y="48" width="18" height="12">
<path d="M85.6055 48.3798H68.634V59.6368H85.6055V48.3798Z" fill="white"/>
</mask>
<g mask="url(#mask41_8493_5319)">
<path d="M68.6608 55.0586C69.0435 58.1109 73.1368 60.1166 77.8068 59.5373C82.4768 58.9553 85.9555 56.0096 85.5759 52.9542C85.1989 49.9018 81.1025 47.8988 76.4325 48.4782C71.7625 49.0606 68.2807 52.0063 68.6608 55.0586Z" fill="#281613"/>
</g>
</g>
</g>
<mask id="mask42_8493_5319" style="mask-type:luminance" maskUnits="userSpaceOnUse" x="-8" y="-7" width="177" height="177">
<path d="M168.947 -6.57129H-7.41184V169.788H168.947V-6.57129Z" fill="white"/>
</mask>
<g mask="url(#mask42_8493_5319)">
<path d="M75.6077 64.3646L81.051 64.0092C81.051 64.0092 80.518 61.7302 78.8377 61.5746C78.1764 61.7055 77.4114 61.7166 76.4851 61.6482C76.2007 61.8942 75.6077 64.3646 75.6077 64.3646Z" fill="#52C8E3"/>
</g>
<mask id="mask43_8493_5319" style="mask-type:luminance" maskUnits="userSpaceOnUse" x="-8" y="-7" width="177" height="177">
<path d="M168.947 -6.57129H-7.41184V169.788H168.947V-6.57129Z" fill="white"/>
</mask>
<g mask="url(#mask43_8493_5319)">
<path d="M79.0233 79.0342C77.6953 79.0426 76.3889 78.9632 75.0909 78.8623L76.706 66.9205C76.7659 66.1882 79.5343 66.1829 79.6 66.9205L81.4827 78.8975C80.6657 78.9465 79.854 79.0285 79.0233 79.0342Z" fill="#024FA3"/>
</g>
<mask id="mask44_8493_5319" style="mask-type:luminance" maskUnits="userSpaceOnUse" x="-8" y="-7" width="177" height="177">
<path d="M168.947 -6.57129H-7.41184V169.788H168.947V-6.57129Z" fill="white"/>
</mask>
<g mask="url(#mask44_8493_5319)">
<path d="M76.2298 70.4542L76.3308 69.7056C77.6177 70.5472 79.0388 71.4546 80.4514 72.3263L80.5907 73.2142C79.1234 72.3152 77.6041 71.3506 76.2298 70.4542Z" fill="#C3F1FC"/>
</g>
<mask id="mask45_8493_5319" style="mask-type:luminance" maskUnits="userSpaceOnUse" x="-8" y="-7" width="177" height="177">
<path d="M168.947 -6.57129H-7.41184V169.788H168.947V-6.57129Z" fill="white"/>
</mask>
<g mask="url(#mask45_8493_5319)">
<path d="M81.2067 77.1313L81.346 78.0113C79.567 76.962 77.515 75.6803 75.684 74.4916L75.7849 73.7456C77.5146 74.8743 79.4603 76.0872 81.2067 77.1313Z" fill="#C3F1FC"/>
</g>
<mask id="mask46_8493_5319" style="mask-type:luminance" maskUnits="userSpaceOnUse" x="-8" y="-7" width="177" height="177">
<path d="M168.947 -6.57129H-7.41184V169.788H168.947V-6.57129Z" fill="white"/>
</mask>
<g mask="url(#mask46_8493_5319)">
<path d="M77.1795 78.9539C76.7205 78.9376 76.2615 78.9213 75.8048 78.8939C75.5861 78.7493 75.3568 78.6043 75.1434 78.465L75.2444 77.7163C75.8515 78.1122 76.5265 78.5359 77.1795 78.9539Z" fill="#C3F1FC"/>
</g>
<mask id="mask47_8493_5319" style="mask-type:luminance" maskUnits="userSpaceOnUse" x="-8" y="-7" width="177" height="177">
<path d="M168.947 -6.57129H-7.41184V169.788H168.947V-6.57129Z" fill="white"/>
</mask>
<g mask="url(#mask47_8493_5319)">
<g opacity="0.55">
<mask id="mask48_8493_5319" style="mask-type:luminance" maskUnits="userSpaceOnUse" x="76" y="66" width="4" height="4">
<path d="M79.9695 66.3684H76.5618V69.2775H79.9695V66.3684Z" fill="white"/>
</mask>
<g mask="url(#mask48_8493_5319)">
<path d="M76.707 66.9207C76.7643 66.1857 79.538 66.18 79.601 66.9207L79.9674 69.2764L76.5597 68.0741L76.707 66.9207Z" fill="black"/>
</g>
</g>
</g>
<mask id="mask49_8493_5319" style="mask-type:luminance" maskUnits="userSpaceOnUse" x="-8" y="-7" width="177" height="177">
<path d="M168.947 -6.57129H-7.41184V169.788H168.947V-6.57129Z" fill="white"/>
</mask>
<g mask="url(#mask49_8493_5319)">
<path d="M76.7099 67.5641C77.4586 67.7334 79.1529 67.6871 79.7296 67.5478C79.9426 67.5452 80.1287 67.4059 80.1833 67.2035L81.4593 62.7764C81.5466 62.4731 81.3147 62.2191 80.9977 62.1671C80.5224 62.0935 80.0251 61.9321 78.0794 61.9374C76.5984 61.9427 76.079 62.063 75.333 62.2024C75.0186 62.2597 74.7863 62.5141 74.8793 62.8201L76.254 67.2304C76.3136 67.4305 76.508 67.5178 76.7099 67.5641Z" fill="#024FA3"/>
</g>
<mask id="mask50_8493_5319" style="mask-type:luminance" maskUnits="userSpaceOnUse" x="-8" y="-7" width="177" height="177">
<path d="M168.947 -6.57129H-7.41184V169.788H168.947V-6.57129Z" fill="white"/>
</mask>
<g mask="url(#mask50_8493_5319)">
<path d="M77.3047 61.9573C78.3183 62.6596 79.5974 63.5039 80.9937 64.4003L80.7944 65.0832C79.0075 63.9409 77.3567 62.8426 76.2391 62.0472C76.5314 62.0093 76.8731 61.9767 77.3047 61.9573Z" fill="#C3F1FC"/>
</g>
<mask id="mask51_8493_5319" style="mask-type:luminance" maskUnits="userSpaceOnUse" x="-8" y="-7" width="177" height="177">
<path d="M168.947 -6.57129H-7.41184V169.788H168.947V-6.57129Z" fill="white"/>
</mask>
<g mask="url(#mask51_8493_5319)">
<path d="M75.8987 66.0964L75.579 65.0634C76.7077 65.823 78.0573 66.7031 79.4567 67.5857C79.1507 67.632 78.7628 67.6625 78.3201 67.6677C77.4643 67.1241 76.6531 66.5968 75.8987 66.0964Z" fill="#C3F1FC"/>
</g>
<mask id="mask52_8493_5319" style="mask-type:luminance" maskUnits="userSpaceOnUse" x="-8" y="-7" width="177" height="177">
<path d="M168.947 -6.57129H-7.41184V169.788H168.947V-6.57129Z" fill="white"/>
</mask>
<g mask="url(#mask52_8493_5319)">
<path d="M93.5567 88.4808C92.6793 80.1844 90.712 60.5587 90.54 59.2691C90.54 59.2691 86.698 59.0151 85.8811 58.9468C85.8811 58.9468 81.8698 72.8668 78.1777 73.0251C74.486 72.9105 70.5237 59.0367 70.5237 59.0367C69.7067 59.1134 65.87 59.4084 65.87 59.4084C65.717 60.6738 63.8559 79.7638 62.8013 88.4808H93.5567Z" fill="#133B75"/>
</g>
<mask id="mask53_8493_5319" style="mask-type:luminance" maskUnits="userSpaceOnUse" x="-8" y="-7" width="177" height="177">
<path d="M168.947 -6.57129H-7.41184V169.788H168.947V-6.57129Z" fill="white"/>
</mask>
<g mask="url(#mask53_8493_5319)">
<g opacity="0.61">
<mask id="mask54_8493_5319" style="mask-type:luminance" maskUnits="userSpaceOnUse" x="68" y="59" width="21" height="17">
<path d="M88.0406 59.0518H68.3655V75.0282H88.0406V59.0518Z" fill="white"/>
</mask>
<g mask="url(#mask54_8493_5319)">
<path d="M68.3649 59.212C68.6052 59.1931 68.8375 59.1737 69.0672 59.1547C71.0482 64.8824 74.8796 74.2471 78.1669 74.3455C81.4732 74.2088 85.4219 64.8004 87.3376 59.0507C87.5674 59.067 87.7993 59.0833 88.04 59.1C86.4223 63.9777 82.2466 74.8617 78.1696 75.0284C74.1115 74.908 70.0372 64.0734 68.3649 59.212Z" fill="white"/>
</g>
</g>
</g>
<mask id="mask55_8493_5319" style="mask-type:luminance" maskUnits="userSpaceOnUse" x="-8" y="-7" width="177" height="177">
<path d="M168.947 -6.57129H-7.41184V169.788H168.947V-6.57129Z" fill="white"/>
</mask>
<g mask="url(#mask55_8493_5319)">
<g opacity="0.35">
<mask id="mask56_8493_5319" style="mask-type:luminance" maskUnits="userSpaceOnUse" x="70" y="57" width="8" height="10">
<path d="M77.2293 57.2803H70.2062V66.4699H77.2293V57.2803Z" fill="white"/>
</mask>
<g mask="url(#mask56_8493_5319)">
<path d="M73.5132 66.4594C70.5918 66.1781 70.0398 60.576 70.2448 59.114C70.2448 59.114 70.8762 57.5563 70.9308 57.2803C71.1165 59.2449 73.3439 60.7753 77.2295 61.4803C76.6612 63.2267 75.7728 66.6754 73.5132 66.4594Z" fill="#053B56"/>
</g>
</g>
</g>
<mask id="mask57_8493_5319" style="mask-type:luminance" maskUnits="userSpaceOnUse" x="-8" y="-7" width="177" height="177">
<path d="M168.947 -6.57129H-7.41184V169.788H168.947V-6.57129Z" fill="white"/>
</mask>
<g mask="url(#mask57_8493_5319)">
<path d="M73.6034 65.6458C70.797 65.3808 70.2393 60.1394 70.2777 59.0411C70.2777 59.0411 70.9306 56.7648 70.9853 56.5024C71.1603 58.3714 73.6549 60.8034 77.388 61.4678C76.5084 61.5794 75.7788 65.8477 73.6034 65.6458Z" fill="#00A1C6"/>
</g>
<mask id="mask58_8493_5319" style="mask-type:luminance" maskUnits="userSpaceOnUse" x="-8" y="-7" width="177" height="177">
<path d="M168.947 -6.57129H-7.41184V169.788H168.947V-6.57129Z" fill="white"/>
</mask>
<g mask="url(#mask58_8493_5319)">
<g opacity="0.35">
<mask id="mask59_8493_5319" style="mask-type:luminance" maskUnits="userSpaceOnUse" x="79" y="57" width="8" height="10">
<path d="M86.2188 57.1964H79.2147V66.4174H86.2188V57.1964Z" fill="white"/>
</mask>
<g mask="url(#mask59_8493_5319)">
<path d="M82.9894 66.4066C85.905 66.0923 86.3944 60.4823 86.1731 59.026C86.1731 59.026 85.5228 57.4709 85.4655 57.198C85.3014 59.1653 83.0908 60.7203 79.2157 61.469C79.803 63.2092 80.7293 66.6496 82.9894 66.4066Z" fill="#053B56"/>
</g>
</g>
</g>
<mask id="mask60_8493_5319" style="mask-type:luminance" maskUnits="userSpaceOnUse" x="-8" y="-7" width="177" height="177">
<path d="M168.947 -6.57129H-7.41184V169.788H168.947V-6.57129Z" fill="white"/>
</mask>
<g mask="url(#mask60_8493_5319)">
<path d="M82.8878 65.5921C85.6915 65.2972 86.1888 60.0474 86.1341 58.9491C86.1341 58.9491 85.4891 56.7658 85.4344 56.5034C85.2788 58.3724 82.7811 60.7497 79.0564 61.4552C79.9364 61.5561 80.7151 65.8192 82.8878 65.5921Z" fill="#00A1C6"/>
</g>
<mask id="mask61_8493_5319" style="mask-type:luminance" maskUnits="userSpaceOnUse" x="-8" y="-7" width="177" height="177">
<path d="M168.947 -6.57129H-7.41184V169.788H168.947V-6.57129Z" fill="white"/>
</mask>
<g mask="url(#mask61_8493_5319)">
<path d="M79.1834 93.3479C70.0453 92.0826 58.2265 92.3943 49.3865 93.8453C49.3429 93.8016 49.2309 93.6676 49.1978 93.6129L59.2812 82.2258C64.0358 80.1734 74.7232 80.5835 79.1829 82.2831V93.3479H79.1834Z" fill="#C62C2C"/>
</g>
<mask id="mask62_8493_5319" style="mask-type:luminance" maskUnits="userSpaceOnUse" x="-8" y="-7" width="177" height="177">
<path d="M168.947 -6.57129H-7.41184V169.788H168.947V-6.57129Z" fill="white"/>
</mask>
<g mask="url(#mask62_8493_5319)">
<path d="M79.1834 92.3851C70.0479 91.1171 58.8773 91.2348 50.0342 92.6832C49.8865 92.5549 49.1405 90.7075 49.0889 90.6092L59.2816 81.4768C64.0363 79.4244 74.7237 79.8371 79.1834 81.5368V92.3851Z" fill="#CCCCCC"/>
</g>
<mask id="mask63_8493_5319" style="mask-type:luminance" maskUnits="userSpaceOnUse" x="-8" y="-7" width="177" height="177">
<path d="M168.947 -6.57129H-7.41184V169.788H168.947V-6.57129Z" fill="white"/>
</mask>
<g mask="url(#mask63_8493_5319)">
<path d="M79.1834 90.5064C70.4527 88.5796 57.7949 88.8803 49.0889 90.6073L59.2816 81.475C64.0363 79.4226 74.7237 79.8379 79.1834 81.538V90.5064Z" fill="#E0E0E0"/>
</g>
<mask id="mask64_8493_5319" style="mask-type:luminance" maskUnits="userSpaceOnUse" x="-8" y="-7" width="177" height="177">
<path d="M168.947 -6.57129H-7.41184V169.788H168.947V-6.57129Z" fill="white"/>
</mask>
<g mask="url(#mask64_8493_5319)">
<path d="M48.9884 90.6506C48.9527 90.6285 48.9474 90.5959 48.9774 90.5712L59.1727 81.4389L59.2001 81.4226C63.9221 79.3838 74.6831 79.7339 79.2711 81.4772C79.3068 81.4909 79.3174 81.5372 79.3174 81.5372V90.5055C79.3174 90.5055 79.2764 90.5518 79.2381 90.5655C79.2054 90.5765 79.1534 90.5708 79.115 90.5655C71.0289 88.7812 58.4289 88.8301 49.1352 90.6722L49.0889 90.6775C49.051 90.6779 49.0153 90.67 48.9884 90.6506ZM79.0582 90.4019V81.5729C74.5165 79.8706 64.0151 79.5342 59.3804 81.5235L49.3901 90.4729C53.7788 89.6365 59.5581 89.1039 65.3815 89.1229C70.1551 89.137 74.9701 89.5192 79.0582 90.4019Z" fill="#D4D6D6"/>
</g>
<mask id="mask65_8493_5319" style="mask-type:luminance" maskUnits="userSpaceOnUse" x="-8" y="-7" width="177" height="177">
<path d="M168.947 -6.57129H-7.41184V169.788H168.947V-6.57129Z" fill="white"/>
</mask>
<g mask="url(#mask65_8493_5319)">
<path d="M79.1834 90.5064C70.7913 88.1974 58.0546 88.006 48.9222 89.875L59.2816 81.475C64.0363 79.4226 74.7237 79.8379 79.1834 81.538V90.5064Z" fill="#EFEFEF"/>
</g>
<mask id="mask66_8493_5319" style="mask-type:luminance" maskUnits="userSpaceOnUse" x="-8" y="-7" width="177" height="177">
<path d="M168.947 -6.57129H-7.41184V169.788H168.947V-6.57129Z" fill="white"/>
</mask>
<g mask="url(#mask66_8493_5319)">
<path d="M79.1155 90.5659C70.9011 88.3059 58.227 88.0466 48.9663 89.9403C48.917 89.9513 48.8544 89.9403 48.8217 89.9156C48.786 89.8935 48.7834 89.8609 48.8134 89.8362L59.1727 81.4389L59.2027 81.4226C63.9221 79.3838 74.6858 79.7339 79.2711 81.4772C79.3068 81.4909 79.3174 81.5372 79.3174 81.5372V90.5055C79.3174 90.5055 79.279 90.5549 79.2407 90.5655L79.175 90.5765L79.1155 90.5659ZM59.3799 81.5235L49.2529 89.7322C58.4646 87.9232 70.8927 88.2045 79.0577 90.4015V81.5729C74.5134 79.8732 64.0147 79.5342 59.3799 81.5235Z" fill="#D4D6D6"/>
</g>
<mask id="mask67_8493_5319" style="mask-type:luminance" maskUnits="userSpaceOnUse" x="-8" y="-7" width="177" height="177">
<path d="M168.947 -6.57129H-7.41184V169.788H168.947V-6.57129Z" fill="white"/>
</mask>
<g mask="url(#mask67_8493_5319)">
<path d="M79.1834 90.5063C70.439 87.3226 58.2512 87.0329 48.8402 88.8556L59.1749 81.3162C63.9296 79.2638 74.7237 79.8379 79.1834 81.5375V90.5063Z" fill="white"/>
</g>
<mask id="mask68_8493_5319" style="mask-type:luminance" maskUnits="userSpaceOnUse" x="-8" y="-7" width="177" height="177">
<path d="M168.947 -6.57129H-7.41184V169.788H168.947V-6.57129Z" fill="white"/>
</mask>
<g mask="url(#mask68_8493_5319)">
<path d="M79.115 90.5646C70.9443 87.5916 59.0766 86.9466 48.8839 88.9223C48.8292 88.9333 48.7693 88.9223 48.7362 88.8976C48.7005 88.8702 48.7005 88.8376 48.7362 88.8156L59.0682 81.2735C63.7166 79.2679 74.576 79.6912 79.2707 81.4786C79.3064 81.4922 79.317 81.5359 79.317 81.5359V90.5073C79.317 90.5073 79.2812 90.5536 79.2402 90.5646L79.1745 90.5756L79.115 90.5646ZM59.2679 81.3635L49.1925 88.7115C59.2869 86.8342 70.939 87.5065 79.0577 90.4028V81.5707C74.4067 79.8278 63.8286 79.4041 59.2679 81.3635Z" fill="#D4D6D6"/>
</g>
<mask id="mask69_8493_5319" style="mask-type:luminance" maskUnits="userSpaceOnUse" x="-8" y="-7" width="177" height="177">
<path d="M168.947 -6.57129H-7.41184V169.788H168.947V-6.57129Z" fill="white"/>
</mask>
<g mask="url(#mask69_8493_5319)">
<path d="M79.1834 93.348C88.3267 92.1373 100.121 92.4517 108.958 93.9547C108.999 93.9084 109.111 93.848 109.144 93.7907L99.1094 82.3436C94.3653 80.2639 83.651 80.6113 79.1829 82.2836V93.348H79.1834Z" fill="#C62C2C"/>
</g>
<mask id="mask70_8493_5319" style="mask-type:luminance" maskUnits="userSpaceOnUse" x="-8" y="-7" width="177" height="177">
<path d="M168.947 -6.57129H-7.41184V169.788H168.947V-6.57129Z" fill="white"/>
</mask>
<g mask="url(#mask70_8493_5319)">
<path d="M79.1834 92.3851C88.3267 91.1744 99.4731 91.3547 108.308 92.8577C108.456 92.7294 109.212 90.8847 109.264 90.7864L96.7457 81.8533C91.999 79.7736 83.651 79.864 79.1829 81.5363V92.3851H79.1834Z" fill="#CCCCCC"/>
</g>
<mask id="mask71_8493_5319" style="mask-type:luminance" maskUnits="userSpaceOnUse" x="-8" y="-7" width="177" height="177">
<path d="M168.947 -6.57129H-7.41184V169.788H168.947V-6.57129Z" fill="white"/>
</mask>
<g mask="url(#mask71_8493_5319)">
<path d="M79.1834 90.5064C87.9251 88.6317 100.563 89.0091 109.264 90.7877L96.4234 81.8547C91.674 79.7723 83.651 79.8627 79.1834 81.5377V90.5064Z" fill="#E0E0E0"/>
</g>
<mask id="mask72_8493_5319" style="mask-type:luminance" maskUnits="userSpaceOnUse" x="-8" y="-7" width="177" height="177">
<path d="M168.947 -6.57129H-7.41184V169.788H168.947V-6.57129Z" fill="white"/>
</mask>
<g mask="url(#mask72_8493_5319)">
<path d="M109.218 90.8547C99.9325 88.9553 87.3347 88.8327 79.2407 90.565C79.1997 90.5734 79.1477 90.5787 79.115 90.565C79.0767 90.5513 79.0551 90.505 79.0551 90.505V81.5367C79.0551 81.5367 79.085 81.4931 79.1208 81.4794C83.3671 79.8891 91.5541 79.6294 96.5032 81.799L109.366 90.7431C109.404 90.7678 109.404 90.8031 109.368 90.8304C109.344 90.8494 109.305 90.8551 109.264 90.8551H109.218V90.8547ZM79.3143 81.5746V90.401C88.3704 88.5047 100.897 89.073 108.884 90.636L96.3304 81.9027C91.4858 79.7872 83.498 80.0332 79.3143 81.5746Z" fill="#D4D6D6"/>
</g>
<mask id="mask73_8493_5319" style="mask-type:luminance" maskUnits="userSpaceOnUse" x="-8" y="-7" width="177" height="177">
<path d="M168.947 -6.57129H-7.41184V169.788H168.947V-6.57129Z" fill="white"/>
</mask>
<g mask="url(#mask73_8493_5319)">
<path d="M79.1834 90.5064C87.586 88.2494 100.462 87.9267 109.587 89.8477L98.1314 81.658C93.3847 79.5756 83.651 79.8626 79.1834 81.5376V90.5064Z" fill="#EFEFEF"/>
</g>
<mask id="mask74_8493_5319" style="mask-type:luminance" maskUnits="userSpaceOnUse" x="-8" y="-7" width="177" height="177">
<path d="M168.947 -6.57129H-7.41184V169.788H168.947V-6.57129Z" fill="white"/>
</mask>
<g mask="url(#mask74_8493_5319)">
<path d="M79.1133 90.5637C79.0749 90.55 79.056 90.5037 79.056 90.5037V81.538C79.056 81.538 79.0859 81.4917 79.119 81.478C83.688 79.7674 93.3944 79.4913 98.2148 81.601L109.692 89.8071C109.724 89.8318 109.724 89.867 109.692 89.8891C109.656 89.9164 109.596 89.9248 109.541 89.9138C100.491 88.0064 87.7514 88.2798 79.2394 90.5641L79.1763 90.5751L79.1133 90.5637ZM109.213 89.6977L98.0371 81.7047C93.3997 79.6796 83.7401 79.945 79.3156 81.5737V90.4027C84.1113 89.1404 90.197 88.4927 96.2197 88.5091C100.791 88.5223 105.322 88.916 109.213 89.6977Z" fill="#D4D6D6"/>
</g>
<mask id="mask75_8493_5319" style="mask-type:luminance" maskUnits="userSpaceOnUse" x="-8" y="-7" width="177" height="177">
<path d="M168.947 -6.57129H-7.41184V169.788H168.947V-6.57129Z" fill="white"/>
</mask>
<g mask="url(#mask75_8493_5319)">
<path d="M79.1834 90.5064C87.7694 87.2517 101.124 86.9514 109.59 88.6264L99.0472 81.4367C94.3005 79.3543 83.6514 79.8627 79.1838 81.5376V90.5064H79.1834Z" fill="white"/>
</g>
<mask id="mask76_8493_5319" style="mask-type:luminance" maskUnits="userSpaceOnUse" x="-8" y="-7" width="177" height="177">
<path d="M168.947 -6.57129H-7.41184V169.788H168.947V-6.57129Z" fill="white"/>
</mask>
<g mask="url(#mask76_8493_5319)">
<path d="M79.1133 90.5658C79.0723 90.5548 79.056 90.5028 79.056 90.5028V81.5371C79.056 81.5371 79.0859 81.4908 79.119 81.4771C81.335 80.6491 85.1254 80.0861 89.011 80.0072C93.2578 79.9225 96.9547 80.4309 99.138 81.3845L109.691 88.5822C109.727 88.6069 109.727 88.6422 109.697 88.6669C109.661 88.6916 109.601 88.7026 109.546 88.6916C101.463 87.0929 88.0895 87.2106 79.2385 90.5663L79.1754 90.5773L79.1133 90.5658ZM109.211 88.4777L98.9551 81.482C94.446 79.5147 83.9363 79.8723 79.3156 81.575V90.4014C84.7343 88.3931 91.771 87.5346 98.2774 87.554C102.297 87.5682 106.109 87.9015 109.211 88.4777Z" fill="#D4D6D6"/>
</g>
<mask id="mask77_8493_5319" style="mask-type:luminance" maskUnits="userSpaceOnUse" x="-8" y="-7" width="177" height="177">
<path d="M168.947 -6.57129H-7.41184V169.788H168.947V-6.57129Z" fill="white"/>
</mask>
<g mask="url(#mask77_8493_5319)">
<path d="M101.56 84.7474C97.4062 84.3757 93.9822 84.1817 90.1291 84.5917C90.1208 84.6627 90.1181 84.7284 90.1071 84.7968C93.9517 84.3761 97.3594 84.5701 101.502 84.9361C101.603 84.9471 101.693 84.9114 101.71 84.8594C101.727 84.8047 101.658 84.7558 101.56 84.7474Z" fill="#CEEAE9"/>
</g>
<mask id="mask78_8493_5319" style="mask-type:luminance" maskUnits="userSpaceOnUse" x="-8" y="-7" width="177" height="177">
<path d="M168.947 -6.57129H-7.41184V169.788H168.947V-6.57129Z" fill="white"/>
</mask>
<g mask="url(#mask78_8493_5319)">
<path d="M103.847 86.0948C97.3321 85.4797 91.9434 85.4907 85.6284 86.8491C85.6395 86.9175 85.6558 86.9832 85.6642 87.0542C91.9492 85.6904 97.3052 85.6741 103.787 86.2861C103.885 86.2945 103.978 86.2614 103.995 86.2067C104.014 86.1521 103.945 86.1058 103.847 86.0948Z" fill="#CEEAE9"/>
</g>
<mask id="mask79_8493_5319" style="mask-type:luminance" maskUnits="userSpaceOnUse" x="-8" y="-7" width="177" height="177">
<path d="M168.947 -6.57129H-7.41184V169.788H168.947V-6.57129Z" fill="white"/>
</mask>
<g mask="url(#mask79_8493_5319)">
<path d="M85.9644 75.4633C86.6474 76.1273 89.3338 79.6743 88.3638 79.8983C87.5851 80.076 79.7477 75.4386 80.305 74.865C81.5541 74.638 85.2815 74.7967 85.9644 75.4633Z" fill="#F29D77"/>
</g>
<mask id="mask80_8493_5319" style="mask-type:luminance" maskUnits="userSpaceOnUse" x="-8" y="-7" width="177" height="177">
<path d="M168.947 -6.57129H-7.41184V169.788H168.947V-6.57129Z" fill="white"/>
</mask>
<g mask="url(#mask80_8493_5319)">
<path d="M78.6953 70.7077L79.1053 70.3387C79.3897 70.0874 79.414 69.6527 79.1627 69.3714L77.8073 67.8573C77.556 67.576 77.1213 67.5513 76.84 67.8026L76.4273 68.1717C76.1429 68.423 76.1213 68.8546 76.3726 69.139L77.728 70.6531C77.9766 70.9374 78.4109 70.9621 78.6953 70.7077Z" fill="#EAEAEA"/>
</g>
<mask id="mask81_8493_5319" style="mask-type:luminance" maskUnits="userSpaceOnUse" x="-8" y="-7" width="177" height="177">
<path d="M168.947 -6.57129H-7.41184V169.788H168.947V-6.57129Z" fill="white"/>
</mask>
<g mask="url(#mask81_8493_5319)">
<path d="M76.6191 69.4751L78.1142 68.1414L78.4612 68.5267L76.9665 69.8631L76.6191 69.4751Z" fill="#BFBFBF"/>
</g>
<mask id="mask82_8493_5319" style="mask-type:luminance" maskUnits="userSpaceOnUse" x="-8" y="-7" width="177" height="177">
<path d="M168.947 -6.57129H-7.41184V169.788H168.947V-6.57129Z" fill="white"/>
</mask>
<g mask="url(#mask82_8493_5319)">
<path d="M88.537 82.7593L89.9801 81.4692L91.6741 84.7923L88.537 82.7593Z" fill="#E5B7A5"/>
</g>
<mask id="mask83_8493_5319" style="mask-type:luminance" maskUnits="userSpaceOnUse" x="-8" y="-7" width="177" height="177">
<path d="M168.947 -6.57129H-7.41184V169.788H168.947V-6.57129Z" fill="white"/>
</mask>
<g mask="url(#mask83_8493_5319)">
<path d="M90.693 84.1684L91.1577 83.7557L91.7124 84.8351L90.693 84.1684Z" fill="#161616"/>
</g>
<mask id="mask84_8493_5319" style="mask-type:luminance" maskUnits="userSpaceOnUse" x="-8" y="-7" width="177" height="177">
<path d="M168.947 -6.57129H-7.41184V169.788H168.947V-6.57129Z" fill="white"/>
</mask>
<g mask="url(#mask84_8493_5319)">
<path d="M88.5666 82.8607L90.0612 81.5243L78.4612 68.528L76.9665 69.8617L88.5666 82.8607Z" fill="#F9951E"/>
</g>
<mask id="mask85_8493_5319" style="mask-type:luminance" maskUnits="userSpaceOnUse" x="-8" y="-7" width="177" height="177">
<path d="M168.947 -6.57129H-7.41184V169.788H168.947V-6.57129Z" fill="white"/>
</mask>
<g mask="url(#mask85_8493_5319)">
<path d="M82.3697 82.639C82.6237 83.0517 81.5528 84.3634 80.8068 84.2404C80.2495 84.15 79.6371 83.7704 79.9541 84.2814C80.3037 84.8444 79.156 85.5247 78.3064 85.2871C77.3091 85.0058 73.1774 82.169 72.994 81.8741C72.2291 80.6334 72.259 78.633 73.5844 77.193C74.7541 76.1847 77.2544 75.0176 80.6181 74.791C82.6184 75.9713 85.195 76.9801 86.3647 77.794C89.1358 79.7176 90.2861 80.3627 89.8245 80.931C88.9502 82.005 86.2448 81.0077 84.8454 80.1277C83.9001 79.6577 82.763 79.1687 81.4787 78.838C81.2053 79.0267 84.1677 80.3931 85.1703 81.147C85.4627 81.9477 84.0037 83.1037 83.006 82.6117C82.0497 82.1417 80.708 81.3657 80.0467 81.035C80.5281 81.4808 81.6621 82.2321 82.3697 82.639Z" fill="#FFC19F"/>
</g>
<mask id="mask86_8493_5319" style="mask-type:luminance" maskUnits="userSpaceOnUse" x="-8" y="-7" width="177" height="177">
<path d="M168.947 -6.57129H-7.41184V169.788H168.947V-6.57129Z" fill="white"/>
</mask>
<g mask="url(#mask86_8493_5319)">
<path d="M79.8319 76.5978C79.8319 76.5978 79.8099 76.6551 79.7662 76.6987C79.7199 76.7481 79.6622 76.7671 79.6622 76.7671C79.6622 76.7671 79.6842 76.7151 79.7305 76.6661C79.7746 76.6194 79.8319 76.5978 79.8319 76.5978Z" fill="#FFC19F"/>
</g>
<mask id="mask87_8493_5319" style="mask-type:luminance" maskUnits="userSpaceOnUse" x="-8" y="-7" width="177" height="177">
<path d="M168.947 -6.57129H-7.41184V169.788H168.947V-6.57129Z" fill="white"/>
</mask>
<g mask="url(#mask87_8493_5319)">
<path d="M75.8158 77.8627C76.2884 77.9694 75.4441 83.3171 74.9604 83.2813C67.1861 82.721 59.8707 81.9287 57.794 81.076C55.1213 79.9746 55.8431 75.6243 56.4466 73.3069C58.4743 73.7363 69.1922 76.365 75.8158 77.8627Z" fill="#FFC19F"/>
</g>
<mask id="mask88_8493_5319" style="mask-type:luminance" maskUnits="userSpaceOnUse" x="-8" y="-7" width="177" height="177">
<path d="M168.947 -6.57129H-7.41184V169.788H168.947V-6.57129Z" fill="white"/>
</mask>
<g mask="url(#mask88_8493_5319)">
<path d="M98.7633 81.5161C98.9299 83.3277 99.7632 84.7104 100.635 84.601C101.502 84.4917 102.073 82.9371 101.906 81.1223C101.745 79.3107 100.906 77.9307 100.04 78.04C99.1702 78.1494 98.5993 79.704 98.7633 81.5161Z" fill="#FFC19F"/>
</g>
<mask id="mask89_8493_5319" style="mask-type:luminance" maskUnits="userSpaceOnUse" x="-8" y="-7" width="177" height="177">
<path d="M168.947 -6.57129H-7.41184V169.788H168.947V-6.57129Z" fill="white"/>
</mask>
<g mask="url(#mask89_8493_5319)">
<path d="M96.3745 81.7158C96.7351 83.3391 97.7245 84.4537 98.5851 84.2077C99.4431 83.9617 99.8474 82.4534 99.4841 80.83C99.1235 79.2097 98.1341 78.092 97.2735 78.338C96.4155 78.584 96.0112 80.0954 96.3745 81.7158Z" fill="#FFC19F"/>
</g>
<mask id="mask90_8493_5319" style="mask-type:luminance" maskUnits="userSpaceOnUse" x="-8" y="-7" width="177" height="177">
<path d="M168.947 -6.57129H-7.41184V169.788H168.947V-6.57129Z" fill="white"/>
</mask>
<g mask="url(#mask90_8493_5319)">
<path d="M101.21 81.553C101.079 83.239 101.672 84.6574 102.533 84.7173C103.394 84.783 104.197 83.4656 104.328 81.7796C104.457 80.0963 103.867 78.6779 103.006 78.6153C102.145 78.5527 101.342 79.8697 101.21 81.553Z" fill="#FFC19F"/>
</g>
<mask id="mask91_8493_5319" style="mask-type:luminance" maskUnits="userSpaceOnUse" x="-8" y="-7" width="177" height="177">
<path d="M168.947 -6.57129H-7.41184V169.788H168.947V-6.57129Z" fill="white"/>
</mask>
<g mask="url(#mask91_8493_5319)">
<path d="M103.502 82.4868C103.032 83.9978 103.276 85.4545 104.046 85.7358C104.814 86.0202 105.819 85.0255 106.289 83.5115C106.757 82.0005 106.516 80.5438 105.746 80.2625C104.978 79.9786 103.972 80.9732 103.502 82.4868Z" fill="#FFC19F"/>
</g>
<mask id="mask92_8493_5319" style="mask-type:luminance" maskUnits="userSpaceOnUse" x="-8" y="-7" width="177" height="177">
<path d="M168.947 -6.57129H-7.41184V169.788H168.947V-6.57129Z" fill="white"/>
</mask>
<g mask="url(#mask92_8493_5319)">
<path d="M51.8705 42.8077C53.0429 47.7401 57.7486 50.9207 61.3446 50.5138C64.9406 50.1094 65.7113 46.1004 65.1787 41.362C64.6487 36.621 61.2983 33.0929 57.705 33.5109C52.7889 34.0823 50.7692 38.173 51.8705 42.8077Z" fill="#FFC19F"/>
</g>
<mask id="mask93_8493_5319" style="mask-type:luminance" maskUnits="userSpaceOnUse" x="-8" y="-7" width="177" height="177">
<path d="M168.947 -6.57129H-7.41184V169.788H168.947V-6.57129Z" fill="white"/>
</mask>
<g mask="url(#mask93_8493_5319)">
<path d="M56.3245 44.0995C56.5595 46.1792 58.2318 47.6928 60.0655 47.4878C61.8992 47.2828 63.1973 45.4301 62.9623 43.3535C62.7273 41.2738 61.0492 39.7575 59.2212 39.9621C57.3875 40.1698 56.0895 42.0198 56.3245 44.0995Z" fill="#FF9C65"/>
</g>
<mask id="mask94_8493_5319" style="mask-type:luminance" maskUnits="userSpaceOnUse" x="-8" y="-7" width="177" height="177">
<path d="M168.947 -6.57129H-7.41184V169.788H168.947V-6.57129Z" fill="white"/>
</mask>
<g mask="url(#mask94_8493_5319)">
<path d="M105.199 44.3553C103.767 49.2166 98.8982 52.146 95.3291 51.5503C91.7605 50.9546 91.2001 46.9103 91.9844 42.2046C92.7661 37.4988 96.2964 34.1568 99.8655 34.7609C104.743 35.592 106.544 39.7836 105.199 44.3553Z" fill="#FFC19F"/>
</g>
<mask id="mask95_8493_5319" style="mask-type:luminance" maskUnits="userSpaceOnUse" x="-8" y="-7" width="177" height="177">
<path d="M168.947 -6.57129H-7.41184V169.788H168.947V-6.57129Z" fill="white"/>
</mask>
<g mask="url(#mask95_8493_5319)">
<path d="M100.588 45.271C100.246 47.334 98.4921 48.7608 96.6721 48.4574C94.852 48.1567 93.6581 46.2384 94.0024 44.1754C94.3441 42.1124 96.0958 40.6857 97.9154 40.989C99.7359 41.2893 100.932 43.2076 100.588 45.271Z" fill="#FF9C65"/>
</g>
<mask id="mask96_8493_5319" style="mask-type:luminance" maskUnits="userSpaceOnUse" x="-8" y="-7" width="177" height="177">
<path d="M168.947 -6.57129H-7.41184V169.788H168.947V-6.57129Z" fill="white"/>
</mask>
<g mask="url(#mask96_8493_5319)">
<path d="M103.692 28.5468C103.268 44.6339 92.8927 51.6023 78.6283 51.2223C64.3665 50.8453 53.1928 43.3139 53.6191 27.2299C54.0455 11.1428 65.5089 7.69979 79.7706 8.0794C94.0351 8.45372 104.118 12.4597 103.692 28.5468Z" fill="#332B29"/>
</g>
<mask id="mask97_8493_5319" style="mask-type:luminance" maskUnits="userSpaceOnUse" x="-8" y="-7" width="177" height="177">
<path d="M168.947 -6.57129H-7.41184V169.788H168.947V-6.57129Z" fill="white"/>
</mask>
<g mask="url(#mask97_8493_5319)">
<path d="M98.6032 21.8993C99.7482 24.6263 98.3136 48.3868 95.4742 51.6305C92.4681 55.0708 80.5405 58.1232 78.0507 58.0575C75.3837 57.9865 63.8657 54.6608 61.7149 50.7368C59.1683 46.0941 58.5422 24.9049 59.4606 22.4103C62.5624 13.9803 69.9677 13.8873 79.6468 14.1439C88.7028 14.3846 95.6298 14.8189 98.6032 21.8993Z" fill="#FFC19F"/>
</g>
<mask id="mask98_8493_5319" style="mask-type:luminance" maskUnits="userSpaceOnUse" x="-8" y="-7" width="177" height="177">
<path d="M168.947 -6.57129H-7.41184V169.788H168.947V-6.57129Z" fill="white"/>
</mask>
<g mask="url(#mask98_8493_5319)">
<path d="M62.5716 43.7927C62.5086 44.7274 63.7576 45.5718 65.359 45.6785C66.9577 45.7852 68.3103 45.1154 68.373 44.1838C68.436 43.2491 67.1869 42.4021 65.5882 42.2954C63.9842 42.1883 62.6342 42.858 62.5716 43.7927Z" fill="#FF9797"/>
</g>
<mask id="mask99_8493_5319" style="mask-type:luminance" maskUnits="userSpaceOnUse" x="-8" y="-7" width="177" height="177">
<path d="M168.947 -6.57129H-7.41184V169.788H168.947V-6.57129Z" fill="white"/>
</mask>
<g mask="url(#mask99_8493_5319)">
<path d="M89.2791 44.2675C89.3448 45.2022 90.7001 45.8635 92.2988 45.7485C93.9001 45.6312 95.1435 44.7785 95.0778 43.8464C95.0094 42.9117 93.6568 42.2477 92.0554 42.3655C90.4541 42.4832 89.2107 43.3328 89.2791 44.2675Z" fill="#FF9797"/>
</g>
<mask id="mask100_8493_5319" style="mask-type:luminance" maskUnits="userSpaceOnUse" x="-8" y="-7" width="177" height="177">
<path d="M168.947 -6.57129H-7.41184V169.788H168.947V-6.57129Z" fill="white"/>
</mask>
<g mask="url(#mask100_8493_5319)">
<path d="M86.1725 46.1995C85.8665 44.5955 83.3988 45.0082 79.3708 44.9835H78.1301C74.102 45.0082 71.6374 44.5955 71.3283 46.1995C70.7379 49.2902 74.624 52.6649 78.7147 52.6785H78.7857C82.8772 52.6649 86.7655 49.2902 86.1725 46.1995Z" fill="#701608"/>
</g>
<mask id="mask101_8493_5319" style="mask-type:luminance" maskUnits="userSpaceOnUse" x="-8" y="-7" width="177" height="177">
<path d="M168.947 -6.57129H-7.41184V169.788H168.947V-6.57129Z" fill="white"/>
</mask>
<g mask="url(#mask101_8493_5319)">
<path d="M78.7861 52.743H78.7151C77.3871 52.7377 76.0124 52.3603 74.7338 51.6579L74.6545 51.6169L74.7202 51.5569C75.7832 50.6059 77.2152 50.0786 78.7509 50.0786C80.2865 50.0786 81.7185 50.6059 82.7842 51.5569L82.8499 51.6169L82.7705 51.6579C81.4884 52.3603 80.1084 52.7377 78.7861 52.743Z" fill="#DD6B5B"/>
</g>
<mask id="mask102_8493_5319" style="mask-type:luminance" maskUnits="userSpaceOnUse" x="-8" y="-7" width="177" height="177">
<path d="M168.947 -6.57129H-7.41184V169.788H168.947V-6.57129Z" fill="white"/>
</mask>
<g mask="url(#mask102_8493_5319)">
<path d="M78.7513 47.0456C75.9366 47.0456 73.5919 46.174 73.2996 45.0153L73.2833 44.9417H84.2193L84.203 45.0153C83.9076 46.1735 81.5634 47.0456 78.7513 47.0456Z" fill="white"/>
</g>
<mask id="mask103_8493_5319" style="mask-type:luminance" maskUnits="userSpaceOnUse" x="-8" y="-7" width="177" height="177">
<path d="M168.947 -6.57129H-7.41184V169.788H168.947V-6.57129Z" fill="white"/>
</mask>
<g mask="url(#mask103_8493_5319)">
<path d="M80.4968 42.9196C80.3901 42.9196 80.2975 42.8429 80.2781 42.734C80.1498 41.9607 79.5374 41.4633 78.7231 41.4633C77.9004 41.4633 77.2747 41.9717 77.168 42.7314C77.1491 42.8517 77.0366 42.9364 76.9167 42.9201C76.7963 42.9011 76.709 42.7891 76.728 42.6661C76.8673 41.6988 77.687 41.0211 78.7226 41.0211C79.753 41.0211 80.5537 41.6798 80.7146 42.6608C80.7367 42.7812 80.6546 42.8958 80.5343 42.9179L80.4968 42.9196Z" fill="#B66B54"/>
</g>
<mask id="mask104_8493_5319" style="mask-type:luminance" maskUnits="userSpaceOnUse" x="-8" y="-7" width="177" height="177">
<path d="M168.947 -6.57129H-7.41184V169.788H168.947V-6.57129Z" fill="white"/>
</mask>
<g mask="url(#mask104_8493_5319)">
<path d="M93.7194 28.4824C93.569 28.4635 93.4297 28.3921 93.3204 28.2695C91.9787 26.7175 89.1451 25.9715 86.7236 26.5341C86.3877 26.6135 86.0486 26.4027 85.9693 26.0641C85.8899 25.7251 86.1002 25.3864 86.4392 25.3097C89.3276 24.6374 92.6233 25.5364 94.2736 27.4468C94.5002 27.7118 94.4702 28.1055 94.2105 28.3321C94.0695 28.4551 93.8891 28.5045 93.7194 28.4824Z" fill="#31201C"/>
</g>
<mask id="mask105_8493_5319" style="mask-type:luminance" maskUnits="userSpaceOnUse" x="-8" y="-7" width="177" height="177">
<path d="M168.947 -6.57129H-7.41184V169.788H168.947V-6.57129Z" fill="white"/>
</mask>
<g mask="url(#mask105_8493_5319)">
<path d="M63.7537 28.8299C63.5844 28.8462 63.404 28.7915 63.2674 28.6632C63.0134 28.4282 62.9997 28.0292 63.2374 27.7753C64.956 25.9279 68.2817 25.1493 71.1427 25.9252C71.4787 26.0156 71.6757 26.3626 71.5854 26.6959C71.495 27.035 71.148 27.2316 70.8147 27.1386C68.4153 26.4883 65.5543 27.1276 64.1553 28.6332C64.046 28.7505 63.904 28.8162 63.7537 28.8299Z" fill="#31201C"/>
</g>
<mask id="mask106_8493_5319" style="mask-type:luminance" maskUnits="userSpaceOnUse" x="-8" y="-7" width="177" height="177">
<path d="M168.947 -6.57129H-7.41184V169.788H168.947V-6.57129Z" fill="white"/>
</mask>
<g mask="url(#mask106_8493_5319)">
<path d="M104.487 33.118C101.689 32.189 101.317 29.2703 101.033 24.636C102.621 24.2343 100.468 12.8556 92.5488 9.41261C82.1868 4.90926 69.1983 6.37128 63.6893 10.3636C57.828 14.6157 56.8276 19.8734 55.8739 26.15C55.1006 31.2437 57.1693 34.9327 53.4419 37.9935C57.7839 38.0891 60.331 34.5311 61.0249 31.2931C61.7956 27.6971 60.0933 24.4151 60.6012 23.0024C60.8993 22.1828 65.5256 18.5317 66.7249 18.4607C69.3319 18.3051 71.6493 25.6968 80.8852 25.2704C77.1006 23.3194 74.9856 20.4611 72.8212 16.3594C73.5588 16.7831 74.2995 17.3021 75.0372 17.9334C82.8032 24.6122 91.1626 26.1862 97.6663 25.4181C98.109 32.2578 95.084 35.8106 103.386 38.1658C102.612 37.2395 101.446 34.4195 101.227 32.1679C102.123 32.7027 103.009 34.4896 104.487 33.118Z" fill="#332B29"/>
</g>
<mask id="mask107_8493_5319" style="mask-type:luminance" maskUnits="userSpaceOnUse" x="-8" y="-7" width="177" height="177">
<path d="M168.947 -6.57129H-7.41184V169.788H168.947V-6.57129Z" fill="white"/>
</mask>
<g mask="url(#mask107_8493_5319)">
<path d="M83.8565 35.4319C82.3071 37.6783 82.4928 40.1623 83.8454 41.1103C85.8868 42.5392 90.7151 42.9603 92.5162 40.911C94.2652 38.9269 93.4262 35.2983 90.5841 33.7296C88.0975 32.3549 85.3595 33.2565 83.8565 35.4319Z" fill="#F9FEFF"/>
</g>
<mask id="mask108_8493_5319" style="mask-type:luminance" maskUnits="userSpaceOnUse" x="-8" y="-7" width="177" height="177">
<path d="M168.947 -6.57129H-7.41184V169.788H168.947V-6.57129Z" fill="white"/>
</mask>
<g mask="url(#mask108_8493_5319)">
<path d="M92.8495 34.834C90.6388 31.3337 85.3101 32.5003 83.8044 35.509C85.3564 33.2626 88.2148 32.585 90.5158 33.8556C91.9368 34.64 92.9452 36.031 93.2154 37.5804C93.4284 38.8127 93.1418 40.1953 92.4174 41.0207C93.2511 40.4824 94.4755 37.4053 92.8495 34.834Z" fill="#523027"/>
</g>
<mask id="mask109_8493_5319" style="mask-type:luminance" maskUnits="userSpaceOnUse" x="-8" y="-7" width="177" height="177">
<path d="M168.947 -6.57129H-7.41184V169.788H168.947V-6.57129Z" fill="white"/>
</mask>
<g mask="url(#mask109_8493_5319)">
<path d="M84.4248 36.9156C83.7881 38.4733 84.5341 40.2549 86.0918 40.8916C87.6522 41.5282 89.4312 40.7822 90.0652 39.2245C90.7045 37.6642 89.9559 35.8852 88.3982 35.2485C86.8405 34.6119 85.0588 35.3605 84.4248 36.9156Z" fill="#311611"/>
</g>
<mask id="mask110_8493_5319" style="mask-type:luminance" maskUnits="userSpaceOnUse" x="-8" y="-7" width="177" height="177">
<path d="M168.947 -6.57129H-7.41184V169.788H168.947V-6.57129Z" fill="white"/>
</mask>
<g mask="url(#mask110_8493_5319)">
<path d="M84.673 36.6487C84.498 37.0804 84.703 37.5751 85.1346 37.7501C85.5663 37.9304 86.061 37.7228 86.2386 37.2885C86.4163 36.8568 86.2087 36.3648 85.7739 36.1871C85.3423 36.009 84.8476 36.2167 84.673 36.6487Z" fill="#FEFFFE"/>
</g>
<mask id="mask111_8493_5319" style="mask-type:luminance" maskUnits="userSpaceOnUse" x="-8" y="-7" width="177" height="177">
<path d="M168.947 -6.57129H-7.41184V169.788H168.947V-6.57129Z" fill="white"/>
</mask>
<g mask="url(#mask111_8493_5319)">
<path d="M73.2087 35.3331C74.7197 37.6068 74.4847 40.0851 73.1157 41.0088C71.0497 42.3998 66.2156 42.7331 64.4507 40.6508C62.74 38.6367 63.6448 35.0244 66.5137 33.5077C69.0277 32.1798 71.7467 33.1277 73.2087 35.3331Z" fill="#F9FEFF"/>
</g>
<mask id="mask112_8493_5319" style="mask-type:luminance" maskUnits="userSpaceOnUse" x="-8" y="-7" width="177" height="177">
<path d="M168.947 -6.57129H-7.41184V169.788H168.947V-6.57129Z" fill="white"/>
</mask>
<g mask="url(#mask112_8493_5319)">
<path d="M64.2289 34.5699C66.5027 31.1102 71.8067 32.3729 73.2603 35.4116C71.7494 33.1352 68.9047 32.4056 66.5789 33.6326C65.1443 34.3949 64.1112 35.767 63.8136 37.3079C63.5786 38.5376 63.8357 39.926 64.5486 40.7619C63.7232 40.2099 62.5566 37.1139 64.2289 34.5699Z" fill="#523027"/>
</g>
<mask id="mask113_8493_5319" style="mask-type:luminance" maskUnits="userSpaceOnUse" x="-8" y="-7" width="177" height="177">
<path d="M168.947 -6.57129H-7.41184V169.788H168.947V-6.57129Z" fill="white"/>
</mask>
<g mask="url(#mask113_8493_5319)">
<path d="M66.9511 36.7554C66.3144 38.3131 67.0604 40.0948 68.6181 40.7288C70.1784 41.3655 71.9575 40.6195 72.5941 39.0618C73.2308 37.5014 72.4821 35.7224 70.9244 35.0858C69.3667 34.4491 67.5877 35.1977 66.9511 36.7554Z" fill="#311611"/>
</g>
<mask id="mask114_8493_5319" style="mask-type:luminance" maskUnits="userSpaceOnUse" x="-8" y="-7" width="177" height="177">
<path d="M168.947 -6.57129H-7.41184V169.788H168.947V-6.57129Z" fill="white"/>
</mask>
<g mask="url(#mask114_8493_5319)">
<path d="M67.1988 36.486C67.0238 36.9177 67.2315 37.4124 67.6636 37.59C68.0952 37.7677 68.5899 37.5601 68.7649 37.1253C68.9426 36.6937 68.7349 36.2016 68.3002 36.024C67.8686 35.8494 67.3739 36.0539 67.1988 36.486Z" fill="#FEFFFE"/>
</g>
<mask id="mask115_8493_5319" style="mask-type:luminance" maskUnits="userSpaceOnUse" x="-8" y="-7" width="177" height="177">
<path d="M168.947 -6.57129H-7.41184V169.788H168.947V-6.57129Z" fill="white"/>
</mask>
<g mask="url(#mask115_8493_5319)">
<path d="M54.9903 24.6157C58.7587 13.565 66.4974 7.56396 79.4722 7.47093C90.1212 7.38892 98.2099 13.3459 102.333 25.0253C96.7395 15.6386 89.2222 11.0012 78.4091 11.3129C68.503 11.5951 60.704 15.6937 54.9903 24.6157Z" fill="#00A1C6"/>
</g>
<mask id="mask116_8493_5319" style="mask-type:luminance" maskUnits="userSpaceOnUse" x="-8" y="-7" width="177" height="177">
<path d="M168.947 -6.57129H-7.41184V169.788H168.947V-6.57129Z" fill="white"/>
</mask>
<g mask="url(#mask116_8493_5319)">
<g opacity="0.16">
<mask id="mask117_8493_5319" style="mask-type:luminance" maskUnits="userSpaceOnUse" x="30" y="84" width="18" height="13">
<path d="M47.906 84.6393H30.8952V96.1772H47.906V84.6393Z" fill="white"/>
</mask>
<g mask="url(#mask117_8493_5319)">
<path d="M33.6336 96.1766L30.8952 95.808L42.0936 87.2383L47.906 84.637L33.6336 96.1766Z" fill="#281613"/>
</g>
</g>
</g>
<mask id="mask118_8493_5319" style="mask-type:luminance" maskUnits="userSpaceOnUse" x="-8" y="-7" width="177" height="177">
<path d="M168.947 -6.57129H-7.41184V169.788H168.947V-6.57129Z" fill="white"/>
</mask>
<g mask="url(#mask118_8493_5319)">
<g opacity="0.16">
<mask id="mask119_8493_5319" style="mask-type:luminance" maskUnits="userSpaceOnUse" x="26" y="85" width="13" height="11">
<path d="M38.1392 85.5485H26.7882V95.224H38.1392V85.5485Z" fill="white"/>
</mask>
<g mask="url(#mask119_8493_5319)">
<path d="M29.5267 95.2244L26.7887 94.8553L37.7053 85.548H38.137L29.5267 95.2244Z" fill="#281613"/>
</g>
</g>
</g>
<mask id="mask120_8493_5319" style="mask-type:luminance" maskUnits="userSpaceOnUse" x="-8" y="-7" width="177" height="177">
<path d="M168.947 -6.57129H-7.41184V169.788H168.947V-6.57129Z" fill="white"/>
</mask>
<g mask="url(#mask120_8493_5319)">
<path d="M47.678 83.7787C47.402 83.4097 47.055 83.202 46.9047 83.3087L46.8774 83.3361L45.7954 84.1041L46.7927 85.4321L47.9051 84.6367C48.0524 84.5247 47.9514 84.142 47.678 83.7787Z" fill="#DF3A1F"/>
</g>
<mask id="mask121_8493_5319" style="mask-type:luminance" maskUnits="userSpaceOnUse" x="-8" y="-7" width="177" height="177">
<path d="M168.947 -6.57129H-7.41184V169.788H168.947V-6.57129Z" fill="white"/>
</mask>
<g mask="url(#mask121_8493_5319)">
<path d="M45.877 84.019L46.91 85.4043L47.3663 85.071L46.3333 83.6857L45.877 84.019Z" fill="#D8D7D6"/>
</g>
<mask id="mask122_8493_5319" style="mask-type:luminance" maskUnits="userSpaceOnUse" x="-8" y="-7" width="177" height="177">
<path d="M168.947 -6.57129H-7.41184V169.788H168.947V-6.57129Z" fill="white"/>
</mask>
<g mask="url(#mask122_8493_5319)">
<path d="M31.1302 95.7579L32.5949 95.4793L33.2972 94.9819L32.4093 93.5746L31.5976 94.1539L30.8952 95.4056C30.9719 95.5203 31.0592 95.6349 31.1302 95.7579Z" fill="#F9E098"/>
</g>
<mask id="mask123_8493_5319" style="mask-type:luminance" maskUnits="userSpaceOnUse" x="-8" y="-7" width="177" height="177">
<path d="M168.947 -6.57129H-7.41184V169.788H168.947V-6.57129Z" fill="white"/>
</mask>
<g mask="url(#mask123_8493_5319)">
<path d="M31.4133 95.7046L31.02 95.1852C31.02 95.1852 30.6783 95.6252 30.7797 95.7619C30.8776 95.8959 31.4133 95.7046 31.4133 95.7046Z" fill="black"/>
</g>
<mask id="mask124_8493_5319" style="mask-type:luminance" maskUnits="userSpaceOnUse" x="-8" y="-7" width="177" height="177">
<path d="M168.947 -6.57129H-7.41184V169.788H168.947V-6.57129Z" fill="white"/>
</mask>
<g mask="url(#mask124_8493_5319)">
<path d="M45.9034 84.0375L31.598 94.1535L32.2214 94.2192L32.0953 94.8179L32.7214 94.8832L32.5958 95.4788L46.8981 85.3655L45.9034 84.0375Z" fill="#1AA7D3"/>
</g>
<mask id="mask125_8493_5319" style="mask-type:luminance" maskUnits="userSpaceOnUse" x="-8" y="-7" width="177" height="177">
<path d="M168.947 -6.57129H-7.41184V169.788H168.947V-6.57129Z" fill="white"/>
</mask>
<g mask="url(#mask125_8493_5319)">
<path d="M45.9034 84.0375L31.598 94.1535L32.2214 94.2192L46.1521 84.3681L45.9034 84.0375Z" fill="#52BCDD"/>
</g>
<mask id="mask126_8493_5319" style="mask-type:luminance" maskUnits="userSpaceOnUse" x="-8" y="-7" width="177" height="177">
<path d="M168.947 -6.57129H-7.41184V169.788H168.947V-6.57129Z" fill="white"/>
</mask>
<g mask="url(#mask126_8493_5319)">
<path d="M32.721 94.8828L32.5949 95.4811L46.8976 85.3677L46.6516 85.0344L32.721 94.8828Z" fill="#098AB2"/>
</g>
<mask id="mask127_8493_5319" style="mask-type:luminance" maskUnits="userSpaceOnUse" x="-8" y="-7" width="177" height="177">
<path d="M168.947 -6.57129H-7.41184V169.788H168.947V-6.57129Z" fill="white"/>
</mask>
<g mask="url(#mask127_8493_5319)">
<path d="M37.9324 84.873C37.6374 84.545 37.2794 84.3841 37.1344 84.5124L37.1097 84.5397L36.0877 85.4471L37.1617 86.6305L38.2137 85.6988C38.3477 85.567 38.2247 85.1953 37.9324 84.873Z" fill="#DF3A1F"/>
</g>
<mask id="mask128_8493_5319" style="mask-type:luminance" maskUnits="userSpaceOnUse" x="-8" y="-7" width="177" height="177">
<path d="M168.947 -6.57129H-7.41184V169.788H168.947V-6.57129Z" fill="white"/>
</mask>
<g mask="url(#mask128_8493_5319)">
<path d="M36.1635 85.3506L37.2755 86.5855L37.7045 86.1949L36.5925 84.9573L36.1635 85.3506Z" fill="#D8D7D6"/>
</g>
<mask id="mask129_8493_5319" style="mask-type:luminance" maskUnits="userSpaceOnUse" x="-8" y="-7" width="177" height="177">
<path d="M168.947 -6.57129H-7.41184V169.788H168.947V-6.57129Z" fill="white"/>
</mask>
<g mask="url(#mask129_8493_5319)">
<path d="M27.1595 94.6266L28.5915 94.1593L29.2581 93.5689L28.2855 92.293L27.5206 92.9759L26.9029 94.3096C26.9871 94.4133 27.0801 94.5173 27.1595 94.6266Z" fill="#F9E098"/>
</g>
<mask id="mask130_8493_5319" style="mask-type:luminance" maskUnits="userSpaceOnUse" x="-8" y="-7" width="177" height="177">
<path d="M168.947 -6.57129H-7.41184V169.788H168.947V-6.57129Z" fill="white"/>
</mask>
<g mask="url(#mask130_8493_5319)">
<path d="M27.4342 94.5358L27.0135 94.071C27.0135 94.071 26.7018 94.5547 26.8085 94.6777C26.9205 94.8007 27.4342 94.5358 27.4342 94.5358Z" fill="black"/>
</g>
<mask id="mask131_8493_5319" style="mask-type:luminance" maskUnits="userSpaceOnUse" x="-8" y="-7" width="177" height="177">
<path d="M168.947 -6.57129H-7.41184V169.788H168.947V-6.57129Z" fill="white"/>
</mask>
<g mask="url(#mask131_8493_5319)">
<path d="M36.19 85.3638L27.5192 92.9741L28.1422 92.9552L28.0549 93.5671L28.6779 93.5482L28.5933 94.1602L37.264 86.5498L36.19 85.3638Z" fill="#FF396D"/>
</g>
<mask id="mask132_8493_5319" style="mask-type:luminance" maskUnits="userSpaceOnUse" x="-8" y="-7" width="177" height="177">
<path d="M168.947 -6.57129H-7.41184V169.788H168.947V-6.57129Z" fill="white"/>
</mask>
<g mask="url(#mask132_8493_5319)">
<path d="M36.19 85.3638L27.5192 92.9741L28.1422 92.9552L36.4602 85.6592L36.19 85.3638Z" fill="#FF5A81"/>
</g>
<mask id="mask133_8493_5319" style="mask-type:luminance" maskUnits="userSpaceOnUse" x="-8" y="-7" width="177" height="177">
<path d="M168.947 -6.57129H-7.41184V169.788H168.947V-6.57129Z" fill="white"/>
</mask>
<g mask="url(#mask133_8493_5319)">
<path d="M28.6779 93.5486L28.5933 94.1606L37.264 86.5476L36.9933 86.2522L28.6779 93.5486Z" fill="#ED204C"/>
</g>
</g>
<defs>
<linearGradient id="paint0_linear_8493_5319" x1="118.491" y1="90.5284" x2="118.174" y2="91.5902" gradientUnits="userSpaceOnUse">
<stop stop-color="#DCC499"/>
<stop offset="1" stop-color="#E5D8C0"/>
</linearGradient>
<linearGradient id="paint1_linear_8493_5319" x1="135.818" y1="85.2633" x2="135.988" y2="85.7033" gradientUnits="userSpaceOnUse">
<stop stop-color="#DCC499"/>
<stop offset="1" stop-color="#E5D8C0"/>
</linearGradient>
</defs>
</svg>
