<svg width="326" height="146" viewBox="0 0 326 146" fill="none" xmlns="http://www.w3.org/2000/svg">
<g clip-path="url(#clip0_8619_13703)">
<path d="M325.766 -35.5532H0.234039V181.468H325.766V-35.5532Z" fill="#FFD38F"/>
<path d="M227.694 -35.5533L167.384 79.1099L261.452 -35.5533H227.694Z" fill="#FFAE33"/>
<path d="M325.766 -35.5533H302.36L167.384 79.1099L325.766 -6.33137V-35.5533Z" fill="#FFAE33"/>
<path d="M325.766 28.0991L167.384 79.11L325.766 62.5078V28.0991Z" fill="#FFAE33"/>
<path d="M325.766 91.9142L167.384 79.11L325.766 126.681V91.9142Z" fill="#FFAE33"/>
<path d="M325.766 181.468V161.611L167.384 79.11L293.788 181.468H325.766Z" fill="#FFAE33"/>
<path d="M250.21 181.468L167.384 79.11L222.692 181.468H250.21Z" fill="#FFAE33"/>
<path d="M199.177 181.468L167.384 79.11L177.985 181.468H199.177Z" fill="#FFAE33"/>
<path d="M156.945 181.468L167.384 79.11L137.478 181.468H156.945Z" fill="#FFAE33"/>
<path d="M114.387 181.468L167.384 79.11L83.3749 181.468H114.387Z" fill="#FFAE33"/>
<path d="M0.234039 181.468H40.7519L167.384 79.11L0.234039 167.698V181.468Z" fill="#FFAE33"/>
<path d="M0.234039 133.55L167.384 79.11L0.234039 94.3449V133.55Z" fill="#FFAE33"/>
<path d="M0.234039 27.3829V61.0538L165.214 77.6559L0.234039 27.3829Z" fill="#FFAE33"/>
<path d="M0.234039 -35.5532V-10.943L165.214 77.6559L31.2247 -35.5532H0.234039Z" fill="#FFAE33"/>
<path d="M68.6392 -35.5533L165.214 77.6559L104.263 -35.5533H68.6392Z" fill="#FFAE33"/>
<path d="M155.317 -35.5533H132.172L165.214 74.7695L155.317 -35.5533Z" fill="#FFAE33"/>
<path d="M177.215 -35.5533L167.384 77.6559L200.762 -35.5533H177.215Z" fill="#FFAE33"/>
<g filter="url(#filter0_d_8619_13703)">
<rect x="16.5107" y="19.702" width="292.979" height="104.034" rx="5.85957" fill="white" shape-rendering="crispEdges"/>
<path d="M83.0655 51.3511C82.7628 51.3511 82.5284 51.2681 82.3624 51.102C82.2061 50.9263 82.128 50.687 82.128 50.3842V41.756C82.128 41.4435 82.2061 41.2042 82.3624 41.0382C82.5284 40.8722 82.7628 40.7892 83.0655 40.7892C83.3682 40.7892 83.5977 40.8722 83.754 41.0382C83.92 41.2042 84.003 41.4435 84.003 41.756V45.2132H89.3206V41.756C89.3206 41.4435 89.3987 41.2042 89.555 41.0382C89.721 40.8722 89.9554 40.7892 90.2581 40.7892C90.5609 40.7892 90.7904 40.8722 90.9466 41.0382C91.1126 41.2042 91.1957 41.4435 91.1957 41.756V50.3842C91.1957 50.687 91.1126 50.9263 90.9466 51.102C90.7904 51.2681 90.5609 51.3511 90.2581 51.3511C89.9554 51.3511 89.721 51.2681 89.555 51.102C89.3987 50.9263 89.3206 50.687 89.3206 50.3842V46.7806H84.003V50.3842C84.003 50.687 83.9249 50.9263 83.7686 51.102C83.6124 51.2681 83.378 51.3511 83.0655 51.3511ZM96.6222 51.3804C95.88 51.3804 95.2354 51.229 94.6885 50.9263C94.1416 50.6235 93.7168 50.1938 93.4141 49.6372C93.1113 49.0707 92.9599 48.4066 92.9599 47.6449C92.9599 47.0687 93.043 46.556 93.209 46.1068C93.3848 45.6478 93.6338 45.2571 93.9561 44.9348C94.2783 44.6028 94.6641 44.3538 95.1133 44.1877C95.5626 44.012 96.0655 43.9241 96.6222 43.9241C97.3644 43.9241 98.0089 44.0754 98.5558 44.3782C99.1027 44.6809 99.5275 45.1106 99.8303 45.6673C100.133 46.224 100.284 46.8832 100.284 47.6449C100.284 48.2211 100.197 48.7387 100.021 49.1977C99.8547 49.6567 99.6106 50.0522 99.2883 50.3842C98.966 50.7065 98.5802 50.9556 98.131 51.1313C97.6818 51.2974 97.1788 51.3804 96.6222 51.3804ZM96.6222 49.9887C96.9835 49.9887 97.3009 49.9008 97.5744 49.725C97.8478 49.5493 98.0578 49.2905 98.2043 48.9487C98.3605 48.5971 98.4386 48.1625 98.4386 47.6449C98.4386 46.8636 98.2726 46.2825 97.9406 45.9017C97.6085 45.511 97.1691 45.3157 96.6222 45.3157C96.2608 45.3157 95.9434 45.4036 95.67 45.5794C95.3965 45.7454 95.1817 46.0042 95.0254 46.3558C94.879 46.6976 94.8057 47.1273 94.8057 47.6449C94.8057 48.4164 94.9717 49.0024 95.3038 49.4028C95.6358 49.7934 96.0753 49.9887 96.6222 49.9887ZM104.227 51.3804C103.71 51.3804 103.246 51.2827 102.836 51.0874C102.435 50.8823 102.118 50.6089 101.884 50.2671C101.659 49.9252 101.547 49.5395 101.547 49.1098C101.547 48.5824 101.683 48.1674 101.957 47.8646C102.23 47.5521 102.675 47.3275 103.29 47.1908C103.905 47.0541 104.73 46.9857 105.766 46.9857H106.498V48.0404H105.78C105.175 48.0404 104.691 48.0697 104.33 48.1283C103.969 48.1869 103.71 48.2895 103.554 48.4359C103.407 48.5727 103.334 48.768 103.334 49.0219C103.334 49.3442 103.446 49.6079 103.671 49.8129C103.895 50.018 104.208 50.1206 104.608 50.1206C104.931 50.1206 105.214 50.0473 105.458 49.9008C105.712 49.7446 105.912 49.5346 106.059 49.2709C106.205 49.0072 106.278 48.7045 106.278 48.3627V46.6781C106.278 46.1898 106.171 45.8382 105.956 45.6233C105.741 45.4085 105.38 45.3011 104.872 45.3011C104.589 45.3011 104.281 45.3352 103.949 45.4036C103.627 45.472 103.285 45.5892 102.924 45.7552C102.738 45.8431 102.572 45.8675 102.426 45.8284C102.289 45.7894 102.182 45.7112 102.103 45.594C102.025 45.4671 101.986 45.3304 101.986 45.1839C101.986 45.0374 102.025 44.8958 102.103 44.7591C102.182 44.6126 102.313 44.5051 102.499 44.4368C102.948 44.2512 103.378 44.1194 103.788 44.0413C104.208 43.9631 104.589 43.9241 104.931 43.9241C105.634 43.9241 106.21 44.0315 106.659 44.2463C107.118 44.4612 107.46 44.7884 107.685 45.2278C107.909 45.6575 108.022 46.2142 108.022 46.8978V50.4135C108.022 50.7163 107.948 50.9507 107.802 51.1167C107.655 51.273 107.445 51.3511 107.172 51.3511C106.898 51.3511 106.684 51.273 106.527 51.1167C106.381 50.9507 106.308 50.7163 106.308 50.4135V49.7104H106.425C106.356 50.0522 106.22 50.3501 106.015 50.604C105.819 50.8481 105.57 51.0386 105.268 51.1753C104.965 51.312 104.618 51.3804 104.227 51.3804ZM104.33 43.0305L102.909 40.9796C102.802 40.8136 102.758 40.6574 102.777 40.5109C102.807 40.3644 102.875 40.2374 102.982 40.13C103.1 40.0226 103.231 39.9493 103.378 39.9103C103.534 39.8712 103.685 39.881 103.832 39.9396C103.988 39.9884 104.11 40.1056 104.198 40.2911L105.297 42.4738C105.375 42.6301 105.39 42.7717 105.341 42.8986C105.292 43.0256 105.204 43.1233 105.077 43.1916C104.95 43.26 104.818 43.2844 104.682 43.2649C104.545 43.2453 104.428 43.1672 104.33 43.0305ZM110.862 51.3511C110.569 51.3511 110.344 51.273 110.188 51.1167C110.032 50.9507 109.953 50.7163 109.953 50.4135V44.8762C109.953 44.5735 110.032 44.344 110.188 44.1877C110.344 44.0315 110.564 43.9534 110.847 43.9534C111.13 43.9534 111.35 44.0315 111.506 44.1877C111.662 44.344 111.741 44.5735 111.741 44.8762V45.8724L111.579 45.5062C111.794 44.9886 112.126 44.5979 112.576 44.3342C113.035 44.0608 113.552 43.9241 114.128 43.9241C114.705 43.9241 115.178 44.0315 115.549 44.2463C115.92 44.4612 116.199 44.7884 116.384 45.2278C116.57 45.6575 116.663 46.2044 116.663 46.8685V50.4135C116.663 50.7163 116.584 50.9507 116.428 51.1167C116.272 51.273 116.047 51.3511 115.754 51.3511C115.461 51.3511 115.232 51.273 115.066 51.1167C114.91 50.9507 114.831 50.7163 114.831 50.4135V46.9564C114.831 46.3997 114.724 45.9945 114.509 45.7405C114.304 45.4866 113.982 45.3597 113.542 45.3597C113.005 45.3597 112.576 45.5306 112.253 45.8724C111.941 46.2044 111.785 46.6488 111.785 47.2054V50.4135C111.785 51.0386 111.477 51.3511 110.862 51.3511ZM125.927 51.3804C125.292 51.3804 124.76 51.273 124.331 51.0581C123.911 50.8432 123.598 50.5307 123.393 50.1206C123.188 49.7006 123.085 49.183 123.085 48.5678V45.4476H122.324C122.089 45.4476 121.909 45.389 121.782 45.2718C121.655 45.1448 121.591 44.9739 121.591 44.7591C121.591 44.5344 121.655 44.3635 121.782 44.2463C121.909 44.1292 122.089 44.0706 122.324 44.0706H123.085V42.7375C123.085 42.4348 123.163 42.2053 123.32 42.049C123.486 41.8927 123.715 41.8146 124.008 41.8146C124.301 41.8146 124.526 41.8927 124.682 42.049C124.838 42.2053 124.916 42.4348 124.916 42.7375V44.0706H126.469C126.704 44.0706 126.884 44.1292 127.011 44.2463C127.138 44.3635 127.202 44.5344 127.202 44.7591C127.202 44.9739 127.138 45.1448 127.011 45.2718C126.884 45.389 126.704 45.4476 126.469 45.4476H124.916V48.4652C124.916 48.934 125.019 49.2856 125.224 49.52C125.429 49.7543 125.761 49.8715 126.22 49.8715C126.386 49.8715 126.533 49.8569 126.66 49.8276C126.787 49.7983 126.899 49.7788 126.997 49.769C127.114 49.7592 127.211 49.7983 127.29 49.8862C127.368 49.9643 127.407 50.1303 127.407 50.3842C127.407 50.5796 127.373 50.7554 127.304 50.9116C127.246 51.0581 127.133 51.1606 126.967 51.2192C126.84 51.2583 126.674 51.2925 126.469 51.3218C126.264 51.3608 126.084 51.3804 125.927 51.3804ZM129.435 51.3511C129.142 51.3511 128.918 51.273 128.762 51.1167C128.605 50.9507 128.527 50.7163 128.527 50.4135V41.7121C128.527 41.4093 128.605 41.1798 128.762 41.0236C128.918 40.8673 129.142 40.7892 129.435 40.7892C129.728 40.7892 129.953 40.8673 130.109 41.0236C130.275 41.1798 130.358 41.4093 130.358 41.7121V45.5062H130.153C130.368 44.9886 130.7 44.5979 131.149 44.3342C131.608 44.0608 132.126 43.9241 132.702 43.9241C133.278 43.9241 133.752 44.0315 134.123 44.2463C134.494 44.4612 134.773 44.7884 134.958 45.2278C135.144 45.6575 135.236 46.2044 135.236 46.8685V50.4135C135.236 50.7163 135.158 50.9507 135.002 51.1167C134.846 51.273 134.621 51.3511 134.328 51.3511C134.035 51.3511 133.806 51.273 133.64 51.1167C133.483 50.9507 133.405 50.7163 133.405 50.4135V46.9564C133.405 46.3997 133.298 45.9945 133.083 45.7405C132.878 45.4866 132.556 45.3597 132.116 45.3597C131.579 45.3597 131.149 45.5306 130.827 45.8724C130.515 46.2044 130.358 46.6488 130.358 47.2054V50.4135C130.358 51.0386 130.051 51.3511 129.435 51.3511ZM139.528 51.3804C139.01 51.3804 138.547 51.2827 138.136 51.0874C137.736 50.8823 137.419 50.6089 137.184 50.2671C136.96 49.9252 136.847 49.5395 136.847 49.1098C136.847 48.5824 136.984 48.1674 137.257 47.8646C137.531 47.5521 137.975 47.3275 138.59 47.1908C139.206 47.0541 140.031 46.9857 141.066 46.9857H141.799V48.0404H141.081C140.475 48.0404 139.992 48.0697 139.631 48.1283C139.269 48.1869 139.01 48.2895 138.854 48.4359C138.708 48.5727 138.634 48.768 138.634 49.0219C138.634 49.3442 138.747 49.6079 138.971 49.8129C139.196 50.018 139.508 50.1206 139.909 50.1206C140.231 50.1206 140.514 50.0473 140.758 49.9008C141.012 49.7446 141.213 49.5346 141.359 49.2709C141.506 49.0072 141.579 48.7045 141.579 48.3627V46.6781C141.579 46.1898 141.471 45.8382 141.257 45.6233C141.042 45.4085 140.68 45.3011 140.173 45.3011C139.889 45.3011 139.582 45.3352 139.25 45.4036C138.927 45.472 138.586 45.5892 138.224 45.7552C138.039 45.8431 137.873 45.8675 137.726 45.8284C137.589 45.7894 137.482 45.7112 137.404 45.594C137.326 45.4671 137.287 45.3304 137.287 45.1839C137.287 45.0374 137.326 44.8958 137.404 44.7591C137.482 44.6126 137.614 44.5051 137.799 44.4368C138.249 44.2512 138.678 44.1194 139.089 44.0413C139.508 43.9631 139.889 43.9241 140.231 43.9241C140.934 43.9241 141.51 44.0315 141.96 44.2463C142.419 44.4612 142.761 44.7884 142.985 45.2278C143.21 45.6575 143.322 46.2142 143.322 46.8978V50.4135C143.322 50.7163 143.249 50.9507 143.102 51.1167C142.956 51.273 142.746 51.3511 142.472 51.3511C142.199 51.3511 141.984 51.273 141.828 51.1167C141.681 50.9507 141.608 50.7163 141.608 50.4135V49.7104H141.725C141.657 50.0522 141.52 50.3501 141.315 50.604C141.12 50.8481 140.871 51.0386 140.568 51.1753C140.265 51.312 139.919 51.3804 139.528 51.3804ZM139.631 43.0305L138.21 40.9796C138.102 40.8136 138.058 40.6574 138.078 40.5109C138.107 40.3644 138.175 40.2374 138.283 40.13C138.4 40.0226 138.532 39.9493 138.678 39.9103C138.835 39.8712 138.986 39.881 139.132 39.9396C139.289 39.9884 139.411 40.1056 139.499 40.2911L140.597 42.4738C140.675 42.6301 140.69 42.7717 140.641 42.8986C140.592 43.0256 140.505 43.1233 140.378 43.1916C140.251 43.26 140.119 43.2844 139.982 43.2649C139.845 43.2453 139.728 43.1672 139.631 43.0305ZM146.162 51.3511C145.869 51.3511 145.645 51.273 145.488 51.1167C145.332 50.9507 145.254 50.7163 145.254 50.4135V44.8762C145.254 44.5735 145.332 44.344 145.488 44.1877C145.645 44.0315 145.864 43.9534 146.147 43.9534C146.431 43.9534 146.65 44.0315 146.807 44.1877C146.963 44.344 147.041 44.5735 147.041 44.8762V45.8724L146.88 45.5062C147.095 44.9886 147.427 44.5979 147.876 44.3342C148.335 44.0608 148.853 43.9241 149.429 43.9241C150.005 43.9241 150.479 44.0315 150.85 44.2463C151.221 44.4612 151.499 44.7884 151.685 45.2278C151.87 45.6575 151.963 46.2044 151.963 46.8685V50.4135C151.963 50.7163 151.885 50.9507 151.729 51.1167C151.572 51.273 151.348 51.3511 151.055 51.3511C150.762 51.3511 150.532 51.273 150.366 51.1167C150.21 50.9507 150.132 50.7163 150.132 50.4135V46.9564C150.132 46.3997 150.025 45.9945 149.81 45.7405C149.605 45.4866 149.282 45.3597 148.843 45.3597C148.306 45.3597 147.876 45.5306 147.554 45.8724C147.241 46.2044 147.085 46.6488 147.085 47.2054V50.4135C147.085 51.0386 146.777 51.3511 146.162 51.3511ZM154.804 51.3511C154.511 51.3511 154.287 51.273 154.131 51.1167C153.974 50.9507 153.896 50.7163 153.896 50.4135V41.7121C153.896 41.4093 153.974 41.1798 154.131 41.0236C154.287 40.8673 154.511 40.7892 154.804 40.7892C155.097 40.7892 155.322 40.8673 155.478 41.0236C155.644 41.1798 155.727 41.4093 155.727 41.7121V45.5062H155.522C155.737 44.9886 156.069 44.5979 156.518 44.3342C156.977 44.0608 157.495 43.9241 158.071 43.9241C158.647 43.9241 159.121 44.0315 159.492 44.2463C159.863 44.4612 160.142 44.7884 160.327 45.2278C160.513 45.6575 160.605 46.2044 160.605 46.8685V50.4135C160.605 50.7163 160.527 50.9507 160.371 51.1167C160.215 51.273 159.99 51.3511 159.697 51.3511C159.404 51.3511 159.175 51.273 159.009 51.1167C158.852 50.9507 158.774 50.7163 158.774 50.4135V46.9564C158.774 46.3997 158.667 45.9945 158.452 45.7405C158.247 45.4866 157.925 45.3597 157.485 45.3597C156.948 45.3597 156.518 45.5306 156.196 45.8724C155.884 46.2044 155.727 46.6488 155.727 47.2054V50.4135C155.727 51.0386 155.42 51.3511 154.804 51.3511ZM169.87 51.3804C169.235 51.3804 168.703 51.273 168.273 51.0581C167.853 50.8432 167.541 50.5307 167.336 50.1206C167.131 49.7006 167.028 49.183 167.028 48.5678V45.4476H166.266C166.032 45.4476 165.851 45.389 165.724 45.2718C165.597 45.1448 165.534 44.9739 165.534 44.7591C165.534 44.5344 165.597 44.3635 165.724 44.2463C165.851 44.1292 166.032 44.0706 166.266 44.0706H167.028V42.7375C167.028 42.4348 167.106 42.2053 167.263 42.049C167.429 41.8927 167.658 41.8146 167.951 41.8146C168.244 41.8146 168.469 41.8927 168.625 42.049C168.781 42.2053 168.859 42.4348 168.859 42.7375V44.0706H170.412C170.646 44.0706 170.827 44.1292 170.954 44.2463C171.081 44.3635 171.145 44.5344 171.145 44.7591C171.145 44.9739 171.081 45.1448 170.954 45.2718C170.827 45.389 170.646 45.4476 170.412 45.4476H168.859V48.4652C168.859 48.934 168.962 49.2856 169.167 49.52C169.372 49.7543 169.704 49.8715 170.163 49.8715C170.329 49.8715 170.476 49.8569 170.602 49.8276C170.729 49.7983 170.842 49.7788 170.939 49.769C171.057 49.7592 171.154 49.7983 171.232 49.8862C171.311 49.9643 171.35 50.1303 171.35 50.3842C171.35 50.5796 171.315 50.7554 171.247 50.9116C171.188 51.0581 171.076 51.1606 170.91 51.2192C170.783 51.2583 170.617 51.2925 170.412 51.3218C170.207 51.3608 170.026 51.3804 169.87 51.3804ZM175.479 51.3804C174.737 51.3804 174.092 51.229 173.546 50.9263C172.999 50.6235 172.574 50.1938 172.271 49.6372C171.968 49.0707 171.817 48.4066 171.817 47.6449C171.817 47.0687 171.9 46.556 172.066 46.1068C172.242 45.6478 172.491 45.2571 172.813 44.9348C173.135 44.6028 173.521 44.3538 173.97 44.1877C174.42 44.012 174.923 43.9241 175.479 43.9241C176.221 43.9241 176.866 44.0754 177.413 44.3782C177.96 44.6809 178.385 45.1106 178.687 45.6673C178.99 46.224 179.141 46.8832 179.141 47.6449C179.141 48.2211 179.054 48.7387 178.878 49.1977C178.712 49.6567 178.468 50.0522 178.145 50.3842C177.823 50.7065 177.437 50.9556 176.988 51.1313C176.539 51.2974 176.036 51.3804 175.479 51.3804ZM175.479 49.9887C175.841 49.9887 176.158 49.9008 176.431 49.725C176.705 49.5493 176.915 49.2905 177.061 48.9487C177.218 48.5971 177.296 48.1625 177.296 47.6449C177.296 46.8636 177.13 46.2825 176.798 45.9017C176.466 45.511 176.026 45.3157 175.479 45.3157C175.118 45.3157 174.8 45.4036 174.527 45.5794C174.254 45.7454 174.039 46.0042 173.882 46.3558C173.736 46.6976 173.663 47.1273 173.663 47.6449C173.663 48.4164 173.829 49.0024 174.161 49.4028C174.493 49.7934 174.932 49.9887 175.479 49.9887ZM174.293 43.0598C174.175 43.1867 174.049 43.26 173.912 43.2795C173.785 43.299 173.668 43.2746 173.56 43.2063C173.463 43.1379 173.399 43.0451 173.37 42.9279C173.34 42.801 173.375 42.6643 173.472 42.5178L174.424 41.0968C174.571 40.882 174.727 40.7355 174.893 40.6574C175.069 40.5695 175.264 40.5255 175.479 40.5255C175.626 40.5255 175.762 40.545 175.889 40.5841C176.016 40.6134 176.134 40.672 176.241 40.7599C176.348 40.838 176.446 40.9503 176.534 41.0968L177.486 42.5178C177.584 42.6643 177.618 42.801 177.589 42.9279C177.569 43.0451 177.511 43.1379 177.413 43.2063C177.315 43.2746 177.198 43.299 177.061 43.2795C176.925 43.26 176.798 43.1867 176.68 43.0598L175.479 41.7267L174.293 43.0598ZM178.043 41.6535C177.955 41.7707 177.852 41.839 177.735 41.8586C177.618 41.8683 177.511 41.8439 177.413 41.7853C177.325 41.7267 177.266 41.6437 177.237 41.5363C177.208 41.4191 177.232 41.2873 177.31 41.1408L178.219 39.5294C178.306 39.3731 178.414 39.2755 178.541 39.2364C178.668 39.1876 178.795 39.1827 178.922 39.2218C179.049 39.2511 179.151 39.3145 179.229 39.4122C179.317 39.5001 179.366 39.6124 179.376 39.7491C179.386 39.8761 179.337 40.0079 179.229 40.1446L178.043 41.6535ZM183.936 51.3804C183.301 51.3804 182.769 51.273 182.339 51.0581C181.919 50.8432 181.607 50.5307 181.402 50.1206C181.197 49.7006 181.094 49.183 181.094 48.5678V45.4476H180.332C180.098 45.4476 179.917 45.389 179.79 45.2718C179.663 45.1448 179.6 44.9739 179.6 44.7591C179.6 44.5344 179.663 44.3635 179.79 44.2463C179.917 44.1292 180.098 44.0706 180.332 44.0706H181.094V42.7375C181.094 42.4348 181.172 42.2053 181.328 42.049C181.494 41.8927 181.724 41.8146 182.017 41.8146C182.31 41.8146 182.534 41.8927 182.691 42.049C182.847 42.2053 182.925 42.4348 182.925 42.7375V44.0706H184.478C184.712 44.0706 184.893 44.1292 185.02 44.2463C185.147 44.3635 185.21 44.5344 185.21 44.7591C185.21 44.9739 185.147 45.1448 185.02 45.2718C184.893 45.389 184.712 45.4476 184.478 45.4476H182.925V48.4652C182.925 48.934 183.028 49.2856 183.233 49.52C183.438 49.7543 183.77 49.8715 184.229 49.8715C184.395 49.8715 184.541 49.8569 184.668 49.8276C184.795 49.7983 184.908 49.7788 185.005 49.769C185.122 49.7592 185.22 49.7983 185.298 49.8862C185.376 49.9643 185.415 50.1303 185.415 50.3842C185.415 50.5796 185.381 50.7554 185.313 50.9116C185.254 51.0581 185.142 51.1606 184.976 51.2192C184.849 51.2583 184.683 51.2925 184.478 51.3218C184.273 51.3608 184.092 51.3804 183.936 51.3804ZM193.301 51.3511C193.056 51.3511 192.842 51.2876 192.656 51.1606C192.48 51.0337 192.334 50.8384 192.217 50.5747L189.887 45.1692C189.799 44.9544 189.765 44.7542 189.785 44.5686C189.814 44.3831 189.902 44.2366 190.048 44.1292C190.205 44.012 190.415 43.9534 190.678 43.9534C190.903 43.9534 191.084 44.0071 191.22 44.1145C191.357 44.2122 191.479 44.4026 191.587 44.6858L193.564 49.6225H193.125L195.161 44.6712C195.268 44.3977 195.39 44.2122 195.527 44.1145C195.674 44.0071 195.869 43.9534 196.113 43.9534C196.328 43.9534 196.499 44.012 196.626 44.1292C196.753 44.2366 196.831 44.3831 196.86 44.5686C196.89 44.7444 196.855 44.9397 196.758 45.1546L194.385 50.5747C194.277 50.8384 194.131 51.0337 193.945 51.1606C193.769 51.2876 193.554 51.3511 193.301 51.3511ZM199.107 51.3364C198.814 51.3364 198.589 51.2485 198.433 51.0727C198.276 50.897 198.198 50.6528 198.198 50.3403V44.9641C198.198 44.6419 198.276 44.3977 198.433 44.2317C198.589 44.0559 198.814 43.968 199.107 43.968C199.4 43.968 199.624 44.0559 199.78 44.2317C199.946 44.3977 200.029 44.6419 200.029 44.9641V50.3403C200.029 50.6528 199.951 50.897 199.795 51.0727C199.639 51.2485 199.409 51.3364 199.107 51.3364ZM199.107 42.6057C198.765 42.6057 198.496 42.5227 198.301 42.3566C198.115 42.1808 198.023 41.9416 198.023 41.6388C198.023 41.3263 198.115 41.0871 198.301 40.921C198.496 40.755 198.765 40.672 199.107 40.672C199.458 40.672 199.727 40.755 199.912 40.921C200.098 41.0871 200.191 41.3263 200.191 41.6388C200.191 41.9416 200.098 42.1808 199.912 42.3566C199.727 42.5227 199.458 42.6057 199.107 42.6057ZM205.536 51.3804C204.725 51.3804 204.027 51.229 203.441 50.9263C202.855 50.6235 202.401 50.1938 202.079 49.6372C201.766 49.0805 201.61 48.4213 201.61 47.6595C201.61 46.9173 201.761 46.2679 202.064 45.7112C202.376 45.1546 202.801 44.72 203.338 44.4075C203.885 44.0852 204.505 43.9241 205.199 43.9241C205.707 43.9241 206.161 44.0071 206.561 44.1731C206.971 44.3391 207.318 44.5784 207.601 44.8909C207.894 45.2034 208.114 45.5843 208.26 46.0335C208.417 46.473 208.495 46.971 208.495 47.5277C208.495 47.7035 208.431 47.8402 208.304 47.9379C208.187 48.0258 208.016 48.0697 207.792 48.0697H203.089V47.015H207.206L206.971 47.2347C206.971 46.7855 206.903 46.4095 206.766 46.1068C206.639 45.804 206.449 45.5745 206.195 45.4183C205.951 45.2522 205.643 45.1692 205.272 45.1692C204.862 45.1692 204.51 45.2669 204.217 45.4622C203.934 45.6478 203.714 45.9163 203.558 46.2679C203.412 46.6097 203.338 47.0199 203.338 47.4984V47.601C203.338 48.4018 203.524 49.0024 203.895 49.4028C204.276 49.7934 204.833 49.9887 205.565 49.9887C205.819 49.9887 206.102 49.9594 206.415 49.9008C206.737 49.8325 207.04 49.7202 207.323 49.5639C207.528 49.4467 207.709 49.3979 207.865 49.4174C208.021 49.4272 208.143 49.4809 208.231 49.5786C208.329 49.6762 208.387 49.7983 208.407 49.9448C208.426 50.0815 208.397 50.2231 208.319 50.3696C208.251 50.5161 208.129 50.643 207.953 50.7505C207.611 50.9653 207.215 51.1265 206.766 51.2339C206.327 51.3315 205.917 51.3804 205.536 51.3804ZM205.213 54.2955C204.911 54.2955 204.676 54.2125 204.51 54.0465C204.344 53.8902 204.261 53.6656 204.261 53.3726C204.261 53.0797 204.344 52.855 204.51 52.6988C204.676 52.5425 204.911 52.4644 205.213 52.4644C205.526 52.4644 205.765 52.5425 205.931 52.6988C206.097 52.855 206.18 53.0797 206.18 53.3726C206.18 53.6656 206.097 53.8902 205.931 54.0465C205.765 54.2125 205.526 54.2955 205.213 54.2955ZM207.294 42.4885C207.382 42.6447 207.401 42.7863 207.352 42.9133C207.303 43.0402 207.22 43.1379 207.103 43.2063C206.986 43.2649 206.859 43.2844 206.722 43.2649C206.595 43.2453 206.488 43.1672 206.4 43.0305L205.213 41.1847L204.027 43.0305C203.939 43.1672 203.827 43.2453 203.69 43.2649C203.563 43.2844 203.441 43.2649 203.324 43.2063C203.207 43.1379 203.124 43.0402 203.075 42.9133C203.026 42.7863 203.045 42.6447 203.133 42.4885L204.188 40.5548C204.305 40.3302 204.447 40.1642 204.613 40.0567C204.789 39.9493 204.989 39.8956 205.213 39.8956C205.438 39.8956 205.638 39.9493 205.814 40.0567C205.99 40.1642 206.136 40.3302 206.254 40.5548L207.294 42.4885ZM213.329 51.3804C212.577 51.3804 211.923 51.229 211.366 50.9263C210.809 50.6137 210.38 50.1743 210.077 49.6079C209.774 49.0414 209.623 48.3773 209.623 47.6156C209.623 47.0394 209.706 46.5267 209.872 46.0775C210.048 45.6185 210.297 45.2327 210.619 44.9202C210.941 44.5979 211.332 44.3538 211.791 44.1877C212.25 44.012 212.762 43.9241 213.329 43.9241C213.651 43.9241 213.998 43.968 214.369 44.0559C214.75 44.1438 215.106 44.2903 215.438 44.4954C215.595 44.593 215.697 44.7102 215.746 44.847C215.795 44.9837 215.805 45.1253 215.775 45.2718C215.746 45.4085 215.682 45.5306 215.585 45.638C215.497 45.7357 215.385 45.7991 215.248 45.8284C215.111 45.848 214.96 45.8138 214.794 45.7259C214.579 45.5989 214.359 45.5062 214.135 45.4476C213.91 45.3792 213.695 45.345 213.49 45.345C213.168 45.345 212.885 45.3987 212.64 45.5062C212.396 45.6038 212.186 45.7503 212.01 45.9456C211.844 46.1312 211.717 46.3656 211.63 46.6488C211.542 46.932 211.498 47.2591 211.498 47.6302C211.498 48.3529 211.669 48.9242 212.01 49.3442C212.362 49.7543 212.855 49.9594 213.49 49.9594C213.695 49.9594 213.905 49.9301 214.12 49.8715C214.345 49.8129 214.569 49.7202 214.794 49.5932C214.96 49.5053 215.106 49.476 215.233 49.5053C215.37 49.5346 215.482 49.603 215.57 49.7104C215.658 49.8081 215.712 49.9301 215.731 50.0766C215.751 50.2133 215.731 50.3501 215.673 50.4868C215.624 50.6235 215.526 50.7358 215.38 50.8237C215.057 51.019 214.716 51.1606 214.354 51.2485C213.993 51.3364 213.651 51.3804 213.329 51.3804ZM221.959 51.3511C221.667 51.3511 221.442 51.273 221.286 51.1167C221.129 50.9507 221.051 50.7163 221.051 50.4135V41.7121C221.051 41.4093 221.129 41.1798 221.286 41.0236C221.442 40.8673 221.667 40.7892 221.959 40.7892C222.252 40.7892 222.477 40.8673 222.633 41.0236C222.799 41.1798 222.882 41.4093 222.882 41.7121V45.5062H222.677C222.892 44.9886 223.224 44.5979 223.673 44.3342C224.132 44.0608 224.65 43.9241 225.226 43.9241C225.802 43.9241 226.276 44.0315 226.647 44.2463C227.018 44.4612 227.297 44.7884 227.482 45.2278C227.668 45.6575 227.76 46.2044 227.76 46.8685V50.4135C227.76 50.7163 227.682 50.9507 227.526 51.1167C227.37 51.273 227.145 51.3511 226.852 51.3511C226.559 51.3511 226.33 51.273 226.164 51.1167C226.007 50.9507 225.929 50.7163 225.929 50.4135V46.9564C225.929 46.3997 225.822 45.9945 225.607 45.7405C225.402 45.4866 225.08 45.3597 224.64 45.3597C224.103 45.3597 223.673 45.5306 223.351 45.8724C223.039 46.2044 222.882 46.6488 222.882 47.2054V50.4135C222.882 51.0386 222.575 51.3511 221.959 51.3511ZM232.96 51.3804C232.218 51.3804 231.573 51.229 231.027 50.9263C230.48 50.6235 230.055 50.1938 229.752 49.6372C229.449 49.0707 229.298 48.4066 229.298 47.6449C229.298 47.0687 229.381 46.556 229.547 46.1068C229.723 45.6478 229.972 45.2571 230.294 44.9348C230.616 44.6028 231.002 44.3538 231.451 44.1877C231.901 44.012 232.404 43.9241 232.96 43.9241C233.702 43.9241 234.347 44.0754 234.894 44.3782C235.441 44.6809 235.866 45.1106 236.168 45.6673C236.471 46.224 236.622 46.8832 236.622 47.6449C236.622 48.2211 236.535 48.7387 236.359 49.1977C236.193 49.6567 235.949 50.0522 235.626 50.3842C235.304 50.7065 234.918 50.9556 234.469 51.1313C234.02 51.2974 233.517 51.3804 232.96 51.3804ZM232.96 49.9887C233.322 49.9887 233.639 49.9008 233.912 49.725C234.186 49.5493 234.396 49.2905 234.542 48.9487C234.699 48.5971 234.777 48.1625 234.777 47.6449C234.777 46.8636 234.611 46.2825 234.279 45.9017C233.947 45.511 233.507 45.3157 232.96 45.3157C232.599 45.3157 232.282 45.4036 232.008 45.5794C231.735 45.7454 231.52 46.0042 231.364 46.3558C231.217 46.6976 231.144 47.1273 231.144 47.6449C231.144 48.4164 231.31 49.0024 231.642 49.4028C231.974 49.7934 232.413 49.9887 232.96 49.9887ZM232.96 54.2955C232.658 54.2955 232.423 54.2125 232.257 54.0465C232.091 53.8902 232.008 53.6656 232.008 53.3726C232.008 53.0797 232.091 52.855 232.257 52.6988C232.423 52.5425 232.658 52.4644 232.96 52.4644C233.273 52.4644 233.512 52.5425 233.678 52.6988C233.844 52.855 233.927 53.0797 233.927 53.3726C233.927 53.6656 233.844 53.8902 233.678 54.0465C233.512 54.2125 233.273 54.2955 232.96 54.2955ZM241.518 51.3804C240.766 51.3804 240.111 51.229 239.555 50.9263C238.998 50.6137 238.568 50.1743 238.266 49.6079C237.963 49.0414 237.812 48.3773 237.812 47.6156C237.812 47.0394 237.895 46.5267 238.061 46.0775C238.236 45.6185 238.485 45.2327 238.808 44.9202C239.13 44.5979 239.521 44.3538 239.98 44.1877C240.439 44.012 240.951 43.9241 241.518 43.9241C241.84 43.9241 242.187 43.968 242.558 44.0559C242.939 44.1438 243.295 44.2903 243.627 44.4954C243.783 44.593 243.886 44.7102 243.935 44.847C243.984 44.9837 243.993 45.1253 243.964 45.2718C243.935 45.4085 243.871 45.5306 243.774 45.638C243.686 45.7357 243.573 45.7991 243.437 45.8284C243.3 45.848 243.149 45.8138 242.983 45.7259C242.768 45.5989 242.548 45.5062 242.323 45.4476C242.099 45.3792 241.884 45.345 241.679 45.345C241.357 45.345 241.073 45.3987 240.829 45.5062C240.585 45.6038 240.375 45.7503 240.199 45.9456C240.033 46.1312 239.906 46.3656 239.818 46.6488C239.731 46.932 239.687 47.2591 239.687 47.6302C239.687 48.3529 239.858 48.9242 240.199 49.3442C240.551 49.7543 241.044 49.9594 241.679 49.9594C241.884 49.9594 242.094 49.9301 242.309 49.8715C242.533 49.8129 242.758 49.7202 242.983 49.5932C243.149 49.5053 243.295 49.476 243.422 49.5053C243.559 49.5346 243.671 49.603 243.759 49.7104C243.847 49.8081 243.901 49.9301 243.92 50.0766C243.94 50.2133 243.92 50.3501 243.862 50.4868C243.813 50.6235 243.715 50.7358 243.569 50.8237C243.246 51.019 242.905 51.1606 242.543 51.2485C242.182 51.3364 241.84 51.3804 241.518 51.3804Z" fill="#7E84A0"/>
<path d="M34.4149 83.9801H205.781" stroke="#E9EAF2" stroke-width="16.2766" stroke-linecap="round"/>
<path d="M34.4149 83.9801L211.83 84.2238" stroke="#FEA623" stroke-width="16.2766" stroke-linecap="round"/>
<mask id="path-24-outside-1_8619_13703" maskUnits="userSpaceOnUse" x="110.423" y="79.6719" width="28" height="9" fill="black">
<rect fill="white" x="110.423" y="79.6719" width="28" height="9"/>
<path d="M111.946 87.6719C111.777 87.6719 111.644 87.6263 111.546 87.5352C111.455 87.4375 111.409 87.3073 111.409 87.1445C111.409 86.9752 111.455 86.8483 111.546 86.7636C111.644 86.679 111.777 86.6367 111.946 86.6367H113.04V81.8416H113.646L112.21 82.7108C112.086 82.7824 111.969 82.8117 111.858 82.7987C111.754 82.7791 111.663 82.7336 111.585 82.6619C111.513 82.5838 111.465 82.4927 111.439 82.3885C111.412 82.2843 111.419 82.1802 111.458 82.076C111.504 81.9653 111.588 81.8742 111.712 81.8025L113.06 80.992C113.19 80.9138 113.32 80.8487 113.45 80.7966C113.581 80.738 113.701 80.7087 113.812 80.7087C113.948 80.7087 114.062 80.7478 114.153 80.8259C114.245 80.8976 114.29 81.018 114.29 81.1873V86.6367H115.286C115.456 86.6367 115.586 86.679 115.677 86.7636C115.775 86.8483 115.823 86.9752 115.823 87.1445C115.823 87.3138 115.775 87.444 115.677 87.5352C115.586 87.6263 115.456 87.6719 115.286 87.6719H111.946ZM119.257 87.7695C118.443 87.7695 117.822 87.4635 117.392 86.8515C116.962 86.233 116.747 85.3541 116.747 84.2147C116.747 83.4465 116.842 82.8019 117.031 82.2811C117.226 81.7537 117.509 81.3566 117.88 81.0896C118.258 80.8227 118.717 80.6892 119.257 80.6892C120.078 80.6892 120.699 80.9887 121.123 81.5877C121.552 82.1867 121.767 83.0591 121.767 84.205C121.767 84.9667 121.669 85.6145 121.474 86.1484C121.285 86.6757 121.005 87.0794 120.634 87.3594C120.263 87.6328 119.804 87.7695 119.257 87.7695ZM119.257 86.7441C119.7 86.7441 120.026 86.539 120.234 86.1289C120.449 85.7187 120.556 85.0774 120.556 84.205C120.556 83.3325 120.449 82.701 120.234 82.3104C120.026 81.9132 119.7 81.7146 119.257 81.7146C118.821 81.7146 118.496 81.9132 118.281 82.3104C118.066 82.701 117.958 83.3325 117.958 84.205C117.958 85.0774 118.066 85.7187 118.281 86.1289C118.496 86.539 118.821 86.7441 119.257 86.7441ZM125.162 87.7695C124.348 87.7695 123.726 87.4635 123.297 86.8515C122.867 86.233 122.652 85.3541 122.652 84.2147C122.652 83.4465 122.746 82.8019 122.935 82.2811C123.131 81.7537 123.414 81.3566 123.785 81.0896C124.162 80.8227 124.621 80.6892 125.162 80.6892C125.982 80.6892 126.604 80.9887 127.027 81.5877C127.457 82.1867 127.672 83.0591 127.672 84.205C127.672 84.9667 127.574 85.6145 127.379 86.1484C127.19 86.6757 126.91 87.0794 126.539 87.3594C126.168 87.6328 125.709 87.7695 125.162 87.7695ZM125.162 86.7441C125.605 86.7441 125.93 86.539 126.138 86.1289C126.353 85.7187 126.461 85.0774 126.461 84.205C126.461 83.3325 126.353 82.701 126.138 82.3104C125.93 81.9132 125.605 81.7146 125.162 81.7146C124.726 81.7146 124.4 81.9132 124.185 82.3104C123.97 82.701 123.863 83.3325 123.863 84.205C123.863 85.0774 123.97 85.7187 124.185 86.1289C124.4 86.539 124.726 86.7441 125.162 86.7441ZM131.35 87.5937C131.285 87.7109 131.203 87.7858 131.105 87.8184C131.014 87.8574 130.92 87.8639 130.822 87.8379C130.731 87.8184 130.653 87.7728 130.588 87.7012C130.523 87.6361 130.484 87.5547 130.471 87.457C130.458 87.3529 130.484 87.2422 130.549 87.125L134.152 80.8748C134.218 80.7576 134.296 80.6795 134.387 80.6404C134.485 80.6013 134.579 80.5948 134.67 80.6209C134.761 80.6404 134.839 80.686 134.904 80.7576C134.97 80.8292 135.009 80.9171 135.022 81.0213C135.041 81.1189 135.018 81.2231 134.953 81.3338L131.35 87.5937ZM130.305 84.8983C129.758 84.8983 129.331 84.7095 129.025 84.3319C128.719 83.9543 128.566 83.44 128.566 82.7889C128.566 82.3527 128.635 81.9783 128.771 81.6658C128.908 81.3533 129.107 81.1124 129.367 80.9431C129.628 80.7739 129.94 80.6892 130.305 80.6892C130.852 80.6892 131.278 80.878 131.584 81.2556C131.89 81.6267 132.043 82.1378 132.043 82.7889C132.043 83.2251 131.975 83.6027 131.838 83.9217C131.701 84.2343 131.503 84.4752 131.242 84.6444C130.982 84.8137 130.669 84.8983 130.305 84.8983ZM130.305 84.078C130.461 84.078 130.594 84.0324 130.705 83.9413C130.816 83.8436 130.9 83.7004 130.959 83.5116C131.018 83.3228 131.047 83.0819 131.047 82.7889C131.047 82.3527 130.982 82.0304 130.852 81.8221C130.721 81.6137 130.539 81.5096 130.305 81.5096C130.148 81.5096 130.015 81.5551 129.904 81.6463C129.794 81.7374 129.709 81.8774 129.65 82.0662C129.592 82.255 129.562 82.4959 129.562 82.7889C129.562 83.2316 129.628 83.5572 129.758 83.7655C129.888 83.9738 130.07 84.078 130.305 84.078ZM135.207 87.7695C134.66 87.7695 134.234 87.5807 133.928 87.2031C133.622 86.8255 133.469 86.3112 133.469 85.6601C133.469 85.2239 133.537 84.8495 133.674 84.537C133.811 84.2245 134.009 83.9836 134.27 83.8143C134.53 83.645 134.843 83.5604 135.207 83.5604C135.754 83.5604 136.181 83.7492 136.487 84.1268C136.793 84.4979 136.946 85.009 136.946 85.6601C136.946 86.0963 136.877 86.4739 136.74 86.7929C136.604 87.1054 136.405 87.3463 136.145 87.5156C135.884 87.6849 135.572 87.7695 135.207 87.7695ZM135.207 86.9492C135.363 86.9492 135.497 86.9036 135.608 86.8125C135.718 86.7213 135.803 86.5813 135.862 86.3925C135.92 86.1972 135.949 85.9531 135.949 85.6601C135.949 85.2239 135.884 84.9016 135.754 84.6933C135.624 84.4849 135.442 84.3807 135.207 84.3807C135.051 84.3807 134.917 84.4263 134.807 84.5175C134.696 84.6086 134.611 84.7486 134.553 84.9374C134.494 85.1262 134.465 85.3671 134.465 85.6601C134.465 86.1028 134.53 86.4283 134.66 86.6367C134.791 86.845 134.973 86.9492 135.207 86.9492Z"/>
</mask>
<path d="M111.946 87.6719C111.777 87.6719 111.644 87.6263 111.546 87.5352C111.455 87.4375 111.409 87.3073 111.409 87.1445C111.409 86.9752 111.455 86.8483 111.546 86.7636C111.644 86.679 111.777 86.6367 111.946 86.6367H113.04V81.8416H113.646L112.21 82.7108C112.086 82.7824 111.969 82.8117 111.858 82.7987C111.754 82.7791 111.663 82.7336 111.585 82.6619C111.513 82.5838 111.465 82.4927 111.439 82.3885C111.412 82.2843 111.419 82.1802 111.458 82.076C111.504 81.9653 111.588 81.8742 111.712 81.8025L113.06 80.992C113.19 80.9138 113.32 80.8487 113.45 80.7966C113.581 80.738 113.701 80.7087 113.812 80.7087C113.948 80.7087 114.062 80.7478 114.153 80.8259C114.245 80.8976 114.29 81.018 114.29 81.1873V86.6367H115.286C115.456 86.6367 115.586 86.679 115.677 86.7636C115.775 86.8483 115.823 86.9752 115.823 87.1445C115.823 87.3138 115.775 87.444 115.677 87.5352C115.586 87.6263 115.456 87.6719 115.286 87.6719H111.946ZM119.257 87.7695C118.443 87.7695 117.822 87.4635 117.392 86.8515C116.962 86.233 116.747 85.3541 116.747 84.2147C116.747 83.4465 116.842 82.8019 117.031 82.2811C117.226 81.7537 117.509 81.3566 117.88 81.0896C118.258 80.8227 118.717 80.6892 119.257 80.6892C120.078 80.6892 120.699 80.9887 121.123 81.5877C121.552 82.1867 121.767 83.0591 121.767 84.205C121.767 84.9667 121.669 85.6145 121.474 86.1484C121.285 86.6757 121.005 87.0794 120.634 87.3594C120.263 87.6328 119.804 87.7695 119.257 87.7695ZM119.257 86.7441C119.7 86.7441 120.026 86.539 120.234 86.1289C120.449 85.7187 120.556 85.0774 120.556 84.205C120.556 83.3325 120.449 82.701 120.234 82.3104C120.026 81.9132 119.7 81.7146 119.257 81.7146C118.821 81.7146 118.496 81.9132 118.281 82.3104C118.066 82.701 117.958 83.3325 117.958 84.205C117.958 85.0774 118.066 85.7187 118.281 86.1289C118.496 86.539 118.821 86.7441 119.257 86.7441ZM125.162 87.7695C124.348 87.7695 123.726 87.4635 123.297 86.8515C122.867 86.233 122.652 85.3541 122.652 84.2147C122.652 83.4465 122.746 82.8019 122.935 82.2811C123.131 81.7537 123.414 81.3566 123.785 81.0896C124.162 80.8227 124.621 80.6892 125.162 80.6892C125.982 80.6892 126.604 80.9887 127.027 81.5877C127.457 82.1867 127.672 83.0591 127.672 84.205C127.672 84.9667 127.574 85.6145 127.379 86.1484C127.19 86.6757 126.91 87.0794 126.539 87.3594C126.168 87.6328 125.709 87.7695 125.162 87.7695ZM125.162 86.7441C125.605 86.7441 125.93 86.539 126.138 86.1289C126.353 85.7187 126.461 85.0774 126.461 84.205C126.461 83.3325 126.353 82.701 126.138 82.3104C125.93 81.9132 125.605 81.7146 125.162 81.7146C124.726 81.7146 124.4 81.9132 124.185 82.3104C123.97 82.701 123.863 83.3325 123.863 84.205C123.863 85.0774 123.97 85.7187 124.185 86.1289C124.4 86.539 124.726 86.7441 125.162 86.7441ZM131.35 87.5937C131.285 87.7109 131.203 87.7858 131.105 87.8184C131.014 87.8574 130.92 87.8639 130.822 87.8379C130.731 87.8184 130.653 87.7728 130.588 87.7012C130.523 87.6361 130.484 87.5547 130.471 87.457C130.458 87.3529 130.484 87.2422 130.549 87.125L134.152 80.8748C134.218 80.7576 134.296 80.6795 134.387 80.6404C134.485 80.6013 134.579 80.5948 134.67 80.6209C134.761 80.6404 134.839 80.686 134.904 80.7576C134.97 80.8292 135.009 80.9171 135.022 81.0213C135.041 81.1189 135.018 81.2231 134.953 81.3338L131.35 87.5937ZM130.305 84.8983C129.758 84.8983 129.331 84.7095 129.025 84.3319C128.719 83.9543 128.566 83.44 128.566 82.7889C128.566 82.3527 128.635 81.9783 128.771 81.6658C128.908 81.3533 129.107 81.1124 129.367 80.9431C129.628 80.7739 129.94 80.6892 130.305 80.6892C130.852 80.6892 131.278 80.878 131.584 81.2556C131.89 81.6267 132.043 82.1378 132.043 82.7889C132.043 83.2251 131.975 83.6027 131.838 83.9217C131.701 84.2343 131.503 84.4752 131.242 84.6444C130.982 84.8137 130.669 84.8983 130.305 84.8983ZM130.305 84.078C130.461 84.078 130.594 84.0324 130.705 83.9413C130.816 83.8436 130.9 83.7004 130.959 83.5116C131.018 83.3228 131.047 83.0819 131.047 82.7889C131.047 82.3527 130.982 82.0304 130.852 81.8221C130.721 81.6137 130.539 81.5096 130.305 81.5096C130.148 81.5096 130.015 81.5551 129.904 81.6463C129.794 81.7374 129.709 81.8774 129.65 82.0662C129.592 82.255 129.562 82.4959 129.562 82.7889C129.562 83.2316 129.628 83.5572 129.758 83.7655C129.888 83.9738 130.07 84.078 130.305 84.078ZM135.207 87.7695C134.66 87.7695 134.234 87.5807 133.928 87.2031C133.622 86.8255 133.469 86.3112 133.469 85.6601C133.469 85.2239 133.537 84.8495 133.674 84.537C133.811 84.2245 134.009 83.9836 134.27 83.8143C134.53 83.645 134.843 83.5604 135.207 83.5604C135.754 83.5604 136.181 83.7492 136.487 84.1268C136.793 84.4979 136.946 85.009 136.946 85.6601C136.946 86.0963 136.877 86.4739 136.74 86.7929C136.604 87.1054 136.405 87.3463 136.145 87.5156C135.884 87.6849 135.572 87.7695 135.207 87.7695ZM135.207 86.9492C135.363 86.9492 135.497 86.9036 135.608 86.8125C135.718 86.7213 135.803 86.5813 135.862 86.3925C135.92 86.1972 135.949 85.9531 135.949 85.6601C135.949 85.2239 135.884 84.9016 135.754 84.6933C135.624 84.4849 135.442 84.3807 135.207 84.3807C135.051 84.3807 134.917 84.4263 134.807 84.5175C134.696 84.6086 134.611 84.7486 134.553 84.9374C134.494 85.1262 134.465 85.3671 134.465 85.6601C134.465 86.1028 134.53 86.4283 134.66 86.6367C134.791 86.845 134.973 86.9492 135.207 86.9492Z" fill="#752B01"/>
<path d="M111.546 87.5352L111.07 87.9794L111.085 87.9958L111.102 88.0111L111.546 87.5352ZM111.546 86.7636L111.12 86.2716L111.111 86.2789L111.103 86.2865L111.546 86.7636ZM113.04 86.6367V87.2877H113.691V86.6367H113.04ZM113.04 81.8416V81.1905H112.389V81.8416H113.04ZM113.646 81.8416L113.983 82.3985L115.978 81.1905H113.646V81.8416ZM112.21 82.7108L112.536 83.2743L112.547 83.2677L112.21 82.7108ZM111.858 82.7987L111.738 83.4386L111.76 83.4427L111.782 83.4453L111.858 82.7987ZM111.585 82.6619L111.105 83.1019L111.124 83.1227L111.145 83.1419L111.585 82.6619ZM111.439 82.3885L110.807 82.5464L110.807 82.5464L111.439 82.3885ZM111.458 82.076L110.856 81.8281L110.852 81.8377L110.848 81.8474L111.458 82.076ZM111.712 81.8025L112.038 82.3661L112.048 82.3605L111.712 81.8025ZM113.06 80.992L112.725 80.4337L112.724 80.434L113.06 80.992ZM113.45 80.7966L113.692 81.4011L113.705 81.396L113.718 81.3904L113.45 80.7966ZM114.153 80.8259L113.73 81.3203L113.74 81.3293L113.751 81.3379L114.153 80.8259ZM114.29 86.6367H113.639V87.2877H114.29V86.6367ZM115.677 86.7636L115.234 87.2407L115.242 87.2483L115.251 87.2556L115.677 86.7636ZM115.677 87.5352L115.233 87.0592L115.225 87.0668L115.217 87.0748L115.677 87.5352ZM111.946 87.0208C111.919 87.0208 111.917 87.0171 111.93 87.0216C111.936 87.0238 111.946 87.0279 111.957 87.0346C111.969 87.0414 111.98 87.0497 111.99 87.0592L111.102 88.0111C111.35 88.2426 111.658 88.3229 111.946 88.3229V87.0208ZM112.022 87.0909C112.03 87.0998 112.038 87.1099 112.044 87.1208C112.051 87.1317 112.055 87.1415 112.058 87.1492C112.063 87.1644 112.06 87.1655 112.06 87.1445H110.758C110.758 87.4342 110.843 87.736 111.07 87.9794L112.022 87.0909ZM112.06 87.1445C112.06 87.1165 112.064 87.1198 112.056 87.1423C112.047 87.1684 112.026 87.2063 111.989 87.2407L111.103 86.2865C110.837 86.534 110.758 86.862 110.758 87.1445H112.06ZM111.972 87.2556C111.961 87.2652 111.95 87.2729 111.939 87.2787C111.929 87.2845 111.921 87.2876 111.916 87.289C111.908 87.2918 111.915 87.2877 111.946 87.2877V85.9856C111.67 85.9856 111.368 86.0561 111.12 86.2716L111.972 87.2556ZM111.946 87.2877H113.04V85.9856H111.946V87.2877ZM113.691 86.6367V81.8416H112.389V86.6367H113.691ZM113.04 82.4927H113.646V81.1905H113.04V82.4927ZM113.308 81.2847L111.873 82.1538L112.547 83.2677L113.983 82.3985L113.308 81.2847ZM111.884 82.1473C111.865 82.1581 111.861 82.1573 111.871 82.1548C111.883 82.152 111.905 82.1486 111.935 82.1521L111.782 83.4453C112.068 83.4788 112.326 83.3962 112.536 83.2742L111.884 82.1473ZM111.978 82.1588C111.983 82.1597 111.992 82.1622 112.003 82.1675C112.014 82.1728 112.021 82.1786 112.025 82.182L111.145 83.1419C111.313 83.2956 111.515 83.3966 111.738 83.4386L111.978 82.1588ZM112.065 82.222C112.065 82.222 112.067 82.224 112.069 82.2275C112.07 82.231 112.071 82.2326 112.07 82.2306L110.807 82.5464C110.859 82.7543 110.959 82.9427 111.105 83.1019L112.065 82.222ZM112.07 82.2306C112.073 82.2415 112.075 82.2563 112.074 82.2728C112.073 82.2892 112.069 82.3003 112.068 82.3046L110.848 81.8474C110.765 82.0704 110.748 82.3093 110.807 82.5464L112.07 82.2306ZM112.06 82.3239C112.052 82.3433 112.041 82.3584 112.033 82.3676C112.025 82.3759 112.024 82.3741 112.038 82.366L111.386 81.2391C111.163 81.3682 110.966 81.5603 110.856 81.8281L112.06 82.3239ZM112.048 82.3605L113.395 81.5499L112.724 80.434L111.376 81.2446L112.048 82.3605ZM113.395 81.5502C113.498 81.4885 113.597 81.4393 113.692 81.4011L113.209 80.1921C113.044 80.2581 112.882 80.3391 112.725 80.4337L113.395 81.5502ZM113.718 81.3904C113.787 81.359 113.816 81.3598 113.812 81.3598V80.0577C113.586 80.0577 113.374 80.1171 113.183 80.2029L113.718 81.3904ZM113.812 81.3598C113.818 81.3598 113.808 81.3606 113.789 81.3539C113.768 81.3468 113.747 81.335 113.73 81.3203L114.577 80.3316C114.352 80.1383 114.081 80.0577 113.812 80.0577V81.3598ZM113.751 81.3379C113.693 81.2925 113.661 81.2384 113.647 81.2004C113.635 81.1679 113.639 81.158 113.639 81.1873H114.941C114.941 80.9138 114.866 80.558 114.556 80.314L113.751 81.3379ZM113.639 81.1873V86.6367H114.941V81.1873H113.639ZM114.29 87.2877H115.286V85.9856H114.29V87.2877ZM115.286 87.2877C115.318 87.2877 115.323 87.2919 115.31 87.2876C115.294 87.2825 115.264 87.269 115.234 87.2407L116.12 86.2865C115.871 86.055 115.56 85.9856 115.286 85.9856V87.2877ZM115.251 87.2556C115.214 87.2243 115.191 87.1868 115.179 87.1561C115.169 87.1292 115.172 87.121 115.172 87.1445H116.475C116.475 86.8487 116.385 86.5156 116.103 86.2716L115.251 87.2556ZM115.172 87.1445C115.172 87.1675 115.169 87.1625 115.177 87.1405C115.187 87.1155 115.205 87.085 115.233 87.0592L116.121 88.0111C116.384 87.7657 116.475 87.443 116.475 87.1445H115.172ZM115.217 87.0748C115.245 87.0464 115.275 87.0304 115.296 87.0232C115.314 87.017 115.314 87.0208 115.286 87.0208V88.3229C115.572 88.3229 115.889 88.2435 116.137 87.9955L115.217 87.0748ZM115.286 87.0208H111.946V88.3229H115.286V87.0208ZM117.392 86.8515L116.857 87.223L116.859 87.2257L117.392 86.8515ZM117.031 82.2811L116.42 82.0549L116.419 82.0592L117.031 82.2811ZM117.88 81.0896L117.504 80.558L117.5 80.5611L117.88 81.0896ZM121.123 81.5877L120.591 81.9634L120.594 81.9672L121.123 81.5877ZM121.474 86.1484L120.863 85.9247L120.861 85.9289L121.474 86.1484ZM120.634 87.3594L121.02 87.8835L121.026 87.8791L120.634 87.3594ZM120.234 86.1289L119.657 85.8267L119.653 85.834L120.234 86.1289ZM120.234 82.3104L119.657 82.6129L119.663 82.6241L120.234 82.3104ZM118.281 82.3104L118.851 82.6241L118.853 82.6202L118.281 82.3104ZM118.281 86.1289L117.704 86.431L118.281 86.1289ZM119.257 87.1185C118.634 87.1185 118.221 86.8986 117.925 86.4774L116.859 87.2257C117.423 88.0285 118.253 88.4206 119.257 88.4206V87.1185ZM117.927 86.4801C117.602 86.0134 117.398 85.2853 117.398 84.2147H116.096C116.096 85.4229 116.322 86.4526 116.857 87.223L117.927 86.4801ZM117.398 84.2147C117.398 83.495 117.488 82.931 117.643 82.5029L116.419 82.0592C116.196 82.6728 116.096 83.3979 116.096 84.2147H117.398ZM117.641 82.5072C117.802 82.0731 118.016 81.7936 118.26 81.6182L117.5 80.5611C117.002 80.9195 116.65 81.4343 116.42 82.0549L117.641 82.5072ZM118.256 81.6213C118.506 81.4445 118.828 81.3403 119.257 81.3403V80.0382C118.606 80.0382 118.01 80.2009 117.504 80.558L118.256 81.6213ZM119.257 81.3403C119.895 81.3403 120.306 81.5596 120.591 81.9634L121.654 81.212C121.093 80.4178 120.26 80.0382 119.257 80.0382V81.3403ZM120.594 81.9672C120.911 82.4095 121.116 83.1249 121.116 84.205H122.418C122.418 82.9933 122.194 81.9638 121.652 81.2082L120.594 81.9672ZM121.116 84.205C121.116 84.9147 121.025 85.4822 120.863 85.9247L122.086 86.3721C122.314 85.7468 122.418 85.0187 122.418 84.205H121.116ZM120.861 85.9289C120.706 86.3616 120.493 86.6505 120.242 86.8396L121.026 87.8791C121.518 87.5083 121.864 86.9899 122.087 86.3678L120.861 85.9289ZM120.248 86.8352C120.009 87.0117 119.692 87.1185 119.257 87.1185V88.4206C119.916 88.4206 120.518 88.2539 121.02 87.8835L120.248 86.8352ZM119.257 87.3952C119.583 87.3952 119.899 87.3186 120.18 87.1412C120.461 86.9646 120.667 86.713 120.814 86.4237L119.653 85.834C119.592 85.9549 119.532 86.0109 119.486 86.0394C119.442 86.0671 119.375 86.093 119.257 86.093V87.3952ZM120.811 86.431C121.101 85.8771 121.207 85.1051 121.207 84.205H119.905C119.905 85.0497 119.797 85.5602 119.657 85.8268L120.811 86.431ZM121.207 84.205C121.207 83.3091 121.102 82.5379 120.804 81.9966L119.663 82.6241C119.795 82.8641 119.905 83.356 119.905 84.205H121.207ZM120.81 82.0079C120.661 81.7235 120.452 81.4785 120.172 81.3078C119.892 81.1367 119.579 81.0636 119.257 81.0636V82.3657C119.379 82.3657 119.449 82.3919 119.494 82.4194C119.54 82.4472 119.598 82.5001 119.657 82.6128L120.81 82.0079ZM119.257 81.0636C118.937 81.0636 118.626 81.1376 118.347 81.3078C118.069 81.4772 117.86 81.7195 117.708 82.0006L118.853 82.6202C118.916 82.504 118.977 82.4485 119.025 82.4194C119.072 82.391 119.141 82.3657 119.257 82.3657V81.0636ZM117.71 81.9966C117.412 82.5379 117.307 83.3091 117.307 84.205H118.609C118.609 83.356 118.719 82.8641 118.851 82.6241L117.71 81.9966ZM117.307 84.205C117.307 85.1051 117.414 85.8771 117.704 86.431L118.857 85.8268C118.718 85.5602 118.609 85.0497 118.609 84.205H117.307ZM117.704 86.431C117.854 86.7171 118.061 86.966 118.339 87.1412C118.619 87.3176 118.933 87.3952 119.257 87.3952V86.093C119.145 86.093 119.078 86.0681 119.033 86.0394C118.985 86.0095 118.922 85.9508 118.857 85.8268L117.704 86.431ZM123.297 86.8515L122.762 87.223L122.764 87.2257L123.297 86.8515ZM122.935 82.2811L122.325 82.0549L122.323 82.0592L122.935 82.2811ZM123.785 81.0896L123.409 80.558L123.405 80.5611L123.785 81.0896ZM127.027 81.5877L126.495 81.9634L126.498 81.9672L127.027 81.5877ZM127.379 86.1484L126.767 85.9247L126.766 85.9289L127.379 86.1484ZM126.539 87.3594L126.925 87.8835L126.931 87.8791L126.539 87.3594ZM126.138 86.1289L125.562 85.8267L125.558 85.834L126.138 86.1289ZM126.138 82.3104L125.562 82.6129L125.568 82.6241L126.138 82.3104ZM124.185 82.3104L124.756 82.6241L124.758 82.6202L124.185 82.3104ZM124.185 86.1289L123.609 86.431L124.185 86.1289ZM125.162 87.1185C124.538 87.1185 124.125 86.8986 123.829 86.4774L122.764 87.2257C123.327 88.0285 124.158 88.4206 125.162 88.4206V87.1185ZM123.831 86.4801C123.507 86.0134 123.303 85.2853 123.303 84.2147H122.001C122.001 85.4229 122.227 86.4526 122.762 87.223L123.831 86.4801ZM123.303 84.2147C123.303 83.495 123.392 82.931 123.547 82.5029L122.323 82.0592C122.101 82.6728 122.001 83.3979 122.001 84.2147H123.303ZM123.546 82.5072C123.707 82.0731 123.921 81.7936 124.165 81.6182L123.405 80.5611C122.906 80.9195 122.555 81.4343 122.325 82.0549L123.546 82.5072ZM124.161 81.6213C124.411 81.4445 124.733 81.3403 125.162 81.3403V80.0382C124.51 80.0382 123.914 80.2009 123.409 80.558L124.161 81.6213ZM125.162 81.3403C125.8 81.3403 126.21 81.5596 126.495 81.9634L127.559 81.212C126.998 80.4178 126.165 80.0382 125.162 80.0382V81.3403ZM126.498 81.9672C126.815 82.4095 127.021 83.1249 127.021 84.205H128.323C128.323 82.9933 128.098 81.9638 127.556 81.2082L126.498 81.9672ZM127.021 84.205C127.021 84.9147 126.929 85.4822 126.767 85.9247L127.99 86.3721C128.219 85.7468 128.323 85.0187 128.323 84.205H127.021ZM126.766 85.9289C126.611 86.3616 126.397 86.6505 126.147 86.8396L126.931 87.8791C127.423 87.5083 127.769 86.9899 127.992 86.3678L126.766 85.9289ZM126.153 86.8352C125.913 87.0117 125.596 87.1185 125.162 87.1185V88.4206C125.821 88.4206 126.422 88.2539 126.925 87.8835L126.153 86.8352ZM125.162 87.3952C125.487 87.3952 125.803 87.3186 126.085 87.1412C126.365 86.9646 126.572 86.713 126.719 86.4237L125.558 85.834C125.497 85.9549 125.436 86.0109 125.391 86.0394C125.347 86.0671 125.279 86.093 125.162 86.093V87.3952ZM126.715 86.431C127.005 85.8771 127.112 85.1051 127.112 84.205H125.81C125.81 85.0497 125.701 85.5602 125.562 85.8268L126.715 86.431ZM127.112 84.205C127.112 83.3091 127.007 82.5379 126.709 81.9966L125.568 82.6241C125.7 82.8641 125.81 83.356 125.81 84.205H127.112ZM126.715 82.0079C126.566 81.7235 126.357 81.4785 126.077 81.3078C125.797 81.1367 125.483 81.0636 125.162 81.0636V82.3657C125.283 82.3657 125.354 82.3919 125.399 82.4194C125.445 82.4472 125.503 82.5001 125.562 82.6128L126.715 82.0079ZM125.162 81.0636C124.842 81.0636 124.53 81.1376 124.251 81.3078C123.974 81.4772 123.765 81.7195 123.613 82.0006L124.758 82.6202C124.821 82.504 124.882 82.4485 124.93 82.4194C124.976 82.391 125.046 82.3657 125.162 82.3657V81.0636ZM123.615 81.9966C123.317 82.5379 123.212 83.3091 123.212 84.205H124.514C124.514 83.356 124.624 82.8641 124.756 82.6241L123.615 81.9966ZM123.212 84.205C123.212 85.1051 123.318 85.8771 123.609 86.431L124.762 85.8268C124.622 85.5602 124.514 85.0497 124.514 84.205H123.212ZM123.609 86.431C123.758 86.7171 123.966 86.966 124.243 87.1412C124.524 87.3176 124.838 87.3952 125.162 87.3952V86.093C125.05 86.093 124.983 86.0681 124.938 86.0394C124.89 86.0095 124.827 85.9508 124.762 85.8268L123.609 86.431ZM131.35 87.5937L130.785 87.2689L130.781 87.2776L131.35 87.5937ZM131.105 87.8184L130.9 87.2007L130.874 87.2093L130.849 87.2199L131.105 87.8184ZM130.822 87.8379L130.99 87.2088L130.974 87.2047L130.959 87.2013L130.822 87.8379ZM130.588 87.7012L131.07 87.2632L131.059 87.2518L131.048 87.2408L130.588 87.7012ZM130.471 87.457L129.825 87.5378L129.825 87.5431L130.471 87.457ZM130.549 87.125L129.985 86.7997L129.98 86.8088L130.549 87.125ZM134.152 80.8748L134.717 81.2L134.722 81.191L134.152 80.8748ZM134.387 80.6404L134.145 80.0359L134.138 80.0388L134.13 80.042L134.387 80.6404ZM134.67 80.6209L134.491 81.2469L134.512 81.2529L134.534 81.2575L134.67 80.6209ZM134.904 80.7576L134.423 81.1955L134.423 81.1955L134.904 80.7576ZM135.022 81.0213L134.376 81.102L134.379 81.1256L134.383 81.1489L135.022 81.0213ZM134.953 81.3338L134.392 81.0037L134.389 81.009L134.953 81.3338ZM129.025 84.3319L128.52 84.7418L129.025 84.3319ZM128.771 81.6658L129.368 81.9268L128.771 81.6658ZM129.367 80.9431L129.722 81.489V81.489L129.367 80.9431ZM131.584 81.2556L131.078 81.6656L131.082 81.6698L131.584 81.2556ZM131.838 83.9217L132.434 84.1827L132.436 84.1782L131.838 83.9217ZM131.242 84.6444L131.597 85.1903V85.1903L131.242 84.6444ZM130.705 83.9413L131.119 84.4439L131.128 84.4368L131.136 84.4295L130.705 83.9413ZM130.959 83.5116L130.337 83.3186L130.959 83.5116ZM130.852 81.8221L131.404 81.477V81.477L130.852 81.8221ZM129.65 82.0662L130.272 82.2592L129.65 82.0662ZM129.758 83.7655L129.206 84.1106L129.758 83.7655ZM133.928 87.2031L134.434 86.7932L133.928 87.2031ZM133.674 84.537L134.27 84.798V84.798L133.674 84.537ZM134.27 83.8143L134.624 84.3602V84.3602L134.27 83.8143ZM136.487 84.1268L135.981 84.5367L135.984 84.541L136.487 84.1268ZM136.74 86.7929L137.337 87.0539L137.339 87.0494L136.74 86.7929ZM136.145 87.5156L136.5 88.0615H136.5L136.145 87.5156ZM135.608 86.8125L135.194 86.3099L135.608 86.8125ZM135.862 86.3925L136.483 86.5855L136.485 86.5796L135.862 86.3925ZM134.553 84.9374L135.175 85.1304L134.553 84.9374ZM134.66 86.6367L135.212 86.2916V86.2916L134.66 86.6367ZM130.781 87.2776C130.775 87.2878 130.779 87.2771 130.799 87.2587C130.821 87.2385 130.855 87.2156 130.9 87.2007L131.311 88.436C131.606 88.3379 131.799 88.1253 131.919 87.9099L130.781 87.2776ZM130.849 87.2199C130.867 87.2121 130.892 87.205 130.922 87.203C130.951 87.201 130.974 87.2046 130.99 87.2088L130.655 88.467C130.89 88.5298 131.134 88.5145 131.362 88.4168L130.849 87.2199ZM130.959 87.2013C130.978 87.2055 131.001 87.2137 131.023 87.2267C131.045 87.2396 131.061 87.2534 131.07 87.2632L130.106 88.1391C130.259 88.3073 130.456 88.4253 130.686 88.4745L130.959 87.2013ZM131.048 87.2408C131.067 87.2592 131.084 87.2827 131.097 87.3096C131.109 87.336 131.114 87.3581 131.116 87.371L129.825 87.5431C129.856 87.7718 129.954 87.9881 130.128 88.1615L131.048 87.2408ZM131.117 87.3763C131.121 87.4071 131.117 87.4313 131.114 87.445C131.111 87.4574 131.109 87.4564 131.118 87.4412L129.98 86.8088C129.866 87.0132 129.79 87.2627 129.825 87.5378L131.117 87.3763ZM131.113 87.4502L134.717 81.2L133.588 80.5496L129.985 86.7998L131.113 87.4502ZM134.722 81.191C134.741 81.1559 134.725 81.204 134.643 81.2388L134.13 80.042C133.867 80.1549 133.694 80.3593 133.583 80.5586L134.722 81.191ZM134.629 81.2449C134.622 81.2477 134.603 81.2538 134.576 81.2557C134.547 81.2577 134.518 81.2546 134.491 81.2469L134.849 79.9948C134.604 79.9248 134.361 79.9494 134.145 80.0359L134.629 81.2449ZM134.534 81.2575C134.514 81.2532 134.491 81.2451 134.469 81.2321C134.447 81.2192 134.432 81.2053 134.423 81.1955L135.386 80.3196C135.233 80.1514 135.036 80.0334 134.806 79.9842L134.534 81.2575ZM134.423 81.1955C134.409 81.1802 134.397 81.1616 134.388 81.1416C134.379 81.1221 134.376 81.1076 134.376 81.102L135.668 80.9405C135.639 80.715 135.549 80.499 135.386 80.3196L134.423 81.1955ZM134.383 81.1489C134.374 81.1035 134.377 81.0629 134.383 81.0335C134.389 81.0063 134.397 80.9959 134.392 81.0037L135.514 81.6639C135.637 81.4563 135.719 81.1893 135.66 80.8936L134.383 81.1489ZM134.389 81.009L130.785 87.2689L131.914 87.9186L135.518 81.6586L134.389 81.009ZM130.305 84.2473C129.926 84.2473 129.697 84.1267 129.531 83.922L128.52 84.7418C128.966 85.2923 129.589 85.5494 130.305 85.5494V84.2473ZM129.531 83.922C129.347 83.6944 129.217 83.3414 129.217 82.7889H127.915C127.915 83.5385 128.092 84.2142 128.52 84.7418L129.531 83.922ZM129.217 82.7889C129.217 82.4184 129.276 82.1375 129.368 81.9268L128.175 81.4049C127.994 81.8192 127.915 82.2869 127.915 82.7889H129.217ZM129.368 81.9268C129.459 81.7189 129.579 81.5822 129.722 81.489L129.012 80.3973C128.635 80.6426 128.357 80.9877 128.175 81.4049L129.368 81.9268ZM129.722 81.489C129.86 81.3996 130.044 81.3403 130.305 81.3403V80.0382C129.836 80.0382 129.396 80.1481 129.012 80.3973L129.722 81.489ZM130.305 81.3403C130.683 81.3403 130.912 81.4608 131.078 81.6655L132.09 80.8457C131.644 80.2952 131.02 80.0382 130.305 80.0382V81.3403ZM131.082 81.6698C131.262 81.8889 131.392 82.2356 131.392 82.7889H132.694C132.694 82.0401 132.518 81.3646 132.086 80.8414L131.082 81.6698ZM131.392 82.7889C131.392 83.1588 131.334 83.4452 131.24 83.6653L132.436 84.1782C132.616 83.7602 132.694 83.2914 132.694 82.7889H131.392ZM131.241 83.6608C131.151 83.8687 131.031 84.0054 130.887 84.0985L131.597 85.1903C131.975 84.9449 132.252 84.5998 132.434 84.1827L131.241 83.6608ZM130.887 84.0985C130.75 84.188 130.566 84.2473 130.305 84.2473V85.5494C130.773 85.5494 131.214 85.4395 131.597 85.1903L130.887 84.0985ZM130.305 84.7291C130.597 84.7291 130.881 84.6398 131.119 84.4439L130.291 83.4387C130.293 83.4375 130.296 83.4353 130.3 83.433C130.304 83.4307 130.308 83.4289 130.312 83.4277C130.315 83.4265 130.317 83.4262 130.316 83.4263C130.316 83.4264 130.312 83.4269 130.305 83.4269V84.7291ZM131.136 84.4295C131.362 84.2303 131.498 83.9699 131.581 83.7046L130.337 83.3186C130.302 83.4309 130.27 83.4569 130.274 83.4531L131.136 84.4295ZM131.581 83.7046C131.666 83.431 131.698 83.119 131.698 82.7889H130.396C130.396 83.0448 130.369 83.2146 130.337 83.3186L131.581 83.7046ZM131.698 82.7889C131.698 82.3129 131.631 81.8415 131.404 81.477L130.299 82.1671C130.332 82.2194 130.396 82.3925 130.396 82.7889H131.698ZM131.404 81.477C131.161 81.0894 130.776 80.8585 130.305 80.8585V82.1606C130.315 82.1606 130.317 82.1617 130.313 82.1607C130.311 82.1602 130.308 82.1594 130.305 82.158C130.301 82.1566 130.298 82.1549 130.294 82.153C130.287 82.1488 130.283 82.1454 130.284 82.1457C130.284 82.1463 130.29 82.1522 130.299 82.1671L131.404 81.477ZM130.305 80.8585C130.012 80.8585 129.728 80.9477 129.49 81.1437L130.318 82.1489C130.317 82.1501 130.314 82.1522 130.31 82.1545C130.306 82.1568 130.301 82.1586 130.298 82.1599C130.294 82.1611 130.292 82.1613 130.293 82.1613C130.294 82.1612 130.297 82.1606 130.305 82.1606V80.8585ZM129.49 81.1437C129.251 81.3408 129.111 81.6076 129.029 81.8732L130.272 82.2592C130.307 82.1472 130.336 82.1341 130.318 82.1489L129.49 81.1437ZM129.029 81.8732C128.944 82.1468 128.911 82.4588 128.911 82.7889H130.214C130.214 82.533 130.24 82.3632 130.272 82.2592L129.029 81.8732ZM128.911 82.7889C128.911 83.2692 128.977 83.745 129.206 84.1106L130.31 83.4204C130.278 83.3693 130.214 83.194 130.214 82.7889H128.911ZM129.206 84.1106C129.448 84.4981 129.833 84.7291 130.305 84.7291V83.4269C130.295 83.4269 130.293 83.4258 130.297 83.4268C130.298 83.4273 130.301 83.4282 130.305 83.4296C130.308 83.4309 130.312 83.4327 130.315 83.4346C130.322 83.4387 130.326 83.4421 130.326 83.4418C130.325 83.4412 130.319 83.4353 130.31 83.4204L129.206 84.1106ZM135.207 87.1185C134.829 87.1185 134.6 86.9979 134.434 86.7932L133.422 87.613C133.868 88.1635 134.492 88.4206 135.207 88.4206V87.1185ZM134.434 86.7932C134.249 86.5656 134.12 86.2126 134.12 85.6601H132.818C132.818 86.4097 132.994 87.0854 133.422 87.613L134.434 86.7932ZM134.12 85.6601C134.12 85.2896 134.178 85.0087 134.27 84.798L133.077 84.276C132.896 84.6904 132.818 85.1581 132.818 85.6601H134.12ZM134.27 84.798C134.361 84.5901 134.481 84.4534 134.624 84.3602L133.915 83.2684C133.537 83.5138 133.26 83.8589 133.077 84.276L134.27 84.798ZM134.624 84.3602C134.762 84.2708 134.946 84.2115 135.207 84.2115V82.9093C134.739 82.9093 134.298 83.0193 133.915 83.2684L134.624 84.3602ZM135.207 84.2115C135.586 84.2115 135.815 84.332 135.981 84.5367L136.992 83.7169C136.546 83.1664 135.923 82.9093 135.207 82.9093V84.2115ZM135.984 84.541C136.165 84.7601 136.294 85.1068 136.294 85.6601H137.597C137.597 84.9113 137.42 84.2358 136.989 83.7126L135.984 84.541ZM136.294 85.6601C136.294 86.03 136.236 86.3164 136.142 86.5365L137.339 87.0494C137.518 86.6314 137.597 86.1626 137.597 85.6601H136.294ZM136.144 86.532C136.053 86.7399 135.933 86.8766 135.79 86.9697L136.5 88.0615C136.877 87.8161 137.154 87.471 137.337 87.0539L136.144 86.532ZM135.79 86.9697C135.652 87.0591 135.468 87.1185 135.207 87.1185V88.4206C135.675 88.4206 136.116 88.3106 136.5 88.0615L135.79 86.9697ZM135.207 87.6003C135.5 87.6003 135.784 87.511 136.021 87.315L135.194 86.3099C135.195 86.3087 135.198 86.3065 135.202 86.3042C135.206 86.3019 135.21 86.3001 135.214 86.2989C135.218 86.2977 135.22 86.2974 135.219 86.2975C135.218 86.2976 135.215 86.2981 135.207 86.2981V87.6003ZM136.021 87.315C136.261 87.118 136.401 86.8512 136.483 86.5855L135.24 86.1996C135.205 86.3115 135.176 86.3247 135.194 86.3099L136.021 87.315ZM136.485 86.5796C136.568 86.3035 136.6 85.9913 136.6 85.6601H135.298C135.298 85.9148 135.272 86.0909 135.238 86.2055L136.485 86.5796ZM136.6 85.6601C136.6 85.1841 136.534 84.7126 136.306 84.3482L135.202 85.0383C135.235 85.0905 135.298 85.2637 135.298 85.6601H136.6ZM136.306 84.3482C136.064 83.9606 135.679 83.7297 135.207 83.7297V85.0318C135.217 85.0318 135.219 85.0329 135.215 85.0319C135.213 85.0314 135.211 85.0306 135.207 85.0292C135.204 85.0278 135.2 85.0261 135.197 85.0242C135.189 85.02 135.186 85.0166 135.186 85.0169C135.187 85.0175 135.193 85.0234 135.202 85.0383L136.306 84.3482ZM135.207 83.7297C134.914 83.7297 134.631 83.8189 134.393 84.0149L135.221 85.02C135.219 85.0213 135.216 85.0234 135.212 85.0257C135.208 85.028 135.204 85.0298 135.2 85.0311C135.197 85.0323 135.195 85.0325 135.195 85.0324C135.196 85.0323 135.2 85.0318 135.207 85.0318V83.7297ZM134.393 84.0149C134.154 84.212 134.014 84.4788 133.931 84.7444L135.175 85.1304C135.209 85.0184 135.239 85.0053 135.221 85.02L134.393 84.0149ZM133.931 84.7444C133.846 85.018 133.814 85.33 133.814 85.6601H135.116C135.116 85.4042 135.142 85.2344 135.175 85.1304L133.931 84.7444ZM133.814 85.6601C133.814 86.1404 133.88 86.6162 134.108 86.9817L135.212 86.2916C135.18 86.2405 135.116 86.0652 135.116 85.6601H133.814ZM134.108 86.9817C134.35 87.3693 134.736 87.6003 135.207 87.6003V86.2981C135.197 86.2981 135.195 86.297 135.199 86.298C135.201 86.2985 135.204 86.2994 135.207 86.3007C135.211 86.3021 135.214 86.3038 135.218 86.3058C135.225 86.3099 135.228 86.3133 135.228 86.313C135.228 86.3124 135.222 86.3065 135.212 86.2916L134.108 86.9817Z" fill="white" mask="url(#path-24-outside-1_8619_13703)"/>
<g filter="url(#filter1_d_8619_13703)">
<path d="M270.88 82.6055C272.807 80.7265 271.744 77.4523 269.08 77.066L260.31 75.7912C259.252 75.6369 258.338 74.9733 257.865 74.014L253.943 66.0677C252.751 63.6538 250.214 62.9874 248.117 66.0677C246.871 67.8987 245.176 72.0274 244.195 74.014C243.723 74.9733 242.807 75.6369 241.75 75.7912L232.98 77.066C230.316 77.4537 229.252 80.7265 231.181 82.6055L237.527 88.7902C238.292 89.5359 238.642 90.6112 238.461 91.6654L236.962 100.4C236.506 103.053 239.292 105.076 241.675 103.824L249.518 99.7008C250.465 99.2027 251.595 99.2027 252.541 99.7008L260.385 103.824C262.768 105.076 265.552 103.053 265.098 100.4L263.6 91.6654C263.419 90.6112 263.768 89.5373 264.534 88.7902L270.88 82.6055Z" fill="url(#paint0_linear_8619_13703)"/>
<path opacity="0.3" d="M260.334 75.8025C259.274 75.6483 258.316 74.989 257.842 74.0296L253.906 66.1937C252.713 63.777 250.234 62.979 248.134 66.0621C246.886 67.8959 245.416 72.0501 244.436 74.0381C243.962 74.9974 243.059 75.7842 242.001 75.937L232.961 77.117C230.293 77.5047 229.357 80.7294 231.287 82.6112L237.573 88.8016C237.883 89.1044 238.108 89.4708 238.275 89.8571C242.977 92.0262 248.177 92.1479 252.613 89.7227C257.576 87.0088 260.391 81.7368 260.648 75.8478L260.334 75.8025ZM252.229 88.4266C248.829 90.2858 245.484 90.6551 241.88 88.9926C241.753 88.8002 235.789 82.9763 235.789 82.9763C234.309 81.5345 235.029 79.0739 237.074 78.7767L244.096 77.8599C244.908 77.7424 245.6 77.1397 245.962 76.4039C246.715 74.8786 247.83 71.6893 248.787 70.2829C250.395 67.9185 252.342 68.4307 253.258 70.2829L256.267 76.3813C256.631 77.117 257.215 77.9759 258.289 78.1513C258.289 78.1513 256.034 86.3467 252.229 88.4266Z" fill="#FFFFEB"/>
<path d="M262.019 96.602L260.652 90.0452C260.511 89.2175 260.785 88.3728 261.387 87.787L265.875 82.9833L243.894 98.9197L249.842 96.104C250.585 95.7135 251.474 95.7135 252.218 96.104L258.353 99.4008C260.225 100.386 262.377 98.6877 262.019 96.602Z" fill="#FFFF9B"/>
<path opacity="0.7" d="M245.708 101.704L249.408 99.7587L242.141 84.4746L240.598 75.9595L234.671 76.8198L241.078 85.4551L245.708 101.704Z" fill="#F3FFAC"/>
<path opacity="0.7" d="M248.686 78.0636L246.479 69.0886C246.209 69.6518 245.94 70.2333 245.678 70.8035L248.054 78.597L248.686 78.0636Z" fill="#F3FFAC"/>
<path opacity="0.7" d="M257.791 76.5383L253.235 65.008C252.64 64.3472 251.898 63.9779 251.104 64.002L257.564 76.8736L263.656 90.3042C263.779 89.8274 264.011 89.3803 264.338 88.9997L257.791 76.5383Z" fill="#F3FFAC"/>
<path d="M265.928 83.1267C267.37 81.7217 266.575 79.2724 264.583 78.9838L258.024 78.2721C257.233 78.1575 256.549 77.6608 256.195 76.9435L253.262 70.7588C252.37 68.9533 250.473 68.4552 248.905 70.7588C247.973 72.1284 246.705 75.4578 245.972 76.9435C245.618 77.6608 244.935 78.1575 244.142 78.2721L237.584 78.9838C235.592 79.2739 234.797 81.7217 236.239 83.1267L241.226 87.7522C241.799 88.3096 242.06 89.1147 241.925 89.9029L240.564 96.4342C240.223 98.418 242.306 99.9319 244.089 98.9953L249.955 95.6701C250.662 95.298 251.509 95.298 252.216 95.6701L258.082 98.9953C259.864 99.9319 261.947 98.4194 261.607 96.4342L260.246 89.9029C260.11 89.1147 260.372 88.3111 260.945 87.7522L265.928 83.1267Z" fill="#FBAA12"/>
<g opacity="0.3">
<path d="M265.875 82.9833C266.83 82.0522 266.803 80.6656 266.097 79.7501C266.428 81.6702 265.295 82.7554 264.609 83.4091C263.468 84.4958 258.814 87.1064 258.814 87.1064C257.856 87.7445 260.347 92.128 260.133 95.2352C260.007 97.0831 259.321 97.2274 257.494 96.9161C254.862 96.4676 251.493 92.9373 251.493 92.9373C250.932 92.4803 250.429 92.3841 249.813 92.9373C249.813 92.9373 246.719 96.2044 244.088 97.1298C242.34 97.7453 241.9 96.5992 241.9 94.747C241.9 93.301 241.788 91.7912 241.681 90.6649L240.508 96.2922C240.167 98.2759 242.25 99.7899 244.033 98.8532L249.899 95.5281C250.606 95.156 251.452 95.156 252.16 95.5281L258.026 98.8532C259.808 99.7899 261.89 98.2773 261.551 96.2922L260.19 89.7608C260.054 88.9727 260.316 88.169 260.889 87.6101L265.875 82.9833Z" fill="#EA831C"/>
</g>
<path d="M241.896 89.5754C241.896 89.5754 241.814 90.0777 241.704 90.5687C241.378 92.0063 240.511 96.2921 240.511 96.2921C240.461 96.5808 240.467 96.7874 240.509 97.1213C240.6 97.8302 241.119 98.3509 241.119 98.3509C241.119 98.3509 240.59 97.1737 240.898 95.7587C241.214 94.3098 241.771 91.6087 241.771 91.6087C241.808 91.3866 241.93 90.6239 241.896 89.5754Z" fill="#CF7310"/>
<path d="M237.409 79.4303C237.541 79.4006 237.675 79.3836 237.81 79.3709C237.81 79.3709 242.833 78.7908 244.504 78.57C245.296 78.4653 245.81 78.1696 246.163 77.4522C246.896 75.9666 247.919 72.7193 248.852 71.3496C249.842 69.8951 250.963 69.1367 251.88 69.2272C250.963 68.8239 249.842 69.1607 248.852 70.6153C247.919 71.9849 246.652 75.3143 245.919 76.8C245.565 77.5173 244.881 78.014 244.089 78.1286L237.531 78.8403C235.539 79.1304 234.743 81.5782 236.185 82.9832L236.3 83.0893C234.983 81.7452 235.622 79.8406 237.409 79.4303Z" fill="#CF7310"/>
<path d="M230.694 79.7388C230.738 79.5379 230.79 79.3398 230.865 79.146C230.943 78.9535 231.046 78.771 231.178 78.6083C231.44 78.2772 231.809 78.0494 232.188 77.8796C232.956 77.5499 233.77 77.3886 234.574 77.2188C236.188 76.9019 237.811 76.6741 239.431 76.4236L241.862 76.0614C242.269 76.0006 242.671 75.9553 243.041 75.8293C243.41 75.7062 243.741 75.4954 244.02 75.2181C244.569 74.6479 244.932 73.9008 245.239 73.1495C245.555 72.3967 245.796 71.6128 246.049 70.8318C245.868 71.6312 245.657 72.4264 245.389 73.2061C245.106 73.9772 244.77 74.7512 244.201 75.3907C243.912 75.7048 243.542 75.9581 243.134 76.0982C242.728 76.2439 242.311 76.2977 241.909 76.3656L239.478 76.7448C237.856 76.9868 236.231 77.2061 234.618 77.4636C233.814 77.6008 233.003 77.7367 232.249 78.0253C231.874 78.1682 231.512 78.3621 231.243 78.662C230.97 78.9606 230.81 79.3469 230.694 79.7388Z" fill="#FFFDE6"/>
<g opacity="0.9" filter="url(#filter2_di_8619_13703)">
<path d="M247.263 82.838V82.9591C247.265 82.9151 247.268 82.8513 247.276 82.7736C247.268 82.7934 247.263 82.8152 247.263 82.838Z" fill="#FFE755"/>
<path fill-rule="evenodd" clip-rule="evenodd" d="M247.431 82.6707C247.361 82.6707 247.302 82.7131 247.276 82.7734C247.332 82.2746 247.612 81.1994 248.987 81.0479H250.266L251.702 81.0479H254.537C255.524 81.0479 256.327 81.8509 256.327 82.8378V84.2779C256.209 84.0591 256.064 83.8491 255.893 83.6526C255.345 83.026 254.788 82.7662 254.636 82.7036C254.608 82.683 254.574 82.6707 254.537 82.6707H247.431Z" fill="#FFE755"/>
<path fill-rule="evenodd" clip-rule="evenodd" d="M247.465 81.9262L249.115 81.453L248.542 80.0002C248.734 79.7253 248.793 79.3803 248.699 79.0541C248.529 78.4613 247.908 78.1175 247.314 78.2877C246.721 78.4579 246.376 79.0787 246.546 79.6715C246.64 79.9977 246.872 80.2591 247.18 80.3906L247.465 81.9262Z" fill="#FFE755"/>
<path fill-rule="evenodd" clip-rule="evenodd" d="M252.902 81.453L254.552 81.9263L254.836 80.3908C255.144 80.2592 255.377 79.9979 255.471 79.6716C255.641 79.0788 255.296 78.458 254.702 78.2877C254.109 78.1175 253.487 78.4613 253.317 79.0541C253.224 79.3803 253.283 79.7253 253.474 80.0001L252.902 81.453Z" fill="#FFE755"/>
<path d="M251.755 88.8541H248.395L247.263 89.9426V83.0266C247.263 83.0266 247.262 83.0023 247.263 82.9591V82.8379C247.263 82.8151 247.268 82.7934 247.276 82.7736C247.332 82.2747 247.612 81.1996 248.987 81.0481H247.431C246.444 81.048 245.641 81.851 245.641 82.8379V91.7736C245.641 92.1179 245.837 92.4154 246.154 92.5502C246.264 92.5968 246.377 92.6195 246.489 92.6195C246.701 92.6195 246.908 92.5379 247.07 92.3817L249.001 90.5232C249.506 90 250.508 89.1231 251.755 88.8541Z" fill="#FFE755"/>
<path d="M247.263 83.0266V82.9591C247.262 83.0023 247.263 83.0266 247.263 83.0266Z" fill="#FFE755"/>
<path d="M254.636 88.8216C254.608 88.8419 254.574 88.854 254.537 88.854H254.518H254.474H251.755C250.508 89.1229 249.506 89.9999 249.001 90.5231L249.049 90.4768H254.537C255.524 90.4768 256.327 89.6738 256.327 88.6868V87.478C255.976 88.0995 255.404 88.5942 254.636 88.8216Z" fill="#FFE755"/>
<path d="M254.636 82.7036C254.677 82.7341 254.704 82.7828 254.704 82.8378V88.6869C254.704 88.7422 254.677 88.7912 254.636 88.8216C255.404 88.5942 255.976 88.0995 256.327 87.4781V84.2779C256.209 84.0591 256.064 83.8492 255.893 83.6527C255.345 83.0261 254.788 82.7662 254.636 82.7036Z" fill="#FFE755"/>
<path d="M253.107 86.7307C253.334 86.5082 253.298 86.1412 253.052 85.937L252.843 85.7629C252.7 85.6436 252.486 85.67 252.377 85.8203C251.765 86.6189 251.2 87.0627 250.389 86.9163C249.863 86.8213 249.439 86.5504 249.304 86.4564C249.273 86.4353 249.24 86.4191 249.204 86.41C249.084 86.379 248.958 86.4342 248.9 86.5436L248.826 86.6816C248.724 86.8738 248.766 87.1139 248.947 87.2368C249.779 87.8015 251.428 88.3776 253.107 86.7307Z" fill="#FFE755" fill-opacity="0.8"/>
<path d="M248.329 84.8598C248.238 85.0076 248.284 85.1966 248.418 85.3064L248.434 85.3194C248.455 85.3361 248.478 85.3495 248.502 85.359L248.511 85.3625C248.615 85.4027 248.732 85.3658 248.794 85.2737C248.8 85.2624 248.902 85.0601 249.083 84.9245C249.327 84.7419 249.624 84.7572 249.965 84.9701C250.082 85.0433 250.237 84.9858 250.278 84.8537L250.332 84.6788C250.387 84.503 250.297 84.3118 250.12 84.2606C249.107 83.9667 248.605 84.4093 248.329 84.8598Z" fill="#FFE755" fill-opacity="0.8"/>
<circle cx="252.347" cy="84.4677" r="0.661709" transform="rotate(-8.70619 252.347 84.4677)" fill="#FFE755" fill-opacity="0.8"/>
</g>
</g>
<path d="M275.37 86.6475C275.237 86.6475 275.124 86.611 275.033 86.5381C274.948 86.4591 274.903 86.3589 274.896 86.2373C274.896 86.1158 274.948 85.9882 275.051 85.8545L276.528 84.0315V84.5693L275.143 82.8648C275.033 82.7311 274.982 82.6035 274.988 82.482C274.994 82.3605 275.039 82.2632 275.124 82.1903C275.215 82.1113 275.328 82.0718 275.462 82.0718C275.601 82.0718 275.717 82.0961 275.808 82.1447C275.905 82.1934 275.993 82.2693 276.072 82.3726L277.166 83.7763H276.765L277.868 82.3726C277.953 82.2693 278.041 82.1934 278.132 82.1447C278.223 82.0961 278.336 82.0718 278.47 82.0718C278.609 82.0718 278.722 82.1113 278.807 82.1903C278.892 82.2693 278.934 82.3696 278.934 82.4911C278.94 82.6126 278.889 82.7403 278.779 82.8739L277.403 84.5602V84.0498L278.88 85.8545C278.989 85.9821 279.041 86.1067 279.035 86.2282C279.029 86.3497 278.98 86.45 278.889 86.529C278.804 86.608 278.691 86.6475 278.552 86.6475C278.418 86.6475 278.305 86.6232 278.214 86.5746C278.123 86.526 278.035 86.45 277.95 86.3467L276.765 84.8519H277.148L275.972 86.3467C275.893 86.4439 275.808 86.5199 275.717 86.5746C275.626 86.6232 275.51 86.6475 275.37 86.6475ZM280.911 86.6019C280.753 86.6019 280.629 86.5594 280.538 86.4743C280.453 86.3832 280.41 86.2616 280.41 86.1097C280.41 85.9517 280.453 85.8332 280.538 85.7542C280.629 85.6752 280.753 85.6358 280.911 85.6358H281.932V81.1603H282.497L281.157 81.9716C281.042 82.0384 280.933 82.0658 280.829 82.0536C280.732 82.0354 280.647 81.9928 280.574 81.926C280.507 81.8531 280.462 81.768 280.437 81.6708C280.413 81.5735 280.419 81.4763 280.456 81.3791C280.498 81.2758 280.577 81.1907 280.693 81.1239L281.95 80.3673C282.072 80.2944 282.194 80.2337 282.315 80.185C282.437 80.1304 282.549 80.103 282.652 80.103C282.78 80.103 282.886 80.1395 282.971 80.2124C283.056 80.2792 283.099 80.3916 283.099 80.5496V85.6358H284.029C284.187 85.6358 284.308 85.6752 284.393 85.7542C284.484 85.8332 284.53 85.9517 284.53 86.1097C284.53 86.2677 284.484 86.3892 284.393 86.4743C284.308 86.5594 284.187 86.6019 284.029 86.6019H280.911ZM287.735 86.6931C286.975 86.6931 286.395 86.4075 285.994 85.8363C285.593 85.259 285.392 84.4387 285.392 83.3753C285.392 82.6582 285.48 82.0566 285.657 81.5705C285.839 81.0783 286.103 80.7076 286.45 80.4585C286.802 80.2094 287.231 80.0848 287.735 80.0848C288.501 80.0848 289.081 80.3643 289.476 80.9234C289.877 81.4824 290.077 82.2967 290.077 83.3661C290.077 84.0771 289.986 84.6817 289.804 85.18C289.628 85.6722 289.366 86.049 289.02 86.3103C288.674 86.5655 288.245 86.6931 287.735 86.6931ZM287.735 85.736C288.148 85.736 288.452 85.5446 288.646 85.1618C288.847 84.779 288.947 84.1804 288.947 83.3661C288.947 82.5519 288.847 81.9624 288.646 81.5979C288.452 81.2272 288.148 81.0418 287.735 81.0418C287.328 81.0418 287.024 81.2272 286.823 81.5979C286.623 81.9624 286.523 82.5519 286.523 83.3661C286.523 84.1804 286.623 84.779 286.823 85.1618C287.024 85.5446 287.328 85.736 287.735 85.736ZM293.246 86.6931C292.486 86.6931 291.906 86.4075 291.505 85.8363C291.104 85.259 290.903 84.4387 290.903 83.3753C290.903 82.6582 290.991 82.0566 291.168 81.5705C291.35 81.0783 291.614 80.7076 291.961 80.4585C292.313 80.2094 292.741 80.0848 293.246 80.0848C294.011 80.0848 294.592 80.3643 294.987 80.9234C295.388 81.4824 295.588 82.2967 295.588 83.3661C295.588 84.0771 295.497 84.6817 295.315 85.18C295.139 85.6722 294.877 86.049 294.531 86.3103C294.185 86.5655 293.756 86.6931 293.246 86.6931ZM293.246 85.736C293.659 85.736 293.963 85.5446 294.157 85.1618C294.358 84.779 294.458 84.1804 294.458 83.3661C294.458 82.5519 294.358 81.9624 294.157 81.5979C293.963 81.2272 293.659 81.0418 293.246 81.0418C292.839 81.0418 292.535 81.2272 292.334 81.5979C292.134 81.9624 292.034 82.5519 292.034 83.3661C292.034 84.1804 292.134 84.779 292.334 85.1618C292.535 85.5446 292.839 85.736 293.246 85.736Z" fill="#7E84A0"/>
</g>
</g>
<rect x="1.23404" y="1.617" width="323.532" height="142.681" rx="6.23404" stroke="#FFAE33" stroke-width="2"/>
<defs>
<filter id="filter0_d_8619_13703" x="16.5107" y="19.702" width="294.606" height="106.475" filterUnits="userSpaceOnUse" color-interpolation-filters="sRGB">
<feFlood flood-opacity="0" result="BackgroundImageFix"/>
<feColorMatrix in="SourceAlpha" type="matrix" values="0 0 0 0 0 0 0 0 0 0 0 0 0 0 0 0 0 0 127 0" result="hardAlpha"/>
<feOffset dx="1.62766" dy="2.44149"/>
<feComposite in2="hardAlpha" operator="out"/>
<feColorMatrix type="matrix" values="0 0 0 0 0.773527 0 0 0 0 0.36249 0 0 0 0 0.00647303 0 0 0 0.15 0"/>
<feBlend mode="normal" in2="BackgroundImageFix" result="effect1_dropShadow_8619_13703"/>
<feBlend mode="normal" in="SourceGraphic" in2="effect1_dropShadow_8619_13703" result="shape"/>
</filter>
<filter id="filter1_d_8619_13703" x="230.196" y="63.9999" width="42.9702" height="41.5062" filterUnits="userSpaceOnUse" color-interpolation-filters="sRGB">
<feFlood flood-opacity="0" result="BackgroundImageFix"/>
<feColorMatrix in="SourceAlpha" type="matrix" values="0 0 0 0 0 0 0 0 0 0 0 0 0 0 0 0 0 0 127 0" result="hardAlpha"/>
<feOffset dx="1.30213" dy="1.30213"/>
<feComposite in2="hardAlpha" operator="out"/>
<feColorMatrix type="matrix" values="0 0 0 0 0.458009 0 0 0 0 0.169264 0 0 0 0 0.00199134 0 0 0 0.25 0"/>
<feBlend mode="normal" in2="BackgroundImageFix" result="effect1_dropShadow_8619_13703"/>
<feBlend mode="normal" in="SourceGraphic" in2="effect1_dropShadow_8619_13703" result="shape"/>
</filter>
<filter id="filter2_di_8619_13703" x="243.684" y="78.1979" width="14.8755" height="14.956" filterUnits="userSpaceOnUse" color-interpolation-filters="sRGB">
<feFlood flood-opacity="0" result="BackgroundImageFix"/>
<feColorMatrix in="SourceAlpha" type="matrix" values="0 0 0 0 0 0 0 0 0 0 0 0 0 0 0 0 0 0 127 0" result="hardAlpha"/>
<feOffset dx="0.281429" dy="0.361837"/>
<feComposite in2="hardAlpha" operator="out"/>
<feColorMatrix type="matrix" values="0 0 0 0 0.811765 0 0 0 0 0.45098 0 0 0 0 0.0627451 0 0 0 0.9 0"/>
<feBlend mode="normal" in2="BackgroundImageFix" result="effect1_dropShadow_8619_13703"/>
<feBlend mode="normal" in="SourceGraphic" in2="effect1_dropShadow_8619_13703" result="shape"/>
<feColorMatrix in="SourceAlpha" type="matrix" values="0 0 0 0 0 0 0 0 0 0 0 0 0 0 0 0 0 0 127 0" result="hardAlpha"/>
<feOffset dx="0.20102" dy="0.281429"/>
<feComposite in2="hardAlpha" operator="arithmetic" k2="-1" k3="1"/>
<feColorMatrix type="matrix" values="0 0 0 0 0.952941 0 0 0 0 1 0 0 0 0 0.67451 0 0 0 0.9 0"/>
<feBlend mode="normal" in2="shape" result="effect2_innerShadow_8619_13703"/>
</filter>
<linearGradient id="paint0_linear_8619_13703" x1="236.452" y1="101.832" x2="265.609" y2="72.6747" gradientUnits="userSpaceOnUse">
<stop stop-color="#FBC01E"/>
<stop offset="0.4609" stop-color="#FDC822"/>
<stop offset="1" stop-color="#FCE13C"/>
</linearGradient>
<clipPath id="clip0_8619_13703">
<rect x="0.234039" y="0.617004" width="325.532" height="144.681" rx="7.23404" fill="white"/>
</clipPath>
</defs>
</svg>
