<svg width="393" height="249" viewBox="0 0 393 249" fill="none" xmlns="http://www.w3.org/2000/svg">
    <path d="M276.493 -18L202.387 122.893L317.973 -18H276.493Z" fill="#FFAE33" />
    <path d="M397 -18H368.24L202.387 122.893L397 17.9067V-18Z" fill="#FFAE33" />
    <path d="M397 60.2133L202.387 122.893L397 102.493V60.2133Z" fill="#FFAE33" />
    <path d="M397 138.627L202.387 122.893L397 181.347V138.627Z" fill="#FFAE33" />
    <path d="M397 248.667V224.267L202.387 122.893L357.707 248.667H397Z" fill="#FFAE33" />
    <path d="M304.16 248.667L202.387 122.893L270.347 248.667H304.16Z" fill="#FFAE33" />
    <path d="M241.453 248.667L202.387 122.893L215.413 248.667H241.453Z" fill="#FFAE33" />
    <path d="M189.56 248.667L202.387 122.893L165.64 248.667H189.56Z" fill="#FFAE33" />
    <path d="M137.267 248.667L202.387 122.893L99.16 248.667H137.267Z" fill="#FFAE33" />
    <path d="M-3 248.667H46.7867L202.387 122.893L-3 231.747V248.667Z" fill="#FFAE33" />
    <path d="M-3 189.787L202.387 122.893L-3 141.613V189.787Z" fill="#FFAE33" />
    <path d="M-3 59.3333V100.707L199.72 121.107L-3 59.3333Z" fill="#FFAE33" />
    <path d="M-3 -18V12.24L199.72 121.107L35.08 -18H-3Z" fill="#FFAE33" />
    <path d="M81.0533 -18L199.72 121.107L124.827 -18H81.0533Z" fill="#FFAE33" />
    <path d="M187.56 -18H159.12L199.72 117.56L187.56 -18Z" fill="#FFAE33" />
    <path d="M214.467 -18L202.387 121.107L243.4 -18H214.467Z" fill="#FFAE33" />
</svg>