<svg width="297" height="136" viewBox="0 0 297 136" fill="none" xmlns="http://www.w3.org/2000/svg">
    <path
        d="M142.991 14.7828C147.826 7.25497 158.828 7.25498 163.664 14.7828L177.104 35.7084C178.768 38.2984 181.343 40.1696 184.321 40.9514L208.375 47.2678C217.029 49.54 220.429 60.0042 214.764 66.9289L199.016 86.178C197.066 88.5606 196.083 91.5882 196.259 94.6614L197.685 119.491C198.198 128.423 189.297 134.89 180.961 131.642L157.787 122.613C154.919 121.495 151.735 121.495 148.867 122.613L125.694 131.642C117.357 134.89 108.456 128.423 108.969 119.491L110.395 94.6614C110.572 91.5881 109.588 88.5606 107.639 86.178L91.8906 66.9289C86.2254 60.0042 89.6254 49.54 98.2789 47.2678L122.334 40.9514C125.311 40.1696 127.886 38.2984 129.55 35.7084L142.991 14.7828Z"
        fill="url(#paint0_linear_7521_3823)" />
    <path
        d="M86.3392 90.5514C88.4865 88.941 91.5799 90.0926 92.1514 92.7151L93.7402 100.005C93.9368 100.907 94.4651 101.703 95.2203 102.234L101.322 106.528C103.517 108.072 103.378 111.37 101.061 112.724L94.6184 116.488C93.821 116.954 93.2275 117.702 92.9555 118.585L90.7578 125.715C89.9672 128.28 86.7877 129.166 84.7838 127.381L79.2136 122.417C78.5241 121.802 77.6291 121.469 76.7057 121.483L69.2455 121.596C66.5618 121.637 64.736 118.887 65.8151 116.429L68.8147 109.598C69.186 108.752 69.2263 107.798 68.9276 106.924L66.5147 99.8642C65.6467 97.3244 67.6978 94.7382 70.3685 95.005L77.7926 95.7468C78.7116 95.8386 79.6315 95.5821 80.3703 95.028L86.3392 90.5514Z"
        fill="url(#paint1_linear_7521_3823)" />
    <path
        d="M251.58 4.63477C253.399 0.10134 259.3 -1.0288 262.666 2.51135L272.022 12.3522C273.181 13.5702 274.754 14.3091 276.431 14.4225L289.979 15.3389C294.853 15.6686 297.751 20.9308 295.424 25.226L288.957 37.166C288.156 38.6438 287.939 40.3684 288.35 41.9983L291.665 55.1666C292.857 59.9038 288.748 64.2861 283.944 63.4006L270.59 60.9391C268.937 60.6344 267.23 60.9614 265.807 61.8553L254.307 69.0774C250.171 71.6754 244.733 69.1217 244.091 64.2791L242.305 50.8179C242.084 49.1517 241.246 47.6292 239.955 46.5518L229.533 37.847C225.784 34.7155 226.533 28.7548 230.94 26.6475L243.19 20.7895C244.707 20.0644 245.895 18.7965 246.522 17.2367L251.58 4.63477Z"
        fill="#FFF8ED" />
    <path
        d="M40.1868 13.8106C44.1707 10.9836 49.7436 13.2269 50.6578 18.0256L53.1991 31.3648C53.5136 33.0159 54.4365 34.4887 55.7852 35.4918L66.6812 43.5955C70.601 46.5107 70.1896 52.5041 65.9083 54.8564L54.0072 61.3953C52.5342 62.2047 51.4186 63.5376 50.8814 65.1302L46.5414 77.9971C44.9801 82.6259 39.153 84.0867 35.5928 80.7419L25.6962 71.4439C24.4713 70.293 22.8589 69.644 21.1782 69.6252L7.59991 69.4737C2.71524 69.4192 -0.474767 64.3287 1.60622 59.9091L7.3909 47.6237C8.1069 46.1031 8.22592 44.3691 7.7244 42.7648L3.67257 29.8043C2.21497 25.1418 6.0706 20.5349 10.9169 21.1483L24.3886 22.8535C26.056 23.0645 27.742 22.6419 29.1127 21.6692L40.1868 13.8106Z"
        fill="url(#paint2_linear_7521_3823)" />
    <path
        d="M89.1582 6.50044C89.7041 5.14041 91.4741 4.80137 92.484 5.86341L95.291 8.81566C95.6385 9.18108 96.1104 9.40274 96.6135 9.43676L100.678 9.71168C102.14 9.81058 103.01 11.3892 102.312 12.6778L100.371 16.2598C100.131 16.7032 100.066 17.2205 100.189 17.7095L101.184 21.66C101.542 23.0811 100.309 24.3959 98.8676 24.1302L94.8613 23.3917C94.3654 23.3003 93.8533 23.3984 93.4263 23.6666L89.9765 25.8332C88.7355 26.6126 87.1042 25.8465 86.9115 24.3937L86.3758 20.3554C86.3095 19.8555 86.0579 19.3988 85.6709 19.0755L82.5443 16.4641C81.4195 15.5247 81.6441 13.7365 82.9662 13.1043L86.6414 11.3469C87.0963 11.1293 87.4529 10.749 87.6407 10.281L89.1582 6.50044Z"
        fill="url(#paint3_linear_7521_3823)" />
    <path
        d="M280.33 80.808C282.975 79.5451 286.04 81.4426 286.088 84.3732L286.223 92.5196C286.24 93.5279 286.634 94.4932 287.329 95.2244L292.939 101.132C294.958 103.257 294.1 106.758 291.328 107.71L283.622 110.356C282.668 110.683 281.872 111.357 281.391 112.243L277.506 119.405C276.109 121.981 272.514 122.248 270.753 119.905L265.855 113.394C265.249 112.588 264.362 112.039 263.371 111.856L255.359 110.374C252.477 109.841 251.113 106.505 252.796 104.105L257.475 97.4353C258.055 96.6098 258.303 95.5969 258.171 94.5971L257.104 86.5197C256.72 83.614 259.472 81.2857 262.274 82.1452L270.063 84.5343C271.028 84.83 272.068 84.753 272.978 84.3185L280.33 80.808Z"
        fill="url(#paint4_linear_7521_3823)" />
    <path
        d="M220.199 102.89C220.745 101.53 222.515 101.191 223.524 102.253L226.332 105.206C226.679 105.571 227.151 105.793 227.654 105.827L231.719 106.102C233.181 106.2 234.05 107.779 233.352 109.068L231.412 112.65C231.172 113.093 231.107 113.61 231.23 114.099L232.224 118.05C232.582 119.471 231.349 120.786 229.908 120.52L225.902 119.782C225.406 119.69 224.894 119.788 224.467 120.056L221.017 122.223C219.776 123.003 218.145 122.236 217.952 120.784L217.416 116.745C217.35 116.245 217.098 115.789 216.711 115.465L213.585 112.854C212.46 111.915 212.685 110.126 214.007 109.494L217.682 107.737C218.137 107.519 218.493 107.139 218.681 106.671L220.199 102.89Z"
        fill="url(#paint5_linear_7521_3823)" />
    <path
        d="M100.553 63.5076C100.367 62.6221 99.8566 60.1096 99.2966 58.6952C98.8669 58.6187 96.565 58.3025 96.2339 58.2911C96.2644 59.1405 97.6688 59.6282 98.1318 59.8679C97.778 60.0245 96.2119 60.06 96.5075 60.6037C96.6897 60.9398 98.3154 61.2695 98.6862 61.3992C98.56 61.5722 97.1073 62.0025 97.3243 62.3045C97.5816 62.6618 97.739 62.4194 99.3653 62.3506C99.6163 62.34 97.8772 63.0213 97.8191 63.6735C97.7759 64.1655 98.3565 64.3563 98.4012 64.3463C99.2952 64.1549 100.383 63.5083 100.553 63.5076Z"
        fill="#F29972" />
    <path
        d="M101.346 64.4365C101.954 63.49 103.736 62.3422 104.683 62.1855C107.307 64.9873 111.885 70.1585 118.382 74.4016C116.22 75.6961 113.282 76.9035 110.624 75.7727C108.505 74.8709 103.742 68.5427 101.346 64.4365Z"
        fill="#FFC19F" />
    <path
        d="M122.955 67.5105C120.875 68.0912 117.217 69.0851 113.389 70.2138C113.632 72.3442 114.651 76.8049 115.221 78.3682C116.824 78.2413 121.023 77.8776 121.317 77.8357C124.623 75.5153 127.698 68.4577 127.818 68.2953C125.509 67.7636 123.811 67.5006 122.955 67.5105Z"
        fill="#FEA623" />
    <g opacity="0.12">
        <path
            d="M108.967 130.815C108.967 133.132 119.997 135.01 133.603 135.01C147.21 135.01 158.239 133.132 158.239 130.815C158.239 128.498 147.21 126.623 133.603 126.623C119.997 126.623 108.967 128.498 108.967 130.815Z"
            fill="black" fill-opacity="0.5" />
    </g>
    <path
        d="M129.508 124.441C129.452 125.078 123.718 125.29 123.702 124.648C123.547 118.418 122.061 101.299 121.861 98.8215L130.617 99.9871C130.059 106.081 129.897 120.023 129.508 124.441Z"
        fill="#FFC19F" />
    <path
        d="M138.61 124.026C138.728 124.655 144.489 124.252 144.442 123.612C143.986 117.396 142.716 100.694 142.674 98.209L134.266 99.8672C135.42 105.877 137.788 119.668 138.61 124.026Z"
        fill="#FFC19F" />
    <path
        d="M120.339 92.37C120.447 99.1313 120.615 106.974 120.699 108.835C122.638 109.179 128.975 109.228 131.224 109.035C131.202 106.672 131.221 103.119 131.311 100.227C131.315 100.118 131.465 99.7644 131.796 99.7296C132.36 99.6701 132.551 100.366 132.588 100.482C133.036 101.913 133.872 106.019 134.702 109.342C136.564 109.49 143.185 108.762 145.198 108.044C144.55 102.897 143.846 97.1859 143.226 92.3693H120.339V92.37Z"
        fill="#224A66" />
    <path
        d="M120.291 89.3889C120.28 91.3683 120.336 94.0475 120.423 97.0314C120.496 97.0307 120.566 97.0442 120.64 97.04C122.754 96.9123 124.364 95.096 124.237 92.9819C124.112 90.9061 122.356 89.3258 120.291 89.3889Z"
        fill="#0B283A" />
    <path
        d="M142.76 89.4504C143.08 91.4043 143.442 94.0594 143.822 97.0199C143.75 97.0313 143.683 97.0554 143.61 97.0625C141.502 97.2667 139.627 95.7226 139.424 93.6148C139.223 91.5447 140.711 89.7092 142.76 89.4504Z"
        fill="#0B283A" />
    <g opacity="0.37">
        <path
            d="M134.034 92.37H120.283C120.309 93.1817 120.336 93.9978 120.364 94.8478C127.07 96.5259 135.913 96.5762 143.553 94.8847C143.516 94.3636 143.428 93.8964 143.392 93.3959C141.31 93.069 137.786 92.6933 134.034 92.37Z"
            fill="black" />
    </g>
    <path
        d="M144.26 94.2154C136.443 96.6953 126.756 96.3316 119.857 93.9644C120.602 84.2865 121.694 72.9638 122.954 67.5098C125.722 66.9469 136.395 66.1699 142.846 67.7919C143.311 74.1116 143.25 85.1224 144.26 94.2154Z"
        fill="#FEA623" />
    <path
        d="M126.489 68.4689C126.481 68.157 126.593 67.4189 126.719 67.0914C130.031 66.8178 134.148 66.7575 137.581 66.8879C137.613 67.0212 137.735 67.6437 137.747 67.7834C137.955 70.1846 135.93 71.728 132.729 72.0045C129.527 72.281 126.549 70.9439 126.489 68.4689Z"
        fill="#C55C02" />
    <path
        d="M127.736 61.5134L127.81 68.3144C127.825 69.7762 129.697 70.9425 131.99 70.9177C134.282 70.8929 136.128 69.6869 136.113 68.2243L136.039 61.4233L127.736 61.5134Z"
        fill="#FFC19F" />
    <g opacity="0.19">
        <path
            d="M127.756 63.4305L127.802 68.7753C131.091 68.8795 134.46 66.5952 136.047 64.9554L136.049 62.3585C133.487 62.5535 130.419 62.9711 127.756 63.4305Z"
            fill="#820303" />
    </g>
    <path
        d="M130.167 127.75C130.151 127.93 123.051 127.862 123.045 127.643C122.993 125.879 122.859 123.439 122.83 122.326L130.398 122.506C130.235 124.509 130.269 126.597 130.167 127.75Z"
        fill="#FFFFE3" />
    <path
        d="M121.687 125.526C121.791 125.131 122.011 124.628 122.18 124.169C122.306 123.829 125.628 123.856 125.644 124.671C125.648 124.881 125.641 125.065 125.626 125.232C126.194 125.233 126.81 125.221 127.461 125.192C128.876 125.129 130.144 125.003 131.033 124.854C131.101 126.144 131.007 128.379 131.071 129.813C131.071 129.813 116.275 132.711 113.922 130.581C113.257 129.98 116.956 127.258 121.687 125.526Z"
        fill="#E87903" />
    <path
        d="M131.05 128.915C131.053 129.234 131.058 129.541 131.07 129.814C131.07 129.814 116.274 132.712 113.921 130.581C113.827 130.496 113.822 130.369 113.892 130.209C117.989 131.062 127.37 129.565 131.05 128.915Z"
        fill="#982121" />
    <path
        d="M120.651 125.953C120.539 125.976 120.428 125.909 120.403 125.797C120.378 125.685 120.447 125.573 120.559 125.548C121.418 125.354 122.424 125.743 123.006 126.502C123.076 126.593 123.059 126.723 122.968 126.793C122.933 126.82 122.892 126.833 122.851 126.835C122.786 126.838 122.72 126.81 122.678 126.754C122.19 126.121 121.357 125.787 120.651 125.953ZM119.516 126.486C119.404 126.508 119.299 126.42 119.285 126.306C119.271 126.193 119.352 126.089 119.466 126.075C120.373 125.961 121.271 126.294 121.933 126.983C122.013 127.065 122.01 127.197 121.927 127.276C121.89 127.312 121.842 127.332 121.793 127.334C121.735 127.336 121.677 127.315 121.634 127.271C120.853 126.457 119.972 126.43 119.516 126.486ZM118.266 126.662C119.082 126.513 120.137 126.881 120.836 127.552C120.919 127.631 120.921 127.763 120.842 127.846C120.804 127.885 120.753 127.906 120.702 127.909C120.647 127.911 120.591 127.892 120.549 127.851C119.94 127.267 119.029 126.936 118.34 127.071C118.224 127.093 118.12 127.016 118.099 126.903C118.079 126.79 118.154 126.682 118.266 126.662Z"
        fill="#D2DAE5" />
    <path
        d="M138.33 127.748C138.357 127.927 145.15 127.429 145.156 127.209C145.201 125.482 145.24 122.783 145.293 121.851L137.752 122.531C138.047 124.519 138.152 126.605 138.33 127.748Z"
        fill="#FFFFE3" />
    <path
        d="M147.029 125.526C146.925 125.131 146.705 124.628 146.536 124.169C146.41 123.829 143.088 123.856 143.072 124.671C143.067 124.881 143.074 125.065 143.09 125.232C142.521 125.233 141.905 125.221 141.255 125.192C139.839 125.129 138.572 125.003 137.683 124.854C137.615 126.144 137.709 128.379 137.645 129.813C137.645 129.813 152.441 132.711 154.794 130.581C155.458 129.98 151.759 127.258 147.029 125.526Z"
        fill="#E87903" />
    <path
        d="M137.665 128.915C137.662 129.234 137.657 129.541 137.645 129.814C137.645 129.814 152.441 132.712 154.794 130.581C154.888 130.496 154.893 130.369 154.823 130.209C150.727 131.062 141.345 129.565 137.665 128.915Z"
        fill="#982121" />
    <path
        d="M146.038 126.754C145.996 126.81 145.93 126.838 145.864 126.835C145.823 126.834 145.782 126.82 145.748 126.793C145.657 126.723 145.64 126.593 145.709 126.502C146.291 125.744 147.297 125.353 148.157 125.548C148.268 125.573 148.338 125.685 148.313 125.797C148.287 125.908 148.177 125.976 148.064 125.953C147.358 125.787 146.525 126.121 146.038 126.754ZM147.081 127.269C147.038 127.314 146.98 127.335 146.922 127.332C146.873 127.33 146.825 127.311 146.788 127.275C146.705 127.195 146.702 127.063 146.782 126.981C147.444 126.293 148.342 125.96 149.249 126.074C149.362 126.088 149.443 126.191 149.429 126.305C149.415 126.419 149.31 126.508 149.198 126.485C148.742 126.43 147.862 126.457 147.081 127.269ZM150.615 126.903C150.595 127.015 150.49 127.093 150.374 127.07C149.686 126.935 148.774 127.266 148.166 127.85C148.123 127.892 148.067 127.911 148.013 127.908C147.962 127.906 147.911 127.884 147.872 127.845C147.793 127.763 147.796 127.631 147.878 127.551C148.576 126.881 149.631 126.513 150.447 126.661C150.561 126.682 150.636 126.79 150.615 126.903Z"
        fill="#D2DAE5" />
    <g opacity="0.55">
        <path
            d="M121.115 80.0739C124.333 81.0019 127.441 81.5911 130.447 81.7938C133.933 82.0292 137.288 81.752 140.563 81.0182C140.478 79.1516 140.404 77.3693 140.328 75.6628C134.555 77.0616 128.445 76.7673 121.741 74.7837C121.523 76.4419 121.314 78.2214 121.115 80.0739Z"
            fill="white" />
    </g>
    <path
        d="M152.748 42.1029C151.671 54.6053 145.708 60.6357 135.005 62.2457C124.618 63.8083 113.474 52.9279 114.258 40.2128C114.694 33.1531 120.632 27.0887 130.665 26.9355C141.344 26.7725 153.654 31.5827 152.748 42.1029Z"
        fill="#252937" />
    <path
        d="M120.96 36.4277C121.132 37.7201 118.852 54.0318 117.063 54.0764C115.273 54.1211 113.751 49.1116 113.385 43.7257C113.035 38.585 113.703 35.1424 116.663 33.7408C118.281 32.9744 120.756 34.8843 120.96 36.4277Z"
        fill="#252937" />
    <path
        d="M145.604 39.3345C146.1 40.992 144.211 57.466 141.757 60.6222C139.603 63.3928 134.678 66.4952 126.999 66.8128C121.324 67.0475 116.22 62.7654 115.528 58.7123C114.942 55.2867 115.227 51.3222 115.062 46.8104C114.981 44.6126 114.387 39.9995 115.359 37.1509C116.803 32.9099 122.912 30.8497 130.95 30.9723C138.057 31.0801 143.81 33.3324 145.604 39.3345Z"
        fill="#FFC19F" />
    <path
        d="M139.768 40.6851C139.924 46.7558 141.695 54.0673 144.207 53.9305C145.964 53.8348 150.895 50.2063 152.204 45.289C153.016 42.2391 153.139 38.4036 151.89 34.8404C150.14 29.8451 146.101 27.6282 143.042 29.3156C140.829 30.5357 139.657 36.3555 139.768 40.6851Z"
        fill="#252937" />
    <path
        d="M148.58 54.7989C147.419 57.8687 144.163 59.3405 142.049 58.8634C140.403 58.4919 140.371 55.683 141.008 53.0436C141.693 50.2006 143.359 48.631 145.569 48.6984C148.535 48.7891 149.612 52.0666 148.58 54.7989Z"
        fill="#FFC19F" />
    <path
        d="M145.75 54.4401C145.477 55.8204 143.73 56.947 142.523 56.4131C142.117 56.2331 143.312 51.7404 143.957 51.7418C145.424 51.7447 146.023 53.0598 145.75 54.4401Z"
        fill="#E3A07C" />
    <path
        d="M131.423 56.9173C131.046 55.4973 128.998 55.9127 126.14 56.0212C125.99 56.0269 125.409 56.0538 125.259 56.0623C122.403 56.2197 120.712 55.9319 120.645 57.4051C120.525 60.0665 122.791 62.7853 125.697 62.8194C128.593 62.8527 132.165 59.7077 131.423 56.9173Z"
        fill="#701608" />
    <path
        d="M123.125 61.999C123.878 62.4889 124.748 62.8079 125.698 62.8186C126.723 62.8306 127.828 62.4308 128.801 61.8026C127.98 60.9866 126.762 60.574 125.636 60.6513C124.607 60.7222 123.656 61.2021 123.125 61.999Z"
        fill="#DD6B5B" />
    <path
        d="M125.526 57.9189C123.413 58.0175 121.691 57.4652 121.422 56.4273L121.406 56.3642C122.023 56.0863 123.842 56.1005 124.931 56.0409C126.119 55.9757 129.54 55.8538 129.54 55.8538L129.53 55.9183C129.358 56.9767 127.637 57.8204 125.526 57.9189Z"
        fill="white" />
    <path
        d="M138.075 55.8226C138.138 56.545 137.184 57.2178 135.946 57.3248C134.708 57.4319 133.653 56.9335 133.59 56.2111C133.527 55.4887 134.481 54.8159 135.719 54.7088C136.957 54.6018 138.012 55.1002 138.075 55.8226Z"
        fill="#FF8A8A" />
    <path
        d="M115.264 56.2572C115.24 56.9137 115.971 57.4738 116.896 57.5071C117.822 57.5411 118.592 57.0357 118.616 56.3792C118.64 55.7227 117.909 55.1626 116.983 55.1286C116.058 55.096 115.288 55.6007 115.264 56.2572Z"
        fill="#FF8A8A" />
    <path
        d="M126.088 54.1736C126.005 54.1757 125.929 54.1169 125.913 54.0318C125.8 53.4278 125.312 53.0471 124.671 53.0606C124.027 53.0747 123.545 53.4852 123.473 54.0815C123.462 54.1772 123.374 54.2452 123.279 54.2339C123.183 54.2225 123.115 54.1353 123.126 54.0396C123.218 53.2761 123.851 52.7302 124.663 52.7118C125.471 52.694 126.112 53.1981 126.256 53.9666C126.274 54.0616 126.212 54.1524 126.117 54.1708L126.088 54.1736Z"
        fill="#C4735B" />
    <path
        d="M115.628 25.6779C115.524 27.6566 116.016 28.8171 116.768 29.2921C116.423 27.1858 117.238 23.3043 119.783 20.74C121.176 22.0969 123.273 23.0476 124.561 24.165C124.388 23.3178 124.22 22.1508 124.66 21.3497C126.078 23.1207 127.394 23.785 129.545 24.1004C133.054 24.6151 137.158 24.5648 140.608 25.4744C143.93 26.3507 146.459 27.9912 147.207 31.6501C147.482 32.9936 143.22 33.1474 141.451 34.2059C136.76 31.8224 130.729 34.2888 126.927 34.9163C121.937 35.7394 116.304 35.3693 114.797 33.2048C113.261 30.9972 113.211 27.7445 115.628 25.6779Z"
        fill="#252937" />
    <path
        d="M121.156 48.5273C122.054 50.2536 121.993 52.1791 121.26 52.9263C120.154 54.0522 117.486 54.4244 116.451 52.8554C115.448 51.3354 115.85 48.5152 117.398 47.2724C118.753 46.1835 120.286 46.8563 121.156 48.5273Z"
        fill="#F9FEFF" />
    <path
        d="M116.161 48.1488C117.325 45.4165 120.299 46.2687 121.186 48.5862C120.288 46.8606 118.692 46.3637 117.439 47.369C116.665 47.9914 116.129 49.0797 116.007 50.2814C115.909 51.2392 116.092 52.3068 116.508 52.9385C116.036 52.5302 115.305 50.158 116.161 48.1488Z"
        fill="#723C27" />
    <path
        d="M121.009 49.496C121.445 50.6977 121.005 52.0837 120.028 52.592C119.05 53.1003 117.904 52.5381 117.468 51.3365C117.032 50.1348 117.472 48.7488 118.45 48.2404C119.428 47.7328 120.574 48.295 121.009 49.496Z"
        fill="#252937" />
    <path
        d="M120.236 49.1773C120.348 49.4927 120.235 49.8565 119.985 49.9908C119.734 50.1243 119.44 49.9767 119.329 49.6612C119.218 49.3457 119.33 48.9819 119.581 48.8477C119.831 48.7141 120.124 48.8618 120.236 49.1773Z"
        fill="#FEFFFE" />
    <path
        d="M129.431 48.348C128.41 50.1318 128.614 52.0495 129.588 52.7457C131.055 53.7942 134.445 53.9864 135.648 52.3501C136.814 50.7649 136.122 47.978 134.088 46.8415C132.308 45.8468 130.419 46.6217 129.431 48.348Z"
        fill="#F9FEFF" />
    <path
        d="M135.705 47.6328C134.059 44.9841 130.363 46.0355 129.396 48.4091C130.417 46.626 132.397 46.022 134.044 46.9408C135.061 47.5094 135.807 48.5601 136.04 49.7504C136.225 50.6997 136.065 51.778 135.581 52.4366C136.149 51.9971 136.916 49.5803 135.705 47.6328Z"
        fill="#723C27" />
    <path
        d="M134.801 48.9875C135.272 50.1863 134.777 51.5759 133.696 52.0906C132.616 52.6053 131.358 52.0516 130.887 50.8528C130.416 49.6539 130.91 48.2651 131.991 47.7497C133.072 47.2342 134.33 47.7887 134.801 48.9875Z"
        fill="#252937" />
    <path
        d="M133.831 48.9473C133.961 49.2798 133.824 49.6655 133.524 49.808C133.224 49.9505 132.876 49.7966 132.745 49.4641C132.615 49.1316 132.752 48.746 133.051 48.6035C133.351 48.461 133.7 48.6148 133.831 48.9473Z"
        fill="#FEFFFE" />
    <path
        d="M120.499 40.3907C118.683 39.7782 116.458 40.3269 115.108 41.6945C114.836 41.9696 114.848 42.4346 115.121 42.7204C115.269 42.8742 115.463 42.9458 115.652 42.9366C115.816 42.9288 115.964 42.8465 116.101 42.7303C117.091 41.8845 118.747 41.4428 120.108 41.7725C120.479 41.8625 120.858 41.6839 120.967 41.3032C121.075 40.9217 120.865 40.5141 120.499 40.3907Z"
        fill="black" />
    <path
        d="M137.056 41.2154C135.302 39.6039 131.822 39.2969 129.587 40.2122C129.216 40.3639 129.016 40.768 129.155 41.1452C129.292 41.5216 129.707 41.6925 130.088 41.5776C132.272 40.9204 134.846 41.2976 136.082 42.2951C136.227 42.4121 136.394 42.4816 136.566 42.4823C136.766 42.483 136.965 42.4029 137.109 42.2426C137.378 41.9449 137.352 41.4876 137.056 41.2154Z"
        fill="black" />
    <path
        d="M135.668 80.1298C137.554 81.5846 141.096 83.2939 143.376 83.9823C145.537 79.7761 147.002 77.1572 147.265 75.9243C147.747 73.6585 146.837 71.0559 145.995 69.7656C145.193 68.5377 143.247 67.9337 142.847 67.7926C141.588 69.8195 139.315 72.9481 138.911 73.7748C137.937 75.7683 136.56 78.4184 135.668 80.1298Z"
        fill="#FEA623" />
    <path
        d="M121.86 70.3987C122.352 69.7819 123.267 69.2034 123.409 68.8078C123.155 68.3279 122.418 67.8812 121.872 67.6253C120.05 66.7717 117.017 65.3531 116.523 65.1929C116.01 65.4644 116.117 66.2478 116.429 66.6278C117.053 67.3885 118.53 68.0953 119.635 68.7901C119.96 68.9936 120.598 69.6075 121.86 70.3987Z"
        fill="#FFC19F" />
    <path
        d="M122.593 70.1365C123.626 70.8157 125.299 71.8763 125.656 72.33C126.236 73.0659 125.004 75.6734 124.419 75.1459C123.114 73.2594 122.027 72.9709 121.163 72.7936C121.333 72.3761 122.154 70.33 122.593 70.1365Z"
        fill="#F29D77" />
    <path
        d="M122.122 67.7537C121.402 67.8579 120.437 68.4258 119.776 68.8745C119.911 68.9773 120.144 69.1418 120.491 69.375C121.253 69.0248 122.475 68.4711 122.885 68.2443C122.647 68.0564 122.382 67.8905 122.122 67.7537Z"
        fill="#F29D77" />
    <path
        d="M118.893 71.9401C118.988 72.2088 119.258 72.7362 119.743 72.6604C120.072 73.3204 120.5 73.5501 120.905 73.2375C120.953 74.3378 122.88 74.1549 123.01 73.8245C123.181 73.3864 123.254 72.9234 123.157 72.7277C122.967 72.3463 122.596 72.4683 122.391 72.7611C122.325 72.8568 122.272 72.9702 122.184 73.0064C122.114 72.9624 122.06 72.5214 122.256 72.4158C122.547 72.2591 122.777 72.1372 123.302 71.945C124.427 72.9114 123.084 74.6235 124.003 75.7401C124.649 76.5256 126.012 76.4079 126.623 75.8797C127.441 75.1722 127.636 73.7189 127.887 72.9532C126.625 71.5069 123.499 68.5272 122.728 68.0189C121.909 67.48 119.144 69.5055 118.988 69.687C118.691 70.0309 118.584 70.6625 118.893 71.9401Z"
        fill="#FFC19F" />
    <path
        d="M120.067 70.2421C120.341 70.0592 120.852 69.7182 121.369 69.4339C121.404 69.4154 121.447 69.4275 121.466 69.4622C121.484 69.4963 121.471 69.5395 121.438 69.5587C120.925 69.8401 120.418 70.179 120.145 70.3605C120.053 70.4222 119.986 70.4675 119.951 70.4888C119.814 70.5583 119.542 71.5912 119.9 72.9304C119.858 72.8964 119.755 72.6951 119.726 72.6391C119.47 71.5196 119.628 70.5186 119.877 70.3676C119.911 70.3456 119.977 70.3023 120.067 70.2421Z"
        fill="#F29D77" />
    <path
        d="M121.116 71.2324C121.391 71.0488 121.903 70.7056 122.426 70.4185C122.461 70.4001 122.504 70.4121 122.523 70.4469C122.541 70.4816 122.529 70.5241 122.495 70.5433C121.977 70.8276 121.468 71.1679 121.195 71.3501C121.106 71.4089 121.042 71.4522 121.008 71.4727C120.833 71.5791 121.036 73.606 121.019 73.6194C120.99 73.5592 120.903 73.2501 120.874 73.1792C120.783 72.2561 120.709 71.4649 120.934 71.3508C120.969 71.3345 121.03 71.2891 121.116 71.2324Z"
        fill="#F29D77" />
    <path
        d="M106.541 68.6852L100.692 68.0145C100.512 67.9911 100.367 67.8578 100.327 67.6813L95.8716 47.6065C95.8383 47.4555 95.9645 47.3173 96.1183 47.3371L101.968 48.0078C102.147 48.0312 102.293 48.1645 102.332 48.341L106.788 68.4158C106.821 68.5668 106.694 68.705 106.541 68.6852Z"
        fill="#8E8E8E" />
    <path d="M96.0979 47.8738L95.3379 48.1588L95.3315 47.6087L96.0192 47.3478L96.0979 47.8738Z"
        fill="#939393" />
    <path d="M106.647 68.6689L105.887 68.9546L105.809 68.4364L106.568 68.1436L106.647 68.6689Z"
        fill="#939393" />
    <path
        d="M106.211 68.8319L101.661 48.331C101.65 48.2786 101.606 48.2389 101.552 48.2325L95.5088 47.5413L95.3315 47.6086L95.3386 48.1588L95.9441 47.9312L100.328 67.6805C100.367 67.8571 100.513 67.9904 100.693 68.0138L105.835 68.6036L105.877 68.8815L106.033 68.8992L106.211 68.8319Z"
        fill="#7F7F7F" />
    <path
        d="M105.836 68.9532L99.9867 68.2826C99.8073 68.2592 99.6613 68.1259 99.6223 67.9494L95.1665 47.8746C95.1332 47.7236 95.2594 47.5853 95.4132 47.6052L101.263 48.2758C101.442 48.2992 101.588 48.4325 101.627 48.6091L106.083 68.6838C106.116 68.8341 105.99 68.9731 105.836 68.9532Z"
        fill="#B5B5B5" />
    <path
        d="M99.234 52.0155C99.3587 52.5224 99.2886 52.9485 99.0794 52.9797C98.8703 53.0116 98.5938 52.6373 98.4577 52.1325C98.318 51.6128 98.3804 51.1541 98.6002 51.1208C98.8199 51.0875 99.1056 51.4944 99.234 52.0155Z"
        fill="#7C7C7C" />
    <path
        d="M96.9014 57.5618C97.2928 57.5717 98.2754 57.9403 98.8071 58.2707C99.1616 58.4905 99.3055 59.1902 98.6532 59.3902C98.1463 59.5454 96.8078 58.9839 96.7114 58.9357C95.9053 58.5288 96.2102 57.544 96.9014 57.5618Z"
        fill="#FFC19F" />
    <path
        d="M96.9928 59.4476C97.4089 59.4277 98.4936 59.7326 98.9679 59.941C99.3302 60.0998 99.5805 60.7414 98.8999 61.0484C98.371 61.2873 96.885 60.8364 96.7872 60.8024C96.1598 60.5847 96.1661 59.4866 96.9928 59.4476Z"
        fill="#FFC19F" />
    <path
        d="M97.3862 61.4639C97.7627 61.3788 98.4348 61.3993 98.9466 61.4532C99.3933 61.5007 99.6684 62.2629 99.0778 62.5677C98.6092 62.8095 97.6641 62.8435 97.5656 62.818C96.6454 62.5847 96.8552 61.5844 97.3862 61.4639Z"
        fill="#FFC19F" />
    <path
        d="M97.9663 63.3723C98.1578 63.1653 98.8703 62.8931 99.2495 62.9895C99.5296 63.0611 99.8883 63.5467 99.6409 63.8899C99.4835 64.1075 99.107 64.4209 98.6009 64.5088C98.0068 64.6123 97.5197 63.8544 97.9663 63.3723Z"
        fill="#FFC19F" />
    <path
        d="M124.933 75.2551C125.48 74.2725 126.913 73.1545 127.849 72.939C130.644 75.5699 134.417 79.3472 141.169 83.172C139.592 85.1699 137.41 86.9075 134.712 85.8746C131.735 84.7353 127.582 79.2019 124.933 75.2551Z"
        fill="#FFC19F" />
    <path
        d="M92.7682 43.7832C92.837 43.9491 93.017 44.0356 93.1858 43.9902L93.2304 43.9753C93.4105 43.9002 93.4963 43.6939 93.4219 43.5138L92.1996 40.5624C92.1245 40.3809 91.9167 40.3008 91.7374 40.3703C91.5573 40.4454 91.4715 40.6517 91.5452 40.8325L92.7682 43.7832ZM95.487 43.0431C95.4353 43.2316 95.5466 43.4266 95.7345 43.4791C95.7976 43.4968 95.8607 43.4954 95.9195 43.4791C96.0365 43.4479 96.1343 43.3571 96.1698 43.2316L97.0191 40.1519C97.0715 39.9634 96.961 39.7684 96.7717 39.7166C96.5859 39.6635 96.3895 39.7734 96.3371 39.9634L95.487 43.0431ZM88.2727 44.7892L91.3822 45.5187C91.441 45.5315 91.4999 45.5301 91.5545 45.5152C91.6757 45.4826 91.7764 45.3854 91.8069 45.2543C91.8515 45.0636 91.7338 44.8736 91.5431 44.8289L88.4344 44.0994C88.2451 44.0569 88.0536 44.1731 88.0097 44.3638C87.9643 44.5545 88.0827 44.7445 88.2727 44.7892Z"
        fill="#FFAE33" />
    <path
        d="M201.669 70.308C205.339 60.6641 204.507 55.4086 200.185 35.2268H162.959C158.734 51.3137 158.811 60.2402 159.124 66.0756C159.276 63.2887 158.629 57.5149 162.356 43.4755C158.984 61.2043 158.88 66.888 162.142 69.9032C160.08 66.0812 161.876 55.5185 162.398 54.1878C162.378 57.9906 161.813 65.2525 163.683 70.7887C171.332 75.1254 192.278 74.1421 198.317 72.0684C198.88 70.6441 199.053 61.3894 199.186 59.5333C199.641 62.0508 199.835 68.6859 199.418 71.9408C202 68.6902 202.796 57.4036 201.005 42.6623C203.666 54.2622 203.797 62.4159 201.669 70.308Z"
        fill="#252937" />
    <path opacity="0.12"
        d="M203.358 130.292C203.358 133.089 193.58 135.359 181.517 135.359C169.455 135.359 159.677 133.091 159.677 130.292C159.677 127.493 169.455 125.225 181.517 125.225C193.58 125.225 203.358 127.493 203.358 130.292Z"
        fill="black" fill-opacity="0.5" />
    <path
        d="M184.663 123.762C184.672 124.43 190.633 125.095 190.699 124.428C191.344 117.946 194.221 100.217 194.622 97.6503L185.404 98.1862C185.513 104.582 184.601 119.126 184.663 123.762Z"
        fill="#FDCAAE" />
    <path
        d="M178.771 123.514C178.691 124.177 172.654 124.162 172.659 123.49C172.698 116.976 172.85 99.4687 172.72 96.8739L181.605 98.0125C180.823 104.362 179.321 118.91 178.771 123.514Z"
        fill="#FDCAAE" />
    <path
        d="M183.79 127.348C183.797 127.537 191.213 127.833 191.231 127.604C191.377 125.765 191.643 123.225 191.73 122.065L183.819 121.863C183.886 123.962 183.743 126.14 183.79 127.348Z"
        fill="#FCF6B4" />
    <path
        d="M193.373 125.208C193.264 124.794 193.034 124.269 192.857 123.789C192.726 123.433 189.254 123.461 189.237 124.315C189.233 124.533 189.24 124.726 189.257 124.901C188.663 124.902 188.018 124.89 187.338 124.859C185.859 124.793 184.534 124.661 183.606 124.506C183.534 125.854 183.633 128.191 183.566 129.69C183.566 129.69 199.032 132.718 201.492 130.492C202.184 129.864 198.318 127.019 193.373 125.208Z"
        fill="#E87903" />
    <path
        d="M183.586 128.749C183.583 129.082 183.578 129.404 183.565 129.689C183.565 129.689 199.031 132.717 201.491 130.491C201.589 130.403 201.594 130.269 201.521 130.102C197.238 130.995 187.432 129.43 183.586 128.749Z"
        fill="#752B01" />
    <path
        d="M194.454 125.653C194.571 125.677 194.687 125.607 194.713 125.49C194.74 125.373 194.667 125.257 194.551 125.23C193.652 125.027 192.6 125.435 191.993 126.227C191.92 126.322 191.937 126.459 192.032 126.532C192.069 126.559 192.112 126.574 192.154 126.576C192.222 126.579 192.291 126.55 192.336 126.492C192.845 125.829 193.716 125.481 194.454 125.653ZM195.64 126.211C195.758 126.234 195.867 126.142 195.882 126.023C195.897 125.903 195.813 125.796 195.693 125.781C194.746 125.661 193.807 126.009 193.115 126.729C193.032 126.815 193.035 126.953 193.121 127.036C193.16 127.073 193.211 127.093 193.262 127.096C193.322 127.099 193.383 127.076 193.428 127.03C194.243 126.181 195.163 126.152 195.64 126.211ZM196.946 126.395C196.093 126.24 194.991 126.624 194.261 127.326C194.174 127.409 194.171 127.545 194.254 127.632C194.294 127.674 194.347 127.696 194.401 127.698C194.458 127.701 194.516 127.681 194.561 127.638C195.197 127.026 196.15 126.681 196.87 126.822C196.991 126.845 197.101 126.764 197.121 126.646C197.143 126.529 197.064 126.416 196.946 126.395Z"
        fill="#D2DAE5" />
    <path
        d="M179.194 127.55C179.176 127.738 172.058 127.653 172.038 127.425C171.88 125.626 171.668 122.813 171.552 121.843L179.463 122.07C179.282 124.163 179.307 126.346 179.194 127.55Z"
        fill="#FCF6B4" />
    <path
        d="M169.904 125.208C170.013 124.794 170.243 124.269 170.42 123.789C170.551 123.433 174.023 123.461 174.04 124.315C174.045 124.533 174.038 124.726 174.021 124.901C174.615 124.902 175.259 124.89 175.939 124.859C177.418 124.793 178.743 124.661 179.672 124.506C179.743 125.855 179.645 128.191 179.711 129.69C179.711 129.69 164.245 132.718 161.786 130.492C161.093 129.864 164.959 127.019 169.904 125.208Z"
        fill="#E87903" />
    <path
        d="M179.691 128.749C179.694 129.082 179.7 129.404 179.713 129.689C179.713 129.689 164.247 132.717 161.787 130.491C161.69 130.402 161.684 130.269 161.758 130.102C166.039 130.994 175.845 129.43 179.691 128.749Z"
        fill="#752B01" />
    <path
        d="M170.94 126.492C170.985 126.551 171.054 126.58 171.122 126.576C171.164 126.574 171.207 126.56 171.244 126.532C171.339 126.459 171.356 126.322 171.283 126.227C170.675 125.435 169.624 125.027 168.726 125.23C168.609 125.257 168.536 125.373 168.563 125.49C168.589 125.607 168.705 125.677 168.823 125.653C169.561 125.481 170.431 125.829 170.94 126.492ZM169.849 127.03C169.894 127.077 169.955 127.099 170.015 127.096C170.065 127.094 170.116 127.073 170.155 127.036C170.242 126.953 170.244 126.815 170.161 126.729C169.469 126.009 168.53 125.661 167.583 125.781C167.464 125.796 167.379 125.903 167.394 126.023C167.409 126.142 167.518 126.234 167.636 126.211C168.113 126.152 169.033 126.181 169.849 127.03ZM166.155 126.646C166.176 126.764 166.285 126.845 166.407 126.822C167.126 126.681 168.079 127.027 168.715 127.638C168.76 127.681 168.818 127.701 168.875 127.698C168.929 127.696 168.981 127.673 169.022 127.632C169.105 127.545 169.102 127.409 169.015 127.326C168.285 126.624 167.183 126.24 166.329 126.395C166.212 126.416 166.134 126.529 166.155 126.646Z"
        fill="#D2DAE5" />
    <path
        d="M170.943 91.4136C178.251 93.8531 190.362 93.4383 196.603 90.1977C196.603 90.1977 194.393 67.9868 193.275 63.1936C187.827 63.7253 178.098 64.469 172.85 65.2092C172.263 71.3728 171.621 82.5417 170.943 91.4136Z"
        fill="#FEA623" />
    <path
        d="M189.451 64.5045C189.438 64.1791 189.357 63.8714 189.252 63.5701C185.904 63.6289 180.897 63.9834 177.355 64.5718C177.34 64.7136 177.292 64.8497 177.297 64.9958C177.399 67.5133 180.202 69.4438 183.558 69.3076C186.915 69.1722 189.553 67.0213 189.451 64.5045Z"
        fill="#FFC19F" />
    <path
        d="M187.458 57.7673L187.853 64.8654C187.938 66.3918 186.067 67.7374 183.674 67.8707C181.281 68.0039 179.272 66.8746 179.187 65.3482L178.792 58.2501L187.458 57.7673Z"
        fill="#FFC19F" />
    <path
        d="M194.624 89.3681C192.274 89.9956 177.761 90.8045 174.804 90.8336C174.804 90.8336 175.336 78.7274 175.17 72.5978C178.843 72.3142 189.707 71.7265 192.957 71.7137C193.407 75.3294 193.508 80.6579 194.624 89.3681Z"
        fill="#224966" />
    <path
        d="M177.853 73.8229L176.745 73.8832C176.652 73.8882 176.569 73.8144 176.564 73.7208L176.467 71.9151L175.829 71.9499C175.736 71.9548 175.653 71.8811 175.649 71.7875L175.585 70.6064C175.58 70.5128 175.653 70.4306 175.747 70.4256L178.342 70.2845C178.435 70.2796 178.518 70.3533 178.523 70.4469L178.586 71.628C178.591 71.7216 178.518 71.8038 178.424 71.8088L177.918 71.8364L178.016 73.6421C178.021 73.7357 177.947 73.818 177.853 73.8229ZM176.898 73.5308L177.663 73.489L177.566 71.6833C177.561 71.5897 177.634 71.5075 177.728 71.5025L178.234 71.4749L178.189 70.6369L175.937 70.7588L175.982 71.5968L176.62 71.5621C176.713 71.5571 176.796 71.6308 176.801 71.7244L176.898 73.5308Z"
        fill="#BAEBF4" />
    <path
        d="M176.549 73.7662C176.642 74.1973 177.067 74.4716 177.497 74.3787C177.928 74.2859 178.201 73.8612 178.108 73.4302C178.015 72.9991 177.59 72.7248 177.16 72.8176C176.729 72.9105 176.457 73.3352 176.549 73.7662Z"
        fill="#F0FCFF" />
    <path
        d="M191.664 73.0374L190.556 73.0977C190.463 73.1026 190.38 73.0289 190.376 72.9353L190.278 71.1296L189.64 71.1643C189.547 71.1693 189.465 71.0956 189.46 71.002L189.396 69.8209C189.391 69.7273 189.465 69.645 189.558 69.6394L192.153 69.4983C192.246 69.4933 192.329 69.5671 192.334 69.6606L192.397 70.8425C192.402 70.936 192.329 71.0183 192.235 71.0232L191.729 71.0509L191.827 72.8566C191.832 72.9495 191.758 73.0317 191.664 73.0374ZM190.709 72.7446L191.474 72.7028L191.377 70.8971C191.372 70.8035 191.445 70.7212 191.539 70.7163L192.045 70.6886L192 69.8506L189.748 69.9726L189.793 70.8106L190.432 70.7758C190.525 70.7709 190.607 70.8446 190.612 70.9382L190.709 72.7446Z"
        fill="#BAEBF4" />
    <path
        d="M189.897 70.0578C189.872 69.8678 189.707 65.8218 189.165 63.5354L191.083 63.3574C191.832 66.0982 191.885 69.7465 191.911 69.9486L189.897 70.0578Z"
        fill="#224966" />
    <path
        d="M176.081 70.9509C176.055 70.741 175.82 66.6107 175.53 64.7823L177.432 64.5476C177.864 66.9737 178.067 70.6184 178.095 70.841L176.081 70.9509Z"
        fill="#224966" />
    <path
        d="M190.36 72.98C190.453 73.411 190.877 73.6854 191.308 73.5925C191.738 73.4996 192.011 73.075 191.918 72.6439C191.825 72.2129 191.401 71.9385 190.97 72.0314C190.54 72.1242 190.267 72.5489 190.36 72.98Z"
        fill="#F0FCFF" />
    <path opacity="0.21"
        d="M181.875 82.039L185.761 82.8543L189.441 81.4796L189.126 75.8307H181.699L181.875 82.039Z"
        fill="black" />
    <path
        d="M182.17 81.647L185.78 82.5176L189.304 81.2195L189.037 75.9009L182.014 76.1845L182.17 81.647Z"
        fill="#306484" />
    <path
        d="M166.069 102.895C173.1 107.854 192.884 108.457 200.723 103.144C200.723 103.144 198.099 93.3092 196.671 88.3494C192.587 89.4163 179.374 90.662 170.709 88.7365C169.2 93.8891 167.491 99.1404 166.069 102.895Z"
        fill="#224966" />
    <path opacity="0.19"
        d="M192.117 61.2894C191.337 64.0153 187.093 65.1914 182.639 63.9167C178.184 62.642 175.205 59.3993 175.984 56.6733C176.764 53.9481 181.008 52.7713 185.462 54.046C189.917 55.3207 192.896 58.5634 192.117 61.2894Z"
        fill="#601805" />
    <path
        d="M200.873 48.9105C200.483 52.517 197.538 55.1082 195.053 55.0621C192.567 55.0153 191.707 52.1994 191.677 48.7744C191.647 45.3494 193.638 42.6015 196.123 42.6568C199.521 42.7327 201.24 45.5217 200.873 48.9105Z"
        fill="#F4B18C" />
    <path
        d="M162.165 40.1896C161.593 53.6562 173.546 59.6696 184.246 58.2283C194.946 56.787 201.488 46.471 198.661 33.6835C197.092 26.5833 190.989 22.5544 179.986 23.3144C171.79 23.8808 162.661 28.4848 162.165 40.1896Z"
        fill="#252937" />
    <path
        d="M166.727 36.1422C166.044 38.4314 170.101 57.3995 172.657 59.7554C175.368 62.2551 185.539 63.2725 187.53 63.0038C189.663 62.7167 196.398 59.1811 197.785 55.8455C199.426 51.8987 197.983 35.3864 197.031 33.4631C193.813 26.9669 187.861 27.5348 180.117 28.5776C172.872 29.5539 168.5 30.2033 166.727 36.1422Z"
        fill="#FDCAAE" />
    <path
        d="M163.447 54.7373C164.924 58.2927 168.838 60.107 171.485 59.3675C174.132 58.6281 172.271 47.7088 167.273 47.4365C163.111 47.2104 162.058 51.3953 163.447 54.7373Z"
        fill="#FDCAAE" />
    <path
        d="M166.422 54.1645C166.85 55.6944 168.781 56.7678 170.04 56.1553C170.531 55.9163 168.912 50.5992 168.091 50.7126C166.704 50.9033 165.995 52.6346 166.422 54.1645Z"
        fill="#E8AB8B" />
    <path
        d="M173.31 54.5786C173.385 55.3591 174.531 55.8873 175.869 55.7583C177.206 55.6292 178.23 54.8926 178.155 54.1121C178.08 53.3315 176.934 52.8033 175.597 52.9324C174.259 53.0614 173.235 53.7987 173.31 54.5786Z"
        fill="#FF9797" />
    <path
        d="M180.137 54.3446C180.196 52.994 182.603 52.9791 185.736 52.5311C185.9 52.5077 186.538 52.4212 186.703 52.3999C189.842 51.9958 191.634 51.4145 191.965 52.7253C192.563 55.0932 190.298 58.3395 187.114 58.7819L187.058 58.789C183.633 59.2569 180.023 56.9457 180.137 54.3446Z"
        fill="#701608" />
    <path
        d="M183.536 58.3531C184.293 57.4442 185.407 56.8373 186.654 56.6679C187.884 56.5006 189.087 56.7721 190.052 57.4243C189.529 57.8774 188.926 58.2644 188.258 58.5133C187.896 58.648 187.51 58.7494 187.116 58.804L187.061 58.8111C186.212 58.9273 185.352 58.8692 184.54 58.6785L184.478 58.6622C184.152 58.5835 183.842 58.4729 183.536 58.3531Z"
        fill="#DD6B5B" />
    <path
        d="M181.979 53.0784L181.958 53.0224C181.958 53.0224 185.458 52.4893 186.693 52.3319C187.871 52.1816 190.474 51.8661 190.474 51.8661L190.468 51.9264C190.37 52.909 188.644 53.8731 186.452 54.1702C184.263 54.4665 182.34 53.9979 181.979 53.0784Z"
        fill="white" />
    <path
        d="M194.009 51.6342C194.144 52.3184 195.084 52.7083 196.11 52.5062C197.135 52.3035 197.857 51.5853 197.721 50.9012C197.587 50.217 196.645 49.8271 195.62 50.0291C194.595 50.2319 193.873 50.9508 194.009 51.6342Z"
        fill="#FF9797" />
    <path
        d="M184.558 51.391C184.644 51.3797 184.71 51.3081 184.713 51.2188C184.732 50.5871 185.167 50.1227 185.82 50.0348C186.477 49.9462 187.031 50.2865 187.199 50.8799C187.226 50.9749 187.326 51.0302 187.421 51.0032C187.516 50.9763 187.571 50.877 187.544 50.7813C187.328 50.0206 186.6 49.5669 185.772 49.6782C184.948 49.7888 184.378 50.4035 184.354 51.2067C184.351 51.306 184.428 51.3882 184.527 51.3917L184.558 51.391Z"
        fill="#C4735B" />
    <path
        d="M164.709 40.7263C163.383 40.5732 164.712 30.959 170.77 27.4008C180.784 22.397 188.306 23.3988 191.163 24.8152C195.319 26.8755 199.033 30.148 200.67 36.8788C201.647 40.8929 201.437 42.2669 203.626 42.9822C201.436 43.8642 201.318 43.4239 200.547 42.398C200.663 45.728 200.932 47.3111 202.362 48.1533C199.655 49.1728 198.929 47.6549 198.439 45.0446C197.619 40.681 196.889 35.8452 196.333 34.7725C196.012 34.1522 193.271 30.6457 192.296 30.713C190.171 30.8598 188.585 38.525 181.071 39.1446C183.935 37.2 185.355 34.708 186.691 31.2228C186.138 31.6354 185.591 32.1232 185.058 32.7038C179.451 38.8178 173.91 40.7589 168.573 40.8206C169.989 46.3604 171.476 53.423 165.53 54.2709C166.061 53.4535 167.212 49.5067 165.315 46.7376C164.644 47.2544 164.95 44.4427 164.709 40.7263Z"
        fill="#252937" />
    <path
        d="M171.11 42.0599C171.228 42.0344 171.337 41.9677 171.414 41.8628C172.393 40.5278 174.625 39.7423 176.608 40.0387C176.883 40.0812 177.143 39.8898 177.185 39.6112C177.226 39.334 177.036 39.0759 176.758 39.0341C174.391 38.6824 171.798 39.6197 170.594 41.2637C170.429 41.4899 170.477 41.8075 170.704 41.9734C170.825 42.062 170.973 42.089 171.11 42.0599Z"
        fill="black" />
    <path
        d="M196.087 38.4719C196.22 38.4577 196.348 38.3896 196.432 38.2712C196.59 38.0522 196.541 37.7466 196.322 37.5885C194.73 36.4393 192.076 36.3493 190.012 37.373C189.769 37.4935 189.671 37.787 189.791 38.0288C189.912 38.2719 190.206 38.3705 190.446 38.2493C192.176 37.3893 194.456 37.4453 195.749 38.3804C195.85 38.4549 195.971 38.4839 196.087 38.4719Z"
        fill="black" />
    <path
        d="M189.77 49.6542C189.77 49.6542 194.55 50.7495 195.872 47.6798C197.483 43.9393 193.871 41.6565 191.858 42.4753C189.996 43.2339 188.524 45.4629 189.77 49.6542Z"
        fill="#F9FEFF" />
    <path
        d="M195.583 43.2282C194.564 42.0903 193.378 41.8507 192.174 42.1641C190.942 42.4845 189.825 43.7124 189.622 44.8489C190.12 43.5316 191.217 42.9248 191.913 42.6412C193.022 42.1882 194.619 42.5944 195.474 43.7351C196.235 44.7503 196.419 46.4043 195.828 47.7769C196.618 46.7907 196.645 44.4143 195.583 43.2282Z"
        fill="#773220" />
    <path
        d="M190.434 45.7641C190.195 47.0615 190.907 48.3972 192.022 48.7474C193.138 49.0976 194.237 48.3298 194.476 47.0325C194.715 45.7351 194.004 44.3994 192.887 44.0492C191.771 43.6989 190.673 44.4667 190.434 45.7641Z"
        fill="black" />
    <path
        d="M190.544 45.3572C190.479 45.7173 190.676 46.0874 190.985 46.1845C191.295 46.2816 191.599 46.069 191.666 45.7088C191.732 45.3487 191.535 44.9786 191.225 44.8808C190.915 44.7836 190.611 44.997 190.544 45.3572Z"
        fill="#FEFFFE" />
    <path
        d="M181.67 50.8142C181.67 50.8142 176.53 53.2877 174.083 50.7418C171.1 47.6402 174.542 44.3768 177.096 44.5612C179.459 44.732 181.822 46.4286 181.67 50.8142Z"
        fill="#F9FEFF" />
    <path
        d="M173.06 46.3923C173.881 44.9985 175.166 44.4158 176.64 44.3569C178.147 44.2967 179.8 45.1403 180.378 46.1676C179.407 45.0545 177.966 44.8 177.083 44.7362C175.676 44.6327 173.971 45.4976 173.338 46.8454C172.776 48.0442 173.068 49.6833 174.163 50.8219C172.958 50.1122 172.204 47.845 173.06 46.3923Z"
        fill="#773220" />
    <path
        d="M174.597 47.8308C174.277 49.141 175.08 50.4625 176.391 50.7822C177.701 51.1019 179.022 50.2987 179.341 48.9885C179.661 47.6784 178.859 46.3569 177.548 46.0379C176.238 45.7181 174.917 46.5207 174.597 47.8308Z"
        fill="black" />
    <path
        d="M174.738 47.4189C174.65 47.7826 174.872 48.1484 175.236 48.2377C175.6 48.3263 175.966 48.1037 176.055 47.74C176.143 47.3763 175.921 47.0098 175.557 46.9212C175.194 46.8326 174.828 47.0552 174.738 47.4189Z"
        fill="#FEFFFE" />
    <path
        d="M164.634 43.1034C164.676 33.3468 169.479 26.6797 179.545 24.4288C187.492 22.6515 194.016 25.3724 195.988 28.0927C193.539 26.672 189.101 24.5869 180.246 26.2019C174.519 27.2469 166.028 31.87 164.634 43.1034Z"
        fill="#F49000" />
    <path opacity="0.5"
        d="M197.894 92.708C197.452 91.1051 197.024 89.5773 196.671 88.3494C196.115 88.4947 195.379 88.6429 194.52 88.7861C194.732 90.6379 196.028 92.2281 197.894 92.708Z"
        fill="black" />
    <path opacity="0.5"
        d="M174.682 89.3724C173.293 89.2171 171.951 89.0122 170.709 88.7365C170.313 90.0898 169.903 91.4489 169.488 92.7867C170.064 92.8923 170.669 92.8895 171.275 92.7548C173.014 92.367 174.276 91.0129 174.682 89.3724Z"
        fill="black" />
    <path
        d="M188.926 74.795C187.859 74.99 186.439 75.0035 185.484 75.0744C185.484 75.0744 185.329 75.0963 185.295 75.1219C185.807 75.8741 185.527 76.9772 184.873 76.9609C185.15 77.5167 184.462 78.8694 183.604 78.549C183.689 78.7574 183.994 79.5628 182.817 79.8003C181.708 80.0243 180.253 79.918 179.768 79.9442C178.185 79.7024 177.704 76.9006 177.795 76.325C178.034 74.8284 180.927 73.1878 182.241 72.9C183.041 72.7249 186.148 72.6093 189.755 73.2793C190.325 74.023 189.721 74.6497 188.926 74.795Z"
        fill="#FDCAAE" />
    <path
        d="M164.492 77.864C165.078 78.9523 166.701 80.2653 167.43 80.4425C167.99 79.3961 169.693 75.2373 170.835 73.0871C170.857 72.8893 167.356 71.0793 166.607 71.3494C165.954 72.8638 164.785 76.8282 164.492 77.864Z"
        fill="#FFC19F" />
    <path
        d="M209.137 62.1855C209.006 62.3188 208.798 62.3316 208.652 62.2217L208.615 62.1898C208.471 62.0466 208.469 61.8133 208.61 61.6687L210.95 59.2944C211.094 59.1484 211.326 59.1526 211.472 59.2901C211.617 59.4341 211.619 59.6666 211.477 59.8119L209.137 62.1855ZM206.8 60.4039C206.776 60.6067 206.592 60.7513 206.389 60.7279C206.322 60.7201 206.261 60.6946 206.21 60.6556C206.109 60.5797 206.05 60.4535 206.065 60.3188L206.452 57.0087C206.475 56.806 206.659 56.6613 206.862 56.6847C207.063 56.706 207.21 56.8889 207.185 57.0938L206.8 60.4039ZM213.088 64.9214L209.796 64.4067C209.734 64.396 209.678 64.3719 209.631 64.3358C209.526 64.2564 209.467 64.1231 209.489 63.9848C209.521 63.7828 209.709 63.6453 209.911 63.6764L213.203 64.1911C213.402 64.2245 213.543 64.4116 213.51 64.613C213.479 64.815 213.29 64.9526 213.088 64.9214Z"
        fill="#FFAA00" />
    <path
        d="M163.194 76.0278C164.943 77.2486 168.305 79.8895 170.165 80.7884C171.402 79.6513 173.812 77.3798 174.027 77.1558C175.253 73.1161 173.954 65.2191 173.95 65.0078C171.008 65.6359 170.24 66.5952 169.542 67.1545C168.203 68.973 165.416 72.7588 163.194 76.0278Z"
        fill="#FEA623" />
    <path
        d="M181.061 78.8148C181.14 78.0704 180.073 75.7967 178.579 75.3352C174.015 76.2313 165.801 77.5585 164.496 77.8655C163.957 82.1086 165.862 82.9309 167.716 83.0096C169.642 83.0919 177.944 80.0895 181.061 78.8148Z"
        fill="#FDCAAE" />
    <path
        d="M206.219 64.6455L200.424 82.8331C200.344 83.0982 200.073 83.2372 199.786 83.2102H185.86C185.5 83.1762 185.131 82.463 185.233 82.1312L191.082 62.8256C191.163 62.5605 191.433 62.3854 191.721 62.413L205.481 63.7118C205.841 63.7451 206.319 64.3137 206.219 64.6455Z"
        fill="#EDEDED" />
    <path
        d="M206.341 64.8779L200.751 83.2179C200.67 83.4831 200.4 83.6575 200.113 83.6305L186.093 83.2973C185.733 83.2633 185.497 82.9315 185.598 82.5997L191.448 63.2941C191.528 63.029 191.799 62.8539 192.086 62.8815L205.846 64.1803C206.206 64.2136 206.441 64.5462 206.341 64.8779Z"
        fill="#C9C9C9" />
    <path opacity="0.28"
        d="M189.973 68.1603L189.231 70.6091L205.273 68.4021L206.015 65.9534L189.973 68.1603Z"
        fill="white" />
    <path opacity="0.28"
        d="M204.17 64.0223L205.846 64.1804C206.119 64.206 206.318 64.4023 206.356 64.6406L190.374 66.8397L190.664 65.8805L204.17 64.0223Z"
        fill="white" />
    <path opacity="0.28"
        d="M201.779 79.9311L202.04 79.0712L185.998 81.2781L185.738 82.1388L201.779 79.9311Z"
        fill="white" />
    <path opacity="0.19"
        d="M203.229 75.4316C202.402 75.1558 201.496 75.1622 201.345 75.506C201.241 75.7407 201.487 76.2157 202.066 76.5227C201.782 76.4702 201.551 76.505 201.422 76.6489C201.182 76.919 201.362 77.4833 201.821 78.0611C201.33 77.7584 200.885 77.6563 200.66 77.8385C200.434 78.0214 200.415 78.5659 201.014 79.3883C200.596 79.0877 200.137 78.8793 199.927 79.0452C199.671 79.2486 199.528 79.8215 200.264 80.6828C200.591 81.0657 200.919 81.3514 201.223 81.5598L203.229 75.4316Z"
        fill="black" />
    <path
        d="M202.574 81.6256C202.792 81.4746 202.709 80.9648 202.353 80.3119C202.92 80.7472 203.474 80.9301 203.728 80.7252C204.03 80.4813 203.802 79.7731 203.226 79.0719C203.876 79.4881 204.497 79.6228 204.737 79.3527C204.996 79.062 204.729 78.4027 204.139 77.7816C204.663 77.9213 205.308 78.0142 205.422 77.6951C205.63 77.1124 204.889 76.4105 204.035 75.9327C203.182 75.4548 201.92 75.3747 201.746 75.7717C201.65 75.9894 201.879 76.4304 202.416 76.7154C202.152 76.6665 201.937 76.6984 201.818 76.8331C201.595 77.0833 201.762 77.6072 202.188 78.1439C201.733 77.8625 201.32 77.7682 201.111 77.9369C200.9 78.1063 200.883 78.6125 201.438 79.3754C201.051 79.0967 200.624 78.9025 200.43 79.057C200.193 79.2463 200.059 79.7781 200.743 80.577C201.464 81.42 202.217 81.8723 202.574 81.6256Z"
        fill="#FDCAAE" />
    <defs>
        <linearGradient id="paint0_linear_7521_3823" x1="153.327" y1="-1.31006" x2="153.327"
            y2="153.355" gradientUnits="userSpaceOnUse">
            <stop stop-color="#FFF5E5" />
            <stop offset="1" stop-color="#FFEDD1" />
        </linearGradient>
        <linearGradient id="paint1_linear_7521_3823" x1="90.9296" y1="87.1087" x2="74.7422"
            y2="130.593" gradientUnits="userSpaceOnUse">
            <stop stop-color="#FFF5E5" />
            <stop offset="1" stop-color="#FFEDD1" />
        </linearGradient>
        <linearGradient id="paint2_linear_7521_3823" x1="48.7034" y1="7.76702" x2="17.1694"
            y2="86.1055" gradientUnits="userSpaceOnUse">
            <stop stop-color="#FFF8ED" />
            <stop offset="1" stop-color="#FFF3E2" />
        </linearGradient>
        <linearGradient id="paint3_linear_7521_3823" x1="90.3252" y1="3.59299" x2="95.0911"
            y2="28.4748" gradientUnits="userSpaceOnUse">
            <stop stop-color="#FFF5E5" />
            <stop offset="1" stop-color="#FFEDD1" />
        </linearGradient>
        <linearGradient id="paint4_linear_7521_3823" x1="285.984" y1="78.1082" x2="259.311"
            y2="121.187" gradientUnits="userSpaceOnUse">
            <stop stop-color="#FFF5E5" />
            <stop offset="1" stop-color="#FFFBF4" />
        </linearGradient>
        <linearGradient id="paint5_linear_7521_3823" x1="221.366" y1="99.9829" x2="226.132"
            y2="124.865" gradientUnits="userSpaceOnUse">
            <stop stop-color="#FFF5E5" />
            <stop offset="1" stop-color="#FFEDD1" />
        </linearGradient>
    </defs>
</svg>
    