<svg width="305" height="150" viewBox="0 0 305 150" fill="none" xmlns="http://www.w3.org/2000/svg">
    <rect x="67" width="189" height="157.5" rx="7.56" fill="white" />
    <circle cx="87.5" cy="111.5" r="45.5" fill="#FFEDD1" />
    <circle cx="225.288" cy="104.423" r="69.4575" fill="#FFF4E4" />
    <circle cx="127.06" cy="23.06" r="39.06" fill="#FFF8ED" />
    <g filter="url(#filter0_dd_7521_3823)">
        <path
            d="M201.23 150.059C207.929 143.775 211.767 136.102 214.041 131.543C216.836 125.936 215.966 122.131 209.333 117.918C207.308 125.31 200.946 139.462 196.123 146.293C195.703 147.164 200.694 150.905 201.23 150.059Z"
            fill="#FFC19F" />
        <path
            d="M213.243 74.7929C213.105 74.5096 223.598 70.3972 226.964 69.2474C229.171 71.8529 241.564 94.948 246.52 103.502C245.48 104.57 236.112 107.76 234.972 107.966C230.133 100.987 215.06 78.5245 213.243 74.7929Z"
            fill="#FFC19F" />
        <path
            d="M201.357 156.548C201.357 156.548 202.788 157.233 202.832 156.189C203.21 153.469 205.128 153.53 205.623 156.046C205.813 157.012 207.365 156.408 207.365 156.408L207.194 144.941L201.188 145.081L201.357 156.548Z"
            fill="#1C2F3A" />
        <path
            d="M202.13 148.583L201.464 129.239L225.038 127.946C227.277 155.185 233.431 224.091 234.333 235.279C231.708 237.308 219.979 237.698 218.942 237.03C217.478 231.929 209.319 171.53 205.136 154.027C204.435 151.096 202.179 148.927 202.13 148.583Z"
            fill="#1C2F3A" />
        <path
            d="M203.594 150.817L202.49 128.858H181.177C181.329 152.716 182.981 226.715 183.348 236.93C186.26 238.549 197.749 237.406 198.669 236.593C198.922 231.162 201.841 173.698 203.047 154.364C203.058 154.304 203.6 151.164 203.594 150.817Z"
            fill="#1C2F3A" />
        <path opacity="0.65"
            d="M202.809 140.326C202.871 140.322 202.918 140.231 202.914 140.13L202.895 139.771C202.889 139.67 202.835 139.59 202.774 139.593C202.711 139.597 202.663 139.687 202.669 139.789L202.688 140.148C202.694 140.249 202.747 140.329 202.809 140.326ZM203.199 145.763L203.164 145.06C203.16 144.96 203.106 144.88 203.045 144.883C202.984 144.888 202.932 144.971 202.939 145.079L202.973 145.783C202.978 145.883 203.031 145.962 203.092 145.96C203.147 145.952 203.204 145.868 203.199 145.763ZM203.164 147.368C203.227 147.365 203.276 147.276 203.269 147.172L203.235 146.468C203.23 146.366 203.175 146.288 203.114 146.291C203.052 146.294 203.003 146.384 203.009 146.487L203.044 147.191C203.048 147.291 203.103 147.371 203.164 147.368ZM203.309 150.186C203.371 150.182 203.42 150.093 203.414 149.99L203.379 149.286C203.375 149.185 203.321 149.107 203.26 149.108C203.186 149.107 203.147 149.198 203.153 149.304L203.188 150.008C203.193 150.109 203.248 150.189 203.309 150.186ZM203.342 148.58L203.307 147.878C203.302 147.777 203.248 147.697 203.186 147.701C203.124 147.704 203.075 147.793 203.081 147.897L203.116 148.6C203.121 148.701 203.174 148.779 203.235 148.778C203.304 148.779 203.348 148.687 203.342 148.58ZM202.95 143.143C203.012 143.14 203.061 143.05 203.055 142.947L203.02 142.245C203.015 142.144 202.962 142.064 202.901 142.067C202.826 142.061 202.788 142.157 202.794 142.263L202.829 142.967C202.834 143.066 202.889 143.146 202.95 143.143ZM203.022 144.551C203.084 144.548 203.133 144.458 203.127 144.355L203.092 143.651C203.088 143.549 203.033 143.471 202.972 143.474C202.909 143.477 202.86 143.566 202.867 143.67L202.901 144.374C202.906 144.476 202.961 144.556 203.022 144.551ZM202.984 141.539L202.95 140.835C202.945 140.733 202.89 140.655 202.829 140.658C202.766 140.661 202.718 140.75 202.724 140.854L202.758 141.558C202.763 141.658 202.816 141.737 202.878 141.735C202.945 141.735 202.989 141.646 202.984 141.539ZM203.328 150.516C203.265 150.521 203.218 150.61 203.224 150.712L203.243 151.07C203.249 151.172 203.302 151.25 203.364 151.247C203.426 151.244 203.475 151.153 203.469 151.051L203.45 150.694C203.444 150.588 203.376 150.509 203.328 150.516ZM203.853 140.051L203.834 139.692C203.828 139.59 203.776 139.512 203.715 139.515C203.646 139.52 203.602 139.604 203.608 139.711L203.627 140.07C203.633 140.17 203.685 140.249 203.746 140.247C203.798 140.263 203.857 140.158 203.853 140.051ZM204.035 145.882C204.097 145.879 204.146 145.788 204.14 145.686L204.104 144.984C204.097 144.883 204.044 144.803 203.983 144.806C203.92 144.81 203.873 144.9 203.878 145.002L203.914 145.705C203.92 145.805 203.973 145.885 204.035 145.882ZM204.248 150.107C204.311 150.104 204.359 150.015 204.353 149.911L204.318 149.207C204.312 149.102 204.27 149.024 204.196 149.03C204.133 149.035 204.088 149.123 204.093 149.226L204.127 149.93C204.132 150.032 204.187 150.112 204.248 150.107ZM204.176 148.699C204.238 148.696 204.287 148.607 204.281 148.503L204.246 147.799C204.242 147.699 204.187 147.619 204.126 147.622C204.063 147.625 204.014 147.715 204.021 147.818L204.055 148.522C204.06 148.622 204.115 148.702 204.176 148.699ZM204.105 147.291C204.168 147.288 204.216 147.197 204.21 147.095L204.174 146.391C204.168 146.29 204.116 146.213 204.055 146.214C203.994 146.192 203.942 146.305 203.948 146.41L203.984 147.114C203.991 147.215 204.044 147.295 204.105 147.291ZM203.818 141.657C203.881 141.653 203.93 141.564 203.923 141.461L203.889 140.757C203.884 140.655 203.829 140.576 203.768 140.58C203.705 140.583 203.657 140.672 203.663 140.776L203.698 141.479C203.702 141.581 203.759 141.661 203.818 141.657ZM203.89 143.065C203.953 143.061 204.002 142.972 203.995 142.869L203.961 142.166C203.956 142.064 203.901 141.986 203.84 141.989C203.777 141.992 203.729 142.081 203.735 142.185L203.77 142.889C203.774 142.989 203.829 143.068 203.89 143.065ZM203.962 144.474C204.025 144.471 204.074 144.381 204.068 144.278L204.033 143.574C204.028 143.472 203.973 143.394 203.912 143.397C203.85 143.4 203.801 143.489 203.807 143.593L203.842 144.297C203.846 144.397 203.901 144.477 203.962 144.474ZM204.389 150.615C204.383 150.51 204.315 150.427 204.267 150.438C204.204 150.443 204.158 150.532 204.163 150.634L204.182 150.993C204.188 151.093 204.242 151.173 204.303 151.17C204.365 151.167 204.414 151.076 204.408 150.974L204.389 150.615Z"
            fill="black" />
        <path
            d="M241.421 110.259C238.183 110.058 236.377 108.598 235.14 107.749C237.723 100.858 243.702 85.7354 246.458 73.7419C247.228 73.6361 253.83 75.1785 254.21 75.6901C253.581 82.8565 251.787 94.3807 247.615 106.204C246.878 108.293 243.135 110.365 241.421 110.259Z"
            fill="#FFC19F" />
        <path
            d="M242.985 60.6546C241.379 59.5002 241.496 61.4864 241.608 62.8705C242.313 71.5302 243.608 72.8459 247.698 75.9193C249.833 78.8055 253.368 77.2452 254.639 75.7222C257.22 72.629 259.014 64.6509 259.402 58.9947C259.545 56.9255 258.989 53.8305 258.419 53.7812C257.335 53.6889 257.53 56.6414 257.222 58.6979C256.998 60.1883 256.144 61.862 255.858 62.2283C255.905 61.4547 256.422 57.8889 256.452 57.1577C256.557 54.6358 255.854 50.4069 255.372 50.3598C253.558 50.1842 254.187 53.7392 253.965 56.7843C253.893 57.7692 253.311 60.9408 252.97 62.3197C252.818 61.507 252.839 58.9296 252.846 57.0334C252.862 52.7522 253.001 49.4964 252.461 49.3793C250.357 48.9219 250.235 52.4256 250.016 57.3087C249.963 58.4741 249.737 61.6589 249.657 62.5533C249.437 62.3606 249.07 60.3403 249.038 58.1353C248.994 54.9681 249.766 51.324 248.499 51.2569C247.67 51.2133 246.67 53.9017 246.324 58.0462C246.092 60.8313 246.1 64.1657 245.876 66.9189C244.65 67.7714 244.705 61.8916 242.985 60.6546Z"
            fill="#FFC19F" />
        <path opacity="0.14"
            d="M253.394 72.7812C253.764 74.1315 252.95 75.1379 253.48 75.3583C254.216 75.6649 255.025 74.2729 254.685 73.1273C254.002 70.8272 251.474 70.0813 252.073 70.4771C252.712 70.899 253.253 72.2739 253.394 72.7812Z"
            fill="#991D05" />
        <path
            d="M240.17 90.4838C238.08 85.5844 229.872 70.8343 227.774 69.7497C226.381 69.03 218.153 84.5022 215.947 88.026C216.696 89.998 225.906 98.4997 230.366 103.241C233.237 101.418 238.43 92.2945 240.17 90.4838Z"
            fill="#FEA623" />
        <path
            d="M175.747 168.558C172.518 168.235 169.549 167.453 168.781 166.506C167.836 165.34 166.177 163.355 165.203 161.957C164.546 161.015 164.255 156.356 164.359 151.42C164.373 150.769 166.414 149.69 167.452 149.72C173.225 149.886 173.74 153.18 174.658 155.546C175.142 156.794 175.681 160.671 175.866 162.557C171.87 163.503 172.773 157.348 170.691 157.835C169.151 158.195 169.118 160.121 169.551 161.082C170.027 162.137 171.346 164.534 171.694 164.739C174.69 166.5 176.88 166.627 175.747 168.558Z"
            fill="#FFC19F" />
        <path
            d="M163.625 121.124C163.814 119.196 164.335 110.002 165.144 105.781C166.608 98.1437 168.956 86.8912 170.453 85.3329C171.445 84.2977 178.717 82.6206 180.753 81.8606C180.792 84.0408 178.911 101.838 178.31 106.985C177.921 110.315 175.726 117.205 174.323 122.819C172.872 123.079 164.856 121.628 163.625 121.124Z"
            fill="#FFC19F" />
        <path
            d="M168.37 118.593C171.282 118.06 173.611 120.269 174.492 121.59C175.248 130.85 171.203 140.572 172.003 152.681C171.344 152.946 165.156 153.007 164.706 152.63C163.98 142.724 162.409 132.439 163.286 122.048C163.458 119.999 166.829 118.875 168.37 118.593Z"
            fill="#FFC19F" />
        <path
            d="M165.112 95.8715C165.402 94.3099 171.561 73.4799 173.256 71.8368C174.382 70.7456 180.412 68.6102 182.749 67.8389C182.843 70.1843 182.337 99.374 180.72 102.304C179.069 102.071 166.169 96.5848 165.112 95.8715Z"
            fill="#FEA623" />
        <path
            d="M227.022 120.218C226.48 109.518 227.494 79.0363 227.697 69.5745C226.922 68.9333 217.622 65.3963 211.043 62.9584C207.932 61.806 197.832 62.2575 194.383 63.2907C187.492 65.354 181.018 68.2701 177.652 69.6765C178.668 81.4947 179.648 113.673 179.648 123.683C179.648 128.465 179.783 143.736 179.783 146.109C184.127 147.271 196.07 147.343 201.937 147.241C213.926 147.034 226.612 145.195 227.722 144.615C227.67 142.795 227.065 121.06 227.022 120.218Z"
            fill="#FEA623" />
        <path
            d="M203.265 74.1352C209.782 74.1352 215.06 69.5775 215.378 64.5856C213.851 64.0055 212.366 63.4474 211.041 62.9566C207.931 61.8043 197.83 62.2558 194.381 63.289C193.277 63.6198 192.192 63.9757 191.122 64.341C191.274 69.4506 196.639 74.1352 203.265 74.1352Z"
            fill="#992B00" />
        <path
            d="M213.548 64.1922C213.548 64.0934 213.515 64.0024 213.511 63.9052C212.41 63.4882 211.344 63.09 210.375 62.7294C207.531 61.6758 198.296 62.0881 195.141 63.0335C194.47 63.2342 193.766 63.4537 193.047 63.6842C193.033 63.8551 192.981 64.0181 192.981 64.1922C192.981 68.5962 197.584 72.1661 203.265 72.1661C208.945 72.1661 213.548 68.5962 213.548 64.1922Z"
            fill="#FFC19F" />
        <path
            d="M203.069 68.8204C198.821 68.8204 195.38 66.5784 195.38 63.8144V50.1555H210.759V63.8144C210.758 66.5784 207.314 68.8204 203.069 68.8204Z"
            fill="#FFC19F" />
        <path opacity="0.23"
            d="M195.379 62.2009C197.354 63.2263 200.435 63.521 203.72 62.8093C206.789 62.1429 209.314 60.746 210.756 59.1374V53.8162C208.917 52.3362 205.352 51.7938 201.51 52.6263C199.011 53.1687 196.871 54.1972 195.377 55.4264V62.2009H195.379Z"
            fill="#822020" />
        <path
            d="M182.953 20.5926C182.726 21.0473 182.458 24.0105 182.473 24.1532C183.938 25.5423 193.315 35.6202 204.187 35.6202C214.778 35.6202 223.506 22.3596 224.061 20.7949C220.119 13.8244 210.726 8.53768 197.914 9.58185C197.418 9.62261 188.619 11.1983 188.165 15.0363C186.446 15.6979 184.524 17.4523 182.953 20.5926Z"
            fill="#252937" />
        <path fill-rule="evenodd" clip-rule="evenodd"
            d="M219.64 20.6806C217.547 18.1689 209.988 14.2635 197.334 12.4479C191.039 11.5449 185.978 17.4618 186.976 18.3649C190.261 21.3359 196.036 23.5904 200.266 25.0077C205.574 26.7857 209.278 27.198 212.967 26.5615C216.292 25.9845 221.297 24.9121 219.64 20.6806Z"
            fill="#252937" />
        <path
            d="M182.953 20.5926C182.726 21.0473 182.458 24.0105 182.473 24.1532C183.938 25.5423 193.315 35.6202 204.187 35.6202C214.778 35.6202 223.506 22.3596 224.061 20.7949C220.119 13.8244 210.726 8.53768 197.914 9.58185C197.418 9.62261 188.619 11.1983 188.165 15.0363C186.446 15.6979 184.524 17.4523 182.953 20.5926Z"
            fill="#252937" />
        <path
            d="M183.818 36.8759C185.869 36.6408 187.489 38.4735 188.387 41.501C189.397 44.9016 188.199 46.8128 187.387 47.2314C185.846 48.0263 182.815 46.3801 181.539 43.1566C180.389 40.253 181.401 37.1519 183.818 36.8759Z"
            fill="#FFC19F" />
        <path
            d="M184.8 39.9222C185.829 39.4299 187.138 40.2013 187.727 41.6453C188.317 43.0892 187.961 44.6586 186.932 45.1509C185.905 45.6432 184.595 44.8718 184.005 43.4279C183.417 41.9839 183.773 40.4145 184.8 39.9222Z"
            fill="#E0956C" />
        <path
            d="M221.914 36.8759C219.863 36.6408 218.243 38.4735 217.345 41.501C216.335 44.9016 217.535 46.8128 218.345 47.2314C219.886 48.0263 222.917 46.3801 224.193 43.1566C225.343 40.253 224.331 37.1519 221.914 36.8759Z"
            fill="#FFC19F" />
        <path
            d="M220.932 39.9222C219.905 39.4299 218.594 40.2013 218.005 41.6453C217.417 43.0892 217.773 44.6586 218.8 45.1509C219.828 45.6432 221.137 44.8718 221.727 43.4279C222.315 41.9839 221.959 40.4145 220.932 39.9222Z"
            fill="#E0956C" />
        <path
            d="M221.813 27.3281C219.16 19.6959 204.794 19.605 202.864 19.5846C201.04 19.5658 186.341 19.7022 183.892 27.3296C183.502 28.5431 187.35 49.2258 189.196 52.8631C189.905 54.2569 192.144 56.3703 193.594 57.3079C195.99 58.8569 197.741 60.1645 200.73 60.8433C200.91 60.8841 204.794 60.8841 204.976 60.8433C207.964 60.1645 209.715 58.8569 212.111 57.3079C213.561 56.3703 215.8 54.2569 216.509 52.8631C218.357 49.2242 222.231 28.5321 221.813 27.3281Z"
            fill="#FFC19F" />
        <path
            d="M202.997 46.0902C202.567 46.0902 202.15 46.0134 201.883 45.8942C201.77 45.8425 201.717 45.7092 201.769 45.5948C201.819 45.4787 201.952 45.427 202.07 45.4803C202.644 45.7374 203.846 45.681 204.113 45.2906C204.285 45.0382 204.107 44.4283 203.898 43.7212C203.762 43.2556 203.606 42.7272 203.505 42.1581C203.483 42.0342 203.564 41.9167 203.688 41.8947C203.817 41.8775 203.929 41.9559 203.951 42.0781C204.047 42.6222 204.199 43.138 204.332 43.5927C204.585 44.444 204.782 45.1166 204.484 45.5462C204.215 45.9412 203.594 46.0902 202.997 46.0902Z"
            fill="#C4735B" />
        <path
            d="M195.562 15.7871C187.009 16.0207 184.358 19.7506 182.809 22.2512C181.799 27.8327 183.034 35.7376 183.371 36.8743C184.281 37.2741 185.872 42.2754 186.529 43.202C186.542 43.0264 186.438 42.0716 186.252 38.8733C185.871 32.3621 185.729 26.6098 186.858 24.8428C187.533 23.7861 190.613 21.1804 196.455 20.4968C199.092 20.188 196.741 17.4208 195.562 15.7871Z"
            fill="#252937" />
        <path
            d="M185.493 22.4049C186.123 22.1305 194.45 20.536 196.454 20.4968C191.474 21.5379 188.216 23.286 187.834 25.0043C187.534 26.3526 186.39 33.0174 186.187 38.5221C186.112 36.9777 185.251 22.5099 185.493 22.4049Z"
            fill="#252937" />
        <path
            d="M210.264 15.7871C218.816 16.0207 221.468 19.7506 223.017 22.2512C224.026 27.8327 222.791 35.7376 222.454 36.8743C221.698 37.2067 220.47 40.7217 219.701 42.4291C219.545 42.774 219.407 43.0468 219.298 43.202C219.285 43.0264 219.389 42.0716 219.575 38.8733C219.956 32.3621 220.097 26.6098 218.968 24.8428C218.294 23.7861 215.213 21.1804 209.371 20.4968C206.733 20.188 209.085 17.4208 210.264 15.7871Z"
            fill="#252937" />
        <path
            d="M220.331 22.4049C219.701 22.1305 211.374 20.536 209.37 20.4968C214.35 21.5379 217.608 23.286 217.99 25.0043C218.29 26.3526 219.434 33.0174 219.637 38.5221C219.713 36.9777 220.574 22.5099 220.331 22.4049Z"
            fill="#252937" />
        <path
            d="M196.234 49.265C196.396 47.7709 198.821 48.1942 202.365 48.1691C202.55 48.1675 203.271 48.1675 203.456 48.1691C206.999 48.1942 209.116 47.832 209.439 49.3026C209.751 50.7199 208.299 52.9651 206.209 54.2616C205.223 54.8731 204.096 55.0863 202.942 55.0894H202.879C201.725 55.0863 200.603 54.8919 199.618 54.2961C197.533 53.0325 196.065 50.8156 196.234 49.265Z"
            fill="#701608" />
        <path
            d="M202.887 55.1819H202.943C204.011 55.1772 205.118 54.9859 206.146 54.3369L206.209 54.2992L206.156 54.2444C205.301 53.3648 204.149 52.8804 202.912 52.8804C201.678 52.8804 200.526 53.3648 199.668 54.2444L199.616 54.2961L199.677 54.3369C200.712 54.9859 201.821 55.1772 202.887 55.1819Z"
            fill="#DD6B5B" />
        <path
            d="M208.134 48.2538C207.697 49.5739 205.537 50.2041 202.91 50.2041C200.245 50.2041 198.153 49.6538 197.661 48.202C198.743 48.05 200.366 48.1848 202.365 48.1691C202.55 48.1675 203.271 48.1675 203.456 48.1691C205.54 48.1832 207.112 48.0562 208.134 48.2538Z"
            fill="white" />
        <path fill-rule="evenodd" clip-rule="evenodd"
            d="M213.42 35.7097C215.795 36.7397 216.439 39.6559 214.981 41.0763C214.127 41.9088 212.778 42.097 211.38 42.086C209.324 42.0687 207.532 41.0559 207.288 40.1027C207.169 39.6339 207.082 38.6901 208.034 37.2148C209.117 35.5341 211.333 34.8035 213.42 35.7097Z"
            fill="#FBFDFF" />
        <path fill-rule="evenodd" clip-rule="evenodd"
            d="M215.176 36.3211C216.707 37.8184 215.969 40.4288 214.936 41.1202C215.643 40.2532 215.774 39.1009 215.517 38.2072C215.248 37.2696 214.41 36.1095 212.675 35.6297C210.905 35.1405 208.874 35.7865 207.8 37.5487C209.216 34.8583 213.018 34.2108 215.176 36.3211Z"
            fill="#212121" />
        <path fill-rule="evenodd" clip-rule="evenodd"
            d="M212.131 36.8165C213.313 37.3527 213.846 38.7512 213.296 39.96C212.745 41.1688 211.361 41.6971 210.174 41.1688C208.987 40.6404 208.471 39.2309 209.009 38.0253C209.55 36.8134 210.939 36.2756 212.131 36.8165Z"
            fill="#212121" />
        <path fill-rule="evenodd" clip-rule="evenodd"
            d="M212.764 37.4765C213.092 37.6348 213.247 38.0268 213.093 38.356C212.962 38.6853 212.567 38.8389 212.236 38.6853C211.907 38.5316 211.753 38.1365 211.907 37.8057C212.062 37.4765 212.455 37.326 212.764 37.4765Z"
            fill="white" />
        <path fill-rule="evenodd" clip-rule="evenodd"
            d="M197.707 37.2133C198.659 38.6886 198.573 39.6325 198.454 40.1012C198.211 41.0545 196.415 42.0688 194.361 42.0845C192.964 42.0955 191.616 41.9074 190.76 41.0749C189.302 39.656 189.946 36.7383 192.322 35.7082C194.41 34.8036 196.625 35.5342 197.707 37.2133Z"
            fill="#FBFDFF" />
        <path fill-rule="evenodd" clip-rule="evenodd"
            d="M197.941 37.5487C196.868 35.7849 194.836 35.139 193.066 35.6297C191.33 36.1095 190.493 37.2696 190.224 38.2072C189.966 39.1009 190.098 40.2532 190.805 41.1202C189.772 40.4288 189.034 37.8184 190.565 36.3211C192.724 34.2108 196.525 34.8583 197.941 37.5487Z"
            fill="#212121" />
        <path fill-rule="evenodd" clip-rule="evenodd"
            d="M195.557 36.8165C196.739 37.3527 197.273 38.7512 196.722 39.96C196.173 41.1688 194.787 41.6971 193.601 41.1688C192.414 40.6404 191.899 39.2309 192.436 38.0253C192.977 36.8134 194.367 36.2756 195.557 36.8165Z"
            fill="#212121" />
        <path fill-rule="evenodd" clip-rule="evenodd"
            d="M196.192 37.4765C196.52 37.6348 196.677 38.0268 196.522 38.356C196.39 38.6853 195.995 38.8389 195.664 38.6853C195.335 38.5316 195.181 38.1365 195.335 37.8057C195.488 37.4765 195.882 37.326 196.192 37.4765Z"
            fill="white" />
        <path
            d="M188.872 31.0485C189.673 30.3727 190.825 29.7628 191.818 29.5057C193.782 28.9946 196.18 29.0714 197.702 29.3803C198.194 29.4791 198.514 30.9826 198.43 31.1049C198.329 31.2491 198.118 31.2742 197.769 31.2335C195.971 31.0265 194.262 30.6738 191.843 31.1425C190.963 31.3134 189.955 31.605 189.447 31.7916C189.251 31.8637 188.692 32.0926 188.64 32.044C188.514 31.9264 188.582 31.2915 188.872 31.0485Z"
            fill="#220500" />
        <path
            d="M216.838 31.0485C216.037 30.3727 214.884 29.7628 213.892 29.5057C211.927 28.9946 209.53 29.0714 208.008 29.3803C207.515 29.4791 207.196 30.9826 207.28 31.1049C207.381 31.2491 207.592 31.2742 207.94 31.2335C209.739 31.0265 211.448 30.6738 213.867 31.1425C214.746 31.3134 215.754 31.605 216.262 31.7916C216.458 31.8637 217.018 32.0926 217.07 32.044C217.195 31.9264 217.128 31.2915 216.838 31.0485Z"
            fill="#220500" />
        <path fill-rule="evenodd" clip-rule="evenodd"
            d="M219.64 20.6806C217.547 18.1689 209.988 14.2635 197.334 12.4479C191.039 11.5449 185.978 17.4618 186.976 18.3649C190.261 21.3359 196.036 23.5904 200.266 25.0077C205.574 26.7857 209.278 27.198 212.967 26.5615C216.292 25.9845 221.297 24.9121 219.64 20.6806Z"
            fill="#252937" />
        <path opacity="0.3"
            d="M178.658 92.3362C178.931 98.1199 179.174 104.051 179.356 109.327C192.526 111.222 213.424 111.283 226.881 109.455C226.949 104.711 227.005 98.2077 227.149 92.3597C213.492 93.0495 192.666 93.1028 178.658 92.3362Z"
            fill="white" />
        <path opacity="0.3"
            d="M178.667 84.2053C178.721 85.6744 178.767 87.0352 178.803 88.2864C192.815 89.6441 213.751 89.6425 227.708 88.3036C227.694 87.0964 227.716 85.7136 227.763 84.2147C213.16 85.7841 193.011 85.8751 178.667 84.2053Z"
            fill="white" />
    </g>
    <g filter="url(#filter1_dd_7521_3823)">
        <path
            d="M137.455 70.809C137.246 66.5289 139.148 54.4551 135.175 42.7717H96.5209C93.2661 54.833 95.1397 66.5289 94.9311 70.809C94.4263 81.1629 89.3746 85.153 90.1319 94.8014C90.9911 105.742 105.295 107.018 116.193 107.018C127.091 107.018 141.395 105.742 142.254 94.8014C143.011 85.153 137.96 81.1645 137.455 70.809Z"
            fill="#6B1511" />
        <path opacity="0.65"
            d="M116.193 107.018C120.827 107.018 126.072 106.778 130.642 105.671V52.7432H101.615V105.643C106.215 106.776 111.514 107.018 116.193 107.018Z"
            fill="#1C0108" />
        <path
            d="M120.099 125.725L103.262 124.452C97.7055 135.029 93.5412 140.163 92.4907 148.23C91.4779 156.008 93.4581 165.488 94.2326 170.568C95.0071 175.648 95.8397 182.076 96.6848 189.192C101.539 190.567 106.242 190.71 109.385 190.435C111.161 180.447 113.436 161.337 114.635 156.665C114.894 155.656 115.863 154.843 117.075 155.818L120.099 125.725Z"
            fill="#284F54" />
        <path
            d="M114.678 124.515L131.176 124.858C136.698 137.385 138.829 142.223 139.459 150.323C139.735 153.855 138.528 160.297 137.163 166.807C135.697 173.787 133.489 181.499 131.768 189.828C126.8 190.779 122.224 190.424 119.121 189.879C118.314 179.779 118.105 161.777 117.359 157.022C117.197 155.995 115.907 154.642 114.678 156.393V124.515Z"
            fill="#284F54" />
        <path
            d="M128.73 91.0931C128.703 90.8595 137.107 90.5777 139.76 90.6064C140.664 92.9879 143.635 112.315 144.992 119.564C143.995 120.057 136.871 120.979 136.018 120.84C134.351 114.728 129.08 94.1697 128.73 91.0931Z"
            fill="#FFC19F" />
        <path
            d="M130.31 158.992C130.59 160.26 132.637 158.893 133.173 156.263C133.355 155.365 133.303 150.28 132.54 150.496C131.771 151.755 130.029 157.724 130.31 158.992Z"
            fill="#F29D77" />
        <path
            d="M138.452 159.223C138.705 159.818 139.95 159.323 140.146 158.545C140.323 157.841 140.449 156.53 140.714 156.942C141.19 157.682 141.845 157.029 142.174 155.918C142.844 153.652 142.363 148.159 142.059 146.339C141.739 144.426 138.411 144.087 136.529 144.54C135.543 145.167 134.162 147.172 132.513 150.567C132.651 153.715 132.157 157.319 132.362 159.252C133.08 163.76 133.286 165.946 133.976 165.718C135.786 165.121 135.117 161.331 134.926 159.102C134.938 157.675 135.141 156.073 135.573 154.441C135.904 155.709 135.737 161.168 135.951 162.869C136.531 163.789 138.042 160.277 138.059 158.781C138.076 157.342 138.087 155.634 138.245 154.363C138.513 155.441 138.409 158.116 138.452 159.223Z"
            fill="#FFC19F" />
        <path
            d="M95.1399 93.9816C97.6751 94.5534 102.997 96.8688 103.015 97.12C103.22 100.095 90.8599 121.83 86.811 127.398C85.9549 127.354 79.4629 124.747 78.6663 123.993C83.5713 116.802 93.5385 96.3332 95.1399 93.9816Z"
            fill="#FFC19F" />
        <path
            d="M99.549 105.717C101.151 99.6711 104.295 86.3948 104.615 84.0713C100.874 85.048 96.5152 85.8774 94.9504 87.417C92.9498 89.3862 91.8147 95.8143 90.0352 103.097C92.6315 104.132 96.4634 105.155 99.549 105.717Z"
            fill="#FEA623" />
        <path
            d="M96.3281 135.759C98.6298 131.366 100.641 127.931 102.4 124.614C103.242 123.025 101.428 112.486 100.84 111.144C99.8088 108.788 98.0324 106.129 98.2597 101.85C98.4933 97.4714 100.568 89.1463 101.621 85.1468C104.542 84.5087 111.847 82.4078 116.008 81.5189L116.005 81.2429C116.223 81.279 116.461 81.3229 116.712 81.373C116.964 81.3229 117.203 81.279 117.419 81.2429L117.416 81.5189C121.577 82.4094 128.882 84.5087 131.803 85.1468C132.856 89.1463 134.931 97.4714 135.164 101.85C135.392 106.129 133.617 108.786 132.584 111.144C131.996 112.486 131.223 122.56 131.629 124.446C132.45 128.268 135.301 132.531 136.817 136.623C134.06 138.782 125.363 142.46 116.712 142.46C108.06 142.46 99.086 137.918 96.3281 135.759Z"
            fill="#FEA623" />
        <path
            d="M140.822 113.918C138.496 113.151 136.898 115.128 136.069 116.326C134.667 125.186 136.487 135.638 135.939 146.785C136.453 147.098 141.485 147.696 141.883 147.371C142.905 136.555 144.783 128.367 144.886 118.742C144.908 116.749 142.053 114.324 140.822 113.918Z"
            fill="#FFC19F" />
        <path
            d="M87.0409 127.045C80.6806 129.274 78.5654 127.718 77.5708 124.89C75.7607 119.743 75.1455 106.988 74.6287 99.5713C74.4952 98.5768 80.7235 98.2338 80.9601 99.1741C82.2065 107.275 84.7606 118.961 87.0409 127.045Z"
            fill="#FFC19F" />
        <path
            d="M85.4044 87.9404C86.7837 86.9496 86.6823 88.6555 86.5859 89.8441C85.9767 97.2814 84.8644 98.4109 81.3502 101.049C79.5151 103.527 76.4797 102.185 75.3886 100.877C73.1732 98.2191 71.6361 91.3663 71.3047 86.5082C71.1828 84.7309 71.6612 82.073 72.1513 82.0309C73.0823 81.952 72.9138 84.4878 73.1776 86.2542C73.3687 87.5343 74.1016 88.9721 74.3471 89.2869C74.3076 88.6224 73.8644 85.5597 73.8396 84.9316C73.7501 82.7657 74.3555 79.1339 74.7693 79.0936C76.3277 78.9435 75.7857 81.9966 75.9754 84.6119C76.0368 85.4579 76.5357 88.1821 76.8273 89.3665C76.9587 88.6686 76.9417 86.4549 76.9367 84.8263C76.9244 81.1494 76.8066 78.353 77.27 78.2527C79.0776 77.8607 79.1803 80.8699 79.3671 85.0639C79.4117 86.0649 79.6047 88.8003 79.6731 89.5684C79.8624 89.403 80.1782 87.668 80.2062 85.7743C80.2457 83.0541 79.5837 79.924 80.6724 79.8669C81.3839 79.8298 82.2422 82.1391 82.5378 85.6988C82.7359 88.091 82.7278 90.9547 82.9184 93.3195C83.9711 94.0522 83.9263 89.0022 85.4044 87.9404Z"
            fill="#FFC19F" />
        <path opacity="0.14"
            d="M79.5205 95.3647C79.0447 96.4691 79.6176 97.4221 79.1402 97.5464C78.4777 97.7196 77.9559 96.4393 78.3811 95.5053C79.2362 93.6302 81.4754 93.2969 80.9182 93.5621C80.3249 93.845 79.7005 94.9499 79.5205 95.3647Z"
            fill="#991D05" />
        <path
            d="M133.744 105.717C132.142 99.6711 128.999 86.3948 128.679 84.0713C132.42 85.048 136.778 85.8774 138.343 87.417C140.344 89.3862 141.479 95.8143 143.258 103.097C140.664 104.132 136.83 105.155 133.744 105.717Z"
            fill="#FEA623" />
        <path
            d="M129.535 84.4082C129.065 84.3001 119.477 80.9073 116.519 80.3711C113.803 80.8634 104.271 84.1684 103.54 84.333C100.97 87.8151 108.882 92.0184 116.002 92.0184C123.071 92.0184 132.13 88.1726 129.535 84.4082Z"
            fill="#FFC19F" />
        <path
            d="M115.992 87.5878C112.787 87.5878 110.19 86.0796 110.19 84.2201V75.0327H121.793V84.2201C121.793 86.0796 119.195 87.5878 115.992 87.5878Z"
            fill="#FFC19F" />
        <path opacity="0.23"
            d="M124.478 72.6372C125.387 75.1426 122.55 78.4695 118.141 80.0702C113.732 81.671 109.42 80.9357 108.512 78.4303C107.603 75.9249 110.441 72.598 114.85 70.9973C119.259 69.3981 123.569 70.1334 124.478 72.6372Z"
            fill="#822020" />
        <path
            d="M98.0503 58.384C100.101 58.1488 101.721 59.9816 102.619 63.0091C103.629 66.4097 102.429 68.3208 101.619 68.7394C100.078 69.5343 97.0469 67.8881 95.7706 64.6647C94.6214 61.7611 95.6327 58.6599 98.0503 58.384Z"
            fill="#FFC19F" />
        <path
            d="M99.0316 61.4303C100.059 60.938 101.369 61.7093 101.959 63.1533C102.548 64.5973 102.192 66.1667 101.164 66.659C100.135 67.1512 98.8262 66.3799 98.2367 64.9359C97.6487 63.4935 98.0046 61.9226 99.0316 61.4303Z"
            fill="#E0956C" />
        <path
            d="M134.197 58.3842C132.147 58.1491 130.527 59.9818 129.629 63.0093C128.619 66.4099 129.818 68.3211 130.629 68.7397C132.17 69.5346 135.199 67.8884 136.477 64.6649C137.626 61.7613 136.615 58.6602 134.197 58.3842Z"
            fill="#FFC19F" />
        <path
            d="M133.216 61.4305C132.189 60.9382 130.878 61.7096 130.288 63.1536C129.7 64.5975 130.056 66.1669 131.083 66.6592C132.11 67.1515 133.421 66.3801 134.011 64.9362C134.598 63.4938 134.243 61.9228 133.216 61.4305Z"
            fill="#E0956C" />
        <path
            d="M129.367 103.034C134.367 100.458 133.907 89.8016 133.434 78.4694C133.104 78.4114 131.526 69.8887 130.659 69.7837C130.456 71.7027 129.691 78.5807 130.086 80.8964C131.214 87.4985 132.65 99.6993 129.367 103.034Z"
            fill="#6B1511" />
        <path
            d="M103.451 104.044C98.4498 101.468 98.3996 89.8017 98.8747 78.4679C99.2039 78.4099 100.783 69.8873 101.65 69.7822C101.852 71.7012 102.619 78.5793 102.222 80.8949C101.093 87.4986 100.167 100.711 103.451 104.044Z"
            fill="#6B1511" />
        <path
            d="M133.464 46.1536C131.993 38.8037 118.053 39.1768 116.093 39.1941C114.134 39.1752 100.194 38.8037 98.723 46.1536C97.0407 54.5618 100.722 66.9805 102.665 70.1914C105.134 74.2725 108.365 76.5144 110.418 77.5931C111.713 78.2735 114.127 79.2017 116.078 79.0731L116.109 79.0747C118.06 79.2048 120.474 78.2751 121.769 77.5931C123.821 76.5129 127.054 74.2725 129.522 70.1914C131.465 66.9805 135.146 54.5618 133.464 46.1536Z"
            fill="#FFC19F" />
        <path
            d="M115.963 65.593C115.637 65.593 115.336 65.5444 115.126 65.4519C115.013 65.4001 114.959 65.2669 115.011 65.1524C115.061 65.0395 115.198 64.9862 115.312 65.038C115.828 65.27 117.057 65.1101 117.349 64.6868C117.509 64.4516 117.413 64.1584 117.2 63.5689C117.076 63.2287 116.921 62.8038 116.806 62.2864C116.78 62.1642 116.856 62.0434 116.979 62.0152C117.101 61.987 117.22 62.0669 117.248 62.1861C117.357 62.6753 117.499 63.0672 117.625 63.4137C117.846 64.022 118.021 64.5049 117.72 64.9423C117.418 65.3845 116.635 65.593 115.963 65.593Z"
            fill="#C4735B" />
        <path
            d="M122.614 68.5139C122.456 67.1029 120.088 67.5027 116.628 67.4792C116.448 67.4776 115.744 67.4776 115.562 67.4792C112.103 67.5027 110.037 67.1609 109.72 68.5484C109.416 69.8858 110.831 72.0039 112.873 73.2284C113.835 73.8053 114.938 74.006 116.063 74.0091H116.125C117.25 74.006 118.348 73.8226 119.309 73.2613C121.347 72.0682 122.779 69.9767 122.614 68.5139Z"
            fill="#701608" />
        <path
            d="M116.12 74.0953H116.064C115.021 74.0906 113.941 73.9103 112.936 73.2988L112.875 73.2627L112.926 73.211C113.76 72.3816 114.886 71.9238 116.093 71.9238C117.299 71.9238 118.423 72.3816 119.26 73.211L119.311 73.2596L119.251 73.2972C118.241 73.9118 117.159 74.0921 116.12 74.0953Z"
            fill="#DD6B5B" />
        <path
            d="M110.995 67.5605C111.421 68.8054 113.531 69.4011 116.096 69.4011C118.699 69.4011 120.741 68.8822 121.222 67.5119C120.165 67.3677 118.582 67.4947 116.63 67.4821C116.449 67.4805 115.745 67.4805 115.563 67.4821C113.53 67.4931 111.993 67.3739 110.995 67.5605Z"
            fill="white" />
        <path fill-rule="evenodd" clip-rule="evenodd"
            d="M105.86 57.0466C103.484 58.0766 102.84 60.9928 104.298 62.4132C105.153 63.2457 106.503 63.4339 107.899 63.4229C109.955 63.4057 111.749 62.3929 111.992 61.4396C112.112 60.9708 112.197 60.027 111.245 58.5517C110.162 56.8726 107.947 56.142 105.86 57.0466Z"
            fill="#FBFDFF" />
        <path fill-rule="evenodd" clip-rule="evenodd"
            d="M104.365 57.9295C103.661 57.9515 103.078 57.1346 103.011 56.5232C103.536 57.641 106.146 56.7301 106.379 56.7301C104.883 57.0594 104.666 57.5501 104.365 57.9295Z"
            fill="#0C0D0D" />
        <path fill-rule="evenodd" clip-rule="evenodd"
            d="M103.906 58.8404C103.353 59.074 102.755 58.7463 102.675 57.9655C103.097 58.8843 104.621 57.7397 104.853 57.7397C104.554 57.9812 104.207 58.4609 103.906 58.8404Z"
            fill="#0C0D0D" />
        <path fill-rule="evenodd" clip-rule="evenodd"
            d="M104.103 57.6597C102.572 59.157 103.31 61.7674 104.343 62.4588C103.636 61.5918 103.504 60.4395 103.762 59.5458C104.031 58.6083 104.869 57.4481 106.604 56.9683C108.374 56.4792 110.406 57.1251 111.479 58.8873C110.061 56.197 106.261 55.5494 104.103 57.6597Z"
            fill="#0C0D0D" />
        <path fill-rule="evenodd" clip-rule="evenodd"
            d="M107.148 58.1551C105.966 58.6913 105.433 60.0898 105.983 61.2986C106.534 62.5074 107.918 63.0357 109.105 62.5074C110.292 61.979 110.806 60.5696 110.27 59.3639C109.729 58.1504 108.34 57.6142 107.148 58.1551Z"
            fill="#0C0D0D" />
        <path fill-rule="evenodd" clip-rule="evenodd"
            d="M106.513 58.8151C106.186 58.9735 106.03 59.3654 106.184 59.6947C106.316 60.0239 106.711 60.1775 107.042 60.0239C107.371 59.8703 107.525 59.4736 107.371 59.1443C107.217 58.8151 106.824 58.6646 106.513 58.8151Z"
            fill="white" />
        <path fill-rule="evenodd" clip-rule="evenodd"
            d="M126.38 57.0466C128.755 58.0766 129.4 60.9928 127.942 62.4132C127.087 63.2457 125.739 63.4339 124.34 63.4229C122.285 63.4057 120.493 62.3929 120.248 61.4396C120.129 60.9708 120.043 60.027 120.994 58.5517C122.078 56.8726 124.293 56.142 126.38 57.0466Z"
            fill="#FBFDFF" />
        <path fill-rule="evenodd" clip-rule="evenodd"
            d="M127.874 57.9295C128.578 57.9515 129.161 57.1346 129.229 56.5232C128.703 57.641 126.094 56.7301 125.861 56.7301C127.357 57.0594 127.573 57.5501 127.874 57.9295Z"
            fill="#0C0D0D" />
        <path fill-rule="evenodd" clip-rule="evenodd"
            d="M128.334 58.8404C128.887 59.074 129.485 58.7463 129.565 57.9655C129.141 58.8843 127.619 57.7397 127.385 57.7397C127.685 57.9812 128.033 58.4609 128.334 58.8404Z"
            fill="#0C0D0D" />
        <path fill-rule="evenodd" clip-rule="evenodd"
            d="M128.136 57.6597C129.668 59.157 128.929 61.7674 127.896 62.4588C128.603 61.5918 128.735 60.4395 128.478 59.5458C128.208 58.6083 127.371 57.4481 125.635 56.9683C123.865 56.4792 121.835 57.1251 120.761 58.8873C122.177 56.197 125.979 55.5494 128.136 57.6597Z"
            fill="#0C0D0D" />
        <path fill-rule="evenodd" clip-rule="evenodd"
            d="M123.144 58.1551C121.962 58.6913 121.429 60.0898 121.979 61.2986C122.529 62.5074 123.914 63.0357 125.101 62.5074C126.288 61.979 126.802 60.5696 126.266 59.3639C125.726 58.1504 124.336 57.6142 123.144 58.1551Z"
            fill="#0C0D0D" />
        <path fill-rule="evenodd" clip-rule="evenodd"
            d="M122.51 58.8151C122.183 58.9735 122.028 59.3654 122.181 59.6947C122.313 60.0239 122.708 60.1775 123.039 60.0239C123.368 59.8703 123.522 59.4736 123.368 59.1443C123.214 58.8151 122.819 58.6646 122.51 58.8151Z"
            fill="white" />
        <path
            d="M130.234 52.8998C129.536 52.1065 128.349 51.3665 127.349 51.1376C125.296 50.6688 122.893 50.8804 121.491 51.3461C121.041 51.495 120.794 52.3526 120.786 52.6129C120.779 52.8183 121.214 52.9217 121.499 52.8355C123.257 52.3009 125.217 51.9701 127.347 52.362C128.228 52.5235 129.533 53.0644 130.006 53.3262C130.282 53.4768 130.483 53.1836 130.234 52.8998Z"
            fill="#260600" />
        <path
            d="M104.3 36.4456C106.691 34.2444 109.806 31.3345 113.492 31.3847C112.718 33.1218 106.528 41.7464 106.134 42.2889C106.134 45.5546 105.192 46.7007 103.659 49.3488C102.379 51.561 101.032 53.6258 100.325 57.0593C99.9427 58.9203 100.523 64.5064 100.51 64.6805C99.9646 63.7617 99.4629 58.37 97.4733 58.4327C97.3039 57.4121 95.6843 48.013 96.1657 44.5277C96.4322 42.6087 97.9358 37.4318 104.3 36.4456Z"
            fill="#6B1511" />
        <path fill-rule="evenodd" clip-rule="evenodd"
            d="M135.176 42.7718C134.736 44.7723 138.395 60.6073 136.746 69.4968C136.702 69.7304 131.946 72.9163 130.255 73.8867C130.427 70.5159 131.324 59.5631 129.657 56.4824C127.69 52.845 123.279 49.6514 120.818 48.2497C115.957 45.481 111.178 43.5808 105.529 42.4582C105.529 40.8261 108.039 30.1179 115.709 31.2718C125.104 32.6844 131.943 37.1135 135.176 42.7718Z"
            fill="#6B1511" />
        <path
            d="M102.337 52.9C103.035 52.1067 104.221 51.3667 105.222 51.1378C107.274 50.669 109.678 50.8807 111.079 51.3463C111.528 51.4953 111.777 52.3529 111.785 52.6131C111.791 52.8185 111.357 52.922 111.071 52.8358C109.314 52.3011 107.354 51.9703 105.223 52.3623C104.342 52.5238 103.038 53.0647 102.564 53.3265C102.287 53.477 102.088 53.1838 102.337 52.9Z"
            fill="#260600" />
        <path opacity="0.15"
            d="M102.178 117.936C101.755 114.885 101.14 111.826 100.842 111.144C100.104 109.459 98.9953 107.607 98.5015 105.13C100.852 109.84 105.648 111.42 116.488 111.525C125.806 111.616 131.271 110.517 134.174 107.654C133.659 108.956 133.049 110.086 132.585 111.144C132.247 111.919 131.847 115.594 131.646 118.93C128.895 115.511 121.791 114.52 116.298 114.465C110.428 114.407 105.03 115.175 102.178 117.936Z"
            fill="#2B000B" />
    </g>
    <circle cx="285.5" cy="19.5" r="19.5" fill="#FFF8ED" />
    <circle cx="27.5" cy="35.5" r="27.5" fill="#FFF8ED" />
    <defs>
        <filter id="filter0_dd_7521_3823" x="162.712" y="9.13495" width="97.0279" height="249.443"
            filterUnits="userSpaceOnUse" color-interpolation-filters="sRGB">
            <feFlood flood-opacity="0" result="BackgroundImageFix" />
            <feColorMatrix in="SourceAlpha" type="matrix"
                values="0 0 0 0 0 0 0 0 0 0 0 0 0 0 0 0 0 0 127 0" result="hardAlpha" />
            <feOffset dx="0.315" dy="1.26" />
            <feComposite in2="hardAlpha" operator="out" />
            <feColorMatrix type="matrix" values="0 0 0 0 0 0 0 0 0 0 0 0 0 0 0 0 0 0 0.25 0" />
            <feBlend mode="normal" in2="BackgroundImageFix" result="effect1_dropShadow_7521_3823" />
            <feColorMatrix in="SourceAlpha" type="matrix"
                values="0 0 0 0 0 0 0 0 0 0 0 0 0 0 0 0 0 0 127 0" result="hardAlpha" />
            <feOffset dx="-0.315" dy="-0.315" />
            <feComposite in2="hardAlpha" operator="out" />
            <feColorMatrix type="matrix" values="0 0 0 0 0 0 0 0 0 0 0 0 0 0 0 0 0 0 0.25 0" />
            <feBlend mode="normal" in2="effect1_dropShadow_7521_3823"
                result="effect2_dropShadow_7521_3823" />
            <feBlend mode="normal" in="SourceGraphic" in2="effect2_dropShadow_7521_3823"
                result="shape" />
        </filter>
        <filter id="filter1_dd_7521_3823" x="70.9706" y="30.8701" width="74.9665" height="223.627"
            filterUnits="userSpaceOnUse" color-interpolation-filters="sRGB">
            <feFlood flood-opacity="0" result="BackgroundImageFix" />
            <feColorMatrix in="SourceAlpha" type="matrix"
                values="0 0 0 0 0 0 0 0 0 0 0 0 0 0 0 0 0 0 127 0" result="hardAlpha" />
            <feOffset dx="0.945" dy="1.26" />
            <feComposite in2="hardAlpha" operator="out" />
            <feColorMatrix type="matrix" values="0 0 0 0 0 0 0 0 0 0 0 0 0 0 0 0 0 0 0.25 0" />
            <feBlend mode="normal" in2="BackgroundImageFix" result="effect1_dropShadow_7521_3823" />
            <feColorMatrix in="SourceAlpha" type="matrix"
                values="0 0 0 0 0 0 0 0 0 0 0 0 0 0 0 0 0 0 127 0" result="hardAlpha" />
            <feOffset dx="-0.315" dy="-0.315" />
            <feComposite in2="hardAlpha" operator="out" />
            <feColorMatrix type="matrix" values="0 0 0 0 0 0 0 0 0 0 0 0 0 0 0 0 0 0 0.25 0" />
            <feBlend mode="normal" in2="effect1_dropShadow_7521_3823"
                result="effect2_dropShadow_7521_3823" />
            <feBlend mode="normal" in="SourceGraphic" in2="effect2_dropShadow_7521_3823"
                result="shape" />
        </filter>
    </defs>
</svg>
    