<svg width="210" height="36" viewBox="0 0 210 36" fill="none" xmlns="http://www.w3.org/2000/svg">
<path d="M2.39093 17.0768L2.39093 18.7535" stroke="#FFFBF5" stroke-width="3" stroke-linecap="round"/>
<path d="M9.73413 10.9325L9.73413 24.8978" stroke="#FFFBF5" stroke-width="3" stroke-linecap="round"/>
<path d="M17.0773 10.1104L17.0773 25.72" stroke="#FFFBF5" stroke-width="3" stroke-linecap="round"/>
<path d="M24.4204 9.78845L24.4204 26.0419" stroke="#FFFBF5" stroke-width="3" stroke-linecap="round"/>
<path d="M31.7637 8.87744L31.7637 26.9529" stroke="#FFFBF5" stroke-width="3" stroke-linecap="round"/>
<path d="M39.1068 7.20557L39.1068 28.6248" stroke="#FFFBF5" stroke-width="3" stroke-linecap="round"/>
<path d="M46.45 7.54126L46.45 28.2891" stroke="#FFFBF5" stroke-width="3" stroke-linecap="round"/>
<path d="M53.7932 8.87744L53.7932 26.9529" stroke="#FFFBF5" stroke-width="3" stroke-linecap="round"/>
<path d="M61.1364 8.46619L61.1364 27.3641" stroke="#FFFBF5" stroke-width="3" stroke-linecap="round"/>
<path d="M68.4795 5.23328L68.4795 30.597" stroke="#FFFBF5" stroke-width="3" stroke-linecap="round"/>
<path d="M75.8228 6.68835L75.8228 29.142" stroke="#FFFBF5" stroke-width="3" stroke-linecap="round"/>
<path d="M83.1659 3.00793L83.1659 32.8224" stroke="#FFFBF5" stroke-width="3" stroke-linecap="round"/>
<path d="M90.509 2L90.509 33.8303" stroke="#FFFBF5" stroke-width="3" stroke-linecap="round"/>
<path d="M97.8523 2L97.8523 33.8303" stroke="#FFFBF5" stroke-width="3" stroke-linecap="round"/>
<path d="M105.195 4.27429L105.195 31.556" stroke="#FFFBF5" stroke-width="3" stroke-linecap="round"/>
<path d="M112.539 4.27429L112.539 31.556" stroke="#FFFBF5" stroke-width="3" stroke-linecap="round"/>
<path d="M119.882 4.27429L119.882 31.556" stroke="#FFFBF5" stroke-width="3" stroke-linecap="round"/>
<path d="M127.225 4.27429L127.225 31.556" stroke="#FFFBF5" stroke-width="3" stroke-linecap="round"/>
<path d="M134.568 6.68835L134.568 29.142" stroke="#FFFBF5" stroke-width="3" stroke-linecap="round"/>
<path d="M141.911 3.00793L141.911 32.8224" stroke="#FFFBF5" stroke-width="3" stroke-linecap="round"/>
<path d="M149.255 2L149.255 33.8303" stroke="#FFFBF5" stroke-width="3" stroke-linecap="round"/>
<path d="M156.598 2L156.598 33.8303" stroke="#FFFBF5" stroke-width="3" stroke-linecap="round"/>
<path d="M163.941 4.27429L163.941 31.556" stroke="#FFFBF5" stroke-width="3" stroke-linecap="round"/>
<path d="M171.284 4.27429L171.284 31.556" stroke="#FFFBF5" stroke-width="3" stroke-linecap="round"/>
<path d="M178.627 4.27429L178.627 31.556" stroke="#FFFBF5" stroke-width="3" stroke-linecap="round"/>
<path d="M185.97 4.27429L185.97 31.556" stroke="#FFFBF5" stroke-width="3" stroke-linecap="round"/>
<path d="M193.314 6.68835L193.314 29.142" stroke="#FFFBF5" stroke-width="3" stroke-linecap="round"/>
<path d="M200.657 3.00793L200.657 32.8224" stroke="#FFFBF5" stroke-width="3" stroke-linecap="round"/>
<path d="M208 4.27429L208 31.556" stroke="#FFFBF5" stroke-width="3" stroke-linecap="round"/>
</svg>
