<svg width="54" height="62" viewBox="0 0 54 62" fill="none" xmlns="http://www.w3.org/2000/svg">
<path d="M27.312 62C33.0894 62 38.3981 60.972 42.666 57.5612C42.0221 56.1788 41.3394 55.0463 40.6235 54.3728C36.6937 50.6774 17.7629 51.3679 14.6868 54.5945C13.7887 55.537 13.0191 56.6554 12.3096 57.8373C16.5168 61.0815 21.6927 62 27.312 62Z" fill="#299DE5"/>
<path d="M34.2381 53.4366C34.229 52.9862 34.0475 52.5738 33.7997 52.1806C29.966 51.7224 25.3429 51.8064 21.5451 52.3359C21.2119 52.8181 20.9824 53.3293 20.993 53.8757C21.0354 56.0574 24.0346 57.7278 27.6918 57.6064C31.3498 57.4857 34.2805 55.6182 34.2381 53.4366Z" fill="#FFC19F"/>
<path d="M32.1391 46.9913L32.2613 53.9661C32.2874 55.4658 30.2561 56.7175 27.725 56.762C25.1932 56.8065 23.1196 55.626 23.0935 54.1264L22.9713 47.1515L32.1391 46.9913Z" fill="#FFC19F"/>
<path opacity="0.2" d="M32.197 50.2856L32.1391 46.9913L22.9713 47.1515L23.044 51.3207C24.2768 51.5614 25.6133 51.685 27.0719 51.6384C29.0227 51.5769 30.6769 51.0665 32.197 50.2856Z" fill="#420000"/>
<path d="M6.81181 26.6063C10.3264 26.1742 13.6278 29.6013 14.1828 34.2356C14.7363 38.87 14.0084 42.7998 10.4923 43.2206C6.97631 43.6414 2.35041 40.5617 1.16781 35.7437C0.0572202 31.2153 2.00798 27.1979 6.81181 26.6063Z" fill="#FFC19F"/>
<path d="M5.5444 37.5596C6.23772 39.4849 8.17577 40.5503 9.87448 39.9396C11.5718 39.3289 12.3872 37.2722 11.6939 35.3469C11.0006 33.4216 9.06255 32.3561 7.36525 32.9669C5.66654 33.5776 4.85249 35.6342 5.5444 37.5596Z" fill="#E0956C"/>
<path d="M47.9943 26.6063C44.4797 26.1742 41.1783 29.6013 40.6234 34.2356C40.0698 38.87 40.7978 42.7998 44.3138 43.2206C47.8298 43.6414 52.4557 40.5617 53.6383 35.7437C54.7496 31.2153 52.7989 27.1979 47.9943 26.6063Z" fill="#FFC19F"/>
<path d="M49.2623 37.5596C48.569 39.4849 46.631 40.5503 44.9323 39.9396C43.235 39.3289 42.4202 37.2722 43.1128 35.3469C43.8061 33.4216 45.7442 32.3561 47.4415 32.9669C49.1395 33.5776 49.9543 35.6342 49.2623 37.5596Z" fill="#E0956C"/>
<path d="M3.67214 17.8839C2.19795 34.1996 14.0585 44.7646 27.5155 44.5034C40.9731 44.2415 51.8262 32.1655 50.1543 16.3384C49.2259 7.54979 40.1054 -0.133231 27.2507 0.201428C13.7952 0.550912 4.7206 6.28034 3.67214 17.8839Z" fill="#5B190D"/>
<path d="M46.7149 15.6049C43.7927 7.48627 36.7507 7.37048 27.5307 7.37048C18.3113 7.37048 11.2687 7.48627 8.34643 15.6049C7.46531 18.0534 8.22358 38.2487 10.7469 42.7758C12.8791 46.601 21.0705 50.3606 26.783 50.3606C27.0209 50.3606 28.0397 50.3606 28.2777 50.3606C33.9901 50.3606 42.1808 46.601 44.3137 42.7758C46.8378 38.248 47.5961 18.0534 46.7149 15.6049Z" fill="#FFC19F"/>
<path d="M36.0184 38.4429C35.6661 36.6079 32.8462 37.0831 28.2401 37.052C27.9993 37.0506 27.0617 37.0506 26.8209 37.052C22.2148 37.0831 19.3942 36.6079 19.0426 38.4429C18.3648 41.9773 22.8114 45.8379 27.4895 45.852H27.5707C32.2489 45.8379 36.6962 41.978 36.0184 38.4429Z" fill="#701608"/>
<path d="M27.5708 45.9261H27.4896C25.9723 45.9205 24.3993 45.4905 22.935 44.6856L22.8453 44.6383L22.9209 44.5712C24.1367 43.4811 25.7732 42.881 27.5313 42.881C29.2857 42.881 30.923 43.4818 32.1416 44.5712L32.2172 44.6383L32.1275 44.6856C30.6604 45.4905 29.0852 45.9205 27.5708 45.9261Z" fill="#DD6B5B"/>
<path d="M27.531 39.4102C24.3122 39.4102 21.6321 38.4126 21.2967 37.0881L21.277 37.0069H33.7843L33.7645 37.0881C33.427 38.4126 30.747 39.4102 27.531 39.4102Z" fill="white"/>
<path d="M10.8041 36.2683C10.7484 37.2122 12.0143 38.0552 13.6332 38.1512C15.2514 38.2473 16.6084 37.5596 16.6649 36.6156C16.7207 35.6717 15.4541 34.8287 13.8358 34.7326C12.2169 34.6366 10.8599 35.3243 10.8041 36.2683Z" fill="#FF9797"/>
<path d="M37.7731 36.6969C37.8493 37.6394 39.2212 38.2974 40.8373 38.1668C42.4527 38.0362 43.7009 37.1657 43.6247 36.2231C43.5484 35.2806 42.1759 34.6225 40.5605 34.7532C38.9444 34.8838 37.6968 35.7543 37.7731 36.6969Z" fill="#FF9797"/>
<path d="M25.6175 35.0497C25.722 35.0476 25.8124 34.9707 25.8286 34.8641C25.9388 34.1058 26.5269 33.6059 27.3261 33.5904C28.1296 33.5748 28.7502 34.0606 28.8709 34.7998C28.8907 34.9177 29.003 34.9989 29.1209 34.9791C29.2395 34.9601 29.3193 34.8485 29.3002 34.7299C29.1456 33.7831 28.3308 33.1364 27.3177 33.1562C26.3102 33.1759 25.5392 33.8368 25.398 34.8012C25.381 34.9205 25.4629 35.0307 25.5822 35.0476L25.6175 35.0497Z" fill="#C4735B"/>
<path d="M0 26.0026C2.79588 25.0121 4.53978 23.206 4.69934 18.6486C3.08606 18.3034 2.3186 17.831 0.761807 17.3142C6.80542 15.7857 5.91653 7.15586 13.8071 3.54804C26.7416 -1.34475 38.5351 2.25177 41.9332 4.22865C48.1943 7.87106 48.966 12.7794 49.4172 18.2822C50.282 23.266 51.3933 24.7417 53.9993 25.8762C51.1971 26.6875 49.5386 25.9603 48.589 24.9916C48.8672 28.1285 50.3251 29.1219 51.937 30.5113C47.5624 30.7337 45.1266 27.08 44.3394 23.9241C43.4646 20.4186 44.8308 16.5559 44.2787 15.1827C43.9588 14.3884 41.0782 9.79853 39.8702 9.76393C37.2374 9.68768 34.3462 18.8364 25.0259 18.6882C28.7877 16.6626 30.8408 13.7968 32.9116 9.71168C32.1808 10.1473 31.448 10.6768 30.7215 11.32C23.0731 18.0958 14.8937 19.068 8.31986 18.5018C9.40644 23.8429 11.0014 29.4403 2.69492 31.9926C3.44896 31.0606 4.54895 28.2591 4.70993 26.0457C3.81962 26.595 2.1894 27.0779 0 26.0026Z" fill="#5B190D"/>
<path d="M12.6288 22.2423C12.4417 22.2444 12.2546 22.1696 12.1191 22.0206C11.8656 21.7424 11.8854 21.3125 12.1629 21.0583C14.1828 19.2155 17.8401 18.6698 20.8576 19.7571C21.2121 19.8856 21.3949 20.276 21.2671 20.629C21.1386 20.9841 20.7475 21.1677 20.3945 21.0385C17.8655 20.1235 14.7208 20.5641 13.0807 22.0637C12.9529 22.1816 12.7912 22.2402 12.6288 22.2423Z" fill="#4C0B00"/>
<path d="M42.0151 22.2423C42.2022 22.2444 42.3893 22.1696 42.5248 22.0206C42.7783 21.7424 42.7592 21.3125 42.481 21.0583C40.4611 19.2155 36.8046 18.6698 33.7863 19.7571C33.4319 19.8856 33.249 20.276 33.3768 20.629C33.5053 20.9841 33.8964 21.1677 34.2487 21.0385C36.7777 20.1235 39.9224 20.5641 41.5625 22.0637C41.691 22.1816 41.8527 22.2402 42.0151 22.2423Z" fill="#4C0B00"/>
<path d="M32.1397 31.2653C33.0533 29.4169 34.8431 28.307 36.8489 28.3275C37.8113 28.3318 38.7418 28.5549 39.5192 29.0399C40.3141 29.5355 41.1663 30.4181 41.5257 30.9977C41.5772 31.081 41.6485 31.1467 41.6944 31.2335C41.8879 31.6021 41.7601 32.0589 41.4092 32.2516C41.3181 32.3025 41.2214 32.3293 41.1232 32.3364C40.8472 32.3554 40.5683 32.2057 40.4271 31.9332C39.755 30.6482 38.3937 29.8448 36.8737 29.8384C35.3515 29.8102 34.1039 30.6129 33.4311 31.9791C33.2489 32.3462 32.8147 32.4832 32.4567 32.2883C32.1009 32.0907 31.9597 31.6339 32.1397 31.2653Z" fill="#6B1A11"/>
<path d="M22.5596 31.2653C21.6467 29.4169 19.8562 28.307 17.8504 28.3275C16.8881 28.3318 15.9583 28.5549 15.1802 29.0399C14.3852 29.5355 13.533 30.4181 13.1737 30.9977C13.1221 31.081 13.0508 31.1467 13.0049 31.2335C12.8115 31.6021 12.9393 32.0589 13.2902 32.2516C13.3805 32.3025 13.478 32.3293 13.5761 32.3364C13.8522 32.3554 14.131 32.2057 14.2722 31.9332C14.9437 30.6482 16.3056 29.8448 17.8257 29.8384C19.3479 29.8102 20.5955 30.6129 21.2676 31.9791C21.4498 32.3462 21.8847 32.4832 22.2419 32.2883C22.5985 32.0907 22.7404 31.6339 22.5596 31.2653Z" fill="#6B1A11"/>
<path d="M50.2932 38.7422C46.458 41.2895 44.9386 34.0591 41.7848 31.672C50.8587 32.4868 52.6266 37.1924 50.2932 38.7422Z" fill="#D2FFFC"/>
<path d="M50.1186 38.3934C50.8233 37.7968 51.057 37.0054 50.7392 36.1306C50.6023 36.5521 50.3763 36.9496 49.9803 37.2849C48.7129 38.3574 47.166 38.0475 45.8535 36.1962C47.1335 38.8502 48.8139 39.4976 50.1186 38.3934Z" fill="#77F7ED"/>
<path d="M4.25825 38.7422C8.09341 41.2895 9.61278 34.0591 12.7666 31.672C3.69201 32.4868 1.92412 37.1924 4.25825 38.7422Z" fill="#D2FFFC"/>
<path d="M4.43212 38.3934C3.72751 37.7968 3.49381 37.0054 3.81153 36.1306C3.9485 36.5521 4.17443 36.9496 4.57051 37.2849C5.83783 38.3574 7.38474 38.0475 8.69725 36.1962C7.41722 38.8502 5.73687 39.4976 4.43212 38.3934Z" fill="#77F7ED"/>
</svg>
