<svg width="54" height="62" viewBox="0 0 54 62" fill="none" xmlns="http://www.w3.org/2000/svg">
<path d="M27.2275 61.6293C33.005 61.6293 38.3143 60.6013 42.5816 57.1905C41.9377 55.8081 41.2549 54.6756 40.539 54.0027C36.6086 50.3074 17.6785 50.9972 14.6023 54.2244C13.7042 55.167 12.9347 56.2846 12.2251 57.4665C16.4323 60.7107 21.6082 61.6293 27.2275 61.6293Z" fill="#299DE5"/>
<path d="M34.1533 53.0658C34.1449 52.6154 33.9627 52.2031 33.7156 51.8098C29.8818 51.3516 25.2588 51.4356 21.461 51.9651C21.1278 52.4474 20.8983 52.9585 20.9089 53.505C20.9513 55.6866 23.9505 57.3571 27.6077 57.2356C31.265 57.1149 34.1957 55.2482 34.1533 53.0658Z" fill="#FFC19F"/>
<path d="M32.0549 46.6205L32.177 53.5954C32.2032 55.095 30.1719 56.3468 27.6408 56.3912C25.109 56.4357 23.0353 55.2552 23.0092 53.7556L22.8871 46.7808L32.0549 46.6205Z" fill="#FFC19F"/>
<path opacity="0.2" d="M32.1117 49.9148L32.0538 46.6205L22.886 46.7808L22.9587 50.9499C24.1914 51.1906 25.5273 51.3142 26.9866 51.2676C28.9374 51.2062 30.5916 50.6957 32.1117 49.9148Z" fill="#420000"/>
<path d="M6.81273 26.4152C10.3274 25.9832 13.6287 29.4102 14.1837 34.0439C14.7372 38.6783 14.0093 42.608 10.4933 43.0288C6.97723 43.4496 2.35132 40.3699 1.16872 35.552C0.0581312 31.0242 2.0082 27.0069 6.81273 26.4152Z" fill="#FFC19F"/>
<path d="M5.54455 37.3686C6.23787 39.294 8.17591 40.3594 9.87462 39.7486C11.5719 39.1379 12.3874 37.0813 11.6941 35.1559C11.0014 33.2306 9.06339 32.1652 7.36539 32.7759C5.66739 33.3866 4.85264 35.4433 5.54455 37.3686Z" fill="#E0956C"/>
<path d="M47.9952 26.4152C44.4806 25.9832 41.1792 29.4102 40.6243 34.0439C40.0708 38.6783 40.7994 42.608 44.3147 43.0288C47.8307 43.4496 52.4567 40.3699 53.6393 35.552C54.7498 31.0242 52.7991 27.0069 47.9952 26.4152Z" fill="#FFC19F"/>
<path d="M49.2624 37.3686C48.5691 39.294 46.631 40.3594 44.9323 39.7486C43.235 39.1379 42.4196 37.0813 43.1129 35.1559C43.8055 33.2306 45.7443 32.1652 47.4416 32.7759C49.1403 33.3866 49.955 35.4433 49.2624 37.3686Z" fill="#E0956C"/>
<path d="M3.673 17.693C2.19881 34.0087 14.0587 44.5737 27.5163 44.3125C40.974 44.0505 51.8271 31.9746 50.1552 16.1475C49.2268 7.35956 40.1056 -0.323456 27.2509 0.0104966C13.7954 0.360687 4.72075 6.08941 3.673 17.693Z" fill="#5B190D"/>
<path d="M46.5338 15.404C43.6115 7.28541 36.5696 7.16962 27.3495 7.16962C18.1295 7.16962 11.0876 7.28541 8.16529 15.404C7.28417 17.8526 8.04315 38.0478 10.5658 42.5749C12.6987 46.4002 20.8901 50.1598 26.6019 50.1598C26.8398 50.1598 27.8586 50.1598 28.0972 50.1598C33.809 50.1598 42.0004 46.4002 44.1333 42.5749C46.6566 38.0471 47.4149 17.8526 46.5338 15.404Z" fill="#FFC19F"/>
<path d="M10.8044 37.0989C10.7486 38.0429 12.0152 38.8859 13.6334 38.9819C15.2517 39.078 16.6086 38.3903 16.6651 37.4463C16.7209 36.5024 15.4543 35.6594 13.8361 35.5633C12.2179 35.4673 10.8602 36.155 10.8044 37.0989Z" fill="#FF9797"/>
<path d="M37.7733 37.5276C37.8496 38.4702 39.2214 39.1282 40.8375 38.9976C42.4529 38.8669 43.7012 37.9964 43.6249 37.0539C43.5487 36.1113 42.1768 35.4533 40.5607 35.5839C38.9453 35.7145 37.6971 36.5851 37.7733 37.5276Z" fill="#FF9797"/>
<path d="M32.5612 31.3872C34.6271 28.9217 38.2208 28.0519 40.9969 28.7798C41.3598 28.8751 41.573 29.2168 41.4671 29.5536C41.4113 29.7344 41.2758 29.8749 41.1063 29.9518C40.9602 30.0189 40.79 30.0274 40.6177 29.9963C38.3436 29.5812 36.5581 29.8946 35.0253 30.9417C36.6131 30.9487 38.4968 31.2919 39.7832 32.2069C40.0805 32.4187 40.0416 32.8522 39.7684 33.0986C39.6223 33.2306 39.4288 33.292 39.2424 33.2815C39.08 33.273 38.9551 33.1671 38.7976 33.0972C36.6477 32.1377 34.7761 31.988 33.3061 32.3749C33.3061 32.3749 32.8881 32.5274 32.5831 32.2782C32.127 31.9068 32.5429 31.4084 32.5612 31.3872Z" fill="#72221A"/>
<path d="M22.3128 31.4585C20.2879 28.9592 16.709 28.0308 13.9216 28.7128C13.5573 28.8018 13.3384 29.1399 13.4386 29.4781C13.4916 29.6596 13.625 29.8022 13.7931 29.8827C13.9385 29.9519 14.108 29.9639 14.281 29.9356C16.5614 29.5579 18.342 29.901 19.8572 30.9728C18.2693 30.9537 16.38 31.2651 15.0795 32.1596C14.7787 32.3665 14.8105 32.8007 15.0795 33.0513C15.2235 33.1855 15.4155 33.2497 15.6026 33.2434C15.765 33.2377 15.8921 33.134 16.0503 33.0662C18.2156 32.142 20.0895 32.0227 21.5524 32.4343C21.5524 32.4343 21.9682 32.5931 22.2767 32.3496C22.7378 31.9859 22.3304 31.4811 22.3128 31.4585Z" fill="#72221A"/>
<path d="M29.0181 42.5022C28.9263 42.5022 28.8373 42.4626 28.778 42.3927L27.3949 40.7943L25.9927 42.3553C25.9306 42.4245 25.8219 42.457 25.7569 42.4619C25.6701 42.4619 25.586 42.4273 25.5267 42.3631L24.1246 40.8811L23.0415 42.0086C22.9222 42.135 22.7217 42.14 22.5932 42.0157C22.4668 41.8943 22.464 41.6938 22.5854 41.5674L23.8986 40.2019C23.958 40.1398 24.0413 40.1052 24.1281 40.1052C24.2121 40.1052 24.2976 40.1426 24.3576 40.2047L25.7506 41.6768L27.1655 40.1031C27.2248 40.0339 27.3116 39.9965 27.4013 39.9965C27.493 39.9965 27.582 40.036 27.6413 40.1059L29.0237 41.7072L30.4217 40.1532C30.481 40.0889 30.5657 40.0494 30.6546 40.0494C30.7415 40.0494 30.8283 40.0861 30.8876 40.1483L32.3251 41.6726C32.4465 41.8018 32.4388 42.0023 32.3124 42.1209C32.186 42.2395 31.9855 42.2395 31.8641 42.1082L30.6617 40.8345L29.2546 42.3984C29.1939 42.4647 29.107 42.5022 29.0181 42.5022Z" fill="#934341"/>
<path d="M25.6184 36.0081C25.7229 36.006 25.8133 35.929 25.8295 35.8224C25.9396 35.0641 26.5278 34.5643 27.327 34.5487C28.1304 34.5332 28.7511 35.0189 28.8718 35.7582C28.8916 35.8761 29.0038 35.9573 29.1217 35.9375C29.2403 35.9184 29.3201 35.8069 29.3011 35.6883C29.1464 34.7415 28.3317 34.0947 27.3185 34.1145C26.311 34.1343 25.54 34.7951 25.3988 35.7596C25.3819 35.8789 25.4638 35.989 25.5824 36.0067L25.6184 36.0081Z" fill="#C4735B"/>
<path d="M0 25.8117C2.79588 24.8211 4.53976 23.0151 4.69932 18.4584C3.08604 18.1124 2.31788 17.6408 0.761792 17.124C6.80541 15.5954 5.91652 6.96561 13.8071 3.3578C26.7416 -1.53499 38.5351 2.06153 41.9332 4.03841C48.1943 7.68082 48.966 12.5891 49.4172 18.0919C50.282 23.0758 51.3933 24.5514 53.9993 25.686C51.1963 26.4972 49.5386 25.77 48.589 24.8013C48.8672 27.9382 50.3251 28.9316 51.937 30.3218C47.5624 30.5442 45.1266 26.8905 44.3387 23.7345C43.4639 20.2291 44.8308 16.3664 44.278 14.9932C43.9581 14.1982 41.0775 9.60899 39.8695 9.57368C37.2367 9.49743 34.3455 18.6462 25.0252 18.4979C28.787 16.4723 30.8394 13.6065 32.9109 9.52144C32.1801 9.95706 31.4473 10.4866 30.7208 11.1298C23.0723 17.9055 14.893 18.8777 8.31914 18.3115C9.40572 23.6526 11.0006 29.25 2.6942 31.8023C3.44824 30.8704 4.54824 28.0688 4.70922 25.8554C3.81962 26.404 2.1894 26.8877 0 25.8117Z" fill="#5B190D"/>
<path d="M33.9932 20.5305C33.8082 20.4995 33.6126 20.5432 33.4552 20.6703C33.1608 20.9047 33.1134 21.3326 33.3478 21.627C35.0543 23.7634 38.5809 24.8747 41.732 24.2732C42.1019 24.2019 42.3441 23.8446 42.2728 23.4761C42.2015 23.1054 41.8435 22.8633 41.4757 22.9346C38.8344 23.4429 35.7978 22.5152 34.4125 20.7776C34.3031 20.6414 34.1527 20.5574 33.9932 20.5305Z" fill="#4C0B00"/>
<path d="M20.4298 20.5305C20.614 20.4995 20.8103 20.5432 20.9678 20.6703C21.2622 20.9047 21.3102 21.3326 21.0751 21.627C19.3686 23.7634 15.842 24.8747 12.691 24.2732C12.321 24.2019 12.0788 23.8446 12.1494 23.4761C12.2207 23.1054 12.5787 22.8633 12.9473 22.9346C15.5885 23.4429 18.6252 22.5152 20.0104 20.7776C20.1191 20.6414 20.2695 20.5574 20.4298 20.5305Z" fill="#4C0B00"/>
</svg>
