<svg width="54" height="63" viewBox="0 0 54 63" fill="none" xmlns="http://www.w3.org/2000/svg">
<path d="M27.2273 62.2258C33.0047 62.2258 38.3134 61.1978 42.5813 57.787C41.9374 56.4053 41.2547 55.2721 40.5388 54.5993C36.609 50.9039 17.6782 51.5944 14.6021 54.8217C13.704 55.7642 12.9344 56.8819 12.2249 58.0638C16.4321 61.3066 21.608 62.2258 27.2273 62.2258Z" fill="#299DE5"/>
<path d="M34.1534 53.6625C34.1443 53.212 33.9628 52.7997 33.715 52.4064C29.8813 51.9482 25.2582 52.0322 21.4604 52.5618C21.1272 53.044 20.8977 53.5551 20.9083 54.1016C20.9507 56.2832 23.9492 57.9537 27.6071 57.8323C31.2651 57.7108 34.1958 55.8441 34.1534 53.6625Z" fill="#FFC19F"/>
<path d="M32.0535 47.2163L32.1757 54.1912C32.2018 55.6908 30.1705 56.9426 27.6387 56.9871C25.1069 57.0315 23.0333 55.8511 23.0072 54.3515L22.885 47.3766L32.0535 47.2163Z" fill="#FFC19F"/>
<path opacity="0.2" d="M32.1113 50.5114L32.0534 47.217L22.8856 47.3773L22.9583 51.5457C24.1911 51.7865 25.5276 51.91 26.9862 51.8641C28.9363 51.802 30.5905 51.2922 32.1113 50.5114Z" fill="#420000"/>
<path d="M6.81181 27.0118C10.3264 26.5797 13.6278 30.0068 14.1828 34.6412C14.7363 39.2755 14.0084 43.2053 10.4923 43.6261C6.9763 44.0469 2.35041 40.9672 1.16781 36.1492C0.0572206 31.6201 2.00798 27.6027 6.81181 27.0118Z" fill="#FFC19F"/>
<path d="M5.54457 37.9652C6.23789 39.8905 8.17593 40.9559 9.87464 40.3452C11.5719 39.7338 12.3874 37.6778 11.6941 35.7525C11.0008 33.8271 9.06271 32.7617 7.36541 33.3724C5.6667 33.9825 4.85196 36.0391 5.54457 37.9652Z" fill="#E0956C"/>
<path d="M47.9943 27.0118C44.4797 26.5797 41.1783 30.0068 40.6234 34.6412C40.0698 39.2755 40.7978 43.2053 44.3138 43.6261C47.8298 44.0469 52.4557 40.9672 53.6383 36.1492C54.7496 31.6201 52.7989 27.6027 47.9943 27.0118Z" fill="#FFC19F"/>
<path d="M49.2626 37.9652C48.5693 39.8905 46.6312 40.9559 44.9325 40.3452C43.2352 39.7338 42.4205 37.6778 43.1131 35.7525C43.8057 33.8271 45.7444 32.7617 47.4417 33.3724C49.1397 33.9825 49.9545 36.0391 49.2626 37.9652Z" fill="#E0956C"/>
<path d="M3.67214 18.2888C2.19795 34.6038 14.0585 45.1695 27.5155 44.9076C40.9731 44.6456 51.8262 32.5697 50.1543 16.7426C49.2259 7.95465 40.1054 0.271637 27.25 0.605589C13.7945 0.956486 4.7206 6.68592 3.67214 18.2888Z" fill="#5B190D"/>
<path d="M46.533 15.9999C43.6108 7.88123 36.5688 7.76544 27.3488 7.76544C18.1287 7.76544 11.0868 7.88123 8.16455 15.9999C7.28342 18.4491 8.0417 38.6437 10.565 43.1707C12.6973 46.996 20.8886 50.7563 26.6011 50.7563C26.8391 50.7563 27.8586 50.7563 28.0965 50.7563C33.809 50.7563 41.9996 46.996 44.1325 43.1707C46.6559 38.6437 47.4142 18.4491 46.533 15.9999Z" fill="#FFC19F"/>
<path d="M10.8038 37.6948C10.748 38.6387 12.0146 39.4817 13.6328 39.5778C15.251 39.6731 16.608 38.9861 16.6645 38.0421C16.7203 37.0982 15.4537 36.2552 13.8355 36.1592C12.2172 36.0638 10.8603 36.7508 10.8038 37.6948Z" fill="#FF9797"/>
<path d="M37.7734 38.1233C37.8496 39.0659 39.2215 39.7239 40.8376 39.5933C42.453 39.4627 43.7012 38.5921 43.625 37.6496C43.5487 36.707 42.1762 36.049 40.5608 36.1796C38.9447 36.3109 37.6964 37.1808 37.7734 38.1233Z" fill="#FF9797"/>
<path d="M29.8353 44.1578C29.8353 44.544 28.8038 44.3703 27.5308 44.3703C26.2585 44.3703 25.2263 44.544 25.2263 44.1578C25.2263 43.7716 26.2578 43.2251 27.5308 43.2251C28.8038 43.2251 29.8353 43.7716 29.8353 44.1578Z" fill="#750701"/>
<path d="M25.6178 36.1118C25.7223 36.1097 25.8126 36.0328 25.8289 35.9262C25.939 35.1679 26.5272 34.668 27.3264 34.6525C28.1298 34.637 28.7504 35.1227 28.8712 35.8619C28.8909 35.9798 29.0032 36.061 29.1211 36.0412C29.2397 36.0222 29.3195 35.9106 29.3004 35.792C29.1458 34.8452 28.3311 34.1985 27.3179 34.2183C26.3104 34.238 25.5394 34.8989 25.3982 35.8633C25.3813 35.9819 25.4632 36.0928 25.5818 36.1097L25.6178 36.1118Z" fill="#C4735B"/>
<path d="M0 26.4075C2.79588 25.4169 4.53976 23.6109 4.69932 19.0542C3.08604 18.7082 2.31861 18.2366 0.761809 17.7191C6.80543 16.1905 5.91652 7.5607 13.8071 3.95289C26.7416 -0.9399 38.5351 2.65662 41.9332 4.6335C48.1943 8.27591 48.966 13.1849 49.4172 18.687C50.282 23.6716 51.3933 25.1472 53.9993 26.2811C51.1963 27.093 49.5386 26.3651 48.589 25.3964C48.8672 28.5333 50.3251 29.5274 51.937 30.9169C47.5624 31.1393 45.1266 27.4856 44.3394 24.3296C43.4646 20.8242 44.8308 16.9615 44.2787 15.5883C43.9588 14.7933 41.0782 10.2041 39.8702 10.1695C37.2374 10.0932 34.3462 19.242 25.0259 19.093C28.7877 17.0681 30.8408 14.2016 32.9116 10.1165C32.1808 10.5522 31.448 11.0817 30.7215 11.7249C23.0731 18.4999 14.8937 19.4728 8.31985 18.9066C9.40643 24.2477 11.0014 29.8451 2.69491 32.3974C3.44895 31.4655 4.54895 28.6639 4.70992 26.4505C3.81962 27.0005 2.1894 27.4835 0 26.4075Z" fill="#5B190D"/>
<path d="M12.6118 22.6472C12.4247 22.6493 12.2376 22.5744 12.102 22.4255C11.8485 22.148 11.8676 21.7173 12.1458 21.4639C14.1657 19.6211 17.8223 19.0754 20.8405 20.1627C21.195 20.2911 21.3778 20.6816 21.25 21.0346C21.1215 21.3897 20.7304 21.5726 20.3781 21.4441C17.8491 20.5291 14.7044 20.9696 13.0643 22.4692C12.9358 22.5864 12.7741 22.6458 12.6118 22.6472Z" fill="#4C0B00"/>
<path d="M42.0148 22.6472C42.2019 22.6493 42.389 22.5744 42.5246 22.4255C42.778 22.148 42.7583 21.7173 42.4808 21.4639C40.4608 19.6211 36.8036 19.0754 33.786 20.1627C33.4316 20.2911 33.2488 20.6816 33.3765 21.0346C33.505 21.3897 33.8962 21.5726 34.2492 21.4441C36.7782 20.5291 39.9229 20.9696 41.563 22.4692C41.6908 22.5864 41.8524 22.6458 42.0148 22.6472Z" fill="#4C0B00"/>
<path d="M32.2519 34.6305C32.2519 34.6305 38.7424 36.7006 41.2135 33.282C44.2247 29.1164 39.6108 25.8292 36.6208 26.4731C33.8539 27.0683 31.3411 29.468 32.2519 34.6305Z" fill="#F9FEFF"/>
<path d="M41.6991 27.967C40.496 26.4547 38.8792 25.9795 37.1254 26.1553C35.3328 26.3354 33.5176 27.6076 33.005 28.9194C33.968 27.4417 35.63 26.9002 36.6643 26.6778C38.3115 26.3212 40.4727 27.0604 41.4449 28.5495C42.3098 29.874 42.237 31.8614 41.1314 33.39C42.4383 32.3507 42.953 29.5428 41.6991 27.967Z" fill="#773220"/>
<path d="M33.7275 30.2686C33.1323 31.7654 33.863 33.4613 35.3598 34.0565C36.8566 34.6516 38.5525 33.9209 39.1477 32.4241C39.7428 30.9273 39.0121 29.2315 37.5153 28.6363C36.0185 28.0411 34.3227 28.7718 33.7275 30.2686Z" fill="#63190D"/>
<path d="M33.9633 29.8048C33.7981 30.22 34.0015 30.6909 34.4166 30.8561C34.8317 31.0213 35.3027 30.8187 35.4679 30.4028C35.6331 29.9877 35.4305 29.5167 35.0146 29.3515C34.5988 29.187 34.1285 29.3897 33.9633 29.8048Z" fill="#FEFFFE"/>
<path d="M22.4493 34.6616C22.4493 34.6616 15.9602 36.7366 13.4869 33.3194C10.4729 29.156 15.084 25.8652 18.0754 26.5069C20.8424 27.1007 23.3565 29.4984 22.4493 34.6616Z" fill="#F9FEFF"/>
<path d="M12.9972 28.0051C14.1996 26.4921 15.8157 26.0155 17.5694 26.1899C19.362 26.3686 21.1787 27.6394 21.692 28.9512C20.7275 27.4742 19.0655 26.9341 18.0305 26.7124C16.3826 26.3573 14.2229 27.0979 13.2514 28.5876C12.3879 29.9128 12.462 31.8996 13.5684 33.4274C12.2615 32.3889 11.7447 29.5817 12.9972 28.0051Z" fill="#773220"/>
<path d="M15.6929 30.3364C15.0977 31.8332 15.8285 33.5291 17.3253 34.1243C18.822 34.7195 20.5179 33.9887 21.1138 32.492C21.709 30.9952 20.9783 29.2993 19.4815 28.7041C17.984 28.1082 16.2881 28.839 15.6929 30.3364Z" fill="#63190D"/>
<path d="M15.9285 29.8726C15.7633 30.2878 15.9659 30.7587 16.3818 30.9239C16.7969 31.0891 17.2679 30.8858 17.4331 30.4706C17.5983 30.0555 17.3949 29.5846 16.9798 29.4194C16.5639 29.2541 16.0937 29.4568 15.9285 29.8726Z" fill="#FEFFFE"/>
</svg>
