<svg width="54" height="62" viewBox="0 0 54 62" fill="none" xmlns="http://www.w3.org/2000/svg">
<path d="M27.2275 61.9272C33.005 61.9272 38.3136 60.8992 42.5816 57.4876C41.9377 56.1059 41.2549 54.9735 40.539 54.2999C36.6093 50.6045 17.6785 51.2943 14.6023 54.5216C13.7042 55.4642 12.9347 56.5825 12.2251 57.7644C16.4323 61.0086 21.6075 61.9272 27.2275 61.9272Z" fill="#299DE5"/>
<path d="M34.1537 53.3637C34.1445 52.9132 33.9631 52.5009 33.7152 52.1077C29.8815 51.6495 25.2584 51.7335 21.4607 52.263C21.1274 52.7452 20.898 53.2564 20.9086 53.8028C20.9509 55.9845 23.9501 57.6549 27.6074 57.5335C31.2653 57.4128 34.1953 55.5453 34.1537 53.3637Z" fill="#FFC19F"/>
<path d="M32.0535 46.9185L32.1757 53.8933C32.2018 55.3929 30.1705 56.6447 27.6387 56.6892C25.1069 56.7337 23.0333 55.5532 23.0072 54.0536L22.885 47.0787L32.0535 46.9185Z" fill="#FFC19F"/>
<path opacity="0.2" d="M32.1116 50.2128L32.0537 46.9185L22.8859 47.0787L22.9586 51.2478C24.1913 51.4879 25.5278 51.6121 26.9865 51.5655C28.9365 51.5034 30.5908 50.9937 32.1116 50.2128Z" fill="#420000"/>
<path d="M6.81181 26.7132C10.3264 26.2811 13.6278 29.7082 14.1828 34.3426C14.7363 38.977 14.0084 42.9067 10.4923 43.3275C6.97631 43.7483 2.35041 40.6686 1.16781 35.8507C0.0572202 31.3215 2.00798 27.3049 6.81181 26.7132Z" fill="#FFC19F"/>
<path d="M5.54457 37.6666C6.23789 39.5919 8.17594 40.6573 9.87465 40.0466C11.5719 39.4359 12.3874 37.3792 11.6941 35.4539C11.0008 33.5285 9.06272 32.4631 7.36542 33.0739C5.66671 33.6846 4.85195 35.7412 5.54457 37.6666Z" fill="#E0956C"/>
<path d="M47.9945 26.7132C44.4798 26.2811 41.1784 29.7082 40.6235 34.3426C40.07 38.977 40.7979 42.9067 44.3139 43.3275C47.8299 43.7483 52.4559 40.6686 53.6385 35.8507C54.749 31.3215 52.7983 27.3049 47.9945 26.7132Z" fill="#FFC19F"/>
<path d="M49.262 37.6665C48.5687 39.5919 46.63 40.6573 44.932 40.0466C43.2347 39.4358 42.4192 37.3792 43.1125 35.4538C43.8058 33.5285 45.7439 32.4631 47.4412 33.0738C49.1399 33.6845 49.9546 35.7412 49.262 37.6665Z" fill="#E0956C"/>
<path d="M3.67214 17.9902C2.19795 34.3058 14.0585 44.8709 27.5155 44.6096C40.9731 44.3477 51.8262 32.2718 50.1543 16.4447C49.2259 7.65675 40.1054 -0.0262755 27.25 0.307677C13.7945 0.657868 4.7206 6.3873 3.67214 17.9902Z" fill="#5B190D"/>
<path d="M46.533 15.7019C43.6108 7.58328 36.5688 7.4668 27.3488 7.4668C18.1287 7.4668 11.0868 7.58258 8.16455 15.7019C7.28342 18.1504 8.0417 38.3457 10.5651 42.8728C12.6973 46.6981 20.8886 50.4584 26.6011 50.4584C26.839 50.4584 27.8578 50.4584 28.0958 50.4584C33.8083 50.4584 41.9989 46.6988 44.1318 42.8728C46.6559 38.345 47.4142 18.1504 46.533 15.7019Z" fill="#FFC19F"/>
<path d="M10.8044 37.3969C10.7486 38.3408 12.0145 39.1838 13.6334 39.2798C15.2517 39.3759 16.6087 38.6882 16.6651 37.7442C16.7209 36.8003 15.4536 35.9573 13.8361 35.8612C12.2171 35.7652 10.8602 36.4529 10.8044 37.3969Z" fill="#FF9797"/>
<path d="M37.7727 37.8254C37.849 38.7679 39.2208 39.426 40.8369 39.2953C42.4523 39.1647 43.7006 38.2942 43.6243 37.3517C43.5481 36.4091 42.1755 35.7511 40.5608 35.8817C38.9447 36.0123 37.6965 36.8828 37.7727 37.8254Z" fill="#FF9797"/>
<path d="M33.8496 43.684C33.7691 41.3125 31.0509 39.0574 27.9041 39.164C24.7573 39.2706 22.3971 41.2779 22.3519 43.6509C22.3024 46.2272 24.561 45.022 27.7135 45.0728C30.8617 45.1236 33.9301 46.0556 33.8496 43.684Z" fill="#5B0000"/>
<path d="M24.2737 40.305C25.1047 40.6686 26.6163 40.8373 28.4604 40.7752C29.8972 40.7265 30.9308 40.5959 31.8091 40.3099C30.8228 39.5799 29.5068 39.0391 27.902 39.0934C26.4659 39.1421 25.2579 39.5636 24.2737 40.305Z" fill="white"/>
<path d="M27.7136 45.0735C30.6443 45.101 31.8918 45.6644 32.8951 45.1377C32.0542 44.1161 30.3908 43.254 27.9628 43.2957C25.3385 43.3402 23.7548 44.1253 23.0516 45.1688C23.9215 45.6023 25.5114 45.0523 27.7136 45.0735Z" fill="#D36553"/>
<path d="M20.6076 19.2929C20.7855 19.2314 20.9881 19.2427 21.166 19.3416C21.4986 19.5259 21.6172 19.9452 21.4322 20.2757C20.0907 22.6882 16.7639 24.3812 13.531 24.3071C13.1505 24.2972 12.8504 23.983 12.8596 23.6039C12.8702 23.2233 13.1886 22.9226 13.5628 22.9324C16.2746 22.9967 19.1397 21.5663 20.2312 19.6085C20.3167 19.4545 20.4536 19.3458 20.6076 19.2929Z" fill="#4C0B00"/>
<path d="M34.1985 19.2929C34.0206 19.2314 33.818 19.2427 33.64 19.3416C33.3075 19.5259 33.1889 19.9452 33.3739 20.2757C34.7153 22.6882 38.0421 24.3812 41.2751 24.3071C41.6556 24.2972 41.9557 23.983 41.9465 23.6039C41.9359 23.2233 41.6175 22.9226 41.2433 22.9324C38.5314 22.9967 35.6664 21.5663 34.5748 19.6085C34.4894 19.4545 34.3524 19.3458 34.1985 19.2929Z" fill="#4C0B00"/>
<path d="M25.6178 35.8133C25.7223 35.8112 25.8127 35.7342 25.8289 35.6276C25.939 34.87 26.5272 34.3701 27.3264 34.3539C28.1298 34.3384 28.7504 34.8241 28.8712 35.5633C28.8909 35.6812 29.0032 35.7624 29.1211 35.7427C29.2397 35.7236 29.3195 35.612 29.3004 35.4934C29.1458 34.5466 28.3311 33.8999 27.3179 33.9197C26.3111 33.9395 25.5394 34.6003 25.3982 35.5647C25.3813 35.6841 25.4632 35.7942 25.5825 35.8111L25.6178 35.8133Z" fill="#C4735B"/>
<path d="M0 26.1089C2.79588 25.1183 4.53977 23.3123 4.69934 18.7549C3.08606 18.4096 2.3186 17.9373 0.761807 17.4205C6.80542 15.8919 5.91653 7.26212 13.8071 3.65431C26.7416 -1.23848 38.5351 2.35803 41.9332 4.33491C48.1943 7.97732 48.966 12.8856 49.4179 18.3884C50.2827 23.3723 51.394 24.8479 54 25.9825C51.1978 26.7937 49.5393 26.0665 48.5897 25.0978C48.8679 28.2347 50.3258 29.2281 51.9377 30.6176C47.5631 30.84 45.1273 27.1863 44.3394 24.0303C43.4646 20.5249 44.8308 16.6622 44.2787 15.289C43.9596 14.4947 41.0782 9.90479 39.8702 9.8702C37.2374 9.79395 34.3462 18.9427 25.0259 18.7944C28.7877 16.7688 30.8408 13.903 32.9116 9.81793C32.1809 10.2536 31.448 10.7831 30.7215 11.4263C23.0731 18.202 14.8937 19.1742 8.31986 18.608C9.40644 23.9491 11.0014 29.5465 2.69492 32.0988C3.44896 31.1669 4.54895 28.3653 4.70993 26.1519C3.81892 26.7019 2.1894 27.1849 0 26.1089Z" fill="#5B190D"/>
<path d="M32.2513 34.3328C32.2513 34.3328 38.7418 36.4028 41.2129 32.9842C44.2241 28.8187 39.6102 25.5314 36.6202 26.1753C33.8532 26.7705 31.3405 29.1703 32.2513 34.3328Z" fill="#F9FEFF"/>
<path d="M41.6986 27.6693C40.4955 26.1569 38.8787 25.6818 37.1249 25.8576C35.3323 26.0376 33.5171 27.3099 33.0045 28.6217C33.9675 27.144 35.6295 26.6024 36.6639 26.38C38.311 26.0235 40.4722 26.7627 41.4444 28.2517C42.3093 29.5762 42.2366 31.5637 41.1309 33.0923C42.4378 32.0523 42.9525 29.2444 41.6986 27.6693Z" fill="#773220"/>
<path d="M33.7269 29.9709C33.1317 31.4677 33.8624 33.1636 35.3592 33.7588C36.856 34.3539 38.5519 33.6232 39.147 32.1264C39.7422 30.6296 39.0115 28.9337 37.514 28.3386C36.0179 27.7427 34.3213 28.4734 33.7269 29.9709Z" fill="#63190D"/>
<path d="M33.9619 29.5071C33.7967 29.9222 34 30.3931 34.4151 30.5583C34.8303 30.7236 35.3012 30.5202 35.4664 30.1051C35.6316 29.6899 35.429 29.2197 35.0131 29.0545C34.598 28.8886 34.1271 29.0912 33.9619 29.5071Z" fill="#FEFFFE"/>
<path d="M22.4495 34.3637C22.4495 34.3637 15.9604 36.4387 13.4865 33.0215C10.4724 28.8581 15.0835 25.568 18.0749 26.2091C20.8426 26.8021 23.3561 29.2005 22.4495 34.3637Z" fill="#F9FEFF"/>
<path d="M12.9972 27.7066C14.1996 26.1935 15.8157 25.717 17.5695 25.8921C19.3621 26.0707 21.1787 27.3415 21.692 28.6533C20.7275 27.1763 19.0656 26.6362 18.0305 26.4145C16.3826 26.0594 14.2229 26.8 13.2507 28.289C12.3872 29.6143 12.4613 31.601 13.5677 33.1296C12.2615 32.091 11.7447 29.2831 12.9972 27.7066Z" fill="#773220"/>
<path d="M15.6927 30.0379C15.0975 31.5347 15.8282 33.2306 17.325 33.8265C18.8218 34.4216 20.5177 33.6909 21.1129 32.1941C21.708 30.6973 20.9773 29.0014 19.4805 28.4063C17.9837 27.8104 16.2872 28.5411 15.6927 30.0379Z" fill="#63190D"/>
<path d="M15.9279 29.574C15.7627 29.9891 15.9653 30.4593 16.3812 30.6246C16.7963 30.7898 17.2672 30.5871 17.4325 30.1713C17.5977 29.7561 17.3943 29.2852 16.9799 29.12C16.564 28.9562 16.0931 29.1588 15.9279 29.574Z" fill="#FEFFFE"/>
</svg>
