<svg width="54" height="63" viewBox="0 0 54 63" fill="none" xmlns="http://www.w3.org/2000/svg">
<path d="M27.2273 62.523C33.0047 62.523 38.3134 61.4951 42.5813 58.0842C41.9374 56.7018 41.2547 55.5694 40.5388 54.8958C36.609 51.2004 17.6782 51.8909 14.6021 55.1175C13.704 56.06 12.9344 57.1784 12.2249 58.3603C16.4321 61.6045 21.608 62.523 27.2273 62.523Z" fill="#299DE5"/>
<path d="M34.1534 53.9596C34.1443 53.5092 33.9628 53.0968 33.715 52.7036C29.8812 52.2454 25.2582 52.3294 21.4604 52.8589C21.1272 53.3411 20.8977 53.8523 20.9083 54.3988C20.9507 56.5804 23.9499 58.2508 27.6071 58.1294C31.2651 58.0087 34.1958 56.1412 34.1534 53.9596Z" fill="#FFC19F"/>
<path d="M32.054 47.5143L32.1762 54.4892C32.2023 55.9888 30.171 57.2406 27.6399 57.2851C25.1081 57.3295 23.0345 56.1491 23.0084 54.6495L22.8862 47.6746L32.054 47.5143Z" fill="#FFC19F"/>
<path opacity="0.2" d="M32.1119 50.8086L32.054 47.5143L22.8862 47.6746L22.9589 51.8437C24.1917 52.0844 25.5282 52.208 26.9869 52.1614C28.9376 52.1 30.5918 51.5895 32.1119 50.8086Z" fill="#420000"/>
<path d="M6.81181 27.309C10.3264 26.877 13.6278 30.304 14.1828 34.9384C14.7363 39.5728 14.0084 43.5025 10.4923 43.9233C6.97631 44.3441 2.35041 41.2644 1.16781 36.4465C0.0572202 31.918 2.00798 27.9007 6.81181 27.309Z" fill="#FFC19F"/>
<path d="M5.54464 38.2624C6.23796 40.1877 8.17601 41.2531 9.87472 40.6424C11.572 40.0317 12.3875 37.975 11.6942 36.0497C11.0008 34.1236 9.06279 33.0589 7.36549 33.6697C5.66678 34.2804 4.85273 36.337 5.54464 38.2624Z" fill="#E0956C"/>
<path d="M47.9951 27.309C44.4804 26.877 41.179 30.304 40.6241 34.9384C40.0706 39.5728 40.7985 43.5025 44.3145 43.9233C47.8306 44.3441 52.4565 41.2644 53.6391 36.4465C54.7496 31.918 52.7989 27.9007 47.9951 27.309Z" fill="#FFC19F"/>
<path d="M49.2626 38.2624C48.5693 40.1877 46.6313 41.2531 44.9326 40.6424C43.2353 40.0317 42.4198 37.975 43.1131 36.0497C43.8057 34.1236 45.7445 33.0589 47.4418 33.6697C49.1405 34.2804 49.9546 36.337 49.2626 38.2624Z" fill="#E0956C"/>
<path d="M3.67214 18.5867C2.19795 34.9024 14.0586 45.4674 27.5155 45.2062C40.9731 44.9443 51.8262 32.8683 50.1543 17.0412C49.2259 8.25327 40.1054 0.570252 27.25 0.904204C13.7952 1.25369 4.7206 6.98314 3.67214 18.5867Z" fill="#5B190D"/>
<path d="M46.7152 16.3077C43.7929 8.18904 36.751 8.07324 27.5309 8.07324C18.3109 8.07324 11.2689 8.18904 8.34668 16.3077C7.46555 18.7562 8.22383 38.9515 10.7472 43.4785C12.8794 47.3038 21.0708 51.0641 26.7832 51.0641C27.0212 51.0641 28.04 51.0641 28.2779 51.0641C33.9904 51.0641 42.1818 47.3045 44.314 43.4785C46.838 38.9508 47.5963 18.7562 46.7152 16.3077Z" fill="#FFC19F"/>
<path d="M10.8044 36.9711C10.7486 37.915 12.0145 38.758 13.6334 38.8541C15.2517 38.9501 16.6087 38.2624 16.6651 37.3184C16.7209 36.3745 15.4543 35.5315 13.8361 35.4355C12.2179 35.3394 10.8602 36.0271 10.8044 36.9711Z" fill="#FF9797"/>
<path d="M37.7733 37.3996C37.8496 38.3422 39.2214 39.0002 40.8375 38.8696C42.4529 38.739 43.7012 37.8684 43.6249 36.9259C43.5487 35.9833 42.1761 35.3253 40.5607 35.4559C38.9453 35.5865 37.6971 36.4571 37.7733 37.3996Z" fill="#FF9797"/>
<path d="M28.1166 44.7877C28.6461 44.7601 29.026 44.453 29.2039 44.0626C29.4475 43.5309 29.3437 42.7854 28.7302 42.2608C29.3218 41.8188 29.6353 40.9215 29.3889 40.2119C29.2858 39.9154 28.8269 38.9968 27.1628 39.5899C27.0554 39.6273 27.1169 39.7805 27.0321 39.8638C26.5203 40.3651 26.0578 43.5592 27.1592 44.3372C27.256 44.4057 27.1705 44.5731 27.2757 44.6189C27.5871 44.751 27.8667 44.8011 28.1166 44.7877Z" fill="#FFC19F"/>
<path d="M28.1646 44.7854C28.7209 44.7565 29.1205 44.4487 29.309 44.0575C29.566 43.5252 29.4594 42.7803 28.8155 42.2564C29.4382 41.8123 29.7701 40.9143 29.5131 40.2061C29.4058 39.9103 28.9115 38.9932 27.162 39.5905C27.049 39.6286 26.9925 39.7514 27.0314 39.8644C27.0702 39.9774 27.1966 40.0402 27.3081 39.9993C28.2556 39.678 28.9094 39.8058 29.1064 40.3537C29.3048 40.8987 28.9828 41.782 28.3248 42.0361C28.2472 42.0665 28.1935 42.1385 28.1879 42.2218C28.1822 42.3052 28.2239 42.3849 28.2973 42.4259C29.0097 42.829 29.1198 43.4574 28.92 43.8704C28.7449 44.2361 28.2521 44.5468 27.4402 44.2192C27.3293 44.1726 27.2037 44.2277 27.1585 44.3385C27.1133 44.4487 27.1648 44.575 27.275 44.6202C27.6019 44.7501 27.9026 44.7988 28.1646 44.7854Z" fill="#C67F75"/>
<path d="M25.6178 36.5001C25.7223 36.498 25.8127 36.421 25.8289 36.3144C25.939 35.5569 26.5272 35.057 27.3264 35.0408C28.1298 35.0252 28.7504 35.511 28.8712 36.2502C28.8909 36.3688 29.0032 36.4493 29.1211 36.4295C29.2397 36.4098 29.3195 36.2982 29.3004 36.1796C29.1458 35.2328 28.3311 34.5861 27.3179 34.6058C26.3111 34.6256 25.5394 35.2865 25.3982 36.2509C25.3813 36.3702 25.4632 36.4804 25.5825 36.4973L25.6178 36.5001Z" fill="#C4735B"/>
<path d="M0 26.7054C2.79588 25.7149 4.53977 23.9088 4.69934 19.3521C3.08606 19.0061 2.3186 18.5345 0.761807 18.017C6.80542 16.4885 5.91653 7.85865 13.8071 4.25083C26.7416 -0.641954 38.5351 2.95456 41.9332 4.93144C48.1943 8.57385 48.966 13.4822 49.4172 18.985C50.282 23.9688 51.3933 25.4444 53.9993 26.579C51.1964 27.3903 49.5386 26.663 48.589 25.6944C48.8672 28.8313 50.3251 29.8246 51.937 31.2141C47.5624 31.4365 45.1266 27.7828 44.3394 24.6269C43.4646 21.1214 44.8308 17.2587 44.2787 15.8855C43.9588 15.0905 41.0782 10.5013 39.8702 10.466C37.2374 10.3898 34.3462 19.5385 25.0259 19.3902C28.7877 17.3646 30.8408 14.4989 32.9116 10.4138C32.1808 10.8494 31.448 11.3789 30.7215 12.0221C23.0731 18.7979 14.8937 19.7701 8.31986 19.2038C9.40644 24.545 11.0014 30.1424 2.69492 32.6947C3.44896 31.7627 4.54895 28.9612 4.70993 26.7478C3.81962 27.2978 2.1894 27.7807 0 26.7054Z" fill="#5B190D"/>
<path d="M12.6286 22.9451C12.4415 22.9472 12.2544 22.8724 12.1188 22.7234C11.8654 22.4452 11.8844 22.0152 12.1626 21.7611C14.1826 19.9183 17.8398 19.3726 20.8574 20.4599C21.2118 20.5884 21.3947 20.9788 21.2669 21.3325C21.1384 21.6876 20.7472 21.8705 20.3942 21.742C17.8652 20.827 14.7206 21.2676 13.0805 22.7672C12.9527 22.8844 12.791 22.943 12.6286 22.9451Z" fill="#4C0B00"/>
<path d="M42.0153 22.9451C42.2024 22.9472 42.3895 22.8724 42.5251 22.7234C42.7785 22.4452 42.7595 22.0152 42.4813 21.7611C40.4613 19.9183 36.8041 19.3726 33.7865 20.4599C33.4321 20.5884 33.2492 20.9788 33.377 21.3325C33.5055 21.6876 33.8967 21.8705 34.2497 21.742C36.7787 20.827 39.9233 21.2676 41.5635 22.7672C41.6912 22.8844 41.8529 22.943 42.0153 22.9451Z" fill="#4C0B00"/>
<path d="M32.1408 32.4914C33.0544 30.643 34.8442 29.5331 36.85 29.5536C37.8123 29.5578 38.7429 29.7809 39.5202 30.266C40.3152 30.7616 41.1674 31.6442 41.5267 32.2238C41.5783 32.3071 41.6496 32.3728 41.6955 32.4596C41.8889 32.8282 41.7611 33.285 41.4102 33.4777C41.3192 33.5285 41.2224 33.5554 41.1243 33.5624C40.8482 33.5815 40.5694 33.4318 40.4282 33.1593C39.756 31.8743 38.3948 31.0709 36.8747 31.0645C35.3525 31.0363 34.1049 31.839 33.4321 33.2052C33.2499 33.5723 32.8157 33.7093 32.4578 33.5144C32.1012 33.3167 31.96 32.8606 32.1408 32.4914Z" fill="#6B1A11"/>
<path d="M22.56 32.4914C21.6471 30.643 19.8566 29.5331 17.8508 29.5536C16.8885 29.5578 15.9579 29.7809 15.1806 30.266C14.3856 30.7616 13.5334 31.6442 13.174 32.2238C13.1225 32.3071 13.0512 32.3728 13.0053 32.4596C12.8118 32.8282 12.9396 33.285 13.2905 33.4777C13.3809 33.5285 13.4783 33.5554 13.5765 33.5624C13.8525 33.5815 14.1314 33.4318 14.2733 33.1593C14.9448 31.8743 16.3067 31.0709 17.8268 31.0645C19.349 31.0363 20.5965 31.839 21.2687 33.2052C21.4508 33.5723 21.8857 33.7093 22.243 33.5144C22.5988 33.3167 22.7407 32.8606 22.56 32.4914Z" fill="#6B1A11"/>
</svg>
