<svg xmlns="http://www.w3.org/2000/svg" width="29" height="28" viewBox="0 0 29 28" fill="none">
  <path d="M12.1668 24.2398C11.1513 24.0095 10.1761 23.6284 9.27344 23.1093M16.8334 3.76013C19.1529 4.28988 21.2239 5.59144 22.7072 7.45171C24.1905 9.31197 24.9983 11.6207 24.9983 14C24.9983 16.3792 24.1905 18.688 22.7072 20.5482C21.2239 22.4085 19.1529 23.71 16.8334 24.2398M5.84231 19.9418C5.2059 19.0172 4.72254 17.9961 4.41081 16.9178M4.14478 12.25C4.33144 11.1416 4.69078 10.0916 5.19478 9.12913L5.39194 8.77329M8.55823 5.34213C9.64982 4.59068 10.8744 4.0538 12.1667 3.76013M14.5001 9.33331V14L18.0001 17.5" stroke="#FEA623" stroke-width="2.33333" stroke-linecap="round" stroke-linejoin="round"/>
</svg>