<svg width="29" height="28" viewBox="0 0 29 28" fill="none" xmlns="http://www.w3.org/2000/svg">
<path d="M16.8597 22.1667C17.8689 22.1667 18.4021 23.3614 17.7289 24.1127C17.2916 24.6021 16.7558 24.9935 16.1567 25.2613C15.5575 25.5291 14.9085 25.6673 14.2522 25.6667C13.596 25.6673 12.947 25.5291 12.3478 25.2613C11.7487 24.9935 11.2129 24.6021 10.7756 24.1127C10.1316 23.394 10.5912 22.2705 11.5152 22.1749L11.6436 22.1679L16.8597 22.1667Z" fill="#D9DAE3"/>
<path d="M14.2522 2.33337C15.8366 2.33337 17.1759 3.38687 17.6064 4.83121L17.66 5.03071L17.6694 5.08087C18.9555 5.80643 20.0515 6.82633 20.8675 8.05704C21.6835 9.28775 22.1963 10.6943 22.364 12.1614L22.3967 12.4962L22.4189 12.8334V16.2529L22.4434 16.4115C22.6031 17.2712 23.0788 18.0399 23.7769 18.5664L23.9717 18.7029L24.1607 18.8184C25.164 19.3865 24.814 20.8787 23.7209 20.993L23.5855 21H4.91888C3.71955 21 3.30072 19.4087 4.34372 18.8184C4.78825 18.5668 5.17234 18.221 5.46901 17.8052C5.76569 17.3894 5.96776 16.9137 6.06105 16.4115L6.08555 16.2447L6.08672 12.7797C6.15785 11.2559 6.6014 9.77275 7.37855 8.46009C8.1557 7.14742 9.24274 6.04525 10.5445 5.25004L10.8339 5.07971L10.8456 5.02954C11.0106 4.3319 11.3857 3.70168 11.9202 3.22393C12.4546 2.74618 13.1228 2.4439 13.8346 2.35787L14.0469 2.33804L14.2522 2.33337Z" fill="#D9DAE3"/>
<path d="M16.8597 22.1667C17.8689 22.1667 18.4021 23.3614 17.7289 24.1127C17.2916 24.6021 16.7558 24.9935 16.1567 25.2613C15.5575 25.5291 14.9085 25.6673 14.2522 25.6667C13.596 25.6673 12.947 25.5291 12.3478 25.2613C11.7487 24.9935 11.2129 24.6021 10.7756 24.1127C10.1316 23.394 10.5912 22.2705 11.5152 22.1749L11.6436 22.1679L16.8597 22.1667Z" stroke="#D9DAE3"/>
<path d="M14.2522 2.33337C15.8366 2.33337 17.1759 3.38687 17.6064 4.83121L17.66 5.03071L17.6694 5.08087C18.9555 5.80643 20.0515 6.82633 20.8675 8.05704C21.6835 9.28775 22.1963 10.6943 22.364 12.1614L22.3967 12.4962L22.4189 12.8334V16.2529L22.4434 16.4115C22.6031 17.2712 23.0788 18.0399 23.7769 18.5664L23.9717 18.7029L24.1607 18.8184C25.164 19.3865 24.814 20.8787 23.7209 20.993L23.5855 21H4.91888C3.71955 21 3.30072 19.4087 4.34372 18.8184C4.78825 18.5668 5.17234 18.221 5.46901 17.8052C5.76569 17.3894 5.96776 16.9137 6.06105 16.4115L6.08555 16.2447L6.08672 12.7797C6.15785 11.2559 6.6014 9.77275 7.37855 8.46009C8.1557 7.14742 9.24274 6.04525 10.5445 5.25004L10.8339 5.07971L10.8456 5.02954C11.0106 4.3319 11.3857 3.70168 11.9202 3.22393C12.4546 2.74618 13.1228 2.4439 13.8346 2.35787L14.0469 2.33804L14.2522 2.33337Z" stroke="#D9DAE3"/>
</svg>
