<svg width="29" height="28" viewBox="0 0 29 28" fill="none" xmlns="http://www.w3.org/2000/svg">
<path d="M16.8597 22.1663C17.8689 22.1663 18.4021 23.361 17.7289 24.1123C17.2916 24.6017 16.7558 24.9931 16.1567 25.2609C15.5575 25.5287 14.9085 25.6669 14.2522 25.6663C13.596 25.6669 12.947 25.5287 12.3478 25.2609C11.7487 24.9931 11.2129 24.6017 10.7756 24.1123C10.1316 23.3937 10.5912 22.2702 11.5152 22.1745L11.6436 22.1675L16.8597 22.1663Z" fill="#FEA623"/>
<path d="M14.2522 2.33301C15.8366 2.33301 17.1759 3.38651 17.6064 4.83084L17.66 5.03034L17.6694 5.08051C18.9555 5.80606 20.0515 6.82596 20.8675 8.05667C21.6835 9.28739 22.1963 10.6939 22.364 12.161L22.3967 12.4958L22.4189 12.833V16.2525L22.4434 16.4112C22.6031 17.2708 23.0788 18.0395 23.7769 18.566L23.9717 18.7025L24.1607 18.818C25.164 19.3862 24.814 20.8783 23.7209 20.9927L23.5855 20.9997H4.91888C3.71955 20.9997 3.30072 19.4083 4.34372 18.818C4.78825 18.5664 5.17234 18.2206 5.46901 17.8048C5.76569 17.389 5.96776 16.9134 6.06105 16.4112L6.08555 16.2443L6.08672 12.7793C6.15785 11.2555 6.6014 9.77239 7.37855 8.45972C8.1557 7.14705 9.24274 6.04488 10.5445 5.24967L10.8339 5.07934L10.8456 5.02917C11.0106 4.33154 11.3857 3.70132 11.9202 3.22357C12.4546 2.74582 13.1228 2.44353 13.8346 2.35751L14.0469 2.33767L14.2522 2.33301Z" fill="#FEA623"/>
<path d="M16.8597 22.1663C17.8689 22.1663 18.4021 23.361 17.7289 24.1123C17.2916 24.6017 16.7558 24.9931 16.1567 25.2609C15.5575 25.5287 14.9085 25.6669 14.2522 25.6663C13.596 25.6669 12.947 25.5287 12.3478 25.2609C11.7487 24.9931 11.2129 24.6017 10.7756 24.1123C10.1316 23.3937 10.5912 22.2702 11.5152 22.1745L11.6436 22.1675L16.8597 22.1663Z" stroke="#FEA623"/>
<path d="M14.2522 2.33301C15.8366 2.33301 17.1759 3.38651 17.6064 4.83084L17.66 5.03034L17.6694 5.08051C18.9555 5.80606 20.0515 6.82596 20.8675 8.05667C21.6835 9.28739 22.1963 10.6939 22.364 12.161L22.3967 12.4958L22.4189 12.833V16.2525L22.4434 16.4112C22.6031 17.2708 23.0788 18.0395 23.7769 18.566L23.9717 18.7025L24.1607 18.818C25.164 19.3862 24.814 20.8783 23.7209 20.9927L23.5855 20.9997H4.91888C3.71955 20.9997 3.30072 19.4083 4.34372 18.818C4.78825 18.5664 5.17234 18.2206 5.46901 17.8048C5.76569 17.389 5.96776 16.9134 6.06105 16.4112L6.08555 16.2443L6.08672 12.7793C6.15785 11.2555 6.6014 9.77239 7.37855 8.45972C8.1557 7.14705 9.24274 6.04488 10.5445 5.24967L10.8339 5.07934L10.8456 5.02917C11.0106 4.33154 11.3857 3.70132 11.9202 3.22357C12.4546 2.74582 13.1228 2.44353 13.8346 2.35751L14.0469 2.33767L14.2522 2.33301Z" stroke="#FEA623"/>
</svg>
