<svg xmlns="http://www.w3.org/2000/svg" width="25" height="22" viewBox="0 0 25 22" fill="none">
  <path d="M19.2691 17.1739C19.2691 17.1739 19.3589 17.1097 19.5024 17.0001C21.6526 15.3376 23.0024 12.9284 23.0024 10.2462C23.0024 5.2459 18.3008 1.18823 12.5024 1.18823C6.70411 1.18823 2.00244 5.2459 2.00244 10.2462C2.00244 15.2489 6.70411 19.1666 12.5024 19.1666C12.9971 19.1666 13.8091 19.1339 14.9384 19.0686C16.4108 20.0252 18.5598 20.8104 20.4404 20.8104C21.0226 20.8104 21.2968 20.3321 20.9234 19.8444C20.3564 19.1491 19.5748 18.0349 19.2714 17.1727L19.2691 17.1739Z" fill="#D9DAE3" stroke="#D9DAE3" stroke-width="2.33333" stroke-linecap="round" stroke-linejoin="round"/>
</svg>