<svg xmlns="http://www.w3.org/2000/svg" width="29" height="28" viewBox="0 0 29 28" fill="none">
  <path d="M8.66658 16.333C7.45235 17.0185 6.47051 18.051 5.84693 19.2982C5.22334 20.5453 4.98644 21.9503 5.16658 23.333C6.54926 23.5131 7.95424 23.2762 9.2014 22.6527C10.4486 22.0291 11.4811 21.0472 12.1666 19.833C11.1565 17.8081 10.4443 16.9446 8.66658 16.333Z" fill="white" stroke="white" stroke-width="2.33333" stroke-linecap="round" stroke-linejoin="round"/>
  <path fill-rule="evenodd" clip-rule="evenodd" d="M5.16659 15.167C7.24686 15.4142 9.18347 16.3541 10.6648 17.8354C12.1461 19.3168 13.086 21.2534 13.3333 23.3337C14.3645 22.7391 15.2271 21.8915 15.8395 20.8707C16.4519 19.85 16.794 18.69 16.8333 17.5003C18.7922 16.8112 20.5028 15.5567 21.7488 13.8953C22.9948 12.234 23.7202 10.2406 23.8333 8.16699C23.8333 7.23873 23.4645 6.3485 22.8081 5.69212C22.1517 5.03574 21.2615 4.66699 20.3333 4.66699C18.2597 4.78005 16.2662 5.50543 14.6049 6.75142C12.9436 7.9974 11.6891 9.70803 10.9999 11.667C9.81023 11.7063 8.6502 12.0483 7.62949 12.6607C6.60878 13.2732 5.76111 14.1358 5.16659 15.167ZM17.175 11.3253C16.9562 11.1065 16.8333 10.8097 16.8333 10.5003C16.8333 10.1909 16.9562 9.89416 17.175 9.67537C17.3938 9.45658 17.6905 9.33366 17.9999 9.33366C18.3093 9.33366 18.6061 9.45658 18.8249 9.67537C19.0437 9.89416 19.1666 10.1909 19.1666 10.5003C19.1666 10.8097 19.0437 11.1065 18.8249 11.3253C18.6061 11.5441 18.3093 11.667 17.9999 11.667C17.6905 11.667 17.3938 11.5441 17.175 11.3253Z" fill="#D9DAE3"/>
  <path d="M8.66658 16.3337C7.45235 17.0192 6.47051 18.0517 5.84693 19.2988C5.22334 20.546 4.98644 21.951 5.16658 23.3337C6.54926 23.5138 7.95424 23.2769 9.2014 22.6533C10.4486 22.0297 11.4811 21.0479 12.1666 19.8337M5.16659 15.167C7.24686 15.4142 9.18347 16.3541 10.6648 17.8354C12.1461 19.3168 13.086 21.2534 13.3333 23.3337C14.3645 22.7391 15.2271 21.8915 15.8395 20.8707C16.4519 19.85 16.794 18.69 16.8333 17.5003C18.7922 16.8112 20.5028 15.5567 21.7488 13.8953C22.9948 12.234 23.7202 10.2406 23.8333 8.16699C23.8333 7.23873 23.4645 6.3485 22.8081 5.69212C22.1517 5.03574 21.2615 4.66699 20.3333 4.66699C18.2597 4.78005 16.2662 5.50543 14.6049 6.75142C12.9436 7.9974 11.6891 9.70803 10.9999 11.667C9.81023 11.7063 8.6502 12.0483 7.62949 12.6607C6.60878 13.2732 5.76111 14.1358 5.16659 15.167ZM16.8333 10.5003C16.8333 10.8097 16.9562 11.1065 17.175 11.3253C17.3938 11.5441 17.6905 11.667 17.9999 11.667C18.3093 11.667 18.6061 11.5441 18.8249 11.3253C19.0437 11.1065 19.1666 10.8097 19.1666 10.5003C19.1666 10.1909 19.0437 9.89416 18.8249 9.67537C18.6061 9.45658 18.3093 9.33366 17.9999 9.33366C17.6905 9.33366 17.3938 9.45658 17.175 9.67537C16.9562 9.89416 16.8333 10.1909 16.8333 10.5003Z" stroke="#D9DAE3" stroke-width="2.33333" stroke-linecap="round" stroke-linejoin="round"/>
  <path d="M17.175 11.3246C16.9562 11.1058 16.8333 10.8091 16.8333 10.4997C16.8333 10.1903 16.9562 9.89351 17.175 9.67472C17.3938 9.45592 17.6905 9.33301 17.9999 9.33301C18.3093 9.33301 18.6061 9.45592 18.8249 9.67472C19.0437 9.89351 19.1666 10.1903 19.1666 10.4997C19.1666 10.8091 19.0437 11.1058 18.8249 11.3246C18.6061 11.5434 18.3093 11.6663 17.9999 11.6663C17.6905 11.6663 17.3938 11.5434 17.175 11.3246Z" stroke="white" stroke-width="2.33333" stroke-linecap="round" stroke-linejoin="round"/>
</svg>