<svg width="29" height="28" viewBox="0 0 29 28" fill="none" xmlns="http://www.w3.org/2000/svg">
<path d="M20.3333 3.89668C22.0929 4.91267 23.5567 6.37062 24.5797 8.12619C25.6027 9.88176 26.1495 11.8741 26.1659 13.9059C26.1823 15.9377 25.6678 17.9386 24.6733 19.7105C23.6787 21.4824 22.2387 22.9638 20.4957 24.0081C18.7527 25.0523 16.7672 25.6233 14.7357 25.6644C12.7042 25.7055 10.6972 25.2154 8.9134 24.2425C7.12957 23.2696 5.63077 21.8476 4.56536 20.1174C3.49996 18.3873 2.9049 16.4088 2.83909 14.378L2.83325 14L2.83909 13.622C2.91762 11.1944 3.75187 8.85185 5.22548 6.92106C6.69908 4.99028 8.73855 3.56756 11.0594 2.85134C10.964 3.35711 10.9814 3.87769 11.1102 4.376C11.239 4.8743 11.4761 5.33806 11.8047 5.73424C12.1332 6.13042 12.5451 6.44926 13.011 6.66804C13.4768 6.88683 13.9852 7.00018 14.4999 7.00001C14.8093 7.00001 15.1061 6.87709 15.3249 6.6583C15.5437 6.43951 15.6666 6.14276 15.6666 5.83334C15.6666 5.52392 15.5437 5.22718 15.3249 5.00839C15.1061 4.78959 14.8093 4.66668 14.4999 4.66668L14.3634 4.65851C14.0681 4.62339 13.7974 4.47684 13.6066 4.24881C13.4157 4.02079 13.3191 3.72849 13.3366 3.43164C13.354 3.13479 13.4841 2.8558 13.7003 2.65167C13.9165 2.44754 14.2026 2.33367 14.4999 2.33334C16.5136 2.33334 18.5284 2.85484 20.3333 3.89668ZM18.2333 16.667C18.0123 16.4504 17.7144 16.3305 17.405 16.3336C17.0957 16.3366 16.8002 16.4624 16.5836 16.6833C16.312 16.9606 15.9878 17.1809 15.63 17.3313C15.2722 17.4816 14.888 17.5591 14.4999 17.5591C14.1118 17.5591 13.7276 17.4816 13.3698 17.3313C13.012 17.1809 12.6878 16.9606 12.4163 16.6833C12.1986 16.4675 11.9047 16.3461 11.5981 16.3452C11.2916 16.3444 10.9971 16.4642 10.7782 16.6788C10.5593 16.8934 10.4336 17.1855 10.4284 17.492C10.4232 17.7985 10.5388 18.0947 10.7503 18.3167C11.2391 18.8155 11.8225 19.2117 12.4663 19.4822C13.1102 19.7528 13.8015 19.8921 14.4999 19.8921C15.1983 19.8921 15.8897 19.7528 16.5335 19.4822C17.1774 19.2117 17.7608 18.8155 18.2496 18.3167C18.4661 18.0957 18.5861 17.7978 18.583 17.4885C18.58 17.1791 18.4541 16.8836 18.2333 16.667ZM11.0116 10.5L10.8634 10.5082C10.5681 10.5433 10.2974 10.6898 10.1066 10.9179C9.9157 11.1459 9.81912 11.4382 9.83655 11.7351C9.85398 12.0319 9.9841 12.3109 10.2003 12.515C10.4165 12.7192 10.7026 12.833 10.9999 12.8333L11.1481 12.8252C11.4434 12.7901 11.7141 12.6435 11.9049 12.4155C12.0958 12.1875 12.1924 11.8952 12.175 11.5983C12.1575 11.3015 12.0274 11.0225 11.8112 10.8183C11.595 10.6142 11.3089 10.5003 11.0116 10.5ZM18.0116 10.5L17.8634 10.5082C17.5681 10.5433 17.2974 10.6898 17.1066 10.9179C16.9157 11.1459 16.8191 11.4382 16.8366 11.7351C16.854 12.0319 16.9841 12.3109 17.2003 12.515C17.4165 12.7192 17.7026 12.833 17.9999 12.8333L18.1481 12.8252C18.4434 12.7901 18.7141 12.6435 18.9049 12.4155C19.0958 12.1875 19.1924 11.8952 19.175 11.5983C19.1575 11.3015 19.0274 11.0225 18.8112 10.8183C18.595 10.6142 18.3089 10.5003 18.0116 10.5Z" fill="#FEA623"/>
</svg>
