<svg width="29" height="28" viewBox="0 0 29 28" fill="none" xmlns="http://www.w3.org/2000/svg">
<path d="M15.6665 5.83335H24.9999M15.6665 10.5H21.4999M15.6665 17.5H24.9999M15.6665 22.1667H21.4999M3.99988 5.83335C3.99988 5.52393 4.12279 5.22719 4.34159 5.0084C4.56038 4.7896 4.85713 4.66669 5.16654 4.66669H9.83321C10.1426 4.66669 10.4394 4.7896 10.6582 5.0084C10.877 5.22719 10.9999 5.52393 10.9999 5.83335V10.5C10.9999 10.8094 10.877 11.1062 10.6582 11.325C10.4394 11.5438 10.1426 11.6667 9.83321 11.6667H5.16654C4.85713 11.6667 4.56038 11.5438 4.34159 11.325C4.12279 11.1062 3.99988 10.8094 3.99988 10.5V5.83335ZM3.99988 17.5C3.99988 17.1906 4.12279 16.8939 4.34159 16.6751C4.56038 16.4563 4.85713 16.3334 5.16654 16.3334H9.83321C10.1426 16.3334 10.4394 16.4563 10.6582 16.6751C10.877 16.8939 10.9999 17.1906 10.9999 17.5V22.1667C10.9999 22.4761 10.877 22.7729 10.6582 22.9916C10.4394 23.2104 10.1426 23.3334 9.83321 23.3334H5.16654C4.85713 23.3334 4.56038 23.2104 4.34159 22.9916C4.12279 22.7729 3.99988 22.4761 3.99988 22.1667V17.5Z" stroke="#FEA623" stroke-width="2.33333" stroke-linecap="round" stroke-linejoin="round"/>
</svg>