<svg xmlns="http://www.w3.org/2000/svg" width="29" height="28" viewBox="0 0 29 28" fill="none">
  <path d="M17.1075 22.1666C18.1167 22.1666 18.6499 23.3613 17.9767 24.1126C17.5394 24.602 17.0036 24.9934 16.4045 25.2612C15.8053 25.529 15.1563 25.6672 14.5 25.6666C13.8438 25.6672 13.1948 25.529 12.5956 25.2612C11.9965 24.9934 11.4607 24.602 11.0234 24.1126C10.3794 23.394 10.839 22.2705 11.763 22.1748L11.8914 22.1678L17.1075 22.1666Z" fill="#FEA623"/>
  <path d="M14.5 2.33331C16.0844 2.33331 17.4237 3.38681 17.8542 4.83115L17.9079 5.03065L17.9172 5.08081C19.2033 5.80637 20.2993 6.82627 21.1153 8.05698C21.9313 9.28769 22.4441 10.6942 22.6119 12.1613L22.6445 12.4961L22.6667 12.8333V16.2528L22.6912 16.4115C22.8509 17.2711 23.3266 18.0398 24.0247 18.5663L24.2195 18.7028L24.4085 18.8183C25.4119 19.3865 25.0619 20.8786 23.9687 20.993L23.8334 21H5.16669C3.96735 21 3.54852 19.4086 4.59152 18.8183C5.03605 18.5667 5.42014 18.2209 5.71682 17.8051C6.01349 17.3894 6.21557 16.9137 6.30885 16.4115L6.33335 16.2446L6.33452 12.7796C6.40565 11.2558 6.84921 9.77269 7.62635 8.46003C8.4035 7.14736 9.49055 6.04519 10.7924 5.24998L11.0817 5.07965L11.0934 5.02948C11.2584 4.33184 11.6335 3.70162 12.168 3.22387C12.7025 2.74612 13.3706 2.44384 14.0824 2.35781L14.2947 2.33798L14.5 2.33331Z" fill="#FEA623"/>
  <path d="M17.1075 22.1666C18.1167 22.1666 18.6499 23.3613 17.9767 24.1126C17.5394 24.602 17.0036 24.9934 16.4045 25.2612C15.8053 25.529 15.1563 25.6672 14.5 25.6666C13.8438 25.6672 13.1948 25.529 12.5956 25.2612C11.9965 24.9934 11.4607 24.602 11.0234 24.1126C10.3794 23.394 10.839 22.2705 11.763 22.1748L11.8914 22.1678L17.1075 22.1666Z" stroke="#FEA623"/>
  <path d="M14.5 2.33331C16.0844 2.33331 17.4237 3.38681 17.8542 4.83115L17.9079 5.03065L17.9172 5.08081C19.2033 5.80637 20.2993 6.82627 21.1153 8.05698C21.9313 9.28769 22.4441 10.6942 22.6119 12.1613L22.6445 12.4961L22.6667 12.8333V16.2528L22.6912 16.4115C22.8509 17.2711 23.3266 18.0398 24.0247 18.5663L24.2195 18.7028L24.4085 18.8183C25.4119 19.3865 25.0619 20.8786 23.9687 20.993L23.8334 21H5.16669C3.96735 21 3.54852 19.4086 4.59152 18.8183C5.03605 18.5667 5.42014 18.2209 5.71682 17.8051C6.01349 17.3894 6.21557 16.9137 6.30885 16.4115L6.33335 16.2446L6.33452 12.7796C6.40565 11.2558 6.84921 9.77269 7.62635 8.46003C8.4035 7.14736 9.49055 6.04519 10.7924 5.24998L11.0817 5.07965L11.0934 5.02948C11.2584 4.33184 11.6335 3.70162 12.168 3.22387C12.7025 2.74612 13.3706 2.44384 14.0824 2.35781L14.2947 2.33798L14.5 2.33331Z" stroke="#FEA623"/>
</svg>