<svg xmlns="http://www.w3.org/2000/svg" width="29" height="28" viewBox="0 0 29 28" fill="none">
  <path fill-rule="evenodd" clip-rule="evenodd" d="M4 14.0001C4 15.3789 4.27159 16.7443 4.79926 18.0182C5.32694 19.2922 6.10036 20.4497 7.07538 21.4247C8.05039 22.3997 9.20791 23.1731 10.4818 23.7008C11.7557 24.2285 13.1211 24.5001 14.5 24.5001C15.8789 24.5001 17.2443 24.2285 18.5182 23.7008C19.5322 23.2808 20.4726 22.705 21.3058 21.9958C21.5193 21.8141 21.7257 21.6236 21.9246 21.4247C22.8996 20.4497 23.6731 19.2922 24.2007 18.0182C24.7284 16.7443 25 15.3789 25 14.0001C25 12.6212 24.7284 11.2558 24.2007 9.98188C23.6731 8.70797 22.8996 7.55045 21.9246 6.57544C20.9496 5.60042 19.7921 4.827 18.5182 4.29933C17.2443 3.77165 15.8789 3.50006 14.5 3.50006C13.1211 3.50006 11.7557 3.77165 10.4818 4.29933C9.20791 4.827 8.05039 5.60042 7.07538 6.57544C6.10036 7.55045 5.32694 8.70797 4.79926 9.98188C4.27159 11.2558 4 12.6212 4 14.0001ZM12.0251 14.1416C11.3687 13.4852 11 12.595 11 11.6667C11 10.7385 11.3687 9.84823 12.0251 9.19185C12.6815 8.53548 13.5717 8.16673 14.5 8.16673C15.4283 8.16673 16.3185 8.53548 16.9749 9.19185C17.6313 9.84823 18 10.7385 18 11.6667C18 12.595 17.6313 13.4852 16.9749 14.1416C16.3185 14.798 15.4283 15.1667 14.5 15.1667C13.5717 15.1667 12.6815 14.798 12.0251 14.1416Z" fill="white"/>
  <path d="M7.69596 21.9906C7.98472 21.0295 8.57559 20.1871 9.38092 19.5884C10.1862 18.9896 11.1631 18.6664 12.1666 18.6667H16.8333C17.8381 18.6664 18.8162 18.9904 19.6221 19.5905C20.4275 20.1902 21.0179 21.0338 21.3058 21.9958M21.3063 21.9976L21.3058 21.9958M21.3058 21.9958C20.4726 22.705 19.5322 23.2808 18.5182 23.7008C17.2443 24.2285 15.8789 24.5001 14.5 24.5001C13.1211 24.5001 11.7557 24.2285 10.4818 23.7008C9.20791 23.1731 8.05039 22.3997 7.07538 21.4247C6.10036 20.4497 5.32694 19.2922 4.79926 18.0182C4.27159 16.7443 4 15.3789 4 14.0001C4 12.6212 4.27159 11.2558 4.79926 9.98188C5.32694 8.70797 6.10036 7.55045 7.07538 6.57544C8.05039 5.60042 9.20791 4.827 10.4818 4.29933C11.7557 3.77165 13.1211 3.50006 14.5 3.50006C15.8789 3.50006 17.2443 3.77165 18.5182 4.29933C19.7921 4.827 20.9496 5.60042 21.9246 6.57544C22.8996 7.55045 23.6731 8.70797 24.2007 9.98188C24.7284 11.2558 25 12.6212 25 14.0001C25 15.3789 24.7284 16.7443 24.2007 18.0182C23.6731 19.2922 22.8996 20.4497 21.9246 21.4247C21.7257 21.6236 21.5193 21.8141 21.3058 21.9958ZM11 11.6667C11 12.595 11.3687 13.4852 12.0251 14.1416C12.6815 14.798 13.5717 15.1667 14.5 15.1667C15.4283 15.1667 16.3185 14.798 16.9749 14.1416C17.6313 13.4852 18 12.595 18 11.6667C18 10.7385 17.6313 9.84823 16.9749 9.19185C16.3185 8.53548 15.4283 8.16673 14.5 8.16673C13.5717 8.16673 12.6815 8.53548 12.0251 9.19185C11.3687 9.84823 11 10.7385 11 11.6667Z" stroke="#FEA623" stroke-width="2.33333" stroke-linecap="round" stroke-linejoin="round"/>
  <path d="M11.0001 11.6667C11.0001 12.595 11.3688 13.4852 12.0252 14.1416C12.6816 14.798 13.5718 15.1667 14.5001 15.1667C15.4283 15.1667 16.3186 14.798 16.975 14.1416C17.6313 13.4852 18.0001 12.595 18.0001 11.6667C18.0001 10.7385 17.6313 9.84822 16.975 9.19184C16.3186 8.53547 15.4283 8.16672 14.5001 8.16672C13.5718 8.16672 12.6816 8.53547 12.0252 9.19184C11.3688 9.84822 11.0001 10.7385 11.0001 11.6667Z" fill="#FEA623"/>
  <path d="M10.4819 23.7008C11.7558 24.2285 13.1212 24.5001 14.5001 24.5001C15.879 24.5001 17.2443 24.2285 18.5183 23.7008L21.2787 21.9081C20.9818 20.9825 20.403 20.1719 19.6222 19.5905C18.8163 18.9903 17.8382 18.6664 16.8334 18.6667H12.1667C11.1632 18.6664 10.1863 18.9896 9.381 19.5884C8.57567 20.1871 7.98481 21.0295 7.69604 21.9906L10.4819 23.7008Z" fill="#FEA623"/>
  <path d="M21.3064 21.9976C21.2974 21.9676 21.2882 21.9378 21.2787 21.9081M21.2787 21.9081C20.9818 20.9825 20.403 20.1719 19.6222 19.5905C18.8163 18.9903 17.8382 18.6664 16.8334 18.6667H12.1667C11.1632 18.6664 10.1863 18.9896 9.381 19.5884C8.57567 20.1871 7.98481 21.0295 7.69604 21.9906L10.4819 23.7008C11.7558 24.2285 13.1212 24.5001 14.5001 24.5001C15.879 24.5001 17.2443 24.2285 18.5183 23.7008L21.2787 21.9081ZM11.0001 11.6667C11.0001 12.595 11.3688 13.4852 12.0252 14.1416C12.6816 14.798 13.5718 15.1667 14.5001 15.1667C15.4283 15.1667 16.3186 14.798 16.975 14.1416C17.6313 13.4852 18.0001 12.595 18.0001 11.6667C18.0001 10.7385 17.6313 9.84822 16.975 9.19184C16.3186 8.53547 15.4283 8.16672 14.5001 8.16672C13.5718 8.16672 12.6816 8.53547 12.0252 9.19184C11.3688 9.84822 11.0001 10.7385 11.0001 11.6667Z" stroke="#FEA623" stroke-width="2.33333" stroke-linecap="round" stroke-linejoin="round"/>
</svg>