<svg xmlns="http://www.w3.org/2000/svg" width="29" height="28" viewBox="0 0 29 28" fill="none">
  <path d="M20.3333 3.5C20.6191 3.50004 20.8949 3.60495 21.1084 3.79483C21.3219 3.98472 21.4584 4.24637 21.4918 4.53017L21.5 4.66667V7.19833C22.0278 7.01236 22.5925 6.95566 23.1467 7.03299C23.701 7.11032 24.2286 7.31943 24.6854 7.64276C25.1421 7.9661 25.5147 8.39425 25.7718 8.8913C26.0289 9.38835 26.1631 9.9398 26.1631 10.4994C26.1631 11.059 26.0289 11.6105 25.7718 12.1075C25.5147 12.6046 25.1421 13.0327 24.6854 13.3561C24.2286 13.6794 23.701 13.8885 23.1467 13.9658C22.5925 14.0432 22.0278 13.9865 21.5 13.8005V14C21.4998 15.6543 20.9139 17.2551 19.8461 18.5187C18.7784 19.7823 17.2977 20.627 15.6666 20.9032V23.3333H19.1666C19.464 23.3337 19.75 23.4475 19.9662 23.6517C20.1825 23.8558 20.3126 24.1348 20.33 24.4316C20.3474 24.7285 20.2509 25.0208 20.06 25.2488C19.8691 25.4768 19.5984 25.6234 19.3031 25.6585L19.1666 25.6667H9.83331C9.53595 25.6663 9.24994 25.5525 9.03371 25.3483C8.81748 25.1442 8.68737 24.8652 8.66994 24.5684C8.65251 24.2715 8.74909 23.9792 8.93995 23.7512C9.1308 23.5232 9.40153 23.3766 9.69681 23.3415L9.83331 23.3333H13.3333V20.9032C11.7466 20.6346 10.3009 19.8277 9.23933 18.6182C8.17777 17.4088 7.56518 15.8706 7.50464 14.2625L7.49997 14V13.8005C6.9883 13.9816 6.44152 14.0413 5.90283 13.9747C5.36414 13.9082 4.84832 13.7172 4.39612 13.417C3.94392 13.1168 3.56775 12.7155 3.29732 12.2449C3.0269 11.7743 2.86964 11.2472 2.83797 10.7053L2.83447 10.5L2.84031 10.2947C2.87186 9.75285 3.02898 9.22579 3.29927 8.75514C3.56955 8.28449 3.94558 7.88314 4.39765 7.58282C4.84973 7.28249 5.36545 7.09142 5.90407 7.02469C6.44269 6.95796 6.98945 7.01741 7.50114 7.19833L7.49997 4.66667C7.49997 4.35725 7.62289 4.0605 7.84168 3.84171C8.06047 3.62292 8.35722 3.5 8.66664 3.5H20.3333ZM6.33331 9.33333C6.02389 9.33333 5.72714 9.45625 5.50835 9.67504C5.28956 9.89383 5.16664 10.1906 5.16664 10.5C5.16664 10.8094 5.28956 11.1062 5.50835 11.325C5.72714 11.5437 6.02389 11.6667 6.33331 11.6667C6.64273 11.6667 6.93947 11.5437 7.15826 11.325C7.37706 11.1062 7.49997 10.8094 7.49997 10.5C7.49997 10.1906 7.37706 9.89383 7.15826 9.67504C6.93947 9.45625 6.64273 9.33333 6.33331 9.33333ZM22.6666 9.33333C22.3572 9.33333 22.0605 9.45625 21.8417 9.67504C21.6229 9.89383 21.5 10.1906 21.5 10.5C21.5 10.8094 21.6229 11.1062 21.8417 11.325C22.0605 11.5437 22.3572 11.6667 22.6666 11.6667C22.9761 11.6667 23.2728 11.5437 23.4916 11.325C23.7104 11.1062 23.8333 10.8094 23.8333 10.5C23.8333 10.1906 23.7104 9.89383 23.4916 9.67504C23.2728 9.45625 22.9761 9.33333 22.6666 9.33333Z" fill="#D9DAE3"/>
</svg>