<svg width="590" height="485" viewBox="0 0 590 485" fill="none" xmlns="http://www.w3.org/2000/svg">
<path d="M60.6861 126.836C60.2789 118.557 53.2572 94.6714 58.8642 71.398L134.93 65.5361C145.214 86.2369 141.546 111.273 142.778 119.469C145.759 139.297 157.435 144.154 157.788 162.871C158.187 184.097 130.192 189.379 108.674 191.533C87.1562 193.687 60.7489 193.849 56.9564 172.964C53.6118 154.547 61.6724 146.863 60.6861 126.836Z" fill="#6B1511"/>
<path opacity="0.65" d="M71.0626 187.311L66.4648 90.2968C66.4648 90.2968 113.056 79.2167 115.559 92.0082C123.961 134.961 127.228 181.472 127.685 188.431C121.416 190.017 114.765 190.925 108.677 191.534C95.6839 192.834 80.766 193.206 71.0626 187.311Z" fill="#1C0108"/>
<path opacity="0.11" d="M57.4961 484.089C70.2149 484.089 80.5255 482.784 80.5255 481.174C80.5255 479.564 70.2149 478.259 57.4961 478.259C44.7774 478.259 34.4668 479.564 34.4668 481.174C34.4668 482.784 44.7774 484.089 57.4961 484.089Z" fill="black"/>
<path d="M65.2854 446.566L63.5078 461.059L77.7378 464.824L81.7132 450.906L65.2854 446.566Z" fill="#FFC19F"/>
<path d="M64.1539 452.714L62.127 466.492L76.525 470.301L80.7017 457.16L64.1539 452.714Z" fill="#C4C4C4"/>
<path d="M38.724 468.739C37.0562 469.469 35.2666 471.979 35.0958 473.657C34.6821 477.724 50.5743 479.863 58.2332 479.015C61.4449 478.66 67.3225 476.642 70.7724 476.349C75.4542 475.953 77.7821 474.953 79.6133 473.072C80.1664 471.99 80.7574 466.639 80.5358 461.003C80.5007 460.103 79.5145 459.51 78.6151 459.629C78.025 461.493 75.5548 461.851 74.2085 461.534C70.8047 460.732 70.187 457.96 69.3125 456.833C68.5571 455.86 61.9528 453.507 60.0791 455.496C58.9359 456.71 58.9091 456.742 57.3735 458.132C53.2236 461.886 47.0043 465.115 38.724 468.739Z" fill="#5684B2"/>
<path d="M34.9283 477.502C34.8009 477.059 34.5774 475.833 34.7325 474.168C34.7787 473.67 34.992 473.388 35.1933 473.093C33.9809 477.099 49.3799 479.285 58.17 478.289C61.3799 477.925 65.5981 475.943 69.0461 475.633C73.558 475.227 77.8335 474.599 79.6656 472.718C79.9066 472.727 79.8927 473.096 79.8835 473.29C79.8558 473.907 79.2241 477.897 78.7329 478.282C75.7105 480.653 70.0813 479.996 67.3526 480.45C64.2065 480.974 61.2626 481.856 57.9456 482.223C49.5461 483.152 35.7631 480.414 34.9283 477.502Z" fill="#385A8C"/>
<path d="M65.5214 466.951C65.4004 466.935 65.285 466.88 65.1936 466.784C61.6504 463.048 55.2594 460.23 52.6608 462.344C52.4226 462.54 52.08 462.497 51.8916 462.263C51.7014 462.028 51.7374 461.681 51.972 461.492C55.1245 458.949 61.9662 461.791 65.9868 466.03C66.1937 466.248 66.1863 466.595 65.9665 466.804C65.8437 466.923 65.6784 466.971 65.5214 466.951Z" fill="#E0E0E0"/>
<path d="M62.0545 467.851C61.9335 467.835 61.8181 467.78 61.7266 467.684C58.261 464.031 52.7205 461.606 49.989 463.818C49.7507 464.013 49.4081 463.971 49.2198 463.738C49.0295 463.502 49.0655 463.157 49.3001 462.966C52.6078 460.283 58.7338 462.935 62.5199 466.931C62.7267 467.149 62.7193 467.495 62.4996 467.705C62.3767 467.822 62.2114 467.871 62.0545 467.851Z" fill="#E0E0E0"/>
<path d="M58.755 469.013C58.6341 468.997 58.5186 468.941 58.4272 468.846C54.8535 465.08 50.2891 463.307 47.5696 464.656C47.3055 464.786 46.973 464.679 46.8373 464.405C46.7043 464.133 46.816 463.804 47.0875 463.67C50.2669 462.102 55.2552 463.916 59.2204 468.092C59.4273 468.311 59.4199 468.657 59.2001 468.866C59.0773 468.985 58.912 469.033 58.755 469.013Z" fill="#E0E0E0"/>
<path d="M104.369 228.967L71.8317 232.79C66.4832 259.227 66.4887 263.915 66.0538 278.771C65.8405 286.07 67.318 298.662 68.897 312.244C70.8372 328.924 72.8724 340.386 74.9935 355.603C80.0123 358.661 94.3734 363.004 99.9805 361.801C100.623 342.088 101.729 306.842 101.802 295.556C101.815 293.416 102.965 290.764 105.243 294.344L104.369 228.967Z" fill="#4B3F4A"/>
<path opacity="0.11" d="M115.75 471.18C115.916 472.893 125.296 473.382 136.701 472.271C148.106 471.162 157.218 468.874 157.052 467.161C156.887 465.447 147.507 464.958 136.102 466.069C124.696 467.179 115.584 469.467 115.75 471.18Z" fill="black"/>
<path d="M122.898 434.335L131.209 446.328L144.317 439.62L138.029 426.588L122.898 434.335Z" fill="#FFC19F"/>
<path d="M126.143 439.675L133.791 451.301L147.054 444.514L141.432 431.926L126.143 439.675Z" fill="#C4C4C4"/>
<path d="M117.843 464.027C116.918 465.406 116.425 467.511 117.46 468.438C119.646 470.397 134.845 468.612 138.848 464.226C140.876 462.004 144.482 453.941 146.144 451.073C148.342 447.282 151.002 444.282 150.992 442C150.693 441.585 147.303 438.109 144.07 434.813C143.549 434.282 143.223 434.074 142.727 434.758C142.965 436.18 140.412 439.324 138.502 440.037C137.17 440.535 135.19 440.385 133.559 439.641C132.617 439.211 127.089 442.751 127.023 444.61C127.813 448.9 127.679 451.74 125.454 458.178C124.598 460.655 119.671 461.301 117.843 464.027Z" fill="#5684B2"/>
<path d="M121.483 471.65C119.111 471.65 117.31 470.712 117.088 470.194C116.886 469.726 116.724 467.943 116.737 467.148C116.738 467.064 116.756 466.854 116.851 466.78C116.935 467.27 117.262 467.774 117.465 467.97C119.907 470.335 134.483 467.49 138.133 464.018C139.779 462.451 142.83 457.241 144.484 454.125C145.212 452.752 145.862 451.53 146.346 450.693C147.045 449.491 147.785 448.362 148.481 447.313C149.764 445.367 150.916 443.007 150.912 441.937C150.912 441.937 151.077 441.801 151.102 441.83C151.659 442.425 153.263 444.128 153.263 444.128C153.11 445.513 152.887 446.554 151.249 449.034C150.589 450.034 149.887 451.224 149.224 452.368C148.753 453.18 148.125 454.366 147.421 455.693C145.491 459.33 142.344 464.632 140.755 466.369C137.655 469.768 127.597 471.65 121.483 471.65Z" fill="#385A8C"/>
<path d="M126.673 453.232C126.622 453.232 126.57 453.226 126.519 453.209C126.229 453.123 126.062 452.819 126.147 452.528C127.083 449.374 131.443 448.128 138.152 449.123C138.451 449.166 138.656 449.445 138.613 449.745C138.566 450.045 138.306 450.244 137.99 450.208C135.107 449.782 128.275 449.185 127.199 452.841C127.125 453.079 126.907 453.232 126.673 453.232Z" fill="#E0E0E0"/>
<path d="M125.771 456.577C125.72 456.577 125.668 456.57 125.616 456.554C125.326 456.467 125.159 456.164 125.245 455.873C126.184 452.699 129.883 451.639 136.57 452.631C136.869 452.673 137.074 452.952 137.032 453.252C136.985 453.552 136.733 453.764 136.408 453.715C130.353 452.827 127.048 453.627 126.296 456.187C126.223 456.423 126.005 456.577 125.771 456.577Z" fill="#E0E0E0"/>
<path d="M124.664 459.305C124.553 459.305 124.438 459.271 124.343 459.201C124.096 459.021 124.044 458.678 124.224 458.434C125.971 456.029 129.327 455.29 134.729 456.087C135.028 456.13 135.233 456.409 135.191 456.709C135.14 457.007 134.913 457.213 134.568 457.172C129.618 456.439 126.59 457.043 125.104 459.081C124.997 459.229 124.83 459.305 124.664 459.305Z" fill="#E0E0E0"/>
<path d="M74.7461 355.63C87.6482 379.936 114.826 423.84 118.854 430.278C122.695 429.798 135.334 422.877 136.463 421.302C132.738 412.949 124.391 393.026 113.133 371.412C108.274 362.084 106.811 359.751 103.545 353.254C91.4638 359.896 77.4665 356.667 74.7461 355.63Z" fill="#3F283E"/>
<path opacity="0.3" d="M91.2662 284.256C84.4467 314.053 78.6503 352.479 78.0039 356.944L93.6015 357.833C100.615 342.463 115.072 321.828 120.493 299.821C116.161 297.645 98.6785 294.302 98.2814 284.94C98.0201 278.817 92.4786 278.96 91.2662 284.256Z" fill="black"/>
<path d="M134.809 251.9L95.6242 255.231L87.7566 293.908C89.5416 290.754 94.3813 291.954 93.2012 298.496C90.3025 314.566 67.0146 434.92 64.5703 446.359C67.733 448.596 81.3591 451.541 83.2512 451.137C86.1019 442.444 95.6963 411.383 101.874 387.797C103.673 380.93 105.24 375.054 106.674 369.767C111.41 358.647 120.852 336.687 124.482 327.904C128.521 318.133 137.928 300.607 140.264 286.287C142.597 271.989 138.833 261.503 134.809 251.9Z" fill="#4B3F4A"/>
<path d="M52.4672 188.5C52.2262 191.167 55.57 194.28 62.1706 195.682C68.6715 197.061 73.863 196.919 74.3488 195.108C75.0423 192.523 70.5239 184.998 63.8042 184.387C57.0844 183.775 52.7083 185.833 52.4672 188.5Z" fill="#A82743"/>
<path d="M84.4392 164.013C84.4928 163.72 77.1165 160.917 70.9886 158.888C67.1767 157.627 63.0601 159.517 61.5438 163.244C57.7845 172.485 51.6105 189.379 46.9749 201.15C45.4189 205.102 47.3701 209.552 51.3252 211.075C52.1295 211.384 52.9439 211.69 53.7362 211.98C57.2609 213.269 61.18 211.789 62.988 208.492C70.3681 195.036 83.4992 169.169 84.4392 164.013Z" fill="#FFC19F"/>
<path d="M53.4863 181.508C58.4525 167.536 65.6728 150.833 69.3351 148.735C73.2837 146.473 85.5579 144.351 89.27 143.753C89.8813 146.503 88.9145 162.311 86.002 168.415C84.2023 172.187 76.8352 184.128 72.7342 191.904C69.6278 183.551 59.7065 177.74 53.4863 181.508Z" fill="#FF9B06"/>
<path d="M127.183 165.936C127.041 165.517 142.355 161.666 147.237 160.667C149.837 164.693 162.931 199.091 168.289 211.898C166.653 213.2 153.942 217.722 152.32 217.805C146.843 207.214 129.041 171.461 127.183 165.936Z" fill="#FFC19F"/>
<path d="M141.815 199.002C136.953 193.107 130.319 183.919 128.568 180.987C128.41 178.851 124.105 149.577 130.437 148.643C138.9 151.211 147.021 155.09 147.417 155.899C149.028 159.198 157.386 181.874 160.429 189.913C156.865 193.032 145.332 197.837 141.815 199.002Z" fill="#FF9B06"/>
<path opacity="0.15" d="M64.4727 182.732C64.4727 187.21 68.2208 194.259 70.6421 194.259C73.0633 194.259 71.8758 181.836 71.8758 177.358C71.8758 172.88 74.2 164.951 71.7788 164.951C69.3576 164.952 64.4727 178.254 64.4727 182.732Z" fill="#2B000B"/>
<path opacity="0.25" d="M66.2617 271.431C66.9894 260.295 70.8521 249.307 80.2784 232.529L102.535 234.583L124.792 232.529C133.703 248.389 138.189 258.165 140.397 269.172C132.833 272.766 112.323 278.581 96.0718 278.143C83.359 277.801 72.6241 275.145 66.2617 271.431Z" fill="black"/>
<path d="M140.434 265.186C136.245 252.094 130.198 240.762 128.066 232.133C127.233 228.758 132.606 205.04 133.4 202.321C135.17 196.255 136.989 192.542 138.801 184.469C140.893 175.156 138.542 158.534 136.692 150.754C131.411 148.865 113.555 143.694 105.572 141.783L102.855 141.718C94.7907 143.248 79.9014 147.484 74.9288 149.126C72.7125 156.81 66.1211 174.121 65.4692 182.578C64.8329 190.84 69.0632 196.259 70.9451 200.864C72.0172 203.485 70.609 225.173 69.8296 230.546C68.6365 238.771 66.2005 255.271 64.9336 269.193C72.5325 273.752 77.5947 275.798 95.1029 277.1C108.625 278.105 133.19 270.518 140.434 265.186Z" fill="#FF9B06"/>
<path d="M78.7936 147.562C81.1096 146.735 97.3794 141.66 102.866 140.657C103.103 140.614 103.284 140.618 103.518 140.673C109.075 141.96 125.062 147.02 127.081 147.562C131.878 154.412 115.201 165.95 96.6222 164.854C85.0286 164.17 74.797 154.56 78.7936 147.562Z" fill="#FFC19F"/>
<path d="M100.187 153.941C106.367 153.901 111.358 150.954 111.335 147.356L111.221 129.585L88.8438 129.728L88.9564 147.499C88.9795 151.096 94.0075 153.98 100.187 153.941Z" fill="#FFC19F"/>
<path opacity="0.23" d="M112.833 123.858C115.244 129.545 110.58 136.975 102.419 140.454C94.2569 143.934 85.6866 142.144 83.2755 136.458C80.8654 130.771 85.5278 123.34 93.6899 119.861C101.851 116.382 110.422 118.172 112.833 123.858Z" fill="#822020"/>
<path opacity="0.15" d="M70.999 201.049C70.3046 199.1 69.118 197.472 68.334 195.116C69.8382 198.237 72.1228 200.408 75.6475 201.886C82.4329 204.731 105.952 205.305 111.181 205.241C115.271 205.191 120.575 205.66 123.963 201.751C122.876 204.488 122.68 206.743 118.977 207.615C113.161 208.985 97.9834 208.08 88.2181 207.957C79.284 207.846 76.4398 209.338 71.0516 215.062C71.0692 208.641 71.4709 202.374 70.999 201.049Z" fill="#2B000B"/>
<path d="M83.1987 453.569C79.4274 453.779 67.2797 450.549 64.0671 448.486C63.453 448.093 65.0349 440.231 65.5806 440.451C68.0443 441.448 81.4534 445.419 85.401 445.834C86.1933 445.918 83.797 453.536 83.1987 453.569Z" fill="#876184"/>
<path d="M139.63 427.345C136.931 429.995 125.672 435.593 121.9 436.166C121.18 436.276 117.203 429.316 117.758 429.122C120.265 428.243 132.96 422.368 136.203 420.072C136.854 419.611 140.058 426.924 139.63 427.345Z" fill="#603E5C"/>
<path d="M158.301 206.612C153.501 206.716 151.84 211.428 151.09 214.193C154.293 231.539 164.495 249.721 170.773 270.745C171.928 270.988 181.621 268.796 182.144 267.933C176.959 247.212 175.075 230.799 168.97 212.889C167.707 209.18 160.842 206.557 158.301 206.612Z" fill="#FFC19F"/>
<path d="M168.353 297.067C169.701 299.235 172.591 295.358 171.86 290.131C171.611 288.346 168.188 278.953 166.918 279.854C166.322 282.693 167.005 294.9 168.353 297.067Z" fill="#F29D77"/>
<path d="M183.556 292.154C184.413 293.091 186.391 291.357 186.244 289.787C186.111 288.365 185.487 285.853 186.245 286.441C187.61 287.502 188.394 285.862 188.274 283.586C188.03 278.945 183.55 269.078 181.796 265.903C179.953 262.566 173.579 264.121 170.398 266.196C168.985 268.004 167.743 272.628 166.916 280.004C169.23 285.748 170.673 292.754 172.316 296.203C176.593 304.09 178.403 308.006 179.53 307.132C182.486 304.837 178.77 298.25 176.958 294.243C176.047 291.589 175.376 288.487 175.106 285.177C176.548 287.311 179.81 297.542 181.318 300.553C182.992 301.88 183.489 294.378 182.541 291.592C181.631 288.915 180.534 285.741 179.994 283.28C181.195 285.103 182.754 290.131 183.556 292.154Z" fill="#FFC19F"/>
<path d="M171.082 278.608C171.082 278.608 171.201 278.602 171.305 278.527C171.411 278.452 171.462 278.337 171.462 278.337C171.462 278.337 171.342 278.343 171.238 278.418C171.133 278.493 171.082 278.608 171.082 278.608Z" fill="#FFC19F"/>
<path d="M60.1807 211.513C61.0395 210.982 62.179 209.684 63.2576 208.167C65.4128 205.133 65.2014 201.004 62.8642 198.11C51.9493 184.6 34.6147 172.002 22.7828 153.665C21.6082 153.879 13.6945 160.59 13.5781 161.618C24.4062 180.518 33.9046 195.243 47.7218 209.131C50.6195 212.048 57.054 213.451 60.1807 211.513Z" fill="#FFC19F"/>
<path d="M27.3039 151.081C27.3418 157.884 28.0593 161.839 26.0499 164.648C24.1015 167.372 20.1723 169.054 15.7454 167.267C10.6785 165.22 4.81108 159.626 1.53107 151.449C-1.50516 139.601 7.12704 135.318 15.8386 141.072C16.1886 140.927 21.0735 143.994 21.2582 144.332C23.1245 147.74 25.5928 150.015 27.3039 151.081Z" fill="#FFC19F"/>
<path opacity="0.21" d="M18.7904 160.809C16.7238 161.501 11.3753 158.857 6.76927 158.123C5.93172 156.953 2.91304 151.811 2.39223 150.582C-0.261702 137.608 7.07031 133.96 14.6738 141.694C15.1235 141.48 16.7617 145.416 17.0008 145.858C18.5716 148.769 21.9033 152.761 23.3993 152.451C20.146 153.969 17.6371 156.567 18.7904 160.809Z" fill="#7F1405"/>
<path opacity="0.21" d="M11.9442 147.709C13.8095 146.441 18.3057 143.62 20.1766 143.164C21.0132 142.96 21.5802 142.762 21.7519 142.787C22.2099 143.854 22.607 144.953 22.7917 145.626C23.584 147.735 25.6746 153.806 23.4732 153.669C22.4768 153.607 21.3936 153.561 19.3981 151.453C17.5199 152.101 15.6573 152.364 14.5898 152.287C11.9285 152.096 10.5831 148.635 11.9442 147.709Z" fill="#700000"/>
<path d="M25.5066 155.579C27.5077 155.879 27.9167 152.601 27.19 150.666C26.4633 148.732 23.0272 143.998 21.0261 143.698C19.0251 143.398 17.1062 146.542 17.8329 148.476C19.641 149.775 22.7936 154.661 25.5066 155.579Z" fill="#FFC19F"/>
<path d="M20.5096 143.706C18.8918 143.77 14.6172 146.48 12.8203 147.702C11.5736 148.551 12.2911 150.866 14.9644 151.28C17.3875 151.655 21.7433 149.373 22.0656 149.128C23.206 148.257 21.9603 143.648 20.5096 143.706Z" fill="#FFC19F"/>
<path d="M0.398438 129.727L1.98396 127.703C2.00335 127.669 2.01997 127.657 2.04306 127.627L2.12894 127.517L2.21389 127.502C2.28407 127.452 2.34225 127.36 2.4152 127.355L19.2096 124.284C19.325 124.276 19.4118 124.343 19.4441 124.466L29.0025 161.101C29.0561 161.308 28.9305 161.54 28.7633 161.722L28.7716 161.755L27.0402 163.966L26.5462 162.073L11.1757 163.065C11.0594 163.072 10.9726 163.005 10.9412 162.882L2.1825 129.415L0.398438 129.727Z" fill="#515151"/>
<path d="M26.731 164.184L9.45549 165.298C9.33914 165.306 9.25233 165.239 9.22094 165.117L0.144577 130.437C0.0596217 130.111 0.384668 129.61 0.694939 129.591L17.4884 126.519C17.6047 126.512 17.6915 126.579 17.7229 126.702L27.2813 163.338C27.3672 163.663 27.0412 164.164 26.731 164.184Z" fill="#706F6F"/>
<path d="M1.06193 145.404C3.04822 145.272 11.9085 145.324 14.7157 145.716C16.859 146.014 15.6622 148.954 13.953 149.431C11.6869 150.066 2.49417 149.925 1.91518 149.883C-0.378611 149.719 -0.546675 145.511 1.06193 145.404Z" fill="#FFC19F"/>
<path d="M0.677933 144.325C2.40105 144.954 10.7137 145.317 13.3824 145.207C15.4204 145.122 14.5404 142.078 12.9752 141.433C10.9003 140.577 2.8526 139.833 2.30686 139.861C0.288246 139.96 -0.720136 143.814 0.677933 144.325Z" fill="#FFC19F"/>
<path d="M2.10639 150.736C4.2275 150.271 11.4099 149.85 14.4184 149.865C16.5054 149.877 15.5524 152.961 14.1516 153.389C11.1781 154.297 3.75286 155.054 3.19696 154.999C1.17003 154.8 0.692623 151.044 2.10639 150.736Z" fill="#FFC19F"/>
<path d="M3.85843 155.518C5.38578 154.829 10.8515 154.476 13.1961 154.376C14.8232 154.306 14.6884 156.703 13.21 157.637C11.6014 158.654 8.15144 159.507 5.6628 158.717C4.00248 158.191 2.48991 156.135 3.85843 155.518Z" fill="#FFC19F"/>
<path d="M140.071 76.87C137.322 60.4735 127.566 50.1101 111.996 52.0363C108.223 45.8308 96.4488 43.5546 88.186 46.1355C62.6865 54.0995 53.7126 80.6001 54.2704 90.2967C55.795 116.791 73.5238 132.141 98.2781 130.195C122.937 127.274 139.656 87.6297 140.071 76.87Z" fill="#6B1511"/>
<path d="M61.8713 101.245C64.9805 100.535 67.8228 103.643 69.786 109.023C71.9911 115.064 70.5137 118.703 69.3464 119.576C67.1284 121.232 62.152 118.659 59.5701 112.976C57.244 107.856 58.2053 102.08 61.8713 101.245Z" fill="#E8A07C"/>
<path d="M60.323 77.1319C62.722 62.8273 88.5503 61.5753 92.3465 61.2373C96.1362 60.8289 125.271 56.9654 127.279 71.3219C129.535 87.461 125.346 110.327 121.921 117.562C117.096 127.755 109.108 132.119 105.339 134.587C102.961 136.145 97.5112 138.42 91.7758 138.799C87.348 139.091 84.3505 138.21 81.8185 136.924C77.6114 134.786 69.8269 128.877 65.2291 119.219C62.5983 113.692 61.5493 101.47 60.4356 91.6162C59.9074 86.9295 59.575 81.5899 60.323 77.1319Z" fill="#FFC19F"/>
<path d="M88.1604 112.922C87.0329 112.922 85.8629 112.637 85.307 111.971C84.6458 111.185 84.8933 110.221 85.1999 109.003C85.3753 108.316 85.5757 107.536 85.6911 106.58C85.7216 106.338 85.8915 106.177 86.1824 106.198C86.4216 106.229 86.5924 106.447 86.5629 106.687C86.4345 107.699 86.2212 108.544 86.0504 109.22C85.7512 110.398 85.6191 110.985 85.9737 111.406C86.6183 112.169 88.9924 112.242 89.95 111.698C90.1587 111.578 90.4283 111.653 90.5475 111.863C90.6666 112.072 90.5945 112.34 90.3849 112.46C89.8641 112.753 89.0275 112.922 88.1604 112.922Z" fill="#C4735B"/>
<path d="M62.6393 91.2481C63.4834 89.5395 65.1649 87.7782 66.7412 87.0429C69.9769 85.5335 74.076 85.1991 76.6043 85.6529C77.4151 85.7983 78.1769 87.3383 78.296 87.8282C78.3893 88.2134 77.7069 88.5422 77.1944 88.4644C74.0437 87.9893 70.6371 87.9652 67.2399 89.3506C65.8344 89.9238 63.8758 91.3416 63.1906 91.9806C62.7908 92.3528 62.3374 91.8593 62.6393 91.2481Z" fill="#4C0B00"/>
<path d="M113.815 86.7042C112.474 85.167 110.189 83.7251 108.263 83.2769C104.309 82.3573 99.671 82.7491 96.9662 83.6418C96.0982 83.9279 95.6134 85.5827 95.5959 86.0874C95.582 86.4838 96.4186 86.6884 96.9718 86.5218C100.364 85.4985 104.148 84.8734 108.252 85.6429C109.95 85.9615 112.462 87.0153 113.376 87.5247C113.906 87.821 114.294 87.2533 113.815 86.7042Z" fill="#4C0B00"/>
<path d="M70.447 176.763C60.5728 172.257 60.8665 160.025 60.7188 138.087C61.3485 137.943 63.815 126.336 65.4753 126.05C66.0442 129.74 67.939 137.95 67.3942 142.46C65.8382 155.324 63.8095 170.632 70.447 176.763Z" fill="#6B1511"/>
<path d="M122.051 176.853C131.443 171.407 130.854 157.262 128.877 135.414C128.236 135.332 124.398 119.016 122.718 118.894C122.508 122.62 121.677 135.98 122.656 140.415C125.45 153.067 128.063 170.105 122.051 176.853Z" fill="#6B1511"/>
<path d="M109.309 54.1366C104.305 50.35 97.7778 45.341 90.709 46.1328C92.5226 49.3295 106.031 64.762 106.887 65.7316C107.503 72.0185 109.528 74.0447 112.969 78.8518C115.841 82.8662 118.816 86.587 120.822 93.0647C121.908 96.5744 121.847 107.437 121.902 107.771C122.775 105.902 122.722 95.4261 126.555 95.1724C126.688 93.1758 128.023 74.7772 126.442 68.1606C125.57 64.5138 121.71 54.8311 109.309 54.1366Z" fill="#6B1511"/>
<path fill-rule="evenodd" clip-rule="evenodd" d="M52.2732 73.2325C53.0258 85.9202 49.4992 99.6257 53.7119 111.572C58.9976 126.561 63.5205 132.431 68.8958 135.337C65.8236 125.954 62.1566 105.177 64.4163 97.4995C66.674 89.83 75.3699 83.1448 79.831 79.9806C88.6387 73.7325 97.4528 69.1708 108.083 65.9417C107.774 62.8006 100.936 42.6609 86.4335 46.3327C68.6677 50.8314 57.4111 61.7319 52.2732 73.2325Z" fill="#6B1511"/>
<path d="M122.925 105.323C124.49 105.3 132.396 103.408 133.935 103.125C133.428 97.2856 132.217 79.9315 130.953 67.6874C129.882 66.7456 117.621 58.4973 113.891 57.3916C120.569 67.2873 119.743 99.4841 122.925 105.323Z" fill="#6B1511"/>
<path d="M130.957 94.9281C126.289 93.7993 122.326 97.2118 121.403 103.25C120.358 110.076 122.035 113.932 123.579 114.78C126.513 116.39 132.433 113.354 135.05 107.183C137.408 101.623 135.519 96.0311 130.957 94.9281Z" fill="#FFC19F"/>
<path d="M126.731 100.78C126.105 101.106 123.828 110.898 124.556 111.064C127.063 111.636 129.444 110.098 130.539 107.211C131.923 103.562 130.248 98.9489 126.731 100.78Z" fill="#F29D77"/>
<path fill-rule="evenodd" clip-rule="evenodd" d="M107.49 94.4421C112.241 95.9784 114.03 101.468 111.498 104.476C110.015 106.24 107.461 106.859 104.776 107.101C100.829 107.458 97.1955 105.846 96.5473 104.056C96.2287 103.177 95.887 101.375 97.4356 98.3565C99.1984 94.9199 103.311 93.0993 107.49 94.4421Z" fill="#FBFDFF"/>
<path fill-rule="evenodd" clip-rule="evenodd" d="M111.057 95.8051C112.413 95.7134 113.378 94.0317 113.393 92.8408C112.597 95.0902 107.415 93.8317 106.967 93.8752C109.901 94.228 110.407 95.1319 111.057 95.8051Z" fill="#6C1E19"/>
<path fill-rule="evenodd" clip-rule="evenodd" d="M112.11 97.4721C113.217 97.8157 114.301 97.072 114.309 95.5561C113.671 97.4036 110.532 95.4894 110.084 95.533C110.703 95.9395 111.46 96.7989 112.11 97.4721Z" fill="#6C1E19"/>
<path fill-rule="evenodd" clip-rule="evenodd" d="M110.974 95.2876C114.197 97.8805 113.272 103.043 111.419 104.57C112.614 102.766 112.649 100.524 111.987 98.8529C111.293 97.0989 109.466 95.0237 106.046 94.4273C102.555 93.8198 98.7795 95.4469 97.0527 99.0436C99.2616 93.6004 106.436 91.6353 110.974 95.2876Z" fill="#6C1E19"/>
<path fill-rule="evenodd" clip-rule="evenodd" d="M106.427 96.5328C108.805 97.3237 110.083 99.9323 109.256 102.363C108.43 104.795 105.87 106.072 103.492 105.281C101.114 104.489 99.8778 101.877 100.664 99.4499C101.489 97.019 104.044 95.6994 106.427 96.5328Z" fill="#6C1E19"/>
<path fill-rule="evenodd" clip-rule="evenodd" d="M105.784 97.5937C106.446 97.8271 106.816 98.5596 106.583 99.2236C106.392 99.8829 105.661 100.254 104.999 100.02C104.338 99.7866 103.967 99.0532 104.201 98.3901C104.435 97.7262 105.165 97.3548 105.784 97.5937Z" fill="white"/>
<path fill-rule="evenodd" clip-rule="evenodd" d="M69.7517 98.1587C65.9934 100.534 65.4679 106.25 68.1643 108.743C69.7443 110.205 72.0261 110.348 74.3504 110.097C77.768 109.728 80.5632 107.483 80.7894 105.608C80.9002 104.685 80.8642 102.855 79.0026 100.172C76.8833 97.1169 73.0594 96.0779 69.7517 98.1587Z" fill="#FBFDFF"/>
<path fill-rule="evenodd" clip-rule="evenodd" d="M67.108 100.186C65.8263 100.377 64.6379 98.9378 64.4199 97.7802C65.5493 99.8092 70.1692 97.507 70.5949 97.457C67.916 98.409 67.5993 99.3952 67.108 100.186Z" fill="#6C1E19"/>
<path fill-rule="evenodd" clip-rule="evenodd" d="M66.4108 102.03C65.4366 102.595 64.2962 102.094 64.0293 100.617C64.9416 102.286 67.5429 99.7697 67.9686 99.7197C67.4607 100.244 66.9012 101.24 66.4108 102.03Z" fill="#6C1E19"/>
<path fill-rule="evenodd" clip-rule="evenodd" d="M66.9448 99.6237C64.6769 102.757 66.3982 107.66 68.2487 108.822C66.907 107.268 66.4702 105.073 66.7297 103.31C67.0021 101.461 68.1776 99.0894 70.9756 97.8819C73.8308 96.6484 77.3343 97.5587 79.4526 100.778C76.59 95.8325 70.139 95.2102 66.9448 99.6237Z" fill="#6C1E19"/>
<path fill-rule="evenodd" clip-rule="evenodd" d="M72.7159 99.3437C70.8395 100.554 70.2264 103.349 71.3687 105.586C72.5119 107.824 74.9174 108.613 76.7938 107.402C78.6711 106.192 79.2473 103.401 78.1411 101.16C76.9979 98.9215 74.5887 98.0908 72.7159 99.3437Z" fill="#6C1E19"/>
<path fill-rule="evenodd" clip-rule="evenodd" d="M75.0371 100.145C74.5172 100.466 74.3353 101.188 74.6539 101.746C74.9355 102.308 75.6235 102.521 76.1434 102.199C76.6632 101.878 76.8442 101.156 76.5266 100.598C76.208 100.04 75.52 99.8277 75.0371 100.145Z" fill="white"/>
<path d="M78.9045 119.504C78.9322 116.771 82.9547 117.201 89.3393 116.527C89.6735 116.492 90.9728 116.364 91.308 116.333C97.7009 115.749 101.452 114.698 102.295 117.299C103.107 119.806 100.889 124.125 97.3491 126.843C95.6795 128.125 93.6821 128.709 91.6035 128.921L91.4908 128.932C89.4104 129.13 87.352 128.975 85.4719 128.072C81.4846 126.157 78.8759 122.339 78.9045 119.504Z" fill="#701608"/>
<path d="M91.518 129.096L91.6205 129.086C93.5449 128.888 95.3345 128.403 97.077 127.046L97.3033 126.872C95.606 125.434 93.3898 124.712 91.1597 124.931C88.9343 125.151 86.9424 126.231 85.5527 127.973L85.4668 128.081L85.5868 128.139C87.563 129.129 89.5964 129.278 91.518 129.096Z" fill="#DD6B5B"/>
<path d="M99.7575 115.635C99.2034 118.099 95.4174 119.624 90.6811 120.09C85.8737 120.563 81.8208 119.976 80.6758 117.436C82.5993 116.969 85.7325 116.866 89.3347 116.485C89.669 116.45 90.9692 116.322 91.3035 116.291C95.0609 115.949 97.8783 115.461 99.7575 115.635Z" fill="white"/>
<path d="M213.339 346.265C212.968 344.497 211.949 339.483 210.831 336.66C209.974 336.507 205.38 335.876 204.719 335.854C204.78 337.549 207.583 338.522 208.507 339C207.801 339.313 204.675 339.384 205.265 340.469C205.629 341.14 208.873 341.798 209.613 342.057C209.361 342.402 206.462 343.261 206.895 343.864C207.409 344.577 207.723 344.093 210.969 343.956C211.47 343.934 207.999 345.294 207.883 346.596C207.796 347.578 208.955 347.958 209.044 347.939C210.829 347.557 213 346.266 213.339 346.265Z" fill="#F29972"/>
<path d="M214.922 348.118C216.136 346.229 219.692 343.938 221.582 343.626C226.819 349.218 235.955 359.538 248.923 368.007C244.608 370.591 238.744 373 233.438 370.743C229.209 368.944 219.703 356.314 214.922 348.118Z" fill="#FFC19F"/>
<path d="M258.05 354.253C253.898 355.412 246.598 357.396 238.957 359.649C239.442 363.901 241.477 372.804 242.615 375.924C245.813 375.67 254.193 374.944 254.781 374.861C261.378 370.23 267.515 356.144 267.756 355.82C263.147 354.759 259.758 354.234 258.05 354.253Z" fill="#FF9B06"/>
<g opacity="0.12">
<path d="M243.055 480.798C243.055 482.616 259.451 484.089 279.678 484.089C299.905 484.089 316.301 482.616 316.301 480.798C316.301 478.979 299.905 477.508 279.678 477.508C259.451 477.508 243.055 478.979 243.055 480.798Z" fill="black"/>
</g>
<path d="M271.127 467.877C271.015 469.149 259.571 469.571 259.54 468.291C259.231 455.857 256.264 421.689 255.865 416.745L273.341 419.071C272.228 431.234 271.904 459.059 271.127 467.877Z" fill="#FFC19F"/>
<path d="M289.294 467.05C289.531 468.305 301.029 467.5 300.935 466.222C300.024 453.817 297.49 420.482 297.405 415.523L280.625 418.832C282.929 430.827 287.655 458.351 289.294 467.05Z" fill="#FFC19F"/>
<path d="M252.828 403.869C253.043 417.364 253.379 433.016 253.547 436.73C257.417 437.416 270.065 437.514 274.553 437.131C274.51 432.413 274.546 425.323 274.727 419.55C274.735 419.333 275.034 418.627 275.695 418.558C276.82 418.439 277.202 419.828 277.276 420.059C278.169 422.916 279.838 431.111 281.494 437.742C285.211 438.037 298.425 436.584 302.444 435.152C301.15 424.88 299.744 413.481 298.507 403.868H252.828V403.869Z" fill="#224A66"/>
<path d="M252.733 397.919C252.711 401.87 252.823 407.217 252.995 413.172C253.141 413.171 253.281 413.198 253.428 413.189C257.648 412.935 260.862 409.31 260.608 405.09C260.359 400.947 256.854 397.793 252.733 397.919Z" fill="#0B283A"/>
<path d="M297.578 398.042C298.216 401.942 298.939 407.241 299.697 413.15C299.553 413.172 299.42 413.22 299.273 413.235C295.066 413.642 291.325 410.56 290.919 406.354C290.519 402.222 293.489 398.559 297.578 398.042Z" fill="#0B283A"/>
<g opacity="0.37">
<path d="M280.159 403.869H252.715C252.767 405.489 252.82 407.118 252.876 408.814C266.26 412.164 283.909 412.264 299.158 408.888C299.084 407.848 298.908 406.916 298.835 405.917C294.681 405.264 287.647 404.514 280.159 403.869Z" fill="black"/>
</g>
<path d="M300.571 407.552C284.97 412.502 265.636 411.776 251.867 407.051C253.354 387.736 255.533 365.137 258.049 354.252C263.573 353.129 284.875 351.578 297.749 354.815C298.678 367.428 298.555 389.404 300.571 407.552Z" fill="#FF9B06"/>
<path d="M265.1 356.167C265.085 355.544 265.308 354.071 265.56 353.417C272.17 352.871 280.388 352.751 287.239 353.011C287.302 353.277 287.546 354.52 287.57 354.798C287.984 359.591 283.943 362.671 277.555 363.223C271.165 363.775 265.221 361.106 265.1 356.167Z" fill="#C55C02"/>
<path d="M267.592 342.284L267.739 355.858C267.77 358.776 271.506 361.103 276.082 361.054C280.658 361.004 284.342 358.597 284.311 355.678L284.164 342.105L267.592 342.284Z" fill="#FFC19F"/>
<g opacity="0.19">
<path d="M267.633 346.111L267.723 356.778C274.287 356.986 281.011 352.427 284.179 349.154L284.184 343.971C279.07 344.36 272.947 345.194 267.633 346.111Z" fill="#820303"/>
</g>
<path d="M272.446 474.481C272.413 474.841 258.244 474.706 258.231 474.269C258.128 470.749 257.859 465.878 257.801 463.657L272.907 464.016C272.581 468.013 272.649 472.18 272.446 474.481Z" fill="#FFFFE3"/>
<path d="M255.518 470.044C255.726 469.254 256.164 468.251 256.503 467.336C256.753 466.657 263.383 466.71 263.416 468.337C263.425 468.755 263.41 469.123 263.379 469.457C264.514 469.458 265.744 469.434 267.043 469.376C269.867 469.25 272.397 469 274.171 468.701C274.307 471.276 274.119 475.738 274.248 478.6C274.248 478.6 244.716 484.383 240.02 480.131C238.694 478.933 246.076 473.501 255.518 470.044Z" fill="#E87903"/>
<path d="M274.205 476.806C274.21 477.443 274.222 478.057 274.246 478.601C274.246 478.601 244.714 484.384 240.018 480.132C239.831 479.963 239.82 479.709 239.961 479.39C248.137 481.092 266.861 478.103 274.205 476.806Z" fill="#982121"/>
<path d="M253.452 470.894C253.227 470.941 253.006 470.807 252.957 470.583C252.906 470.361 253.045 470.137 253.268 470.086C254.983 469.699 256.991 470.477 258.153 471.991C258.291 472.172 258.257 472.432 258.076 472.571C258.007 472.625 257.925 472.652 257.843 472.656C257.713 472.662 257.581 472.606 257.496 472.495C256.524 471.23 254.861 470.565 253.452 470.894ZM251.187 471.96C250.963 472.004 250.754 471.827 250.726 471.6C250.697 471.374 250.859 471.167 251.086 471.139C252.896 470.911 254.689 471.575 256.01 472.95C256.169 473.114 256.163 473.378 255.999 473.536C255.924 473.608 255.828 473.646 255.73 473.651C255.616 473.656 255.5 473.614 255.413 473.525C253.854 471.902 252.097 471.847 251.187 471.96ZM248.692 472.311C250.321 472.013 252.426 472.748 253.821 474.086C253.986 474.245 253.991 474.507 253.833 474.672C253.756 474.751 253.656 474.794 253.553 474.798C253.444 474.804 253.332 474.766 253.247 474.684C252.033 473.518 250.215 472.857 248.839 473.126C248.607 473.171 248.399 473.017 248.358 472.792C248.317 472.565 248.467 472.35 248.692 472.311Z" fill="#D2DAE5"/>
<path d="M288.734 474.478C288.789 474.835 302.347 473.84 302.358 473.403C302.448 469.956 302.525 464.569 302.632 462.709L287.582 464.066C288.171 468.033 288.379 472.197 288.734 474.478Z" fill="#FFFFE3"/>
<path d="M306.097 470.044C305.889 469.254 305.45 468.251 305.112 467.336C304.862 466.657 298.231 466.71 298.199 468.337C298.19 468.755 298.204 469.123 298.235 469.457C297.101 469.458 295.871 469.434 294.572 469.376C291.748 469.25 289.218 469 287.444 468.701C287.308 471.276 287.496 475.738 287.367 478.6C287.367 478.6 316.899 484.383 321.595 480.131C322.919 478.933 315.538 473.501 306.097 470.044Z" fill="#E87903"/>
<path d="M287.408 476.806C287.403 477.443 287.393 478.057 287.367 478.601C287.367 478.601 316.899 484.384 321.595 480.132C321.782 479.963 321.792 479.709 321.652 479.39C313.477 481.092 294.752 478.103 287.408 476.806Z" fill="#982121"/>
<path d="M304.119 472.495C304.034 472.606 303.902 472.662 303.772 472.656C303.69 472.653 303.608 472.625 303.539 472.571C303.358 472.432 303.324 472.172 303.462 471.991C304.622 470.478 306.632 469.699 308.347 470.086C308.569 470.137 308.709 470.36 308.658 470.583C308.607 470.805 308.388 470.941 308.161 470.894C306.752 470.565 305.089 471.23 304.119 472.495ZM306.2 473.522C306.114 473.611 305.998 473.654 305.883 473.648C305.786 473.644 305.689 473.605 305.614 473.533C305.449 473.375 305.445 473.112 305.603 472.948C306.925 471.574 308.717 470.909 310.527 471.136C310.753 471.165 310.915 471.371 310.887 471.598C310.858 471.825 310.649 472.002 310.425 471.957C309.515 471.847 307.759 471.902 306.2 473.522ZM313.254 472.79C313.214 473.015 313.005 473.17 312.773 473.124C311.399 472.856 309.579 473.516 308.365 474.682C308.28 474.764 308.168 474.803 308.059 474.797C307.958 474.793 307.856 474.75 307.779 474.671C307.621 474.507 307.626 474.244 307.791 474.085C309.184 472.747 311.29 472.012 312.918 472.309C313.145 472.35 313.295 472.565 313.254 472.79Z" fill="#D2DAE5"/>
<g opacity="0.55">
<path d="M254.377 379.328C260.799 381.18 267.003 382.356 273.003 382.761C279.961 383.231 286.656 382.677 293.193 381.213C293.024 377.487 292.875 373.93 292.724 370.524C281.202 373.316 269.006 372.729 255.626 368.77C255.192 372.079 254.775 375.631 254.377 379.328Z" fill="white"/>
</g>
<path d="M317.511 303.544C315.362 328.497 303.462 340.533 282.099 343.746C261.37 346.865 239.127 325.149 240.693 299.772C241.564 285.682 253.414 273.578 273.438 273.273C294.752 272.947 319.32 282.548 317.511 303.544Z" fill="#6B1511"/>
<path d="M254.069 292.217C254.411 294.797 249.862 327.352 246.291 327.441C242.719 327.531 239.681 317.532 238.95 306.783C238.252 296.523 239.585 289.652 245.493 286.855C248.722 285.325 253.661 289.137 254.069 292.217Z" fill="#6B1511"/>
<path d="M303.254 298.019C304.243 301.327 300.473 334.206 295.575 340.506C291.276 346.035 281.446 352.227 266.121 352.861C254.794 353.329 244.608 344.783 243.227 336.694C242.058 329.857 242.626 321.944 242.296 312.94C242.136 308.553 240.95 299.346 242.889 293.661C245.773 285.196 257.964 281.085 274.007 281.329C288.192 281.544 299.673 286.04 303.254 298.019Z" fill="#FFC19F"/>
<path d="M291.604 300.714C291.916 312.831 295.45 327.423 300.463 327.15C303.97 326.959 313.812 319.717 316.426 309.903C318.046 303.816 318.29 296.161 315.799 289.05C312.305 279.08 304.244 274.655 298.139 278.023C293.723 280.458 291.382 292.073 291.604 300.714Z" fill="#6B1511"/>
<path d="M309.193 328.883C306.877 335.01 300.378 337.947 296.159 336.995C292.875 336.254 292.811 330.648 294.082 325.38C295.45 319.706 298.774 316.573 303.184 316.708C309.104 316.889 311.253 323.43 309.193 328.883Z" fill="#FFC19F"/>
<path d="M303.545 328.167C303.002 330.922 299.514 333.171 297.106 332.105C296.295 331.746 298.681 322.779 299.968 322.782C302.896 322.788 304.09 325.412 303.545 328.167Z" fill="#E3A07C"/>
<path d="M274.951 333.111C274.198 330.277 270.112 331.106 264.407 331.323C264.108 331.334 262.948 331.388 262.649 331.405C256.948 331.719 253.574 331.144 253.441 334.085C253.2 339.397 257.724 344.823 263.524 344.891C269.302 344.957 276.432 338.681 274.951 333.111Z" fill="#701608"/>
<path d="M258.389 343.254C259.891 344.231 261.626 344.868 263.524 344.889C265.57 344.913 267.774 344.115 269.717 342.862C268.078 341.233 265.647 340.41 263.399 340.564C261.346 340.705 259.447 341.663 258.389 343.254Z" fill="#DD6B5B"/>
<path d="M263.181 335.111C258.965 335.307 255.528 334.205 254.99 332.133L254.959 332.008C256.19 331.453 259.819 331.481 261.994 331.362C264.366 331.232 271.193 330.989 271.193 330.989L271.173 331.118C270.829 333.23 267.395 334.914 263.181 335.111Z" fill="white"/>
<path d="M288.226 330.927C288.352 332.368 286.449 333.711 283.977 333.925C281.507 334.139 279.401 333.144 279.275 331.702C279.151 330.26 281.054 328.917 283.524 328.704C285.996 328.49 288.1 329.485 288.226 330.927Z" fill="#FF8A8A"/>
<path d="M242.698 331.794C242.65 333.104 244.109 334.222 245.957 334.288C247.804 334.356 249.34 333.348 249.388 332.037C249.436 330.727 247.978 329.609 246.13 329.541C244.283 329.476 242.747 330.484 242.698 331.794Z" fill="#FF8A8A"/>
<path d="M264.305 327.635C264.138 327.64 263.988 327.522 263.955 327.352C263.729 326.147 262.755 325.387 261.476 325.414C260.19 325.442 259.229 326.261 259.085 327.451C259.062 327.642 258.887 327.778 258.697 327.756C258.506 327.733 258.37 327.559 258.393 327.368C258.577 325.844 259.839 324.754 261.461 324.718C263.072 324.682 264.351 325.688 264.64 327.222C264.676 327.412 264.551 327.593 264.363 327.63L264.305 327.635Z" fill="#C4735B"/>
<path d="M243.428 270.763C243.218 274.712 244.2 277.028 245.703 277.976C245.014 273.772 246.64 266.025 251.719 260.907C254.5 263.616 258.685 265.513 261.255 267.743C260.909 266.052 260.574 263.723 261.453 262.124C264.283 265.659 266.91 266.985 271.202 267.614C278.206 268.642 286.397 268.541 293.282 270.357C299.913 272.105 304.961 275.38 306.454 282.682C307.002 285.364 298.496 285.671 294.965 287.783C285.603 283.026 273.566 287.949 265.978 289.201C256.019 290.844 244.776 290.105 241.768 285.785C238.702 281.379 238.603 274.887 243.428 270.763Z" fill="#6B1511"/>
<path d="M254.458 316.367C256.252 319.812 256.129 323.655 254.666 325.146C252.46 327.393 247.134 328.136 245.068 325.005C243.068 321.971 243.87 316.343 246.959 313.862C249.663 311.689 252.722 313.032 254.458 316.367Z" fill="#F9FEFF"/>
<path d="M244.491 315.611C246.814 310.158 252.75 311.859 254.52 316.484C252.727 313.04 249.542 312.048 247.04 314.055C245.495 315.297 244.427 317.469 244.182 319.867C243.988 321.779 244.352 323.91 245.182 325.171C244.242 324.356 242.781 319.621 244.491 315.611Z" fill="#723C27"/>
<path d="M254.165 318.3C255.035 320.698 254.157 323.464 252.206 324.479C250.254 325.493 247.967 324.371 247.098 321.973C246.228 319.575 247.106 316.808 249.056 315.794C251.009 314.781 253.297 315.903 254.165 318.3Z" fill="#6B1511"/>
<path d="M252.623 317.664C252.846 318.293 252.621 319.019 252.121 319.287C251.62 319.554 251.034 319.259 250.812 318.63C250.59 318 250.814 317.274 251.314 317.006C251.813 316.739 252.399 317.034 252.623 317.664Z" fill="#FEFFFE"/>
<path d="M270.974 316.009C268.936 319.569 269.342 323.396 271.287 324.786C274.216 326.878 280.98 327.262 283.382 323.996C285.708 320.832 284.328 315.27 280.269 313.002C276.716 311.017 272.945 312.563 270.974 316.009Z" fill="#F9FEFF"/>
<path d="M283.496 314.581C280.209 309.295 272.834 311.393 270.904 316.13C272.94 312.572 276.894 311.366 280.179 313.2C282.21 314.335 283.698 316.432 284.164 318.808C284.533 320.702 284.213 322.854 283.248 324.169C284.382 323.292 285.913 318.468 283.496 314.581Z" fill="#723C27"/>
<path d="M281.691 317.285C282.631 319.677 281.644 322.451 279.487 323.478C277.33 324.505 274.82 323.4 273.879 321.007C272.94 318.615 273.926 315.843 276.084 314.814C278.241 313.786 280.751 314.892 281.691 317.285Z" fill="#6B1511"/>
<path d="M279.753 317.204C280.013 317.868 279.74 318.638 279.142 318.922C278.543 319.207 277.847 318.9 277.587 318.236C277.326 317.572 277.6 316.803 278.198 316.518C278.795 316.234 279.493 316.541 279.753 317.204Z" fill="#FEFFFE"/>
<path d="M253.146 300.127C249.521 298.905 245.081 300 242.387 302.729C241.845 303.278 241.868 304.206 242.414 304.777C242.708 305.084 243.096 305.227 243.474 305.208C243.801 305.193 244.096 305.029 244.368 304.796C246.345 303.108 249.65 302.227 252.365 302.885C253.107 303.065 253.864 302.708 254.082 301.948C254.297 301.187 253.876 300.373 253.146 300.127Z" fill="#4C0B00"/>
<path d="M286.192 301.773C282.692 298.557 275.744 297.944 271.284 299.771C270.544 300.073 270.145 300.88 270.422 301.633C270.695 302.384 271.523 302.725 272.284 302.496C276.643 301.184 281.78 301.937 284.248 303.928C284.537 304.161 284.869 304.3 285.213 304.301C285.612 304.303 286.01 304.143 286.297 303.823C286.833 303.229 286.782 302.316 286.192 301.773Z" fill="#4C0B00"/>
<path d="M283.424 379.44C287.188 382.343 294.255 385.755 298.807 387.129C303.12 378.734 306.043 373.507 306.568 371.046C307.53 366.524 305.715 361.33 304.034 358.754C302.434 356.304 298.55 355.098 297.75 354.817C295.237 358.862 290.702 365.106 289.896 366.756C287.952 370.735 285.204 376.024 283.424 379.44Z" fill="#FF9B06"/>
<path d="M255.864 360.018C256.846 358.787 258.672 357.633 258.955 356.843C258.447 355.885 256.977 354.994 255.888 354.483C252.251 352.779 246.197 349.948 245.212 349.628C244.187 350.17 244.401 351.734 245.024 352.492C246.27 354.01 249.218 355.421 251.423 356.808C252.071 357.214 253.345 358.439 255.864 360.018Z" fill="#FFC19F"/>
<path d="M257.327 359.495C259.388 360.85 262.728 362.967 263.441 363.873C264.598 365.341 262.14 370.545 260.972 369.493C258.368 365.728 256.197 365.152 254.473 364.798C254.814 363.964 256.451 359.881 257.327 359.495Z" fill="#F29D77"/>
<path d="M256.387 354.739C254.951 354.947 253.024 356.08 251.705 356.976C251.974 357.181 252.439 357.509 253.131 357.975C254.652 357.276 257.092 356.171 257.911 355.718C257.436 355.343 256.906 355.012 256.387 354.739Z" fill="#F29D77"/>
<path d="M249.943 363.094C250.134 363.63 250.672 364.683 251.639 364.532C252.297 365.849 253.151 366.308 253.959 365.684C254.055 367.88 257.901 367.514 258.16 366.855C258.502 365.981 258.648 365.057 258.454 364.666C258.075 363.905 257.333 364.148 256.926 364.733C256.793 364.924 256.688 365.15 256.513 365.222C256.371 365.135 256.264 364.254 256.655 364.044C257.236 363.731 257.695 363.488 258.743 363.104C260.988 365.033 258.308 368.45 260.142 370.678C261.431 372.246 264.152 372.011 265.372 370.957C267.004 369.545 267.392 366.644 267.893 365.116C265.376 362.23 259.136 356.283 257.598 355.268C255.964 354.193 250.444 358.235 250.132 358.597C249.54 359.284 249.327 360.544 249.943 363.094Z" fill="#FFC19F"/>
<path d="M252.284 359.706C252.83 359.341 253.849 358.66 254.882 358.093C254.951 358.056 255.038 358.08 255.075 358.149C255.111 358.217 255.086 358.303 255.019 358.342C253.995 358.903 252.985 359.58 252.44 359.942C252.256 360.065 252.122 360.156 252.052 360.198C251.778 360.337 251.236 362.398 251.95 365.071C251.865 365.003 251.66 364.601 251.602 364.49C251.091 362.255 251.407 360.257 251.904 359.956C251.973 359.912 252.105 359.826 252.284 359.706Z" fill="#F29D77"/>
<path d="M254.379 361.682C254.928 361.316 255.949 360.631 256.994 360.058C257.063 360.021 257.149 360.045 257.186 360.115C257.223 360.184 257.197 360.269 257.131 360.307C256.097 360.874 255.081 361.554 254.536 361.917C254.359 362.035 254.23 362.121 254.162 362.162C253.813 362.374 254.217 366.42 254.183 366.446C254.127 366.326 253.953 365.709 253.895 365.568C253.714 363.725 253.567 362.146 254.015 361.919C254.084 361.886 254.206 361.795 254.379 361.682Z" fill="#F29D77"/>
<path d="M225.288 356.598L213.613 355.26C213.255 355.213 212.965 354.947 212.886 354.594L203.993 314.529C203.927 314.227 204.179 313.951 204.486 313.991L216.16 315.329C216.518 315.376 216.81 315.642 216.888 315.994L225.781 356.06C225.847 356.362 225.594 356.638 225.288 356.598Z" fill="#8E8E8E"/>
<path d="M204.446 315.062L202.929 315.631L202.916 314.533L204.289 314.012L204.446 315.062Z" fill="#939393"/>
<path d="M225.499 356.566L223.982 357.136L223.826 356.101L225.342 355.517L225.499 356.566Z" fill="#939393"/>
<path d="M224.632 356.891L215.551 315.975C215.528 315.87 215.44 315.791 215.333 315.778L203.272 314.398L202.918 314.533L202.932 315.631L204.14 315.177L212.891 354.593C212.968 354.945 213.26 355.211 213.618 355.258L223.881 356.435L223.964 356.99L224.275 357.025L224.632 356.891Z" fill="#7F7F7F"/>
<path d="M223.882 357.133L212.207 355.794C211.849 355.748 211.558 355.482 211.48 355.129L202.587 315.063C202.52 314.762 202.772 314.486 203.079 314.526L214.754 315.864C215.112 315.911 215.402 316.177 215.481 316.529L224.374 356.595C224.441 356.895 224.189 357.173 223.882 357.133Z" fill="#B5B5B5"/>
<path d="M210.706 323.328C210.955 324.34 210.815 325.19 210.397 325.252C209.98 325.316 209.428 324.569 209.156 323.562C208.877 322.524 209.002 321.609 209.441 321.542C209.879 321.476 210.45 322.288 210.706 323.328Z" fill="#7C7C7C"/>
<path d="M206.051 334.397C206.832 334.417 208.793 335.153 209.854 335.812C210.562 336.251 210.849 337.648 209.547 338.047C208.536 338.356 205.864 337.236 205.672 337.14C204.063 336.327 204.671 334.362 206.051 334.397Z" fill="#FFC19F"/>
<path d="M206.233 338.161C207.063 338.122 209.228 338.73 210.175 339.146C210.898 339.463 211.397 340.744 210.039 341.356C208.984 341.833 206.018 340.933 205.823 340.865C204.57 340.431 204.583 338.239 206.233 338.161Z" fill="#FFC19F"/>
<path d="M207.019 342.185C207.77 342.016 209.111 342.057 210.133 342.164C211.024 342.259 211.573 343.78 210.395 344.388C209.459 344.871 207.573 344.939 207.377 344.888C205.54 344.422 205.959 342.426 207.019 342.185Z" fill="#FFC19F"/>
<path d="M208.175 345.994C208.557 345.581 209.979 345.038 210.736 345.23C211.295 345.373 212.011 346.343 211.517 347.027C211.203 347.462 210.452 348.087 209.442 348.263C208.256 348.469 207.284 346.957 208.175 345.994Z" fill="#FFC19F"/>
<path d="M261.996 369.711C263.088 367.749 265.949 365.518 267.817 365.088C273.395 370.339 280.925 377.878 294.401 385.511C291.255 389.499 286.899 392.967 281.514 390.905C275.573 388.631 267.284 377.588 261.996 369.711Z" fill="#FFC19F"/>
<path d="M197.802 306.898C197.939 307.229 198.298 307.402 198.635 307.311L198.724 307.281C199.084 307.131 199.255 306.72 199.106 306.36L196.667 300.47C196.517 300.107 196.102 299.948 195.744 300.086C195.385 300.236 195.214 300.648 195.361 301.009L197.802 306.898ZM203.228 305.421C203.125 305.797 203.347 306.186 203.722 306.291C203.848 306.326 203.974 306.323 204.091 306.291C204.325 306.229 204.52 306.047 204.591 305.797L206.286 299.65C206.39 299.274 206.17 298.885 205.792 298.782C205.421 298.675 205.029 298.895 204.925 299.274L203.228 305.421ZM188.829 308.906L195.035 310.362C195.153 310.387 195.27 310.384 195.379 310.355C195.621 310.289 195.822 310.096 195.883 309.834C195.972 309.453 195.737 309.074 195.357 308.985L189.152 307.529C188.774 307.444 188.392 307.676 188.304 308.057C188.214 308.437 188.45 308.816 188.829 308.906Z" fill="#B5B5B5"/>
<path d="M406.92 359.837C414.246 340.589 412.585 330.1 403.958 289.821H329.661C321.229 321.928 321.383 339.743 322.007 351.39C322.31 345.828 321.018 334.304 328.458 306.284C321.729 341.668 321.521 353.011 328.031 359.029C323.916 351.401 327.499 330.32 328.542 327.664C328.502 335.254 327.374 349.747 331.107 360.796C346.373 369.452 388.176 367.489 400.231 363.35C401.354 360.508 401.699 342.037 401.964 338.333C402.872 343.357 403.26 356.6 402.428 363.096C407.58 356.608 409.169 334.082 405.595 304.661C410.906 327.812 411.168 344.086 406.92 359.837Z" fill="#252937"/>
<path opacity="0.12" d="M410.435 480.649C410.435 482.548 391.342 484.089 367.787 484.089C344.234 484.089 325.139 482.549 325.139 480.649C325.139 478.749 344.234 477.209 367.787 477.209C391.342 477.209 410.435 478.749 410.435 480.649Z" fill="black"/>
<path d="M372.981 466.522C372.999 467.856 384.895 469.184 385.028 467.852C386.314 454.915 392.057 419.53 392.857 414.408L374.459 415.477C374.677 428.242 372.856 457.27 372.981 466.522Z" fill="#FDCAAE"/>
<path d="M361.218 466.027C361.059 467.351 349.011 467.32 349.02 465.98C349.099 452.98 349.402 418.037 349.143 412.858L366.875 415.131C365.314 427.803 362.317 456.84 361.218 466.027Z" fill="#FDCAAE"/>
<path d="M371.236 473.68C371.251 474.057 386.051 474.647 386.088 474.191C386.378 470.521 386.909 465.451 387.083 463.135L371.294 462.731C371.427 466.921 371.142 471.269 371.236 473.68Z" fill="#FCF6B4"/>
<path d="M390.362 469.408C390.144 468.582 389.686 467.535 389.334 466.577C389.072 465.867 382.141 465.922 382.107 467.626C382.099 468.061 382.113 468.446 382.147 468.796C380.961 468.797 379.675 468.773 378.318 468.712C375.366 468.581 372.722 468.318 370.868 468.008C370.725 470.699 370.922 475.363 370.789 478.354C370.789 478.354 401.656 484.397 406.566 479.954C407.947 478.701 400.232 473.022 390.362 469.408Z" fill="#E87903"/>
<path d="M370.83 476.476C370.822 477.141 370.813 477.783 370.787 478.352C370.787 478.352 401.654 484.396 406.564 479.953C406.76 479.776 406.771 479.51 406.624 479.176C398.076 480.957 378.504 477.834 370.83 476.476Z" fill="#752B01"/>
<path d="M392.519 470.297C392.754 470.345 392.984 470.205 393.037 469.972C393.09 469.738 392.945 469.506 392.713 469.452C390.92 469.048 388.82 469.861 387.607 471.443C387.462 471.633 387.497 471.904 387.687 472.05C387.76 472.105 387.845 472.135 387.93 472.139C388.066 472.145 388.203 472.087 388.292 471.971C389.308 470.648 391.046 469.953 392.519 470.297ZM394.887 471.411C395.122 471.456 395.34 471.272 395.37 471.034C395.4 470.797 395.231 470.581 394.993 470.552C393.102 470.313 391.228 471.007 389.847 472.444C389.682 472.616 389.687 472.891 389.86 473.056C389.938 473.131 390.04 473.171 390.14 473.177C390.26 473.182 390.382 473.137 390.471 473.045C392.098 471.35 393.935 471.293 394.887 471.411ZM397.494 471.779C395.79 471.469 393.591 472.236 392.134 473.635C391.961 473.801 391.956 474.074 392.121 474.246C392.2 474.33 392.306 474.374 392.414 474.378C392.529 474.383 392.643 474.344 392.734 474.258C394.003 473.038 395.905 472.349 397.341 472.629C397.583 472.676 397.802 472.514 397.843 472.279C397.886 472.045 397.729 471.82 397.494 471.779Z" fill="#D2DAE5"/>
<path d="M362.064 474.082C362.029 474.457 347.821 474.289 347.782 473.833C347.468 470.243 347.043 464.627 346.812 462.693L362.601 463.144C362.24 467.323 362.289 471.68 362.064 474.082Z" fill="#FCF6B4"/>
<path d="M343.522 469.408C343.74 468.582 344.199 467.535 344.552 466.577C344.814 465.867 351.744 465.922 351.778 467.626C351.787 468.061 351.773 468.446 351.739 468.796C352.925 468.797 354.211 468.773 355.568 468.712C358.519 468.581 361.164 468.318 363.017 468.008C363.16 470.699 362.964 475.363 363.097 478.354C363.097 478.354 332.229 484.397 327.321 479.954C325.938 478.701 333.653 473.022 343.522 469.408Z" fill="#E87903"/>
<path d="M363.055 476.476C363.061 477.141 363.072 477.783 363.097 478.352C363.097 478.352 332.23 484.396 327.322 479.953C327.126 479.776 327.115 479.51 327.262 479.176C335.807 480.957 355.379 477.834 363.055 476.476Z" fill="#752B01"/>
<path d="M345.591 471.971C345.68 472.088 345.817 472.146 345.953 472.139C346.038 472.135 346.123 472.107 346.197 472.05C346.386 471.904 346.422 471.633 346.276 471.443C345.062 469.861 342.964 469.048 341.171 469.452C340.939 469.506 340.793 469.738 340.847 469.972C340.899 470.205 341.13 470.345 341.365 470.297C342.838 469.953 344.575 470.648 345.591 471.971ZM343.413 473.045C343.503 473.138 343.624 473.182 343.745 473.177C343.845 473.172 343.946 473.131 344.025 473.056C344.197 472.891 344.202 472.616 344.036 472.444C342.655 471.007 340.78 470.313 338.89 470.552C338.652 470.581 338.484 470.797 338.513 471.034C338.543 471.272 338.761 471.456 338.996 471.411C339.948 471.293 341.785 471.35 343.413 473.045ZM336.04 472.279C336.083 472.514 336.3 472.676 336.542 472.629C337.979 472.349 339.88 473.039 341.15 474.258C341.239 474.344 341.355 474.383 341.469 474.378C341.577 474.374 341.682 474.328 341.762 474.246C341.928 474.074 341.922 473.801 341.749 473.635C340.292 472.236 338.092 471.469 336.388 471.779C336.155 471.82 335.998 472.045 336.04 472.279Z" fill="#D2DAE5"/>
<path d="M345.596 401.96C360.181 406.829 384.351 406.001 396.809 399.534C396.809 399.534 392.398 355.204 390.165 345.638C379.293 346.699 359.875 348.183 349.402 349.661C348.229 361.962 346.948 384.254 345.596 401.96Z" fill="#FF9B06"/>
<path d="M382.535 348.254C382.509 347.605 382.347 346.991 382.139 346.389C375.456 346.507 365.463 347.214 358.394 348.389C358.363 348.672 358.267 348.943 358.278 349.235C358.482 354.259 364.075 358.112 370.774 357.841C377.474 357.57 382.739 353.277 382.535 348.254Z" fill="#FFC19F"/>
<path d="M378.557 334.808L379.346 348.974C379.516 352.021 375.782 354.706 371.005 354.972C366.23 355.238 362.22 352.984 362.05 349.938L361.262 335.771L378.557 334.808Z" fill="#FFC19F"/>
<path d="M392.863 397.878C388.172 399.13 359.205 400.745 353.305 400.803C353.305 400.803 354.366 376.641 354.035 364.407C361.366 363.841 383.049 362.668 389.535 362.643C390.433 369.859 390.634 380.494 392.863 397.878Z" fill="#224966"/>
<path d="M359.39 366.852L357.178 366.973C356.991 366.982 356.827 366.835 356.817 366.649L356.622 363.045L355.35 363.114C355.163 363.124 354.999 362.977 354.989 362.79L354.862 360.433C354.852 360.246 354.999 360.082 355.186 360.072L360.365 359.79C360.551 359.78 360.715 359.928 360.725 360.114L360.853 362.472C360.863 362.658 360.715 362.823 360.529 362.832L359.518 362.888L359.714 366.492C359.725 366.678 359.576 366.842 359.39 366.852ZM357.484 366.269L359.01 366.186L358.815 362.582C358.805 362.395 358.952 362.231 359.139 362.221L360.149 362.166L360.059 360.493L355.565 360.737L355.656 362.409L356.928 362.34C357.114 362.33 357.279 362.477 357.288 362.664L357.484 366.269Z" fill="#BAEBF4"/>
<path d="M356.786 366.739C356.972 367.6 357.819 368.147 358.678 367.962C359.537 367.776 360.083 366.929 359.896 366.069C359.711 365.208 358.863 364.661 358.004 364.846C357.146 365.031 356.601 365.879 356.786 366.739Z" fill="#F0FCFF"/>
<path d="M386.954 365.285L384.743 365.405C384.556 365.415 384.392 365.268 384.382 365.081L384.186 361.477L382.914 361.546C382.728 361.556 382.564 361.409 382.554 361.222L382.426 358.865C382.416 358.678 382.564 358.514 382.75 358.503L387.929 358.221C388.116 358.211 388.28 358.358 388.29 358.545L388.417 360.904C388.427 361.091 388.28 361.255 388.093 361.265L387.083 361.32L387.278 364.924C387.288 365.109 387.141 365.273 386.954 365.285ZM385.048 364.7L386.575 364.617L386.38 361.013C386.37 360.826 386.517 360.662 386.704 360.652L387.714 360.597L387.623 358.924L383.129 359.168L383.22 360.84L384.494 360.771C384.68 360.761 384.844 360.908 384.854 361.095L385.048 364.7Z" fill="#BAEBF4"/>
<path d="M383.426 359.338C383.377 358.958 383.047 350.883 381.965 346.32L385.794 345.965C387.289 351.435 387.394 358.716 387.446 359.12L383.426 359.338Z" fill="#224966"/>
<path d="M355.851 361.12C355.8 360.702 355.331 352.458 354.752 348.809L358.548 348.341C359.41 353.183 359.816 360.457 359.871 360.901L355.851 361.12Z" fill="#224966"/>
<path d="M384.351 365.17C384.536 366.03 385.384 366.578 386.242 366.393C387.101 366.207 387.646 365.36 387.461 364.499C387.275 363.639 386.428 363.091 385.569 363.277C384.71 363.462 384.165 364.31 384.351 365.17Z" fill="#F0FCFF"/>
<path opacity="0.21" d="M367.415 383.25L375.171 384.878L382.516 382.134L381.888 370.86H367.064L367.415 383.25Z" fill="black"/>
<path d="M368.005 382.468L375.211 384.206L382.243 381.615L381.71 371L367.693 371.566L368.005 382.468Z" fill="#306484"/>
<path d="M335.869 424.876C349.901 434.773 389.389 435.977 405.032 425.372C405.032 425.372 399.796 405.744 396.946 395.845C388.794 397.974 362.424 400.461 345.13 396.618C342.119 406.901 338.708 417.382 335.869 424.876Z" fill="#224966"/>
<path opacity="0.19" d="M387.855 341.837C386.299 347.278 377.829 349.625 368.938 347.081C360.047 344.537 354.101 338.065 355.658 332.625C357.214 327.186 365.684 324.837 374.574 327.381C383.466 329.925 389.411 336.397 387.855 341.837Z" fill="#601805"/>
<path d="M405.332 317.131C404.552 324.329 398.676 329.501 393.715 329.409C388.754 329.315 387.038 323.695 386.977 316.859C386.918 310.024 390.891 304.539 395.852 304.65C402.634 304.801 406.065 310.368 405.332 317.131Z" fill="#F4B18C"/>
<path d="M328.076 299.726C326.936 326.603 350.791 338.605 372.147 335.728C393.503 332.851 406.559 312.262 400.917 286.741C397.786 272.57 385.604 264.529 363.646 266.046C347.287 267.176 329.067 276.365 328.076 299.726Z" fill="#252937"/>
<path d="M337.184 291.648C335.82 296.217 343.918 334.074 349.018 338.776C354.429 343.765 374.73 345.796 378.703 345.259C382.96 344.686 396.401 337.63 399.17 330.972C402.446 323.095 399.565 290.14 397.665 286.301C391.242 273.336 379.364 274.469 363.907 276.55C349.447 278.499 340.721 279.795 337.184 291.648Z" fill="#FDCAAE"/>
<path d="M330.634 328.761C333.583 335.857 341.393 339.478 346.677 338.002C351.96 336.526 348.246 314.733 338.271 314.189C329.963 313.738 327.862 322.091 330.634 328.761Z" fill="#FDCAAE"/>
<path d="M336.573 327.618C337.427 330.671 341.281 332.813 343.794 331.591C344.774 331.114 341.543 320.502 339.904 320.728C337.135 321.109 335.72 324.564 336.573 327.618Z" fill="#E8AB8B"/>
<path d="M350.32 328.444C350.47 330.002 352.757 331.056 355.427 330.798C358.097 330.541 360.14 329.071 359.99 327.513C359.84 325.955 357.554 324.901 354.885 325.158C352.213 325.416 350.17 326.887 350.32 328.444Z" fill="#FF9797"/>
<path d="M363.947 327.977C364.064 325.281 368.868 325.252 375.122 324.357C375.449 324.311 376.722 324.138 377.051 324.096C383.316 323.289 386.893 322.129 387.554 324.745C388.748 329.471 384.226 335.95 377.871 336.833L377.761 336.847C370.924 337.781 363.72 333.168 363.947 327.977Z" fill="#701608"/>
<path d="M370.73 335.977C372.242 334.163 374.465 332.952 376.953 332.614C379.408 332.28 381.81 332.822 383.735 334.123C382.691 335.028 381.487 335.8 380.154 336.297C379.432 336.566 378.661 336.768 377.876 336.877L377.766 336.891C376.072 337.123 374.356 337.007 372.734 336.626L372.61 336.594C371.96 336.437 371.34 336.216 370.73 335.977Z" fill="#DD6B5B"/>
<path d="M367.623 325.45L367.58 325.338C367.58 325.338 374.566 324.274 377.031 323.96C379.381 323.66 384.577 323.03 384.577 323.03L384.565 323.15C384.37 325.111 380.925 327.036 376.549 327.629C372.18 328.22 368.343 327.285 367.623 325.45Z" fill="white"/>
<path d="M391.63 322.567C391.901 323.933 393.777 324.711 395.824 324.308C397.87 323.903 399.311 322.47 399.04 321.104C398.772 319.739 396.892 318.961 394.846 319.364C392.8 319.769 391.36 321.203 391.63 322.567Z" fill="#FF9797"/>
<path d="M372.767 322.082C372.938 322.06 373.071 321.917 373.077 321.738C373.115 320.478 373.982 319.551 375.286 319.375C376.597 319.199 377.704 319.878 378.039 321.062C378.093 321.252 378.292 321.362 378.481 321.308C378.67 321.254 378.781 321.056 378.727 320.865C378.297 319.347 376.842 318.442 375.189 318.664C373.547 318.884 372.409 320.111 372.36 321.714C372.354 321.912 372.508 322.077 372.706 322.084L372.767 322.082Z" fill="#C4735B"/>
<path d="M333.154 300.797C330.507 300.491 333.16 281.303 345.25 274.202C365.237 264.215 380.249 266.214 385.95 269.041C394.246 273.153 401.658 279.685 404.926 293.118C406.875 301.13 406.456 303.872 410.825 305.299C406.454 307.06 406.22 306.181 404.68 304.134C404.912 310.78 405.448 313.939 408.302 315.62C402.9 317.655 401.451 314.625 400.472 309.416C398.836 300.707 397.379 291.055 396.27 288.914C395.629 287.676 390.158 280.678 388.213 280.812C383.971 281.105 380.807 296.404 365.81 297.64C371.526 293.759 374.359 288.786 377.026 281.83C375.922 282.653 374.83 283.627 373.767 284.785C362.577 296.988 351.517 300.862 340.865 300.985C343.691 312.042 346.658 326.138 334.792 327.83C335.852 326.198 338.149 318.321 334.364 312.795C333.024 313.826 333.634 308.214 333.154 300.797Z" fill="#252937"/>
<path d="M345.929 303.458C346.166 303.408 346.384 303.274 346.536 303.065C348.492 300.401 352.945 298.833 356.904 299.424C357.453 299.509 357.971 299.127 358.056 298.571C358.138 298.018 357.757 297.503 357.202 297.419C352.479 296.718 347.303 298.588 344.901 301.869C344.571 302.321 344.667 302.955 345.12 303.286C345.362 303.463 345.656 303.516 345.929 303.458Z" fill="black"/>
<path d="M395.779 296.298C396.045 296.269 396.3 296.133 396.468 295.897C396.784 295.46 396.686 294.85 396.249 294.534C393.071 292.241 387.773 292.061 383.655 294.104C383.171 294.345 382.974 294.931 383.213 295.413C383.455 295.899 384.042 296.095 384.522 295.853C387.974 294.137 392.525 294.249 395.104 296.115C395.307 296.264 395.547 296.322 395.779 296.298Z" fill="black"/>
<path d="M383.174 318.615C383.174 318.615 392.712 320.802 395.351 314.675C398.567 307.21 391.358 302.653 387.341 304.288C383.624 305.802 380.686 310.25 383.174 318.615Z" fill="#F9FEFF"/>
<path d="M394.775 305.79C392.741 303.519 390.373 303.041 387.971 303.666C385.513 304.306 383.283 306.757 382.877 309.025C383.872 306.396 386.061 305.185 387.45 304.619C389.663 303.715 392.851 304.525 394.557 306.802C396.076 308.828 396.444 312.129 395.263 314.869C396.841 312.9 396.895 308.158 394.775 305.79Z" fill="#773220"/>
<path d="M384.5 310.852C384.024 313.441 385.443 316.107 387.67 316.806C389.897 317.505 392.09 315.972 392.567 313.383C393.044 310.794 391.625 308.128 389.396 307.429C387.169 306.73 384.977 308.262 384.5 310.852Z" fill="black"/>
<path d="M384.719 310.039C384.587 310.758 384.98 311.497 385.599 311.691C386.217 311.885 386.824 311.46 386.957 310.741C387.089 310.022 386.695 309.284 386.077 309.089C385.459 308.895 384.852 309.321 384.719 310.039Z" fill="#FEFFFE"/>
<path d="M367.004 320.93C367.004 320.93 356.747 325.867 351.862 320.786C345.91 314.596 352.778 308.083 357.876 308.45C362.592 308.791 367.308 312.177 367.004 320.93Z" fill="#F9FEFF"/>
<path d="M349.82 312.105C351.458 309.323 354.024 308.16 356.965 308.043C359.974 307.923 363.273 309.606 364.427 311.657C362.488 309.435 359.613 308.927 357.85 308.8C355.041 308.593 351.638 310.32 350.376 313.009C349.254 315.402 349.837 318.674 352.022 320.946C349.618 319.53 348.112 315.005 349.82 312.105Z" fill="#773220"/>
<path d="M352.888 314.976C352.25 317.591 353.852 320.228 356.468 320.867C359.083 321.505 361.719 319.902 362.357 317.287C362.995 314.672 361.393 312.034 358.779 311.398C356.162 310.76 353.526 312.361 352.888 314.976Z" fill="black"/>
<path d="M353.17 314.154C352.993 314.88 353.437 315.61 354.163 315.788C354.889 315.965 355.62 315.521 355.797 314.795C355.974 314.069 355.53 313.338 354.804 313.161C354.079 312.984 353.348 313.428 353.17 314.154Z" fill="#FEFFFE"/>
<path d="M333.004 305.541C333.089 286.069 342.674 272.763 362.763 268.27C378.625 264.723 391.645 270.153 395.582 275.583C390.695 272.747 381.837 268.586 364.164 271.809C352.734 273.895 335.787 283.121 333.004 305.541Z" fill="#F49000"/>
<path opacity="0.5" d="M399.386 404.544C398.503 401.345 397.65 398.295 396.945 395.845C395.836 396.135 394.366 396.431 392.652 396.716C393.075 400.412 395.662 403.586 399.386 404.544Z" fill="black"/>
<path opacity="0.5" d="M353.059 397.887C350.287 397.577 347.608 397.168 345.129 396.617C344.338 399.319 343.519 402.031 342.691 404.701C343.842 404.912 345.049 404.906 346.259 404.637C349.729 403.863 352.248 401.161 353.059 397.887Z" fill="black"/>
<path d="M381.486 368.792C379.357 369.181 376.523 369.208 374.617 369.35C374.617 369.35 374.308 369.394 374.239 369.445C375.26 370.946 374.703 373.148 373.397 373.115C373.95 374.224 372.578 376.924 370.864 376.285C371.034 376.701 371.644 378.308 369.294 378.782C367.081 379.229 364.176 379.017 363.208 379.069C360.048 378.587 359.089 372.995 359.271 371.846C359.747 368.859 365.521 365.585 368.143 365.01C369.741 364.661 375.941 364.43 383.14 365.767C384.279 367.251 383.074 368.502 381.486 368.792Z" fill="#FDCAAE"/>
<path d="M332.719 374.918C333.889 377.09 337.128 379.71 338.582 380.064C339.702 377.975 343.1 369.675 345.378 365.384C345.422 364.989 338.435 361.376 336.94 361.916C335.638 364.938 333.305 372.85 332.719 374.918Z" fill="#FFC19F"/>
<path d="M421.823 343.626C421.561 343.892 421.145 343.917 420.855 343.698L420.78 343.634C420.493 343.349 420.489 342.883 420.772 342.594L425.441 337.856C425.728 337.564 426.192 337.573 426.484 337.847C426.773 338.134 426.777 338.599 426.492 338.889L421.823 343.626ZM417.158 340.07C417.11 340.475 416.743 340.763 416.339 340.717C416.204 340.701 416.083 340.65 415.981 340.572C415.78 340.421 415.662 340.169 415.692 339.9L416.465 333.294C416.51 332.889 416.878 332.601 417.282 332.647C417.683 332.69 417.976 333.055 417.928 333.464L417.158 340.07ZM429.709 349.086L423.138 348.059C423.014 348.038 422.903 347.99 422.808 347.918C422.598 347.759 422.481 347.493 422.525 347.217C422.589 346.814 422.965 346.539 423.367 346.602L429.938 347.629C430.335 347.695 430.616 348.069 430.551 348.471C430.488 348.874 430.11 349.149 429.709 349.086Z" fill="#FFAA00"/>
<path d="M330.129 371.253C333.62 373.689 340.331 378.96 344.042 380.754C346.511 378.485 351.321 373.951 351.749 373.504C354.197 365.442 351.605 349.68 351.597 349.259C345.725 350.512 344.192 352.427 342.798 353.543C340.127 357.173 334.565 364.729 330.129 371.253Z" fill="#FF9B06"/>
<path d="M365.789 376.815C365.946 375.33 363.818 370.792 360.835 369.871C351.726 371.659 335.333 374.308 332.728 374.921C331.652 383.389 335.455 385.03 339.154 385.188C342.998 385.352 359.569 379.359 365.789 376.815Z" fill="#FDCAAE"/>
<path d="M416 348.536L404.436 384.835C404.276 385.364 403.735 385.641 403.162 385.588H375.368C374.65 385.52 373.914 384.096 374.116 383.434L385.791 344.903C385.951 344.374 386.491 344.025 387.066 344.08L414.529 346.672C415.246 346.739 416.2 347.873 416 348.536Z" fill="#EDEDED"/>
<path d="M416.244 349L405.087 385.603C404.927 386.132 404.387 386.481 403.814 386.427L375.833 385.762C375.114 385.694 374.645 385.032 374.846 384.369L386.52 345.839C386.68 345.31 387.221 344.96 387.794 345.015L415.257 347.607C415.975 347.674 416.445 348.338 416.244 349Z" fill="#C9C9C9"/>
<path opacity="0.28" d="M383.576 355.551L382.096 360.438L414.112 356.034L415.592 351.146L383.576 355.551Z" fill="white"/>
<path opacity="0.28" d="M411.912 347.292L415.257 347.608C415.802 347.658 416.199 348.05 416.276 348.526L384.377 352.915L384.957 351.001L411.912 347.292Z" fill="white"/>
<path opacity="0.28" d="M407.139 379.043L407.66 377.327L375.642 381.732L375.123 383.45L407.139 379.043Z" fill="white"/>
<path d="M399.886 356.788C401.819 357.274 402.933 359.161 402.375 361.001C401.818 362.842 399.798 363.94 397.867 363.454C395.934 362.967 394.821 361.081 395.378 359.24C395.936 357.399 397.953 356.301 399.886 356.788Z" fill="#EFEFEF"/>
<path opacity="0.19" d="M410.032 370.063C408.381 369.512 406.573 369.525 406.271 370.211C406.065 370.68 406.556 371.628 407.712 372.24C407.144 372.136 406.683 372.205 406.426 372.492C405.946 373.031 406.305 374.158 407.222 375.311C406.242 374.707 405.354 374.503 404.904 374.867C404.453 375.232 404.416 376.318 405.611 377.96C404.777 377.36 403.86 376.944 403.443 377.275C402.932 377.681 402.646 378.824 404.115 380.543C404.767 381.307 405.421 381.878 406.029 382.294L410.032 370.063Z" fill="black"/>
<path d="M408.725 382.425C409.161 382.124 408.994 381.107 408.284 379.804C409.416 380.672 410.521 381.037 411.027 380.628C411.63 380.142 411.176 378.728 410.027 377.329C411.325 378.159 412.563 378.428 413.042 377.889C413.559 377.309 413.027 375.993 411.85 374.754C412.895 375.032 414.181 375.218 414.409 374.581C414.825 373.418 413.345 372.017 411.642 371.063C409.938 370.11 407.421 369.95 407.073 370.742C406.882 371.177 407.337 372.057 408.41 372.625C407.883 372.528 407.455 372.591 407.216 372.86C406.771 373.36 407.104 374.405 407.956 375.477C407.046 374.915 406.222 374.727 405.805 375.063C405.385 375.402 405.351 376.412 406.459 377.934C405.686 377.378 404.834 376.991 404.446 377.299C403.972 377.677 403.706 378.738 405.07 380.333C406.509 382.015 408.012 382.918 408.725 382.425Z" fill="#FDCAAE"/>
<path d="M585.173 274.123C584.334 274.934 583.276 276.506 576.67 280.949C574.624 282.326 566.405 280.362 562.164 279.083C562.869 274.614 567.856 276.071 573.666 276.112L584.613 266.053C586.686 266.386 586.12 273.212 585.173 274.123Z" fill="#E0956C"/>
<path d="M584.393 275.804C583.704 276.797 582.943 278.614 577.117 284.47C575.313 286.285 566.539 285.94 561.96 285.495C561.771 280.802 567.146 281.278 573.075 280.151L582.186 267.698C584.365 267.619 585.173 274.684 584.393 275.804Z" fill="#E0956C"/>
<path d="M583.496 277.158C583.081 278.293 582.807 280.241 578.659 287.381C577.374 289.592 568.802 291.479 564.259 292.202C562.883 287.711 568.205 286.813 573.652 284.223L579.299 269.874C581.388 269.248 583.964 275.879 583.496 277.158Z" fill="#E0956C"/>
<path d="M569.417 295.425C576.009 293.695 581.91 291.103 583.19 288.892C584.767 286.169 587.555 281.518 589.117 278.306C590.17 276.141 589.24 266.406 587.4 256.226C587.157 254.885 582.568 253.323 580.426 253.725C568.506 255.964 568.521 262.947 567.396 268.144C566.802 270.885 566.959 279.083 567.197 283.047C575.795 283.693 571.897 271.253 576.376 271.577C579.69 271.817 580.392 275.791 579.809 277.922C579.169 280.262 577.222 285.654 576.567 286.192C570.932 290.82 566.433 291.801 569.417 295.425Z" fill="#FFC19F"/>
<path d="M580.47 195.888C580.069 191.868 578.972 172.687 577.266 163.882C574.179 147.949 569.228 124.475 566.074 121.224C563.981 119.064 553.005 115.319 548.713 113.734C548.63 118.282 548.241 155.655 549.508 166.394C550.329 173.341 554.957 187.714 557.915 199.425C560.974 199.968 577.873 196.941 580.47 195.888Z" fill="#FFC19F"/>
<path d="M582.049 163.918C581.481 160.87 569.434 120.235 566.12 117.031C563.918 114.902 552.122 110.738 547.548 109.232C547.365 113.808 547.244 168.319 550.406 174.036C555.674 174.427 579.981 165.308 582.049 163.918Z" fill="#FF9B06"/>
<path d="M568.278 189.482C561.933 189.335 559.006 194.478 557.584 197.505C559.094 216.936 569.661 235.944 572.034 261.292C573.518 261.624 586.641 259.717 587.467 258.788C585.678 238.029 585.549 216.207 580.203 194.97C579.15 190.782 571.636 189.559 568.278 189.482Z" fill="#FFC19F"/>
<path d="M450.864 152.754C450.864 152.754 450.787 152.852 450.772 152.989C450.759 153.125 450.813 153.246 450.813 153.246C450.813 153.246 450.89 153.148 450.906 153.012C450.921 152.875 450.864 152.754 450.864 152.754Z" fill="#FFC19F"/>
<path d="M529.095 455.711H551.79V435.905H528.414L529.095 455.711Z" fill="#8892A0"/>
<path d="M454.617 454.594H478.752L481.041 436.332H456.907L454.617 454.594Z" fill="#8892A0"/>
<path opacity="0.11" d="M430.561 474.727C430.561 479.896 466.068 484.089 509.868 484.089C553.669 484.089 589.176 479.898 589.176 474.727C589.176 469.556 553.669 465.366 509.868 465.366C466.068 465.366 430.561 469.559 430.561 474.727Z" fill="black"/>
<path d="M455.522 446.474C456.346 444.458 471.136 446.132 471.523 446.868C472.029 447.83 473.684 450.96 476.012 450.569C476.975 450.407 478.973 449.552 479.135 449.254C479.282 448.986 479.992 449.614 479.995 450.111C480.008 452.86 480.328 463.215 480.002 463.552C476.799 465.549 476.097 464.916 473.57 466.363C469.37 468.767 466.838 470.589 463.32 471.734C457.043 473.776 451.183 473.593 445.471 473.405C438.817 473.184 434.503 471.531 434.723 468.983C435.164 463.856 442.575 461.789 450.61 454.463C453.426 451.895 454.898 448 455.522 446.474Z" fill="#305E8C"/>
<path d="M480.478 463.603C480.496 463.034 480.375 463.068 479.962 462.944C479.907 463.114 479.856 463.307 479.784 463.336C475.155 465.194 473.793 465.755 471.271 466.911C467.347 468.707 466.748 470.46 463.181 471.49C457.379 473.163 451.382 473.737 445.773 473.382C439.431 472.983 435.542 471.688 434.888 469.124C434.744 468.561 434.969 467.871 435.24 467.353C434.62 468.023 434.259 468.566 434.243 468.947C434.15 471.075 434.295 474.306 434.545 474.916C436.179 478.921 450.804 479.224 459.596 477.456C464.454 476.478 467.275 473.876 471.371 471.315C474.35 469.451 476.766 469.052 480.235 467.544C480.535 467.41 480.444 464.638 480.478 463.603Z" fill="#1C3651"/>
<path d="M442.854 459.292C442.632 459.5 442.624 459.85 442.833 460.074C443.045 460.293 443.396 460.309 443.618 460.092C445.164 458.623 454.082 458.448 459.874 462.916C459.975 462.996 460.096 463.032 460.212 463.032C460.378 463.032 460.543 462.957 460.649 462.818C460.835 462.576 460.791 462.229 460.548 462.043C454.567 457.421 444.89 457.356 442.854 459.292ZM447.224 456.195C447.012 456.414 447.017 456.764 447.237 456.978C447.448 457.194 447.799 457.189 448.021 456.97C449.413 455.542 457.296 456.185 463.498 460.337C463.594 460.401 463.697 460.432 463.805 460.432C463.984 460.432 464.162 460.345 464.265 460.188C464.438 459.933 464.368 459.588 464.113 459.421C457.884 455.246 449.312 454.059 447.224 456.195ZM466.864 456.857C460.739 451.987 451.803 451.786 450.006 453.758C449.802 453.982 449.82 454.332 450.045 454.538C450.27 454.744 450.615 454.731 450.83 454.502C452.12 453.081 460.38 453.117 466.172 457.722C466.276 457.804 466.397 457.843 466.518 457.843C466.684 457.843 466.844 457.771 466.952 457.634C467.14 457.395 467.102 457.047 466.864 456.857Z" fill="#CCCCCC"/>
<path d="M580.393 465.736C582.373 466.714 584.162 469.739 584.11 471.584C583.986 476.053 564.01 476.133 554.679 474.133C550.766 473.293 543.815 470.274 539.597 469.471C533.872 468.38 528.798 466.877 526.828 464.578C526.769 463.901 527.171 457.469 527.572 451.356C527.636 450.373 527.786 449.881 528.878 450.136C529.874 451.77 533.219 452.777 535.767 451.832C537.54 451.176 538.965 449.848 540.501 447.752C541.314 446.643 552.978 444.62 554.659 446.427C558.714 453.335 567.209 459.224 580.393 465.736Z" fill="#305E8C"/>
<path d="M584.498 476.997C584.725 476.534 584.764 474.483 584.831 472.655C584.851 472.107 584.281 471.304 584.077 470.956C584.95 475.474 565.578 475.669 554.868 473.35C550.958 472.503 546.053 469.757 541.841 468.933C536.327 467.855 528.788 466.48 526.816 464.182C526.408 464.166 526.493 464.694 526.477 465.175C526.415 467.162 526.459 468.943 526.761 469.09C532.153 471.739 538.968 472.856 542.964 474.233C546.9 475.589 550.547 477.216 554.53 478.279C561.874 480.235 583.011 480.04 584.498 476.997Z" fill="#1C3651"/>
<path d="M572.075 460.1C569.747 458.172 561.825 457.567 555.873 462.398C555.635 462.591 555.602 462.939 555.796 463.175C555.899 463.304 556.051 463.374 556.203 463.379C556.332 463.384 556.464 463.343 556.578 463.255C562.001 458.849 569.342 459.266 571.368 460.952C571.6 461.145 571.951 461.114 572.148 460.879C572.346 460.643 572.313 460.298 572.075 460.1ZM566.724 458.102C566.959 458.295 567.313 458.272 567.506 458.035C567.703 457.804 567.674 457.454 567.439 457.255C564.502 454.782 557.987 455.057 551.681 460.426C551.449 460.625 551.423 460.972 551.622 461.204C551.725 461.327 551.875 461.392 552.022 461.399C552.156 461.405 552.293 461.361 552.404 461.266C558.031 456.475 564.107 455.889 566.724 458.102ZM562.995 455.412C563.204 455.636 563.557 455.649 563.782 455.441C564.001 455.232 564.014 454.882 563.81 454.661C560.844 451.469 554.012 452.898 547.915 458.002C547.683 458.197 547.652 458.547 547.848 458.782C547.951 458.908 548.101 458.972 548.253 458.977C548.387 458.982 548.519 458.939 548.63 458.849C554.257 454.138 560.431 452.648 562.995 455.412Z" fill="#E0E0E0"/>
<path d="M518.867 285.834C518.867 285.834 516.064 287.173 515.981 285.134C515.243 279.829 511.49 279.948 510.522 284.854C510.15 286.74 507.117 285.561 507.117 285.561L507.453 263.191L519.202 263.464L518.867 285.834Z" fill="#253F66"/>
<path d="M517.353 270.296L518.657 232.559L472.541 230.037C468.163 283.173 456.003 416.019 454.24 437.843C459.374 441.802 482.321 442.564 484.347 441.259C486.585 430.551 503.294 315.059 511.476 280.913C512.844 275.196 517.258 270.965 517.353 270.296Z" fill="#253F66"/>
<path d="M514.488 274.653L516.646 231.815H558.341C558.044 278.357 554.812 420.348 554.092 440.273C548.395 443.433 525.921 441.202 524.121 439.616C523.628 429.022 517.916 319.288 515.557 281.569C515.536 281.456 514.478 275.33 514.488 274.653Z" fill="#253F66"/>
<path opacity="0.3" d="M557.804 267.783C538.029 272.684 502.63 275.539 469.57 269.184C469.8 252.193 469.95 241.148 470.218 231.226C470.218 231.226 553.387 236.07 557.079 237.434C557.442 246.062 557.28 256.234 557.804 267.783Z" fill="black"/>
<path d="M468.228 215.79C468.793 194.898 465.401 135.496 464.57 117.054C465.427 115.456 486.97 106.645 501.322 102.378C507.54 100.527 522.64 101.405 529.434 103.261C543.006 106.967 555.801 112.354 562.447 114.944C561.007 138.039 559.843 200.143 560.305 219.664C560.527 228.989 560.968 258.777 561.079 263.405C552.639 265.871 530.017 267.258 518.538 267.331C495.08 267.48 470.187 264.479 467.988 263.398C468.003 259.851 468.184 217.435 468.228 215.79Z" fill="#FF9B06"/>
<path d="M515.387 123.604C502.638 123.296 492.51 115.278 492.125 105.525C495.14 104.465 498.07 103.448 500.684 102.555C506.822 100.455 526.553 101.816 533.251 103.994C535.396 104.691 537.5 105.438 539.578 106.2C539.036 116.155 528.347 123.918 515.387 123.604Z" fill="#752B01"/>
<path d="M495.722 104.843C495.728 104.65 495.795 104.475 495.81 104.285C497.984 103.526 500.087 102.797 502 102.141C507.611 100.221 525.652 101.464 531.774 103.456C533.078 103.881 534.446 104.341 535.84 104.823C535.86 105.157 535.953 105.477 535.945 105.816C535.736 114.406 526.563 121.149 515.456 120.879C504.346 120.614 495.513 113.433 495.722 104.843Z" fill="#FFC19F"/>
<path d="M515.271 114.336C523.562 114.869 530.565 110.936 530.911 105.554L532.628 78.9629L502.603 77.0376L500.886 103.629C500.54 109.008 506.981 113.804 515.271 114.336Z" fill="#FFC19F"/>
<path opacity="0.23" d="M531.114 102.411C529.31 106.663 513.348 107.139 501.748 89.6521L502.143 84.1594C505.919 81.5082 512.948 80.8982 520.341 83.0011C525.152 84.3704 529.202 86.6406 531.964 89.2197L531.114 102.411Z" fill="#822020"/>
<path opacity="0.25" d="M560.94 154.577C560.679 165.869 560.478 177.446 560.369 187.744C534.88 192.043 493.98 190.753 467.76 187.806C467.412 178.556 466.999 165.876 466.449 154.479C493.007 155.2 533.772 156.713 560.94 154.577Z" fill="white"/>
<path d="M555.744 55.6866C552.561 55.1152 549.818 58.5925 548.07 64.4379C546.106 71.0015 547.768 74.7903 548.992 75.6474C551.315 77.2793 556.245 74.2446 558.607 68.0414C560.733 62.4509 559.5 56.3584 555.744 55.6866Z" fill="#E8A07C"/>
<path d="M545.692 10.9312C556.492 14.702 560.495 23.0981 562.524 28.0993C562.083 35.592 558.521 55.3211 558.203 57.1821C556.864 57.8873 555.367 67.8485 553.993 69.4726C553.988 69.1303 552.974 65.151 553.498 58.9324C554.564 46.2764 556.174 35.0952 554.693 31.556C553.808 29.4403 549.585 24.1097 541.24 22.2951C537.468 21.4765 543.867 14.0173 545.692 10.9312Z" fill="#252937"/>
<path d="M555.962 32.4C553.009 26.8944 542.705 18.3515 522.396 19.6822C503.093 20.946 485.714 23.556 483.6 38.2531C481.566 52.3917 492.203 75.4824 495.647 82.7074C496.63 84.7743 501.947 89.8372 504.75 91.8217C509.701 95.3274 515.999 99.0313 522.207 100.249C522.571 100.321 530.317 100.388 530.684 100.323C536.737 99.2861 546.514 90.5862 549.922 85.1269C551.086 83.2608 554.583 71.2097 555.693 62.9937C556.24 58.9449 555.143 49.4677 555.75 42.724C556.32 36.3741 556.695 33.7667 555.962 32.4Z" fill="#FFC19F"/>
<path d="M507.923 9.20911C493.461 8.56821 483.175 19.0956 479.117 25.3142C478.229 35.579 480.862 52.6519 482.114 56.4124C483.853 57.2772 490.603 68.9191 491.798 70.7827C491.84 70.4429 492.702 64.2886 492.991 57.5218C493.177 53.1976 489.927 32.1222 492.297 28.7813C493.714 26.7839 498.739 21.6695 510.22 20.8819C515.406 20.5293 510.073 12.5012 507.923 9.20911Z" fill="#252937"/>
<path d="M528.49 71.6217C527.971 71.6217 527.499 71.5471 527.143 71.3926C526.918 71.2922 526.817 71.0348 526.913 70.8109C527.014 70.5818 527.285 70.4866 527.496 70.5818C528.542 71.0529 530.958 70.4814 531.52 69.6526C531.833 69.2048 531.528 68.3091 531.144 67.1817C530.857 66.3451 530.503 65.295 530.281 64.0878C530.238 63.851 530.398 63.6168 530.64 63.573C530.896 63.5396 531.113 63.6889 531.156 63.9308C531.366 65.0711 531.693 66.0389 531.982 66.8934C532.447 68.2576 532.811 69.3283 532.256 70.1494C531.624 71.076 529.894 71.6217 528.49 71.6217Z" fill="#C4735B"/>
<path d="M502.087 41.1024C503.716 39.8617 506.026 38.7807 507.988 38.3714C511.873 37.5606 516.55 37.9339 519.495 38.6751C520.45 38.9145 520.933 41.872 520.755 42.1036C520.546 42.3739 520.13 42.4048 519.454 42.2941C515.959 41.7227 512.652 40.8759 507.882 41.5631C506.148 41.8128 504.15 42.2889 503.138 42.6055C502.748 42.7265 501.633 43.1229 501.537 43.0225C501.308 42.7806 501.501 41.5502 502.087 41.1024Z" fill="black"/>
<path d="M553.779 43.5787C552.512 42.2248 550.646 40.9791 549.004 40.4282C545.757 39.3343 541.712 39.3601 539.11 39.88C538.269 40.0473 537.546 42.9533 537.675 43.1952C537.825 43.4809 538.178 43.5401 538.77 43.4809C541.826 43.1695 544.745 42.5723 548.764 43.6096C550.225 43.9854 551.887 44.6083 552.721 44.997C553.044 45.1463 553.957 45.6224 554.048 45.5298C554.272 45.3058 554.236 44.0678 553.779 43.5787Z" fill="black"/>
<path d="M514.219 21.5484C514.123 20.4287 517.017 14.2821 514.867 10.9875C499.88 8.56288 490.146 19.3296 487.779 24.6757C487.934 32.4438 489.005 51.3519 489.248 53.2386C490.988 54.1034 492.671 58.1084 493.401 62.4841C493.739 62.8162 494 63.4416 494.607 64.0079C494.421 57.0222 493.716 47.2671 494.7 40.9326C495.667 39.3471 497.766 36.7345 498.551 35.8748C498.827 32.8325 497.851 26.5701 502.732 24.233C504.291 23.4839 509.895 21.9113 514.219 21.5484Z" fill="#252937"/>
<path d="M538.982 78.4059C538.804 75.4768 534.494 76.1332 527.571 75.7548C527.21 75.7342 525.8 75.6673 525.439 75.6518C518.513 75.3713 514.412 74.4678 513.643 77.3017C512.902 80.0327 515.527 84.5448 519.492 87.268C521.361 88.5524 523.547 89.0697 525.798 89.1856L525.919 89.1907C528.172 89.2911 530.387 89.0183 532.364 87.9475C536.561 85.6824 539.166 81.4432 538.982 78.4059Z" fill="#701608"/>
<path d="M525.899 89.3709L525.788 89.3657C523.702 89.2576 521.745 88.8329 519.794 87.4713L519.541 87.2963C521.294 85.6644 523.645 84.7687 526.061 84.8845C528.472 85.0003 530.679 86.0505 532.272 87.8445L532.367 87.9501L532.243 88.0247C530.165 89.1907 527.979 89.461 525.899 89.3709Z" fill="#DD6B5B"/>
<path d="M516.289 75.3819C517.02 77.9944 521.183 79.423 526.317 79.67C531.526 79.9171 535.865 79.0703 536.962 76.2853C534.863 75.8889 531.477 75.9687 527.572 75.7551C527.21 75.7345 525.801 75.6676 525.439 75.6521C521.369 75.4874 518.305 75.0936 516.289 75.3819Z" fill="white"/>
<path fill-rule="evenodd" clip-rule="evenodd" d="M547.863 52.3894C551.807 54.5875 552.63 60.3248 550.016 62.9734C548.482 64.5255 546.172 64.7854 543.795 64.649C540.3 64.4508 537.345 62.3299 537.019 60.4509C536.859 59.5269 536.802 57.6814 538.558 54.8835C540.561 51.6996 544.396 50.4564 547.863 52.3894Z" fill="#FBFDFF"/>
<path fill-rule="evenodd" clip-rule="evenodd" d="M550.794 53.7248C553.259 56.7672 551.759 61.7915 549.937 63.0553C551.222 61.4209 551.553 59.1893 551.199 57.4261C550.827 55.578 549.511 53.2486 546.604 52.1727C543.639 51.0737 540.123 52.1676 538.133 55.5163C540.794 50.3916 547.322 49.4392 550.794 53.7248Z" fill="#252937"/>
<path fill-rule="evenodd" clip-rule="evenodd" d="M544.823 53.9457C546.953 55.0138 547.793 57.608 546.656 59.773C545.518 61.938 542.906 62.7963 540.768 61.7428C538.63 60.6892 537.82 58.0757 538.936 55.9155C540.057 53.7432 542.677 52.868 544.823 53.9457Z" fill="#252937"/>
<path fill-rule="evenodd" clip-rule="evenodd" d="M541.502 56.102C542.112 56.4236 542.35 57.1611 542.039 57.7748C541.735 58.3761 540.98 58.6409 540.365 58.3266C539.75 58.0123 539.497 57.2601 539.828 56.6538C540.159 56.0475 540.925 55.7976 541.502 56.102Z" fill="white"/>
<path fill-rule="evenodd" clip-rule="evenodd" d="M518.59 53.931C520.312 56.8936 520.056 58.7262 519.78 59.6271C519.215 61.4623 515.614 63.2692 511.598 63.1122C508.864 63.0041 506.249 62.5099 504.654 60.8085C501.936 57.9077 503.469 52.2837 508.206 50.4974C512.369 48.9299 516.631 50.5592 518.59 53.931Z" fill="#FBFDFF"/>
<path fill-rule="evenodd" clip-rule="evenodd" d="M519.013 54.6053C517.082 51.0688 513.174 49.6222 509.669 50.4098C506.233 51.1846 504.488 53.3673 503.874 55.169C503.288 56.8858 503.438 59.1432 504.739 60.8986C502.785 59.4546 501.587 54.3016 504.718 51.5243C509.132 47.6171 516.499 49.2335 519.013 54.6053Z" fill="#252937"/>
<path fill-rule="evenodd" clip-rule="evenodd" d="M513.282 52.7145C515.726 53.7968 516.707 56.3955 515.424 58.5529C514.141 60.7104 511.165 61.5541 508.71 60.4862C506.258 59.4208 505.313 56.8004 506.568 54.6478C507.832 52.4806 510.822 51.6225 513.282 52.7145Z" fill="#252937"/>
<path fill-rule="evenodd" clip-rule="evenodd" d="M509.111 54.8679C509.736 55.2077 510.004 55.985 509.674 56.613C509.385 57.2436 508.598 57.5062 507.968 57.1741C507.338 56.8447 507.075 56.0571 507.405 55.4316C507.735 54.801 508.52 54.5462 509.111 54.8679Z" fill="white"/>
<path d="M483.309 52.3555C487.981 50.981 492.168 54.219 493.409 60.2549C494.814 67.0783 493.309 71.0473 491.788 71.9791C488.898 73.75 482.747 70.9907 479.783 64.9059C477.114 59.426 478.743 53.6965 483.309 52.3555Z" fill="#FFC19F"/>
<path d="M487.886 58.0364C488.537 58.3324 491.34 68.0825 490.61 68.2858C488.098 68.9885 485.61 67.56 484.353 64.7081C482.768 61.102 484.231 56.3711 487.886 58.0364Z" fill="#E0956C"/>
<path fill-rule="evenodd" clip-rule="evenodd" d="M493.596 16.3363C497.586 5.23757 512.735 0.303342 517.397 0.0330796C528.979 -0.638716 551.319 9.12935 558.771 10.4704C553.702 21.2757 544.52 30.5058 527.51 29.0413C511.791 27.6874 499.884 17.3608 493.596 16.3363Z" fill="#252937"/>
<path fill-rule="evenodd" clip-rule="evenodd" d="M491.802 13.5898C491.649 9.64652 497.437 2.01224 503.872 0.560547C499.834 4.80753 497.935 11.595 498.069 12.7532C498.203 13.9115 491.846 14.7172 491.802 13.5898Z" fill="#252937"/>
<path d="M540.194 156.739C541.965 156.466 542.54 160.641 539.985 162.314C538.604 163.22 531.255 165.526 528.543 167.514C525.236 168.909 513.512 176.355 512.756 174.574C513.161 173.75 521.772 160.947 525.424 158.937C528.715 157.125 537.363 157.177 540.194 156.739Z" fill="#FFC19F"/>
<path d="M566.995 145.782L565.459 143.854L565.351 143.851C565.276 143.813 565.229 143.73 565.134 143.735L543.927 143.249C543.777 143.259 543.637 143.339 543.555 143.465L518.331 181.23C518.189 181.441 518.277 181.655 518.435 181.806L519.95 183.768L521.253 181.817L541.286 180.46C541.438 180.45 541.575 180.37 541.66 180.244L564.739 145.741L566.995 145.782Z" fill="#515151"/>
<path d="M520.283 183.94L542.799 182.414C542.952 182.404 543.088 182.324 543.174 182.198L567.088 146.446C567.313 146.109 567.052 145.663 566.65 145.689L545.442 145.203C545.29 145.213 545.153 145.293 545.068 145.419L519.845 183.186C519.62 183.521 519.881 183.969 520.283 183.94Z" fill="#706F6F"/>
<path d="M541.393 153.959H547.19L552.099 146.716H546.302L541.393 153.959Z" fill="#333333"/>
<path d="M543.519 182.416C542.845 181.814 537.995 183.101 535.724 183.371C537.268 182.949 543.646 181.508 545.071 180.519C545.997 179.879 546.741 178.326 546.635 177.297C546.503 176.007 538.13 177.305 535.788 177.392C537.355 177.127 547.208 176.018 548.695 175.068C549.766 174.383 552.383 172.535 551.593 171.39C551.198 170.816 538.096 170.643 535.466 170.458C536.702 170.417 545.514 170.265 549.714 169.215C550.476 169.024 552.352 168.811 553.638 168.17C556.98 166.504 560.163 162.996 557.92 162.996C556.19 162.996 552.239 163.686 550.261 163.637C544.152 163.485 532.575 163.745 529.281 163.933C527.059 164.059 518.603 168.811 516.509 170.319C515.565 171.001 508.601 178.35 508.425 181.716C508.159 186.808 511.507 190.169 514.246 190.735C516.948 191.291 525.905 190.766 534.529 188.859C536.333 188.46 539.797 187.302 541.653 186.331C543.253 185.49 544.105 182.936 543.519 182.416Z" fill="#FFC19F"/>
<path d="M437.904 190.316C437.434 179.871 445.91 128.622 448.523 125.973C450.66 123.803 460.236 117.747 464.436 115.554C465.285 120.045 467.417 155.439 469.147 167.645C470.135 174.615 462.727 192.535 460.923 201.039C457.735 201.091 440.108 191.369 437.904 190.316Z" fill="#FFC19F"/>
<path d="M437.76 175.068C438.1 171.987 443.82 130.202 450.671 122.583C454.827 117.96 467.797 112.926 483.081 108.46C483.574 112.766 477.296 143.074 475.373 153.787C475.223 154.623 469.083 178.759 467.797 180.916C459.894 181.701 440.922 178.221 437.76 175.068Z" fill="#FF9B06"/>
<path d="M442.315 205.569C440.792 203.114 437.749 195.835 437.955 188.231C462.761 181.271 489.515 182.767 514.708 173.03C515.686 174.201 519.158 187.897 518.672 189.055C505.702 195.384 483.413 205.35 458.961 210.92C454.625 211.906 445.175 210.176 442.315 205.569Z" fill="#FFC19F"/>
</svg>
