<svg width="350" height="240" viewBox="0 0 350 240" fill="none" xmlns="http://www.w3.org/2000/svg">
<path opacity="0.17" d="M328.807 187.998H20.1275C18.1399 187.998 16.2781 189.978 15.1711 192.541L1.00644 225.546C-1.63529 231.681 1.23288 239.408 6.01314 239.369H343.802C348.632 239.33 351.45 230.438 348.658 224.342L333.688 191.531C332.581 189.046 330.744 187.998 328.807 187.998Z" fill="#732A00"/>
<path d="M21.131 160.056H12.2421V225.953H21.131V160.056Z" fill="#AA754D"/>
<path d="M58.0942 118.217H51.4039V184.114H58.0942V118.217Z" fill="#915D3A"/>
<path d="M54.0173 136.718H45.1284V202.615H54.0173V136.718Z" fill="#AA754D"/>
<path d="M101.345 118.217H94.655V184.114H101.345V118.217Z" fill="#915D3A"/>
<path d="M249.589 118.217H242.899V184.114H249.589V118.217Z" fill="#915D3A"/>
<path d="M292.839 118.217H286.149V184.114H292.839V118.217Z" fill="#915D3A"/>
<path d="M308.372 136.718H299.483V202.615H308.372V136.718Z" fill="#AA754D"/>
<path d="M340.474 160.056H331.585V225.953H340.474V160.056Z" fill="#AA754D"/>
<path d="M345.264 171.345H4.81108C2.16625 171.345 0 169.1 0 165.779V151.802H350V164.925C349.975 168.246 347.909 171.345 345.264 171.345Z" fill="#805228"/>
<path d="M329.029 117.157H20.1411C18.1522 117.157 16.2891 118.767 15.1814 120.849L1.00712 147.674C-1.63639 152.66 1.23371 158.94 6.01721 158.908H344.034C348.868 158.877 351.688 151.65 348.893 146.695L333.913 120.029C332.806 118.009 330.968 117.157 329.029 117.157Z" fill="#F1AA70"/>
<path d="M297.268 110.051C295.541 111.182 295.447 101.445 294.85 100.974C297.048 98.6496 295.729 97.5188 286.746 86.871C288.128 83.6044 290.138 82.4422 292.808 79.3013C304.744 94.3779 311.56 104.586 297.268 110.051Z" fill="#FFD5C7"/>
<path d="M259.169 116.647C285.239 117.966 296.483 117.652 298.902 117.558C295.981 111.244 296.735 86.6507 295.384 77.7932C289.291 76.4112 273.837 75.5317 265.199 77.7304C260.928 83.761 260.331 112.783 259.169 116.647Z" fill="#FF9B06"/>
<path d="M284.893 67.4595L285.678 78.1387C285.836 80.4316 282.82 82.5361 278.957 82.8187C275.062 83.1014 271.795 81.4681 271.638 79.1752L270.853 68.4646L284.893 67.4595Z" fill="#F2C8B7"/>
<path d="M309.455 89.54C305.875 95.068 297.394 99.0571 295.667 98.0519C295.667 98.0519 285.616 86.4618 295.415 77.8242C297.708 78.8921 309.455 89.54 309.455 89.54Z" fill="#FF9B06"/>
<path d="M255.117 83.5414C250.751 86.3682 251.19 92.87 252.29 93.9693C252.29 93.9693 259.891 94.9744 263.566 94.9744C266.518 94.4719 265.168 82.0337 267.743 77.228C264.225 77.5735 257.881 80.3376 255.117 83.5414Z" fill="#FF9B06"/>
<path d="M240.323 74.9974C243.464 73.9295 246.322 72.8301 246.322 72.8301C246.322 72.8301 243.715 74.4948 240.763 76.0653C241.705 78.0755 243.558 80.18 247.045 81.9389C247.641 82.2216 248.646 82.41 249.84 82.5043C251.316 80.18 252.635 78.3582 252.635 78.3582C252.635 78.3582 251.756 80.2114 250.751 82.5671C251.253 82.5985 251.756 82.5985 252.259 82.5985C253.609 79.3633 255.18 76.3166 255.18 76.3166C255.18 76.3166 254.269 79.3633 253.484 82.5985C256.122 82.5671 258.478 82.3786 258.478 82.3786C257.473 76.9762 258.101 70.8199 258.101 70.8199C258.069 69.909 256.059 67.5847 255.148 67.0508C252.667 68.2758 242.459 69.5321 240.197 69.5007C240.229 69.4693 239.349 71.9821 240.323 74.9974Z" fill="black"/>
<path d="M323.747 70.8835C320.449 70.0669 317.496 69.1874 317.496 69.1874C317.496 69.1874 320.197 70.7265 323.244 72.1085C322.208 74.4014 320.197 76.977 316.46 79.2699C315.831 79.6468 314.763 79.9609 313.507 80.2122C312.031 77.8565 310.68 76.0033 310.68 76.0033C310.68 76.0033 311.56 77.9507 312.565 80.4007C312.062 80.4949 311.497 80.5577 310.963 80.6205C309.644 77.2283 308.073 74.0559 308.073 74.0559C308.073 74.0559 308.953 77.2911 309.675 80.7462C306.911 81.0289 304.43 81.0916 304.43 81.0916C305.655 75.0296 305.152 68.3708 305.152 68.3708C305.215 67.3657 307.414 64.5702 308.356 63.9106C310.931 64.9472 321.611 65.167 323.998 64.8529C324.029 64.8215 324.877 67.4599 323.747 70.8835Z" fill="black"/>
<path d="M302.734 64.3498C303.99 63.6274 305.529 63.7844 306.628 64.6011C306.628 64.2556 306.597 63.9101 306.691 63.5332C307.225 61.6172 309.204 60.5178 311.12 61.0204C313.036 61.5544 314.135 63.5332 313.633 65.4492C313.099 67.3651 311.12 68.4645 309.204 67.9619C308.764 67.8363 308.387 67.6164 308.042 67.3651C308.073 68.6529 307.476 69.9093 306.283 70.6003C304.555 71.574 302.357 70.9772 301.383 69.2497C300.378 67.5222 301.006 65.3235 302.734 64.3498Z" fill="#EF6122"/>
<path d="M241.831 50.0584C242.49 57.6281 246.605 63.1248 249.966 63.062C253.327 62.9992 254.363 57.1256 254.269 49.9328C254.175 42.74 251.379 36.9606 248.018 37.0235C243.401 37.1177 241.171 42.9599 241.831 50.0584Z" fill="#FCC8B4"/>
<path d="M246.196 53.8273C247.17 56.7798 249.337 58.4445 251.002 57.5651C252.667 56.6856 253.232 53.5761 252.258 50.6236C251.285 47.6711 249.118 46.0064 247.453 46.8858C245.788 47.7653 245.223 50.8748 246.196 53.8273Z" fill="#E4A78E"/>
<path d="M247.359 32.2178C247.547 55.7436 263.44 72.5477 284.045 72.3906C304.618 72.2336 323.621 58.5076 320.072 31.6525C316.962 8.31517 304.744 2.78709 284.139 2.94414C263.535 3.1326 247.17 8.69209 247.359 32.2178Z" fill="#252937"/>
<path d="M251.379 19.8109C250.625 20.5647 250.248 21.6012 250.499 23.9884C252.353 41.9232 248.458 43.8706 248.521 54.9582C248.615 65.8887 255.556 72.5475 264.477 74.4321C273.209 76.2853 296.043 77.1961 307.822 54.8954C312.816 45.4411 312.439 25.7787 310.931 21.9781C305.843 9.16305 298.996 10.5137 282.254 10.6393C266.613 10.7649 259.985 11.3617 251.379 19.8109Z" fill="#FFD5C7"/>
<path d="M302.828 33.2855C301.666 40.3212 301.257 46.1634 306.189 50.0896C311.968 54.644 317.245 38.6879 317.151 27.4747C317.056 16.2929 309.078 8.06363 294.818 9.16296C287.469 9.72833 305.969 14.3769 302.828 33.2855Z" fill="#252937"/>
<path d="M288.097 59.4814C288.128 62.4339 290.547 64.821 293.499 64.7896C296.452 64.7582 298.839 62.3396 298.808 59.3871C298.776 56.4346 296.358 54.0475 293.405 54.0789C290.453 54.1103 288.066 56.5289 288.097 59.4814Z" fill="#FFC6C5"/>
<path d="M251.944 60.7068C251.976 63.6907 253.923 66.0778 256.31 66.0778C258.697 66.0464 260.613 63.6279 260.582 60.644C260.551 57.6601 258.603 55.2729 256.216 55.2729C253.829 55.3044 251.913 57.7229 251.944 60.7068Z" fill="#FFC6C5"/>
<path d="M292.463 46.4462C292.84 49.6814 289.793 52.6967 285.679 53.1992C281.532 53.7018 277.858 51.4717 277.481 48.2679C277.104 45.0328 280.15 42.0174 284.265 41.5149C288.411 41.0123 292.086 43.211 292.463 46.4462Z" fill="#F9FEFF"/>
<path d="M289.825 51.629C291.552 50.3726 292.4 48.2681 292.18 46.4778C291.803 43.3997 288.443 41.1382 284.454 41.6093C282.506 41.8292 280.307 42.5202 278.077 45.2842C279.491 42.2375 283.103 40.7927 285.993 40.8555C288.882 40.8869 292.023 42.3317 292.683 45.3156C293.248 47.9226 291.835 50.7181 289.825 51.629Z" fill="black"/>
<path d="M287.877 47.2631C288.757 49.3989 287.72 51.8489 285.584 52.7283C283.449 53.6078 280.999 52.5713 280.119 50.4355C279.24 48.2996 280.276 45.8496 282.412 44.9702C284.548 44.0907 286.998 45.1272 287.877 47.2631Z" fill="black"/>
<path d="M287.532 46.6033C287.783 47.2001 287.5 47.8911 286.903 48.1109C286.307 48.3622 285.616 48.0795 285.396 47.4827C285.144 46.886 285.427 46.1949 286.024 45.9751C286.589 45.7238 287.28 46.0065 287.532 46.6033Z" fill="#FEFFFE"/>
<path d="M252.164 46.7917C251.881 50.0269 254.488 52.9794 257.975 53.4191C261.461 53.8588 264.508 51.5974 264.791 48.3622C265.074 45.127 262.466 42.1745 258.98 41.7347C255.494 41.2636 252.447 43.5565 252.164 46.7917Z" fill="#F9FEFF"/>
<path d="M254.457 51.9113C252.981 50.6549 252.227 48.5818 252.384 46.7915C252.635 43.7134 255.462 41.3891 258.823 41.7974C260.456 41.9859 262.341 42.6455 264.257 45.3781C263.032 42.3628 259.985 40.9807 257.535 41.0436C255.117 41.1064 252.478 42.614 251.976 45.6294C251.536 48.2678 252.792 51.0318 254.457 51.9113Z" fill="black"/>
<path d="M261.367 47.5144C262.121 49.6502 261.242 52.1002 259.451 52.9796C257.661 53.8591 255.588 52.8226 254.866 50.6867C254.112 48.5509 254.991 46.1009 256.782 45.2215C258.572 44.3106 260.613 45.3471 261.367 47.5144Z" fill="black"/>
<path d="M261.085 46.824C261.304 47.4207 261.053 48.1117 260.551 48.3316C260.048 48.5829 259.483 48.3002 259.263 47.7034C259.043 47.1066 259.294 46.4157 259.797 46.1958C260.299 45.9445 260.865 46.2272 261.085 46.824Z" fill="#FEFFFE"/>
<path d="M251.662 34.2905C251.41 34.2905 251.191 34.1963 251.002 34.0078C250.688 33.6623 250.719 33.1284 251.065 32.8143C253.546 30.5528 258.038 29.8932 261.744 31.2438C262.184 31.4008 262.404 31.872 262.247 32.3117C262.09 32.7514 261.619 32.9713 261.179 32.8143C258.069 31.6835 254.206 32.2175 252.196 34.0707C252.039 34.2277 251.85 34.2905 251.662 34.2905Z" fill="#874D3C"/>
<path d="M291.678 33.9768C291.458 33.9768 291.269 33.914 291.112 33.757C289.071 31.9666 285.176 31.4955 282.098 32.6576C281.658 32.8147 281.187 32.5948 281.03 32.1865C280.873 31.7468 281.093 31.2756 281.501 31.1186C285.176 29.7051 289.699 30.3019 292.212 32.532C292.557 32.8461 292.589 33.38 292.275 33.7256C292.118 33.8826 291.898 33.9768 291.678 33.9768Z" fill="#874D3C"/>
<path d="M268.246 54.3616C268.403 54.3616 268.497 54.2673 268.528 54.1103C268.686 53.0738 269.502 52.4142 270.57 52.4142C271.669 52.4142 272.486 53.0738 272.643 54.0789C272.675 54.2359 272.832 54.3616 272.989 54.3302C273.146 54.2987 273.271 54.1417 273.24 53.9846C273.051 52.6969 271.952 51.8174 270.57 51.8174C269.188 51.8174 268.152 52.7283 267.932 54.0161C267.9 54.1731 268.026 54.3302 268.183 54.3616H268.246Z" fill="#C68C75"/>
<path d="M322.647 53.576C320.072 61.0515 312.282 65.2604 306.786 64.0982C301.258 62.9047 300.692 56.5599 302.263 49.2729C303.833 41.9859 309.55 37.0232 315.078 38.2168C322.553 39.8815 325.066 46.5403 322.647 53.576Z" fill="#FFD5C7"/>
<path d="M313.57 55.398C312.094 58.7275 308.293 59.9525 306.723 58.9788C304.964 57.8794 305.058 55.9006 305.875 52.634C306.848 48.8021 308.67 46.7604 311.277 47.7027C313.978 48.7078 315.329 51.5033 313.57 55.398Z" fill="#E4A78E"/>
<path d="M261.995 62.7167C262.812 67.0512 268.246 69.6582 274.119 68.5589C280.024 67.4595 283.668 61.3661 283.322 58.7277C282.631 53.7022 277.669 56.8431 271.732 57.6598C265.796 58.4764 261.179 58.3822 261.995 62.7167Z" fill="#5B0000"/>
<path d="M271.701 57.4712C274.748 57.0629 277.543 56.0578 279.679 55.8379C279.019 57.7539 276.161 59.607 272.517 60.298C268.874 60.9891 265.576 60.298 264.257 58.759C266.078 58.0994 268.717 57.8795 271.701 57.4712Z" fill="white"/>
<path d="M271.387 64.507C274.999 63.6903 278.423 64.0987 280.244 65.355C278.674 66.9255 276.601 68.2133 274.182 68.6845C270.853 69.3126 267.649 68.7473 265.325 67.3967C266.675 66.1403 268.811 65.0723 271.387 64.507Z" fill="#D36553"/>
<path d="M300.126 17.3931C299.812 17.927 298.556 27.6954 297.928 31.8729C297.488 34.8882 301.508 48.3943 314.135 41.8925C298.179 38.5003 315.894 24.523 300.126 17.3931Z" fill="#252937"/>
<path d="M246.887 12.2414C250.814 14.0317 255.776 11.6446 257.253 10.9222C254.3 7.49855 255.494 2.47302 259.2 1.24805C255.274 10.7965 291.897 1.97048 300.975 13.4664C300.661 13.4664 301.509 16.1676 299.184 18.272C296.891 22.8264 289.73 30.2391 275.564 30.0506C278.203 28.9199 280.841 26.7526 283.134 25.0251C282.286 25.2449 281.438 25.5905 280.496 25.6847C257.535 27.6949 246.322 21.8841 246.887 12.2414Z" fill="#252937"/>
<path d="M283.197 113.443C293.123 113.16 297.269 110.051 297.269 110.051C301.98 105.339 300.724 96.0421 297.206 99.1202C294.442 102.104 286.778 105.873 281.69 107.946C280.81 108.323 282.255 113.443 283.197 113.443Z" fill="#FFD5C7"/>
<path d="M269.251 114.951C270.413 114.48 271.952 112.564 273.24 112.187C273.272 112.187 273.334 112.187 273.397 112.187C271.513 113.82 270.602 115.831 269.377 117.401C270.79 119.725 272.455 116.27 275.093 113.569C273.774 115.422 273.146 116.804 272.172 118.029C272.015 119.568 273.02 119.82 274.12 118.689C274.968 117.809 276.193 116.05 277.669 114.417C277.857 114.323 275.502 118.626 275.879 119.631C276.381 119.945 277.386 119.6 278.14 118.281C278.548 117.558 278.8 116.71 279.899 115.265C281.25 114.449 282.506 114.826 283.574 114.04C286.401 112.061 285.49 109.549 285.05 109.046C283.888 107.79 278.171 107.853 276.224 108.544C272.926 109.706 271.23 110.24 267.963 114.197C267.618 115.202 268.686 115.202 269.251 114.951Z" fill="#FFD5C7"/>
<path d="M285.032 136.618L284.844 139.664L302.151 124.368L302.339 121.321L285.032 136.618Z" fill="#424242"/>
<path d="M285.032 136.617L284.844 139.664L213.136 137.339L213.324 134.292L285.032 136.617Z" fill="#666666"/>
<path d="M287.231 134.796L215.366 132.471L230.474 118.997L302.339 121.321L287.231 134.796Z" fill="#606060"/>
<path d="M287.168 134.796L285.001 136.586L215.272 132.471L206.98 86.0794L209.147 84.2891L281.012 86.6134L287.168 134.796Z" fill="#7C7C7C"/>
<path d="M285.001 136.586L213.105 134.293L206.98 86.0791L278.845 88.4034L285.001 136.586Z" fill="#B2B2B2"/>
<g opacity="0.4" clip-path="url(#clip0_453_9563)">
<path d="M242.71 105.021L242.713 105.13C242.713 105.09 242.714 105.033 242.72 104.963C242.713 104.981 242.709 105 242.71 105.021Z" fill="white"/>
<path fill-rule="evenodd" clip-rule="evenodd" d="M242.855 104.866C242.793 104.868 242.741 104.908 242.72 104.963C242.756 104.513 242.979 103.54 244.21 103.367L245.359 103.332L246.649 103.294L249.196 103.218C250.082 103.191 250.825 103.891 250.852 104.778L250.89 106.071C250.778 105.878 250.643 105.693 250.483 105.521C249.975 104.973 249.467 104.755 249.329 104.702C249.304 104.685 249.273 104.675 249.239 104.676L242.855 104.866Z" fill="white"/>
<path fill-rule="evenodd" clip-rule="evenodd" d="M243.233 104.311L244.703 103.842L244.15 102.552C244.315 102.3 244.358 101.989 244.265 101.698C244.097 101.17 243.529 100.878 243.001 101.047C242.472 101.216 242.179 101.783 242.348 102.311C242.44 102.601 242.657 102.83 242.937 102.94L243.233 104.311Z" fill="white"/>
<path fill-rule="evenodd" clip-rule="evenodd" d="M248.105 103.74L249.6 104.121L249.815 102.734C250.088 102.608 250.29 102.367 250.365 102.071C250.502 101.534 250.176 100.986 249.638 100.849C249.1 100.712 248.551 101.037 248.414 101.574C248.339 101.87 248.401 102.178 248.581 102.42L248.105 103.74Z" fill="white"/>
<path d="M246.907 110.305L243.888 110.395L242.901 111.403L242.715 105.19C242.715 105.19 242.713 105.169 242.713 105.13L242.71 105.021C242.709 105 242.713 104.981 242.72 104.963C242.756 104.513 242.979 103.54 244.21 103.367L242.812 103.409C241.925 103.435 241.226 104.178 241.252 105.064L241.492 113.092C241.501 113.401 241.686 113.663 241.974 113.775C242.074 113.814 242.176 113.832 242.277 113.829C242.467 113.823 242.651 113.744 242.792 113.599L244.477 111.878C244.917 111.395 245.793 110.58 246.907 110.305Z" fill="white"/>
<path d="M242.715 105.191L242.713 105.13C242.713 105.169 242.715 105.191 242.715 105.191Z" fill="white"/>
<path d="M249.493 110.198C249.469 110.217 249.439 110.229 249.405 110.23L249.388 110.231L249.348 110.232L246.906 110.305C245.793 110.58 244.917 111.394 244.477 111.878L244.519 111.835L249.449 111.688C250.336 111.661 251.035 110.918 251.009 110.032L250.976 108.946C250.678 109.514 250.177 109.973 249.493 110.198Z" fill="white"/>
<path d="M249.329 104.703C249.367 104.729 249.393 104.772 249.394 104.821L249.551 110.076C249.553 110.125 249.53 110.17 249.493 110.199C250.177 109.974 250.678 109.514 250.976 108.946L250.891 106.071C250.778 105.878 250.643 105.693 250.484 105.521C249.975 104.973 249.467 104.755 249.329 104.703Z" fill="white"/>
<path d="M248.064 108.361C248.262 108.155 248.22 107.827 247.993 107.65L247.801 107.499C247.669 107.396 247.477 107.425 247.383 107.563C246.855 108.297 246.36 108.711 245.627 108.601C245.152 108.53 244.763 108.298 244.64 108.217C244.612 108.199 244.582 108.185 244.549 108.178C244.44 108.153 244.328 108.206 244.279 108.306L244.217 108.432C244.13 108.607 244.174 108.822 244.34 108.928C245.103 109.412 246.6 109.886 248.064 108.361Z" fill="white"/>
<path d="M243.721 106.809C243.644 106.944 243.69 107.112 243.814 107.207L243.828 107.219C243.847 107.233 243.868 107.245 243.89 107.252L243.898 107.255C243.992 107.289 244.097 107.252 244.15 107.168C244.155 107.158 244.241 106.973 244.401 106.846C244.615 106.676 244.882 106.682 245.194 106.864C245.301 106.926 245.439 106.871 245.472 106.751L245.516 106.592C245.56 106.433 245.474 106.264 245.314 106.222C244.396 105.985 243.957 106.396 243.721 106.809Z" fill="white"/>
<circle cx="247.32" cy="106.348" r="0.594697" transform="rotate(-10.4174 247.32 106.348)" fill="white"/>
</g>
<path opacity="0.15" d="M260.093 87.8066L251.456 87.5239L270.333 136.114L278.97 136.397L260.093 87.8066Z" fill="white"/>
<path opacity="0.15" d="M264.742 87.9639L283.619 136.554L285.001 136.586L284.027 128.985L268.103 88.0581L264.742 87.9639Z" fill="white"/>
<path opacity="0.15" d="M229.72 134.827L232.767 134.921L213.858 86.2993L210.812 86.2051L229.72 134.827Z" fill="white"/>
<path d="M119.625 82.0967C120.85 83.4473 123.049 84.9236 123.206 86.0857C116.138 92.1163 104.894 99.3405 89.4717 94.5663C88.4038 91.551 90.6024 88.0645 89.4717 85.0806C102.695 89.8234 110.359 86.3684 119.625 82.0967Z" fill="#FFD5C7"/>
<path d="M43.1742 104.963C43.9908 106.597 44.7761 108.198 45.4671 109.926C53.9477 104.147 62.0513 98.5872 68.773 90.0438C66.3544 87.9079 64.8468 87.3111 62.4911 85.0811C54.6073 93.3732 50.1157 98.4615 43.1742 104.963Z" fill="#FFD5C7"/>
<path d="M61.2974 117.496C65.6947 118.124 90.257 117.684 93.4921 117.496C93.4921 117.496 90.8223 101.477 89.2833 83.2908C81.9963 82.2543 72.008 80.7152 64.1242 83.7619C62.4281 98.3674 61.58 117.527 61.2974 117.496Z" fill="#FFEDD1"/>
<g clip-path="url(#clip1_453_9563)">
<path d="M72.0563 98.4659V98.611C72.0576 98.5583 72.0614 98.4819 72.0718 98.3887C72.0618 98.4124 72.0563 98.4385 72.0563 98.4659Z" fill="#FF9C06"/>
<path fill-rule="evenodd" clip-rule="evenodd" d="M72.2565 98.2654C72.1734 98.2654 72.102 98.3163 72.0718 98.3885C72.1384 97.7908 72.4739 96.5024 74.1216 96.3208H75.6538L77.375 96.3209H80.7723C81.955 96.3209 82.9172 97.2831 82.9172 98.4657V100.191C82.7754 99.9292 82.6023 99.6776 82.3966 99.4421C81.7409 98.6912 81.0725 98.3799 80.8911 98.3049C80.8579 98.2802 80.8169 98.2654 80.7724 98.2654H72.2565Z" fill="#FF9C06"/>
<path fill-rule="evenodd" clip-rule="evenodd" d="M72.7822 97.5409L74.76 96.9739L74.0738 95.2329C74.3033 94.9035 74.374 94.4901 74.2619 94.0992C74.0582 93.3888 73.3136 92.9768 72.6022 93.1808C71.8907 93.3848 71.4777 94.1287 71.6814 94.839C71.7935 95.23 72.0725 95.5431 72.4417 95.7008L72.7822 97.5409Z" fill="#FF9C06"/>
<path fill-rule="evenodd" clip-rule="evenodd" d="M79.2977 96.9739L81.2754 97.5411L81.616 95.7011C81.9852 95.5434 82.2642 95.2303 82.3763 94.8393C82.58 94.1289 82.1669 93.385 81.4555 93.181C80.744 92.977 79.9996 93.389 79.7959 94.0993C79.6838 94.4902 79.7545 94.9036 79.984 95.233L79.2977 96.9739Z" fill="#FF9C06"/>
<path d="M77.4391 105.675H73.4128L72.0564 106.98V98.6922C72.0564 98.6922 72.0552 98.663 72.0564 98.6112V98.4661C72.0564 98.4387 72.0619 98.4127 72.0719 98.3889C72.1385 97.7912 72.474 96.5028 74.1218 96.3213H72.2566C71.074 96.3212 70.1118 97.2834 70.1118 98.4661V109.174C70.1118 109.586 70.3476 109.943 70.7272 110.104C70.8584 110.16 70.9945 110.187 71.1287 110.187C71.3828 110.187 71.63 110.09 71.8245 109.902L74.1388 107.675C74.7442 107.048 75.9443 105.998 77.4391 105.675Z" fill="#FF9C06"/>
<path d="M72.0563 98.6918V98.6108C72.0551 98.6627 72.0563 98.6918 72.0563 98.6918Z" fill="#FF9C06"/>
<path d="M80.8905 105.636C80.8574 105.661 80.8167 105.675 80.7725 105.675H80.7494H80.6965H77.4391C75.9443 105.997 74.7442 107.048 74.1388 107.675L74.1965 107.62H80.7726C81.9553 107.62 82.9175 106.658 82.9175 105.475V104.026C82.4965 104.771 81.8113 105.364 80.8905 105.636Z" fill="#FF9C06"/>
<path d="M80.8915 98.3047C80.9408 98.3412 80.9729 98.3996 80.9729 98.4655V105.475C80.9729 105.541 80.9404 105.599 80.8906 105.636C81.8114 105.363 82.4966 104.771 82.9175 104.026V100.191C82.7757 99.929 82.6026 99.6774 82.397 99.442C81.7412 98.6911 81.0728 98.3797 80.8915 98.3047Z" fill="#FF9C06"/>
<path d="M79.059 103.131C79.3309 102.864 79.2876 102.424 78.9933 102.18L78.7423 101.971C78.5704 101.828 78.314 101.86 78.1835 102.04C77.4504 102.997 76.7738 103.529 75.8021 103.353C75.1715 103.239 74.6629 102.915 74.501 102.802C74.4647 102.777 74.4249 102.757 74.3821 102.746C74.2375 102.709 74.0868 102.775 74.0169 102.907L73.9288 103.072C73.8061 103.302 73.8565 103.59 74.0735 103.737C75.0708 104.414 77.0467 105.104 79.059 103.131Z" fill="#FF9C06"/>
<path d="M73.333 100.889C73.2244 101.066 73.2795 101.292 73.4402 101.424L73.4592 101.44C73.4837 101.46 73.5111 101.476 73.5405 101.487L73.5511 101.491C73.6752 101.539 73.816 101.495 73.8903 101.385C73.8971 101.371 74.0198 101.129 74.237 100.966C74.5294 100.748 74.8847 100.766 75.2931 101.021C75.4336 101.109 75.6193 101.04 75.6685 100.882L75.7337 100.672C75.7992 100.461 75.6913 100.232 75.4794 100.171C74.2648 99.8186 73.6641 100.349 73.333 100.889Z" fill="#FF9C06"/>
<ellipse cx="78.1481" cy="100.419" rx="0.79293" ry="0.79293" transform="rotate(-8.70619 78.1481 100.419)" fill="#FF9C06"/>
</g>
<path d="M99.4912 86.3056C95.9419 85.3319 93.7746 85.0178 89.4715 83.196C88.7177 82.8819 84.1319 82.1909 83.3781 82.0967C83.3467 82.4422 83.4409 83.73 83.4095 84.0441C84.1319 84.6095 89.0946 89.4779 89.5658 90.0119C89.817 92.0849 90.2254 93.7496 90.5395 96.231C90.6337 96.7021 94.4657 97.4246 95.5022 97.8957C96.5701 96.2938 98.7373 88.0331 99.4912 86.3056Z" fill="#C55C02"/>
<path d="M52.2515 93.4672C53.7905 92.1166 58.1879 87.7193 61.1718 84.3585C65.6005 83.1649 71.4427 81.9399 71.9767 81.8457C71.8824 82.6624 71.8824 83.4162 71.7882 84.0758C70.9087 84.4527 64.3127 90.9231 63.5275 91.4884C63.3704 92.4935 63.1192 96.7652 63.1192 97.9902C62.6166 98.4299 60.2923 100.503 59.3186 101.131C57.8424 99.4036 53.2566 95.1005 52.2515 93.4672Z" fill="#C55C02"/>
<path d="M70.4061 83.9183C70.4061 83.1645 70.6259 82.6305 71.1599 82.0023C75.3059 81.1543 79.7975 81.6254 84.7602 82.285C85.2628 82.8818 85.5769 83.2273 85.5769 83.9497C85.5769 86.4311 83.0641 88.4413 78.8866 88.4413C74.6778 88.4413 70.3746 86.4311 70.4061 83.9183Z" fill="#C55C02"/>
<path d="M83.5352 75.2809L83.2211 83.2275C83.1583 84.9236 82.0275 86.18 79.1378 86.0858C76.2482 85.9601 72.6989 84.5467 72.7617 82.8192L73.0758 74.8726L83.5352 75.2809Z" fill="#EEBBA6"/>
<path d="M115.51 57.1267C114.851 63.6284 109.637 68.4655 105.208 68.5283C100.779 68.5911 99.24 63.597 99.1458 57.4408C99.0515 51.2845 102.569 46.2276 106.998 46.1962C113.06 46.1019 116.138 51.0018 115.51 57.1267Z" fill="#FCC8B4"/>
<path d="M109.888 60.4871C108.694 63.0313 105.899 64.5703 103.669 63.8793C101.439 63.1883 100.622 60.5499 101.816 57.9743C103.009 55.3988 105.805 53.8911 108.003 54.5821C110.233 55.3045 111.082 57.9429 109.888 60.4871Z" fill="#E4A78E"/>
<path d="M109.95 37.0874C110.422 59.2312 96.0675 69.5021 75.6513 69.9732C55.2351 70.413 40.0328 60.7702 39.5617 38.6265C39.0905 16.4827 53.9473 11.0175 74.3635 10.5777C94.7797 10.1066 109.479 14.9437 109.95 37.0874Z" fill="#252937"/>
<path d="M107.249 23.2669C108.066 24.6175 107.281 30.3027 107.344 33.9776C107.595 46.2587 108.223 53.3259 108.883 59.011C110.705 74.6215 96.3504 79.6471 87.3044 80.4323C86.0795 80.5265 58.125 83.3848 53.4449 63C50.9636 52.1637 47.1944 37.8095 48.6079 33.7891C53.3193 20.1888 57.9051 13.9383 74.772 13.5614C90.5396 13.2473 100.905 12.6191 107.249 23.2669Z" fill="#FFD5C7"/>
<path d="M38.6826 62.3719C41.5722 68.6853 49.7701 72.0775 55.4553 70.8839C61.1404 69.6904 61.5801 64.2565 59.7584 58.0689C57.9366 51.8812 51.8432 47.7979 46.158 48.9915C38.3999 50.6248 35.9813 56.4041 38.6826 62.3719Z" fill="#FFD5C7"/>
<path d="M48.1367 63.6592C49.77 66.4546 53.759 67.3969 55.3609 66.5174C57.1512 65.5437 57.0256 63.8476 56.0519 61.0522C54.9212 57.817 53.0052 56.0894 50.304 57.0003C47.5399 57.9112 46.2207 60.3611 48.1367 63.6592Z" fill="#E4A78E"/>
<path d="M70.0294 65.8895C70.0922 68.8734 67.7051 71.3548 64.7212 71.4176C61.7373 71.4804 59.2559 69.0933 59.1931 66.1094C59.1303 63.1255 61.5174 60.6441 64.5013 60.5813C67.4852 60.5185 69.9666 62.9056 70.0294 65.8895Z" fill="#FFC6C5"/>
<path d="M107.093 66.0787C107.155 68.5914 105.522 70.6645 103.449 70.6959C101.376 70.7273 99.6485 68.7485 99.6171 66.2357C99.5543 63.723 101.188 61.6499 103.261 61.6185C105.334 61.5871 107.03 63.5659 107.093 66.0787Z" fill="#FFC6C5"/>
<path d="M64.1868 53.6394C63.8727 57.0002 67.1393 60.047 71.4424 60.4239C75.7455 60.8008 79.5146 58.4136 79.7973 55.0214C80.1114 51.6606 76.8448 48.6139 72.5417 48.2369C68.2386 47.86 64.5009 50.2786 64.1868 53.6394Z" fill="#F9FEFF"/>
<path d="M67.1081 58.9478C65.2549 57.6914 64.3126 55.5241 64.5011 53.671C64.7838 50.4672 68.2388 48.0172 72.3849 48.3627C74.3951 48.5512 76.7194 49.1794 79.1379 51.9748C77.5675 48.8653 73.7983 47.4833 70.783 47.6089C67.7991 47.7345 64.5325 49.3364 63.9671 52.4774C63.4332 55.1786 65.0036 58.0369 67.1081 58.9478Z" fill="#464C62"/>
<path d="M70.3117 53.4512C69.4637 55.7127 70.6258 58.2255 72.8559 59.0421C75.086 59.8588 77.6301 58.728 78.4468 56.498C79.2948 54.2365 78.1327 51.7237 75.9026 50.9071C73.6725 50.059 71.1598 51.1897 70.3117 53.4512Z" fill="#252937"/>
<path d="M70.6574 52.7606C70.4375 53.3888 70.7516 54.0798 71.3798 54.2997C72.008 54.5196 72.699 54.2055 72.9188 53.5773C73.1387 52.9491 72.8246 52.2581 72.1964 52.0382C71.5682 51.8183 70.8772 52.1325 70.6574 52.7606Z" fill="#FEFFFE"/>
<path d="M106.056 52.7285C106.433 56.0893 103.826 59.2303 100.214 59.7957C96.6016 60.361 93.3664 58.0995 92.9581 54.7387C92.5812 51.3779 95.1882 48.237 98.8003 47.6716C102.444 47.1062 105.679 49.3677 106.056 52.7285Z" fill="#F9FEFF"/>
<path d="M103.857 58.1313C105.365 56.7807 106.056 54.6135 105.836 52.7603C105.459 49.5565 102.475 47.2322 98.9887 47.7976C97.2925 48.0489 95.3766 48.7713 93.4606 51.6924C94.6541 48.52 97.7637 46.981 100.339 46.981C102.852 46.981 105.647 48.4572 106.276 51.5667C106.778 54.268 105.585 57.1576 103.857 58.1313Z" fill="#464C62"/>
<path d="M97.3552 52.8539C96.6642 55.1153 97.6379 57.6281 99.5225 58.4762C101.407 59.3242 103.543 58.1935 104.234 55.932C104.925 53.6705 103.951 51.1577 102.067 50.3097C100.151 49.493 98.0462 50.6238 97.3552 52.8539Z" fill="#252937"/>
<path d="M97.6379 52.163C97.4494 52.7912 97.7007 53.4822 98.2347 53.7335C98.7686 53.9848 99.334 53.6393 99.5539 53.0425C99.7423 52.4143 99.4911 51.7233 98.9571 51.472C98.4231 51.2207 97.8264 51.5348 97.6379 52.163Z" fill="#FEFFFE"/>
<path d="M107.846 39.0972C107.658 39.1286 107.438 39.0972 107.25 39.003C104.8 37.5582 100.748 37.8408 97.8268 39.6312C97.4185 39.8825 96.8845 39.7568 96.6333 39.3485C96.382 38.9402 96.5076 38.4062 96.916 38.1549C100.402 35.9877 105.114 35.7364 108.129 37.4953C108.537 37.7466 108.695 38.2806 108.443 38.6889C108.286 38.9087 108.066 39.0344 107.846 39.0972Z" fill="#252937"/>
<path d="M65.5063 40.1652C65.255 40.1337 65.0352 40.0081 64.8781 39.8196C64.5954 39.4427 64.6897 38.8774 65.0666 38.5947C67.8934 36.5531 72.6363 36.4274 76.2798 38.2492C76.7195 38.469 76.8766 39.003 76.6567 39.4113C76.4368 39.8511 75.9343 40.0081 75.4945 39.7883C72.4164 38.2492 68.3646 38.3434 66.0717 39.9767C65.9146 40.1338 65.6948 40.1652 65.5063 40.1652Z" fill="#252937"/>
<path d="M86.2365 68.7792C87.8698 68.7478 89.2204 68.0254 89.9428 66.8004C90.0685 66.5805 90.0057 66.2978 89.7858 66.1722C89.5659 66.0465 89.2832 66.1094 89.1576 66.3292C88.498 67.46 87.0846 67.9939 85.4199 67.8055C83.5981 67.5856 81.4623 66.3606 80.8341 64.1934C80.7713 63.9421 80.52 63.8165 80.2687 63.8793C80.0174 63.9421 79.8918 64.1934 79.9546 64.4447C80.677 67.0202 83.1584 68.4651 85.2942 68.7478C85.6083 68.7792 85.9224 68.7792 86.2365 68.7792Z" fill="#994E37"/>
<path d="M90.5083 61.9005C90.3513 61.9005 90.2257 61.8062 90.1942 61.6492C90.0058 60.5813 89.1263 59.9217 87.9956 59.9531C86.8648 59.9845 86.0168 60.7069 85.8911 61.7434C85.8597 61.9005 85.7027 62.0261 85.5456 62.0261C85.3886 61.9947 85.2629 61.8376 85.2629 61.6806C85.42 60.33 86.5507 59.3877 87.9642 59.3563C89.3776 59.3249 90.5083 60.2044 90.7596 61.555C90.791 61.712 90.6654 61.8691 90.5083 61.9005Z" fill="#C68C75"/>
<path d="M42.703 28.7012C46.5978 22.5449 50.3355 18.9328 54.1675 19.8437C54.0104 19.1213 53.9476 18.3989 54.0104 17.7079C54.7328 9.98112 68.0819 5.39533 83.7867 7.43695C99.4914 9.47857 111.647 17.3624 110.893 25.0891C110.171 32.7844 96.8216 37.4017 81.1169 35.3914C71.3799 34.1351 63.025 30.6172 58.2507 26.3141C58.3449 29.832 56.9315 47.9867 54.9841 52.5096C48.2939 46.9502 43.7395 48.9604 42.8286 48.9918C39.6248 48.9604 38.2114 35.8312 42.703 28.7012Z" fill="#252937"/>
<path d="M42.9855 13.0901C51.5603 11.0485 54.5756 13.4984 57.7166 17.0163C54.6698 7.71907 48.7648 3.10187 42.9855 13.0901ZM55.8006 10.4517C56.9941 6.4941 59.0043 3.1647 63.4017 1.78268C56.0518 -3.02299 50.9321 2.56791 55.8006 10.4517Z" fill="#252937"/>
<path d="M32.5887 126.321L75.3371 127.232L81.462 112.564H41.6347L32.5887 126.321Z" fill="#3F98BD"/>
<path d="M80.1745 117.809L75.3374 127.232L75.9028 132.509L81.8392 117.715L80.1745 117.809Z" fill="#2C7A91"/>
<path d="M80.9597 113.884L75.3374 127.233L75.7771 131.285L80.9597 118.407V113.884Z" fill="#ACCBFF"/>
<path d="M32.5887 126.321L75.3371 127.232L75.9025 132.509L33.7823 131.692L32.5887 126.321Z" fill="#2C7A91"/>
<path d="M66.2601 126.95L73.5786 112.627H74.6151L67.2024 127.138L67.5793 132.289L67.1396 132.321H66.6685L66.2601 126.95Z" fill="#72524E"/>
<path d="M38.3995 126.51L46.7545 112.47H47.791L39.3418 126.667L39.7187 131.849H39.279H38.8079L38.3995 126.51Z" fill="#72524E"/>
<path d="M32.0237 116.648L72.6676 120.448L79.6406 107.036L41.7606 104.021L32.0237 116.648Z" fill="#A0AAF7"/>
<path d="M78.0071 111.811L72.6675 120.448L72.7303 125.505L79.609 111.842L78.0071 111.811Z" fill="#8D8CDD"/>
<path d="M79.075 108.135L72.6675 120.447L72.7303 124.342L78.6981 112.438L79.075 108.135Z" fill="#DAECEF"/>
<path d="M32.0236 116.647L72.6675 120.448L72.7303 125.504L32.7146 121.83L32.0236 116.647Z" fill="#8D8CDD"/>
<path d="M64.0299 119.569L72.1335 106.439L73.1072 106.502L64.9093 119.789L64.8465 124.751H64.4068L63.967 124.688L64.0299 119.569Z" fill="#A34876"/>
<path d="M37.5517 117.212L46.6291 104.429L47.6028 104.492L38.4312 117.432L38.3998 122.395L37.9286 122.364L37.4889 122.332L37.5517 117.212Z" fill="#A34876"/>
<path d="M67.108 122.773C67.108 123.432 67.6734 123.935 68.3644 123.935C69.0554 123.935 69.6208 123.401 69.6208 122.773C69.6208 122.113 69.0554 121.61 68.3644 121.61C67.6734 121.61 67.108 122.144 67.108 122.773Z" fill="#A34876"/>
<path d="M40.6299 113.161C40.41 110.397 41.1324 108.606 42.4516 106.125C43.5195 104.146 44.5561 102.167 47.4143 101.633C48.1053 101.508 49.3617 101.916 50.7751 103.361C51.686 104.743 52.9424 107.318 53.1937 108.795C53.3193 109.58 53.1623 111.653 53.1623 111.653C51.6232 112.689 51.3405 108.009 49.8329 108.512C49.7072 110.114 49.6758 111.056 50.0841 111.873C50.3668 112.47 52.0315 114.982 50.4925 116.05C48.7021 114.134 47.5714 112.627 47.0688 110.02C46.9118 113.035 49.8015 116.144 47.5086 116.867C46.315 115.328 45.0272 113.443 44.6817 110.773C44.5247 111.37 44.8073 113.349 44.9016 113.6C45.3099 114.857 46.4092 116.019 44.8702 116.867C43.4567 115.108 42.7343 113.223 42.5773 111.936C42.0119 112.941 43.5824 115.673 41.6664 116.333C41.3209 115.234 40.7241 114.197 40.6299 113.161Z" fill="#FFD5C7"/>
<path d="M134.23 77.0088C132.471 78.0139 129.645 79.2389 124.713 82.317C124.148 82.6625 124.556 85.6778 125.09 85.2381C128.105 82.6625 135.204 79.8985 134.23 77.0088Z" fill="#D89882"/>
<path d="M134.042 73.8359C132.283 74.841 127.572 76.3801 123.771 80.589C123.3 81.123 123.991 83.9498 124.525 83.5101C127.509 80.9345 134.796 76.2231 134.042 73.8359Z" fill="#D89882"/>
<path d="M132.314 70.5063C130.555 71.5115 121.729 78.6728 117.929 82.8817C117.458 83.4157 120.567 87.4047 121.635 87.3104C123.991 88.504 127.257 85.6772 132.597 85.7714C133.508 85.7714 132.88 84.4208 132.534 84.1381C131.686 83.3842 131.278 83.5099 128.702 82.442C127.163 81.7824 127.195 79.8036 127.666 78.767C130.493 74.6524 133.068 72.3909 132.314 70.5063Z" fill="#FFD5C7"/>
<path d="M160.859 101.539C161.487 99.3407 160.293 97.0478 158.157 96.451C156.022 95.8543 153.791 97.142 153.163 99.3407C152.535 101.539 153.729 103.832 155.864 104.429C158 105.057 160.23 103.738 160.859 101.539Z" fill="#767676"/>
<path d="M152.849 116.019C157.121 109.518 158.283 102.765 155.456 100.911C152.629 99.0582 146.913 102.827 142.641 109.329C138.369 115.831 137.207 122.584 140.034 124.437C142.861 126.29 148.609 122.521 152.849 116.019Z" fill="#BFC8E0"/>
<path d="M177.537 101.539C176.909 99.3407 178.103 97.0478 180.238 96.451C182.374 95.8543 184.604 97.142 185.232 99.3407C185.861 101.539 184.667 103.832 182.531 104.429C180.395 105.057 178.165 103.738 177.537 101.539Z" fill="#767676"/>
<path d="M151.342 74.2445C155.645 71.7632 158.44 68.5908 157.592 67.146C156.744 65.6697 152.598 66.4864 148.295 68.9677C143.992 71.4491 141.196 74.6214 142.044 76.0663C142.892 77.5425 147.07 76.7259 151.342 74.2445Z" fill="#767676"/>
<path d="M140.16 74.2118C139.657 76.0336 140.756 77.9181 142.578 78.4207C144.4 78.9232 146.284 77.8239 146.787 76.0022C147.29 74.1804 146.19 72.2958 144.368 71.7933C142.547 71.2907 140.631 72.3901 140.16 74.2118Z" fill="#010C75"/>
<path d="M133.721 77.9505C138.872 81.4055 144.243 82.3793 145.719 80.1806C147.196 77.9505 144.243 73.3647 139.092 69.9411C133.941 66.486 128.57 65.5123 127.093 67.711C125.617 69.9097 128.57 74.4954 133.721 77.9505Z" fill="#BFC8E0"/>
<path d="M122.508 69.2502C120.56 68.8419 118.676 67.6483 117.356 65.7952C116.98 65.2612 117.105 64.5074 117.639 64.1305C118.173 63.7535 118.927 63.8792 119.304 64.4131C121.094 66.9573 124.329 67.774 126.497 66.2349C127.533 65.5125 128.161 64.3503 128.287 62.9997C128.444 61.5863 128.036 60.11 127.125 58.8537C126.748 58.3197 126.874 57.5659 127.407 57.1889C127.941 56.812 128.695 56.9377 129.072 57.4716C130.297 59.1991 130.863 61.2408 130.643 63.251C130.423 65.324 129.449 67.0829 127.847 68.2137C126.308 69.313 124.361 69.6271 122.508 69.2502Z" fill="#767676"/>
<path d="M139.312 78.2649C139.029 78.2021 138.778 78.1079 138.558 77.9508C138.087 77.6367 137.773 77.1342 137.647 76.6002C137.521 76.0348 137.647 75.4695 137.961 74.9983C138.275 74.5272 138.778 74.2131 139.343 74.0875C140.505 73.8362 141.636 74.6214 141.856 75.7836C141.981 76.349 141.856 76.9143 141.542 77.3855C141.228 77.8566 140.725 78.1707 140.16 78.2963C139.877 78.3277 139.594 78.3278 139.312 78.2649ZM140.097 74.59C139.877 74.5586 139.657 74.5586 139.437 74.59C138.558 74.7785 137.992 75.6265 138.149 76.506C138.244 76.9457 138.464 77.2912 138.84 77.5425C139.186 77.7938 139.626 77.8566 140.065 77.7938C140.505 77.6996 140.851 77.4483 141.102 77.1028C141.353 76.7259 141.416 76.3175 141.353 75.8778C141.228 75.1868 140.725 74.7156 140.097 74.59Z" fill="white"/>
<path d="M185.641 76.0351C182.154 72.5486 180.27 68.7481 181.463 67.5545C182.657 66.3609 186.457 68.2455 189.944 71.732C193.43 75.2184 195.315 79.019 194.121 80.2125C192.928 81.4061 189.127 79.5215 185.641 76.0351Z" fill="#767676"/>
<path d="M172.229 59.1045H162.837V64.7582H172.229V59.1045Z" fill="#767676"/>
<path d="M154.828 73.3642C154.828 63.5016 160.607 61.46 168.303 61.46C175.998 61.46 182.72 63.5016 182.72 73.3642C182.72 83.2268 176.469 91.2362 168.774 91.2362C161.078 91.2362 154.828 83.2268 154.828 73.3642Z" fill="#E9EAF2"/>
<path d="M149.897 79.207C149.897 65.8265 157.718 63.0625 168.146 63.0625C178.574 63.0625 187.682 65.8265 187.682 79.207C187.682 92.5875 179.233 103.424 168.805 103.424C158.377 103.424 149.897 92.5561 149.897 79.207Z" fill="#BFC8E0"/>
<path d="M138.589 52.9171C140.599 53.0113 142.421 49.1794 142.61 44.3737C142.798 39.568 141.322 35.6418 139.28 35.5476C137.27 35.4534 135.448 39.2853 135.26 44.091C135.071 48.8967 136.579 52.8543 138.589 52.9171Z" fill="#A6A9B2"/>
<path d="M198.079 45.0962C198.079 58.0684 181.997 60.7382 165.413 60.7382C148.829 60.7382 138.024 58.0684 138.024 45.0962C138.024 32.1241 151.467 21.6333 168.051 21.6333C184.635 21.6333 198.079 32.1555 198.079 45.0962Z" fill="#BFC8E0"/>
<path d="M185.735 43.9023C185.735 49.4932 181.62 54.0476 176.563 54.0476C171.506 54.0476 167.392 49.4932 167.392 43.9023C167.392 38.3114 171.506 33.757 176.563 33.757C181.62 33.7256 185.735 38.28 185.735 43.9023Z" fill="#E9EAF2"/>
<path d="M184.321 43.9025C184.321 48.6453 180.835 52.4773 176.563 52.4773C172.291 52.4773 168.805 48.6453 168.805 43.9025C168.805 39.1596 172.291 35.3276 176.563 35.3276C180.835 35.3276 184.321 39.1596 184.321 43.9025Z" fill="#162123"/>
<path d="M176.563 51.3149C172.857 51.3149 169.81 47.9855 169.81 43.8708C169.81 39.7562 172.826 36.4268 176.563 36.4268C180.27 36.4268 183.316 39.7562 183.316 43.8708C183.316 47.9855 180.27 51.3149 176.563 51.3149ZM176.563 36.9607C173.108 36.9607 170.313 40.0703 170.313 43.8708C170.313 47.6714 173.108 50.7809 176.563 50.7809C180.018 50.7809 182.814 47.6714 182.814 43.8708C182.782 40.0703 179.987 36.9607 176.563 36.9607Z" fill="white"/>
<path d="M180.33 45.7489C180.33 47.9516 178.535 49.7464 176.332 49.7464C174.129 49.7464 172.335 47.9516 172.335 45.7489C172.335 43.5463 174.129 41.7515 176.332 41.7515C178.576 41.7515 180.33 43.5463 180.33 45.7489Z" fill="white"/>
<path d="M159.916 43.9026C159.916 49.4935 155.802 54.0479 150.745 54.0479C145.688 54.0479 141.573 49.4935 141.573 43.9026C141.573 38.3117 145.688 33.7573 150.745 33.7573C155.802 33.7573 159.916 38.2803 159.916 43.9026Z" fill="#E9EAF2"/>
<path d="M158.472 43.9029C158.472 48.6458 154.985 52.4778 150.713 52.4778C146.442 52.4778 142.955 48.6458 142.955 43.9029C142.955 39.1601 146.442 35.3281 150.713 35.3281C155.016 35.3281 158.472 39.1601 158.472 43.9029Z" fill="#162123"/>
<path d="M150.713 51.3149C147.007 51.3149 143.96 47.9855 143.96 43.8708C143.96 39.7562 146.976 36.4268 150.713 36.4268C154.451 36.4268 157.466 39.7562 157.466 43.8708C157.466 47.9855 154.451 51.3149 150.713 51.3149ZM150.713 36.9607C147.29 36.9607 144.494 40.0703 144.494 43.8708C144.494 47.6714 147.29 50.7809 150.713 50.7809C154.168 50.7809 156.964 47.6714 156.964 43.8708C156.964 40.0703 154.168 36.9607 150.713 36.9607Z" fill="white"/>
<path d="M154.568 45.7489C154.568 47.9516 152.774 49.7464 150.571 49.7464C148.368 49.7464 146.573 47.9516 146.573 45.7489C146.573 43.5463 148.368 41.7515 150.571 41.7515C152.774 41.7515 154.568 43.5463 154.568 45.7489Z" fill="white"/>
<path d="M195.409 53.4829C193.242 53.3887 191.671 49.1798 191.86 44.0601C192.08 38.9403 193.996 34.8571 196.132 34.9513C198.299 35.0455 199.869 39.2544 199.681 44.3742C199.492 49.4939 197.545 53.5772 195.409 53.4829Z" fill="#010C75"/>
<path d="M196.822 52.9171C194.812 52.8229 193.305 48.8967 193.493 44.091C193.682 39.2854 195.472 35.4848 197.514 35.5476C199.524 35.6419 201.031 39.5681 200.843 44.3737C200.623 49.1794 198.833 53.0114 196.822 52.9171Z" fill="#BFC8E0"/>
<path d="M198.361 52.0374H198.299C197.451 52.006 196.603 51.158 196.037 49.7445C195.409 48.2369 195.126 46.2267 195.22 44.1222C195.378 39.9448 197.074 36.4583 198.895 36.4583H198.958C198.99 36.4583 199.021 36.4897 199.052 36.4897C198.895 36.3012 198.738 36.1442 198.55 36.0186C196.54 36.3641 194.906 39.7563 194.718 44.0908C194.624 46.2895 194.938 48.3625 195.597 49.933C196.194 51.4406 197.074 52.2887 198.016 52.4772C198.204 52.3515 198.361 52.1945 198.55 52.006C198.456 52.006 198.393 52.0374 198.361 52.0374Z" fill="white"/>
<path d="M193.022 82.3478C194.913 82.3478 196.446 80.815 196.446 78.9241C196.446 77.0333 194.913 75.5005 193.022 75.5005C191.131 75.5005 189.598 77.0333 189.598 78.9241C189.598 80.815 191.131 82.3478 193.022 82.3478Z" fill="#010C75"/>
<path d="M203.827 79.7404C199.461 84.1064 194.373 86.148 192.488 84.2634C190.603 82.3789 192.614 77.2905 197.011 72.9246C201.377 68.5586 206.465 66.517 208.35 68.4016C210.234 70.2862 208.193 75.3745 203.827 79.7404Z" fill="#BFC8E0"/>
<path d="M210.329 69.627C209.418 69.627 208.507 69.4386 207.659 69.0617C204.047 67.4284 202.571 62.8112 204.392 58.7593C204.675 58.1626 205.366 57.8799 205.994 58.1625C206.591 58.4452 206.874 59.1362 206.591 59.7644C205.303 62.5913 206.246 65.7951 208.664 66.8944C211.051 67.9623 214.067 66.5489 215.354 63.722C215.637 63.1252 216.328 62.8426 216.956 63.1253C217.553 63.4079 217.836 64.0989 217.553 64.7271C216.14 67.7424 213.219 69.627 210.329 69.627Z" fill="#767676"/>
<path d="M197.545 81.3425C196.351 81.3425 195.409 80.3688 195.409 79.2067C195.409 78.0131 196.383 77.0708 197.545 77.0708C198.707 77.0708 199.681 78.0445 199.681 79.2067C199.681 80.3688 198.738 81.3425 197.545 81.3425ZM197.545 77.5734C196.634 77.5734 195.912 78.2958 195.912 79.2067C195.912 80.1175 196.634 80.84 197.545 80.84C198.456 80.84 199.178 80.1175 199.178 79.2067C199.178 78.2958 198.456 77.5734 197.545 77.5734Z" fill="white"/>
<path d="M178.416 111.81C179.422 104.806 182.845 99.5288 186.08 99.9999C189.316 100.471 191.106 106.502 190.101 113.506C189.096 120.51 185.672 125.787 182.437 125.316C179.233 124.845 177.411 118.814 178.416 111.81Z" fill="#BFC8E0"/>
<path d="M146.253 124.907H128.758C128.758 121.327 132.684 118.437 137.49 118.437C142.358 118.437 146.253 121.358 146.253 124.907Z" fill="#767676"/>
<path d="M194.624 125.347H177.129C177.129 121.767 181.055 118.877 185.861 118.877C190.698 118.908 194.624 121.798 194.624 125.347Z" fill="#767676"/>
<path d="M186.363 108.229C184.824 108.229 183.599 107.004 183.599 105.465C183.599 103.926 184.824 102.701 186.363 102.701C187.902 102.701 189.127 103.926 189.127 105.465C189.127 106.973 187.871 108.229 186.363 108.229ZM186.363 103.204C185.138 103.204 184.102 104.209 184.102 105.465C184.102 106.69 185.107 107.727 186.363 107.727C187.588 107.727 188.625 106.722 188.625 105.465C188.593 104.209 187.588 103.204 186.363 103.204Z" fill="white"/>
<path d="M152.032 108.229C150.493 108.229 149.268 107.004 149.268 105.465C149.268 103.926 150.493 102.701 152.032 102.701C153.572 102.701 154.797 103.926 154.797 105.465C154.797 106.973 153.54 108.229 152.032 108.229ZM152.032 103.204C150.807 103.204 149.771 104.209 149.771 105.465C149.771 106.69 150.776 107.727 152.032 107.727C153.257 107.727 154.294 106.722 154.294 105.465C154.263 104.209 153.257 103.204 152.032 103.204Z" fill="white"/>
<path d="M139.814 121.735C137.835 121.735 136.076 123.023 135.103 124.908H135.668C136.579 123.306 138.087 122.238 139.814 122.238C141.542 122.238 143.049 123.306 143.96 124.908H144.526C143.552 123.023 141.793 121.735 139.814 121.735Z" fill="white"/>
<path d="M183.599 121.735C181.715 121.735 180.081 123.212 179.265 125.379H179.799C180.552 123.526 181.966 122.269 183.568 122.269C185.17 122.269 186.583 123.526 187.337 125.379H187.871C187.117 123.212 185.484 121.735 183.599 121.735Z" fill="white"/>
<g opacity="0.49">
<path d="M173.265 89.2577H159.508C159.257 89.2577 159.068 89.0693 159.068 88.818V72.7991C159.068 72.5478 159.257 72.3594 159.508 72.3594H173.265C173.517 72.3594 173.705 72.5478 173.705 72.7991V88.818C173.705 89.0693 173.517 89.2577 173.265 89.2577ZM159.948 88.4097H172.857V73.2388H159.948V88.4097Z" fill="white"/>
</g>
<path d="M177.066 75.4058C177.864 75.4058 178.511 74.7589 178.511 73.9609C178.511 73.163 177.864 72.5161 177.066 72.5161C176.268 72.5161 175.621 73.163 175.621 73.9609C175.621 74.7589 176.268 75.4058 177.066 75.4058Z" fill="#FFD261"/>
<path d="M178.479 78.4531C178.479 79.2384 177.851 79.898 177.035 79.898C176.249 79.898 175.59 79.2698 175.59 78.4531C175.59 77.6679 176.218 77.0083 177.035 77.0083C177.851 77.0397 178.479 77.6679 178.479 78.4531Z" fill="#EF5252"/>
<path d="M132.315 70.5098C130.556 71.5149 121.73 78.6762 117.929 82.8851C117.458 83.4191 120.568 87.4081 121.636 87.3139C123.992 88.5074 127.258 85.6806 132.598 85.7748C133.509 85.7748 132.88 84.4242 132.535 84.1415C131.687 83.3877 131.279 83.5133 128.703 82.4454C127.164 81.7858 127.195 79.807 127.666 78.7705C130.493 74.6558 133.069 72.3943 132.315 70.5098Z" fill="#FFD5C7"/>
<defs>
<clipPath id="clip0_453_9563">
<rect width="13.1161" height="13.1161" fill="white" transform="translate(239.37 100.949) rotate(-1.71125)"/>
</clipPath>
<clipPath id="clip1_453_9563">
<rect width="17.4882" height="17.4882" fill="white" transform="translate(67.7666 92.9058)"/>
</clipPath>
</defs>
</svg>
