<svg width="32" height="33" viewBox="0 0 32 33" fill="none" xmlns="http://www.w3.org/2000/svg">
<circle cx="16" cy="16.9152" r="16" fill="white"/>
<path d="M15.664 8.71869C15.7716 8.71336 15.8791 8.70447 15.9867 8.70447C16.2533 8.70536 16.5208 8.70358 16.7874 8.71602C17.5437 8.75246 18.2894 8.86089 19.0208 9.06085C20.4552 9.45367 21.7395 10.1344 22.9055 11.0516C23.5712 11.5751 24.1382 12.1919 24.6572 12.8575C25.6153 14.0867 26.3414 15.4429 26.879 16.9031C27.0754 17.4363 27.2381 17.9802 27.3385 18.5401C27.4229 19.0112 27.4727 19.4849 27.4514 19.9639C27.4256 20.546 27.3216 21.1121 27.0914 21.6534C26.8613 22.1929 26.5147 22.6417 26.0712 23.0194C25.3993 23.5926 24.6403 24.021 23.8253 24.3543C23.229 24.5978 22.6069 24.7515 21.9812 24.8946C21.9377 24.9044 21.8914 24.9026 21.8461 24.9071C21.8123 24.9062 21.7795 24.9062 21.7457 24.9053C21.7101 24.9044 21.6799 24.9151 21.6586 24.9453L21.6506 24.9391C21.5537 24.9408 21.4551 24.9284 21.3617 24.9471C21.2773 24.9639 21.1929 24.9639 21.1093 24.9728C20.9183 24.9942 20.7263 25.0128 20.5334 25.0075C20.5219 25.0075 20.5103 25.0084 20.4997 25.0128C20.4241 25.0457 20.3433 25.0377 20.2642 25.0386C20.1451 25.0395 20.026 25.0386 19.906 25.0404C19.8607 25.0413 19.8153 25.0466 19.7709 25.051C19.7096 25.0573 19.6474 25.0715 19.586 25.0715C18.8244 25.0733 18.0636 25.0724 17.302 25.0724C17.2682 25.0724 17.2318 25.0786 17.1998 25.0697C17.0158 25.0182 16.8274 25.0475 16.6408 25.0386C16.5901 25.0359 16.535 25.0457 16.4888 25.0306C16.3937 25.0004 16.2977 25.0048 16.2017 25.0048C15.9867 25.0039 15.7742 24.9515 15.5583 24.9675C15.5476 24.9684 15.5352 24.9657 15.5245 24.9631C15.3601 24.9168 15.1877 24.9364 15.0206 24.9053C14.8766 24.8786 14.7282 24.8813 14.5824 24.8617C14.3816 24.8351 14.1816 24.7986 13.9808 24.7666C13.8137 24.7409 13.6448 24.7204 13.4786 24.6893C13.2627 24.6484 13.0467 24.6049 12.8325 24.5533C12.453 24.4627 12.078 24.3543 11.7065 24.2343C11.4585 24.1543 11.2115 24.0699 10.9679 23.9774C10.7298 23.8868 10.4934 23.7899 10.2632 23.6815C9.95034 23.534 9.64284 23.3758 9.346 23.1954C8.96118 22.9616 8.61457 22.6825 8.28574 22.3786C8.1151 22.2204 7.97201 22.0364 7.82892 21.8542C7.52764 21.473 7.30457 21.0482 7.15259 20.5869C7.09571 20.4154 7.06017 20.2385 7.02906 20.059C6.9944 19.8635 6.96685 19.6688 6.9704 19.4698C6.97396 19.2485 6.97129 19.0263 6.97218 18.805C6.97218 18.7597 6.97218 18.7134 6.9784 18.669C6.99706 18.5295 7.01751 18.3899 7.04061 18.2513C7.06816 18.0904 7.09305 17.9278 7.13038 17.7687C7.18992 17.5101 7.26102 17.2541 7.33656 16.9982C7.41922 16.7147 7.5232 16.44 7.62718 16.1645C7.70272 15.9637 7.79515 15.7682 7.8858 15.5726C7.99067 15.346 8.09288 15.1176 8.21108 14.899C8.35417 14.635 8.50881 14.3773 8.66612 14.1213C8.77276 13.948 8.88741 13.7783 9.00739 13.6139C9.17625 13.3801 9.35044 13.1508 9.54152 12.9331C9.68372 12.7713 9.8117 12.598 9.96723 12.4487C10.2685 12.1572 10.5494 11.8435 10.872 11.5724C11.0275 11.4418 11.1777 11.3031 11.3394 11.1796C11.5821 10.9939 11.822 10.8037 12.0727 10.6295C12.3419 10.442 12.6219 10.2686 12.8983 10.0909C13.2369 9.87316 13.5942 9.68652 13.9506 9.49989C14.1416 9.40035 14.3416 9.3177 14.5336 9.22171C14.8535 9.06174 15.185 8.93021 15.5165 8.79779C15.5681 8.77912 15.6152 8.74624 15.664 8.71869ZM23.3721 21.6658C23.4467 21.6054 23.5285 21.5512 23.5943 21.4819C23.9755 21.0784 24.1764 20.594 24.2208 20.0448C24.2599 19.564 24.187 19.0947 24.0386 18.637C23.8342 18.0069 23.5383 17.4212 23.1899 16.8604C22.7926 16.2205 22.3118 15.6482 21.767 15.1292C21.5324 14.9052 21.2826 14.7008 21.0151 14.5177C20.361 14.0689 19.6598 13.7134 18.9071 13.4619C18.3738 13.2841 17.8308 13.1464 17.27 13.0895C16.9909 13.038 16.7074 13.0184 16.4248 13.0122C16.0675 13.0042 15.7111 12.9989 15.353 13.0308C15.0873 13.0548 14.8215 13.0753 14.5593 13.1171C14.1167 13.1864 13.6813 13.2921 13.2547 13.4317C12.6379 13.6343 12.0504 13.9036 11.495 14.2395C11.1395 14.4546 10.7973 14.6883 10.4898 14.9674C10.1023 15.3185 9.73882 15.6935 9.41799 16.1085C8.89452 16.7858 8.46526 17.519 8.15598 18.3188C7.9649 18.8139 7.84048 19.3231 7.8547 19.8608C7.86358 20.1763 7.91602 20.4803 8.03244 20.7735C8.14443 21.057 8.30884 21.3094 8.52747 21.5201C8.65367 21.6418 8.79676 21.7467 8.93896 21.8489C9.41443 22.1875 9.94234 22.423 10.4907 22.6141C10.7689 22.711 11.055 22.7821 11.3439 22.8461C11.7865 22.9438 12.2335 23.0194 12.685 23.0656C12.8263 23.0798 12.9667 23.0923 13.108 23.1065C13.3053 23.1251 13.5026 23.1482 13.6999 23.1616C13.9603 23.1794 14.2207 23.19 14.4811 23.2042C14.4927 23.2051 14.5042 23.2051 14.5149 23.206C14.7691 23.2247 15.0233 23.254 15.2774 23.2611C15.9929 23.2807 16.7074 23.2771 17.422 23.2282C17.4335 23.2273 17.4442 23.2265 17.4557 23.2256C17.7268 23.206 17.9979 23.1847 18.2689 23.166C18.4725 23.1518 18.676 23.1402 18.8795 23.1251C19.0039 23.1163 19.1283 23.1065 19.2519 23.0905C19.4652 23.0629 19.6776 23.0265 19.8909 23.0007C20.2402 22.9581 20.5823 22.8807 20.9254 22.8034C21.4089 22.695 21.8719 22.527 22.3216 22.3208C22.6629 22.1644 22.9837 21.9707 23.2876 21.7503C23.3205 21.7272 23.3445 21.6934 23.3721 21.6658ZM20.2855 11.6089C20.3521 11.6089 20.3921 11.6062 20.4312 11.6089C20.5672 11.6186 20.6881 11.5733 20.8036 11.5093C20.8801 11.4676 20.9396 11.4071 20.984 11.3334C21.0978 11.1423 21.0694 10.9512 20.968 10.7681C20.9272 10.6952 20.8676 10.6313 20.8116 10.5682C20.6676 10.4028 20.4863 10.2864 20.2926 10.1904C20.1859 10.138 20.0775 10.0873 19.9673 10.0447C19.7825 9.9727 19.5985 9.89804 19.4083 9.84294C19.1532 9.76918 18.8937 9.7123 18.636 9.65009C18.3667 9.5861 18.0947 9.53633 17.8166 9.52833C17.7944 9.52744 17.7695 9.53011 17.749 9.52211C17.661 9.48745 17.5704 9.49545 17.4797 9.49545C17.3438 9.49456 17.2069 9.49011 17.0709 9.49633C16.9189 9.50344 16.7661 9.51589 16.6159 9.53722C16.471 9.55766 16.3279 9.59321 16.1875 9.63409C16 9.68919 15.8267 9.76918 15.696 9.92293C15.5769 10.0642 15.5743 10.1984 15.648 10.3309C15.7005 10.4242 15.7805 10.5059 15.888 10.5388C16.0604 10.593 16.2346 10.6455 16.4106 10.6837C16.631 10.7308 16.8576 10.7512 17.0771 10.8028C17.3846 10.8748 17.6939 10.9432 17.9997 11.0232C18.3338 11.1103 18.6644 11.2089 18.9933 11.3129C19.1986 11.3769 19.403 11.4453 19.6109 11.4969C19.8411 11.5529 20.0695 11.6311 20.2855 11.6089ZM22.4202 11.6631C22.414 11.6133 22.4105 11.5618 22.3998 11.5129C22.366 11.352 22.2603 11.2463 22.1243 11.1636C21.903 11.0294 21.6737 11.0214 21.4435 11.1263C21.304 11.1894 21.2382 11.3156 21.2222 11.4658C21.2098 11.5866 21.2613 11.688 21.3378 11.7751C21.4568 11.911 21.6062 11.9866 21.7866 12.0266C21.9403 12.0603 22.0754 12.0452 22.214 11.9839C22.3562 11.9208 22.43 11.8213 22.4202 11.6631Z" fill="#FF9B06"/>
<path d="M15.6641 8.71851C15.6143 8.74606 15.5681 8.77894 15.5157 8.80027C15.1842 8.93269 14.8527 9.06423 14.5327 9.2242C14.3399 9.32018 14.1399 9.40283 13.9497 9.50237C13.5933 9.68901 13.236 9.87564 12.8974 10.0934C12.621 10.2711 12.3411 10.4435 12.0718 10.632C11.8212 10.8053 11.5812 10.9955 11.3386 11.1803C11.1768 11.3038 11.0266 11.4425 10.8711 11.5731C10.5485 11.8442 10.2685 12.1579 9.96637 12.4494C9.81173 12.5996 9.68286 12.772 9.54066 12.9338C9.34959 13.1515 9.17539 13.3808 9.00653 13.6146C8.88655 13.7799 8.77191 13.9487 8.66526 14.122C8.50795 14.378 8.35331 14.6357 8.21022 14.8997C8.09202 15.1192 7.98982 15.3476 7.88494 15.5733C7.79429 15.7689 7.70275 15.9644 7.62632 16.1652C7.52234 16.4408 7.41836 16.7154 7.3357 16.9989C7.26105 17.254 7.18995 17.5099 7.12952 17.7694C7.09308 17.9285 7.0673 18.0903 7.03975 18.252C7.01665 18.3906 6.99621 18.5302 6.97754 18.6697C6.97132 18.7141 6.97221 18.7604 6.97132 18.8057C6.97043 19.027 6.9731 19.2492 6.96954 19.4705C6.96599 19.6695 6.99443 19.8633 7.0282 20.0597C7.05931 20.2383 7.09574 20.4161 7.15173 20.5876C7.30371 21.0489 7.52678 21.4737 7.82806 21.855C7.97204 22.0371 8.11424 22.2211 8.28488 22.3793C8.61371 22.6833 8.96032 22.9632 9.34514 23.1961C9.64198 23.3756 9.9486 23.5347 10.2623 23.6822C10.4925 23.7906 10.7289 23.8875 10.9671 23.9781C11.2106 24.0715 11.4577 24.155 11.7056 24.235C12.0771 24.355 12.4522 24.4634 12.8317 24.5541C13.0459 24.6056 13.2618 24.6491 13.4778 24.69C13.644 24.7211 13.8128 24.7407 13.9799 24.7673C14.1808 24.7985 14.3798 24.8349 14.5816 24.8624C14.7273 24.882 14.8758 24.8793 15.0197 24.906C15.1868 24.9371 15.3592 24.9175 15.5237 24.9638C15.5343 24.9664 15.5459 24.9691 15.5574 24.9682C15.7734 24.9522 15.9858 25.0046 16.2009 25.0055C16.2969 25.0055 16.3928 25.0011 16.4879 25.0313C16.535 25.0464 16.5893 25.0366 16.6399 25.0393C16.8265 25.0482 17.0141 25.0189 17.1989 25.0704C17.2309 25.0793 17.2665 25.0731 17.3011 25.0731C18.0628 25.0731 18.8235 25.074 19.5852 25.0722C19.6465 25.0722 19.7087 25.058 19.77 25.0517C19.8154 25.0473 19.8598 25.042 19.9051 25.0411C20.0242 25.0393 20.1433 25.0402 20.2633 25.0393C20.3424 25.0384 20.4224 25.0473 20.4988 25.0135C20.5086 25.0091 20.521 25.0082 20.5326 25.0082C20.7254 25.0126 20.9165 24.9949 21.1085 24.9735C21.192 24.9638 21.2765 24.9646 21.3609 24.9478C21.4542 24.9291 21.5529 24.9415 21.6497 24.9398C21.5946 24.9878 21.5217 24.9842 21.4578 24.9949C20.9938 25.0749 20.5273 25.1424 20.0571 25.1806C19.5079 25.225 18.9595 25.2713 18.4112 25.3184C17.7544 25.3752 17.0976 25.4223 16.4382 25.425C15.9725 25.4268 15.5077 25.4037 15.042 25.3877C14.8375 25.3806 14.634 25.3637 14.4296 25.3477C14.011 25.3166 13.5915 25.2846 13.1729 25.2508C12.8557 25.225 12.5393 25.2011 12.2229 25.1682C11.6132 25.1042 11.0071 25.0135 10.4072 24.8811C9.89705 24.7691 9.39047 24.6429 8.89899 24.4634C8.04403 24.1523 7.25127 23.7284 6.53762 23.1623C6.26122 22.9428 6.00526 22.701 5.79019 22.4193C5.44536 21.9696 5.23117 21.4595 5.10675 20.9111C4.97255 20.3183 4.96011 19.7184 5.01876 19.115C5.0943 18.3409 5.30227 17.5997 5.57067 16.8727C6.01148 15.6791 6.58028 14.5522 7.30549 13.5053C7.64498 13.0147 8.01292 12.5454 8.41285 12.1019C9.1114 11.327 9.92815 10.6995 10.8204 10.1663C11.7989 9.58147 12.8459 9.17176 13.9586 8.92914C14.3914 8.83493 14.8295 8.77183 15.2721 8.74339C15.4046 8.73361 15.5343 8.7265 15.6641 8.71851Z" fill="#E87903"/>
<path d="M21.6586 24.9451C21.68 24.9149 21.7102 24.9042 21.7457 24.9051C21.7795 24.906 21.8124 24.906 21.8462 24.9069C21.7893 24.9451 21.7226 24.938 21.6586 24.9451Z" fill="#E87903"/>
<path d="M17.27 13.0889C17.8308 13.1457 18.3738 13.2835 18.907 13.4612C19.6598 13.7128 20.361 14.0683 21.0151 14.5171C21.2826 14.7002 21.5324 14.9046 21.767 15.1285C22.3118 15.6475 22.7917 16.2199 23.1899 16.8598C23.5383 17.4206 23.8342 18.0071 24.0386 18.6364C24.187 19.0941 24.259 19.5633 24.2208 20.0441C24.1764 20.5934 23.9755 21.0786 23.5942 21.4812C23.5285 21.5505 23.4467 21.6039 23.3721 21.6652C23.2894 21.6608 23.2183 21.699 23.1445 21.7265C22.9224 21.8109 22.7011 21.8972 22.4762 21.9763C22.3002 22.0376 22.1207 22.0909 21.9421 22.1442C21.7474 22.202 21.5528 22.2642 21.3546 22.3104C21.064 22.3789 20.7734 22.4508 20.4757 22.4891C20.3086 22.5104 20.1442 22.5619 19.9771 22.5779C19.7522 22.6001 19.5309 22.6517 19.3043 22.6535C19.2768 22.6535 19.2483 22.6624 19.2208 22.6659C19.171 22.673 19.1203 22.6837 19.0706 22.6855C18.963 22.6899 18.8546 22.6766 18.7506 22.7175C18.5578 22.7095 18.3676 22.7432 18.1756 22.7539C18.0512 22.761 17.9259 22.7548 17.8006 22.7557C17.6992 22.7566 17.5961 22.7441 17.4975 22.7841C17.2078 22.7841 16.918 22.7841 16.6292 22.7841C16.5252 22.7423 16.4159 22.7495 16.3093 22.7566C16.0586 22.7735 15.8133 22.7148 15.5636 22.7184C15.5467 22.7184 15.5307 22.7121 15.5138 22.7095C15.4525 22.7015 15.3912 22.6926 15.3299 22.6864C15.2961 22.6828 15.2614 22.6855 15.2277 22.6801C15.033 22.649 14.8384 22.6179 14.6438 22.5841C14.4322 22.5477 14.2198 22.5166 14.0119 22.4686C13.5542 22.362 13.1018 22.2375 12.661 22.0749C12.5019 22.0162 12.3419 21.9567 12.1891 21.8829C11.9695 21.7772 11.7545 21.6625 11.5412 21.5434C11.2639 21.3879 11.0124 21.1942 10.7769 20.9818C10.5698 20.796 10.3938 20.5809 10.2418 20.3472C10.0419 20.0397 9.95122 19.7002 9.93789 19.3367C9.93433 19.2336 9.96099 19.1341 9.96721 19.0336C9.98055 18.8052 10.0383 18.5875 10.1005 18.3706C10.2534 17.8374 10.4996 17.3477 10.8062 16.8882C10.9315 16.6998 11.0604 16.5141 11.1972 16.3337C11.3412 16.1444 11.4896 15.9586 11.6629 15.7942C11.6958 15.7631 11.7189 15.7231 11.7491 15.6902C11.814 15.6191 11.8736 15.54 11.95 15.484C12.0282 15.4262 12.0949 15.3578 12.166 15.2929C12.2753 15.1943 12.3801 15.0894 12.4975 15.0023C12.7019 14.8521 12.8983 14.6895 13.1213 14.5642C13.3284 14.4469 13.5302 14.3207 13.7381 14.2069C13.987 14.0718 14.2474 13.9581 14.5104 13.8532C14.9157 13.6923 15.329 13.5537 15.7511 13.4453C15.9538 13.3928 16.1582 13.3519 16.3608 13.2995C16.6399 13.2275 16.9234 13.1804 17.2078 13.1386C17.2424 13.136 17.2602 13.1182 17.27 13.0889ZM18.6306 14.7028C18.6306 14.8317 18.6315 14.8752 18.6777 14.9312C18.7782 15.0539 18.8813 15.1765 19.0181 15.2592C19.1532 15.3409 19.2954 15.412 19.4341 15.4885C19.6873 15.6262 19.9406 15.764 20.1948 15.9008C20.2748 15.9435 20.3566 15.9835 20.4383 16.0226C20.5325 16.067 20.6321 16.0848 20.7361 16.075C20.9218 16.0581 21.0773 15.8733 21.0445 15.6991C21.0169 15.5533 20.9618 15.4183 20.872 15.2983C20.7041 15.0752 20.5085 14.8797 20.2855 14.7135C20.0428 14.534 19.7807 14.3918 19.4847 14.3189C19.3079 14.2753 19.1319 14.2433 18.9515 14.3047C18.7657 14.366 18.6075 14.478 18.6306 14.7028ZM18.0094 14.0629C17.9116 14.0531 17.8281 14.0923 17.7588 14.1687C17.6841 14.2513 17.6726 14.3491 17.7152 14.4495C17.7828 14.6086 17.9143 14.6726 18.0698 14.7081C18.1614 14.7286 18.3685 14.6193 18.4147 14.5242C18.4191 14.5144 18.4227 14.5029 18.4245 14.4922C18.4396 14.3802 18.4244 14.2771 18.3365 14.1953C18.2458 14.1118 18.1436 14.0567 18.0094 14.0629Z" fill="#FFFBF5"/>
<path d="M17.27 13.0886C17.2602 13.1179 17.2425 13.1357 17.2105 13.1402C16.9261 13.1819 16.6426 13.2299 16.3635 13.301C16.1609 13.3526 15.9565 13.3943 15.7538 13.4468C15.3317 13.5561 14.9184 13.6938 14.5131 13.8547C14.2492 13.9596 13.9897 14.0724 13.7408 14.2084C13.532 14.3222 13.3302 14.4493 13.1241 14.5657C12.9019 14.691 12.7046 14.8536 12.5002 15.0038C12.382 15.0909 12.2771 15.1958 12.1687 15.2945C12.0976 15.3593 12.0309 15.4269 11.9527 15.4855C11.8763 15.5415 11.8167 15.6215 11.7518 15.6917C11.7216 15.7246 11.6985 15.7655 11.6656 15.7957C11.4923 15.9601 11.3439 16.1459 11.1999 16.3352C11.0631 16.5147 10.9342 16.7013 10.8089 16.8897C10.5023 17.3492 10.2561 17.8398 10.1032 18.3722C10.041 18.589 9.98325 18.8067 9.96992 19.0352C9.96458 19.1356 9.93703 19.2351 9.94059 19.3382C9.95481 19.7017 10.0455 20.0412 10.2445 20.3487C10.3965 20.5824 10.5725 20.7975 10.7796 20.9833C11.0151 21.1948 11.2666 21.3894 11.5439 21.545C11.7563 21.664 11.9722 21.7787 12.1918 21.8845C12.3446 21.9582 12.5046 22.0178 12.6637 22.0764C13.1045 22.2391 13.5578 22.3644 14.0146 22.4701C14.2234 22.5181 14.4358 22.5492 14.6465 22.5857C14.8411 22.6194 15.0357 22.6505 15.2304 22.6817C15.2641 22.687 15.2988 22.6834 15.3326 22.6879C15.3939 22.6941 15.4552 22.703 15.5165 22.711C15.5334 22.7136 15.5503 22.7199 15.5663 22.7199C15.816 22.7154 16.0613 22.7741 16.312 22.7581C16.4186 22.751 16.5279 22.7439 16.6319 22.7856C16.9216 22.7856 17.2114 22.7856 17.5002 22.7856C17.598 22.7456 17.7011 22.7581 17.8033 22.7572C17.9286 22.7563 18.0539 22.7625 18.1783 22.7554C18.3703 22.7448 18.5605 22.7119 18.7533 22.719C18.8573 22.679 18.9657 22.6914 19.0733 22.687C19.1239 22.6852 19.1737 22.6745 19.2235 22.6674C19.251 22.6639 19.2795 22.655 19.307 22.655C19.5336 22.6532 19.7549 22.6017 19.9798 22.5794C20.1478 22.5626 20.3113 22.5119 20.4784 22.4906C20.7761 22.4515 21.0658 22.3795 21.3573 22.3119C21.5555 22.2657 21.7493 22.2035 21.9448 22.1457C22.1234 22.0924 22.3029 22.0391 22.4789 21.9778C22.7029 21.8996 22.9242 21.8125 23.1472 21.728C23.221 21.7005 23.2921 21.6614 23.3748 21.6667C23.3472 21.6952 23.3241 21.728 23.293 21.7511C22.989 21.9715 22.6682 22.1653 22.3269 22.3217C21.8772 22.5279 21.4142 22.6959 20.9307 22.8043C20.5877 22.8807 20.2455 22.9589 19.8962 23.0016C19.6829 23.0274 19.4705 23.0638 19.2572 23.0914C19.1337 23.1074 19.0093 23.1171 18.8849 23.126C18.6813 23.1411 18.4778 23.1527 18.2743 23.1669C18.0032 23.1865 17.7322 23.2069 17.4611 23.2264C17.4495 23.2273 17.4389 23.2282 17.4273 23.2291C16.7128 23.278 15.9973 23.2807 15.2828 23.262C15.0286 23.2549 14.7744 23.2264 14.5203 23.2069C14.5087 23.206 14.4972 23.206 14.4865 23.2051C14.2261 23.1909 13.9657 23.1802 13.7053 23.1625C13.508 23.1491 13.3107 23.126 13.1134 23.1074C12.9721 23.094 12.8317 23.0816 12.6903 23.0665C12.2389 23.0203 11.7927 22.9447 11.3492 22.847C11.0613 22.7839 10.7751 22.7128 10.4961 22.615C9.9477 22.4239 9.41979 22.1884 8.94431 21.8498C8.80123 21.7476 8.65814 21.6427 8.53283 21.521C8.3142 21.3103 8.14978 21.0579 8.0378 20.7744C7.92226 20.4811 7.86894 20.1772 7.86005 19.8617C7.84583 19.324 7.97026 18.8147 8.16133 18.3197C8.47061 17.5199 8.89988 16.7875 9.42334 16.1094C9.74418 15.6953 10.1077 15.3202 10.4952 14.9683C10.8027 14.6892 11.1448 14.4555 11.5003 14.2404C12.0558 13.9036 12.6432 13.6343 13.26 13.4325C13.6866 13.293 14.1212 13.1873 14.5647 13.1179C14.8269 13.0771 15.0935 13.0557 15.3583 13.0317C15.7165 12.9997 16.0729 13.0051 16.4302 13.0131C16.7074 13.0184 16.991 13.0371 17.27 13.0886Z" fill="#FFEDD1"/>
<path d="M20.2855 11.6091C20.0687 11.6313 19.8412 11.5531 19.6119 11.4971C19.403 11.4456 19.1986 11.378 18.9942 11.3131C18.6645 11.2101 18.3348 11.1114 18.0006 11.0234C17.694 10.9434 17.3856 10.875 17.0781 10.803C16.8586 10.7524 16.6328 10.731 16.4115 10.6839C16.2347 10.6466 16.0614 10.5933 15.889 10.5391C15.7814 10.5053 15.7014 10.4235 15.649 10.3311C15.5743 10.1987 15.577 10.0645 15.697 9.92316C15.8276 9.76941 16 9.68942 16.1885 9.63432C16.3298 9.59255 16.472 9.55789 16.6168 9.53744C16.7679 9.51612 16.9199 9.50367 17.0719 9.49656C17.2078 9.48945 17.3447 9.49479 17.4807 9.49567C17.5713 9.49656 17.662 9.48768 17.75 9.52234C17.7704 9.53033 17.7944 9.52767 17.8175 9.52856C18.0957 9.53656 18.3676 9.58633 18.6369 9.65031C18.8956 9.71164 19.1551 9.76941 19.4092 9.84317C19.5994 9.89827 19.7834 9.97382 19.9683 10.0449C20.0794 10.0876 20.1878 10.1382 20.2935 10.1907C20.4882 10.2867 20.6686 10.404 20.8126 10.5684C20.8686 10.6324 20.9281 10.6955 20.969 10.7683C21.0703 10.9514 21.0987 11.1425 20.985 11.3336C20.9405 11.4074 20.881 11.4687 20.8046 11.5096C20.6881 11.5727 20.5673 11.618 20.4322 11.6091C20.3922 11.6064 20.3522 11.6091 20.2855 11.6091Z" fill="#FFD38F"/>
<path d="M22.4202 11.6626C22.43 11.8208 22.3553 11.9203 22.2149 11.9825C22.0754 12.0439 21.9412 12.059 21.7874 12.0252C21.607 11.9861 21.4577 11.9097 21.3386 11.7737C21.2622 11.6866 21.2097 11.5862 21.2231 11.4644C21.2391 11.3142 21.3048 11.188 21.4444 11.1249C21.6746 11.02 21.9047 11.028 22.1252 11.1622C22.2611 11.2449 22.366 11.3497 22.4007 11.5115C22.4104 11.5622 22.414 11.6128 22.4202 11.6626Z" fill="#FFD38F"/>
<path d="M18.6307 14.7023C18.6085 14.4775 18.7658 14.3655 18.9506 14.3033C19.1311 14.2429 19.307 14.2748 19.4839 14.3175C19.7798 14.3904 20.042 14.5317 20.2846 14.7121C20.5077 14.8783 20.7032 15.0738 20.8712 15.2969C20.9619 15.4169 21.0161 15.5529 21.0436 15.6977C21.0765 15.8719 20.921 16.0568 20.7352 16.0737C20.6313 16.0834 20.5317 16.0657 20.4375 16.0212C20.3557 15.983 20.274 15.943 20.194 15.8995C19.9398 15.7626 19.6865 15.6248 19.4332 15.4871C19.2937 15.4115 19.1524 15.3404 19.0173 15.2578C18.8804 15.1743 18.7773 15.0516 18.6769 14.9298C18.6316 14.8747 18.6298 14.8312 18.6307 14.7023Z" fill="white"/>
<path d="M18.0094 14.0629C18.1436 14.0567 18.2458 14.1118 18.3365 14.1953C18.4245 14.2762 18.4405 14.3802 18.4245 14.4921C18.4227 14.5028 18.4192 14.5144 18.4147 14.5241C18.3694 14.6192 18.1623 14.7285 18.0699 14.7081C17.9135 14.6726 17.7819 14.6077 17.7153 14.4495C17.6726 14.3491 17.6842 14.2513 17.7588 14.1686C17.8281 14.0922 17.9117 14.0531 18.0094 14.0629Z" fill="white"/>
<path d="M5.57594 14.4271C5.37153 14.3338 5.22578 14.1765 5.1289 13.9792C4.9316 13.581 4.78674 13.1633 4.73075 12.7198C4.55034 11.2943 4.88006 9.98516 5.64882 8.78003C5.77679 8.57918 5.92255 8.39077 6.09407 8.22191C6.20872 8.10904 6.33581 8.01661 6.48601 7.95795C6.50112 7.95173 6.51889 7.95262 6.53578 7.94995C6.57311 7.99172 6.60865 8.03616 6.64865 8.07615C6.89838 8.32233 7.07169 8.61651 7.18811 8.94534C7.26543 9.16308 7.32676 9.38526 7.35964 9.61545C7.38897 9.8163 7.42452 10.0154 7.41918 10.2198C7.41474 10.3842 7.41119 10.5486 7.42007 10.7122C7.43074 10.889 7.4023 11.0623 7.37653 11.2338C7.34542 11.4445 7.28854 11.6524 7.24055 11.8604C7.23699 11.8737 7.21833 11.8844 7.20678 11.896C7.19256 11.7253 7.17922 11.5547 7.16501 11.3849C7.15701 11.3414 7.1499 11.2978 7.1419 11.2552C7.13123 11.1841 7.12679 11.1112 7.10901 11.0419C7.07169 10.8917 7.0468 10.737 6.97482 10.5975C6.95971 10.5522 6.9446 10.506 6.93038 10.4606C6.88594 10.3007 6.80329 10.1594 6.70819 10.0252C6.63887 9.92739 6.55533 9.84296 6.44513 9.79053C6.35092 9.74609 6.25405 9.72298 6.15273 9.77364C6.04875 9.78609 5.97676 9.85185 5.91544 9.92562C5.85412 9.99849 5.79812 10.0794 5.75102 10.162C5.62038 10.3895 5.53861 10.6375 5.47551 10.8908C5.44885 11.0001 5.43374 11.1121 5.4133 11.2232C5.38486 11.3076 5.36531 11.3947 5.37597 11.4845C5.31821 11.7822 5.32709 12.0817 5.34487 12.3821C5.33954 12.4621 5.33154 12.543 5.36264 12.6203C5.36798 12.9047 5.42308 13.1811 5.49951 13.4539C5.51017 13.4921 5.52173 13.5303 5.5395 13.565C5.57772 13.6361 5.64615 13.6485 5.70836 13.597C5.73325 13.5757 5.75369 13.549 5.77946 13.5215C5.82745 13.5437 5.87189 13.5686 5.91899 13.5863C6.05408 13.6379 6.19006 13.6663 6.3287 13.5988C6.34026 13.6014 6.35092 13.6041 6.36247 13.6068C6.3287 13.7116 6.25227 13.7881 6.18117 13.8663C6.02031 14.0414 5.84256 14.196 5.65148 14.3373C5.62127 14.3604 5.60082 14.3969 5.57594 14.4271Z" fill="#463F54"/>
<path d="M7.20771 11.8976C7.21926 11.8861 7.23881 11.8754 7.24148 11.8621C7.28947 11.6532 7.34635 11.4462 7.37745 11.2355C7.40323 11.064 7.43078 10.8907 7.421 10.7138C7.41123 10.5503 7.41567 10.385 7.42011 10.2215C7.42545 10.0171 7.3899 9.81799 7.36057 9.61714C7.3268 9.38607 7.26636 9.16477 7.18904 8.94703C7.07173 8.6182 6.89931 8.32402 6.64958 8.07784C6.60958 8.03874 6.57403 7.9943 6.53671 7.95164C6.69757 7.88232 6.85132 7.91965 6.99352 7.99786C7.08684 8.0494 7.17216 8.11961 7.24948 8.19249C7.45833 8.38801 7.61652 8.62442 7.75339 8.87415C7.95425 9.23942 8.08578 9.63136 8.18176 10.0357C8.28575 10.4739 8.35507 10.9156 8.33907 11.3671C8.31063 12.1829 8.09022 12.9428 7.65918 13.6378C7.55698 13.8022 7.44055 13.956 7.30458 14.0937C7.06906 14.3346 6.79444 14.5123 6.46028 14.5736C6.15188 14.6305 5.85149 14.5994 5.57776 14.4279C5.60264 14.3977 5.6222 14.3612 5.6533 14.3381C5.84438 14.1977 6.02302 14.0422 6.18299 13.8671C6.25409 13.7898 6.33052 13.7124 6.36429 13.6076C6.64425 13.476 6.82377 13.2512 6.95175 12.9766C7.08684 12.6868 7.16505 12.3829 7.18638 12.0638C7.18904 12.0078 7.19971 11.9527 7.20771 11.8976Z" fill="#393343"/>
<path d="M7.20761 11.8977C7.19961 11.9528 7.18895 12.0088 7.18539 12.0639C7.16406 12.383 7.08585 12.6869 6.95077 12.9767C6.82279 13.2513 6.64415 13.4761 6.36331 13.6077C6.35176 13.605 6.34109 13.6023 6.32954 13.5997C6.32332 13.5552 6.32243 13.509 6.30998 13.4664C6.21578 13.158 6.12957 12.8478 6.06914 12.5314C6.02825 12.3217 5.97493 12.1119 5.98737 11.8942C6.02114 11.8657 6.05314 11.8355 6.0878 11.8089C6.40419 11.5591 6.76946 11.432 7.16673 11.3867C7.17917 11.5565 7.19339 11.7271 7.20761 11.8977Z" fill="#A32EDA"/>
<path d="M5.98657 11.8929C5.97501 12.1107 6.02834 12.3195 6.06833 12.5302C6.12965 12.8466 6.21497 13.1567 6.30918 13.4651C6.32251 13.5078 6.32251 13.554 6.32873 13.5984C6.19009 13.666 6.05411 13.6384 5.91902 13.586C5.87192 13.5682 5.82748 13.5433 5.77949 13.5211C5.75372 13.5487 5.73327 13.5753 5.70839 13.5967C5.64707 13.6491 5.57775 13.6366 5.53953 13.5647C5.52087 13.53 5.50931 13.4918 5.49954 13.4536C5.42399 13.1807 5.368 12.9043 5.36267 12.6199C5.37689 12.603 5.39555 12.5879 5.40444 12.5684C5.47821 12.4031 5.59285 12.2653 5.70928 12.1293C5.78838 12.0387 5.87103 11.9463 5.98657 11.8929Z" fill="#852FC9"/>
<path d="M6.97566 10.5973C7.04765 10.7368 7.07254 10.8915 7.10986 11.0417C7.12764 11.111 7.13208 11.1839 7.14275 11.255C7.00055 11.2852 6.85746 11.3092 6.71704 11.3456C6.4362 11.4194 6.1918 11.5669 5.9545 11.7295C5.95361 11.6451 5.96606 11.558 5.94828 11.478C5.91451 11.3269 5.90562 11.1803 5.95006 11.031C5.95983 10.9972 5.94917 10.9643 5.91718 10.9421C6.11892 10.7919 6.33666 10.6799 6.58728 10.6284C6.71704 10.6017 6.84591 10.6088 6.97566 10.5973Z" fill="#3E008C"/>
<path d="M6.1536 9.77434C6.25403 9.72369 6.3509 9.74679 6.44599 9.79123C6.5562 9.84278 6.63974 9.92721 6.70906 10.0259C6.80327 10.1601 6.88592 10.3014 6.93125 10.4613C6.72239 10.4658 6.5162 10.4889 6.32157 10.5698C6.19715 10.6213 6.07806 10.6853 5.9563 10.7431C5.96607 10.688 5.98029 10.6338 5.98563 10.5787C6.0034 10.3876 6.05228 10.2045 6.1065 10.0205C6.12871 9.94143 6.16337 9.86144 6.1536 9.77434Z" fill="#A32EDA"/>
<path d="M5.91629 10.9423C5.94829 10.9645 5.95895 10.9974 5.94918 11.0311C5.90474 11.1804 5.91452 11.3271 5.9474 11.4782C5.96517 11.559 5.95273 11.6461 5.95362 11.7297C5.73943 11.9145 5.53591 12.1092 5.38127 12.3482C5.37239 12.3616 5.35728 12.3714 5.34483 12.3829C5.32706 12.0825 5.31817 11.783 5.37594 11.4853C5.51725 11.296 5.67633 11.1218 5.85675 10.968C5.87274 10.9547 5.89674 10.9511 5.91629 10.9423Z" fill="#6A2ECB"/>
<path d="M6.15359 9.77466C6.16336 9.86175 6.1287 9.94085 6.1056 10.0208C6.05138 10.2039 6.0025 10.3879 5.98473 10.579C5.9794 10.6341 5.96518 10.6892 5.9554 10.7434C5.79365 10.8563 5.64701 10.9878 5.51103 11.1309C5.47992 11.1638 5.44615 11.1931 5.41327 11.2242C5.43371 11.1131 5.44882 11.0011 5.47548 10.8918C5.53769 10.6385 5.62035 10.3906 5.75099 10.163C5.79809 10.0795 5.85408 9.99951 5.91541 9.92663C5.97851 9.85376 6.05049 9.7871 6.15359 9.77466Z" fill="#852FC9"/>
<path d="M5.34572 12.3838C5.35816 12.3722 5.37327 12.3625 5.38216 12.3491C5.5368 12.1092 5.74121 11.9154 5.9545 11.7306C6.19091 11.5679 6.4362 11.4204 6.71704 11.3466C6.85746 11.3102 7.00055 11.2853 7.14275 11.256C7.15075 11.2995 7.15786 11.3431 7.16585 11.3866C6.76948 11.432 6.4042 11.559 6.08693 11.8088C6.05226 11.8363 6.01938 11.8657 5.9865 11.8941C5.87185 11.9465 5.7892 12.039 5.7101 12.1314C5.59456 12.2665 5.47903 12.4042 5.40526 12.5704C5.39638 12.59 5.37771 12.6051 5.36349 12.622C5.3315 12.5447 5.3395 12.4638 5.34572 12.3838Z" fill="#E6C952"/>
<path d="M5.41421 11.224C5.44709 11.1929 5.48086 11.1635 5.51197 11.1306C5.64794 10.9876 5.7937 10.856 5.95634 10.7432C6.07809 10.6845 6.19718 10.6214 6.32161 10.5699C6.51624 10.489 6.72243 10.465 6.93128 10.4614C6.94639 10.5068 6.9615 10.553 6.97661 10.5983C6.84685 10.609 6.71799 10.6018 6.58823 10.6294C6.3376 10.6809 6.11986 10.7929 5.91812 10.9431C5.89768 10.952 5.87457 10.9556 5.85857 10.9698C5.67816 11.1235 5.51997 11.2968 5.37777 11.487C5.36621 11.3955 5.38577 11.3093 5.41421 11.224Z" fill="#E7CA52"/>
<path d="M4.05537 17.4876C3.99493 17.2654 3.9976 17.0379 4.00204 16.8121C4.01715 16.0949 4.18957 15.4088 4.44108 14.7414C4.70948 14.0313 5.06675 13.3692 5.53245 12.7675C5.79463 12.4289 6.09236 12.1276 6.44252 11.8787C6.6336 11.7428 6.8389 11.6352 7.06553 11.5712C7.20239 11.5321 7.34192 11.5064 7.48501 11.533C7.49745 11.5641 7.50368 11.5997 7.52234 11.6272C7.60766 11.749 7.66543 11.8832 7.71875 12.0209C7.84584 12.3498 7.93294 12.6866 7.92849 13.043C7.92671 13.219 7.92849 13.3949 7.9276 13.5709C7.9276 13.6109 7.92938 13.6509 7.92316 13.69C7.9045 13.8064 7.87961 13.9219 7.86184 14.0393C7.82362 14.2908 7.76674 14.537 7.68942 14.7796C7.55522 15.2008 7.39436 15.6114 7.1864 16.0016C7.13307 16.1011 7.06286 16.1909 7.01131 16.2913C6.89578 16.5153 6.72514 16.6975 6.56517 16.8859C6.39186 17.0894 6.18212 17.2547 5.95371 17.3934C5.81329 17.4787 5.66665 17.5596 5.5129 17.612C5.34848 17.668 5.1734 17.6911 5.00188 17.7222C4.94766 17.732 4.88723 17.7293 4.83213 17.7195C4.6215 17.6822 4.40998 17.6431 4.21356 17.5524C4.16113 17.5276 4.1078 17.5089 4.05537 17.4876ZM5.37248 16.8761C5.45869 16.8788 5.53779 16.8557 5.61688 16.8192C5.87284 16.7019 6.05681 16.4975 6.231 16.2913C6.53939 15.9243 6.7518 15.4977 6.90378 15.0435C7.01753 14.7049 7.08952 14.3583 7.07708 13.9966C7.07353 13.8882 7.06464 13.7824 7.03798 13.6784C6.98998 13.4918 6.902 13.3318 6.73492 13.2243C6.60783 13.1354 6.46741 13.1416 6.32787 13.1754C6.21145 13.203 6.10569 13.2607 6.00526 13.3256C5.82663 13.4411 5.68087 13.5949 5.54756 13.7558C5.27472 14.0855 5.06942 14.4579 4.92456 14.8605C4.82679 15.1324 4.74947 15.4079 4.71392 15.6976C4.68815 15.9083 4.67926 16.1145 4.7237 16.3207C4.76192 16.5002 4.81257 16.6753 4.9681 16.7926C5.08808 16.8832 5.21606 16.9543 5.37248 16.8761ZM5.89595 13.1194C5.95638 13.0821 6.02837 13.0483 6.08791 12.9985C6.24167 12.8732 6.40164 12.7568 6.57228 12.6573C6.69403 12.5862 6.81757 12.5169 6.93666 12.4404C7.02731 12.3818 7.10908 12.3098 7.15529 12.2085C7.20506 12.0983 7.12863 11.9445 7.01309 11.933C6.8469 11.9161 6.68781 11.9356 6.54206 12.0334C6.41408 12.1187 6.29055 12.2067 6.18745 12.3213C6.08614 12.4351 5.97771 12.5444 5.88528 12.6644C5.82751 12.7399 5.78663 12.8297 5.75197 12.9195C5.72087 13.0003 5.75108 13.051 5.83462 13.0981C5.84884 13.1061 5.86573 13.1096 5.89595 13.1194ZM5.40447 13.386C5.40714 13.3976 5.40892 13.426 5.41958 13.4518C5.44091 13.5016 5.50046 13.5353 5.54134 13.5265C5.63644 13.506 5.72531 13.4136 5.74131 13.3167C5.75464 13.2367 5.68265 13.1559 5.60266 13.1603C5.48802 13.1656 5.40181 13.2563 5.40447 13.386Z" fill="#F9D100"/>
<path d="M4.05536 17.4874C4.10779 17.5087 4.16112 17.5283 4.21178 17.5514C4.40819 17.6429 4.61971 17.6812 4.83034 17.7185C4.88544 17.7283 4.94499 17.7309 5.00009 17.7212C5.17161 17.6901 5.34758 17.6669 5.51111 17.611C5.66486 17.5585 5.81151 17.4768 5.95193 17.3923C6.18033 17.2537 6.39007 17.0884 6.56338 16.8849C6.72335 16.6964 6.89399 16.5143 7.00953 16.2903C7.06107 16.1899 7.13217 16.1001 7.18461 16.0006C7.39257 15.6104 7.55432 15.1998 7.68763 14.7785C7.76495 14.5359 7.82183 14.2897 7.86005 14.0382C7.87782 13.9218 7.90271 13.8063 7.92137 13.689C7.92759 13.6498 7.92582 13.6099 7.92582 13.5699C7.92582 13.3939 7.92404 13.2179 7.9267 13.0419C7.93115 12.6856 7.84405 12.3487 7.71696 12.0199C7.66364 11.8821 7.60676 11.7479 7.52055 11.6262C7.50189 11.5995 7.49567 11.564 7.48322 11.532C7.70541 11.5329 7.8876 11.6297 8.04757 11.7764C8.19777 11.9133 8.29464 12.0866 8.36574 12.2741C8.47328 12.5594 8.51149 12.8571 8.51683 13.1602C8.5266 13.6925 8.44039 14.2124 8.2982 14.7234C8.02447 15.7019 7.58987 16.6022 6.96242 17.4048C6.71269 17.7238 6.43273 18.0136 6.10123 18.2491C5.91993 18.3779 5.72885 18.489 5.51467 18.5548C5.42846 18.5815 5.3387 18.6037 5.24982 18.6143C4.85878 18.6597 4.54772 18.5184 4.32287 18.1966C4.17267 17.9842 4.08735 17.7452 4.05536 17.4874Z" fill="#E0A639"/>
<path d="M6.73486 13.225C6.90194 13.3325 6.98993 13.4925 7.03792 13.6791C7.06458 13.784 7.07347 13.8898 7.07702 13.9973C7.08947 14.359 7.01659 14.7056 6.90372 15.0442C6.75175 15.4975 6.54023 15.9241 6.23095 16.292C6.05764 16.4982 5.87278 16.7026 5.61683 16.8199C5.53684 16.8564 5.45863 16.8795 5.37242 16.8768C5.36976 16.8199 5.37865 16.7604 5.36176 16.7079C5.33154 16.6128 5.3351 16.5178 5.33599 16.4227C5.33865 16.2654 5.3351 16.1089 5.36265 15.9507C5.38842 15.8014 5.40264 15.6495 5.43908 15.5028C5.52173 15.174 5.62305 14.8505 5.7688 14.5439C5.97854 14.1013 6.25494 13.7049 6.61044 13.3645C6.65665 13.3218 6.69398 13.2712 6.73486 13.225Z" fill="#8C48E2"/>
<path d="M6.73494 13.2246C6.69405 13.2708 6.65673 13.3215 6.61229 13.3633C6.25679 13.7028 5.9804 14.1 5.77065 14.5426C5.6249 14.8492 5.5227 15.1727 5.44093 15.5016C5.40449 15.6491 5.39027 15.8011 5.3645 15.9495C5.33695 16.1077 5.33962 16.2641 5.33784 16.4214C5.33606 16.5174 5.33251 16.6125 5.36361 16.7067C5.3805 16.7583 5.37161 16.8187 5.37428 16.8756C5.21786 16.9538 5.08988 16.8827 4.96901 16.792C4.81259 16.6747 4.76282 16.4996 4.72461 16.3201C4.68017 16.113 4.68995 15.9077 4.71483 15.6971C4.74949 15.4074 4.82681 15.1319 4.92546 14.8599C5.07122 14.4564 5.27652 14.0849 5.54847 13.7552C5.68089 13.5943 5.82753 13.4406 6.00617 13.3251C6.1066 13.2602 6.21236 13.2024 6.32878 13.1749C6.46743 13.142 6.60785 13.1366 6.73494 13.2246Z" fill="#560A79"/>
<path d="M5.89587 13.1196C5.86654 13.1099 5.84966 13.1063 5.83455 13.0983C5.75101 13.0512 5.72079 13.0005 5.7519 12.9197C5.78656 12.8308 5.82744 12.7401 5.88521 12.6646C5.97764 12.5437 6.08606 12.4353 6.18738 12.3215C6.29047 12.206 6.41401 12.1189 6.54199 12.0336C6.68774 11.9358 6.84682 11.9163 7.01302 11.9332C7.12766 11.9447 7.20498 12.0994 7.15522 12.2087C7.109 12.31 7.02724 12.382 6.93659 12.4406C6.81838 12.5171 6.69485 12.5864 6.5722 12.6575C6.40068 12.7579 6.24159 12.8735 6.08784 12.9988C6.02741 13.0485 5.95542 13.0832 5.89587 13.1196Z" fill="#40005E"/>
<path d="M5.40448 13.3859C5.40181 13.2561 5.48891 13.1655 5.60356 13.1592C5.68354 13.1548 5.75553 13.2357 5.7422 13.3157C5.7262 13.4125 5.63733 13.5058 5.54223 13.5254C5.50046 13.5343 5.44092 13.5005 5.42048 13.4507C5.40892 13.4259 5.40714 13.3974 5.40448 13.3859Z" fill="#E9CF54"/>
<path d="M26.7564 14.4269C26.9608 14.3336 27.1066 14.1762 27.2035 13.9789C27.4008 13.5808 27.5456 13.1631 27.6016 12.7196C27.782 11.2932 27.4532 9.98406 26.6844 8.77893C26.5565 8.57808 26.4107 8.38967 26.2392 8.22081C26.1245 8.10794 25.9975 8.01551 25.8473 7.95685C25.8321 7.95063 25.8144 7.95152 25.7975 7.94885C25.7602 7.99062 25.7246 8.03506 25.6846 8.07505C25.4349 8.32123 25.2616 8.61541 25.1452 8.94424C25.0678 9.16198 25.0065 9.38417 24.9736 9.61435C24.9443 9.8152 24.9087 10.0143 24.9141 10.2187C24.9185 10.3831 24.9221 10.5475 24.9132 10.7111C24.9025 10.8879 24.931 11.0612 24.9567 11.2327C24.9878 11.4434 25.0447 11.6513 25.0927 11.8593C25.0963 11.8726 25.1149 11.8833 25.1265 11.8949C25.1407 11.7242 25.154 11.5536 25.1683 11.3838C25.1763 11.3403 25.1834 11.2967 25.1914 11.2541C25.202 11.183 25.2065 11.1101 25.2242 11.0408C25.2616 10.8906 25.2865 10.7359 25.3584 10.5964C25.3736 10.5511 25.3887 10.5049 25.4038 10.4595C25.4482 10.2996 25.5309 10.1583 25.626 10.0241C25.6953 9.9263 25.7788 9.84187 25.889 9.78943C25.9832 9.74499 26.0801 9.72189 26.1814 9.77254C26.2854 9.78499 26.3574 9.85075 26.4187 9.92452C26.48 9.9974 26.536 10.0783 26.5831 10.1609C26.7138 10.3884 26.7955 10.6364 26.8586 10.8897C26.8853 10.999 26.9004 11.111 26.9208 11.2221C26.9493 11.3065 26.9688 11.3936 26.9582 11.4834C27.0159 11.7811 27.0071 12.0806 26.9893 12.381C26.9946 12.461 27.0026 12.5419 26.9715 12.6192C26.9662 12.9036 26.9111 13.18 26.8346 13.4528C26.824 13.491 26.8124 13.5292 26.7947 13.5639C26.7564 13.635 26.688 13.6474 26.6258 13.5959C26.6009 13.5746 26.5805 13.5479 26.5547 13.5204C26.5067 13.5426 26.4623 13.5675 26.4152 13.5852C26.2801 13.6368 26.1441 13.6652 26.0055 13.5977C25.9939 13.6003 25.9832 13.603 25.9717 13.6057C26.0054 13.7105 26.0819 13.787 26.153 13.8652C26.3138 14.0403 26.4916 14.1949 26.6827 14.3362C26.7111 14.3602 26.7315 14.3967 26.7564 14.4269Z" fill="#463F54"/>
<path d="M25.1247 11.8976C25.1132 11.8861 25.0936 11.8754 25.091 11.8621C25.043 11.6532 24.9861 11.4462 24.955 11.2355C24.9292 11.064 24.9017 10.8907 24.9114 10.7138C24.9212 10.5503 24.9168 10.385 24.9123 10.2215C24.907 10.0171 24.9426 9.81799 24.9719 9.61714C25.0057 9.38607 25.0661 9.16477 25.1434 8.94703C25.2607 8.6182 25.4331 8.32402 25.6829 8.07784C25.7229 8.03874 25.7584 7.9943 25.7957 7.95164C25.6349 7.88232 25.4811 7.91965 25.3389 7.99786C25.2456 8.0494 25.1603 8.11961 25.083 8.19249C24.8741 8.38801 24.7159 8.62442 24.5791 8.87415C24.3782 9.23942 24.2467 9.63136 24.1507 10.0357C24.0467 10.4739 23.9774 10.9156 23.9934 11.3671C24.0218 12.1829 24.2422 12.9428 24.6733 13.6378C24.7755 13.8022 24.8919 13.956 25.0279 14.0937C25.2634 14.3346 25.538 14.5123 25.8722 14.5736C26.1806 14.6305 26.481 14.5994 26.7547 14.4279C26.7298 14.3977 26.7103 14.3612 26.6791 14.3381C26.4881 14.1977 26.3094 14.0422 26.1495 13.8671C26.0784 13.7898 26.0019 13.7124 25.9682 13.6076C25.6873 13.476 25.5087 13.2512 25.3807 12.9766C25.2456 12.6868 25.1674 12.3829 25.1461 12.0638C25.1434 12.0078 25.1327 11.9527 25.1247 11.8976Z" fill="#393343"/>
<path d="M25.1248 11.8977C25.1328 11.9528 25.1434 12.0088 25.147 12.0639C25.1683 12.383 25.2465 12.6869 25.3816 12.9767C25.5096 13.2513 25.6882 13.4761 25.9691 13.6077C25.9806 13.605 25.9913 13.6023 26.0028 13.5997C26.0091 13.5552 26.0099 13.509 26.0224 13.4664C26.1166 13.158 26.2028 12.8478 26.2632 12.5314C26.3041 12.3217 26.3574 12.1119 26.345 11.8942C26.3112 11.8657 26.2792 11.8355 26.2446 11.8089C25.9282 11.5591 25.5629 11.432 25.1656 11.3867C25.1532 11.5565 25.139 11.7271 25.1248 11.8977Z" fill="#A32EDA"/>
<path d="M26.3458 11.8929C26.3574 12.1107 26.3041 12.3195 26.2641 12.5302C26.2027 12.8466 26.1174 13.1567 26.0232 13.4651C26.0099 13.5078 26.0099 13.554 26.0037 13.5984C26.1423 13.666 26.2783 13.6384 26.4134 13.586C26.4605 13.5682 26.5049 13.5433 26.5529 13.5211C26.5787 13.5487 26.5991 13.5753 26.624 13.5967C26.6853 13.6491 26.7546 13.6366 26.7929 13.5647C26.8115 13.53 26.8231 13.4918 26.8329 13.4536C26.9084 13.1807 26.9644 12.9043 26.9697 12.6199C26.9555 12.603 26.9368 12.5879 26.928 12.5684C26.8542 12.4031 26.7395 12.2653 26.6231 12.1293C26.544 12.0387 26.4614 11.9463 26.3458 11.8929Z" fill="#852FC9"/>
<path d="M25.3566 10.5973C25.2846 10.7368 25.2597 10.8915 25.2224 11.0417C25.2046 11.111 25.2002 11.1839 25.1895 11.255C25.3317 11.2852 25.4748 11.3092 25.6152 11.3456C25.8961 11.4194 26.1405 11.5669 26.3778 11.7295C26.3786 11.6451 26.3662 11.558 26.384 11.478C26.4178 11.3269 26.4266 11.1803 26.3822 11.031C26.3724 10.9972 26.3831 10.9643 26.4151 10.9421C26.2133 10.7919 25.9956 10.6799 25.745 10.6284C25.6152 10.6017 25.4864 10.6088 25.3566 10.5973Z" fill="#3E008C"/>
<path d="M26.1788 9.77434C26.0784 9.72369 25.9815 9.74679 25.8864 9.79123C25.7762 9.84278 25.6927 9.92721 25.6234 10.0259C25.5292 10.1601 25.4465 10.3014 25.4012 10.4613C25.61 10.4658 25.8162 10.4889 26.0109 10.5698C26.1353 10.6213 26.2544 10.6853 26.3761 10.7431C26.3664 10.688 26.3521 10.6338 26.3468 10.5787C26.329 10.3876 26.2801 10.2045 26.2259 10.0205C26.2037 9.94143 26.1691 9.86144 26.1788 9.77434Z" fill="#A32EDA"/>
<path d="M26.4161 10.9423C26.3841 10.9645 26.3734 10.9974 26.3832 11.0311C26.4277 11.1804 26.4179 11.3271 26.385 11.4782C26.3672 11.559 26.3797 11.6461 26.3788 11.7297C26.593 11.9145 26.7965 12.1092 26.9511 12.3482C26.96 12.3616 26.9751 12.3714 26.9876 12.3829C27.0053 12.0825 27.0142 11.783 26.9565 11.4853C26.8151 11.296 26.6561 11.1218 26.4756 10.968C26.4597 10.9547 26.4357 10.9511 26.4161 10.9423Z" fill="#6A2ECB"/>
<path d="M26.1788 9.77466C26.169 9.86175 26.2036 9.94085 26.2268 10.0208C26.281 10.2039 26.3298 10.3879 26.3476 10.579C26.353 10.6341 26.3672 10.6892 26.3769 10.7434C26.5387 10.8563 26.6853 10.9878 26.8213 11.1309C26.8524 11.1638 26.8862 11.1931 26.9191 11.2242C26.8986 11.1131 26.8835 11.0011 26.8569 10.8918C26.7947 10.6385 26.712 10.3906 26.5814 10.163C26.5334 10.0795 26.4783 9.99951 26.4169 9.92663C26.3538 9.85376 26.2819 9.7871 26.1788 9.77466Z" fill="#852FC9"/>
<path d="M26.9866 12.3838C26.9741 12.3722 26.959 12.3625 26.9501 12.3491C26.7955 12.1092 26.5911 11.9154 26.3778 11.7306C26.1414 11.5679 25.8961 11.4204 25.6153 11.3466C25.4748 11.3102 25.3317 11.2853 25.1895 11.256C25.1816 11.2995 25.1744 11.3431 25.1664 11.3866C25.5628 11.432 25.9281 11.559 26.2454 11.8088C26.28 11.8363 26.3129 11.8657 26.3458 11.8941C26.4604 11.9465 26.5431 12.039 26.6222 12.1314C26.7377 12.2665 26.8533 12.4042 26.927 12.5704C26.9359 12.59 26.9546 12.6051 26.9688 12.622C27.0008 12.5447 26.9928 12.4638 26.9866 12.3838Z" fill="#E6C952"/>
<path d="M26.9182 11.224C26.8854 11.1929 26.8516 11.1635 26.8205 11.1306C26.6845 10.9876 26.5387 10.856 26.3761 10.7432C26.2544 10.6845 26.1353 10.6214 26.0108 10.5699C25.8162 10.489 25.61 10.465 25.4012 10.4614C25.3861 10.5068 25.3709 10.553 25.3558 10.5983C25.4856 10.609 25.6145 10.6018 25.7442 10.6294C25.9948 10.6809 26.2126 10.7929 26.4143 10.9431C26.4348 10.952 26.4579 10.9556 26.4739 10.9698C26.6543 11.1235 26.8125 11.2968 26.9547 11.487C26.9662 11.3955 26.9467 11.3093 26.9182 11.224Z" fill="#E7CA52"/>
<path d="M28.1206 17.5518C27.9242 17.6433 27.7127 17.6816 27.502 17.7189C27.4469 17.7287 27.3874 17.7313 27.3323 17.7216C27.1607 17.6904 26.9848 17.6673 26.8212 17.6114C26.6675 17.5589 26.5209 17.4772 26.3804 17.3927C26.152 17.2541 25.9423 17.0888 25.769 16.8853C25.609 16.6968 25.4384 16.5146 25.3228 16.2907C25.2713 16.1903 25.2002 16.1005 25.1478 16.001C24.9398 15.6108 24.778 15.2002 24.6438 14.7789C24.5665 14.5363 24.5096 14.2901 24.4714 14.0386C24.4536 13.9222 24.4288 13.8067 24.4101 13.6893C24.4039 13.6502 24.4057 13.6102 24.4057 13.5703C24.4057 13.3943 24.4074 13.2183 24.4048 13.0423C24.4003 12.686 24.4874 12.3491 24.6145 12.0203C24.6678 11.8825 24.7247 11.7483 24.8109 11.6266C24.8296 11.5999 24.8358 11.5644 24.8482 11.5324C24.9913 11.5057 25.1309 11.5324 25.2677 11.5706C25.4944 11.6346 25.6997 11.7421 25.8907 11.8781C26.2409 12.1261 26.5386 12.4282 26.8008 12.7668C27.2665 13.3685 27.6229 14.0306 27.8913 14.7407C28.1428 15.4082 28.3152 16.0934 28.3303 16.8115C28.3348 17.0381 28.3383 17.2656 28.277 17.4869C28.2246 17.5091 28.1712 17.5278 28.1206 17.5518ZM27.3643 16.7928C27.5207 16.6755 27.5705 16.5004 27.6087 16.3209C27.6531 16.1138 27.6433 15.9085 27.6184 15.6979C27.5838 15.4082 27.5065 15.1327 27.4078 14.8607C27.2621 14.4572 27.0568 14.0857 26.7848 13.756C26.6524 13.5951 26.5057 13.4414 26.3271 13.3259C26.2267 13.261 26.1209 13.2032 26.0045 13.1757C25.8641 13.1428 25.7245 13.1366 25.5975 13.2245C25.4304 13.3321 25.3424 13.492 25.2944 13.6787C25.2677 13.7836 25.2588 13.8893 25.2553 13.9969C25.2428 14.3586 25.3157 14.7052 25.4286 15.0438C25.5806 15.497 25.7921 15.9236 26.1014 16.2916C26.2747 16.4978 26.4595 16.7022 26.7155 16.8195C26.7955 16.8559 26.8737 16.879 26.9599 16.8764C27.1163 16.9546 27.2443 16.8835 27.3643 16.7928ZM26.4977 13.0983C26.5813 13.0512 26.6115 13.0006 26.5804 12.9197C26.5457 12.8308 26.5049 12.7402 26.4471 12.6646C26.3547 12.5438 26.2462 12.4353 26.1449 12.3216C26.0418 12.206 25.9183 12.1189 25.7903 12.0336C25.6446 11.9359 25.4855 11.9163 25.3193 11.9332C25.2046 11.9448 25.1273 12.0994 25.1771 12.2087C25.2233 12.31 25.3051 12.382 25.3957 12.4407C25.5139 12.5171 25.6374 12.5864 25.7601 12.6575C25.9316 12.7579 26.0907 12.8735 26.2445 12.9988C26.3049 13.0477 26.3769 13.0823 26.4364 13.1197C26.4666 13.1099 26.4835 13.1063 26.4977 13.0983ZM26.7288 13.1597C26.6488 13.1552 26.5768 13.2361 26.5902 13.3161C26.6062 13.4129 26.695 13.5063 26.7901 13.5258C26.8319 13.5347 26.8915 13.5009 26.9119 13.4512C26.9226 13.4263 26.9252 13.397 26.927 13.3854C26.9306 13.2565 26.8444 13.1659 26.7288 13.1597Z" fill="#F9D100"/>
<path d="M28.277 17.4879C28.2245 17.5092 28.1712 17.5288 28.1205 17.5519C27.9241 17.6434 27.7126 17.6817 27.502 17.719C27.4469 17.7288 27.3873 17.7314 27.3322 17.7216C27.1607 17.6905 26.9847 17.6674 26.8212 17.6114C26.6674 17.559 26.5208 17.4772 26.3804 17.3928C26.152 17.2542 25.9422 17.0889 25.7689 16.8853C25.609 16.6969 25.4383 16.5147 25.3228 16.2908C25.2712 16.1903 25.2001 16.1006 25.1477 16.001C24.9397 15.6109 24.778 15.2003 24.6438 14.779C24.5665 14.5364 24.5096 14.2902 24.4714 14.0387C24.4536 13.9223 24.4287 13.8068 24.41 13.6894C24.4038 13.6503 24.4056 13.6103 24.4056 13.5703C24.4056 13.3944 24.4074 13.2184 24.4047 13.0424C24.4003 12.6861 24.4874 12.3492 24.6145 12.0204C24.6678 11.8826 24.7247 11.7484 24.8109 11.6267C24.8295 11.6 24.8358 11.5645 24.8482 11.5325C24.626 11.5334 24.4438 11.6302 24.2838 11.7769C24.1337 11.9137 24.0368 12.087 23.9657 12.2746C23.8581 12.5599 23.8199 12.8576 23.8146 13.1606C23.8048 13.693 23.891 14.2129 24.0332 14.7239C24.307 15.7024 24.7415 16.6027 25.369 17.4053C25.6187 17.7243 25.8987 18.014 26.2302 18.2496C26.4115 18.3784 26.6026 18.4895 26.8168 18.5553C26.903 18.5819 26.9927 18.6042 27.0816 18.6148C27.4726 18.6602 27.7837 18.5188 28.0086 18.1971C28.1596 17.9847 28.245 17.7456 28.277 17.4879Z" fill="#E0A639"/>
<path d="M25.5974 13.225C25.4303 13.3325 25.3423 13.4925 25.2943 13.6791C25.2677 13.784 25.2588 13.8898 25.2552 13.9973C25.2428 14.359 25.3157 14.7056 25.4285 15.0442C25.5805 15.4975 25.792 15.9241 26.1013 16.292C26.2746 16.4982 26.4595 16.7026 26.7154 16.8199C26.7954 16.8564 26.8736 16.8795 26.9598 16.8768C26.9625 16.8199 26.9536 16.7604 26.9705 16.7079C27.0007 16.6128 26.9972 16.5178 26.9963 16.4227C26.9936 16.2654 26.9972 16.1089 26.9696 15.9507C26.9438 15.8014 26.9296 15.6495 26.8932 15.5028C26.8105 15.174 26.7092 14.8505 26.5634 14.5439C26.3537 14.1013 26.0773 13.7049 25.7218 13.3645C25.6756 13.3218 25.6383 13.2712 25.5974 13.225Z" fill="#8C48E2"/>
<path d="M25.5974 13.2246C25.6383 13.2708 25.6756 13.3215 25.7201 13.3633C26.0756 13.7028 26.352 14.1 26.5617 14.5426C26.7074 14.8492 26.8097 15.1727 26.8914 15.5016C26.9279 15.6491 26.9421 15.8011 26.9678 15.9495C26.9954 16.1077 26.9927 16.2641 26.9945 16.4214C26.9963 16.5174 26.9998 16.6125 26.9687 16.7067C26.9519 16.7583 26.9607 16.8187 26.9581 16.8756C27.1145 16.9538 27.2425 16.8827 27.3633 16.792C27.5198 16.6747 27.5695 16.4996 27.6077 16.3201C27.6522 16.113 27.6424 15.9077 27.6175 15.6971C27.5829 15.4074 27.5055 15.1319 27.4069 14.8599C27.2611 14.4564 27.0558 14.0849 26.7839 13.7552C26.6515 13.5943 26.5048 13.4406 26.3262 13.3251C26.2258 13.2602 26.12 13.2024 26.0036 13.1749C25.8649 13.142 25.7245 13.1366 25.5974 13.2246Z" fill="#560A79"/>
<path d="M26.4363 13.1196C26.4657 13.1099 26.4826 13.1063 26.4977 13.0983C26.5812 13.0512 26.6114 13.0005 26.5803 12.9197C26.5457 12.8308 26.5048 12.7401 26.447 12.6646C26.3546 12.5437 26.2461 12.4353 26.1448 12.3215C26.0417 12.206 25.9182 12.1189 25.7902 12.0336C25.6445 11.9358 25.4854 11.9163 25.3192 11.9332C25.2045 11.9447 25.1272 12.0994 25.177 12.2087C25.2232 12.31 25.305 12.382 25.3956 12.4406C25.5138 12.5171 25.6374 12.5864 25.76 12.6575C25.9315 12.7579 26.0906 12.8735 26.2444 12.9988C26.3048 13.0485 26.3768 13.0832 26.4363 13.1196Z" fill="#40005E"/>
<path d="M26.9279 13.3859C26.9306 13.2561 26.8435 13.1655 26.7289 13.1592C26.6489 13.1548 26.5769 13.2357 26.5902 13.3157C26.6062 13.4125 26.6951 13.5058 26.7902 13.5254C26.832 13.5343 26.8915 13.5005 26.9119 13.4507C26.9235 13.4259 26.9253 13.3974 26.9279 13.3859Z" fill="#E9CF54"/>
<path d="M15.8206 19.1616C15.4873 19.159 15.2011 19.0399 14.9585 18.8141C14.6954 18.5688 14.5488 18.2613 14.4919 17.9085C14.4839 17.8587 14.4821 17.8063 14.4857 17.7565C14.4892 17.7023 14.5364 17.6641 14.5888 17.6623C14.6341 17.6614 14.6803 17.689 14.6928 17.7343C14.7079 17.7885 14.7168 17.8454 14.7257 17.9014C14.7612 18.112 14.8403 18.304 14.9665 18.4764C15.0829 18.6355 15.2269 18.7626 15.4082 18.8399C15.7726 18.9946 16.1192 18.9501 16.4374 18.7182C16.7111 18.5182 16.8675 18.2409 16.9413 17.9147C16.9564 17.8481 16.9617 17.7805 16.9751 17.713C16.9893 17.641 17.0435 17.5966 17.1039 17.6046C17.1661 17.6126 17.2132 17.6694 17.2061 17.7397C17.1866 17.921 17.1484 18.0987 17.0746 18.2658C16.8986 18.6622 16.6222 18.9546 16.2045 19.0985C16.081 19.1412 15.953 19.1643 15.8206 19.1616Z" fill="#4E475D"/>
<path d="M20.1921 15.9726C20.4801 15.7806 20.784 15.7691 21.0977 15.8997C21.2461 15.9611 21.3732 16.0562 21.487 16.169C21.6576 16.3388 21.7936 16.5334 21.8958 16.7511C22.0709 17.1244 22.1687 17.5181 22.2095 17.9278C22.2575 18.4015 22.2211 18.8681 22.1029 19.3285C22.0469 19.5489 21.966 19.7604 21.8594 19.9613C21.8434 19.9906 21.8212 20.0155 21.8025 20.043C21.7456 20.0439 21.6852 20.0324 21.6336 20.0484C21.4381 20.1106 21.2541 20.0493 21.0693 20.0057C20.9822 19.9853 20.8995 19.9515 20.8204 19.9017C20.6694 19.8075 20.5387 19.6982 20.4374 19.5498C20.3414 19.4085 20.2525 19.2636 20.1983 19.1027C20.1361 18.9152 20.0739 18.7268 20.0348 18.534C19.9948 18.3358 19.9681 18.1331 19.9628 17.9314C19.9566 17.7065 19.9299 17.479 19.9895 17.2551C19.9966 17.2284 19.993 17.1982 19.9921 17.1706C19.9868 16.9431 20.033 16.7227 20.0766 16.5014C20.1103 16.3237 20.153 16.1486 20.1921 15.9726ZM20.8764 17.1529C20.8675 17.2604 20.88 17.367 20.9129 17.4701C20.9538 17.599 20.9866 17.7296 21.0684 17.8443C21.1262 17.9261 21.2035 17.9661 21.2897 17.99C21.4283 18.0283 21.5457 17.9758 21.6292 17.8585C21.6976 17.7625 21.7216 17.6541 21.7287 17.5403C21.7438 17.3013 21.6736 17.0818 21.5723 16.8702C21.5465 16.8151 21.5057 16.7636 21.4603 16.7227C21.2559 16.5405 21.0693 16.5947 20.9413 16.8062C20.9298 16.8258 20.9218 16.8471 20.9138 16.8685C20.8764 16.9591 20.8693 17.0542 20.8764 17.1529ZM21.2506 18.526C21.2435 18.5882 21.2648 18.6522 21.3048 18.7081C21.3901 18.8264 21.5661 18.8539 21.6594 18.7526C21.7358 18.669 21.7892 18.5722 21.7376 18.446C21.6852 18.318 21.5865 18.2504 21.4506 18.2682C21.3244 18.2842 21.2524 18.374 21.2506 18.526Z" fill="#453E55"/>
<path d="M20.1921 15.9719C20.153 16.1479 20.1103 16.323 20.0757 16.4998C20.0321 16.7211 19.985 16.9415 19.9912 17.1691C19.9921 17.1975 19.9957 17.2268 19.9886 17.2535C19.929 17.4766 19.9566 17.705 19.9619 17.9298C19.9672 18.1316 19.9939 18.3342 20.0339 18.5324C20.073 18.7252 20.1352 18.9136 20.1974 19.1012C20.2516 19.2629 20.3405 19.4078 20.4365 19.5482C20.5378 19.6966 20.6684 19.8068 20.8195 19.9001C20.8986 19.949 20.9813 19.9837 21.0684 20.0041C21.2532 20.0477 21.4381 20.1081 21.6327 20.0468C21.6843 20.0308 21.7447 20.0423 21.8016 20.0415C21.6594 20.3232 21.4514 20.5427 21.1688 20.684C20.8684 20.8342 20.5671 20.8218 20.2703 20.668C20.0854 20.572 19.937 20.4334 19.809 20.2716C19.6562 20.0788 19.5397 19.8646 19.4544 19.6353C19.2491 19.0843 19.1763 18.5155 19.2278 17.9289C19.2607 17.5592 19.3371 17.2002 19.4811 16.8571C19.5922 16.5932 19.737 16.3505 19.9459 16.1514C20.0197 16.0804 20.0943 16.0093 20.1921 15.9719Z" fill="#393343"/>
<path d="M20.8764 17.1526C20.8693 17.0539 20.8764 16.9589 20.9137 16.8673C20.9226 16.846 20.9297 16.8247 20.9413 16.8051C21.0702 16.5936 21.2568 16.5385 21.4603 16.7216C21.5056 16.7624 21.5465 16.814 21.5723 16.8691C21.6727 17.0806 21.7429 17.3001 21.7287 17.5392C21.7216 17.6538 21.6967 17.7614 21.6292 17.8574C21.5456 17.9747 21.4283 18.0271 21.2897 17.9889C21.2035 17.9649 21.1261 17.9249 21.0684 17.8431C20.9866 17.7285 20.9537 17.5979 20.9129 17.469C20.8809 17.3668 20.8675 17.2601 20.8764 17.1526Z" fill="#6C6678"/>
<path d="M21.2506 18.526C21.2523 18.3741 21.3234 18.2852 21.4505 18.2683C21.5865 18.2505 21.686 18.3181 21.7376 18.4461C21.7891 18.5723 21.7358 18.6691 21.6594 18.7527C21.5661 18.854 21.3901 18.8273 21.3048 18.7082C21.2648 18.6522 21.2434 18.5883 21.2506 18.526Z" fill="#6B6577"/>
<path d="M12.9468 19.2662C12.9507 19.3491 12.8986 19.4262 12.8273 19.4435C12.7444 19.4647 12.6712 19.4397 12.6288 19.3645C12.5999 19.3125 12.5825 19.2566 12.5613 19.2007C12.4226 18.8402 12.2048 18.5434 11.881 18.3276C11.4743 18.0577 11.0368 17.9883 10.5723 18.1541C10.3255 18.2408 10.1251 18.3989 9.95933 18.5993C9.92849 18.6359 9.90151 18.6764 9.86682 18.7073C9.80321 18.7651 9.71841 18.767 9.65287 18.7207C9.5912 18.6764 9.56229 18.5878 9.59698 18.5145C9.62204 18.4625 9.65866 18.4124 9.69528 18.368C10.2137 17.7358 11.0676 17.5354 11.8077 17.8842C12.3724 18.1502 12.7309 18.5993 12.9295 19.1833C12.9352 19.2007 12.941 19.218 12.9449 19.2354C12.9449 19.2431 12.9449 19.2546 12.9468 19.2662Z" fill="#4A435A"/>
</svg>
