<svg width="25" height="25" viewBox="0 0 25 25" fill="none" xmlns="http://www.w3.org/2000/svg">
<path d="M5.75 7.53857H6.75C7.28043 7.53857 7.78914 7.32786 8.16421 6.95279C8.53929 6.57772 8.75 6.06901 8.75 5.53857C8.75 5.27336 8.85536 5.019 9.04289 4.83147C9.23043 4.64393 9.48478 4.53857 9.75 4.53857H15.75C16.0152 4.53857 16.2696 4.64393 16.4571 4.83147C16.6446 5.019 16.75 5.27336 16.75 5.53857C16.75 6.06901 16.9607 6.57772 17.3358 6.95279C17.7109 7.32786 18.2196 7.53857 18.75 7.53857H19.75C20.2804 7.53857 20.7891 7.74929 21.1642 8.12436C21.5393 8.49943 21.75 9.00814 21.75 9.53857V18.5386C21.75 19.069 21.5393 19.5777 21.1642 19.9528C20.7891 20.3279 20.2804 20.5386 19.75 20.5386H5.75C5.21957 20.5386 4.71086 20.3279 4.33579 19.9528C3.96071 19.5777 3.75 19.069 3.75 18.5386V9.53857C3.75 9.00814 3.96071 8.49943 4.33579 8.12436C4.71086 7.74929 5.21957 7.53857 5.75 7.53857Z" stroke="#D9DAE3" stroke-width="2" stroke-linecap="round" stroke-linejoin="round"/>
<path d="M9.75 13.5386C9.75 14.3342 10.0661 15.0973 10.6287 15.6599C11.1913 16.2225 11.9544 16.5386 12.75 16.5386C13.5457 16.5386 14.3087 16.2225 14.8713 15.6599C15.4339 15.0973 15.75 14.3342 15.75 13.5386C15.75 12.7429 15.4339 11.9799 14.8713 11.4173C14.3087 10.8546 13.5457 10.5386 12.75 10.5386C11.9544 10.5386 11.1913 10.8546 10.6287 11.4173C10.0661 11.9799 9.75 12.7429 9.75 13.5386Z" stroke="#D9DAE3" stroke-width="2" stroke-linecap="round" stroke-linejoin="round"/>
</svg>
