<svg width="19" height="19" viewBox="0 0 19 19" fill="none" xmlns="http://www.w3.org/2000/svg">
<path d="M18.2148 8.87764C19.0776 8.03637 18.6018 6.57047 17.409 6.39753L13.4826 5.82676C13.0088 5.75771 12.5995 5.4606 12.3879 5.03109L10.6319 1.47342C10.0985 0.392683 8.96266 0.094309 8.02383 1.47342C7.46573 2.29315 6.7068 4.14167 6.2678 5.03109C6.05621 5.4606 5.64634 5.75771 5.17313 5.82676L1.24676 6.39753C0.0538976 6.57111 -0.422487 8.03637 0.44096 8.87764L3.28216 11.6466C3.62488 11.9805 3.78135 12.4619 3.70026 12.9339L3.0294 16.8444C2.82541 18.0322 4.07275 18.9381 5.13955 18.3775L8.65098 16.5315C9.07479 16.3085 9.58095 16.3085 10.0041 16.5315L13.5162 18.3775C14.583 18.9381 15.8297 18.0322 15.6263 16.8444L14.9555 12.9339C14.8744 12.4619 15.0309 11.9811 15.3736 11.6466L18.2148 8.87764Z" fill="url(#paint0_linear_8759_8301)"/>
<path opacity="0.3" d="M13.4934 5.83195C13.0189 5.7629 12.59 5.4677 12.3778 5.03819L10.6154 1.52992C10.0814 0.447925 8.97152 0.0906366 8.03142 1.47101C7.47268 2.29201 6.81449 4.15194 6.37548 5.04199C6.16326 5.4715 5.75909 5.82372 5.28524 5.89213L1.23788 6.42046C0.043751 6.59404 -0.375619 8.03776 0.488461 8.8803L3.30305 11.6518C3.44179 11.7874 3.54251 11.9515 3.61727 12.1244C5.72235 13.0955 8.05042 13.15 10.0364 12.0642C12.2587 10.8492 13.5187 8.48881 13.634 5.85222L13.4934 5.83195ZM9.86474 11.4839C8.34246 12.3164 6.84489 12.4817 5.2314 11.7373C5.17438 11.6512 2.50422 9.04374 2.50422 9.04374C1.84159 8.39822 2.16404 7.29658 3.07943 7.16355L6.22344 6.75305C6.58706 6.70047 6.89684 6.4306 7.05901 6.10119C7.39603 5.41828 7.89522 3.9904 8.32346 3.36071C9.04374 2.30215 9.91542 2.53147 10.3253 3.36071L11.6727 6.09105C11.8355 6.42046 12.0972 6.80499 12.578 6.88354C12.578 6.88354 11.5682 10.5527 9.86474 11.4839Z" fill="#FFFFEB"/>
<path d="M14.2479 15.1442L13.6359 12.2086C13.5726 11.838 13.6955 11.4598 13.9647 11.1976L15.9741 9.04688L6.13286 16.1819L8.79605 14.9212C9.12863 14.7464 9.52646 14.7464 9.85968 14.9212L12.6065 16.3973C13.4446 16.8382 14.4081 16.078 14.2479 15.1442Z" fill="#FFFF9B"/>
<path opacity="0.7" d="M6.945 17.4286L8.60158 16.5575L5.34798 9.71456L4.65747 5.90222L2.00378 6.28738L4.87223 10.1536L6.945 17.4286Z" fill="#F3FFAC"/>
<path opacity="0.7" d="M8.27849 6.84427L7.29024 2.82605C7.16925 3.07818 7.04888 3.33854 6.93169 3.59384L7.99532 7.0831L8.27849 6.84427Z" fill="#F3FFAC"/>
<path opacity="0.7" d="M12.355 6.16131L10.3152 0.999002C10.0485 0.703162 9.71652 0.537822 9.36113 0.548591L12.253 6.31145L14.9808 12.3245C15.0359 12.111 15.1398 11.9109 15.2862 11.7405L12.355 6.16131Z" fill="#F3FFAC"/>
<path d="M15.998 9.11119C16.6435 8.48213 16.2875 7.38556 15.3956 7.25633L12.4593 6.93769C12.1052 6.88637 11.7986 6.66402 11.6402 6.34284L10.327 3.57386C9.92792 2.76552 9.07841 2.54253 8.37651 3.57386C7.95904 4.18707 7.39143 5.67768 7.06328 6.34284C6.90491 6.66402 6.59893 6.88637 6.24418 6.93769L3.30796 7.25633C2.416 7.3862 2.05998 8.48213 2.70551 9.11119L4.93856 11.1821C5.19512 11.4317 5.31168 11.7921 5.2515 12.145L4.64209 15.0692C4.48941 15.9573 5.42191 16.6351 6.22011 16.2158L8.84656 14.7271C9.1633 14.5605 9.54213 14.5605 9.85887 14.7271L12.4853 16.2158C13.2829 16.6351 14.2154 15.9579 14.0633 15.0692L13.4539 12.145C13.3931 11.7921 13.5103 11.4323 13.7669 11.1821L15.998 9.11119Z" fill="#FBAA12"/>
<g opacity="0.3">
<path d="M15.9741 9.04689C16.4017 8.63005 16.3897 8.00923 16.0736 7.59937C16.2218 8.45901 15.7144 8.9449 15.4072 9.23757C14.8966 9.72409 12.813 10.8929 12.813 10.8929C12.3841 11.1786 13.4991 13.1411 13.4034 14.5323C13.3471 15.3596 13.0398 15.4242 12.222 15.2849C11.0437 15.084 9.53535 13.5035 9.53535 13.5035C9.28385 13.2989 9.05896 13.2558 8.78276 13.5035C8.78276 13.5035 7.39795 14.9662 6.21966 15.3805C5.4373 15.6561 5.24029 15.143 5.24029 14.3137C5.24029 13.6663 5.19024 12.9904 5.1421 12.4861L4.61693 15.0055C4.46426 15.8936 5.39676 16.5715 6.19496 16.1521L8.8214 14.6634C9.13815 14.4968 9.51697 14.4968 9.83372 14.6634L12.4602 16.1521C13.2577 16.5715 14.1902 15.8943 14.0382 15.0055L13.4288 12.0813C13.368 11.7285 13.4852 11.3686 13.7417 11.1184L15.9741 9.04689Z" fill="#EA831C"/>
</g>
<path d="M5.23838 11.9983C5.23838 11.9983 5.20164 12.2232 5.15223 12.443C5.00653 13.0866 4.6182 15.0055 4.6182 15.0055C4.59603 15.1347 4.59856 15.2272 4.61756 15.3767C4.65811 15.6941 4.8906 15.9272 4.8906 15.9272C4.8906 15.9272 4.65367 15.4001 4.79177 14.7666C4.93304 14.1179 5.18264 12.9086 5.18264 12.9086C5.19911 12.8092 5.25359 12.4677 5.23838 11.9983Z" fill="#CF7310"/>
<path d="M3.22958 7.45616C3.2885 7.44285 3.34868 7.43525 3.40886 7.42955C3.40886 7.42955 5.65775 7.16982 6.4059 7.071C6.76065 7.02412 6.99061 6.89172 7.14898 6.57054C7.47713 5.90538 7.93514 4.45152 8.35261 3.8383C8.79605 3.18707 9.29778 2.84752 9.70828 2.88806C9.29778 2.70752 8.79605 2.85829 8.35261 3.50952C7.93514 4.12274 7.36753 5.61334 7.03939 6.2785C6.88101 6.59968 6.57504 6.82203 6.22028 6.87335L3.28406 7.19199C2.39211 7.32186 2.03609 8.41779 2.68161 9.04685L2.73292 9.09436C2.14315 8.49255 2.42948 7.63987 3.22958 7.45616Z" fill="#CF7310"/>
<path d="M0.223038 7.59438C0.242676 7.50443 0.266115 7.41574 0.29969 7.32895C0.334532 7.2428 0.380777 7.16108 0.439691 7.08823C0.556887 6.93999 0.722228 6.838 0.892003 6.76198C1.23599 6.61438 1.60024 6.54216 1.96007 6.46614C2.68288 6.32424 3.40949 6.22225 4.13484 6.11012L5.22317 5.94795C5.40562 5.92071 5.58553 5.90043 5.75087 5.84405C5.91621 5.78894 6.06444 5.69455 6.18924 5.57038C6.43504 5.31509 6.59784 4.98061 6.73531 4.64422C6.87658 4.30721 6.98427 3.95625 7.09767 3.60657C7.01658 3.96449 6.92219 4.32051 6.80246 4.66956C6.67576 5.01482 6.52499 5.36133 6.27033 5.64767C6.1411 5.78831 5.97512 5.9017 5.79268 5.96442C5.61087 6.02966 5.42399 6.05374 5.24408 6.08415L4.15574 6.25392C3.42976 6.36225 2.70188 6.46044 1.9797 6.57573C1.61988 6.63718 1.25689 6.698 0.919243 6.82723C0.751368 6.89121 0.589195 6.978 0.468832 7.1123C0.346568 7.24596 0.274984 7.41891 0.223038 7.59438Z" fill="#FFFDE6"/>
<g opacity="0.9" filter="url(#filter0_di_8759_8301)">
<path d="M7.64148 8.98173V9.03597C7.64196 9.01624 7.6434 8.9877 7.64727 8.95288C7.64354 8.96175 7.64148 8.9715 7.64148 8.98173Z" fill="#FFE755"/>
<path fill-rule="evenodd" clip-rule="evenodd" d="M7.71629 8.90699C7.68526 8.90699 7.65858 8.92598 7.64728 8.95297C7.67217 8.72965 7.79751 8.24827 8.41315 8.18042H8.98562L9.62871 8.18045H10.898C11.3399 8.18045 11.6994 8.53994 11.6994 8.98182V9.62654C11.6464 9.5286 11.5817 9.4346 11.5049 9.34663C11.2599 9.06606 11.0102 8.94974 10.9424 8.92171C10.93 8.9125 10.9147 8.90699 10.898 8.90699H7.71629Z" fill="#FFE755"/>
<path fill-rule="evenodd" clip-rule="evenodd" d="M7.73157 8.57369L8.4705 8.36184L8.21412 7.71136C8.29986 7.58831 8.32628 7.43385 8.28439 7.28779C8.20829 7.02237 7.93011 6.86844 7.66429 6.94466C7.39848 7.02088 7.24417 7.29882 7.32027 7.56421C7.36215 7.71028 7.4664 7.82727 7.60432 7.88618L7.73157 8.57369Z" fill="#FFE755"/>
<path fill-rule="evenodd" clip-rule="evenodd" d="M10.1658 8.36176L10.9047 8.57368L11.032 7.88618C11.1699 7.82726 11.2742 7.71027 11.3161 7.56421C11.3922 7.29879 11.2378 7.02084 10.972 6.94462C10.7062 6.8684 10.4281 7.02234 10.352 7.28772C10.3101 7.43379 10.3365 7.58824 10.4222 7.71129L10.1658 8.36176Z" fill="#FFE755"/>
<path d="M9.65257 11.6753H8.14826L7.64147 12.1626V9.06623C7.64147 9.06623 7.64102 9.05535 7.64147 9.03599V8.98176C7.64147 8.97153 7.64353 8.96181 7.64726 8.95294C7.67213 8.7296 7.79749 8.24824 8.41314 8.18042H7.71628C7.27443 8.18039 6.91493 8.53989 6.91493 8.98176V12.9824C6.91493 13.1365 7.00302 13.2697 7.14486 13.3301C7.19389 13.3509 7.24473 13.3611 7.29486 13.3611C7.38979 13.3611 7.48217 13.3246 7.55483 13.2547L8.4195 12.4226C8.64569 12.1883 9.0941 11.7957 9.65257 11.6753Z" fill="#FFE755"/>
<path d="M7.64148 9.06637V9.03613C7.64103 9.05549 7.64148 9.06637 7.64148 9.06637Z" fill="#FFE755"/>
<path d="M10.9421 11.6607C10.9297 11.6698 10.9145 11.6752 10.898 11.6752H10.8894H10.8696H9.65258C9.09411 11.7957 8.6457 12.1883 8.41951 12.4225L8.44107 12.4018H10.8981C11.3399 12.4018 11.6994 12.0423 11.6994 11.6004V11.0592C11.5421 11.3375 11.2862 11.5589 10.9421 11.6607Z" fill="#FFE755"/>
<path d="M10.9424 8.92175C10.9609 8.9354 10.9729 8.95722 10.9729 8.98183V11.6006C10.9729 11.6253 10.9607 11.6473 10.9421 11.6609C11.2862 11.5591 11.5421 11.3376 11.6994 11.0594V9.62659C11.6464 9.52864 11.5818 9.43465 11.5049 9.34667C11.2599 9.06613 11.0102 8.94979 10.9424 8.92175Z" fill="#FFE755"/>
<path d="M10.2579 10.7247C10.3595 10.6251 10.3433 10.4608 10.2333 10.3694L10.1396 10.2914C10.0753 10.238 9.97951 10.2498 9.93077 10.3171C9.65685 10.6747 9.40409 10.8733 9.04101 10.8078C8.8054 10.7653 8.61537 10.644 8.5549 10.6019C8.54134 10.5925 8.52646 10.5852 8.51046 10.5811C8.45645 10.5672 8.40013 10.5919 8.37403 10.6409L8.34111 10.7027C8.29526 10.7888 8.31409 10.8963 8.39519 10.9513C8.76778 11.2041 9.50603 11.462 10.2579 10.7247Z" fill="#FFE755" fill-opacity="0.8"/>
<path d="M8.11853 9.88717C8.07796 9.95331 8.09856 10.0379 8.15859 10.0871L8.16571 10.0929C8.17483 10.1004 8.18507 10.1064 8.19606 10.1106L8.20005 10.1122C8.24639 10.1302 8.29901 10.1137 8.32678 10.0725C8.3293 10.0674 8.37516 9.97681 8.45632 9.9161C8.56556 9.83434 8.6983 9.84122 8.85087 9.93651C8.90339 9.96932 8.97275 9.94357 8.99114 9.88443L9.0155 9.80613C9.03997 9.72742 8.99967 9.64182 8.92051 9.61886C8.46667 9.48727 8.24224 9.68543 8.11853 9.88717Z" fill="#FFE755" fill-opacity="0.8"/>
<circle cx="9.91755" cy="9.7115" r="0.296257" transform="rotate(-8.70619 9.91755 9.7115)" fill="#FFE755" fill-opacity="0.8"/>
</g>
<defs>
<filter id="filter0_di_8759_8301" x="6.03879" y="6.90454" width="6.66" height="6.69606" filterUnits="userSpaceOnUse" color-interpolation-filters="sRGB">
<feFlood flood-opacity="0" result="BackgroundImageFix"/>
<feColorMatrix in="SourceAlpha" type="matrix" values="0 0 0 0 0 0 0 0 0 0 0 0 0 0 0 0 0 0 127 0" result="hardAlpha"/>
<feOffset dx="0.126" dy="0.162"/>
<feComposite in2="hardAlpha" operator="out"/>
<feColorMatrix type="matrix" values="0 0 0 0 0.811765 0 0 0 0 0.45098 0 0 0 0 0.0627451 0 0 0 0.9 0"/>
<feBlend mode="normal" in2="BackgroundImageFix" result="effect1_dropShadow_8759_8301"/>
<feBlend mode="normal" in="SourceGraphic" in2="effect1_dropShadow_8759_8301" result="shape"/>
<feColorMatrix in="SourceAlpha" type="matrix" values="0 0 0 0 0 0 0 0 0 0 0 0 0 0 0 0 0 0 127 0" result="hardAlpha"/>
<feOffset dx="0.09" dy="0.126"/>
<feComposite in2="hardAlpha" operator="arithmetic" k2="-1" k3="1"/>
<feColorMatrix type="matrix" values="0 0 0 0 0.952941 0 0 0 0 1 0 0 0 0 0.67451 0 0 0 0.9 0"/>
<feBlend mode="normal" in2="shape" result="effect2_innerShadow_8759_8301"/>
</filter>
<linearGradient id="paint0_linear_8759_8301" x1="2.80108" y1="17.4856" x2="15.8552" y2="4.43145" gradientUnits="userSpaceOnUse">
<stop stop-color="#FBC01E"/>
<stop offset="0.4609" stop-color="#FDC822"/>
<stop offset="1" stop-color="#FCE13C"/>
</linearGradient>
</defs>
</svg>
