
<svg width="17" height="16" viewBox="0 0 17 16" fill="none" xmlns="http://www.w3.org/2000/svg">
<path d="M5.16663 4.66667H4.49996C4.14634 4.66667 3.8072 4.80714 3.55715 5.05719C3.3071 5.30724 3.16663 5.64638 3.16663 6V12C3.16663 12.3536 3.3071 12.6928 3.55715 12.9428C3.8072 13.1929 4.14634 13.3333 4.49996 13.3333H10.5C10.8536 13.3333 11.1927 13.1929 11.4428 12.9428C11.6928 12.6928 11.8333 12.3536 11.8333 12V11.3333M11.1666 3.33333L13.1666 5.33333M14.09 4.39007C14.3525 4.12751 14.5 3.77139 14.5 3.40007C14.5 3.02875 14.3525 2.67264 14.09 2.41007C13.8274 2.14751 13.4713 2 13.1 2C12.7286 2 12.3725 2.14751 12.11 2.41007L6.49996 8.00007V10.0001H8.49996L14.09 4.39007Z" stroke="white" stroke-width="1.33333" stroke-linecap="round" stroke-linejoin="round"/>
</svg>
