<svg width="24" height="25" viewBox="0 0 24 25" fill="none" xmlns="http://www.w3.org/2000/svg">
    <path
        d="M5.88806 8.13442V8.33362C5.88983 8.26117 5.89512 8.15633 5.90934 8.02844C5.89564 8.06104 5.88806 8.09685 5.88806 8.13442Z"
        fill="#55C842" />
    <path fill-rule="evenodd" clip-rule="evenodd"
        d="M6.16285 7.85953C6.04887 7.85953 5.95088 7.92929 5.90936 8.02842C6.00081 7.20818 6.46117 5.44002 8.72249 5.1908H10.8252L13.1873 5.1909H17.8496C19.4726 5.1909 20.7931 6.51136 20.7931 8.1344V10.5025C20.5985 10.1428 20.3609 9.79751 20.0787 9.47437C19.1787 8.44383 18.2615 8.01659 18.0126 7.91361C17.967 7.87978 17.9107 7.85953 17.8497 7.85953H6.16285Z"
        fill="#55C842" />
    <path fill-rule="evenodd" clip-rule="evenodd"
        d="M6.21891 6.63525L8.93308 5.85711L7.99136 3.46785C8.30631 3.01589 8.40333 2.44855 8.24949 1.91204C7.96994 0.93714 6.94816 0.371754 5.97181 0.651719C4.99546 0.931683 4.42867 1.95258 4.70818 2.92736C4.86202 3.46388 5.24495 3.89359 5.75154 4.10998L6.21891 6.63525Z"
        fill="#55C842" />
    <path fill-rule="evenodd" clip-rule="evenodd"
        d="M15.1602 5.85696L17.8743 6.63534L18.3418 4.1101C18.8484 3.89371 19.2313 3.464 19.3852 2.92748C19.6647 1.95259 19.0978 0.931651 18.1214 0.651687C17.1451 0.371722 16.1234 0.937142 15.8439 1.91192C15.6901 2.44844 15.7871 3.01577 16.102 3.46773L15.1602 5.85696Z"
        fill="#55C842" />
    <path
        d="M13.275 18.028H7.74956L5.88809 19.818V8.4447C5.88809 8.4447 5.88643 8.40474 5.88809 8.33363V8.13444C5.88809 8.09686 5.89566 8.06115 5.90937 8.02856C6.00071 7.20822 6.46117 5.44016 8.72249 5.19104H6.16285C4.53991 5.19094 3.21945 6.5114 3.21945 8.13444V22.8291C3.21945 23.3952 3.543 23.8846 4.06398 24.1062C4.24408 24.1828 4.43082 24.2203 4.61496 24.2203C4.96363 24.2203 5.30296 24.086 5.56983 23.8291L8.74585 20.7728C9.57668 19.9124 11.2237 18.4704 13.275 18.028Z"
        fill="#55C842" />
    <path d="M5.8881 8.44462V8.33356C5.88644 8.40466 5.8881 8.44462 5.8881 8.44462Z" fill="#55C842" />
    <path
        d="M18.0117 17.9747C17.9662 18.008 17.9103 18.028 17.8497 18.028H17.818H17.7454H13.2751C11.2238 18.4703 9.57674 19.9124 8.74591 20.7728L8.82511 20.6966H17.8498C19.4729 20.6966 20.7933 19.3761 20.7933 17.7531V15.7652C20.2156 16.7872 19.2753 17.6007 18.0117 17.9747Z"
        fill="#55C842" />
    <path
        d="M18.0128 7.91364C18.0804 7.96377 18.1246 8.04391 18.1246 8.13432V17.7532C18.1246 17.8441 18.0799 17.9247 18.0116 17.9747C19.2753 17.6007 20.2155 16.7872 20.7932 15.7653V10.5025C20.5987 10.1428 20.3611 9.79753 20.0788 9.4744C19.1789 8.44396 18.2617 8.01661 18.0128 7.91364Z"
        fill="#55C842" />
    <path
        d="M15.4983 14.5362C15.8714 14.1703 15.812 13.5668 15.4081 13.231L15.0638 12.9447C14.8278 12.7485 14.4759 12.7918 14.2968 13.039V13.039C13.2907 14.3524 12.3623 15.0822 11.0287 14.8414C10.1633 14.6852 9.46527 14.2396 9.24317 14.0851C9.19333 14.0504 9.13869 14.0238 9.07993 14.0087V14.0087C8.88155 13.9578 8.67468 14.0486 8.57878 14.2285L8.45788 14.4554C8.28947 14.7714 8.35866 15.1663 8.65651 15.3684C10.0251 16.297 12.7367 17.2444 15.4983 14.5362Z"
        fill="#55C842" />
    <path
        d="M7.64034 11.4596C7.49135 11.7026 7.56702 12.0134 7.78749 12.194L7.81367 12.2154C7.84716 12.2429 7.88478 12.2648 7.92513 12.2805L7.93978 12.2862C8.10999 12.3523 8.30328 12.2917 8.40528 12.1403V12.1403C8.41452 12.1217 8.583 11.7889 8.88108 11.5659C9.28235 11.2656 9.76991 11.2909 10.3303 11.6409V11.6409C10.5232 11.7614 10.778 11.6668 10.8455 11.4496L10.935 11.162C11.0249 10.8729 10.8769 10.5585 10.5861 10.4741C8.9191 9.99081 8.09476 10.7186 7.64034 11.4596Z"
        fill="#55C842" />
    <circle cx="14.2483" cy="10.8147" r="1.08818" transform="rotate(-8.70619 14.2483 10.8147)" fill="#55C842" />
</svg>