<svg width="30" height="30" viewBox="0 0 30 30" fill="none" xmlns="http://www.w3.org/2000/svg">
    <rect width="30" height="30" rx="15" fill="white" />
    <path fill-rule="evenodd" clip-rule="evenodd"
        d="M23.64 14.7047C23.64 14.0665 23.5827 13.4529 23.4764 12.8638H15V16.3451H19.8436C19.635 17.4701 19.0009 18.4233 18.0477 19.0615V21.3197H20.9564C22.6582 19.7529 23.64 17.4456 23.64 14.7047Z"
        fill="#4285F4" />
    <path fill-rule="evenodd" clip-rule="evenodd"
        d="M15 23.5C17.43 23.5 19.4673 22.6941 20.9564 21.3195L18.0477 19.0613C17.2418 19.6013 16.2109 19.9204 15 19.9204C12.6559 19.9204 10.6718 18.3372 9.96409 16.21H6.95728V18.5418C8.43818 21.4831 11.4818 23.5 15 23.5Z"
        fill="#34A853" />
    <path fill-rule="evenodd" clip-rule="evenodd"
        d="M9.96409 16.2098C9.78409 15.6698 9.68182 15.093 9.68182 14.4998C9.68182 13.9066 9.78409 13.3298 9.96409 12.7898V10.458H6.95727C6.34773 11.673 6 13.0476 6 14.4998C6 15.9521 6.34773 17.3266 6.95727 18.5416L9.96409 16.2098Z"
        fill="#FBBC05" />
    <path fill-rule="evenodd" clip-rule="evenodd"
        d="M15 9.07955C16.3214 9.07955 17.5077 9.53364 18.4405 10.4255L21.0218 7.84409C19.4632 6.39182 17.4259 5.5 15 5.5C11.4818 5.5 8.43818 7.51682 6.95728 10.4582L9.96409 12.79C10.6718 10.6627 12.6559 9.07955 15 9.07955Z"
        fill="#EA4335" />
</svg>