<svg width="29" height="28" viewBox="0 0 29 28" fill="none" xmlns="http://www.w3.org/2000/svg">
<path d="M21.2691 20.1739C21.2691 20.1739 21.3589 20.1097 21.5024 20.0001C23.6526 18.3376 25.0024 15.9284 25.0024 13.2462C25.0024 8.2459 20.3008 4.18823 14.5024 4.18823C8.70411 4.18823 4.00244 8.2459 4.00244 13.2462C4.00244 18.2489 8.70411 22.1666 14.5024 22.1666C14.9971 22.1666 15.8091 22.1339 16.9384 22.0686C18.4108 23.0252 20.5598 23.8104 22.4404 23.8104C23.0226 23.8104 23.2968 23.3321 22.9234 22.8444C22.3564 22.1491 21.5748 21.0349 21.2714 20.1727L21.2691 20.1739Z" fill="#D9DAE3" stroke="#D9DAE3" stroke-width="2.33333" stroke-linecap="round" stroke-linejoin="round"/>
<path d="M9.25 15.7501C12.1667 18.6667 16.8333 18.6667 19.75 15.7501" stroke="white" stroke-width="2.33333" stroke-linecap="round" stroke-linejoin="round"/>
</svg>
