<svg width="24" height="25" viewBox="0 0 24 25" fill="none" xmlns="http://www.w3.org/2000/svg">
<path d="M9 11.5386C9 12.3342 9.31607 13.0973 9.87868 13.6599C10.4413 14.2225 11.2044 14.5386 12 14.5386C12.7957 14.5386 13.5587 14.2225 14.1213 13.6599C14.6839 13.0973 15 12.3342 15 11.5386C15 10.7429 14.6839 9.97986 14.1213 9.41725C13.5587 8.85464 12.7957 8.53857 12 8.53857C11.2044 8.53857 10.4413 8.85464 9.87868 9.41725C9.31607 9.97986 9 10.7429 9 11.5386Z" stroke="#D9DAE3" stroke-width="2" stroke-linecap="round" stroke-linejoin="round"/>
<path d="M17.657 17.1955L13.414 21.4385C13.039 21.8132 12.5306 22.0236 12.0005 22.0236C11.4704 22.0236 10.962 21.8132 10.587 21.4385L6.343 17.1955C5.22423 16.0767 4.46234 14.6512 4.15369 13.0994C3.84504 11.5476 4.00349 9.93904 4.60901 8.47726C5.21452 7.01547 6.2399 5.76607 7.55549 4.88703C8.87107 4.008 10.4178 3.53882 12 3.53882C13.5822 3.53882 15.1289 4.008 16.4445 4.88703C17.7601 5.76607 18.7855 7.01547 19.391 8.47726C19.9965 9.93904 20.155 11.5476 19.8463 13.0994C19.5377 14.6512 18.7758 16.0767 17.657 17.1955Z" stroke="#D9DAE3" stroke-width="2" stroke-linecap="round" stroke-linejoin="round"/>
</svg>
