<svg width="65" height="64" viewBox="0 0 65 64" fill="none" xmlns="http://www.w3.org/2000/svg">
    <g clip-path="url(#clip0_453_9550)">
        <path
            d="M16.615 20.348V20.8792C16.6197 20.686 16.6338 20.4065 16.6717 20.0654C16.6352 20.1523 16.615 20.2478 16.615 20.348Z"
            fill="#FF9C06" />
        <path fill-rule="evenodd" clip-rule="evenodd"
            d="M17.3477 19.6147C17.0438 19.6147 16.7825 19.8007 16.6718 20.0651C16.9156 17.8778 18.1432 13.1627 24.1735 12.498H29.7807L36.0797 12.4983H48.5124C52.8405 12.4983 56.3617 16.0196 56.3617 20.3477V26.6627C55.843 25.7033 55.2094 24.7827 54.4568 23.921C52.0569 21.1728 49.611 20.0335 48.9472 19.7589C48.8254 19.6687 48.6754 19.6147 48.5127 19.6147H17.3477Z"
            fill="#FF9C06" />
        <path fill-rule="evenodd" clip-rule="evenodd"
            d="M19.2719 16.9636L26.5097 14.8885L23.9984 8.51715C24.8383 7.31192 25.097 5.79902 24.6867 4.36831C23.9413 1.76857 21.2165 0.260868 18.6129 1.00744C16.0093 1.75402 14.4979 4.47643 15.2432 7.07585C15.6535 8.50656 16.6746 9.65247 18.0255 10.2295L19.2719 16.9636Z"
            fill="#FF9C06" />
        <path fill-rule="evenodd" clip-rule="evenodd"
            d="M43.1156 14.888L50.3532 16.9637L51.5998 10.2297C52.9507 9.65264 53.9719 8.50673 54.3821 7.07602C55.1276 4.47629 53.6158 1.75378 51.0122 1.00721C48.4086 0.260631 45.6842 1.76842 44.9388 4.36784C44.5285 5.79855 44.7873 7.31145 45.6271 8.51669L43.1156 14.888Z"
            fill="#FF9C06" />
        <path
            d="M36.3135 46.7305H21.5789L16.6149 51.504V21.175C16.6149 21.175 16.6105 21.0684 16.6149 20.8788V20.3476C16.6149 20.2474 16.6351 20.1522 16.6717 20.0653C16.9153 17.8777 18.1432 13.1629 24.1734 12.4985H17.3476C13.0198 12.4983 9.49854 16.0195 9.49854 20.3476V59.5336C9.49854 61.0432 10.3613 62.3481 11.7506 62.9391C12.2309 63.1434 12.7289 63.2433 13.2199 63.2433C14.1497 63.2433 15.0546 62.8854 15.7662 62.2003L24.2356 54.05C26.4512 51.7556 30.8433 47.9102 36.3135 46.7305Z"
            fill="#FF9C06" />
        <path d="M16.615 21.1756V20.8794C16.6106 21.069 16.615 21.1756 16.615 21.1756Z"
            fill="#FF9C06" />
        <path
            d="M48.9446 46.5889C48.8233 46.6777 48.6744 46.7309 48.5128 46.7309H48.4281H48.2346H36.3137C30.8435 47.9103 26.4514 51.756 24.2358 54.0504L24.447 53.8472H48.513C52.8412 53.8472 56.3624 50.326 56.3624 45.9979V40.6968C54.8217 43.4222 52.3144 45.5915 48.9446 46.5889Z"
            fill="#FF9C06" />
        <path
            d="M48.9474 19.7588C49.1279 19.8925 49.2455 20.1062 49.2455 20.3473V45.9977C49.2455 46.2402 49.1265 46.455 48.9443 46.5884C52.3142 45.5911 54.8215 43.4218 56.3619 40.6966V26.6626C55.8432 25.7032 55.2095 24.7825 54.4569 23.9208C52.057 21.173 49.6112 20.0334 48.9474 19.7588Z"
            fill="#FF9C06" />
        <path
            d="M42.2426 37.4196C43.2376 36.4438 43.0792 34.8346 42.0021 33.939L41.0838 33.1755C40.4546 32.6523 39.5161 32.7678 39.0387 33.4271C36.3557 36.9294 33.8798 38.8755 30.3236 38.2335C28.0157 37.8169 26.1544 36.6286 25.5622 36.2166C25.4293 36.1242 25.2835 36.0532 25.1269 36.013C24.5978 35.8773 24.0462 36.1192 23.7905 36.5991L23.468 37.2042C23.0189 38.047 23.2035 39.0999 23.9977 39.6388C27.6473 42.1152 34.8784 44.6416 42.2426 37.4196Z"
            fill="#FF9C06" />
        <path
            d="M21.2876 29.2151C20.8903 29.863 21.0921 30.6918 21.68 31.1734L21.7498 31.2306C21.8391 31.3037 21.9394 31.3623 22.0471 31.4041L22.0861 31.4193C22.54 31.5956 23.0555 31.434 23.3275 31.0301C23.3521 30.9806 23.8014 30.0932 24.5963 29.4986C25.6663 28.6977 26.9665 28.7651 28.4609 29.6985C28.9753 30.0198 29.6547 29.7676 29.8348 29.1884L30.0734 28.4214C30.3131 27.6504 29.9183 26.812 29.143 26.5871C24.6977 25.2982 22.4994 27.2391 21.2876 29.2151Z"
            fill="#FF9C06" />
        <circle cx="38.9091" cy="27.4955" r="2.90182" transform="rotate(-8.70619 38.9091 27.4955)"
            fill="#FF9C06" />
    </g>
    <defs>
        <clipPath id="clip0_453_9550">
            <rect width="64" height="64" fill="white" transform="translate(0.916748)" />
        </clipPath>
    </defs>
</svg>