<svg width="24" height="25" viewBox="0 0 24 25" fill="none" xmlns="http://www.w3.org/2000/svg">
<path d="M5 10.62C5 12.4765 5.7375 14.257 7.05025 15.5697C8.36301 16.8825 10.1435 17.62 12 17.62M12 17.62C13.8565 17.62 15.637 16.8825 16.9497 15.5697C18.2625 14.257 19 12.4765 19 10.62M12 17.62V21.62M8 21.62H16M9 5.62C9 4.82435 9.31607 4.06128 9.87868 3.49867C10.4413 2.93607 11.2044 2.62 12 2.62C12.7956 2.62 13.5587 2.93607 14.1213 3.49867C14.6839 4.06128 15 4.82435 15 5.62V10.62C15 11.4156 14.6839 12.1787 14.1213 12.7413C13.5587 13.3039 12.7956 13.62 12 13.62C11.2044 13.62 10.4413 13.3039 9.87868 12.7413C9.31607 12.1787 9 11.4156 9 10.62V5.62Z" stroke="#D9DAE3" stroke-width="2" stroke-linecap="round" stroke-linejoin="round"/>
</svg>
