<svg width="24" height="25" viewBox="0 0 24 25" fill="none" xmlns="http://www.w3.org/2000/svg">
<path d="M15 8.53857H15.01M3 16.5386L8 11.5386C8.928 10.6456 10.072 10.6456 11 11.5386L16 16.5386M14 14.5386L15 13.5386C15.928 12.6456 17.072 12.6456 18 13.5386L21 16.5386M3 6.53857C3 5.74292 3.31607 4.97986 3.87868 4.41725C4.44129 3.85464 5.20435 3.53857 6 3.53857H18C18.7957 3.53857 19.5587 3.85464 20.1213 4.41725C20.6839 4.97986 21 5.74292 21 6.53857V18.5386C21 19.3342 20.6839 20.0973 20.1213 20.6599C19.5587 21.2225 18.7957 21.5386 18 21.5386H6C5.20435 21.5386 4.44129 21.2225 3.87868 20.6599C3.31607 20.0973 3 19.3342 3 18.5386V6.53857Z" stroke="#D9DAE3" stroke-width="2" stroke-linecap="round" stroke-linejoin="round"/>
</svg>
