<svg width="100" height="55" viewBox="0 0 100 55" fill="none" xmlns="http://www.w3.org/2000/svg">
<path d="M18.3429 27.2364C17.5518 26.7519 17.0411 26.0509 16.7563 25.2216C16.174 23.547 15.8202 21.8264 15.8494 20.0564C15.9415 14.3668 18.0763 9.43006 21.9669 5.15601C22.6147 4.44358 23.3288 3.79023 24.138 3.22848C24.6789 2.85298 25.2593 2.56481 25.9154 2.42238C25.9816 2.40679 26.0546 2.42061 26.1261 2.41999C26.256 2.60534 26.3769 2.8001 26.5189 2.98004C27.4076 4.08973 27.9518 5.34298 28.2402 6.69893C28.4321 7.59692 28.5551 8.50301 28.5558 9.4239C28.559 10.2278 28.589 11.0284 28.4467 11.8261C28.3315 12.4676 28.2201 13.1097 28.1607 13.7555C28.1007 14.4545 27.8811 15.1169 27.6735 15.7739C27.4208 16.581 27.0631 17.3626 26.7421 18.1494C26.7196 18.1996 26.636 18.2305 26.5814 18.269C26.623 17.5923 26.6682 16.916 26.7092 16.2428C26.7017 16.0675 26.6979 15.8928 26.6899 15.721C26.6876 15.4363 26.7121 15.1482 26.6793 14.8663C26.6132 14.2561 26.6012 13.6359 26.3854 13.0474C26.3495 12.861 26.3142 12.6712 26.282 12.4853C26.1922 11.8328 25.9333 11.2311 25.6187 10.6501C25.3893 10.2267 25.0932 9.8474 24.668 9.57788C24.3042 9.349 23.9169 9.20213 23.4678 9.34166C23.0301 9.32992 22.6935 9.54569 22.3963 9.79901C22.0997 10.0488 21.8204 10.3331 21.5768 10.6295C20.9022 11.4448 20.418 12.3687 20.0078 13.3243C19.8331 13.737 19.7047 14.1669 19.5548 14.5902C19.3874 14.9045 19.2552 15.2343 19.2466 15.5921C18.8323 16.7249 18.6929 17.9034 18.5897 19.0906C18.5206 19.4008 18.4399 19.713 18.5231 20.034C18.3779 21.1513 18.4433 22.2661 18.5991 23.3795C18.6208 23.5354 18.6461 23.6918 18.6993 23.8379C18.8156 24.1387 19.0915 24.2272 19.3793 24.0615C19.4948 23.9924 19.5951 23.8998 19.718 23.8069C19.9035 23.9219 20.0728 24.0452 20.2573 24.1422C20.786 24.4227 21.332 24.6132 21.9456 24.4293C21.9918 24.4464 22.0344 24.4631 22.0806 24.4803C21.8792 24.8714 21.5179 25.1264 21.1776 25.3915C20.4089 25.9838 19.5823 26.4862 18.7083 26.9287C18.5697 27.0016 18.4636 27.1325 18.3429 27.2364Z" fill="#463F54"/>
<path d="M26.584 18.2768C26.6386 18.2382 26.7258 18.2078 26.7447 18.1572C27.0662 17.3669 27.4234 16.5887 27.6761 15.7817C27.8837 15.1247 28.0997 14.4618 28.1633 13.7632C28.219 13.1169 28.3347 12.4719 28.4493 11.8338C28.5916 11.0361 28.5616 10.2356 28.5584 9.43164C28.5546 8.50676 28.4346 7.60466 28.2428 6.70667C27.9507 5.3502 27.4102 4.09747 26.5215 2.98779C26.379 2.81133 26.258 2.61657 26.1286 2.42773C26.8352 2.24972 27.4495 2.48538 27.992 2.87448C28.3479 3.1307 28.6597 3.45538 28.9368 3.78585C29.6861 4.67331 30.2017 5.69145 30.6213 6.74942C31.2376 8.29723 31.5514 9.90916 31.7107 11.5492C31.8833 13.3261 31.9103 15.0969 31.5784 16.8563C30.9807 20.0359 29.6215 22.8846 27.4287 25.3566C26.909 25.9412 26.3367 26.4759 25.6929 26.9364C24.5765 27.743 23.3353 28.2796 21.9163 28.3255C20.6065 28.3689 19.3816 28.0723 18.3497 27.2412C18.4704 27.1373 18.5728 27.0059 18.7151 26.9334C19.5885 26.4945 20.4193 25.9891 21.1844 25.3962C21.5241 25.1347 21.886 24.8762 22.0874 24.485C23.3234 24.1326 24.1987 23.3561 24.8899 22.3547C25.6195 21.2982 26.122 20.153 26.398 18.9155C26.4419 18.6977 26.5185 18.488 26.584 18.2768Z" fill="#393343"/>
<path d="M26.5838 18.2767C26.5183 18.4879 26.4412 18.7011 26.3941 18.9149C26.1181 20.1524 25.6156 21.2976 24.886 22.3541C24.1948 23.3555 23.3232 24.1325 22.0835 24.4844C22.0373 24.4673 21.9947 24.4506 21.9485 24.4334C21.9489 24.2557 21.9724 24.0742 21.946 23.8998C21.7376 22.6369 21.5633 21.3716 21.4993 20.097C21.4535 19.2515 21.3562 18.3988 21.5358 17.553C21.6923 17.4613 21.8425 17.3615 22.0016 17.2772C23.458 16.4829 25.0445 16.1974 26.7153 16.2509C26.6669 16.9232 26.6254 17.5999 26.5838 18.2767Z" fill="#A32EDA"/>
<path d="M21.533 17.549C21.3571 18.3953 21.4549 19.2445 21.4965 20.0929C21.5641 21.3681 21.7347 22.6328 21.9432 23.8958C21.9732 24.0706 21.946 24.2517 21.9456 24.4294C21.3321 24.6134 20.7856 24.4263 20.2573 24.1423C20.0729 24.0453 19.9036 23.922 19.718 23.807C19.5952 23.9 19.4949 23.9925 19.3793 24.0616C19.0947 24.2314 18.8151 24.1423 18.6993 23.8381C18.6425 23.6914 18.6171 23.535 18.5992 23.3796C18.4471 22.2668 18.378 21.1514 18.5232 20.0341C18.592 19.9763 18.6781 19.9279 18.7264 19.8565C19.1289 19.2518 19.6845 18.7788 20.2463 18.3138C20.627 18.0047 21.0234 17.6907 21.533 17.549Z" fill="#852FC9"/>
<path d="M26.3888 13.0479C26.6047 13.6364 26.6167 14.2566 26.6828 14.8668C26.7156 15.1487 26.6911 15.4368 26.6934 15.7215C26.0871 15.7572 25.4808 15.7679 24.8782 15.829C23.6725 15.9547 22.5743 16.3905 21.4965 16.8896C21.5425 16.5583 21.6452 16.2243 21.6187 15.9007C21.5679 15.2891 21.6173 14.7095 21.8891 14.1504C21.9494 14.0238 21.9246 13.8887 21.8053 13.7831C22.7286 13.312 23.6956 13 24.7632 12.9438C25.3159 12.9148 25.845 13.0176 26.3888 13.0479Z" fill="#A32EDA"/>
<path d="M23.4708 9.34587C23.9162 9.20583 24.3035 9.3527 24.671 9.58209C25.0967 9.84813 25.3928 10.2275 25.6216 10.6543C25.9326 11.2348 26.1915 11.8365 26.285 12.4895C25.418 12.3855 24.5511 12.3561 23.698 12.5597C23.1527 12.6893 22.6222 12.8707 22.0843 13.0262C22.1572 12.816 22.2479 12.6119 22.3024 12.3991C22.4884 11.6609 22.7984 10.9721 23.131 10.2829C23.2695 9.98596 23.46 9.69277 23.4708 9.34587Z" fill="#A32EDA"/>
<path d="M21.8018 13.7827C21.9211 13.8883 21.9459 14.0234 21.8856 14.15C21.6138 14.7091 21.568 15.2892 21.6152 15.9003C21.6412 16.2274 21.5385 16.5614 21.493 16.8892C20.4978 17.4888 19.541 18.1329 18.7603 18.9796C18.7157 19.0266 18.6474 19.0561 18.5891 19.0942C18.6923 17.907 18.8317 16.7285 19.246 15.5957C19.9422 14.9363 20.7031 14.3464 21.5402 13.849C21.6142 13.8061 21.7156 13.8061 21.8018 13.7827Z" fill="#852FC9"/>
<path d="M23.4709 9.34607C23.4601 9.69296 23.2701 9.98267 23.1274 10.2826C22.7953 10.9683 22.4848 11.6606 22.2988 12.3988C22.2443 12.6116 22.1531 12.8192 22.0807 13.0259C21.3449 13.3739 20.6606 13.8039 20.0137 14.2854C19.8656 14.3961 19.7085 14.4914 19.5542 14.5941C19.7041 14.1708 19.8325 13.7409 20.0072 13.3282C20.4137 12.3721 20.9016 11.4487 21.5762 10.6334C21.8203 10.3335 22.099 10.0527 22.3957 9.8029C22.6997 9.5541 23.0369 9.33485 23.4709 9.34607Z" fill="#852FC9"/>
<path d="M18.5923 19.0983C18.6506 19.0603 18.7189 19.0308 18.7635 18.9837C19.5447 18.1336 20.5046 17.4935 21.4962 16.8933C22.5702 16.3937 23.6722 15.9584 24.8779 15.8328C25.4805 15.7717 26.0873 15.7574 26.693 15.7252C26.7005 15.9005 26.7043 16.0752 26.7118 16.2505C25.0447 16.1975 23.4582 16.4829 21.9982 17.2767C21.8385 17.3645 21.6852 17.4603 21.5324 17.5526C21.027 17.6913 20.6306 18.0053 20.2488 18.3214C19.6912 18.7834 19.132 19.2559 18.7289 19.8641C18.6806 19.9355 18.5945 19.9838 18.5257 20.0417C18.4388 19.7202 18.5195 19.408 18.5923 19.0983Z" fill="#45017A"/>
<path d="M19.5581 14.5944C19.7125 14.4917 19.8695 14.3965 20.0176 14.2857C20.6645 13.8043 21.3451 13.3737 22.0846 13.0262C22.623 12.8672 23.153 12.6893 23.6983 12.5597C24.5514 12.3561 25.4188 12.382 26.2853 12.4895C26.3211 12.6759 26.3565 12.8657 26.3923 13.0521C25.8491 13.0184 25.3199 12.9156 24.7667 12.948C23.6991 13.0042 22.7321 13.3163 21.8088 13.7873C21.719 13.8103 21.6212 13.8107 21.5467 13.8571C20.7096 14.3545 19.9529 14.9415 19.2525 15.6038C19.2585 15.2385 19.3902 14.9121 19.5581 14.5944Z" fill="#45017A"/>
<path d="M81.9487 27.4749C82.7397 26.9905 83.2504 26.2894 83.5352 25.4601C84.1175 23.7856 84.4713 22.0649 84.4421 20.295C84.3495 14.6019 82.2184 9.66462 78.3278 5.39057C77.68 4.67814 76.9659 4.02479 76.1567 3.46304C75.6158 3.08754 75.0354 2.79937 74.3793 2.65693C74.3131 2.64135 74.2401 2.65517 74.1686 2.65455C74.0387 2.8399 73.9178 3.03466 73.7758 3.2146C72.8871 4.32429 72.3429 5.57753 72.0545 6.93348C71.8626 7.83147 71.7396 8.73757 71.7389 9.65846C71.7357 10.4624 71.7057 11.263 71.848 12.0606C71.9632 12.7022 72.0746 13.3442 72.134 13.99C72.194 14.6891 72.4136 15.3515 72.6212 16.0085C72.8739 16.8155 73.2316 17.5972 73.5526 18.384C73.5752 18.4341 73.6587 18.4651 73.7133 18.5036C73.6717 17.8268 73.6265 17.1506 73.5855 16.4773C73.593 16.3021 73.5968 16.1273 73.6048 15.9556C73.6071 15.6708 73.5826 15.3827 73.6154 15.1008C73.6815 14.4907 73.6935 13.8704 73.9093 13.2819C73.9452 13.0956 73.9805 12.9057 74.0164 12.7194C74.1062 12.0668 74.3651 11.4651 74.6797 10.8841C74.9091 10.4608 75.2052 10.0814 75.6304 9.81192C75.9941 9.58304 76.3815 9.43617 76.8306 9.5757C77.2682 9.56396 77.6048 9.77974 77.902 10.033C78.1987 10.2829 78.478 10.5671 78.7216 10.8635C79.3961 11.6789 79.8804 12.6027 80.2906 13.5583C80.4652 13.971 80.5936 14.401 80.7436 14.8243C80.911 15.1385 81.0431 15.4683 81.0518 15.8262C81.466 16.959 81.6055 18.1375 81.7087 19.3246C81.7778 19.6349 81.8585 19.9471 81.7752 20.2681C81.9205 21.3853 81.855 22.5002 81.6993 23.6135C81.6776 23.7694 81.6523 23.9259 81.5991 24.072C81.4828 24.3727 81.2069 24.4613 80.9191 24.2955C80.8035 24.2264 80.7033 24.1339 80.5804 24.0409C80.3948 24.1559 80.2256 24.2792 80.0411 24.3763C79.5123 24.6568 78.9663 24.8473 78.3528 24.6633C78.3066 24.6805 78.264 24.6971 78.2177 24.7143C78.4192 25.1055 78.7805 25.3605 79.1208 25.6255C79.8895 26.2178 80.7161 26.7203 81.59 27.1627C81.7219 27.2402 81.8279 27.371 81.9487 27.4749Z" fill="#463F54"/>
<path d="M73.7074 18.515C73.6528 18.4765 73.5656 18.4461 73.5467 18.3954C73.2252 17.6051 72.868 16.8269 72.6154 16.0199C72.4078 15.3629 72.1918 14.7 72.1282 14.0014C72.0724 13.3551 71.9568 12.7101 71.8422 12.0721C71.6999 11.2744 71.7299 10.4738 71.7331 9.66986C71.7369 8.74497 71.8568 7.84288 72.0487 6.94488C72.3407 5.58842 72.8812 4.33569 73.7699 3.226C73.9124 3.04954 74.0334 2.85478 74.1628 2.66595C73.4563 2.48794 72.8419 2.7236 72.2994 3.1127C71.9436 3.36891 71.6318 3.69359 71.3546 4.02407C70.6053 4.91152 70.0897 5.92967 69.6702 6.98763C69.0539 8.53544 68.7401 10.1474 68.5808 11.7874C68.4082 13.5643 68.3812 15.3351 68.713 17.0945C69.3107 20.2741 70.67 23.1228 72.8628 25.5948C73.3825 26.1795 73.9548 26.7141 74.5986 27.1746C75.715 27.9812 76.9561 28.5178 78.3751 28.5637C79.6849 28.6071 80.9098 28.3106 81.9418 27.4794C81.821 27.3755 81.7186 27.2441 81.5763 27.1717C80.7029 26.7327 79.8721 26.2273 79.107 25.6345C78.7673 25.3729 78.4055 25.1144 78.204 24.7232C76.9643 24.3713 76.0927 23.5943 75.4015 22.5929C74.672 21.5365 74.1695 20.3912 73.8935 19.1537C73.8495 18.9359 73.773 18.7262 73.7074 18.515Z" fill="#393343"/>
<path d="M73.7075 18.5148C73.773 18.726 73.8501 18.9392 73.8973 19.153C74.1732 20.3905 74.6757 21.5357 75.4053 22.5922C76.0965 23.5936 76.9681 24.3706 78.2078 24.7225C78.254 24.7054 78.2966 24.6887 78.3428 24.6715C78.3424 24.4938 78.3189 24.3123 78.3453 24.1379C78.5538 22.875 78.7281 21.6097 78.792 20.3351C78.8378 19.4896 78.9351 18.6369 78.7555 17.7911C78.599 17.6994 78.4488 17.5996 78.2897 17.5153C76.8333 16.721 75.2468 16.4355 73.5761 16.489C73.6244 17.1613 73.666 17.838 73.7075 18.5148Z" fill="#A32EDA"/>
<path d="M78.7581 17.7873C78.934 18.6335 78.8362 19.4828 78.7946 20.3312C78.727 21.6063 78.5564 22.8711 78.3479 24.134C78.3179 24.3089 78.3451 24.49 78.3455 24.6677C78.959 24.8516 79.5055 24.6646 80.0338 24.3806C80.2182 24.2836 80.3875 24.1602 80.573 24.0453C80.6959 24.1382 80.7962 24.2308 80.9117 24.2999C81.1964 24.4696 81.476 24.3806 81.5918 24.0763C81.6486 23.9297 81.6739 23.7733 81.6919 23.6179C81.844 22.505 81.9131 21.3897 81.7679 20.2724C81.6991 20.2145 81.613 20.1662 81.5647 20.0948C81.1621 19.4901 80.6066 19.0171 80.0448 18.5521C79.6641 18.243 79.2676 17.929 78.7581 17.7873Z" fill="#852FC9"/>
<path d="M73.9021 13.2862C73.6862 13.8747 73.6742 14.495 73.6081 15.1052C73.5753 15.3871 73.5998 15.6751 73.5975 15.9599C74.2038 15.9956 74.8101 16.0063 75.4127 16.0674C76.6184 16.193 77.7166 16.6289 78.7944 17.128C78.7484 16.7967 78.6456 16.4627 78.6722 16.139C78.723 15.5275 78.6735 14.9479 78.4018 14.3888C78.3415 14.2622 78.3662 14.1271 78.4856 14.0215C77.5623 13.5504 76.5953 13.2384 75.5277 13.1822C74.975 13.1532 74.4459 13.256 73.9021 13.2862Z" fill="#A32EDA"/>
<path d="M76.8206 9.58404C76.3752 9.444 75.9878 9.59087 75.6204 9.82026C75.1947 10.0863 74.8986 10.4657 74.6697 10.8924C74.3588 11.473 74.0999 12.0746 74.0064 12.7277C74.8734 12.6236 75.7403 12.5942 76.5934 12.7979C77.1387 12.9274 77.6692 13.1089 78.2071 13.2643C78.1342 13.0542 78.0435 12.8501 77.989 12.6373C77.803 11.8991 77.493 11.2103 77.1604 10.5211C77.0219 10.2241 76.8314 9.93093 76.8206 9.58404Z" fill="#A32EDA"/>
<path d="M78.4894 14.0209C78.3701 14.1266 78.3453 14.2616 78.4056 14.3882C78.6774 14.9473 78.7232 15.5275 78.676 16.1385C78.65 16.4657 78.7527 16.7996 78.7982 17.1274C79.7934 17.727 80.7502 18.3712 81.5308 19.2178C81.5755 19.2648 81.6437 19.2944 81.702 19.3324C81.5989 18.1452 81.4594 16.9667 81.0452 15.834C80.349 15.1745 79.5881 14.5847 78.751 14.0873C78.6769 14.0443 78.5755 14.0444 78.4894 14.0209Z" fill="#852FC9"/>
<path d="M76.8206 9.58422C76.8314 9.93111 77.0214 10.2208 77.1641 10.5207C77.4962 11.2064 77.8067 11.8987 77.9927 12.6369C78.0472 12.8497 78.1384 13.0573 78.2108 13.264C78.9466 13.6121 79.6309 14.0421 80.2778 14.5236C80.4259 14.6343 80.5829 14.7295 80.7373 14.8323C80.5874 14.409 80.459 13.9791 80.2843 13.5663C79.8778 12.6102 79.3899 11.6869 78.7153 10.8716C78.4675 10.5722 78.1924 10.2909 77.8958 10.0411C77.5917 9.79226 77.2546 9.573 76.8206 9.58422Z" fill="#852FC9"/>
<path d="M81.6987 19.3366C81.6404 19.2986 81.5721 19.2691 81.5275 19.222C80.7463 18.3719 79.7863 17.7318 78.7948 17.1317C77.7208 16.632 76.6188 16.1967 75.4131 16.0711C74.8105 16.01 74.2037 15.9957 73.5979 15.9635C73.5905 16.1388 73.5867 16.3135 73.5792 16.4888C75.2463 16.4358 76.8328 16.7212 78.2928 17.5151C78.4525 17.6028 78.6058 17.6986 78.7586 17.7909C79.2639 17.9296 79.6604 18.2437 80.0421 18.5597C80.5998 19.0218 81.159 19.4942 81.562 20.1024C81.6103 20.1738 81.6964 20.2222 81.7652 20.28C81.8522 19.9585 81.7715 19.6463 81.6987 19.3366Z" fill="#45017A"/>
<path d="M80.7335 14.8326C80.5791 14.7299 80.4221 14.6346 80.274 14.5239C79.6271 14.0425 78.9465 13.6119 78.207 13.2644C77.6686 13.1054 77.1386 12.9275 76.5933 12.7979C75.7402 12.5943 74.8728 12.6202 74.0063 12.7277C73.9705 12.9141 73.9351 13.1039 73.8993 13.2903C74.4425 13.2566 74.9717 13.1538 75.5249 13.1862C76.5925 13.2424 77.5595 13.5544 78.4828 14.0255C78.5726 14.0484 78.6703 14.0489 78.7449 14.0953C79.582 14.5927 80.3387 15.1796 81.0391 15.842C81.033 15.4767 80.9014 15.1503 80.7335 14.8326Z" fill="#45017A"/>
<path d="M47.9912 9.12343C48.2984 9.10877 48.6056 9.08435 48.9128 9.08435C49.6744 9.08679 50.4386 9.08191 51.2003 9.1161C53.3608 9.21624 55.4909 9.51421 57.5804 10.0637C61.6781 11.1433 65.3467 13.0141 68.6777 15.5346C70.5793 16.9732 72.1991 18.6682 73.6818 20.4975C76.4186 23.8753 78.4929 27.6023 80.0289 31.6151C80.59 33.0805 81.0546 34.5752 81.3415 36.1139C81.5826 37.4083 81.7248 38.7101 81.6639 40.0265C81.5903 41.6263 81.2932 43.1821 80.6357 44.6695C79.9781 46.152 78.9879 47.3854 77.7211 48.4234C75.8017 49.9987 73.6335 51.1759 71.3054 52.0918C69.6018 52.761 67.8246 53.1835 66.0373 53.5767C65.9129 53.6036 65.7809 53.5987 65.6514 53.6109C65.5549 53.6085 65.461 53.6085 65.3645 53.606C65.2629 53.6036 65.1766 53.6329 65.1157 53.7159L65.0928 53.6988C64.8161 53.7037 64.5343 53.6695 64.2677 53.7208C64.0265 53.7672 63.7853 53.7672 63.5467 53.7917C63.0008 53.8503 62.4524 53.9016 61.9015 53.8869C61.8685 53.8869 61.8355 53.8894 61.805 53.9016C61.5892 53.9919 61.3582 53.9699 61.1322 53.9724C60.792 53.9748 60.4518 53.9724 60.1091 53.9773C59.9796 53.9797 59.8501 53.9944 59.7232 54.0066C59.548 54.0237 59.3703 54.0628 59.1951 54.0628C57.0193 54.0676 54.846 54.0652 52.6703 54.0652C52.5738 54.0652 52.4697 54.0823 52.3783 54.0579C51.8527 53.9162 51.3145 53.9968 50.7814 53.9724C50.6366 53.9651 50.4792 53.9919 50.3472 53.9504C50.0756 53.8674 49.8014 53.8796 49.5272 53.8796C48.9128 53.8771 48.306 53.733 47.689 53.777C47.6586 53.7794 47.623 53.7721 47.5926 53.7648C47.1229 53.6378 46.6303 53.6915 46.153 53.606C45.7417 53.5328 45.3178 53.5401 44.9014 53.4864C44.3276 53.4131 43.7564 53.313 43.1826 53.225C42.7053 53.1542 42.2229 53.098 41.7481 53.0125C41.1312 52.9002 40.5143 52.7805 39.9024 52.6389C38.8183 52.3897 37.7469 52.0918 36.6857 51.7621C35.9773 51.5422 35.2715 51.3102 34.5759 51.0562C33.8955 50.8071 33.2201 50.5409 32.5626 50.2429C31.6689 49.8375 30.7905 49.4027 29.9425 48.9069C28.8432 48.2646 27.853 47.4977 26.9137 46.6624C26.4262 46.2277 26.0174 45.7221 25.6087 45.2214C24.748 44.1737 24.1108 43.0062 23.6766 41.7386C23.5141 41.2673 23.4126 40.7812 23.3237 40.2879C23.2247 39.7506 23.146 39.2157 23.1562 38.6686C23.1663 38.0604 23.1587 37.4499 23.1612 36.8417C23.1612 36.7172 23.1612 36.5902 23.179 36.468C23.2323 36.0846 23.2907 35.7011 23.3567 35.3201C23.4354 34.8781 23.5065 34.4311 23.6132 33.9939C23.7833 33.2832 23.9864 32.5798 24.2022 31.8764C24.4383 31.0973 24.7353 30.3426 25.0324 29.5855C25.2482 29.0335 25.5122 28.4962 25.7712 27.9589C26.0708 27.3361 26.3627 26.7084 26.7004 26.1076C27.1091 25.3822 27.5509 24.6739 28.0003 23.9705C28.3049 23.4942 28.6325 23.0278 28.9752 22.5759C29.4576 21.9336 29.9552 21.3035 30.501 20.7051C30.9073 20.2606 31.2729 19.7843 31.7171 19.374C32.5778 18.5729 33.3801 17.7107 34.3017 16.9658C34.746 16.6068 35.1751 16.2258 35.6371 15.8863C36.3302 15.3759 37.0157 14.8532 37.7317 14.3745C38.5009 13.8592 39.3007 13.3829 40.0903 12.8944C41.0576 12.296 42.0782 11.7832 43.0963 11.2703C43.6421 10.9967 44.2134 10.7696 44.7617 10.5058C45.6757 10.0662 46.6227 9.70471 47.5697 9.3408C47.717 9.28951 47.8515 9.19914 47.9912 9.12343ZM70.0106 44.7037C70.2238 44.5376 70.4574 44.3886 70.6453 44.1981C71.7345 43.0893 72.3082 41.7582 72.4352 40.2488C72.5469 38.9275 72.3387 37.6379 71.9147 36.3801C71.3308 34.6485 70.4853 33.039 69.4901 31.4978C68.3553 29.7393 66.9817 28.1665 65.4254 26.7401C64.7552 26.1247 64.0417 25.5629 63.2776 25.0598C61.409 23.8264 59.4058 22.8495 57.2554 22.1583C55.7321 21.6698 54.1809 21.2912 52.5789 21.1349C51.7817 20.9933 50.9718 20.9395 50.1644 20.9224C49.1438 20.9005 48.1257 20.8858 47.1026 20.9737C46.3434 21.0397 45.5843 21.0959 44.8354 21.2106C43.571 21.4011 42.327 21.6918 41.1083 22.0752C39.3464 22.6321 37.6682 23.3721 36.0814 24.2953C35.0659 24.8864 34.0884 25.5287 33.21 26.2956C32.1031 27.2604 31.0647 28.291 30.1481 29.4316C28.6528 31.2927 27.4265 33.3076 26.543 35.5057C25.9971 36.8661 25.6417 38.2656 25.6823 39.7432C25.7077 40.6103 25.8575 41.4456 26.1901 42.2515C26.51 43.0306 26.9797 43.7243 27.6042 44.3031C27.9647 44.6377 28.3735 44.9259 28.7797 45.2068C30.138 46.1373 31.6461 46.7845 33.2125 47.3096C34.0072 47.5759 34.8247 47.7713 35.6498 47.9471C36.9142 48.2158 38.1912 48.4234 39.4809 48.5504C39.8846 48.5894 40.2858 48.6236 40.6894 48.6627C41.2531 48.714 41.8167 48.7775 42.3803 48.8141C43.1242 48.863 43.8681 48.8923 44.612 48.9314C44.645 48.9338 44.678 48.9338 44.7084 48.9363C45.4345 48.9875 46.1607 49.0681 46.8868 49.0877C48.9305 49.1414 50.9718 49.1316 53.013 48.9973C53.046 48.9949 53.0765 48.9924 53.1095 48.99C53.8838 48.9363 54.6582 48.8776 55.4325 48.8263C56.0139 48.7873 56.5953 48.7555 57.1767 48.714C57.5321 48.6896 57.8876 48.6627 58.2405 48.6187C58.8498 48.543 59.4566 48.4429 60.0659 48.3721C61.0637 48.2548 62.0411 48.0424 63.0211 47.8299C64.4023 47.5319 65.725 47.0703 67.0097 46.5037C67.9846 46.0738 68.9011 45.5414 69.7694 44.9357C69.8633 44.8722 69.9319 44.7794 70.0106 44.7037ZM61.1932 17.066C61.3836 17.066 61.4978 17.0586 61.6095 17.066C61.998 17.0928 62.3433 16.9683 62.6733 16.7924C62.8917 16.6776 63.0618 16.5116 63.1887 16.3088C63.5137 15.7837 63.4324 15.2586 63.143 14.7555C63.0262 14.5552 62.8561 14.3794 62.6962 14.206C62.2849 13.7517 61.7669 13.4317 61.2135 13.168C60.9088 13.0239 60.5991 12.8847 60.2843 12.7674C59.7562 12.5696 59.2306 12.3644 58.6873 12.213C57.9587 12.0103 57.2173 11.854 56.4811 11.683C55.7118 11.5072 54.9349 11.3704 54.1402 11.3484C54.0768 11.346 54.0057 11.3533 53.9473 11.3313C53.6959 11.2361 53.437 11.258 53.178 11.258C52.7896 11.2556 52.3986 11.2434 52.0102 11.2605C51.576 11.28 51.1393 11.3142 50.7103 11.3728C50.2964 11.429 49.8877 11.5267 49.4865 11.6391C48.9508 11.7905 48.4558 12.0103 48.0826 12.4328C47.7424 12.8212 47.7347 13.1899 47.9455 13.5539C48.0953 13.8103 48.3237 14.035 48.6309 14.1254C49.1235 14.2744 49.6211 14.4185 50.1238 14.5235C50.7534 14.6529 51.4008 14.7091 52.0279 14.8508C52.9064 15.0486 53.7899 15.2366 54.6632 15.4565C55.6179 15.6958 56.5623 15.9669 57.5017 16.2527C58.0882 16.4285 58.6721 16.6166 59.2662 16.7582C59.9237 16.9121 60.5762 17.127 61.1932 17.066ZM67.2915 17.215C67.2737 17.0782 67.2635 16.9365 67.2331 16.8022C67.1366 16.3601 66.8345 16.0695 66.446 15.8423C65.8139 15.4736 65.1588 15.4516 64.5013 15.7398C64.1027 15.9132 63.9148 16.26 63.8691 16.6727C63.8336 17.0049 63.9808 17.2833 64.1992 17.5227C64.5394 17.8964 64.9659 18.104 65.4813 18.2139C65.9205 18.3067 66.3064 18.2652 66.7025 18.0966C67.1087 17.9232 67.3194 17.6497 67.2915 17.215Z" fill="#FEA623"/>
<path d="M61.1932 17.066C61.3836 17.066 61.4978 17.0586 61.6095 17.066C61.998 17.0928 62.3433 16.9683 62.6733 16.7924C62.8917 16.6776 63.0618 16.5116 63.1887 16.3088C63.5137 15.7837 63.4324 15.2586 63.143 14.7555C63.0262 14.5552 62.8561 14.3794 62.6962 14.206C62.2849 13.7517 61.7669 13.4317 61.2135 13.168C60.9088 13.0239 60.5991 12.8847 60.2843 12.7674C59.7562 12.5696 59.2306 12.3644 58.6873 12.213C57.9587 12.0103 57.2173 11.854 56.4811 11.683C55.7118 11.5072 54.9349 11.3704 54.1402 11.3484C54.0768 11.346 54.0057 11.3533 53.9473 11.3313C53.6959 11.2361 53.437 11.258 53.178 11.258C52.7896 11.2556 52.3986 11.2434 52.0102 11.2605C51.576 11.28 51.1393 11.3142 50.7103 11.3728C50.2964 11.429 49.8877 11.5267 49.4865 11.6391C48.9508 11.7905 48.4558 12.0103 48.0826 12.4328C47.7424 12.8212 47.7347 13.1899 47.9455 13.5539C48.0953 13.8103 48.3237 14.035 48.6309 14.1254C49.1235 14.2744 49.6211 14.4185 50.1238 14.5235C50.7534 14.6529 51.4008 14.7091 52.0279 14.8508C52.9064 15.0486 53.7899 15.2366 54.6632 15.4565C55.6179 15.6958 56.5623 15.9669 57.5017 16.2527C58.0882 16.4285 58.6721 16.6166 59.2662 16.7582C59.9237 16.9121 60.5762 17.127 61.1932 17.066Z" fill="#FEA623"/>
<path d="M67.2915 17.215C67.2737 17.0782 67.2635 16.9365 67.2331 16.8022C67.1366 16.3601 66.8345 16.0695 66.446 15.8423C65.8139 15.4736 65.1588 15.4516 64.5013 15.7398C64.1027 15.9132 63.9148 16.26 63.8691 16.6727C63.8336 17.0049 63.9808 17.2833 64.1992 17.5227C64.5394 17.8964 64.9659 18.104 65.4813 18.2139C65.9205 18.3067 66.3064 18.2652 66.7025 18.0966C67.1087 17.9232 67.3194 17.6497 67.2915 17.215Z" fill="#FEA623"/>
<path d="M48.4367 9.08435C48.2945 9.16007 48.1623 9.25045 48.0124 9.30907C47.0647 9.67301 46.117 10.0345 45.2023 10.4742C44.651 10.738 44.0793 10.9651 43.5356 11.2387C42.5167 11.7516 41.4953 12.2646 40.5273 12.863C39.7371 13.3515 38.9368 13.8254 38.1669 14.3432C37.4504 14.8195 36.7644 15.3422 36.0708 15.8503C35.6084 16.1898 35.179 16.5708 34.7343 16.9299C33.812 17.6749 33.0117 18.5371 32.1478 19.3382C31.7057 19.751 31.3373 20.2249 30.9308 20.6694C30.3845 21.2679 29.8865 21.898 29.4038 22.5404C29.0608 22.9948 28.733 23.4588 28.4281 23.9351C27.9784 24.6386 27.5363 25.3469 27.1272 26.0724C26.7893 26.6757 26.4971 27.3034 26.1973 27.9239C25.9382 28.4612 25.6765 28.9986 25.4579 29.5506C25.1607 30.3078 24.8634 31.0625 24.6271 31.8417C24.4137 32.5427 24.2104 33.2462 24.0376 33.9594C23.9335 34.3966 23.8598 34.8412 23.781 35.2857C23.715 35.6668 23.6565 36.0503 23.6032 36.4337C23.5854 36.5559 23.5879 36.6829 23.5854 36.8075C23.5828 37.4157 23.5905 38.0263 23.5803 38.6345C23.5701 39.1816 23.6515 39.7141 23.748 40.2539C23.8369 40.7449 23.9411 41.2334 24.1012 41.7048C24.5356 42.9725 25.1734 44.14 26.0347 45.1879C26.4463 45.6886 26.8528 46.1942 27.3407 46.629C28.2807 47.4644 29.2717 48.2338 30.3718 48.8737C31.2204 49.3671 32.097 49.8043 32.9939 50.2098C33.652 50.5078 34.3278 50.774 35.0087 51.0232C35.7049 51.2797 36.4112 51.5093 37.1201 51.7291C38.1822 52.0588 39.2544 52.3568 40.3393 52.606C40.9516 52.7476 41.569 52.8673 42.1864 52.9797C42.6616 53.0652 43.1443 53.1189 43.622 53.1922C44.1962 53.2777 44.7653 53.3778 45.3421 53.4535C45.7588 53.5073 46.1831 53.5 46.5947 53.5732C47.0723 53.6587 47.5653 53.605 48.0353 53.732C48.0658 53.7393 48.0988 53.7466 48.1319 53.7442C48.7493 53.7002 49.3565 53.8443 49.9714 53.8468C50.2458 53.8468 50.5202 53.8346 50.792 53.9176C50.9267 53.9592 51.0817 53.9323 51.2265 53.9396C51.7601 53.964 52.2962 53.8834 52.8247 54.0251C52.9161 54.0495 53.0178 54.0324 53.1169 54.0324C55.2943 54.0324 57.4692 54.0349 59.6467 54.03C59.822 54.03 59.9998 53.9909 60.1751 53.9738C60.3047 53.9616 60.4318 53.9469 60.5613 53.9445C60.9018 53.9396 61.2423 53.9421 61.5853 53.9396C61.8114 53.9372 62.0401 53.9616 62.2586 53.8688C62.2865 53.8566 62.3221 53.8541 62.3551 53.8541C62.9065 53.8663 63.4527 53.8175 64.0016 53.7589C64.2404 53.732 64.4818 53.7344 64.7231 53.688C64.9899 53.6367 65.2719 53.6709 65.5489 53.666C65.3914 53.7979 65.183 53.7882 65.0001 53.8175C63.6738 54.0373 62.3399 54.2229 60.9958 54.328C59.4256 54.4501 57.8579 54.5771 56.2903 54.7066C54.4127 54.8629 52.535 54.9924 50.6498 54.9997C49.3184 55.0046 47.9896 54.9411 46.6582 54.8971C46.0738 54.8776 45.492 54.8311 44.9076 54.7872C43.7109 54.7017 42.5117 54.6138 41.3149 54.5209C40.4079 54.4501 39.5034 54.3842 38.5989 54.2938C36.8559 54.1179 35.1231 53.8688 33.408 53.5048C31.9496 53.1971 30.5014 52.8502 29.0963 52.3568C26.6521 51.5019 24.3857 50.3368 22.3455 48.7809C21.5553 48.1776 20.8236 47.5132 20.2087 46.7389C19.2229 45.503 18.6105 44.101 18.2548 42.5939C17.8712 40.9647 17.8356 39.316 18.0033 37.6575C18.2193 35.53 18.8138 33.4929 19.5811 31.4949C20.8413 28.2145 22.4674 25.1173 24.5407 22.24C25.5113 20.8917 26.5632 19.602 27.7065 18.3832C29.7036 16.2533 32.0386 14.5288 34.5895 13.0633C37.3869 11.4561 40.3799 10.3301 43.561 9.66324C44.7984 9.40433 46.051 9.2309 47.3163 9.15274C47.6948 9.12587 48.0658 9.10633 48.4367 9.08435Z" fill="#FEA623"/>
<path d="M65.1429 53.5351C65.204 53.4438 65.2904 53.4115 65.3921 53.4142C65.4887 53.4169 65.5828 53.4169 65.6794 53.4196C65.5167 53.5351 65.326 53.5136 65.1429 53.5351Z" fill="#E87903"/>
<path d="M53.1839 19.0224C54.823 19.1975 56.4102 19.6217 57.9688 20.169C60.169 20.9435 62.2186 22.0381 64.1304 23.4201C64.9123 23.9839 65.6423 24.6133 66.3281 25.3029C67.9204 26.9011 69.3232 28.6634 70.4869 30.6338C71.5052 32.3606 72.3702 34.1667 72.9677 36.1043C73.4015 37.5136 73.6119 38.9585 73.5002 40.439C73.3703 42.1303 72.7832 43.6244 71.6688 44.8641C71.4766 45.0776 71.2376 45.2418 71.0194 45.4306C70.7778 45.4169 70.57 45.5346 70.3544 45.6194C69.705 45.8794 69.0582 46.1449 68.401 46.3884C67.8867 46.5772 67.3619 46.7414 66.8398 46.9056C66.2709 47.0835 65.702 47.2751 65.1228 47.4174C64.2733 47.6281 63.4239 47.8498 62.5537 47.9674C62.0653 48.0331 61.5847 48.1918 61.0964 48.2411C60.4392 48.3095 59.7924 48.4682 59.13 48.4737C59.0494 48.4737 58.9663 48.5011 58.8858 48.512C58.7403 48.5339 58.5922 48.5667 58.4468 48.5722C58.1325 48.5859 57.8155 48.5448 57.5116 48.6707C56.9479 48.6461 56.392 48.7501 55.8309 48.7829C55.4673 48.8048 55.101 48.7857 54.7347 48.7884C54.4386 48.7911 54.1373 48.7528 53.8489 48.876C53.0021 48.876 52.1553 48.876 51.311 48.876C51.0071 48.7474 50.6876 48.7693 50.3759 48.7911C49.6433 48.8431 48.9264 48.6625 48.1964 48.6735C48.1471 48.6735 48.1003 48.6543 48.051 48.6461C47.8717 48.6215 47.6925 48.5941 47.5132 48.575C47.4145 48.564 47.3132 48.5722 47.2145 48.5558C46.6456 48.46 46.0767 48.3642 45.5079 48.2602C44.8896 48.148 44.2688 48.0523 43.6609 47.9045C42.3231 47.5761 41.0009 47.193 39.7125 46.6922C39.2475 46.5116 38.7799 46.3282 38.3331 46.1011C37.6915 45.7754 37.0629 45.4224 36.4394 45.0557C35.629 44.5768 34.8938 43.9802 34.2055 43.3262C33.6002 42.7542 33.0859 42.0919 32.6417 41.3722C32.0572 40.4254 31.7922 39.38 31.7533 38.2607C31.7429 37.9433 31.8208 37.6368 31.839 37.3275C31.878 36.6242 32.0468 35.9538 32.2286 35.286C32.6754 33.6441 33.395 32.1362 34.2912 30.7214C34.6574 30.1412 35.0341 29.5693 35.4341 29.0137C35.855 28.4308 36.2888 27.8589 36.7953 27.3526C36.8914 27.2568 36.959 27.1337 37.0473 27.0324C37.2369 26.8135 37.411 26.5699 37.6344 26.3975C37.863 26.2197 38.0578 26.0089 38.2656 25.8092C38.5851 25.5054 38.8916 25.1825 39.2345 24.9143C39.832 24.4518 40.4061 23.951 41.0581 23.5652C41.6633 23.2039 42.253 22.8153 42.8608 22.465C43.5882 22.0491 44.3493 21.6988 45.1182 21.3759C46.3027 20.8806 47.5106 20.4536 48.7445 20.1198C49.3368 19.9583 49.9343 19.8324 50.5265 19.671C51.3422 19.4493 52.1708 19.3043 53.0021 19.1756C53.1034 19.1674 53.1554 19.1127 53.1839 19.0224ZM57.1609 23.9921C57.1609 24.3889 57.1635 24.523 57.2986 24.6954C57.5921 25.073 57.8935 25.4507 58.2935 25.7052C58.6884 25.9569 59.104 26.1759 59.5092 26.4112C60.2495 26.8354 60.9899 27.2596 61.7328 27.681C61.9666 27.8124 62.2056 27.9355 62.4446 28.0559C62.7199 28.1927 63.0109 28.2475 63.3148 28.2174C63.8577 28.1654 64.3123 27.5962 64.2162 27.0598C64.1356 26.611 63.9746 26.195 63.7122 25.8256C63.2213 25.1387 62.6498 24.5367 61.9978 24.0249C61.2886 23.4721 60.5223 23.0343 59.6573 22.8099C59.1403 22.6758 58.626 22.5772 58.0987 22.7661C57.5558 22.9549 57.0934 23.2997 57.1609 23.9921ZM55.3452 22.0217C55.0594 21.9916 54.8153 22.112 54.6126 22.3474C54.3944 22.6019 54.3607 22.9029 54.4854 23.2121C54.6828 23.702 55.0672 23.899 55.5218 24.0085C55.7894 24.0714 56.3946 23.7348 56.5297 23.442C56.5427 23.4119 56.5531 23.3763 56.5583 23.3435C56.6024 22.9987 56.5583 22.6812 56.3011 22.4295C56.0361 22.1722 55.7374 22.0026 55.3452 22.0217Z" fill="#FFF8ED"/>
<path d="M53.1838 19.0228C53.1553 19.1131 53.1033 19.1678 53.0098 19.1815C52.1785 19.3101 51.3499 19.4579 50.5342 19.6768C49.942 19.8355 49.3445 19.9642 48.7522 20.1256C47.5184 20.4622 46.3104 20.8864 45.1259 21.3817C44.3544 21.7046 43.5959 22.0522 42.8685 22.4709C42.2581 22.8212 41.6684 23.2125 41.0658 23.571C40.4164 23.9569 39.8397 24.4577 39.2422 24.9201C38.8967 25.1883 38.5902 25.5113 38.2733 25.815C38.0655 26.0148 37.8707 26.2228 37.6421 26.4034C37.4187 26.5758 37.2446 26.8221 37.055 27.0383C36.9667 27.1395 36.8991 27.2654 36.803 27.3585C36.2965 27.8647 35.8627 28.4367 35.4419 29.0196C35.0418 29.5724 34.6652 30.147 34.2989 30.7272C33.4027 32.142 32.6831 33.6526 32.2363 35.2919C32.0545 35.9596 31.8857 36.6301 31.8467 37.3334C31.8311 37.6426 31.7506 37.9491 31.761 38.2665C31.8025 39.3858 32.0675 40.4312 32.6494 41.3781C33.0936 42.0978 33.6079 42.76 34.2132 43.332C34.9015 43.9833 35.6367 44.5826 36.4471 45.0615C37.068 45.4282 37.6992 45.7812 38.3408 46.1069C38.7876 46.334 39.2552 46.5174 39.7202 46.698C41.0086 47.1988 42.3334 47.5847 43.6686 47.9103C44.2791 48.0581 44.8999 48.1539 45.5156 48.2661C46.0844 48.3701 46.6533 48.4659 47.2222 48.5616C47.3209 48.5781 47.4222 48.5671 47.5209 48.5808C47.7002 48.5999 47.8794 48.6273 48.0587 48.6519C48.108 48.6602 48.1574 48.6793 48.2041 48.6793C48.9341 48.6656 49.651 48.8462 50.3836 48.797C50.6953 48.7751 51.0148 48.7532 51.3187 48.8818C52.1656 48.8818 53.0124 48.8818 53.8566 48.8818C54.1424 48.7587 54.4437 48.797 54.7424 48.7942C55.1087 48.7915 55.475 48.8107 55.8386 48.7888C56.3997 48.7559 56.9556 48.6547 57.5193 48.6766C57.8232 48.5534 58.1402 48.5917 58.4545 48.5781C58.6025 48.5726 58.748 48.5397 58.8935 48.5178C58.974 48.5069 59.0571 48.4795 59.1377 48.4795C59.8001 48.4741 60.4469 48.3153 61.1041 48.2469C61.595 48.1949 62.073 48.0389 62.5614 47.9733C63.4316 47.8529 64.2784 47.6312 65.1305 47.4232C65.7097 47.2809 66.276 47.0893 66.8475 46.9115C67.3696 46.7473 67.8944 46.5831 68.4087 46.3942C69.0633 46.1534 69.7101 45.8852 70.3621 45.6253C70.5777 45.5404 70.7855 45.42 71.0271 45.4364C70.9466 45.524 70.8791 45.6253 70.7881 45.6964C69.8997 46.3751 68.962 46.9717 67.9645 47.4533C66.6501 48.0882 65.2967 48.6054 63.8836 48.9393C62.8809 49.1746 61.8808 49.4155 60.8599 49.5468C60.2365 49.6262 59.6156 49.7384 58.9922 49.8232C58.6311 49.8725 58.2674 49.9026 57.9038 49.9299C57.3089 49.9765 56.7141 50.012 56.1192 50.0558C55.3269 50.116 54.5346 50.179 53.7423 50.2392C53.7086 50.2419 53.6774 50.2446 53.6436 50.2474C51.5551 50.3979 49.464 50.4061 47.3755 50.3486C46.6325 50.3267 45.8896 50.2392 45.1467 50.179C45.1129 50.1762 45.0792 50.1762 45.048 50.1735C44.2869 50.1297 43.5258 50.0969 42.7646 50.0421C42.188 50.0011 41.6113 49.9299 41.0346 49.8725C40.6216 49.8314 40.2111 49.7931 39.7981 49.7466C38.4785 49.6043 37.1745 49.3717 35.8783 49.0706C35.0366 48.8763 34.2002 48.6574 33.3845 48.3564C31.7818 47.768 30.2387 47.0428 28.849 46.0002C28.4308 45.6855 28.0126 45.3625 27.6463 44.9876C27.0073 44.3391 26.5267 43.5619 26.1994 42.6889C25.8617 41.7858 25.7058 40.8499 25.6799 39.8784C25.6383 38.2228 26.002 36.6547 26.5605 35.1304C27.4645 32.6675 28.7191 30.4125 30.2491 28.3245C31.1869 27.0492 32.2493 25.8944 33.3819 24.8107C34.2807 23.9514 35.2808 23.2317 36.3199 22.5694C37.9434 21.5322 39.6604 20.703 41.4632 20.0818C42.7101 19.6522 43.9803 19.3265 45.2766 19.1131C46.0429 18.9872 46.8222 18.9215 47.5963 18.8476C48.6431 18.7491 49.6848 18.7655 50.7291 18.7902C51.5395 18.8066 52.3682 18.864 53.1838 19.0228Z" fill="#FFF8ED"/>
<path d="M57.161 23.9923C57.0961 23.3 57.5559 22.9551 58.0962 22.7636C58.6235 22.5775 59.1379 22.676 59.6548 22.8074C60.5198 23.0318 61.2861 23.4669 61.9953 24.0224C62.6473 24.5342 63.2188 25.1362 63.7097 25.8231C63.9747 26.1925 64.1332 26.6112 64.2137 27.0573C64.3098 27.5937 63.8552 28.1629 63.3123 28.2149C63.0084 28.245 62.7174 28.1903 62.4421 28.0534C62.2031 27.9358 61.9641 27.8126 61.7303 27.6785C60.9874 27.2571 60.2471 26.8329 59.5067 26.4087C59.0989 26.1761 58.6859 25.9572 58.291 25.7027C57.891 25.4454 57.5897 25.0678 57.2961 24.6929C57.1636 24.5232 57.1584 24.3891 57.161 23.9923Z" fill="#FFF8ED"/>
<path d="M55.3455 22.0218C55.7377 22.0027 56.0364 22.1723 56.3014 22.4296C56.5586 22.6786 56.6053 22.9988 56.5586 23.3436C56.5534 23.3764 56.543 23.412 56.53 23.4421C56.3975 23.7349 55.7923 24.0715 55.5221 24.0086C55.0649 23.8991 54.6805 23.6994 54.4857 23.2122C54.361 22.903 54.3947 22.602 54.6129 22.3475C54.8156 22.1121 55.0597 21.9917 55.3455 22.0218Z" fill="#FFF8ED"/>
<path d="M20.7864 29.2192C20.6463 28.6751 20.6525 28.118 20.6628 27.5653C20.6978 25.8091 21.0973 24.1291 21.6801 22.4948C22.302 20.756 23.1298 19.1348 24.2088 17.6615C24.8163 16.8324 25.5061 16.0947 26.3174 15.4853C26.7602 15.1524 27.2358 14.8891 27.7609 14.7324C28.0781 14.6366 28.4014 14.5735 28.7329 14.6388C28.7617 14.715 28.7761 14.802 28.8194 14.8695C29.0171 15.1676 29.1509 15.4962 29.2745 15.8335C29.5689 16.6387 29.7707 17.4635 29.7604 18.3361C29.7563 18.767 29.7604 19.1979 29.7584 19.6288C29.7584 19.7267 29.7625 19.8246 29.7481 19.9204C29.7048 20.2055 29.6472 20.4884 29.606 20.7756C29.5175 21.3915 29.3857 21.9943 29.2065 22.5884C28.8956 23.6199 28.5229 24.6253 28.041 25.5806C27.9174 25.8243 27.7548 26.0441 27.6353 26.29C27.3676 26.8384 26.9723 27.2845 26.6016 27.7459C26.2001 28.2442 25.7141 28.649 25.1849 28.9885C24.8595 29.1974 24.5197 29.3954 24.1635 29.5238C23.7825 29.6609 23.3769 29.7175 22.9794 29.7937C22.8538 29.8176 22.7138 29.8111 22.5861 29.7871C22.0981 29.6957 21.608 29.6 21.1529 29.378C21.0314 29.3171 20.9079 29.2714 20.7864 29.2192ZM23.8381 27.722C24.0379 27.7285 24.2211 27.6719 24.4044 27.5827C24.9975 27.2954 25.4237 26.7949 25.8273 26.29C26.5419 25.3913 27.034 24.3467 27.3862 23.2347C27.6497 22.4056 27.8165 21.5569 27.7877 20.6712C27.7795 20.4057 27.7589 20.1467 27.6971 19.8921C27.5859 19.4351 27.382 19.0434 26.9949 18.7801C26.7004 18.5624 26.3751 18.5777 26.0518 18.6604C25.782 18.7278 25.537 18.8693 25.3043 19.0281C24.8904 19.311 24.5527 19.6875 24.2438 20.0814C23.6116 20.8888 23.1359 21.8006 22.8003 22.7864C22.5738 23.4523 22.3946 24.1269 22.3123 24.8363C22.2525 25.3521 22.2319 25.857 22.3349 26.3618C22.4234 26.8014 22.5408 27.2301 22.9012 27.5174C23.1792 27.7394 23.4757 27.9135 23.8381 27.722ZM25.051 18.5233C25.191 18.4319 25.3578 18.3492 25.4958 18.2273C25.852 17.9205 26.2227 17.6354 26.6181 17.3917C26.9002 17.2176 27.1864 17.0478 27.4624 16.8607C27.6724 16.7171 27.8618 16.5408 27.9689 16.2927C28.0842 16.0229 27.9071 15.6464 27.6394 15.6181C27.2544 15.5767 26.8858 15.6246 26.5481 15.864C26.2515 16.0729 25.9653 16.2883 25.7264 16.5691C25.4917 16.8476 25.2405 17.1153 25.0263 17.4091C24.8925 17.5941 24.7977 17.8138 24.7174 18.0336C24.6453 18.2317 24.7154 18.3557 24.9089 18.471C24.9419 18.4906 24.981 18.4993 25.051 18.5233ZM23.9123 19.1761C23.9184 19.2044 23.9226 19.2741 23.9473 19.3372C23.9967 19.459 24.1347 19.5417 24.2294 19.52C24.4497 19.4699 24.6556 19.2436 24.6927 19.0064C24.7236 18.8105 24.5568 18.6125 24.3715 18.6234C24.1058 18.6364 23.9061 18.8584 23.9123 19.1761Z" fill="#F9D100"/>
<path d="M25.051 18.5233C25.191 18.4319 25.3578 18.3492 25.4958 18.2273C25.852 17.9205 26.2227 17.6354 26.6181 17.3917C26.9002 17.2176 27.1864 17.0478 27.4624 16.8607C27.6724 16.7171 27.8618 16.5408 27.9689 16.2927C28.0842 16.0229 27.9071 15.6464 27.6394 15.6181C27.2544 15.5767 26.8858 15.6246 26.5481 15.864C26.2515 16.0729 25.9653 16.2883 25.7264 16.5691C25.4917 16.8476 25.2405 17.1153 25.0263 17.4091C24.8925 17.5941 24.7977 17.8138 24.7174 18.0336C24.6453 18.2317 24.7154 18.3557 24.9089 18.471C24.9419 18.4906 24.981 18.4993 25.051 18.5233Z" fill="#F9D100"/>
<path d="M20.7866 29.2195C20.9081 29.2717 21.0317 29.3196 21.149 29.3762C21.6041 29.6003 22.0942 29.6939 22.5823 29.7853C22.7099 29.8092 22.8479 29.8158 22.9756 29.7918C23.373 29.7157 23.7807 29.6591 24.1596 29.522C24.5159 29.3936 24.8556 29.1934 25.181 28.9866C25.7102 28.6472 26.1962 28.2424 26.5977 27.744C26.9684 27.2827 27.3638 26.8366 27.6315 26.2882C27.7509 26.0423 27.9156 25.8225 28.0371 25.5788C28.519 24.6234 28.8938 23.618 29.2026 22.5865C29.3818 21.9924 29.5136 21.3896 29.6021 20.7738C29.6433 20.4887 29.701 20.2058 29.7442 19.9185C29.7586 19.8228 29.7545 19.7249 29.7545 19.6269C29.7545 19.196 29.7504 18.7652 29.7566 18.3343C29.7669 17.4616 29.5651 16.6369 29.2706 15.8317C29.147 15.4944 29.0153 15.1658 28.8155 14.8676C28.7723 14.8024 28.7579 14.7153 28.729 14.637C29.2438 14.6391 29.666 14.8763 30.0366 15.2354C30.3846 15.5705 30.6091 15.9949 30.7738 16.4541C31.023 17.1526 31.1115 17.8816 31.1239 18.6237C31.1465 19.9272 30.9468 21.2003 30.6173 22.4516C29.9831 24.8476 28.9761 27.052 27.5223 29.0171C26.9437 29.7984 26.295 30.5078 25.5269 31.0845C25.1069 31.4 24.6641 31.672 24.1679 31.8331C23.9681 31.8984 23.7601 31.9528 23.5542 31.9789C22.6482 32.0899 21.9274 31.7438 21.4064 30.9561C21.0584 30.436 20.8608 29.8506 20.7866 29.2195Z" fill="#FEB700"/>
<path d="M26.995 18.7796C27.3822 19.0429 27.586 19.4346 27.6972 19.8916C27.759 20.1484 27.7796 20.4074 27.7878 20.6707C27.8167 21.5564 27.6478 22.4051 27.3863 23.2342C27.0342 24.3441 26.5441 25.3886 25.8275 26.2896C25.4259 26.7944 24.9976 27.295 24.4045 27.5822C24.2192 27.6714 24.038 27.728 23.8383 27.7215C23.8321 27.5822 23.8527 27.4364 23.8135 27.308C23.7435 27.0752 23.7518 26.8423 23.7538 26.6095C23.76 26.2243 23.7518 25.8413 23.8156 25.4539C23.8753 25.0883 23.9083 24.7162 23.9927 24.3571C24.1842 23.5519 24.419 22.7598 24.7567 22.009C25.2426 20.9253 25.8831 19.9547 26.7067 19.1213C26.8138 19.0168 26.9003 18.8928 26.995 18.7796Z" fill="#8C48E2"/>
<path d="M26.9948 18.7806C26.9 18.8938 26.8136 19.0178 26.7106 19.1201C25.8869 19.9514 25.2465 20.9241 24.7605 22.0079C24.4228 22.7586 24.186 23.5508 23.9965 24.356C23.9121 24.7172 23.8792 25.0893 23.8195 25.4527C23.7556 25.8401 23.7618 26.2231 23.7577 26.6083C23.7536 26.8433 23.7453 27.0762 23.8174 27.3068C23.8565 27.4331 23.8359 27.581 23.8421 27.7203C23.4797 27.9118 23.1832 27.7377 22.9031 27.5158C22.5407 27.2285 22.4254 26.7998 22.3368 26.3602C22.2339 25.8532 22.2565 25.3505 22.3142 24.8347C22.3945 24.1253 22.5736 23.4507 22.8022 22.7848C23.1399 21.7968 23.6156 20.8871 24.2457 20.0798C24.5525 19.6859 24.8923 19.3094 25.3062 19.0265C25.5389 18.8676 25.7839 18.7262 26.0537 18.6587C26.3749 18.5782 26.7003 18.5652 26.9948 18.7806Z" fill="#560A79"/>
<path d="M23.9124 19.1764C23.9062 18.8587 24.108 18.6367 24.3736 18.6215C24.559 18.6106 24.7258 18.8086 24.6949 19.0045C24.6578 19.2417 24.4519 19.4702 24.2315 19.518C24.1348 19.5398 23.9968 19.4571 23.9494 19.3352C23.9227 19.2743 23.9185 19.2047 23.9124 19.1764Z" fill="#E9CF54"/>
<path d="M79.2989 29.837C78.8439 30.0612 78.3538 30.1548 77.8657 30.2462C77.7381 30.2701 77.6001 30.2766 77.4724 30.2527C77.075 30.1765 76.6673 30.12 76.2884 29.9829C75.9321 29.8545 75.5923 29.6542 75.267 29.4475C74.7378 29.108 74.2518 28.7033 73.8502 28.2049C73.4796 27.7436 73.0842 27.2974 72.8165 26.749C72.6971 26.5031 72.5323 26.2833 72.4109 26.0396C71.929 25.0843 71.5542 24.0789 71.2433 23.0473C71.0641 22.4532 70.9323 21.8504 70.8438 21.2346C70.8026 20.9495 70.7449 20.6666 70.7017 20.3793C70.6873 20.2836 70.6914 20.1857 70.6914 20.0877C70.6914 19.6568 70.6955 19.226 70.6893 18.7951C70.679 17.9224 70.8808 17.0976 71.1753 16.2925C71.2989 15.9551 71.4307 15.6265 71.6304 15.3284C71.6737 15.2631 71.6881 15.1761 71.7169 15.0977C72.0484 15.0324 72.3717 15.0977 72.6888 15.1913C73.2139 15.348 73.6896 15.6113 74.1324 15.9443C74.9437 16.5514 75.6335 17.2913 76.241 18.1205C77.32 19.5937 78.1458 21.215 78.7677 22.9538C79.3504 24.5881 79.7499 26.2659 79.7849 28.0243C79.7952 28.5792 79.8035 29.1363 79.6614 29.6782C79.5399 29.7326 79.4163 29.7783 79.2989 29.837ZM77.5465 27.9786C77.909 27.6913 78.0243 27.2626 78.1128 26.823C78.2158 26.316 78.1931 25.8133 78.1355 25.2975C78.0552 24.5881 77.876 23.9135 77.6474 23.2476C77.3097 22.2596 76.8341 21.3499 76.2039 20.5425C75.8971 20.1487 75.5573 19.7722 75.1434 19.4893C74.9107 19.3304 74.6657 19.189 74.3959 19.1215C74.0706 19.041 73.7473 19.0257 73.4528 19.2412C73.0657 19.5045 72.8618 19.8962 72.7506 20.3532C72.6888 20.61 72.6683 20.869 72.66 21.1323C72.6312 22.018 72.8 22.8667 73.0616 23.6958C73.4137 24.8057 73.9038 25.8503 74.6204 26.7512C75.0219 27.2561 75.4503 27.7566 76.0433 28.0439C76.2286 28.1331 76.4099 28.1897 76.6096 28.1831C76.972 28.3746 77.2686 28.2006 77.5465 27.9786ZM75.5388 18.9322C75.7324 18.8168 75.8024 18.6928 75.7303 18.4948C75.65 18.2771 75.5553 18.0552 75.4214 17.8702C75.2073 17.5742 74.956 17.3087 74.7213 17.0302C74.4824 16.7473 74.1962 16.534 73.8997 16.3251C73.562 16.0857 73.1934 16.0378 72.8083 16.0792C72.5426 16.1075 72.3635 16.4861 72.4788 16.7538C72.5859 17.0019 72.7753 17.1782 72.9854 17.3218C73.2593 17.5089 73.5455 17.6787 73.8297 17.8528C74.2271 18.0987 74.5957 18.3816 74.9519 18.6884C75.092 18.8081 75.2588 18.893 75.3967 18.9844C75.4667 18.9605 75.5059 18.9518 75.5388 18.9322ZM76.0742 19.0823C75.8889 19.0714 75.7221 19.2695 75.753 19.4653C75.79 19.7025 75.996 19.931 76.2163 19.9789C76.3131 20.0007 76.451 19.918 76.4984 19.7961C76.5231 19.7352 76.5293 19.6634 76.5334 19.6351C76.5416 19.3195 76.3419 19.0976 76.0742 19.0823Z" fill="#F9D100"/>
<path d="M75.5388 18.9322C75.7324 18.8168 75.8024 18.6928 75.7303 18.4948C75.65 18.2771 75.5553 18.0552 75.4214 17.8702C75.2073 17.5742 74.956 17.3087 74.7213 17.0302C74.4824 16.7473 74.1962 16.534 73.8997 16.3251C73.562 16.0857 73.1934 16.0378 72.8083 16.0792C72.5426 16.1075 72.3635 16.4861 72.4788 16.7538C72.5859 17.0019 72.7753 17.1782 72.9854 17.3218C73.2593 17.5089 73.5455 17.6787 73.8297 17.8528C74.2271 18.0987 74.5957 18.3816 74.9519 18.6884C75.092 18.8081 75.2588 18.893 75.3967 18.9844C75.4667 18.9605 75.5059 18.9518 75.5388 18.9322Z" fill="#F9D100"/>
<path d="M79.6616 29.6809C79.5402 29.7331 79.4166 29.781 79.2992 29.8376C78.8441 30.0617 78.354 30.1553 77.866 30.2467C77.7383 30.2707 77.6004 30.2772 77.4727 30.2532C77.0753 30.1771 76.6675 30.1205 76.2886 29.9834C75.9324 29.855 75.5926 29.6548 75.2673 29.4481C74.7381 29.1086 74.2521 28.7038 73.8505 28.2055C73.4799 27.7441 73.0845 27.298 72.8168 26.7496C72.6974 26.5037 72.5326 26.2839 72.4111 26.0401C71.9293 25.0848 71.5545 24.0794 71.2436 23.0479C71.0644 22.4538 70.9326 21.851 70.8441 21.2351C70.8029 20.95 70.7452 20.6671 70.702 20.3799C70.6876 20.2841 70.6917 20.1862 70.6917 20.0883C70.6917 19.6574 70.6958 19.2265 70.6896 18.7956C70.6793 17.923 70.8811 17.0982 71.1756 16.293C71.2992 15.9557 71.4309 15.6271 71.6307 15.3289C71.6739 15.2637 71.6883 15.1766 71.7172 15.0983C71.2024 15.1004 70.7802 15.3376 70.4096 15.6967C70.0616 16.0319 69.8371 16.4562 69.6724 16.9154C69.4232 17.6139 69.3347 18.343 69.3223 19.085C69.2996 20.3886 69.4994 21.6617 69.8289 22.913C70.4631 25.3089 71.4701 27.5134 72.9239 29.4785C73.5025 30.2598 74.1512 30.9692 74.9193 31.5459C75.3393 31.8614 75.7821 32.1335 76.2783 32.2945C76.4781 32.3598 76.6861 32.4142 76.892 32.4403C77.798 32.5513 78.5188 32.2053 79.0398 31.4175C79.3898 30.8974 79.5875 30.312 79.6616 29.6809Z" fill="#FEB700"/>
<path d="M73.4526 19.2417C73.0655 19.505 72.8616 19.8967 72.7504 20.3537C72.6886 20.6105 72.668 20.8695 72.6598 21.1328C72.631 22.0185 72.7998 22.8672 73.0614 23.6964C73.4135 24.8062 73.9036 25.8508 74.6202 26.7517C75.0217 27.2566 75.4501 27.7571 76.0431 28.0444C76.2284 28.1336 76.4096 28.1902 76.6094 28.1837C76.6156 28.0444 76.595 27.8986 76.6341 27.7702C76.7041 27.5373 76.6959 27.3045 76.6938 27.0716C76.6876 26.6864 76.6959 26.3034 76.632 25.9161C76.5723 25.5505 76.5394 25.1783 76.455 24.8193C76.2634 24.0141 76.0287 23.2219 75.691 22.4712C75.205 21.3874 74.5646 20.4168 73.7409 19.5834C73.6338 19.4789 73.5473 19.3549 73.4526 19.2417Z" fill="#8C48E2"/>
<path d="M73.4526 19.2418C73.5474 19.355 73.6338 19.479 73.7368 19.5813C74.5605 20.4126 75.2009 21.3854 75.6869 22.4691C76.0246 23.2199 76.2614 24.012 76.4509 24.8172C76.5353 25.1785 76.5682 25.5506 76.628 25.914C76.6918 26.3014 76.6856 26.6844 76.6897 27.0696C76.6939 27.3046 76.7021 27.5375 76.63 27.7681C76.5909 27.8944 76.6115 28.0423 76.6053 28.1816C76.9677 28.3731 77.2643 28.199 77.5443 27.9771C77.9067 27.6898 78.022 27.2611 78.1106 26.8215C78.2136 26.3145 78.1909 25.8118 78.1332 25.296C78.0529 24.5866 77.8738 23.9119 77.6452 23.246C77.3075 22.258 76.8318 21.3484 76.2017 20.541C75.8949 20.1471 75.5551 19.7707 75.1412 19.4878C74.9085 19.3289 74.6635 19.1874 74.3937 19.12C74.0725 19.0395 73.7471 19.0264 73.4526 19.2418Z" fill="#560A79"/>
<path d="M76.536 19.6374C76.5422 19.3197 76.3403 19.0977 76.0747 19.0825C75.8894 19.0716 75.7226 19.2696 75.7535 19.4655C75.7905 19.7027 75.9965 19.9312 76.2168 19.9791C76.3136 20.0008 76.4515 19.9181 76.4989 19.7963C76.5257 19.7353 76.5298 19.6657 76.536 19.6374Z" fill="#E9CF54"/>
<g clip-path="url(#clip0_9175_14303)">
<path d="M45.562 40.4459C45.0965 39.9422 44.7968 39.3366 44.5399 38.7042C44.069 37.5306 43.9085 36.3088 43.9994 35.0548C44.0101 34.9369 44.0262 34.8243 44.0476 34.7118C44.1011 34.4546 44.1814 34.3742 44.449 34.3634C44.9252 34.342 45.4069 34.3313 45.8831 34.3259C47.4671 34.2991 49.0565 34.2831 50.6405 34.2563C51.7803 34.2402 52.9202 34.2134 54.06 34.192C54.1082 34.192 54.1617 34.192 54.2099 34.1866C54.6487 34.1544 54.8467 34.3099 54.9055 34.8082C55.0821 36.2927 54.8841 37.7128 54.2848 39.074C54.0654 39.5724 53.8139 40.0547 53.4286 40.4566C53.0807 40.1619 52.7275 39.8671 52.3797 39.567C51.8178 39.0901 51.1703 38.7846 50.48 38.5595C50.1 38.4363 49.704 38.4577 49.308 38.447C48.5588 38.4309 47.8952 38.6721 47.2691 39.0633C46.8892 39.3044 46.5467 39.5724 46.2417 39.8993C46.1079 40.044 45.9688 40.1887 45.8189 40.3173C45.7493 40.387 45.6477 40.4084 45.562 40.4459Z" fill="#393343"/>
<path d="M45.5619 40.4459C45.6475 40.4084 45.7545 40.387 45.8241 40.328C45.9739 40.1994 46.1131 40.0547 46.2469 39.91C46.5519 39.5831 46.8944 39.3098 47.2743 39.074C47.9004 38.6775 48.564 38.4363 49.3132 38.4577C49.7092 38.4685 50.0999 38.4417 50.4852 38.5703C51.1755 38.7954 51.8283 39.1008 52.3849 39.5778C52.7327 39.8725 53.0859 40.1726 53.4338 40.4674C52.3635 41.8768 50.9614 42.6056 49.1794 42.5199C48.4463 42.4823 47.7613 42.2466 47.1298 41.8661C46.5144 41.4856 45.9686 41.0408 45.5619 40.4459Z" fill="#443E55"/>
<path d="M63.9701 28.2482C64.6818 28.3286 65.2919 28.6447 65.8377 29.0842C66.3514 29.4915 66.7421 30.0006 67.0525 30.5686C67.4859 31.3617 67.7481 32.2085 67.9247 33.0873C68.2191 34.5075 68.294 35.9383 68.2244 37.3799C68.2191 37.5246 68.1923 37.6746 68.1495 37.814C68.1067 37.9533 67.9943 38.0337 67.8498 38.0337C67.7053 38.0337 67.5929 37.9587 67.5394 37.8247C67.4966 37.7175 67.4699 37.605 67.4538 37.4924C67.2879 36.5814 66.9294 35.7561 66.3675 35.0219C65.6986 34.1538 64.837 33.5697 63.756 33.3499C63.4189 33.2803 63.0657 33.291 62.7232 33.2749C62.5413 33.2695 62.3593 33.2856 62.1774 33.291C62.1453 32.4979 62.2255 31.7262 62.4342 30.9491C62.6804 30.0327 63.1192 29.2449 63.7667 28.5697C63.863 28.484 63.9701 28.3982 63.9701 28.2482ZM66.1588 30.8419C66.1588 30.7615 66.1641 30.6758 66.1588 30.5954C66.116 30.1506 65.9394 29.7701 65.5808 29.4915C65.3133 29.2825 65.0564 29.2664 64.8102 29.4539C64.6444 29.5826 64.5694 29.7594 64.5641 29.9684C64.548 30.3757 64.6872 30.7401 64.8852 31.0884C64.9975 31.2921 65.1313 31.4796 65.3347 31.5975C65.6022 31.753 65.8966 31.6779 66.0518 31.41C66.1053 31.3135 66.132 31.1956 66.1588 31.0884C66.1748 31.0134 66.1588 30.9277 66.1588 30.8419ZM65.8484 32.396C65.8484 32.664 65.9661 32.8087 66.1748 32.798C66.3782 32.7872 66.5441 32.6104 66.5494 32.4068C66.5548 32.187 66.3568 31.9995 66.1374 32.0102C65.9501 32.0209 65.8484 32.1549 65.8484 32.396Z" fill="#443E55"/>
<path d="M63.97 28.2482C63.97 28.3983 63.863 28.484 63.772 28.5751C63.1245 29.2557 62.691 30.0435 62.4395 30.9545C62.2308 31.7262 62.1505 32.5033 62.1826 33.2964C62.0916 33.3286 62.0007 33.3661 61.9043 33.3929C61.1551 33.6072 60.5076 33.977 60.026 34.604C60.0046 34.6308 59.9886 34.6576 59.9671 34.6844C59.8762 34.7862 59.7745 34.872 59.63 34.8452C59.4427 34.8077 59.3303 34.6737 59.3196 34.5022C59.2982 34.2396 59.2875 33.9716 59.3303 33.7144C59.5069 32.6533 59.7906 31.6191 60.2187 30.633C60.4006 30.2096 60.6254 29.8024 60.9143 29.4379C61.7063 28.4519 62.7178 28.0392 63.97 28.2482Z" fill="#3B3545"/>
<path d="M66.1585 30.842C66.1585 30.9224 66.1692 31.0081 66.1531 31.0885C66.1317 31.201 66.105 31.3136 66.0461 31.41C65.8909 31.6833 65.5966 31.753 65.329 31.5976C65.1203 31.4797 64.9919 31.2921 64.8795 31.0885C64.6869 30.7402 64.5477 30.3758 64.5584 29.9685C64.5638 29.7595 64.6387 29.5826 64.8046 29.454C65.0454 29.2718 65.3076 29.2825 65.5752 29.4915C65.9337 29.7702 66.1103 30.1507 66.1531 30.5955C66.1638 30.6759 66.1585 30.7616 66.1585 30.842Z" fill="#6C6577"/>
<path d="M65.8485 32.396C65.8485 32.1548 65.9448 32.0209 66.1321 32.0101C66.3515 31.9994 66.5496 32.187 66.5442 32.4067C66.5388 32.6104 66.3729 32.7872 66.1696 32.7979C65.9716 32.8086 65.8485 32.6639 65.8485 32.396Z" fill="#6C6577"/>
<path d="M35.3781 28.2266C36.1433 28.1355 36.8123 28.3713 37.4116 28.8214C37.8397 29.1483 38.1608 29.5663 38.423 30.0326C38.8404 30.7721 39.1026 31.5759 39.3274 32.3905C39.4451 32.8192 39.5307 33.2587 39.611 33.6981C39.6485 33.9071 39.6485 34.1268 39.6431 34.3412C39.6431 34.4537 39.6057 34.5716 39.5522 34.6681C39.4505 34.8664 39.2204 34.9039 39.0545 34.7592C39.0063 34.7163 38.9635 34.6627 38.926 34.6091C38.1608 33.666 37.1547 33.264 35.9667 33.2694C34.8751 33.2747 33.9439 33.6927 33.1359 34.4108C33.0235 34.5073 32.9164 34.6091 32.8041 34.7056C32.8041 34.6413 32.7827 34.5663 32.8041 34.5073C32.9164 34.1697 32.8897 33.8214 32.895 33.4784C32.895 33.4302 32.895 33.3766 32.9057 33.3283C33.0395 32.5995 33.184 31.876 33.4409 31.1794C33.6496 30.6167 33.9279 30.0915 34.265 29.6092C34.5647 29.1805 34.859 28.7357 35.2603 28.3873C35.3139 28.3445 35.3406 28.2802 35.3781 28.2266ZM37.9628 30.8846C37.9146 30.4023 37.7755 29.9468 37.4491 29.577C37.3474 29.4645 37.1815 29.3895 37.0263 29.3412C36.93 29.3091 36.7909 29.3305 36.6945 29.3788C36.4644 29.4806 36.2557 29.8718 36.2932 30.1237C36.3627 30.606 36.5447 31.0508 36.8497 31.4259C37.1333 31.7689 37.54 31.7742 37.8076 31.4045C37.92 31.249 37.9789 31.0776 37.9628 30.8846ZM38.3213 32.3905C38.3106 32.1869 38.1233 31.9993 37.9414 32.01C37.722 32.0207 37.5347 32.2297 37.5614 32.4387C37.5829 32.637 37.7755 32.8032 37.9681 32.7978C38.1447 32.7924 38.332 32.5781 38.3213 32.3905Z" fill="#443E55"/>
<path d="M35.3779 28.2267C35.3404 28.2803 35.3137 28.3446 35.2655 28.3875C34.8642 28.7412 34.5699 29.1806 34.2702 29.6093C33.933 30.097 33.6548 30.6168 33.4461 31.1795C33.1892 31.8762 33.0394 32.5997 32.9109 33.3285C32.9002 33.3767 32.9002 33.4249 32.9002 33.4785C32.8949 33.8215 32.9216 34.1698 32.8093 34.5075C32.7878 34.5664 32.8093 34.6361 32.8093 34.7057C32.4561 35.1827 32.1136 35.6704 31.8888 36.2277C31.7176 36.6564 31.5463 37.0851 31.4875 37.5514C31.4714 37.6639 31.4393 37.7818 31.3858 37.8783C31.2574 38.1033 30.9309 38.098 30.8239 37.8622C30.765 37.7336 30.7329 37.5782 30.7276 37.4335C30.7222 36.6886 30.6955 35.9437 30.7436 35.1988C30.8132 34.0895 30.9844 32.9962 31.3216 31.9298C31.5142 31.3296 31.7604 30.7508 32.1029 30.2203C32.6059 29.4325 33.2695 28.8269 34.1364 28.4679C34.527 28.3125 34.9337 28.1731 35.3779 28.2267Z" fill="#3B3545"/>
<path d="M37.9625 30.8847C37.9785 31.0776 37.9196 31.2491 37.8073 31.3992C37.5397 31.769 37.1276 31.769 36.8494 31.4206C36.5443 31.0455 36.3624 30.6007 36.2928 30.1184C36.2554 29.8665 36.4641 29.4753 36.6942 29.3735C36.7959 29.3306 36.9296 29.3092 37.026 29.336C37.1758 29.3842 37.3471 29.4592 37.4487 29.5718C37.7752 29.9415 37.9143 30.3971 37.9625 30.8847Z" fill="#6C6577"/>
<path d="M38.3212 32.3907C38.3319 32.5782 38.1446 32.7926 37.968 32.798C37.7753 32.8033 37.5827 32.6372 37.5613 32.4389C37.5345 32.2245 37.7218 32.0155 37.9412 32.0102C38.1285 32.0048 38.3158 32.187 38.3212 32.3907Z" fill="#6C6577"/>
</g>
<defs>
<clipPath id="clip0_9175_14303">
<rect width="39.6644" height="15.8657" fill="white" transform="translate(29.6576 27.0054)"/>
</clipPath>
</defs>
</svg>
