<svg width="35" height="27" viewBox="0 0 35 27" fill="none" xmlns="http://www.w3.org/2000/svg">
<path d="M13.5 8C13.5 7.20435 13.8687 6.44129 14.5251 5.87868C15.1815 5.31607 16.0717 5 17 5H18C18.9283 5 19.8185 5.31607 20.4749 5.87868C21.1313 6.44129 21.5 7.20435 21.5 8C21.5368 8.64925 21.3617 9.2929 21.001 9.83398C20.6402 10.3751 20.1135 10.7843 19.5 11C18.8865 11.2876 18.3598 11.8333 17.999 12.5547C17.6383 13.2761 17.4632 14.1343 17.5 15M17.5 19V19.01" stroke="url(#paint0_linear_10251_17690)" stroke-width="2" stroke-linecap="round" stroke-linejoin="round"/>
<path d="M5.6268 17.4955C5.49074 17.1216 5.5335 16.7001 5.74568 16.3235C5.95787 15.9469 6.32209 15.6461 6.75823 15.4874L7.22808 15.3164C7.66422 15.1577 8.13654 15.1539 8.54115 15.306C8.94576 15.4581 9.24951 15.7536 9.38557 16.1274C9.5139 16.4261 9.54168 16.7585 9.46473 17.0744C9.38778 17.3903 9.21026 17.6727 8.95891 17.879C8.71986 18.119 8.56566 18.4655 8.51955 18.8661C8.47344 19.2668 8.53792 19.6999 8.70326 20.1004M9.3873 21.9797L9.38901 21.9844" stroke="url(#paint1_linear_10251_17690)" stroke-width="1.5" stroke-linecap="round" stroke-linejoin="round"/>
<path d="M25.3754 16.1273C25.5115 15.7535 25.8152 15.458 26.2198 15.3059C26.6244 15.1538 27.0968 15.1576 27.5329 15.3163L28.0027 15.4873C28.4389 15.6461 28.8031 15.9468 29.0153 16.3234C29.2275 16.7 29.2702 17.1216 29.1342 17.4954C29.0404 17.8067 28.8481 18.0792 28.5861 18.2717C28.3241 18.4643 28.0066 18.5665 27.6814 18.5629C27.344 18.5931 27.0032 18.7594 26.7104 19.0367C26.4175 19.314 26.1884 19.6872 26.0577 20.1003M25.3737 21.9797L25.372 21.9844" stroke="url(#paint2_linear_10251_17690)" stroke-width="1.5" stroke-linecap="round" stroke-linejoin="round"/>
<defs>
<linearGradient id="paint0_linear_10251_17690" x1="17.5024" y1="5" x2="17.5024" y2="19.01" gradientUnits="userSpaceOnUse">
<stop stop-color="#47A8FF"/>
<stop offset="1" stop-color="#2979DD"/>
</linearGradient>
<linearGradient id="paint1_linear_10251_17690" x1="6.99429" y1="15.4015" x2="9.39014" y2="21.984" gradientUnits="userSpaceOnUse">
<stop stop-color="#47A8FF"/>
<stop offset="1" stop-color="#2979DD"/>
</linearGradient>
<linearGradient id="paint2_linear_10251_17690" x1="27.7689" y1="15.4022" x2="25.3731" y2="21.9848" gradientUnits="userSpaceOnUse">
<stop stop-color="#47A8FF"/>
<stop offset="1" stop-color="#2979DD"/>
</linearGradient>
</defs>
</svg>
