<svg width="29" height="28" viewBox="0 0 29 28" fill="none" xmlns="http://www.w3.org/2000/svg">
<path d="M8.66658 16.3334C7.45235 17.0189 6.47051 18.0514 5.84693 19.2986C5.22334 20.5457 4.98644 21.9507 5.16658 23.3334C6.54926 23.5135 7.95424 23.2766 9.2014 22.6531C10.4486 22.0295 11.4811 21.0476 12.1666 19.8334C11.1565 17.8085 10.4443 16.945 8.66658 16.3334Z" fill="white" stroke="white" stroke-width="2.33333" stroke-linecap="round" stroke-linejoin="round"/>
<path fill-rule="evenodd" clip-rule="evenodd" d="M5.16659 15.1667C7.24686 15.414 9.18347 16.3539 10.6648 17.8352C12.1461 19.3165 13.086 21.2531 13.3333 23.3334C14.3645 22.7389 15.2271 21.8912 15.8395 20.8705C16.4519 19.8498 16.794 18.6898 16.8333 17.5001C18.7922 16.8109 20.5028 15.5564 21.7488 13.8951C22.9948 12.2338 23.7202 10.2403 23.8333 8.16675C23.8333 7.23849 23.4645 6.34825 22.8081 5.69187C22.1517 5.0355 21.2615 4.66675 20.3333 4.66675C18.2597 4.77981 16.2662 5.50519 14.6049 6.75117C12.9436 7.99716 11.6891 9.70779 10.9999 11.6667C9.81023 11.706 8.6502 12.0481 7.62949 12.6605C6.60878 13.2729 5.76111 14.1355 5.16659 15.1667ZM17.175 11.325C16.9562 11.1062 16.8333 10.8095 16.8333 10.5001C16.8333 10.1907 16.9562 9.89392 17.175 9.67512C17.3938 9.45633 17.6905 9.33341 17.9999 9.33341C18.3093 9.33341 18.6061 9.45633 18.8249 9.67512C19.0437 9.89392 19.1666 10.1907 19.1666 10.5001C19.1666 10.8095 19.0437 11.1062 18.8249 11.325C18.6061 11.5438 18.3093 11.6667 17.9999 11.6667C17.6905 11.6667 17.3938 11.5438 17.175 11.325Z" fill="#D9DAE3"/>
<path d="M8.66658 16.3334C7.45235 17.0189 6.47051 18.0514 5.84693 19.2986C5.22334 20.5458 4.98644 21.9507 5.16658 23.3334C6.54926 23.5136 7.95424 23.2766 9.2014 22.6531C10.4486 22.0295 11.4811 21.0476 12.1666 19.8334M5.16659 15.1667C7.24686 15.414 9.18347 16.3539 10.6648 17.8352C12.1461 19.3165 13.086 21.2531 13.3333 23.3334C14.3645 22.7389 15.2271 21.8912 15.8395 20.8705C16.4519 19.8498 16.794 18.6898 16.8333 17.5001C18.7922 16.8109 20.5028 15.5564 21.7488 13.8951C22.9948 12.2338 23.7202 10.2403 23.8333 8.16675C23.8333 7.23849 23.4645 6.34825 22.8081 5.69187C22.1517 5.0355 21.2615 4.66675 20.3333 4.66675C18.2597 4.77981 16.2662 5.50519 14.6049 6.75117C12.9436 7.99716 11.6891 9.70779 10.9999 11.6667C9.81023 11.706 8.6502 12.0481 7.62949 12.6605C6.60878 13.2729 5.76111 14.1355 5.16659 15.1667ZM16.8333 10.5001C16.8333 10.8095 16.9562 11.1062 17.175 11.325C17.3938 11.5438 17.6905 11.6667 17.9999 11.6667C18.3093 11.6667 18.6061 11.5438 18.8249 11.325C19.0437 11.1062 19.1666 10.8095 19.1666 10.5001C19.1666 10.1907 19.0437 9.89392 18.8249 9.67512C18.6061 9.45633 18.3093 9.33341 17.9999 9.33341C17.6905 9.33341 17.3938 9.45633 17.175 9.67512C16.9562 9.89392 16.8333 10.1907 16.8333 10.5001Z" stroke="#D9DAE3" stroke-width="2.33333" stroke-linecap="round" stroke-linejoin="round"/>
<path d="M17.175 11.325C16.9562 11.1062 16.8333 10.8095 16.8333 10.5001C16.8333 10.1907 16.9562 9.89391 17.175 9.67511C17.3938 9.45632 17.6905 9.3334 17.9999 9.3334C18.3093 9.3334 18.6061 9.45632 18.8249 9.67511C19.0437 9.89391 19.1666 10.1907 19.1666 10.5001C19.1666 10.8095 19.0437 11.1062 18.8249 11.325C18.6061 11.5438 18.3093 11.6667 17.9999 11.6667C17.6905 11.6667 17.3938 11.5438 17.175 11.325Z" stroke="white" stroke-width="2.33333" stroke-linecap="round" stroke-linejoin="round"/>
</svg>
