<svg width="25" height="25" viewBox="0 0 25 25" fill="none" xmlns="http://www.w3.org/2000/svg">
<path d="M16.5 18.2881C17.0304 18.2881 17.5391 18.4988 17.9142 18.8739C18.2893 19.2489 18.5 19.7577 18.5 20.2881C18.5 19.7577 18.7107 19.2489 19.0858 18.8739C19.4609 18.4988 19.9696 18.2881 20.5 18.2881C19.9696 18.2881 19.4609 18.0774 19.0858 17.7023C18.7107 17.3272 18.5 16.8185 18.5 16.2881C18.5 16.8185 18.2893 17.3272 17.9142 17.7023C17.5391 18.0774 17.0304 18.2881 16.5 18.2881ZM16.5 6.28809C17.0304 6.28809 17.5391 6.4988 17.9142 6.87387C18.2893 7.24895 18.5 7.75765 18.5 8.28809C18.5 7.75765 18.7107 7.24895 19.0858 6.87387C19.4609 6.4988 19.9696 6.28809 20.5 6.28809C19.9696 6.28809 19.4609 6.07737 19.0858 5.7023C18.7107 5.32723 18.5 4.81852 18.5 4.28809C18.5 4.81852 18.2893 5.32723 17.9142 5.7023C17.5391 6.07737 17.0304 6.28809 16.5 6.28809ZM9.5 18.2881C9.5 16.6968 10.1321 15.1707 11.2574 14.0454C12.3826 12.9202 13.9087 12.2881 15.5 12.2881C13.9087 12.2881 12.3826 11.6559 11.2574 10.5307C10.1321 9.40551 9.5 7.87938 9.5 6.28809C9.5 7.87938 8.86786 9.40551 7.74264 10.5307C6.61742 11.6559 5.0913 12.2881 3.5 12.2881C5.0913 12.2881 6.61742 12.9202 7.74264 14.0454C8.86786 15.1707 9.5 16.6968 9.5 18.2881Z" stroke="white" stroke-width="2" stroke-linecap="round" stroke-linejoin="round"/>
</svg>
