<svg width="25" height="25" viewBox="0 0 25 25" fill="none" xmlns="http://www.w3.org/2000/svg">
<path d="M20.25 12.5386L18.25 13.0386C17.3772 13.1149 16.4983 12.9992 15.675 12.6995C14.8517 12.3999 14.104 11.9235 13.4845 11.304C12.865 10.6845 12.3887 9.93685 12.089 9.11357C11.7894 8.29029 11.6737 7.41137 11.75 6.53857L12.25 4.53857M20.25 12.5386L12.25 4.53857M20.25 12.5386C20.25 14.1208 19.7808 15.6675 18.9018 16.9831C18.0227 18.2987 16.7733 19.3241 15.3115 19.9296C13.8497 20.5351 12.2411 20.6935 10.6893 20.3849C9.13743 20.0762 7.71197 19.3142 6.59315 18.1954C5.47433 17.0766 4.7124 15.6511 4.40372 14.0993C4.09504 12.5474 4.25347 10.9389 4.85897 9.47711C5.46447 8.0153 6.48985 6.76587 7.80544 5.88682C9.12104 5.00777 10.6677 4.53857 12.25 4.53857" stroke="#D9DAE3" stroke-width="2" stroke-linecap="round" stroke-linejoin="round"/>
</svg>
