<svg width="24" height="25" viewBox="0 0 24 25" fill="none" xmlns="http://www.w3.org/2000/svg">
    <path
        d="M5.88806 8.1343V8.3335C5.88983 8.26104 5.89512 8.1562 5.90934 8.02832C5.89564 8.06091 5.88806 8.09673 5.88806 8.1343Z"
        fill="#D9DAE3" />
    <path fill-rule="evenodd" clip-rule="evenodd"
        d="M6.16285 7.85941C6.04887 7.85941 5.95088 7.92917 5.90936 8.0283C6.00081 7.20806 6.46117 5.4399 8.72249 5.19067H10.8252L13.1873 5.19078H17.8496C19.4726 5.19078 20.7931 6.51124 20.7931 8.13428V10.5024C20.5985 10.1426 20.3609 9.79739 20.0787 9.47425C19.1787 8.44371 18.2615 8.01646 18.0126 7.91349C17.967 7.87965 17.9107 7.85941 17.8497 7.85941H6.16285Z"
        fill="#D9DAE3" />
    <path fill-rule="evenodd" clip-rule="evenodd"
        d="M6.21891 6.63513L8.93308 5.85699L7.99136 3.46773C8.30631 3.01577 8.40333 2.44843 8.24949 1.91192C7.96994 0.937018 6.94816 0.371632 5.97181 0.651597C4.99546 0.931561 4.42867 1.95246 4.70818 2.92724C4.86202 3.46375 5.24495 3.89347 5.75154 4.10986L6.21891 6.63513Z"
        fill="#D9DAE3" />
    <path fill-rule="evenodd" clip-rule="evenodd"
        d="M15.1602 5.85684L17.8743 6.63522L18.3418 4.10998C18.8484 3.89359 19.2313 3.46388 19.3852 2.92736C19.6647 1.95246 19.0978 0.931529 18.1214 0.651565C17.1451 0.3716 16.1234 0.93702 15.8439 1.9118C15.6901 2.44831 15.7871 3.01565 16.102 3.46761L15.1602 5.85684Z"
        fill="#D9DAE3" />
    <path
        d="M13.275 18.0278H7.74956L5.88809 19.8179V8.44458C5.88809 8.44458 5.88643 8.40461 5.88809 8.33351V8.13431C5.88809 8.09674 5.89566 8.06103 5.90937 8.02844C6.00071 7.20809 6.46117 5.44004 8.72249 5.19092H6.16285C4.53991 5.19081 3.21945 6.51127 3.21945 8.13431V22.829C3.21945 23.3951 3.543 23.8844 4.06398 24.1061C4.24408 24.1827 4.43082 24.2201 4.61496 24.2201C4.96363 24.2201 5.30296 24.0859 5.56983 23.829L8.74585 20.7727C9.57667 19.9123 11.2237 18.4702 13.275 18.0278Z"
        fill="#D9DAE3" />
    <path d="M5.8881 8.4445V8.33344C5.88644 8.40454 5.8881 8.4445 5.8881 8.4445Z" fill="#D9DAE3" />
    <path
        d="M18.0117 17.9746C17.9662 18.0079 17.9103 18.0278 17.8497 18.0278H17.818H17.7454H13.2751C11.2238 18.4701 9.57674 19.9123 8.74591 20.7727L8.82511 20.6965H17.8498C19.4729 20.6965 20.7933 19.376 20.7933 17.753V15.7651C20.2156 16.7871 19.2753 17.6006 18.0117 17.9746Z"
        fill="#D9DAE3" />
    <path
        d="M18.0128 7.91351C18.0804 7.96365 18.1246 8.04378 18.1246 8.1342V17.7531C18.1246 17.844 18.0799 17.9246 18.0116 17.9746C19.2753 17.6006 20.2155 16.7871 20.7932 15.7652V10.5024C20.5987 10.1427 20.3611 9.79741 20.0788 9.47427C19.1789 8.44384 18.2617 8.01648 18.0128 7.91351Z"
        fill="#D9DAE3" />
    <path
        d="M15.4983 14.5361C15.8714 14.1702 15.812 13.5667 15.4081 13.2309L15.0638 12.9445C14.8278 12.7483 14.4759 12.7917 14.2968 13.0389C13.2907 14.3522 12.3623 15.082 11.0287 14.8413C10.1633 14.6851 9.46527 14.2395 9.24317 14.085C9.19333 14.0503 9.13869 14.0237 9.07993 14.0086C8.88155 13.9577 8.67468 14.0484 8.57878 14.2284L8.45788 14.4553C8.28947 14.7713 8.35866 15.1662 8.65651 15.3683C10.0251 16.2969 12.7367 17.2443 15.4983 14.5361Z"
        fill="#D9DAE3" />
    <path
        d="M7.64034 11.4595C7.49135 11.7025 7.56702 12.0133 7.78749 12.1939L7.81367 12.2153C7.84716 12.2427 7.88478 12.2647 7.92513 12.2804L7.93978 12.2861C8.10999 12.3522 8.30328 12.2916 8.40528 12.1401C8.41452 12.1216 8.583 11.7888 8.88108 11.5658C9.28235 11.2655 9.76991 11.2908 10.3303 11.6408C10.5232 11.7613 10.778 11.6667 10.8455 11.4495L10.935 11.1619C11.0249 10.8728 10.8768 10.5583 10.5861 10.474C8.9191 9.99069 8.09476 10.7185 7.64034 11.4595Z"
        fill="#D9DAE3" />
    <circle cx="14.2483" cy="10.8145" r="1.08818" transform="rotate(-8.70619 14.2483 10.8145)" fill="#D9DAE3" />
</svg>