<svg width="128" height="168" viewBox="0 0 128 168" fill="none" xmlns="http://www.w3.org/2000/svg">
<path d="M8.00195 72C8.00195 86.8521 13.9019 101.096 24.404 111.598C34.906 122.1 49.1498 128 64.002 128M64.002 128C78.8541 128 93.0979 122.1 103.6 111.598C114.102 101.096 120.002 86.8521 120.002 72M64.002 128V160M32.002 160H96.002M40.002 32C40.002 25.6348 42.5305 19.5303 47.0314 15.0294C51.5323 10.5286 57.6368 8 64.002 8C70.3672 8 76.4717 10.5286 80.9725 15.0294C85.4734 19.5303 88.002 25.6348 88.002 32V72C88.002 78.3652 85.4734 84.4697 80.9725 88.9706C76.4717 93.4714 70.3672 96 64.002 96C57.6368 96 51.5323 93.4714 47.0314 88.9706C42.5305 84.4697 40.002 78.3652 40.002 72V32Z" stroke="white" stroke-width="16" stroke-linecap="round" stroke-linejoin="round"/>
</svg>
