<svg width="32" height="33" viewBox="0 0 32 33" fill="none" xmlns="http://www.w3.org/2000/svg">
<path d="M20.001 11.3271C20.829 11.9481 21.501 12.7534 21.9638 13.6791C22.4267 14.6048 22.6676 15.6255 22.6676 16.6605C22.6676 17.6954 22.4267 18.7162 21.9638 19.6419C21.501 20.5676 20.829 21.3728 20.001 21.9938M23.6012 7.32715C24.9932 8.45202 26.1159 9.87398 26.8872 11.4889C27.6585 13.1038 28.0588 14.8708 28.0588 16.6605C28.0588 18.4501 27.6585 20.2171 26.8872 21.8321C26.1159 23.447 24.9932 24.8689 23.6012 25.9938M8.00098 20.6604H5.33431C4.98069 20.6604 4.64155 20.52 4.3915 20.2699C4.14145 20.0199 4.00098 19.6807 4.00098 19.3271V13.9938C4.00098 13.6402 4.14145 13.301 4.3915 13.051C4.64155 12.8009 4.98069 12.6604 5.33431 12.6604H8.00098L12.6676 6.66045C12.7842 6.43409 12.9778 6.25688 13.2136 6.16084C13.4494 6.06479 13.7118 6.05626 13.9533 6.13677C14.1948 6.21728 14.3996 6.38153 14.5306 6.59983C14.6616 6.81814 14.7102 7.0761 14.6676 7.32711V25.9938C14.7102 26.2448 14.6616 26.5028 14.5306 26.7211C14.3996 26.9394 14.1948 27.1036 13.9533 27.1841C13.7118 27.2646 13.4494 27.2561 13.2136 27.1601C12.9778 27.064 12.7842 26.8868 12.6676 26.6604L8.00098 20.6604Z" stroke="#FF9B06" stroke-width="2.66667" stroke-linecap="round" stroke-linejoin="round"/>
</svg>
